G04 #@! TF.GenerationSoftware,KiCad,Pcbnew,(5.1.10-1-10_14)*
G04 #@! TF.CreationDate,2021-12-16T16:27:26-08:00*
G04 #@! TF.ProjectId,qiroll PAS digital logic,7169726f-6c6c-4205-9041-532064696769,rev?*
G04 #@! TF.SameCoordinates,Original*
G04 #@! TF.FileFunction,Copper,L2,Bot*
G04 #@! TF.FilePolarity,Positive*
%FSLAX46Y46*%
G04 Gerber Fmt 4.6, Leading zero omitted, Abs format (unit mm)*
G04 Created by KiCad (PCBNEW (5.1.10-1-10_14)) date 2021-12-16 16:27:26*
%MOMM*%
%LPD*%
G01*
G04 APERTURE LIST*
G04 #@! TA.AperFunction,ComponentPad*
%ADD10O,1.700000X1.700000*%
G04 #@! TD*
G04 #@! TA.AperFunction,ComponentPad*
%ADD11R,1.700000X1.700000*%
G04 #@! TD*
G04 #@! TA.AperFunction,ComponentPad*
%ADD12C,1.600000*%
G04 #@! TD*
G04 #@! TA.AperFunction,ComponentPad*
%ADD13R,1.600000X1.600000*%
G04 #@! TD*
G04 #@! TA.AperFunction,ComponentPad*
%ADD14C,3.800000*%
G04 #@! TD*
G04 #@! TA.AperFunction,ComponentPad*
%ADD15C,2.000000*%
G04 #@! TD*
G04 #@! TA.AperFunction,ComponentPad*
%ADD16R,2.000000X2.000000*%
G04 #@! TD*
G04 #@! TA.AperFunction,ViaPad*
%ADD17C,0.650000*%
G04 #@! TD*
G04 #@! TA.AperFunction,Conductor*
%ADD18C,0.150000*%
G04 #@! TD*
G04 #@! TA.AperFunction,Conductor*
%ADD19C,0.254000*%
G04 #@! TD*
G04 #@! TA.AperFunction,Conductor*
%ADD20C,0.100000*%
G04 #@! TD*
G04 APERTURE END LIST*
D10*
G04 #@! TO.P,J4,4*
G04 #@! TO.N,Net-(D2-Pad2)*
X125412500Y-103822500D03*
G04 #@! TO.P,J4,3*
G04 #@! TO.N,Net-(J4-Pad3)*
X122872500Y-103822500D03*
G04 #@! TO.P,J4,2*
G04 #@! TO.N,Net-(F1-Pad2)*
X120332500Y-103822500D03*
D11*
G04 #@! TO.P,J4,1*
G04 #@! TO.N,GND*
X117792500Y-103822500D03*
G04 #@! TD*
D10*
G04 #@! TO.P,J5,3*
G04 #@! TO.N,Net-(F1-Pad2)*
X154368500Y-103822500D03*
G04 #@! TO.P,J5,2*
G04 #@! TO.N,GND*
X151828500Y-103822500D03*
D11*
G04 #@! TO.P,J5,1*
G04 #@! TO.N,Net-(D2-Pad1)*
X149288500Y-103822500D03*
G04 #@! TD*
D10*
G04 #@! TO.P,J3,3*
G04 #@! TO.N,Net-(J3-Pad3)*
X140462000Y-103822500D03*
G04 #@! TO.P,J3,2*
G04 #@! TO.N,GND*
X143002000Y-103822500D03*
D11*
G04 #@! TO.P,J3,1*
G04 #@! TO.N,VDD*
X145542000Y-103822500D03*
G04 #@! TD*
D10*
G04 #@! TO.P,J2,4*
G04 #@! TO.N,Net-(J2-Pad4)*
X129159000Y-103822500D03*
G04 #@! TO.P,J2,3*
G04 #@! TO.N,Net-(C2-Pad2)*
X131699000Y-103822500D03*
G04 #@! TO.P,J2,2*
G04 #@! TO.N,Net-(D2-Pad1)*
X134239000Y-103822500D03*
D11*
G04 #@! TO.P,J2,1*
G04 #@! TO.N,GND*
X136779000Y-103822500D03*
G04 #@! TD*
D12*
G04 #@! TO.P,C12,2*
G04 #@! TO.N,GND*
X130770000Y-111252000D03*
D13*
G04 #@! TO.P,C12,1*
G04 #@! TO.N,VDD*
X128270000Y-111252000D03*
G04 #@! TD*
D14*
G04 #@! TO.P,H4,1*
G04 #@! TO.N,GND*
X114300000Y-96520000D03*
G04 #@! TD*
G04 #@! TO.P,H3,1*
G04 #@! TO.N,GND*
X158750000Y-96520000D03*
G04 #@! TD*
G04 #@! TO.P,H2,1*
G04 #@! TO.N,GND*
X114300000Y-123825000D03*
G04 #@! TD*
G04 #@! TO.P,H1,1*
G04 #@! TO.N,GND*
X158750000Y-123825000D03*
G04 #@! TD*
D15*
G04 #@! TO.P,C10,2*
G04 #@! TO.N,GND*
X117348000Y-119300000D03*
D16*
G04 #@! TO.P,C10,1*
G04 #@! TO.N,Net-(C10-Pad1)*
X117348000Y-114300000D03*
G04 #@! TD*
D17*
G04 #@! TO.N,GND*
X156210500Y-125454300D03*
X142305000Y-116205000D03*
X136525000Y-121285000D03*
X146050000Y-125051800D03*
X156210000Y-99060000D03*
X125679200Y-111353600D03*
X153735000Y-109220000D03*
X156845000Y-106045000D03*
X153810000Y-122234600D03*
X160020000Y-116205000D03*
X132080000Y-125095000D03*
X132080000Y-123825000D03*
X127000000Y-125095000D03*
X132588000Y-119380000D03*
X145796000Y-120396000D03*
X123596400Y-110439200D03*
X122326400Y-110439200D03*
X124968000Y-110439200D03*
X122123200Y-113690400D03*
X122123200Y-114706400D03*
X122123200Y-115620800D03*
X124612400Y-112420400D03*
X122885200Y-109677200D03*
X124612400Y-111353600D03*
X125679200Y-112420400D03*
G04 #@! TO.N,Net-(U1-Pad10)*
X140732300Y-109004300D03*
X132080000Y-122428000D03*
G04 #@! TO.N,Net-(U2-Pad3)*
X141744400Y-120289100D03*
X148561100Y-114257300D03*
X156750500Y-116316300D03*
G04 #@! TO.N,Net-(U1-Pad11)*
X139192000Y-113792000D03*
X139192000Y-111687900D03*
G04 #@! TO.N,Net-(U2-Pad12)*
X145608100Y-110630600D03*
X141361300Y-121369990D03*
X141732000Y-124460000D03*
X140666264Y-122886264D03*
G04 #@! TO.N,VDD*
X150495000Y-117475000D03*
X127635000Y-117475000D03*
X131241300Y-120802400D03*
X136525000Y-122555000D03*
X144830800Y-101396800D03*
G04 #@! TO.N,Net-(D2-Pad1)*
X144283400Y-116015900D03*
X153670000Y-106222800D03*
X133553200Y-106934000D03*
G04 #@! TO.N,Net-(D4-Pad2)*
X132080000Y-121412000D03*
X131064000Y-116840000D03*
G04 #@! TD*
D18*
G04 #@! TO.N,GND*
X144273302Y-116840000D02*
X143510000Y-116840000D01*
X146050000Y-115570000D02*
X145603710Y-116016290D01*
X145603710Y-116016290D02*
X145097012Y-116016290D01*
X145097012Y-116016290D02*
X144273302Y-116840000D01*
G04 #@! TO.N,Net-(U1-Pad10)*
X139192000Y-114808000D02*
X133857400Y-121398700D01*
X140732300Y-113267700D02*
X140732300Y-109004300D01*
X139192000Y-114808000D02*
X140732300Y-113267700D01*
X132828100Y-122428000D02*
X133857400Y-121398700D01*
X132080000Y-122428000D02*
X132828100Y-122428000D01*
G04 #@! TO.N,Net-(U2-Pad3)*
X148561100Y-116316300D02*
X156750500Y-116316300D01*
X141744400Y-120289100D02*
X145717200Y-116316300D01*
X145717200Y-116316300D02*
X148561100Y-116316300D01*
X148561100Y-116316300D02*
X148561100Y-114257300D01*
G04 #@! TO.N,Net-(U1-Pad11)*
X139192000Y-111687900D02*
X139192000Y-113792000D01*
G04 #@! TO.N,Net-(U2-Pad12)*
X141361300Y-114877400D02*
X141361300Y-119893900D01*
X141036301Y-120218899D02*
X141036301Y-121044991D01*
X145608100Y-110630600D02*
X141361300Y-114877400D01*
X141036301Y-121044991D02*
X141361300Y-121369990D01*
X141361300Y-119893900D02*
X141036301Y-120218899D01*
X141732000Y-124460000D02*
X141732000Y-123952000D01*
X141732000Y-123952000D02*
X140716000Y-122936000D01*
X140716000Y-122936000D02*
X140666264Y-122886264D01*
G04 #@! TO.N,VDD*
X141676802Y-121920000D02*
X137160000Y-121920000D01*
X146121802Y-117475000D02*
X141676802Y-121920000D01*
X137160000Y-121920000D02*
X136525000Y-122555000D01*
X150495000Y-117475000D02*
X146121802Y-117475000D01*
X127635000Y-111887000D02*
X128270000Y-111252000D01*
X127635000Y-117475000D02*
X127635000Y-111887000D01*
X144830800Y-103111300D02*
X145542000Y-103822500D01*
X144830800Y-101396800D02*
X144830800Y-103111300D01*
X127913900Y-117475000D02*
X127635000Y-117475000D01*
X131241300Y-120802400D02*
X127913900Y-117475000D01*
G04 #@! TO.N,Net-(D2-Pad1)*
X153670000Y-106629300D02*
X144283400Y-116015900D01*
X153670000Y-106629300D02*
X153670000Y-106222800D01*
X153670000Y-106222800D02*
X153670000Y-106222800D01*
X133553200Y-104508300D02*
X134239000Y-103822500D01*
X133553200Y-106934000D02*
X133553200Y-104508300D01*
G04 #@! TO.N,Net-(D4-Pad2)*
X131064000Y-116840000D02*
X130708400Y-117195600D01*
X130708400Y-117195600D02*
X130708400Y-119380000D01*
X132080000Y-120751600D02*
X132080000Y-121412000D01*
X130708400Y-119380000D02*
X132080000Y-120751600D01*
G04 #@! TD*
D19*
G04 #@! TO.N,GND*
X112703256Y-94743651D02*
X114300000Y-96340395D01*
X115896744Y-94743651D01*
X115851716Y-94665000D01*
X157198284Y-94665000D01*
X157153256Y-94743651D01*
X158750000Y-96340395D01*
X160346744Y-94743651D01*
X160301716Y-94665000D01*
X160605000Y-94665000D01*
X160605000Y-94968284D01*
X160526349Y-94923256D01*
X158929605Y-96520000D01*
X160526349Y-98116744D01*
X160605000Y-98071716D01*
X160605001Y-122273284D01*
X160526349Y-122228256D01*
X158929605Y-123825000D01*
X160526349Y-125421744D01*
X160605001Y-125376716D01*
X160605001Y-125680000D01*
X160301716Y-125680000D01*
X160346744Y-125601349D01*
X158750000Y-124004605D01*
X157153256Y-125601349D01*
X157198284Y-125680000D01*
X115851716Y-125680000D01*
X115896744Y-125601349D01*
X114300000Y-124004605D01*
X112703256Y-125601349D01*
X112748284Y-125680000D01*
X112445000Y-125680000D01*
X112445000Y-125376716D01*
X112523651Y-125421744D01*
X114120395Y-123825000D01*
X114479605Y-123825000D01*
X116076349Y-125421744D01*
X116432867Y-125217638D01*
X116663575Y-124774777D01*
X116803452Y-124295417D01*
X116847123Y-123797979D01*
X116792909Y-123301578D01*
X116642894Y-122825293D01*
X116432867Y-122432362D01*
X116076349Y-122228256D01*
X114479605Y-123825000D01*
X114120395Y-123825000D01*
X112523651Y-122228256D01*
X112445000Y-122273284D01*
X112445000Y-122048651D01*
X112703256Y-122048651D01*
X114300000Y-123645395D01*
X115896744Y-122048651D01*
X115692638Y-121692133D01*
X115249777Y-121461425D01*
X114770417Y-121321548D01*
X114272979Y-121277877D01*
X113776578Y-121332091D01*
X113300293Y-121482106D01*
X112907362Y-121692133D01*
X112703256Y-122048651D01*
X112445000Y-122048651D01*
X112445000Y-120435413D01*
X116392192Y-120435413D01*
X116487956Y-120699814D01*
X116777571Y-120840704D01*
X117089108Y-120922384D01*
X117410595Y-120941718D01*
X117729675Y-120897961D01*
X118034088Y-120792795D01*
X118208044Y-120699814D01*
X118303808Y-120435413D01*
X117348000Y-119479605D01*
X116392192Y-120435413D01*
X112445000Y-120435413D01*
X112445000Y-119362595D01*
X115706282Y-119362595D01*
X115750039Y-119681675D01*
X115855205Y-119986088D01*
X115948186Y-120160044D01*
X116212587Y-120255808D01*
X117168395Y-119300000D01*
X117527605Y-119300000D01*
X118483413Y-120255808D01*
X118747814Y-120160044D01*
X118888704Y-119870429D01*
X118970384Y-119558892D01*
X118989718Y-119237405D01*
X118945961Y-118918325D01*
X118840795Y-118613912D01*
X118747814Y-118439956D01*
X118483413Y-118344192D01*
X117527605Y-119300000D01*
X117168395Y-119300000D01*
X116212587Y-118344192D01*
X115948186Y-118439956D01*
X115807296Y-118729571D01*
X115725616Y-119041108D01*
X115706282Y-119362595D01*
X112445000Y-119362595D01*
X112445000Y-118164587D01*
X116392192Y-118164587D01*
X117348000Y-119120395D01*
X118303808Y-118164587D01*
X118208044Y-117900186D01*
X117918429Y-117759296D01*
X117606892Y-117677616D01*
X117285405Y-117658282D01*
X116966325Y-117702039D01*
X116661912Y-117807205D01*
X116487956Y-117900186D01*
X116392192Y-118164587D01*
X112445000Y-118164587D01*
X112445000Y-117380448D01*
X126675000Y-117380448D01*
X126675000Y-117569552D01*
X126711892Y-117755022D01*
X126784259Y-117929731D01*
X126889319Y-118086964D01*
X127023036Y-118220681D01*
X127180269Y-118325741D01*
X127354978Y-118398108D01*
X127540448Y-118435000D01*
X127729552Y-118435000D01*
X127846539Y-118411730D01*
X130281300Y-120846492D01*
X130281300Y-120896952D01*
X130318192Y-121082422D01*
X130390559Y-121257131D01*
X130495619Y-121414364D01*
X130629336Y-121548081D01*
X130786569Y-121653141D01*
X130961278Y-121725508D01*
X131146748Y-121762400D01*
X131186044Y-121762400D01*
X131229259Y-121866731D01*
X131264852Y-121920000D01*
X131229259Y-121973269D01*
X131156892Y-122147978D01*
X131120000Y-122333448D01*
X131120000Y-122522552D01*
X131156892Y-122708022D01*
X131229259Y-122882731D01*
X131334319Y-123039964D01*
X131468036Y-123173681D01*
X131625269Y-123278741D01*
X131799978Y-123351108D01*
X131985448Y-123388000D01*
X132174552Y-123388000D01*
X132360022Y-123351108D01*
X132534731Y-123278741D01*
X132691964Y-123173681D01*
X132727645Y-123138000D01*
X132793225Y-123138000D01*
X132828100Y-123141435D01*
X132862975Y-123138000D01*
X132862977Y-123138000D01*
X132967284Y-123127727D01*
X133101120Y-123087128D01*
X133224463Y-123021200D01*
X133332575Y-122932475D01*
X133354812Y-122905379D01*
X133799743Y-122460448D01*
X135565000Y-122460448D01*
X135565000Y-122649552D01*
X135601892Y-122835022D01*
X135674259Y-123009731D01*
X135779319Y-123166964D01*
X135913036Y-123300681D01*
X136070269Y-123405741D01*
X136244978Y-123478108D01*
X136430448Y-123515000D01*
X136619552Y-123515000D01*
X136805022Y-123478108D01*
X136979731Y-123405741D01*
X137136964Y-123300681D01*
X137270681Y-123166964D01*
X137375741Y-123009731D01*
X137448108Y-122835022D01*
X137485000Y-122649552D01*
X137485000Y-122630000D01*
X139738430Y-122630000D01*
X139706264Y-122791712D01*
X139706264Y-122980816D01*
X139743156Y-123166286D01*
X139815523Y-123340995D01*
X139920583Y-123498228D01*
X140054300Y-123631945D01*
X140211533Y-123737005D01*
X140386242Y-123809372D01*
X140571712Y-123846264D01*
X140622173Y-123846264D01*
X140851946Y-124076037D01*
X140808892Y-124179978D01*
X140772000Y-124365448D01*
X140772000Y-124554552D01*
X140808892Y-124740022D01*
X140881259Y-124914731D01*
X140986319Y-125071964D01*
X141120036Y-125205681D01*
X141277269Y-125310741D01*
X141451978Y-125383108D01*
X141637448Y-125420000D01*
X141826552Y-125420000D01*
X142012022Y-125383108D01*
X142186731Y-125310741D01*
X142343964Y-125205681D01*
X142477681Y-125071964D01*
X142582741Y-124914731D01*
X142655108Y-124740022D01*
X142692000Y-124554552D01*
X142692000Y-124365448D01*
X142655108Y-124179978D01*
X142582741Y-124005269D01*
X142480344Y-123852021D01*
X156202877Y-123852021D01*
X156257091Y-124348422D01*
X156407106Y-124824707D01*
X156617133Y-125217638D01*
X156973651Y-125421744D01*
X158570395Y-123825000D01*
X156973651Y-122228256D01*
X156617133Y-122432362D01*
X156386425Y-122875223D01*
X156246548Y-123354583D01*
X156202877Y-123852021D01*
X142480344Y-123852021D01*
X142477681Y-123848036D01*
X142427053Y-123797408D01*
X142391128Y-123678980D01*
X142325200Y-123555637D01*
X142236475Y-123447525D01*
X142209384Y-123425292D01*
X141626264Y-122842173D01*
X141626264Y-122791712D01*
X141594098Y-122630000D01*
X141641927Y-122630000D01*
X141676802Y-122633435D01*
X141711677Y-122630000D01*
X141711679Y-122630000D01*
X141815986Y-122619727D01*
X141949822Y-122579128D01*
X142073165Y-122513200D01*
X142181277Y-122424475D01*
X142203514Y-122397379D01*
X142552242Y-122048651D01*
X157153256Y-122048651D01*
X158750000Y-123645395D01*
X160346744Y-122048651D01*
X160142638Y-121692133D01*
X159699777Y-121461425D01*
X159220417Y-121321548D01*
X158722979Y-121277877D01*
X158226578Y-121332091D01*
X157750293Y-121482106D01*
X157357362Y-121692133D01*
X157153256Y-122048651D01*
X142552242Y-122048651D01*
X146415894Y-118185000D01*
X149847355Y-118185000D01*
X149883036Y-118220681D01*
X150040269Y-118325741D01*
X150214978Y-118398108D01*
X150400448Y-118435000D01*
X150589552Y-118435000D01*
X150775022Y-118398108D01*
X150949731Y-118325741D01*
X151106964Y-118220681D01*
X151240681Y-118086964D01*
X151345741Y-117929731D01*
X151418108Y-117755022D01*
X151455000Y-117569552D01*
X151455000Y-117380448D01*
X151418108Y-117194978D01*
X151348239Y-117026300D01*
X156102855Y-117026300D01*
X156138536Y-117061981D01*
X156295769Y-117167041D01*
X156470478Y-117239408D01*
X156655948Y-117276300D01*
X156845052Y-117276300D01*
X157030522Y-117239408D01*
X157205231Y-117167041D01*
X157362464Y-117061981D01*
X157496181Y-116928264D01*
X157601241Y-116771031D01*
X157673608Y-116596322D01*
X157710500Y-116410852D01*
X157710500Y-116221748D01*
X157673608Y-116036278D01*
X157601241Y-115861569D01*
X157496181Y-115704336D01*
X157362464Y-115570619D01*
X157205231Y-115465559D01*
X157030522Y-115393192D01*
X156845052Y-115356300D01*
X156655948Y-115356300D01*
X156470478Y-115393192D01*
X156295769Y-115465559D01*
X156138536Y-115570619D01*
X156102855Y-115606300D01*
X149271100Y-115606300D01*
X149271100Y-114904945D01*
X149306781Y-114869264D01*
X149411841Y-114712031D01*
X149484208Y-114537322D01*
X149521100Y-114351852D01*
X149521100Y-114162748D01*
X149484208Y-113977278D01*
X149411841Y-113802569D01*
X149306781Y-113645336D01*
X149173064Y-113511619D01*
X149015831Y-113406559D01*
X148841122Y-113334192D01*
X148655652Y-113297300D01*
X148466548Y-113297300D01*
X148281078Y-113334192D01*
X148106369Y-113406559D01*
X147949136Y-113511619D01*
X147815419Y-113645336D01*
X147710359Y-113802569D01*
X147637992Y-113977278D01*
X147601100Y-114162748D01*
X147601100Y-114351852D01*
X147637992Y-114537322D01*
X147710359Y-114712031D01*
X147815419Y-114869264D01*
X147851101Y-114904946D01*
X147851100Y-115606300D01*
X145752075Y-115606300D01*
X145717200Y-115602865D01*
X145698704Y-115604687D01*
X154147389Y-107156003D01*
X154174474Y-107133775D01*
X154196704Y-107106688D01*
X154196707Y-107106685D01*
X154263199Y-107025664D01*
X154263201Y-107025662D01*
X154307314Y-106943131D01*
X154415681Y-106834764D01*
X154520741Y-106677531D01*
X154593108Y-106502822D01*
X154630000Y-106317352D01*
X154630000Y-106128248D01*
X154593108Y-105942778D01*
X154520741Y-105768069D01*
X154415681Y-105610836D01*
X154281964Y-105477119D01*
X154124731Y-105372059D01*
X153950022Y-105299692D01*
X153764552Y-105262800D01*
X153575448Y-105262800D01*
X153389978Y-105299692D01*
X153215269Y-105372059D01*
X153058036Y-105477119D01*
X152924319Y-105610836D01*
X152819259Y-105768069D01*
X152746892Y-105942778D01*
X152710000Y-106128248D01*
X152710000Y-106317352D01*
X152746892Y-106502822D01*
X152760217Y-106534991D01*
X144239309Y-115055900D01*
X144188848Y-115055900D01*
X144003378Y-115092792D01*
X143828669Y-115165159D01*
X143671436Y-115270219D01*
X143537719Y-115403936D01*
X143432659Y-115561169D01*
X143360292Y-115735878D01*
X143323400Y-115921348D01*
X143323400Y-116110452D01*
X143360292Y-116295922D01*
X143432659Y-116470631D01*
X143537719Y-116627864D01*
X143671436Y-116761581D01*
X143828669Y-116866641D01*
X144003378Y-116939008D01*
X144075963Y-116953446D01*
X142071300Y-118958109D01*
X142071300Y-115171491D01*
X145652192Y-111590600D01*
X145702652Y-111590600D01*
X145888122Y-111553708D01*
X146062831Y-111481341D01*
X146220064Y-111376281D01*
X146353781Y-111242564D01*
X146458841Y-111085331D01*
X146531208Y-110910622D01*
X146568100Y-110725152D01*
X146568100Y-110536048D01*
X146531208Y-110350578D01*
X146458841Y-110175869D01*
X146353781Y-110018636D01*
X146220064Y-109884919D01*
X146062831Y-109779859D01*
X145888122Y-109707492D01*
X145702652Y-109670600D01*
X145513548Y-109670600D01*
X145328078Y-109707492D01*
X145153369Y-109779859D01*
X144996136Y-109884919D01*
X144862419Y-110018636D01*
X144757359Y-110175869D01*
X144684992Y-110350578D01*
X144648100Y-110536048D01*
X144648100Y-110586508D01*
X140883917Y-114350692D01*
X140856825Y-114372926D01*
X140768100Y-114481038D01*
X140702172Y-114604381D01*
X140661573Y-114738217D01*
X140651300Y-114842523D01*
X140647865Y-114877400D01*
X140651300Y-114912275D01*
X140651301Y-119599808D01*
X140558918Y-119692191D01*
X140531826Y-119714425D01*
X140443101Y-119822537D01*
X140377173Y-119945880D01*
X140336574Y-120079716D01*
X140326301Y-120184022D01*
X140322866Y-120218899D01*
X140326301Y-120253774D01*
X140326301Y-121010116D01*
X140322866Y-121044991D01*
X140326301Y-121079866D01*
X140326301Y-121079868D01*
X140331434Y-121131978D01*
X140336575Y-121184175D01*
X140344409Y-121210000D01*
X137194875Y-121210000D01*
X137160000Y-121206565D01*
X137125125Y-121210000D01*
X137125123Y-121210000D01*
X137020816Y-121220273D01*
X136886980Y-121260872D01*
X136763637Y-121326800D01*
X136655525Y-121415525D01*
X136633288Y-121442621D01*
X136480909Y-121595000D01*
X136430448Y-121595000D01*
X136244978Y-121631892D01*
X136070269Y-121704259D01*
X135913036Y-121809319D01*
X135779319Y-121943036D01*
X135674259Y-122100269D01*
X135601892Y-122274978D01*
X135565000Y-122460448D01*
X133799743Y-122460448D01*
X134311718Y-121948474D01*
X134313721Y-121947116D01*
X134361011Y-121899181D01*
X134384107Y-121876085D01*
X134385645Y-121874211D01*
X134387330Y-121872503D01*
X134407693Y-121847346D01*
X134450599Y-121795064D01*
X134451744Y-121792922D01*
X139720416Y-115283675D01*
X141209689Y-113794403D01*
X141236774Y-113772175D01*
X141259004Y-113745088D01*
X141259007Y-113745085D01*
X141310535Y-113682298D01*
X141325500Y-113664063D01*
X141391428Y-113540720D01*
X141432027Y-113406884D01*
X141442300Y-113302577D01*
X141442300Y-113302576D01*
X141445735Y-113267701D01*
X141442300Y-113232826D01*
X141442300Y-109651945D01*
X141477981Y-109616264D01*
X141583041Y-109459031D01*
X141655408Y-109284322D01*
X141692300Y-109098852D01*
X141692300Y-108909748D01*
X141655408Y-108724278D01*
X141583041Y-108549569D01*
X141477981Y-108392336D01*
X141344264Y-108258619D01*
X141187031Y-108153559D01*
X141012322Y-108081192D01*
X140826852Y-108044300D01*
X140637748Y-108044300D01*
X140452278Y-108081192D01*
X140277569Y-108153559D01*
X140120336Y-108258619D01*
X139986619Y-108392336D01*
X139881559Y-108549569D01*
X139809192Y-108724278D01*
X139772300Y-108909748D01*
X139772300Y-109098852D01*
X139809192Y-109284322D01*
X139881559Y-109459031D01*
X139986619Y-109616264D01*
X140022301Y-109651946D01*
X140022300Y-111202578D01*
X139937681Y-111075936D01*
X139803964Y-110942219D01*
X139646731Y-110837159D01*
X139472022Y-110764792D01*
X139286552Y-110727900D01*
X139097448Y-110727900D01*
X138911978Y-110764792D01*
X138737269Y-110837159D01*
X138580036Y-110942219D01*
X138446319Y-111075936D01*
X138341259Y-111233169D01*
X138268892Y-111407878D01*
X138232000Y-111593348D01*
X138232000Y-111782452D01*
X138268892Y-111967922D01*
X138341259Y-112142631D01*
X138446319Y-112299864D01*
X138482000Y-112335545D01*
X138482001Y-113144354D01*
X138446319Y-113180036D01*
X138341259Y-113337269D01*
X138268892Y-113511978D01*
X138232000Y-113697448D01*
X138232000Y-113886552D01*
X138268892Y-114072022D01*
X138341259Y-114246731D01*
X138446319Y-114403964D01*
X138534347Y-114491992D01*
X133328992Y-120923016D01*
X133022507Y-121229502D01*
X133003108Y-121131978D01*
X132930741Y-120957269D01*
X132825681Y-120800036D01*
X132791983Y-120766338D01*
X132793435Y-120751599D01*
X132789126Y-120707848D01*
X132779727Y-120612416D01*
X132739128Y-120478580D01*
X132673200Y-120355237D01*
X132619877Y-120290263D01*
X132606707Y-120274215D01*
X132606704Y-120274212D01*
X132584474Y-120247125D01*
X132557389Y-120224897D01*
X131418400Y-119085909D01*
X131418400Y-117732300D01*
X131518731Y-117690741D01*
X131675964Y-117585681D01*
X131809681Y-117451964D01*
X131914741Y-117294731D01*
X131987108Y-117120022D01*
X132024000Y-116934552D01*
X132024000Y-116745448D01*
X131987108Y-116559978D01*
X131914741Y-116385269D01*
X131809681Y-116228036D01*
X131675964Y-116094319D01*
X131518731Y-115989259D01*
X131344022Y-115916892D01*
X131158552Y-115880000D01*
X130969448Y-115880000D01*
X130783978Y-115916892D01*
X130609269Y-115989259D01*
X130452036Y-116094319D01*
X130318319Y-116228036D01*
X130213259Y-116385269D01*
X130140892Y-116559978D01*
X130104000Y-116745448D01*
X130104000Y-116820192D01*
X130049272Y-116922581D01*
X130008673Y-117056417D01*
X130002409Y-117120022D01*
X129994965Y-117195600D01*
X129998400Y-117230475D01*
X129998401Y-118555409D01*
X128501638Y-117058646D01*
X128485741Y-117020269D01*
X128380681Y-116863036D01*
X128345000Y-116827355D01*
X128345000Y-112690072D01*
X129070000Y-112690072D01*
X129194482Y-112677812D01*
X129314180Y-112641502D01*
X129424494Y-112582537D01*
X129521185Y-112503185D01*
X129600537Y-112406494D01*
X129659502Y-112296180D01*
X129675117Y-112244702D01*
X129956903Y-112244702D01*
X130028486Y-112488671D01*
X130283996Y-112609571D01*
X130558184Y-112678300D01*
X130840512Y-112692217D01*
X131120130Y-112650787D01*
X131386292Y-112555603D01*
X131511514Y-112488671D01*
X131583097Y-112244702D01*
X130770000Y-111431605D01*
X129956903Y-112244702D01*
X129675117Y-112244702D01*
X129695812Y-112176482D01*
X129708072Y-112052000D01*
X129708072Y-112044785D01*
X129777298Y-112065097D01*
X130590395Y-111252000D01*
X130949605Y-111252000D01*
X131762702Y-112065097D01*
X132006671Y-111993514D01*
X132127571Y-111738004D01*
X132196300Y-111463816D01*
X132210217Y-111181488D01*
X132168787Y-110901870D01*
X132073603Y-110635708D01*
X132006671Y-110510486D01*
X131762702Y-110438903D01*
X130949605Y-111252000D01*
X130590395Y-111252000D01*
X129777298Y-110438903D01*
X129708072Y-110459215D01*
X129708072Y-110452000D01*
X129695812Y-110327518D01*
X129675118Y-110259298D01*
X129956903Y-110259298D01*
X130770000Y-111072395D01*
X131583097Y-110259298D01*
X131511514Y-110015329D01*
X131256004Y-109894429D01*
X130981816Y-109825700D01*
X130699488Y-109811783D01*
X130419870Y-109853213D01*
X130153708Y-109948397D01*
X130028486Y-110015329D01*
X129956903Y-110259298D01*
X129675118Y-110259298D01*
X129659502Y-110207820D01*
X129600537Y-110097506D01*
X129521185Y-110000815D01*
X129424494Y-109921463D01*
X129314180Y-109862498D01*
X129194482Y-109826188D01*
X129070000Y-109813928D01*
X127470000Y-109813928D01*
X127345518Y-109826188D01*
X127225820Y-109862498D01*
X127115506Y-109921463D01*
X127018815Y-110000815D01*
X126939463Y-110097506D01*
X126880498Y-110207820D01*
X126844188Y-110327518D01*
X126831928Y-110452000D01*
X126831928Y-112052000D01*
X126844188Y-112176482D01*
X126880498Y-112296180D01*
X126925001Y-112379438D01*
X126925000Y-116827355D01*
X126889319Y-116863036D01*
X126784259Y-117020269D01*
X126711892Y-117194978D01*
X126675000Y-117380448D01*
X112445000Y-117380448D01*
X112445000Y-113300000D01*
X115709928Y-113300000D01*
X115709928Y-115300000D01*
X115722188Y-115424482D01*
X115758498Y-115544180D01*
X115817463Y-115654494D01*
X115896815Y-115751185D01*
X115993506Y-115830537D01*
X116103820Y-115889502D01*
X116223518Y-115925812D01*
X116348000Y-115938072D01*
X118348000Y-115938072D01*
X118472482Y-115925812D01*
X118592180Y-115889502D01*
X118702494Y-115830537D01*
X118799185Y-115751185D01*
X118878537Y-115654494D01*
X118937502Y-115544180D01*
X118973812Y-115424482D01*
X118986072Y-115300000D01*
X118986072Y-113300000D01*
X118973812Y-113175518D01*
X118937502Y-113055820D01*
X118878537Y-112945506D01*
X118799185Y-112848815D01*
X118702494Y-112769463D01*
X118592180Y-112710498D01*
X118472482Y-112674188D01*
X118348000Y-112661928D01*
X116348000Y-112661928D01*
X116223518Y-112674188D01*
X116103820Y-112710498D01*
X115993506Y-112769463D01*
X115896815Y-112848815D01*
X115817463Y-112945506D01*
X115758498Y-113055820D01*
X115722188Y-113175518D01*
X115709928Y-113300000D01*
X112445000Y-113300000D01*
X112445000Y-104672500D01*
X116304428Y-104672500D01*
X116316688Y-104796982D01*
X116352998Y-104916680D01*
X116411963Y-105026994D01*
X116491315Y-105123685D01*
X116588006Y-105203037D01*
X116698320Y-105262002D01*
X116818018Y-105298312D01*
X116942500Y-105310572D01*
X117506750Y-105307500D01*
X117665500Y-105148750D01*
X117665500Y-103949500D01*
X116466250Y-103949500D01*
X116307500Y-104108250D01*
X116304428Y-104672500D01*
X112445000Y-104672500D01*
X112445000Y-102972500D01*
X116304428Y-102972500D01*
X116307500Y-103536750D01*
X116466250Y-103695500D01*
X117665500Y-103695500D01*
X117665500Y-102496250D01*
X117919500Y-102496250D01*
X117919500Y-103695500D01*
X117939500Y-103695500D01*
X117939500Y-103949500D01*
X117919500Y-103949500D01*
X117919500Y-105148750D01*
X118078250Y-105307500D01*
X118642500Y-105310572D01*
X118766982Y-105298312D01*
X118886680Y-105262002D01*
X118996994Y-105203037D01*
X119093685Y-105123685D01*
X119173037Y-105026994D01*
X119232002Y-104916680D01*
X119254013Y-104844120D01*
X119385868Y-104975975D01*
X119629089Y-105138490D01*
X119899342Y-105250432D01*
X120186240Y-105307500D01*
X120478760Y-105307500D01*
X120765658Y-105250432D01*
X121035911Y-105138490D01*
X121279132Y-104975975D01*
X121485975Y-104769132D01*
X121602500Y-104594740D01*
X121719025Y-104769132D01*
X121925868Y-104975975D01*
X122169089Y-105138490D01*
X122439342Y-105250432D01*
X122726240Y-105307500D01*
X123018760Y-105307500D01*
X123305658Y-105250432D01*
X123575911Y-105138490D01*
X123819132Y-104975975D01*
X124025975Y-104769132D01*
X124142500Y-104594740D01*
X124259025Y-104769132D01*
X124465868Y-104975975D01*
X124709089Y-105138490D01*
X124979342Y-105250432D01*
X125266240Y-105307500D01*
X125558760Y-105307500D01*
X125845658Y-105250432D01*
X126115911Y-105138490D01*
X126359132Y-104975975D01*
X126565975Y-104769132D01*
X126728490Y-104525911D01*
X126840432Y-104255658D01*
X126897500Y-103968760D01*
X126897500Y-103676240D01*
X127674000Y-103676240D01*
X127674000Y-103968760D01*
X127731068Y-104255658D01*
X127843010Y-104525911D01*
X128005525Y-104769132D01*
X128212368Y-104975975D01*
X128455589Y-105138490D01*
X128725842Y-105250432D01*
X129012740Y-105307500D01*
X129305260Y-105307500D01*
X129592158Y-105250432D01*
X129862411Y-105138490D01*
X130105632Y-104975975D01*
X130312475Y-104769132D01*
X130429000Y-104594740D01*
X130545525Y-104769132D01*
X130752368Y-104975975D01*
X130995589Y-105138490D01*
X131265842Y-105250432D01*
X131552740Y-105307500D01*
X131845260Y-105307500D01*
X132132158Y-105250432D01*
X132402411Y-105138490D01*
X132645632Y-104975975D01*
X132843201Y-104778406D01*
X132843200Y-106286355D01*
X132807519Y-106322036D01*
X132702459Y-106479269D01*
X132630092Y-106653978D01*
X132593200Y-106839448D01*
X132593200Y-107028552D01*
X132630092Y-107214022D01*
X132702459Y-107388731D01*
X132807519Y-107545964D01*
X132941236Y-107679681D01*
X133098469Y-107784741D01*
X133273178Y-107857108D01*
X133458648Y-107894000D01*
X133647752Y-107894000D01*
X133833222Y-107857108D01*
X134007931Y-107784741D01*
X134165164Y-107679681D01*
X134298881Y-107545964D01*
X134403941Y-107388731D01*
X134476308Y-107214022D01*
X134513200Y-107028552D01*
X134513200Y-106839448D01*
X134476308Y-106653978D01*
X134403941Y-106479269D01*
X134298881Y-106322036D01*
X134263200Y-106286355D01*
X134263200Y-105307500D01*
X134385260Y-105307500D01*
X134672158Y-105250432D01*
X134942411Y-105138490D01*
X135185632Y-104975975D01*
X135317487Y-104844120D01*
X135339498Y-104916680D01*
X135398463Y-105026994D01*
X135477815Y-105123685D01*
X135574506Y-105203037D01*
X135684820Y-105262002D01*
X135804518Y-105298312D01*
X135929000Y-105310572D01*
X136493250Y-105307500D01*
X136652000Y-105148750D01*
X136652000Y-103949500D01*
X136906000Y-103949500D01*
X136906000Y-105148750D01*
X137064750Y-105307500D01*
X137629000Y-105310572D01*
X137753482Y-105298312D01*
X137873180Y-105262002D01*
X137983494Y-105203037D01*
X138080185Y-105123685D01*
X138159537Y-105026994D01*
X138218502Y-104916680D01*
X138254812Y-104796982D01*
X138267072Y-104672500D01*
X138264000Y-104108250D01*
X138105250Y-103949500D01*
X136906000Y-103949500D01*
X136652000Y-103949500D01*
X136632000Y-103949500D01*
X136632000Y-103695500D01*
X136652000Y-103695500D01*
X136652000Y-102496250D01*
X136906000Y-102496250D01*
X136906000Y-103695500D01*
X138105250Y-103695500D01*
X138124510Y-103676240D01*
X138977000Y-103676240D01*
X138977000Y-103968760D01*
X139034068Y-104255658D01*
X139146010Y-104525911D01*
X139308525Y-104769132D01*
X139515368Y-104975975D01*
X139758589Y-105138490D01*
X140028842Y-105250432D01*
X140315740Y-105307500D01*
X140608260Y-105307500D01*
X140895158Y-105250432D01*
X141165411Y-105138490D01*
X141408632Y-104975975D01*
X141615475Y-104769132D01*
X141737195Y-104586966D01*
X141806822Y-104703855D01*
X142001731Y-104920088D01*
X142235080Y-105094141D01*
X142497901Y-105219325D01*
X142645110Y-105263976D01*
X142875000Y-105142655D01*
X142875000Y-103949500D01*
X142855000Y-103949500D01*
X142855000Y-103695500D01*
X142875000Y-103695500D01*
X142875000Y-102502345D01*
X143129000Y-102502345D01*
X143129000Y-103695500D01*
X143149000Y-103695500D01*
X143149000Y-103949500D01*
X143129000Y-103949500D01*
X143129000Y-105142655D01*
X143358890Y-105263976D01*
X143506099Y-105219325D01*
X143768920Y-105094141D01*
X144002269Y-104920088D01*
X144078034Y-104836034D01*
X144102498Y-104916680D01*
X144161463Y-105026994D01*
X144240815Y-105123685D01*
X144337506Y-105203037D01*
X144447820Y-105262002D01*
X144567518Y-105298312D01*
X144692000Y-105310572D01*
X146392000Y-105310572D01*
X146516482Y-105298312D01*
X146636180Y-105262002D01*
X146746494Y-105203037D01*
X146843185Y-105123685D01*
X146922537Y-105026994D01*
X146981502Y-104916680D01*
X147017812Y-104796982D01*
X147030072Y-104672500D01*
X147030072Y-102972500D01*
X147800428Y-102972500D01*
X147800428Y-104672500D01*
X147812688Y-104796982D01*
X147848998Y-104916680D01*
X147907963Y-105026994D01*
X147987315Y-105123685D01*
X148084006Y-105203037D01*
X148194320Y-105262002D01*
X148314018Y-105298312D01*
X148438500Y-105310572D01*
X150138500Y-105310572D01*
X150262982Y-105298312D01*
X150382680Y-105262002D01*
X150492994Y-105203037D01*
X150589685Y-105123685D01*
X150669037Y-105026994D01*
X150728002Y-104916680D01*
X150752466Y-104836034D01*
X150828231Y-104920088D01*
X151061580Y-105094141D01*
X151324401Y-105219325D01*
X151471610Y-105263976D01*
X151701500Y-105142655D01*
X151701500Y-103949500D01*
X151681500Y-103949500D01*
X151681500Y-103695500D01*
X151701500Y-103695500D01*
X151701500Y-102502345D01*
X151955500Y-102502345D01*
X151955500Y-103695500D01*
X151975500Y-103695500D01*
X151975500Y-103949500D01*
X151955500Y-103949500D01*
X151955500Y-105142655D01*
X152185390Y-105263976D01*
X152332599Y-105219325D01*
X152595420Y-105094141D01*
X152828769Y-104920088D01*
X153023678Y-104703855D01*
X153093305Y-104586966D01*
X153215025Y-104769132D01*
X153421868Y-104975975D01*
X153665089Y-105138490D01*
X153935342Y-105250432D01*
X154222240Y-105307500D01*
X154514760Y-105307500D01*
X154801658Y-105250432D01*
X155071911Y-105138490D01*
X155315132Y-104975975D01*
X155521975Y-104769132D01*
X155684490Y-104525911D01*
X155796432Y-104255658D01*
X155853500Y-103968760D01*
X155853500Y-103676240D01*
X155796432Y-103389342D01*
X155684490Y-103119089D01*
X155521975Y-102875868D01*
X155315132Y-102669025D01*
X155071911Y-102506510D01*
X154801658Y-102394568D01*
X154514760Y-102337500D01*
X154222240Y-102337500D01*
X153935342Y-102394568D01*
X153665089Y-102506510D01*
X153421868Y-102669025D01*
X153215025Y-102875868D01*
X153093305Y-103058034D01*
X153023678Y-102941145D01*
X152828769Y-102724912D01*
X152595420Y-102550859D01*
X152332599Y-102425675D01*
X152185390Y-102381024D01*
X151955500Y-102502345D01*
X151701500Y-102502345D01*
X151471610Y-102381024D01*
X151324401Y-102425675D01*
X151061580Y-102550859D01*
X150828231Y-102724912D01*
X150752466Y-102808966D01*
X150728002Y-102728320D01*
X150669037Y-102618006D01*
X150589685Y-102521315D01*
X150492994Y-102441963D01*
X150382680Y-102382998D01*
X150262982Y-102346688D01*
X150138500Y-102334428D01*
X148438500Y-102334428D01*
X148314018Y-102346688D01*
X148194320Y-102382998D01*
X148084006Y-102441963D01*
X147987315Y-102521315D01*
X147907963Y-102618006D01*
X147848998Y-102728320D01*
X147812688Y-102848018D01*
X147800428Y-102972500D01*
X147030072Y-102972500D01*
X147017812Y-102848018D01*
X146981502Y-102728320D01*
X146922537Y-102618006D01*
X146843185Y-102521315D01*
X146746494Y-102441963D01*
X146636180Y-102382998D01*
X146516482Y-102346688D01*
X146392000Y-102334428D01*
X145540800Y-102334428D01*
X145540800Y-102044445D01*
X145576481Y-102008764D01*
X145681541Y-101851531D01*
X145753908Y-101676822D01*
X145790800Y-101491352D01*
X145790800Y-101302248D01*
X145753908Y-101116778D01*
X145681541Y-100942069D01*
X145576481Y-100784836D01*
X145442764Y-100651119D01*
X145285531Y-100546059D01*
X145110822Y-100473692D01*
X144925352Y-100436800D01*
X144736248Y-100436800D01*
X144550778Y-100473692D01*
X144376069Y-100546059D01*
X144218836Y-100651119D01*
X144085119Y-100784836D01*
X143980059Y-100942069D01*
X143907692Y-101116778D01*
X143870800Y-101302248D01*
X143870800Y-101491352D01*
X143907692Y-101676822D01*
X143980059Y-101851531D01*
X144085119Y-102008764D01*
X144120800Y-102044445D01*
X144120801Y-102694079D01*
X144102498Y-102728320D01*
X144078034Y-102808966D01*
X144002269Y-102724912D01*
X143768920Y-102550859D01*
X143506099Y-102425675D01*
X143358890Y-102381024D01*
X143129000Y-102502345D01*
X142875000Y-102502345D01*
X142645110Y-102381024D01*
X142497901Y-102425675D01*
X142235080Y-102550859D01*
X142001731Y-102724912D01*
X141806822Y-102941145D01*
X141737195Y-103058034D01*
X141615475Y-102875868D01*
X141408632Y-102669025D01*
X141165411Y-102506510D01*
X140895158Y-102394568D01*
X140608260Y-102337500D01*
X140315740Y-102337500D01*
X140028842Y-102394568D01*
X139758589Y-102506510D01*
X139515368Y-102669025D01*
X139308525Y-102875868D01*
X139146010Y-103119089D01*
X139034068Y-103389342D01*
X138977000Y-103676240D01*
X138124510Y-103676240D01*
X138264000Y-103536750D01*
X138267072Y-102972500D01*
X138254812Y-102848018D01*
X138218502Y-102728320D01*
X138159537Y-102618006D01*
X138080185Y-102521315D01*
X137983494Y-102441963D01*
X137873180Y-102382998D01*
X137753482Y-102346688D01*
X137629000Y-102334428D01*
X137064750Y-102337500D01*
X136906000Y-102496250D01*
X136652000Y-102496250D01*
X136493250Y-102337500D01*
X135929000Y-102334428D01*
X135804518Y-102346688D01*
X135684820Y-102382998D01*
X135574506Y-102441963D01*
X135477815Y-102521315D01*
X135398463Y-102618006D01*
X135339498Y-102728320D01*
X135317487Y-102800880D01*
X135185632Y-102669025D01*
X134942411Y-102506510D01*
X134672158Y-102394568D01*
X134385260Y-102337500D01*
X134092740Y-102337500D01*
X133805842Y-102394568D01*
X133535589Y-102506510D01*
X133292368Y-102669025D01*
X133085525Y-102875868D01*
X132969000Y-103050260D01*
X132852475Y-102875868D01*
X132645632Y-102669025D01*
X132402411Y-102506510D01*
X132132158Y-102394568D01*
X131845260Y-102337500D01*
X131552740Y-102337500D01*
X131265842Y-102394568D01*
X130995589Y-102506510D01*
X130752368Y-102669025D01*
X130545525Y-102875868D01*
X130429000Y-103050260D01*
X130312475Y-102875868D01*
X130105632Y-102669025D01*
X129862411Y-102506510D01*
X129592158Y-102394568D01*
X129305260Y-102337500D01*
X129012740Y-102337500D01*
X128725842Y-102394568D01*
X128455589Y-102506510D01*
X128212368Y-102669025D01*
X128005525Y-102875868D01*
X127843010Y-103119089D01*
X127731068Y-103389342D01*
X127674000Y-103676240D01*
X126897500Y-103676240D01*
X126840432Y-103389342D01*
X126728490Y-103119089D01*
X126565975Y-102875868D01*
X126359132Y-102669025D01*
X126115911Y-102506510D01*
X125845658Y-102394568D01*
X125558760Y-102337500D01*
X125266240Y-102337500D01*
X124979342Y-102394568D01*
X124709089Y-102506510D01*
X124465868Y-102669025D01*
X124259025Y-102875868D01*
X124142500Y-103050260D01*
X124025975Y-102875868D01*
X123819132Y-102669025D01*
X123575911Y-102506510D01*
X123305658Y-102394568D01*
X123018760Y-102337500D01*
X122726240Y-102337500D01*
X122439342Y-102394568D01*
X122169089Y-102506510D01*
X121925868Y-102669025D01*
X121719025Y-102875868D01*
X121602500Y-103050260D01*
X121485975Y-102875868D01*
X121279132Y-102669025D01*
X121035911Y-102506510D01*
X120765658Y-102394568D01*
X120478760Y-102337500D01*
X120186240Y-102337500D01*
X119899342Y-102394568D01*
X119629089Y-102506510D01*
X119385868Y-102669025D01*
X119254013Y-102800880D01*
X119232002Y-102728320D01*
X119173037Y-102618006D01*
X119093685Y-102521315D01*
X118996994Y-102441963D01*
X118886680Y-102382998D01*
X118766982Y-102346688D01*
X118642500Y-102334428D01*
X118078250Y-102337500D01*
X117919500Y-102496250D01*
X117665500Y-102496250D01*
X117506750Y-102337500D01*
X116942500Y-102334428D01*
X116818018Y-102346688D01*
X116698320Y-102382998D01*
X116588006Y-102441963D01*
X116491315Y-102521315D01*
X116411963Y-102618006D01*
X116352998Y-102728320D01*
X116316688Y-102848018D01*
X116304428Y-102972500D01*
X112445000Y-102972500D01*
X112445000Y-98296349D01*
X112703256Y-98296349D01*
X112907362Y-98652867D01*
X113350223Y-98883575D01*
X113829583Y-99023452D01*
X114327021Y-99067123D01*
X114823422Y-99012909D01*
X115299707Y-98862894D01*
X115692638Y-98652867D01*
X115896744Y-98296349D01*
X157153256Y-98296349D01*
X157357362Y-98652867D01*
X157800223Y-98883575D01*
X158279583Y-99023452D01*
X158777021Y-99067123D01*
X159273422Y-99012909D01*
X159749707Y-98862894D01*
X160142638Y-98652867D01*
X160346744Y-98296349D01*
X158750000Y-96699605D01*
X157153256Y-98296349D01*
X115896744Y-98296349D01*
X114300000Y-96699605D01*
X112703256Y-98296349D01*
X112445000Y-98296349D01*
X112445000Y-98071716D01*
X112523651Y-98116744D01*
X114120395Y-96520000D01*
X114479605Y-96520000D01*
X116076349Y-98116744D01*
X116432867Y-97912638D01*
X116663575Y-97469777D01*
X116803452Y-96990417D01*
X116842378Y-96547021D01*
X156202877Y-96547021D01*
X156257091Y-97043422D01*
X156407106Y-97519707D01*
X156617133Y-97912638D01*
X156973651Y-98116744D01*
X158570395Y-96520000D01*
X156973651Y-94923256D01*
X156617133Y-95127362D01*
X156386425Y-95570223D01*
X156246548Y-96049583D01*
X156202877Y-96547021D01*
X116842378Y-96547021D01*
X116847123Y-96492979D01*
X116792909Y-95996578D01*
X116642894Y-95520293D01*
X116432867Y-95127362D01*
X116076349Y-94923256D01*
X114479605Y-96520000D01*
X114120395Y-96520000D01*
X112523651Y-94923256D01*
X112445000Y-94968284D01*
X112445000Y-94665000D01*
X112748284Y-94665000D01*
X112703256Y-94743651D01*
G04 #@! TA.AperFunction,Conductor*
D20*
G36*
X112703256Y-94743651D02*
G01*
X114300000Y-96340395D01*
X115896744Y-94743651D01*
X115851716Y-94665000D01*
X157198284Y-94665000D01*
X157153256Y-94743651D01*
X158750000Y-96340395D01*
X160346744Y-94743651D01*
X160301716Y-94665000D01*
X160605000Y-94665000D01*
X160605000Y-94968284D01*
X160526349Y-94923256D01*
X158929605Y-96520000D01*
X160526349Y-98116744D01*
X160605000Y-98071716D01*
X160605001Y-122273284D01*
X160526349Y-122228256D01*
X158929605Y-123825000D01*
X160526349Y-125421744D01*
X160605001Y-125376716D01*
X160605001Y-125680000D01*
X160301716Y-125680000D01*
X160346744Y-125601349D01*
X158750000Y-124004605D01*
X157153256Y-125601349D01*
X157198284Y-125680000D01*
X115851716Y-125680000D01*
X115896744Y-125601349D01*
X114300000Y-124004605D01*
X112703256Y-125601349D01*
X112748284Y-125680000D01*
X112445000Y-125680000D01*
X112445000Y-125376716D01*
X112523651Y-125421744D01*
X114120395Y-123825000D01*
X114479605Y-123825000D01*
X116076349Y-125421744D01*
X116432867Y-125217638D01*
X116663575Y-124774777D01*
X116803452Y-124295417D01*
X116847123Y-123797979D01*
X116792909Y-123301578D01*
X116642894Y-122825293D01*
X116432867Y-122432362D01*
X116076349Y-122228256D01*
X114479605Y-123825000D01*
X114120395Y-123825000D01*
X112523651Y-122228256D01*
X112445000Y-122273284D01*
X112445000Y-122048651D01*
X112703256Y-122048651D01*
X114300000Y-123645395D01*
X115896744Y-122048651D01*
X115692638Y-121692133D01*
X115249777Y-121461425D01*
X114770417Y-121321548D01*
X114272979Y-121277877D01*
X113776578Y-121332091D01*
X113300293Y-121482106D01*
X112907362Y-121692133D01*
X112703256Y-122048651D01*
X112445000Y-122048651D01*
X112445000Y-120435413D01*
X116392192Y-120435413D01*
X116487956Y-120699814D01*
X116777571Y-120840704D01*
X117089108Y-120922384D01*
X117410595Y-120941718D01*
X117729675Y-120897961D01*
X118034088Y-120792795D01*
X118208044Y-120699814D01*
X118303808Y-120435413D01*
X117348000Y-119479605D01*
X116392192Y-120435413D01*
X112445000Y-120435413D01*
X112445000Y-119362595D01*
X115706282Y-119362595D01*
X115750039Y-119681675D01*
X115855205Y-119986088D01*
X115948186Y-120160044D01*
X116212587Y-120255808D01*
X117168395Y-119300000D01*
X117527605Y-119300000D01*
X118483413Y-120255808D01*
X118747814Y-120160044D01*
X118888704Y-119870429D01*
X118970384Y-119558892D01*
X118989718Y-119237405D01*
X118945961Y-118918325D01*
X118840795Y-118613912D01*
X118747814Y-118439956D01*
X118483413Y-118344192D01*
X117527605Y-119300000D01*
X117168395Y-119300000D01*
X116212587Y-118344192D01*
X115948186Y-118439956D01*
X115807296Y-118729571D01*
X115725616Y-119041108D01*
X115706282Y-119362595D01*
X112445000Y-119362595D01*
X112445000Y-118164587D01*
X116392192Y-118164587D01*
X117348000Y-119120395D01*
X118303808Y-118164587D01*
X118208044Y-117900186D01*
X117918429Y-117759296D01*
X117606892Y-117677616D01*
X117285405Y-117658282D01*
X116966325Y-117702039D01*
X116661912Y-117807205D01*
X116487956Y-117900186D01*
X116392192Y-118164587D01*
X112445000Y-118164587D01*
X112445000Y-117380448D01*
X126675000Y-117380448D01*
X126675000Y-117569552D01*
X126711892Y-117755022D01*
X126784259Y-117929731D01*
X126889319Y-118086964D01*
X127023036Y-118220681D01*
X127180269Y-118325741D01*
X127354978Y-118398108D01*
X127540448Y-118435000D01*
X127729552Y-118435000D01*
X127846539Y-118411730D01*
X130281300Y-120846492D01*
X130281300Y-120896952D01*
X130318192Y-121082422D01*
X130390559Y-121257131D01*
X130495619Y-121414364D01*
X130629336Y-121548081D01*
X130786569Y-121653141D01*
X130961278Y-121725508D01*
X131146748Y-121762400D01*
X131186044Y-121762400D01*
X131229259Y-121866731D01*
X131264852Y-121920000D01*
X131229259Y-121973269D01*
X131156892Y-122147978D01*
X131120000Y-122333448D01*
X131120000Y-122522552D01*
X131156892Y-122708022D01*
X131229259Y-122882731D01*
X131334319Y-123039964D01*
X131468036Y-123173681D01*
X131625269Y-123278741D01*
X131799978Y-123351108D01*
X131985448Y-123388000D01*
X132174552Y-123388000D01*
X132360022Y-123351108D01*
X132534731Y-123278741D01*
X132691964Y-123173681D01*
X132727645Y-123138000D01*
X132793225Y-123138000D01*
X132828100Y-123141435D01*
X132862975Y-123138000D01*
X132862977Y-123138000D01*
X132967284Y-123127727D01*
X133101120Y-123087128D01*
X133224463Y-123021200D01*
X133332575Y-122932475D01*
X133354812Y-122905379D01*
X133799743Y-122460448D01*
X135565000Y-122460448D01*
X135565000Y-122649552D01*
X135601892Y-122835022D01*
X135674259Y-123009731D01*
X135779319Y-123166964D01*
X135913036Y-123300681D01*
X136070269Y-123405741D01*
X136244978Y-123478108D01*
X136430448Y-123515000D01*
X136619552Y-123515000D01*
X136805022Y-123478108D01*
X136979731Y-123405741D01*
X137136964Y-123300681D01*
X137270681Y-123166964D01*
X137375741Y-123009731D01*
X137448108Y-122835022D01*
X137485000Y-122649552D01*
X137485000Y-122630000D01*
X139738430Y-122630000D01*
X139706264Y-122791712D01*
X139706264Y-122980816D01*
X139743156Y-123166286D01*
X139815523Y-123340995D01*
X139920583Y-123498228D01*
X140054300Y-123631945D01*
X140211533Y-123737005D01*
X140386242Y-123809372D01*
X140571712Y-123846264D01*
X140622173Y-123846264D01*
X140851946Y-124076037D01*
X140808892Y-124179978D01*
X140772000Y-124365448D01*
X140772000Y-124554552D01*
X140808892Y-124740022D01*
X140881259Y-124914731D01*
X140986319Y-125071964D01*
X141120036Y-125205681D01*
X141277269Y-125310741D01*
X141451978Y-125383108D01*
X141637448Y-125420000D01*
X141826552Y-125420000D01*
X142012022Y-125383108D01*
X142186731Y-125310741D01*
X142343964Y-125205681D01*
X142477681Y-125071964D01*
X142582741Y-124914731D01*
X142655108Y-124740022D01*
X142692000Y-124554552D01*
X142692000Y-124365448D01*
X142655108Y-124179978D01*
X142582741Y-124005269D01*
X142480344Y-123852021D01*
X156202877Y-123852021D01*
X156257091Y-124348422D01*
X156407106Y-124824707D01*
X156617133Y-125217638D01*
X156973651Y-125421744D01*
X158570395Y-123825000D01*
X156973651Y-122228256D01*
X156617133Y-122432362D01*
X156386425Y-122875223D01*
X156246548Y-123354583D01*
X156202877Y-123852021D01*
X142480344Y-123852021D01*
X142477681Y-123848036D01*
X142427053Y-123797408D01*
X142391128Y-123678980D01*
X142325200Y-123555637D01*
X142236475Y-123447525D01*
X142209384Y-123425292D01*
X141626264Y-122842173D01*
X141626264Y-122791712D01*
X141594098Y-122630000D01*
X141641927Y-122630000D01*
X141676802Y-122633435D01*
X141711677Y-122630000D01*
X141711679Y-122630000D01*
X141815986Y-122619727D01*
X141949822Y-122579128D01*
X142073165Y-122513200D01*
X142181277Y-122424475D01*
X142203514Y-122397379D01*
X142552242Y-122048651D01*
X157153256Y-122048651D01*
X158750000Y-123645395D01*
X160346744Y-122048651D01*
X160142638Y-121692133D01*
X159699777Y-121461425D01*
X159220417Y-121321548D01*
X158722979Y-121277877D01*
X158226578Y-121332091D01*
X157750293Y-121482106D01*
X157357362Y-121692133D01*
X157153256Y-122048651D01*
X142552242Y-122048651D01*
X146415894Y-118185000D01*
X149847355Y-118185000D01*
X149883036Y-118220681D01*
X150040269Y-118325741D01*
X150214978Y-118398108D01*
X150400448Y-118435000D01*
X150589552Y-118435000D01*
X150775022Y-118398108D01*
X150949731Y-118325741D01*
X151106964Y-118220681D01*
X151240681Y-118086964D01*
X151345741Y-117929731D01*
X151418108Y-117755022D01*
X151455000Y-117569552D01*
X151455000Y-117380448D01*
X151418108Y-117194978D01*
X151348239Y-117026300D01*
X156102855Y-117026300D01*
X156138536Y-117061981D01*
X156295769Y-117167041D01*
X156470478Y-117239408D01*
X156655948Y-117276300D01*
X156845052Y-117276300D01*
X157030522Y-117239408D01*
X157205231Y-117167041D01*
X157362464Y-117061981D01*
X157496181Y-116928264D01*
X157601241Y-116771031D01*
X157673608Y-116596322D01*
X157710500Y-116410852D01*
X157710500Y-116221748D01*
X157673608Y-116036278D01*
X157601241Y-115861569D01*
X157496181Y-115704336D01*
X157362464Y-115570619D01*
X157205231Y-115465559D01*
X157030522Y-115393192D01*
X156845052Y-115356300D01*
X156655948Y-115356300D01*
X156470478Y-115393192D01*
X156295769Y-115465559D01*
X156138536Y-115570619D01*
X156102855Y-115606300D01*
X149271100Y-115606300D01*
X149271100Y-114904945D01*
X149306781Y-114869264D01*
X149411841Y-114712031D01*
X149484208Y-114537322D01*
X149521100Y-114351852D01*
X149521100Y-114162748D01*
X149484208Y-113977278D01*
X149411841Y-113802569D01*
X149306781Y-113645336D01*
X149173064Y-113511619D01*
X149015831Y-113406559D01*
X148841122Y-113334192D01*
X148655652Y-113297300D01*
X148466548Y-113297300D01*
X148281078Y-113334192D01*
X148106369Y-113406559D01*
X147949136Y-113511619D01*
X147815419Y-113645336D01*
X147710359Y-113802569D01*
X147637992Y-113977278D01*
X147601100Y-114162748D01*
X147601100Y-114351852D01*
X147637992Y-114537322D01*
X147710359Y-114712031D01*
X147815419Y-114869264D01*
X147851101Y-114904946D01*
X147851100Y-115606300D01*
X145752075Y-115606300D01*
X145717200Y-115602865D01*
X145698704Y-115604687D01*
X154147389Y-107156003D01*
X154174474Y-107133775D01*
X154196704Y-107106688D01*
X154196707Y-107106685D01*
X154263199Y-107025664D01*
X154263201Y-107025662D01*
X154307314Y-106943131D01*
X154415681Y-106834764D01*
X154520741Y-106677531D01*
X154593108Y-106502822D01*
X154630000Y-106317352D01*
X154630000Y-106128248D01*
X154593108Y-105942778D01*
X154520741Y-105768069D01*
X154415681Y-105610836D01*
X154281964Y-105477119D01*
X154124731Y-105372059D01*
X153950022Y-105299692D01*
X153764552Y-105262800D01*
X153575448Y-105262800D01*
X153389978Y-105299692D01*
X153215269Y-105372059D01*
X153058036Y-105477119D01*
X152924319Y-105610836D01*
X152819259Y-105768069D01*
X152746892Y-105942778D01*
X152710000Y-106128248D01*
X152710000Y-106317352D01*
X152746892Y-106502822D01*
X152760217Y-106534991D01*
X144239309Y-115055900D01*
X144188848Y-115055900D01*
X144003378Y-115092792D01*
X143828669Y-115165159D01*
X143671436Y-115270219D01*
X143537719Y-115403936D01*
X143432659Y-115561169D01*
X143360292Y-115735878D01*
X143323400Y-115921348D01*
X143323400Y-116110452D01*
X143360292Y-116295922D01*
X143432659Y-116470631D01*
X143537719Y-116627864D01*
X143671436Y-116761581D01*
X143828669Y-116866641D01*
X144003378Y-116939008D01*
X144075963Y-116953446D01*
X142071300Y-118958109D01*
X142071300Y-115171491D01*
X145652192Y-111590600D01*
X145702652Y-111590600D01*
X145888122Y-111553708D01*
X146062831Y-111481341D01*
X146220064Y-111376281D01*
X146353781Y-111242564D01*
X146458841Y-111085331D01*
X146531208Y-110910622D01*
X146568100Y-110725152D01*
X146568100Y-110536048D01*
X146531208Y-110350578D01*
X146458841Y-110175869D01*
X146353781Y-110018636D01*
X146220064Y-109884919D01*
X146062831Y-109779859D01*
X145888122Y-109707492D01*
X145702652Y-109670600D01*
X145513548Y-109670600D01*
X145328078Y-109707492D01*
X145153369Y-109779859D01*
X144996136Y-109884919D01*
X144862419Y-110018636D01*
X144757359Y-110175869D01*
X144684992Y-110350578D01*
X144648100Y-110536048D01*
X144648100Y-110586508D01*
X140883917Y-114350692D01*
X140856825Y-114372926D01*
X140768100Y-114481038D01*
X140702172Y-114604381D01*
X140661573Y-114738217D01*
X140651300Y-114842523D01*
X140647865Y-114877400D01*
X140651300Y-114912275D01*
X140651301Y-119599808D01*
X140558918Y-119692191D01*
X140531826Y-119714425D01*
X140443101Y-119822537D01*
X140377173Y-119945880D01*
X140336574Y-120079716D01*
X140326301Y-120184022D01*
X140322866Y-120218899D01*
X140326301Y-120253774D01*
X140326301Y-121010116D01*
X140322866Y-121044991D01*
X140326301Y-121079866D01*
X140326301Y-121079868D01*
X140331434Y-121131978D01*
X140336575Y-121184175D01*
X140344409Y-121210000D01*
X137194875Y-121210000D01*
X137160000Y-121206565D01*
X137125125Y-121210000D01*
X137125123Y-121210000D01*
X137020816Y-121220273D01*
X136886980Y-121260872D01*
X136763637Y-121326800D01*
X136655525Y-121415525D01*
X136633288Y-121442621D01*
X136480909Y-121595000D01*
X136430448Y-121595000D01*
X136244978Y-121631892D01*
X136070269Y-121704259D01*
X135913036Y-121809319D01*
X135779319Y-121943036D01*
X135674259Y-122100269D01*
X135601892Y-122274978D01*
X135565000Y-122460448D01*
X133799743Y-122460448D01*
X134311718Y-121948474D01*
X134313721Y-121947116D01*
X134361011Y-121899181D01*
X134384107Y-121876085D01*
X134385645Y-121874211D01*
X134387330Y-121872503D01*
X134407693Y-121847346D01*
X134450599Y-121795064D01*
X134451744Y-121792922D01*
X139720416Y-115283675D01*
X141209689Y-113794403D01*
X141236774Y-113772175D01*
X141259004Y-113745088D01*
X141259007Y-113745085D01*
X141310535Y-113682298D01*
X141325500Y-113664063D01*
X141391428Y-113540720D01*
X141432027Y-113406884D01*
X141442300Y-113302577D01*
X141442300Y-113302576D01*
X141445735Y-113267701D01*
X141442300Y-113232826D01*
X141442300Y-109651945D01*
X141477981Y-109616264D01*
X141583041Y-109459031D01*
X141655408Y-109284322D01*
X141692300Y-109098852D01*
X141692300Y-108909748D01*
X141655408Y-108724278D01*
X141583041Y-108549569D01*
X141477981Y-108392336D01*
X141344264Y-108258619D01*
X141187031Y-108153559D01*
X141012322Y-108081192D01*
X140826852Y-108044300D01*
X140637748Y-108044300D01*
X140452278Y-108081192D01*
X140277569Y-108153559D01*
X140120336Y-108258619D01*
X139986619Y-108392336D01*
X139881559Y-108549569D01*
X139809192Y-108724278D01*
X139772300Y-108909748D01*
X139772300Y-109098852D01*
X139809192Y-109284322D01*
X139881559Y-109459031D01*
X139986619Y-109616264D01*
X140022301Y-109651946D01*
X140022300Y-111202578D01*
X139937681Y-111075936D01*
X139803964Y-110942219D01*
X139646731Y-110837159D01*
X139472022Y-110764792D01*
X139286552Y-110727900D01*
X139097448Y-110727900D01*
X138911978Y-110764792D01*
X138737269Y-110837159D01*
X138580036Y-110942219D01*
X138446319Y-111075936D01*
X138341259Y-111233169D01*
X138268892Y-111407878D01*
X138232000Y-111593348D01*
X138232000Y-111782452D01*
X138268892Y-111967922D01*
X138341259Y-112142631D01*
X138446319Y-112299864D01*
X138482000Y-112335545D01*
X138482001Y-113144354D01*
X138446319Y-113180036D01*
X138341259Y-113337269D01*
X138268892Y-113511978D01*
X138232000Y-113697448D01*
X138232000Y-113886552D01*
X138268892Y-114072022D01*
X138341259Y-114246731D01*
X138446319Y-114403964D01*
X138534347Y-114491992D01*
X133328992Y-120923016D01*
X133022507Y-121229502D01*
X133003108Y-121131978D01*
X132930741Y-120957269D01*
X132825681Y-120800036D01*
X132791983Y-120766338D01*
X132793435Y-120751599D01*
X132789126Y-120707848D01*
X132779727Y-120612416D01*
X132739128Y-120478580D01*
X132673200Y-120355237D01*
X132619877Y-120290263D01*
X132606707Y-120274215D01*
X132606704Y-120274212D01*
X132584474Y-120247125D01*
X132557389Y-120224897D01*
X131418400Y-119085909D01*
X131418400Y-117732300D01*
X131518731Y-117690741D01*
X131675964Y-117585681D01*
X131809681Y-117451964D01*
X131914741Y-117294731D01*
X131987108Y-117120022D01*
X132024000Y-116934552D01*
X132024000Y-116745448D01*
X131987108Y-116559978D01*
X131914741Y-116385269D01*
X131809681Y-116228036D01*
X131675964Y-116094319D01*
X131518731Y-115989259D01*
X131344022Y-115916892D01*
X131158552Y-115880000D01*
X130969448Y-115880000D01*
X130783978Y-115916892D01*
X130609269Y-115989259D01*
X130452036Y-116094319D01*
X130318319Y-116228036D01*
X130213259Y-116385269D01*
X130140892Y-116559978D01*
X130104000Y-116745448D01*
X130104000Y-116820192D01*
X130049272Y-116922581D01*
X130008673Y-117056417D01*
X130002409Y-117120022D01*
X129994965Y-117195600D01*
X129998400Y-117230475D01*
X129998401Y-118555409D01*
X128501638Y-117058646D01*
X128485741Y-117020269D01*
X128380681Y-116863036D01*
X128345000Y-116827355D01*
X128345000Y-112690072D01*
X129070000Y-112690072D01*
X129194482Y-112677812D01*
X129314180Y-112641502D01*
X129424494Y-112582537D01*
X129521185Y-112503185D01*
X129600537Y-112406494D01*
X129659502Y-112296180D01*
X129675117Y-112244702D01*
X129956903Y-112244702D01*
X130028486Y-112488671D01*
X130283996Y-112609571D01*
X130558184Y-112678300D01*
X130840512Y-112692217D01*
X131120130Y-112650787D01*
X131386292Y-112555603D01*
X131511514Y-112488671D01*
X131583097Y-112244702D01*
X130770000Y-111431605D01*
X129956903Y-112244702D01*
X129675117Y-112244702D01*
X129695812Y-112176482D01*
X129708072Y-112052000D01*
X129708072Y-112044785D01*
X129777298Y-112065097D01*
X130590395Y-111252000D01*
X130949605Y-111252000D01*
X131762702Y-112065097D01*
X132006671Y-111993514D01*
X132127571Y-111738004D01*
X132196300Y-111463816D01*
X132210217Y-111181488D01*
X132168787Y-110901870D01*
X132073603Y-110635708D01*
X132006671Y-110510486D01*
X131762702Y-110438903D01*
X130949605Y-111252000D01*
X130590395Y-111252000D01*
X129777298Y-110438903D01*
X129708072Y-110459215D01*
X129708072Y-110452000D01*
X129695812Y-110327518D01*
X129675118Y-110259298D01*
X129956903Y-110259298D01*
X130770000Y-111072395D01*
X131583097Y-110259298D01*
X131511514Y-110015329D01*
X131256004Y-109894429D01*
X130981816Y-109825700D01*
X130699488Y-109811783D01*
X130419870Y-109853213D01*
X130153708Y-109948397D01*
X130028486Y-110015329D01*
X129956903Y-110259298D01*
X129675118Y-110259298D01*
X129659502Y-110207820D01*
X129600537Y-110097506D01*
X129521185Y-110000815D01*
X129424494Y-109921463D01*
X129314180Y-109862498D01*
X129194482Y-109826188D01*
X129070000Y-109813928D01*
X127470000Y-109813928D01*
X127345518Y-109826188D01*
X127225820Y-109862498D01*
X127115506Y-109921463D01*
X127018815Y-110000815D01*
X126939463Y-110097506D01*
X126880498Y-110207820D01*
X126844188Y-110327518D01*
X126831928Y-110452000D01*
X126831928Y-112052000D01*
X126844188Y-112176482D01*
X126880498Y-112296180D01*
X126925001Y-112379438D01*
X126925000Y-116827355D01*
X126889319Y-116863036D01*
X126784259Y-117020269D01*
X126711892Y-117194978D01*
X126675000Y-117380448D01*
X112445000Y-117380448D01*
X112445000Y-113300000D01*
X115709928Y-113300000D01*
X115709928Y-115300000D01*
X115722188Y-115424482D01*
X115758498Y-115544180D01*
X115817463Y-115654494D01*
X115896815Y-115751185D01*
X115993506Y-115830537D01*
X116103820Y-115889502D01*
X116223518Y-115925812D01*
X116348000Y-115938072D01*
X118348000Y-115938072D01*
X118472482Y-115925812D01*
X118592180Y-115889502D01*
X118702494Y-115830537D01*
X118799185Y-115751185D01*
X118878537Y-115654494D01*
X118937502Y-115544180D01*
X118973812Y-115424482D01*
X118986072Y-115300000D01*
X118986072Y-113300000D01*
X118973812Y-113175518D01*
X118937502Y-113055820D01*
X118878537Y-112945506D01*
X118799185Y-112848815D01*
X118702494Y-112769463D01*
X118592180Y-112710498D01*
X118472482Y-112674188D01*
X118348000Y-112661928D01*
X116348000Y-112661928D01*
X116223518Y-112674188D01*
X116103820Y-112710498D01*
X115993506Y-112769463D01*
X115896815Y-112848815D01*
X115817463Y-112945506D01*
X115758498Y-113055820D01*
X115722188Y-113175518D01*
X115709928Y-113300000D01*
X112445000Y-113300000D01*
X112445000Y-104672500D01*
X116304428Y-104672500D01*
X116316688Y-104796982D01*
X116352998Y-104916680D01*
X116411963Y-105026994D01*
X116491315Y-105123685D01*
X116588006Y-105203037D01*
X116698320Y-105262002D01*
X116818018Y-105298312D01*
X116942500Y-105310572D01*
X117506750Y-105307500D01*
X117665500Y-105148750D01*
X117665500Y-103949500D01*
X116466250Y-103949500D01*
X116307500Y-104108250D01*
X116304428Y-104672500D01*
X112445000Y-104672500D01*
X112445000Y-102972500D01*
X116304428Y-102972500D01*
X116307500Y-103536750D01*
X116466250Y-103695500D01*
X117665500Y-103695500D01*
X117665500Y-102496250D01*
X117919500Y-102496250D01*
X117919500Y-103695500D01*
X117939500Y-103695500D01*
X117939500Y-103949500D01*
X117919500Y-103949500D01*
X117919500Y-105148750D01*
X118078250Y-105307500D01*
X118642500Y-105310572D01*
X118766982Y-105298312D01*
X118886680Y-105262002D01*
X118996994Y-105203037D01*
X119093685Y-105123685D01*
X119173037Y-105026994D01*
X119232002Y-104916680D01*
X119254013Y-104844120D01*
X119385868Y-104975975D01*
X119629089Y-105138490D01*
X119899342Y-105250432D01*
X120186240Y-105307500D01*
X120478760Y-105307500D01*
X120765658Y-105250432D01*
X121035911Y-105138490D01*
X121279132Y-104975975D01*
X121485975Y-104769132D01*
X121602500Y-104594740D01*
X121719025Y-104769132D01*
X121925868Y-104975975D01*
X122169089Y-105138490D01*
X122439342Y-105250432D01*
X122726240Y-105307500D01*
X123018760Y-105307500D01*
X123305658Y-105250432D01*
X123575911Y-105138490D01*
X123819132Y-104975975D01*
X124025975Y-104769132D01*
X124142500Y-104594740D01*
X124259025Y-104769132D01*
X124465868Y-104975975D01*
X124709089Y-105138490D01*
X124979342Y-105250432D01*
X125266240Y-105307500D01*
X125558760Y-105307500D01*
X125845658Y-105250432D01*
X126115911Y-105138490D01*
X126359132Y-104975975D01*
X126565975Y-104769132D01*
X126728490Y-104525911D01*
X126840432Y-104255658D01*
X126897500Y-103968760D01*
X126897500Y-103676240D01*
X127674000Y-103676240D01*
X127674000Y-103968760D01*
X127731068Y-104255658D01*
X127843010Y-104525911D01*
X128005525Y-104769132D01*
X128212368Y-104975975D01*
X128455589Y-105138490D01*
X128725842Y-105250432D01*
X129012740Y-105307500D01*
X129305260Y-105307500D01*
X129592158Y-105250432D01*
X129862411Y-105138490D01*
X130105632Y-104975975D01*
X130312475Y-104769132D01*
X130429000Y-104594740D01*
X130545525Y-104769132D01*
X130752368Y-104975975D01*
X130995589Y-105138490D01*
X131265842Y-105250432D01*
X131552740Y-105307500D01*
X131845260Y-105307500D01*
X132132158Y-105250432D01*
X132402411Y-105138490D01*
X132645632Y-104975975D01*
X132843201Y-104778406D01*
X132843200Y-106286355D01*
X132807519Y-106322036D01*
X132702459Y-106479269D01*
X132630092Y-106653978D01*
X132593200Y-106839448D01*
X132593200Y-107028552D01*
X132630092Y-107214022D01*
X132702459Y-107388731D01*
X132807519Y-107545964D01*
X132941236Y-107679681D01*
X133098469Y-107784741D01*
X133273178Y-107857108D01*
X133458648Y-107894000D01*
X133647752Y-107894000D01*
X133833222Y-107857108D01*
X134007931Y-107784741D01*
X134165164Y-107679681D01*
X134298881Y-107545964D01*
X134403941Y-107388731D01*
X134476308Y-107214022D01*
X134513200Y-107028552D01*
X134513200Y-106839448D01*
X134476308Y-106653978D01*
X134403941Y-106479269D01*
X134298881Y-106322036D01*
X134263200Y-106286355D01*
X134263200Y-105307500D01*
X134385260Y-105307500D01*
X134672158Y-105250432D01*
X134942411Y-105138490D01*
X135185632Y-104975975D01*
X135317487Y-104844120D01*
X135339498Y-104916680D01*
X135398463Y-105026994D01*
X135477815Y-105123685D01*
X135574506Y-105203037D01*
X135684820Y-105262002D01*
X135804518Y-105298312D01*
X135929000Y-105310572D01*
X136493250Y-105307500D01*
X136652000Y-105148750D01*
X136652000Y-103949500D01*
X136906000Y-103949500D01*
X136906000Y-105148750D01*
X137064750Y-105307500D01*
X137629000Y-105310572D01*
X137753482Y-105298312D01*
X137873180Y-105262002D01*
X137983494Y-105203037D01*
X138080185Y-105123685D01*
X138159537Y-105026994D01*
X138218502Y-104916680D01*
X138254812Y-104796982D01*
X138267072Y-104672500D01*
X138264000Y-104108250D01*
X138105250Y-103949500D01*
X136906000Y-103949500D01*
X136652000Y-103949500D01*
X136632000Y-103949500D01*
X136632000Y-103695500D01*
X136652000Y-103695500D01*
X136652000Y-102496250D01*
X136906000Y-102496250D01*
X136906000Y-103695500D01*
X138105250Y-103695500D01*
X138124510Y-103676240D01*
X138977000Y-103676240D01*
X138977000Y-103968760D01*
X139034068Y-104255658D01*
X139146010Y-104525911D01*
X139308525Y-104769132D01*
X139515368Y-104975975D01*
X139758589Y-105138490D01*
X140028842Y-105250432D01*
X140315740Y-105307500D01*
X140608260Y-105307500D01*
X140895158Y-105250432D01*
X141165411Y-105138490D01*
X141408632Y-104975975D01*
X141615475Y-104769132D01*
X141737195Y-104586966D01*
X141806822Y-104703855D01*
X142001731Y-104920088D01*
X142235080Y-105094141D01*
X142497901Y-105219325D01*
X142645110Y-105263976D01*
X142875000Y-105142655D01*
X142875000Y-103949500D01*
X142855000Y-103949500D01*
X142855000Y-103695500D01*
X142875000Y-103695500D01*
X142875000Y-102502345D01*
X143129000Y-102502345D01*
X143129000Y-103695500D01*
X143149000Y-103695500D01*
X143149000Y-103949500D01*
X143129000Y-103949500D01*
X143129000Y-105142655D01*
X143358890Y-105263976D01*
X143506099Y-105219325D01*
X143768920Y-105094141D01*
X144002269Y-104920088D01*
X144078034Y-104836034D01*
X144102498Y-104916680D01*
X144161463Y-105026994D01*
X144240815Y-105123685D01*
X144337506Y-105203037D01*
X144447820Y-105262002D01*
X144567518Y-105298312D01*
X144692000Y-105310572D01*
X146392000Y-105310572D01*
X146516482Y-105298312D01*
X146636180Y-105262002D01*
X146746494Y-105203037D01*
X146843185Y-105123685D01*
X146922537Y-105026994D01*
X146981502Y-104916680D01*
X147017812Y-104796982D01*
X147030072Y-104672500D01*
X147030072Y-102972500D01*
X147800428Y-102972500D01*
X147800428Y-104672500D01*
X147812688Y-104796982D01*
X147848998Y-104916680D01*
X147907963Y-105026994D01*
X147987315Y-105123685D01*
X148084006Y-105203037D01*
X148194320Y-105262002D01*
X148314018Y-105298312D01*
X148438500Y-105310572D01*
X150138500Y-105310572D01*
X150262982Y-105298312D01*
X150382680Y-105262002D01*
X150492994Y-105203037D01*
X150589685Y-105123685D01*
X150669037Y-105026994D01*
X150728002Y-104916680D01*
X150752466Y-104836034D01*
X150828231Y-104920088D01*
X151061580Y-105094141D01*
X151324401Y-105219325D01*
X151471610Y-105263976D01*
X151701500Y-105142655D01*
X151701500Y-103949500D01*
X151681500Y-103949500D01*
X151681500Y-103695500D01*
X151701500Y-103695500D01*
X151701500Y-102502345D01*
X151955500Y-102502345D01*
X151955500Y-103695500D01*
X151975500Y-103695500D01*
X151975500Y-103949500D01*
X151955500Y-103949500D01*
X151955500Y-105142655D01*
X152185390Y-105263976D01*
X152332599Y-105219325D01*
X152595420Y-105094141D01*
X152828769Y-104920088D01*
X153023678Y-104703855D01*
X153093305Y-104586966D01*
X153215025Y-104769132D01*
X153421868Y-104975975D01*
X153665089Y-105138490D01*
X153935342Y-105250432D01*
X154222240Y-105307500D01*
X154514760Y-105307500D01*
X154801658Y-105250432D01*
X155071911Y-105138490D01*
X155315132Y-104975975D01*
X155521975Y-104769132D01*
X155684490Y-104525911D01*
X155796432Y-104255658D01*
X155853500Y-103968760D01*
X155853500Y-103676240D01*
X155796432Y-103389342D01*
X155684490Y-103119089D01*
X155521975Y-102875868D01*
X155315132Y-102669025D01*
X155071911Y-102506510D01*
X154801658Y-102394568D01*
X154514760Y-102337500D01*
X154222240Y-102337500D01*
X153935342Y-102394568D01*
X153665089Y-102506510D01*
X153421868Y-102669025D01*
X153215025Y-102875868D01*
X153093305Y-103058034D01*
X153023678Y-102941145D01*
X152828769Y-102724912D01*
X152595420Y-102550859D01*
X152332599Y-102425675D01*
X152185390Y-102381024D01*
X151955500Y-102502345D01*
X151701500Y-102502345D01*
X151471610Y-102381024D01*
X151324401Y-102425675D01*
X151061580Y-102550859D01*
X150828231Y-102724912D01*
X150752466Y-102808966D01*
X150728002Y-102728320D01*
X150669037Y-102618006D01*
X150589685Y-102521315D01*
X150492994Y-102441963D01*
X150382680Y-102382998D01*
X150262982Y-102346688D01*
X150138500Y-102334428D01*
X148438500Y-102334428D01*
X148314018Y-102346688D01*
X148194320Y-102382998D01*
X148084006Y-102441963D01*
X147987315Y-102521315D01*
X147907963Y-102618006D01*
X147848998Y-102728320D01*
X147812688Y-102848018D01*
X147800428Y-102972500D01*
X147030072Y-102972500D01*
X147017812Y-102848018D01*
X146981502Y-102728320D01*
X146922537Y-102618006D01*
X146843185Y-102521315D01*
X146746494Y-102441963D01*
X146636180Y-102382998D01*
X146516482Y-102346688D01*
X146392000Y-102334428D01*
X145540800Y-102334428D01*
X145540800Y-102044445D01*
X145576481Y-102008764D01*
X145681541Y-101851531D01*
X145753908Y-101676822D01*
X145790800Y-101491352D01*
X145790800Y-101302248D01*
X145753908Y-101116778D01*
X145681541Y-100942069D01*
X145576481Y-100784836D01*
X145442764Y-100651119D01*
X145285531Y-100546059D01*
X145110822Y-100473692D01*
X144925352Y-100436800D01*
X144736248Y-100436800D01*
X144550778Y-100473692D01*
X144376069Y-100546059D01*
X144218836Y-100651119D01*
X144085119Y-100784836D01*
X143980059Y-100942069D01*
X143907692Y-101116778D01*
X143870800Y-101302248D01*
X143870800Y-101491352D01*
X143907692Y-101676822D01*
X143980059Y-101851531D01*
X144085119Y-102008764D01*
X144120800Y-102044445D01*
X144120801Y-102694079D01*
X144102498Y-102728320D01*
X144078034Y-102808966D01*
X144002269Y-102724912D01*
X143768920Y-102550859D01*
X143506099Y-102425675D01*
X143358890Y-102381024D01*
X143129000Y-102502345D01*
X142875000Y-102502345D01*
X142645110Y-102381024D01*
X142497901Y-102425675D01*
X142235080Y-102550859D01*
X142001731Y-102724912D01*
X141806822Y-102941145D01*
X141737195Y-103058034D01*
X141615475Y-102875868D01*
X141408632Y-102669025D01*
X141165411Y-102506510D01*
X140895158Y-102394568D01*
X140608260Y-102337500D01*
X140315740Y-102337500D01*
X140028842Y-102394568D01*
X139758589Y-102506510D01*
X139515368Y-102669025D01*
X139308525Y-102875868D01*
X139146010Y-103119089D01*
X139034068Y-103389342D01*
X138977000Y-103676240D01*
X138124510Y-103676240D01*
X138264000Y-103536750D01*
X138267072Y-102972500D01*
X138254812Y-102848018D01*
X138218502Y-102728320D01*
X138159537Y-102618006D01*
X138080185Y-102521315D01*
X137983494Y-102441963D01*
X137873180Y-102382998D01*
X137753482Y-102346688D01*
X137629000Y-102334428D01*
X137064750Y-102337500D01*
X136906000Y-102496250D01*
X136652000Y-102496250D01*
X136493250Y-102337500D01*
X135929000Y-102334428D01*
X135804518Y-102346688D01*
X135684820Y-102382998D01*
X135574506Y-102441963D01*
X135477815Y-102521315D01*
X135398463Y-102618006D01*
X135339498Y-102728320D01*
X135317487Y-102800880D01*
X135185632Y-102669025D01*
X134942411Y-102506510D01*
X134672158Y-102394568D01*
X134385260Y-102337500D01*
X134092740Y-102337500D01*
X133805842Y-102394568D01*
X133535589Y-102506510D01*
X133292368Y-102669025D01*
X133085525Y-102875868D01*
X132969000Y-103050260D01*
X132852475Y-102875868D01*
X132645632Y-102669025D01*
X132402411Y-102506510D01*
X132132158Y-102394568D01*
X131845260Y-102337500D01*
X131552740Y-102337500D01*
X131265842Y-102394568D01*
X130995589Y-102506510D01*
X130752368Y-102669025D01*
X130545525Y-102875868D01*
X130429000Y-103050260D01*
X130312475Y-102875868D01*
X130105632Y-102669025D01*
X129862411Y-102506510D01*
X129592158Y-102394568D01*
X129305260Y-102337500D01*
X129012740Y-102337500D01*
X128725842Y-102394568D01*
X128455589Y-102506510D01*
X128212368Y-102669025D01*
X128005525Y-102875868D01*
X127843010Y-103119089D01*
X127731068Y-103389342D01*
X127674000Y-103676240D01*
X126897500Y-103676240D01*
X126840432Y-103389342D01*
X126728490Y-103119089D01*
X126565975Y-102875868D01*
X126359132Y-102669025D01*
X126115911Y-102506510D01*
X125845658Y-102394568D01*
X125558760Y-102337500D01*
X125266240Y-102337500D01*
X124979342Y-102394568D01*
X124709089Y-102506510D01*
X124465868Y-102669025D01*
X124259025Y-102875868D01*
X124142500Y-103050260D01*
X124025975Y-102875868D01*
X123819132Y-102669025D01*
X123575911Y-102506510D01*
X123305658Y-102394568D01*
X123018760Y-102337500D01*
X122726240Y-102337500D01*
X122439342Y-102394568D01*
X122169089Y-102506510D01*
X121925868Y-102669025D01*
X121719025Y-102875868D01*
X121602500Y-103050260D01*
X121485975Y-102875868D01*
X121279132Y-102669025D01*
X121035911Y-102506510D01*
X120765658Y-102394568D01*
X120478760Y-102337500D01*
X120186240Y-102337500D01*
X119899342Y-102394568D01*
X119629089Y-102506510D01*
X119385868Y-102669025D01*
X119254013Y-102800880D01*
X119232002Y-102728320D01*
X119173037Y-102618006D01*
X119093685Y-102521315D01*
X118996994Y-102441963D01*
X118886680Y-102382998D01*
X118766982Y-102346688D01*
X118642500Y-102334428D01*
X118078250Y-102337500D01*
X117919500Y-102496250D01*
X117665500Y-102496250D01*
X117506750Y-102337500D01*
X116942500Y-102334428D01*
X116818018Y-102346688D01*
X116698320Y-102382998D01*
X116588006Y-102441963D01*
X116491315Y-102521315D01*
X116411963Y-102618006D01*
X116352998Y-102728320D01*
X116316688Y-102848018D01*
X116304428Y-102972500D01*
X112445000Y-102972500D01*
X112445000Y-98296349D01*
X112703256Y-98296349D01*
X112907362Y-98652867D01*
X113350223Y-98883575D01*
X113829583Y-99023452D01*
X114327021Y-99067123D01*
X114823422Y-99012909D01*
X115299707Y-98862894D01*
X115692638Y-98652867D01*
X115896744Y-98296349D01*
X157153256Y-98296349D01*
X157357362Y-98652867D01*
X157800223Y-98883575D01*
X158279583Y-99023452D01*
X158777021Y-99067123D01*
X159273422Y-99012909D01*
X159749707Y-98862894D01*
X160142638Y-98652867D01*
X160346744Y-98296349D01*
X158750000Y-96699605D01*
X157153256Y-98296349D01*
X115896744Y-98296349D01*
X114300000Y-96699605D01*
X112703256Y-98296349D01*
X112445000Y-98296349D01*
X112445000Y-98071716D01*
X112523651Y-98116744D01*
X114120395Y-96520000D01*
X114479605Y-96520000D01*
X116076349Y-98116744D01*
X116432867Y-97912638D01*
X116663575Y-97469777D01*
X116803452Y-96990417D01*
X116842378Y-96547021D01*
X156202877Y-96547021D01*
X156257091Y-97043422D01*
X156407106Y-97519707D01*
X156617133Y-97912638D01*
X156973651Y-98116744D01*
X158570395Y-96520000D01*
X156973651Y-94923256D01*
X156617133Y-95127362D01*
X156386425Y-95570223D01*
X156246548Y-96049583D01*
X156202877Y-96547021D01*
X116842378Y-96547021D01*
X116847123Y-96492979D01*
X116792909Y-95996578D01*
X116642894Y-95520293D01*
X116432867Y-95127362D01*
X116076349Y-94923256D01*
X114479605Y-96520000D01*
X114120395Y-96520000D01*
X112523651Y-94923256D01*
X112445000Y-94968284D01*
X112445000Y-94665000D01*
X112748284Y-94665000D01*
X112703256Y-94743651D01*
G37*
G04 #@! TD.AperFunction*
G04 #@! TD*
M02*
