%FSLAX45Y45*%
G04 Gerber Fmt 4.5, Leading zero omitted, Abs format (unit mm)*
G04 Created by KiCad (PCBNEW (5.1.10-1-10_14)) date 2021-12-16 16:27:30*
%MOMM*%
%LPD*%
G01*
G04 APERTURE LIST*
%TA.AperFunction,Profile*%
%ADD10C,0.100000*%
%TD*%
%ADD11C,0.200000*%
%ADD12C,0.300000*%
G04 APERTURE END LIST*
D10*
X16129000Y-9398000D02*
X16129000Y-12636500D01*
X11176000Y-9398000D02*
X16129000Y-9398000D01*
X11176000Y-12636500D02*
X11176000Y-9398000D01*
X16129000Y-12636500D02*
X11176000Y-12636500D01*
D11*
X12194820Y-11351540D02*
X12229820Y-11386540D01*
X12229820Y-11351540D02*
X12194820Y-11386540D01*
X12194820Y-11453140D02*
X12229820Y-11488140D01*
X12229820Y-11453140D02*
X12194820Y-11488140D01*
X12194820Y-11544580D02*
X12229820Y-11579580D01*
X12229820Y-11544580D02*
X12194820Y-11579580D01*
X12215140Y-11026420D02*
X12250140Y-11061420D01*
X12250140Y-11026420D02*
X12215140Y-11061420D01*
X12271020Y-10950220D02*
X12306020Y-10985220D01*
X12306020Y-10950220D02*
X12271020Y-10985220D01*
X12342140Y-11026420D02*
X12377140Y-11061420D01*
X12377140Y-11026420D02*
X12342140Y-11061420D01*
X12443740Y-11117860D02*
X12478740Y-11152860D01*
X12478740Y-11117860D02*
X12443740Y-11152860D01*
X12443740Y-11224540D02*
X12478740Y-11259540D01*
X12478740Y-11224540D02*
X12443740Y-11259540D01*
X12479300Y-11026420D02*
X12514300Y-11061420D01*
X12514300Y-11026420D02*
X12479300Y-11061420D01*
X12550420Y-11117860D02*
X12585420Y-11152860D01*
X12585420Y-11117860D02*
X12550420Y-11152860D01*
X12550420Y-11224540D02*
X12585420Y-11259540D01*
X12585420Y-11224540D02*
X12550420Y-11259540D01*
X12682500Y-12492000D02*
X12717500Y-12527000D01*
X12717500Y-12492000D02*
X12682500Y-12527000D01*
X12746000Y-11730000D02*
X12781000Y-11765000D01*
X12781000Y-11730000D02*
X12746000Y-11765000D01*
X13088900Y-11666500D02*
X13123900Y-11701500D01*
X13123900Y-11666500D02*
X13088900Y-11701500D01*
X13106630Y-12062740D02*
X13141630Y-12097740D01*
X13141630Y-12062740D02*
X13106630Y-12097740D01*
X13190500Y-12123700D02*
X13225500Y-12158700D01*
X13225500Y-12123700D02*
X13190500Y-12158700D01*
X13190500Y-12225300D02*
X13225500Y-12260300D01*
X13225500Y-12225300D02*
X13190500Y-12260300D01*
X13190500Y-12365000D02*
X13225500Y-12400000D01*
X13225500Y-12365000D02*
X13190500Y-12400000D01*
X13190500Y-12492000D02*
X13225500Y-12527000D01*
X13225500Y-12492000D02*
X13190500Y-12527000D01*
X13241300Y-11920500D02*
X13276300Y-11955500D01*
X13276300Y-11920500D02*
X13241300Y-11955500D01*
X13337820Y-10675900D02*
X13372820Y-10710900D01*
X13372820Y-10675900D02*
X13337820Y-10710900D01*
X13635000Y-12111000D02*
X13670000Y-12146000D01*
X13670000Y-12111000D02*
X13635000Y-12146000D01*
X13635000Y-12238000D02*
X13670000Y-12273000D01*
X13670000Y-12238000D02*
X13635000Y-12273000D01*
X13901700Y-11151290D02*
X13936700Y-11186290D01*
X13936700Y-11151290D02*
X13901700Y-11186290D01*
X13901700Y-11361700D02*
X13936700Y-11396700D01*
X13936700Y-11361700D02*
X13901700Y-11396700D01*
X14049126Y-12271126D02*
X14084126Y-12306126D01*
X14084126Y-12271126D02*
X14049126Y-12306126D01*
X14055730Y-10882930D02*
X14090730Y-10917930D01*
X14090730Y-10882930D02*
X14055730Y-10917930D01*
X14118630Y-12119499D02*
X14153630Y-12154499D01*
X14153630Y-12119499D02*
X14118630Y-12154499D01*
X14155700Y-12428500D02*
X14190700Y-12463500D01*
X14190700Y-12428500D02*
X14155700Y-12463500D01*
X14156940Y-12011410D02*
X14191940Y-12046410D01*
X14191940Y-12011410D02*
X14156940Y-12046410D01*
X14213000Y-11603000D02*
X14248000Y-11638000D01*
X14248000Y-11603000D02*
X14213000Y-11638000D01*
X14410840Y-11584090D02*
X14445840Y-11619090D01*
X14445840Y-11584090D02*
X14410840Y-11619090D01*
X14465580Y-10122180D02*
X14500580Y-10157180D01*
X14500580Y-10122180D02*
X14465580Y-10157180D01*
X14543310Y-11045560D02*
X14578310Y-11080560D01*
X14578310Y-11045560D02*
X14543310Y-11080560D01*
X14562100Y-12022100D02*
X14597100Y-12057100D01*
X14597100Y-12022100D02*
X14562100Y-12057100D01*
X14587500Y-12487680D02*
X14622500Y-12522680D01*
X14622500Y-12487680D02*
X14587500Y-12522680D01*
X14838610Y-11408230D02*
X14873610Y-11443230D01*
X14873610Y-11408230D02*
X14838610Y-11443230D01*
X15032000Y-11730000D02*
X15067000Y-11765000D01*
X15067000Y-11730000D02*
X15032000Y-11765000D01*
X15349500Y-10604780D02*
X15384500Y-10639780D01*
X15384500Y-10604780D02*
X15349500Y-10639780D01*
X15356000Y-10904500D02*
X15391000Y-10939500D01*
X15391000Y-10904500D02*
X15356000Y-10939500D01*
X15363500Y-12205960D02*
X15398500Y-12240960D01*
X15398500Y-12205960D02*
X15363500Y-12240960D01*
X15603500Y-9888500D02*
X15638500Y-9923500D01*
X15638500Y-9888500D02*
X15603500Y-9923500D01*
X15603550Y-12527930D02*
X15638550Y-12562930D01*
X15638550Y-12527930D02*
X15603550Y-12562930D01*
X15657550Y-11614130D02*
X15692550Y-11649130D01*
X15692550Y-11614130D02*
X15657550Y-11649130D01*
X15667000Y-10587000D02*
X15702000Y-10622000D01*
X15702000Y-10587000D02*
X15667000Y-10622000D01*
X15984500Y-11603000D02*
X16019500Y-11638000D01*
X16019500Y-11603000D02*
X15984500Y-11638000D01*
X12867000Y-11125200D02*
G75*
G03*
X12867000Y-11125200I-40000J0D01*
G01*
X13117000Y-11125200D02*
G75*
G03*
X13117000Y-11125200I-40000J0D01*
G01*
X11734800Y-11380000D02*
X11734800Y-11480000D01*
X11684800Y-11430000D02*
X11784800Y-11430000D01*
X11734800Y-11880000D02*
X11734800Y-11980000D01*
X11684800Y-11930000D02*
X11784800Y-11930000D01*
X11779250Y-10332250D02*
X11779250Y-10432250D01*
X11729250Y-10382250D02*
X11829250Y-10382250D01*
X12033250Y-10332250D02*
X12033250Y-10432250D01*
X11983250Y-10382250D02*
X12083250Y-10382250D01*
X12287250Y-10332250D02*
X12287250Y-10432250D01*
X12237250Y-10382250D02*
X12337250Y-10382250D01*
X12541250Y-10332250D02*
X12541250Y-10432250D01*
X12491250Y-10382250D02*
X12591250Y-10382250D01*
X12915900Y-10332250D02*
X12915900Y-10432250D01*
X12865900Y-10382250D02*
X12965900Y-10382250D01*
X13169900Y-10332250D02*
X13169900Y-10432250D01*
X13119900Y-10382250D02*
X13219900Y-10382250D01*
X13423900Y-10332250D02*
X13423900Y-10432250D01*
X13373900Y-10382250D02*
X13473900Y-10382250D01*
X13677900Y-10332250D02*
X13677900Y-10432250D01*
X13627900Y-10382250D02*
X13727900Y-10382250D01*
X14046200Y-10332250D02*
X14046200Y-10432250D01*
X13996200Y-10382250D02*
X14096200Y-10382250D01*
X14300200Y-10332250D02*
X14300200Y-10432250D01*
X14250200Y-10382250D02*
X14350200Y-10382250D01*
X14554200Y-10332250D02*
X14554200Y-10432250D01*
X14504200Y-10382250D02*
X14604200Y-10382250D01*
X14928850Y-10332250D02*
X14928850Y-10432250D01*
X14878850Y-10382250D02*
X14978850Y-10382250D01*
X15182850Y-10332250D02*
X15182850Y-10432250D01*
X15132850Y-10382250D02*
X15232850Y-10382250D01*
X15436850Y-10332250D02*
X15436850Y-10432250D01*
X15386850Y-10382250D02*
X15486850Y-10382250D01*
X11507782Y-9729783D02*
X11507782Y-9574218D01*
X11352217Y-9574218D01*
X11352217Y-9729783D01*
X11507782Y-9729783D01*
X11507782Y-12460282D02*
X11507782Y-12304717D01*
X11352217Y-12304717D01*
X11352217Y-12460282D01*
X11507782Y-12460282D01*
X15952782Y-9729783D02*
X15952782Y-9574218D01*
X15797217Y-9574218D01*
X15797217Y-9729783D01*
X15952782Y-9729783D01*
X15952782Y-12460282D02*
X15952782Y-12304717D01*
X15797217Y-12304717D01*
X15797217Y-12460282D01*
X15952782Y-12460282D01*
D12*
X11457428Y-13107214D02*
X11457428Y-12807214D01*
X11528857Y-12807214D01*
X11571714Y-12821500D01*
X11600286Y-12850071D01*
X11614571Y-12878643D01*
X11628857Y-12935786D01*
X11628857Y-12978643D01*
X11614571Y-13035786D01*
X11600286Y-13064357D01*
X11571714Y-13092929D01*
X11528857Y-13107214D01*
X11457428Y-13107214D01*
X11757428Y-13107214D02*
X11757428Y-12907214D01*
X11757428Y-12964357D02*
X11771714Y-12935786D01*
X11786000Y-12921500D01*
X11814571Y-12907214D01*
X11843143Y-12907214D01*
X11943143Y-13107214D02*
X11943143Y-12907214D01*
X11943143Y-12807214D02*
X11928857Y-12821500D01*
X11943143Y-12835786D01*
X11957428Y-12821500D01*
X11943143Y-12807214D01*
X11943143Y-12835786D01*
X12128857Y-13107214D02*
X12100286Y-13092929D01*
X12086000Y-13064357D01*
X12086000Y-12807214D01*
X12286000Y-13107214D02*
X12257428Y-13092929D01*
X12243143Y-13064357D01*
X12243143Y-12807214D01*
X12628857Y-13107214D02*
X12628857Y-12807214D01*
X12728857Y-13021500D01*
X12828857Y-12807214D01*
X12828857Y-13107214D01*
X13100286Y-13107214D02*
X13100286Y-12950071D01*
X13086000Y-12921500D01*
X13057428Y-12907214D01*
X13000286Y-12907214D01*
X12971714Y-12921500D01*
X13100286Y-13092929D02*
X13071714Y-13107214D01*
X13000286Y-13107214D01*
X12971714Y-13092929D01*
X12957428Y-13064357D01*
X12957428Y-13035786D01*
X12971714Y-13007214D01*
X13000286Y-12992929D01*
X13071714Y-12992929D01*
X13100286Y-12978643D01*
X13243143Y-12907214D02*
X13243143Y-13207214D01*
X13243143Y-12921500D02*
X13271714Y-12907214D01*
X13328857Y-12907214D01*
X13357428Y-12921500D01*
X13371714Y-12935786D01*
X13386000Y-12964357D01*
X13386000Y-13050071D01*
X13371714Y-13078643D01*
X13357428Y-13092929D01*
X13328857Y-13107214D01*
X13271714Y-13107214D01*
X13243143Y-13092929D01*
X13514571Y-13078643D02*
X13528857Y-13092929D01*
X13514571Y-13107214D01*
X13500286Y-13092929D01*
X13514571Y-13078643D01*
X13514571Y-13107214D01*
X13514571Y-12921500D02*
X13528857Y-12935786D01*
X13514571Y-12950071D01*
X13500286Y-12935786D01*
X13514571Y-12921500D01*
X13514571Y-12950071D01*
X11136000Y-13584000D02*
X11171000Y-13619000D01*
X11171000Y-13584000D02*
X11136000Y-13619000D01*
X11514571Y-13437214D02*
X11543143Y-13437214D01*
X11571714Y-13451500D01*
X11586000Y-13465786D01*
X11600286Y-13494357D01*
X11614571Y-13551500D01*
X11614571Y-13622929D01*
X11600286Y-13680071D01*
X11586000Y-13708643D01*
X11571714Y-13722929D01*
X11543143Y-13737214D01*
X11514571Y-13737214D01*
X11486000Y-13722929D01*
X11471714Y-13708643D01*
X11457428Y-13680071D01*
X11443143Y-13622929D01*
X11443143Y-13551500D01*
X11457428Y-13494357D01*
X11471714Y-13465786D01*
X11486000Y-13451500D01*
X11514571Y-13437214D01*
X11743143Y-13708643D02*
X11757428Y-13722929D01*
X11743143Y-13737214D01*
X11728857Y-13722929D01*
X11743143Y-13708643D01*
X11743143Y-13737214D01*
X11857428Y-13437214D02*
X12043143Y-13437214D01*
X11943143Y-13551500D01*
X11986000Y-13551500D01*
X12014571Y-13565786D01*
X12028857Y-13580071D01*
X12043143Y-13608643D01*
X12043143Y-13680071D01*
X12028857Y-13708643D01*
X12014571Y-13722929D01*
X11986000Y-13737214D01*
X11900286Y-13737214D01*
X11871714Y-13722929D01*
X11857428Y-13708643D01*
X12314571Y-13437214D02*
X12171714Y-13437214D01*
X12157428Y-13580071D01*
X12171714Y-13565786D01*
X12200286Y-13551500D01*
X12271714Y-13551500D01*
X12300286Y-13565786D01*
X12314571Y-13580071D01*
X12328857Y-13608643D01*
X12328857Y-13680071D01*
X12314571Y-13708643D01*
X12300286Y-13722929D01*
X12271714Y-13737214D01*
X12200286Y-13737214D01*
X12171714Y-13722929D01*
X12157428Y-13708643D01*
X12514571Y-13437214D02*
X12543143Y-13437214D01*
X12571714Y-13451500D01*
X12586000Y-13465786D01*
X12600286Y-13494357D01*
X12614571Y-13551500D01*
X12614571Y-13622929D01*
X12600286Y-13680071D01*
X12586000Y-13708643D01*
X12571714Y-13722929D01*
X12543143Y-13737214D01*
X12514571Y-13737214D01*
X12486000Y-13722929D01*
X12471714Y-13708643D01*
X12457428Y-13680071D01*
X12443143Y-13622929D01*
X12443143Y-13551500D01*
X12457428Y-13494357D01*
X12471714Y-13465786D01*
X12486000Y-13451500D01*
X12514571Y-13437214D01*
X12743143Y-13737214D02*
X12743143Y-13537214D01*
X12743143Y-13565786D02*
X12757428Y-13551500D01*
X12786000Y-13537214D01*
X12828857Y-13537214D01*
X12857428Y-13551500D01*
X12871714Y-13580071D01*
X12871714Y-13737214D01*
X12871714Y-13580071D02*
X12886000Y-13551500D01*
X12914571Y-13537214D01*
X12957428Y-13537214D01*
X12986000Y-13551500D01*
X13000286Y-13580071D01*
X13000286Y-13737214D01*
X13143143Y-13737214D02*
X13143143Y-13537214D01*
X13143143Y-13565786D02*
X13157428Y-13551500D01*
X13186000Y-13537214D01*
X13228857Y-13537214D01*
X13257428Y-13551500D01*
X13271714Y-13580071D01*
X13271714Y-13737214D01*
X13271714Y-13580071D02*
X13286000Y-13551500D01*
X13314571Y-13537214D01*
X13357428Y-13537214D01*
X13386000Y-13551500D01*
X13400286Y-13580071D01*
X13400286Y-13737214D01*
X13986000Y-13422929D02*
X13728857Y-13808643D01*
X14371714Y-13437214D02*
X14400286Y-13437214D01*
X14428857Y-13451500D01*
X14443143Y-13465786D01*
X14457428Y-13494357D01*
X14471714Y-13551500D01*
X14471714Y-13622929D01*
X14457428Y-13680071D01*
X14443143Y-13708643D01*
X14428857Y-13722929D01*
X14400286Y-13737214D01*
X14371714Y-13737214D01*
X14343143Y-13722929D01*
X14328857Y-13708643D01*
X14314571Y-13680071D01*
X14300286Y-13622929D01*
X14300286Y-13551500D01*
X14314571Y-13494357D01*
X14328857Y-13465786D01*
X14343143Y-13451500D01*
X14371714Y-13437214D01*
X14600286Y-13708643D02*
X14614571Y-13722929D01*
X14600286Y-13737214D01*
X14586000Y-13722929D01*
X14600286Y-13708643D01*
X14600286Y-13737214D01*
X14800286Y-13437214D02*
X14828857Y-13437214D01*
X14857428Y-13451500D01*
X14871714Y-13465786D01*
X14886000Y-13494357D01*
X14900286Y-13551500D01*
X14900286Y-13622929D01*
X14886000Y-13680071D01*
X14871714Y-13708643D01*
X14857428Y-13722929D01*
X14828857Y-13737214D01*
X14800286Y-13737214D01*
X14771714Y-13722929D01*
X14757428Y-13708643D01*
X14743143Y-13680071D01*
X14728857Y-13622929D01*
X14728857Y-13551500D01*
X14743143Y-13494357D01*
X14757428Y-13465786D01*
X14771714Y-13451500D01*
X14800286Y-13437214D01*
X15186000Y-13737214D02*
X15014571Y-13737214D01*
X15100286Y-13737214D02*
X15100286Y-13437214D01*
X15071714Y-13480071D01*
X15043143Y-13508643D01*
X15014571Y-13522929D01*
X15286000Y-13437214D02*
X15471714Y-13437214D01*
X15371714Y-13551500D01*
X15414571Y-13551500D01*
X15443143Y-13565786D01*
X15457428Y-13580071D01*
X15471714Y-13608643D01*
X15471714Y-13680071D01*
X15457428Y-13708643D01*
X15443143Y-13722929D01*
X15414571Y-13737214D01*
X15328857Y-13737214D01*
X15300286Y-13722929D01*
X15286000Y-13708643D01*
X15643143Y-13565786D02*
X15614571Y-13551500D01*
X15600286Y-13537214D01*
X15586000Y-13508643D01*
X15586000Y-13494357D01*
X15600286Y-13465786D01*
X15614571Y-13451500D01*
X15643143Y-13437214D01*
X15700286Y-13437214D01*
X15728857Y-13451500D01*
X15743143Y-13465786D01*
X15757428Y-13494357D01*
X15757428Y-13508643D01*
X15743143Y-13537214D01*
X15728857Y-13551500D01*
X15700286Y-13565786D01*
X15643143Y-13565786D01*
X15614571Y-13580071D01*
X15600286Y-13594357D01*
X15586000Y-13622929D01*
X15586000Y-13680071D01*
X15600286Y-13708643D01*
X15614571Y-13722929D01*
X15643143Y-13737214D01*
X15700286Y-13737214D01*
X15728857Y-13722929D01*
X15743143Y-13708643D01*
X15757428Y-13680071D01*
X15757428Y-13622929D01*
X15743143Y-13594357D01*
X15728857Y-13580071D01*
X15700286Y-13565786D01*
X15871714Y-13437214D02*
X15871714Y-13494357D01*
X15986000Y-13437214D02*
X15986000Y-13494357D01*
X16428857Y-13851500D02*
X16414571Y-13837214D01*
X16386000Y-13794357D01*
X16371714Y-13765786D01*
X16357428Y-13722929D01*
X16343143Y-13651500D01*
X16343143Y-13594357D01*
X16357428Y-13522929D01*
X16371714Y-13480071D01*
X16386000Y-13451500D01*
X16414571Y-13408643D01*
X16428857Y-13394357D01*
X16671714Y-13537214D02*
X16671714Y-13737214D01*
X16600286Y-13422929D02*
X16528857Y-13637214D01*
X16714571Y-13637214D01*
X16957428Y-13437214D02*
X16900286Y-13437214D01*
X16871714Y-13451500D01*
X16857428Y-13465786D01*
X16828857Y-13508643D01*
X16814571Y-13565786D01*
X16814571Y-13680071D01*
X16828857Y-13708643D01*
X16843143Y-13722929D01*
X16871714Y-13737214D01*
X16928857Y-13737214D01*
X16957428Y-13722929D01*
X16971714Y-13708643D01*
X16986000Y-13680071D01*
X16986000Y-13608643D01*
X16971714Y-13580071D01*
X16957428Y-13565786D01*
X16928857Y-13551500D01*
X16871714Y-13551500D01*
X16843143Y-13565786D01*
X16828857Y-13580071D01*
X16814571Y-13608643D01*
X17343143Y-13737214D02*
X17343143Y-13437214D01*
X17471714Y-13737214D02*
X17471714Y-13580071D01*
X17457428Y-13551500D01*
X17428857Y-13537214D01*
X17386000Y-13537214D01*
X17357428Y-13551500D01*
X17343143Y-13565786D01*
X17657428Y-13737214D02*
X17628857Y-13722929D01*
X17614571Y-13708643D01*
X17600286Y-13680071D01*
X17600286Y-13594357D01*
X17614571Y-13565786D01*
X17628857Y-13551500D01*
X17657428Y-13537214D01*
X17700286Y-13537214D01*
X17728857Y-13551500D01*
X17743143Y-13565786D01*
X17757428Y-13594357D01*
X17757428Y-13680071D01*
X17743143Y-13708643D01*
X17728857Y-13722929D01*
X17700286Y-13737214D01*
X17657428Y-13737214D01*
X17928857Y-13737214D02*
X17900286Y-13722929D01*
X17886000Y-13694357D01*
X17886000Y-13437214D01*
X18157428Y-13722929D02*
X18128857Y-13737214D01*
X18071714Y-13737214D01*
X18043143Y-13722929D01*
X18028857Y-13694357D01*
X18028857Y-13580071D01*
X18043143Y-13551500D01*
X18071714Y-13537214D01*
X18128857Y-13537214D01*
X18157428Y-13551500D01*
X18171714Y-13580071D01*
X18171714Y-13608643D01*
X18028857Y-13637214D01*
X18286000Y-13722929D02*
X18314571Y-13737214D01*
X18371714Y-13737214D01*
X18400286Y-13722929D01*
X18414571Y-13694357D01*
X18414571Y-13680071D01*
X18400286Y-13651500D01*
X18371714Y-13637214D01*
X18328857Y-13637214D01*
X18300286Y-13622929D01*
X18286000Y-13594357D01*
X18286000Y-13580071D01*
X18300286Y-13551500D01*
X18328857Y-13537214D01*
X18371714Y-13537214D01*
X18400286Y-13551500D01*
X18514571Y-13851500D02*
X18528857Y-13837214D01*
X18557428Y-13794357D01*
X18571714Y-13765786D01*
X18586000Y-13722929D01*
X18600286Y-13651500D01*
X18600286Y-13594357D01*
X18586000Y-13522929D01*
X18571714Y-13480071D01*
X18557428Y-13451500D01*
X18528857Y-13408643D01*
X18514571Y-13394357D01*
X11171000Y-13997500D02*
G75*
G03*
X11171000Y-13997500I-40000J0D01*
G01*
X11514571Y-13833214D02*
X11543143Y-13833214D01*
X11571714Y-13847500D01*
X11586000Y-13861786D01*
X11600286Y-13890357D01*
X11614571Y-13947500D01*
X11614571Y-14018929D01*
X11600286Y-14076071D01*
X11586000Y-14104643D01*
X11571714Y-14118929D01*
X11543143Y-14133214D01*
X11514571Y-14133214D01*
X11486000Y-14118929D01*
X11471714Y-14104643D01*
X11457428Y-14076071D01*
X11443143Y-14018929D01*
X11443143Y-13947500D01*
X11457428Y-13890357D01*
X11471714Y-13861786D01*
X11486000Y-13847500D01*
X11514571Y-13833214D01*
X11743143Y-14104643D02*
X11757428Y-14118929D01*
X11743143Y-14133214D01*
X11728857Y-14118929D01*
X11743143Y-14104643D01*
X11743143Y-14133214D01*
X11928857Y-13961786D02*
X11900286Y-13947500D01*
X11886000Y-13933214D01*
X11871714Y-13904643D01*
X11871714Y-13890357D01*
X11886000Y-13861786D01*
X11900286Y-13847500D01*
X11928857Y-13833214D01*
X11986000Y-13833214D01*
X12014571Y-13847500D01*
X12028857Y-13861786D01*
X12043143Y-13890357D01*
X12043143Y-13904643D01*
X12028857Y-13933214D01*
X12014571Y-13947500D01*
X11986000Y-13961786D01*
X11928857Y-13961786D01*
X11900286Y-13976071D01*
X11886000Y-13990357D01*
X11871714Y-14018929D01*
X11871714Y-14076071D01*
X11886000Y-14104643D01*
X11900286Y-14118929D01*
X11928857Y-14133214D01*
X11986000Y-14133214D01*
X12014571Y-14118929D01*
X12028857Y-14104643D01*
X12043143Y-14076071D01*
X12043143Y-14018929D01*
X12028857Y-13990357D01*
X12014571Y-13976071D01*
X11986000Y-13961786D01*
X12228857Y-13833214D02*
X12257428Y-13833214D01*
X12286000Y-13847500D01*
X12300286Y-13861786D01*
X12314571Y-13890357D01*
X12328857Y-13947500D01*
X12328857Y-14018929D01*
X12314571Y-14076071D01*
X12300286Y-14104643D01*
X12286000Y-14118929D01*
X12257428Y-14133214D01*
X12228857Y-14133214D01*
X12200286Y-14118929D01*
X12186000Y-14104643D01*
X12171714Y-14076071D01*
X12157428Y-14018929D01*
X12157428Y-13947500D01*
X12171714Y-13890357D01*
X12186000Y-13861786D01*
X12200286Y-13847500D01*
X12228857Y-13833214D01*
X12514571Y-13833214D02*
X12543143Y-13833214D01*
X12571714Y-13847500D01*
X12586000Y-13861786D01*
X12600286Y-13890357D01*
X12614571Y-13947500D01*
X12614571Y-14018929D01*
X12600286Y-14076071D01*
X12586000Y-14104643D01*
X12571714Y-14118929D01*
X12543143Y-14133214D01*
X12514571Y-14133214D01*
X12486000Y-14118929D01*
X12471714Y-14104643D01*
X12457428Y-14076071D01*
X12443143Y-14018929D01*
X12443143Y-13947500D01*
X12457428Y-13890357D01*
X12471714Y-13861786D01*
X12486000Y-13847500D01*
X12514571Y-13833214D01*
X12743143Y-14133214D02*
X12743143Y-13933214D01*
X12743143Y-13961786D02*
X12757428Y-13947500D01*
X12786000Y-13933214D01*
X12828857Y-13933214D01*
X12857428Y-13947500D01*
X12871714Y-13976071D01*
X12871714Y-14133214D01*
X12871714Y-13976071D02*
X12886000Y-13947500D01*
X12914571Y-13933214D01*
X12957428Y-13933214D01*
X12986000Y-13947500D01*
X13000286Y-13976071D01*
X13000286Y-14133214D01*
X13143143Y-14133214D02*
X13143143Y-13933214D01*
X13143143Y-13961786D02*
X13157428Y-13947500D01*
X13186000Y-13933214D01*
X13228857Y-13933214D01*
X13257428Y-13947500D01*
X13271714Y-13976071D01*
X13271714Y-14133214D01*
X13271714Y-13976071D02*
X13286000Y-13947500D01*
X13314571Y-13933214D01*
X13357428Y-13933214D01*
X13386000Y-13947500D01*
X13400286Y-13976071D01*
X13400286Y-14133214D01*
X13986000Y-13818929D02*
X13728857Y-14204643D01*
X14371714Y-13833214D02*
X14400286Y-13833214D01*
X14428857Y-13847500D01*
X14443143Y-13861786D01*
X14457428Y-13890357D01*
X14471714Y-13947500D01*
X14471714Y-14018929D01*
X14457428Y-14076071D01*
X14443143Y-14104643D01*
X14428857Y-14118929D01*
X14400286Y-14133214D01*
X14371714Y-14133214D01*
X14343143Y-14118929D01*
X14328857Y-14104643D01*
X14314571Y-14076071D01*
X14300286Y-14018929D01*
X14300286Y-13947500D01*
X14314571Y-13890357D01*
X14328857Y-13861786D01*
X14343143Y-13847500D01*
X14371714Y-13833214D01*
X14600286Y-14104643D02*
X14614571Y-14118929D01*
X14600286Y-14133214D01*
X14586000Y-14118929D01*
X14600286Y-14104643D01*
X14600286Y-14133214D01*
X14800286Y-13833214D02*
X14828857Y-13833214D01*
X14857428Y-13847500D01*
X14871714Y-13861786D01*
X14886000Y-13890357D01*
X14900286Y-13947500D01*
X14900286Y-14018929D01*
X14886000Y-14076071D01*
X14871714Y-14104643D01*
X14857428Y-14118929D01*
X14828857Y-14133214D01*
X14800286Y-14133214D01*
X14771714Y-14118929D01*
X14757428Y-14104643D01*
X14743143Y-14076071D01*
X14728857Y-14018929D01*
X14728857Y-13947500D01*
X14743143Y-13890357D01*
X14757428Y-13861786D01*
X14771714Y-13847500D01*
X14800286Y-13833214D01*
X15000286Y-13833214D02*
X15186000Y-13833214D01*
X15086000Y-13947500D01*
X15128857Y-13947500D01*
X15157428Y-13961786D01*
X15171714Y-13976071D01*
X15186000Y-14004643D01*
X15186000Y-14076071D01*
X15171714Y-14104643D01*
X15157428Y-14118929D01*
X15128857Y-14133214D01*
X15043143Y-14133214D01*
X15014571Y-14118929D01*
X15000286Y-14104643D01*
X15471714Y-14133214D02*
X15300286Y-14133214D01*
X15386000Y-14133214D02*
X15386000Y-13833214D01*
X15357428Y-13876071D01*
X15328857Y-13904643D01*
X15300286Y-13918929D01*
X15743143Y-13833214D02*
X15600286Y-13833214D01*
X15586000Y-13976071D01*
X15600286Y-13961786D01*
X15628857Y-13947500D01*
X15700286Y-13947500D01*
X15728857Y-13961786D01*
X15743143Y-13976071D01*
X15757428Y-14004643D01*
X15757428Y-14076071D01*
X15743143Y-14104643D01*
X15728857Y-14118929D01*
X15700286Y-14133214D01*
X15628857Y-14133214D01*
X15600286Y-14118929D01*
X15586000Y-14104643D01*
X15871714Y-13833214D02*
X15871714Y-13890357D01*
X15986000Y-13833214D02*
X15986000Y-13890357D01*
X16428857Y-14247500D02*
X16414571Y-14233214D01*
X16386000Y-14190357D01*
X16371714Y-14161786D01*
X16357428Y-14118929D01*
X16343143Y-14047500D01*
X16343143Y-13990357D01*
X16357428Y-13918929D01*
X16371714Y-13876071D01*
X16386000Y-13847500D01*
X16414571Y-13804643D01*
X16428857Y-13790357D01*
X16528857Y-13861786D02*
X16543143Y-13847500D01*
X16571714Y-13833214D01*
X16643143Y-13833214D01*
X16671714Y-13847500D01*
X16686000Y-13861786D01*
X16700286Y-13890357D01*
X16700286Y-13918929D01*
X16686000Y-13961786D01*
X16514571Y-14133214D01*
X16700286Y-14133214D01*
X17057428Y-14133214D02*
X17057428Y-13833214D01*
X17186000Y-14133214D02*
X17186000Y-13976071D01*
X17171714Y-13947500D01*
X17143143Y-13933214D01*
X17100286Y-13933214D01*
X17071714Y-13947500D01*
X17057428Y-13961786D01*
X17371714Y-14133214D02*
X17343143Y-14118929D01*
X17328857Y-14104643D01*
X17314571Y-14076071D01*
X17314571Y-13990357D01*
X17328857Y-13961786D01*
X17343143Y-13947500D01*
X17371714Y-13933214D01*
X17414571Y-13933214D01*
X17443143Y-13947500D01*
X17457428Y-13961786D01*
X17471714Y-13990357D01*
X17471714Y-14076071D01*
X17457428Y-14104643D01*
X17443143Y-14118929D01*
X17414571Y-14133214D01*
X17371714Y-14133214D01*
X17643143Y-14133214D02*
X17614571Y-14118929D01*
X17600286Y-14090357D01*
X17600286Y-13833214D01*
X17871714Y-14118929D02*
X17843143Y-14133214D01*
X17786000Y-14133214D01*
X17757428Y-14118929D01*
X17743143Y-14090357D01*
X17743143Y-13976071D01*
X17757428Y-13947500D01*
X17786000Y-13933214D01*
X17843143Y-13933214D01*
X17871714Y-13947500D01*
X17886000Y-13976071D01*
X17886000Y-14004643D01*
X17743143Y-14033214D01*
X18000286Y-14118929D02*
X18028857Y-14133214D01*
X18086000Y-14133214D01*
X18114571Y-14118929D01*
X18128857Y-14090357D01*
X18128857Y-14076071D01*
X18114571Y-14047500D01*
X18086000Y-14033214D01*
X18043143Y-14033214D01*
X18014571Y-14018929D01*
X18000286Y-13990357D01*
X18000286Y-13976071D01*
X18014571Y-13947500D01*
X18043143Y-13933214D01*
X18086000Y-13933214D01*
X18114571Y-13947500D01*
X18228857Y-14247500D02*
X18243143Y-14233214D01*
X18271714Y-14190357D01*
X18286000Y-14161786D01*
X18300286Y-14118929D01*
X18314571Y-14047500D01*
X18314571Y-13990357D01*
X18300286Y-13918929D01*
X18286000Y-13876071D01*
X18271714Y-13847500D01*
X18243143Y-13804643D01*
X18228857Y-13790357D01*
X11121000Y-14343500D02*
X11121000Y-14443500D01*
X11071000Y-14393500D02*
X11171000Y-14393500D01*
X11614571Y-14529214D02*
X11443143Y-14529214D01*
X11528857Y-14529214D02*
X11528857Y-14229214D01*
X11500286Y-14272071D01*
X11471714Y-14300643D01*
X11443143Y-14314929D01*
X11743143Y-14500643D02*
X11757428Y-14514929D01*
X11743143Y-14529214D01*
X11728857Y-14514929D01*
X11743143Y-14500643D01*
X11743143Y-14529214D01*
X11943143Y-14229214D02*
X11971714Y-14229214D01*
X12000286Y-14243500D01*
X12014571Y-14257786D01*
X12028857Y-14286357D01*
X12043143Y-14343500D01*
X12043143Y-14414929D01*
X12028857Y-14472071D01*
X12014571Y-14500643D01*
X12000286Y-14514929D01*
X11971714Y-14529214D01*
X11943143Y-14529214D01*
X11914571Y-14514929D01*
X11900286Y-14500643D01*
X11886000Y-14472071D01*
X11871714Y-14414929D01*
X11871714Y-14343500D01*
X11886000Y-14286357D01*
X11900286Y-14257786D01*
X11914571Y-14243500D01*
X11943143Y-14229214D01*
X12228857Y-14229214D02*
X12257428Y-14229214D01*
X12286000Y-14243500D01*
X12300286Y-14257786D01*
X12314571Y-14286357D01*
X12328857Y-14343500D01*
X12328857Y-14414929D01*
X12314571Y-14472071D01*
X12300286Y-14500643D01*
X12286000Y-14514929D01*
X12257428Y-14529214D01*
X12228857Y-14529214D01*
X12200286Y-14514929D01*
X12186000Y-14500643D01*
X12171714Y-14472071D01*
X12157428Y-14414929D01*
X12157428Y-14343500D01*
X12171714Y-14286357D01*
X12186000Y-14257786D01*
X12200286Y-14243500D01*
X12228857Y-14229214D01*
X12514571Y-14229214D02*
X12543143Y-14229214D01*
X12571714Y-14243500D01*
X12586000Y-14257786D01*
X12600286Y-14286357D01*
X12614571Y-14343500D01*
X12614571Y-14414929D01*
X12600286Y-14472071D01*
X12586000Y-14500643D01*
X12571714Y-14514929D01*
X12543143Y-14529214D01*
X12514571Y-14529214D01*
X12486000Y-14514929D01*
X12471714Y-14500643D01*
X12457428Y-14472071D01*
X12443143Y-14414929D01*
X12443143Y-14343500D01*
X12457428Y-14286357D01*
X12471714Y-14257786D01*
X12486000Y-14243500D01*
X12514571Y-14229214D01*
X12743143Y-14529214D02*
X12743143Y-14329214D01*
X12743143Y-14357786D02*
X12757428Y-14343500D01*
X12786000Y-14329214D01*
X12828857Y-14329214D01*
X12857428Y-14343500D01*
X12871714Y-14372071D01*
X12871714Y-14529214D01*
X12871714Y-14372071D02*
X12886000Y-14343500D01*
X12914571Y-14329214D01*
X12957428Y-14329214D01*
X12986000Y-14343500D01*
X13000286Y-14372071D01*
X13000286Y-14529214D01*
X13143143Y-14529214D02*
X13143143Y-14329214D01*
X13143143Y-14357786D02*
X13157428Y-14343500D01*
X13186000Y-14329214D01*
X13228857Y-14329214D01*
X13257428Y-14343500D01*
X13271714Y-14372071D01*
X13271714Y-14529214D01*
X13271714Y-14372071D02*
X13286000Y-14343500D01*
X13314571Y-14329214D01*
X13357428Y-14329214D01*
X13386000Y-14343500D01*
X13400286Y-14372071D01*
X13400286Y-14529214D01*
X13986000Y-14214929D02*
X13728857Y-14600643D01*
X14371714Y-14229214D02*
X14400286Y-14229214D01*
X14428857Y-14243500D01*
X14443143Y-14257786D01*
X14457428Y-14286357D01*
X14471714Y-14343500D01*
X14471714Y-14414929D01*
X14457428Y-14472071D01*
X14443143Y-14500643D01*
X14428857Y-14514929D01*
X14400286Y-14529214D01*
X14371714Y-14529214D01*
X14343143Y-14514929D01*
X14328857Y-14500643D01*
X14314571Y-14472071D01*
X14300286Y-14414929D01*
X14300286Y-14343500D01*
X14314571Y-14286357D01*
X14328857Y-14257786D01*
X14343143Y-14243500D01*
X14371714Y-14229214D01*
X14600286Y-14500643D02*
X14614571Y-14514929D01*
X14600286Y-14529214D01*
X14586000Y-14514929D01*
X14600286Y-14500643D01*
X14600286Y-14529214D01*
X14800286Y-14229214D02*
X14828857Y-14229214D01*
X14857428Y-14243500D01*
X14871714Y-14257786D01*
X14886000Y-14286357D01*
X14900286Y-14343500D01*
X14900286Y-14414929D01*
X14886000Y-14472071D01*
X14871714Y-14500643D01*
X14857428Y-14514929D01*
X14828857Y-14529214D01*
X14800286Y-14529214D01*
X14771714Y-14514929D01*
X14757428Y-14500643D01*
X14743143Y-14472071D01*
X14728857Y-14414929D01*
X14728857Y-14343500D01*
X14743143Y-14286357D01*
X14757428Y-14257786D01*
X14771714Y-14243500D01*
X14800286Y-14229214D01*
X15000286Y-14229214D02*
X15186000Y-14229214D01*
X15086000Y-14343500D01*
X15128857Y-14343500D01*
X15157428Y-14357786D01*
X15171714Y-14372071D01*
X15186000Y-14400643D01*
X15186000Y-14472071D01*
X15171714Y-14500643D01*
X15157428Y-14514929D01*
X15128857Y-14529214D01*
X15043143Y-14529214D01*
X15014571Y-14514929D01*
X15000286Y-14500643D01*
X15328857Y-14529214D02*
X15386000Y-14529214D01*
X15414571Y-14514929D01*
X15428857Y-14500643D01*
X15457428Y-14457786D01*
X15471714Y-14400643D01*
X15471714Y-14286357D01*
X15457428Y-14257786D01*
X15443143Y-14243500D01*
X15414571Y-14229214D01*
X15357428Y-14229214D01*
X15328857Y-14243500D01*
X15314571Y-14257786D01*
X15300286Y-14286357D01*
X15300286Y-14357786D01*
X15314571Y-14386357D01*
X15328857Y-14400643D01*
X15357428Y-14414929D01*
X15414571Y-14414929D01*
X15443143Y-14400643D01*
X15457428Y-14386357D01*
X15471714Y-14357786D01*
X15728857Y-14329214D02*
X15728857Y-14529214D01*
X15657428Y-14214929D02*
X15586000Y-14429214D01*
X15771714Y-14429214D01*
X15871714Y-14229214D02*
X15871714Y-14286357D01*
X15986000Y-14229214D02*
X15986000Y-14286357D01*
X16428857Y-14643500D02*
X16414571Y-14629214D01*
X16386000Y-14586357D01*
X16371714Y-14557786D01*
X16357428Y-14514929D01*
X16343143Y-14443500D01*
X16343143Y-14386357D01*
X16357428Y-14314929D01*
X16371714Y-14272071D01*
X16386000Y-14243500D01*
X16414571Y-14200643D01*
X16428857Y-14186357D01*
X16700286Y-14529214D02*
X16528857Y-14529214D01*
X16614571Y-14529214D02*
X16614571Y-14229214D01*
X16586000Y-14272071D01*
X16557428Y-14300643D01*
X16528857Y-14314929D01*
X16957428Y-14229214D02*
X16900286Y-14229214D01*
X16871714Y-14243500D01*
X16857428Y-14257786D01*
X16828857Y-14300643D01*
X16814571Y-14357786D01*
X16814571Y-14472071D01*
X16828857Y-14500643D01*
X16843143Y-14514929D01*
X16871714Y-14529214D01*
X16928857Y-14529214D01*
X16957428Y-14514929D01*
X16971714Y-14500643D01*
X16986000Y-14472071D01*
X16986000Y-14400643D01*
X16971714Y-14372071D01*
X16957428Y-14357786D01*
X16928857Y-14343500D01*
X16871714Y-14343500D01*
X16843143Y-14357786D01*
X16828857Y-14372071D01*
X16814571Y-14400643D01*
X17343143Y-14529214D02*
X17343143Y-14229214D01*
X17471714Y-14529214D02*
X17471714Y-14372071D01*
X17457428Y-14343500D01*
X17428857Y-14329214D01*
X17386000Y-14329214D01*
X17357428Y-14343500D01*
X17343143Y-14357786D01*
X17657428Y-14529214D02*
X17628857Y-14514929D01*
X17614571Y-14500643D01*
X17600286Y-14472071D01*
X17600286Y-14386357D01*
X17614571Y-14357786D01*
X17628857Y-14343500D01*
X17657428Y-14329214D01*
X17700286Y-14329214D01*
X17728857Y-14343500D01*
X17743143Y-14357786D01*
X17757428Y-14386357D01*
X17757428Y-14472071D01*
X17743143Y-14500643D01*
X17728857Y-14514929D01*
X17700286Y-14529214D01*
X17657428Y-14529214D01*
X17928857Y-14529214D02*
X17900286Y-14514929D01*
X17886000Y-14486357D01*
X17886000Y-14229214D01*
X18157428Y-14514929D02*
X18128857Y-14529214D01*
X18071714Y-14529214D01*
X18043143Y-14514929D01*
X18028857Y-14486357D01*
X18028857Y-14372071D01*
X18043143Y-14343500D01*
X18071714Y-14329214D01*
X18128857Y-14329214D01*
X18157428Y-14343500D01*
X18171714Y-14372071D01*
X18171714Y-14400643D01*
X18028857Y-14429214D01*
X18286000Y-14514929D02*
X18314571Y-14529214D01*
X18371714Y-14529214D01*
X18400286Y-14514929D01*
X18414571Y-14486357D01*
X18414571Y-14472071D01*
X18400286Y-14443500D01*
X18371714Y-14429214D01*
X18328857Y-14429214D01*
X18300286Y-14414929D01*
X18286000Y-14386357D01*
X18286000Y-14372071D01*
X18300286Y-14343500D01*
X18328857Y-14329214D01*
X18371714Y-14329214D01*
X18400286Y-14343500D01*
X18514571Y-14643500D02*
X18528857Y-14629214D01*
X18557428Y-14586357D01*
X18571714Y-14557786D01*
X18586000Y-14514929D01*
X18600286Y-14443500D01*
X18600286Y-14386357D01*
X18586000Y-14314929D01*
X18571714Y-14272071D01*
X18557428Y-14243500D01*
X18528857Y-14200643D01*
X18514571Y-14186357D01*
X11138782Y-14867283D02*
X11138782Y-14711718D01*
X10983217Y-14711718D01*
X10983217Y-14867283D01*
X11138782Y-14867283D01*
X11443143Y-14653786D02*
X11457428Y-14639500D01*
X11486000Y-14625214D01*
X11557428Y-14625214D01*
X11586000Y-14639500D01*
X11600286Y-14653786D01*
X11614571Y-14682357D01*
X11614571Y-14710929D01*
X11600286Y-14753786D01*
X11428857Y-14925214D01*
X11614571Y-14925214D01*
X11743143Y-14896643D02*
X11757428Y-14910929D01*
X11743143Y-14925214D01*
X11728857Y-14910929D01*
X11743143Y-14896643D01*
X11743143Y-14925214D01*
X11871714Y-14653786D02*
X11886000Y-14639500D01*
X11914571Y-14625214D01*
X11986000Y-14625214D01*
X12014571Y-14639500D01*
X12028857Y-14653786D01*
X12043143Y-14682357D01*
X12043143Y-14710929D01*
X12028857Y-14753786D01*
X11857428Y-14925214D01*
X12043143Y-14925214D01*
X12228857Y-14625214D02*
X12257428Y-14625214D01*
X12286000Y-14639500D01*
X12300286Y-14653786D01*
X12314571Y-14682357D01*
X12328857Y-14739500D01*
X12328857Y-14810929D01*
X12314571Y-14868071D01*
X12300286Y-14896643D01*
X12286000Y-14910929D01*
X12257428Y-14925214D01*
X12228857Y-14925214D01*
X12200286Y-14910929D01*
X12186000Y-14896643D01*
X12171714Y-14868071D01*
X12157428Y-14810929D01*
X12157428Y-14739500D01*
X12171714Y-14682357D01*
X12186000Y-14653786D01*
X12200286Y-14639500D01*
X12228857Y-14625214D01*
X12514571Y-14625214D02*
X12543143Y-14625214D01*
X12571714Y-14639500D01*
X12586000Y-14653786D01*
X12600286Y-14682357D01*
X12614571Y-14739500D01*
X12614571Y-14810929D01*
X12600286Y-14868071D01*
X12586000Y-14896643D01*
X12571714Y-14910929D01*
X12543143Y-14925214D01*
X12514571Y-14925214D01*
X12486000Y-14910929D01*
X12471714Y-14896643D01*
X12457428Y-14868071D01*
X12443143Y-14810929D01*
X12443143Y-14739500D01*
X12457428Y-14682357D01*
X12471714Y-14653786D01*
X12486000Y-14639500D01*
X12514571Y-14625214D01*
X12743143Y-14925214D02*
X12743143Y-14725214D01*
X12743143Y-14753786D02*
X12757428Y-14739500D01*
X12786000Y-14725214D01*
X12828857Y-14725214D01*
X12857428Y-14739500D01*
X12871714Y-14768071D01*
X12871714Y-14925214D01*
X12871714Y-14768071D02*
X12886000Y-14739500D01*
X12914571Y-14725214D01*
X12957428Y-14725214D01*
X12986000Y-14739500D01*
X13000286Y-14768071D01*
X13000286Y-14925214D01*
X13143143Y-14925214D02*
X13143143Y-14725214D01*
X13143143Y-14753786D02*
X13157428Y-14739500D01*
X13186000Y-14725214D01*
X13228857Y-14725214D01*
X13257428Y-14739500D01*
X13271714Y-14768071D01*
X13271714Y-14925214D01*
X13271714Y-14768071D02*
X13286000Y-14739500D01*
X13314571Y-14725214D01*
X13357428Y-14725214D01*
X13386000Y-14739500D01*
X13400286Y-14768071D01*
X13400286Y-14925214D01*
X13986000Y-14610929D02*
X13728857Y-14996643D01*
X14371714Y-14625214D02*
X14400286Y-14625214D01*
X14428857Y-14639500D01*
X14443143Y-14653786D01*
X14457428Y-14682357D01*
X14471714Y-14739500D01*
X14471714Y-14810929D01*
X14457428Y-14868071D01*
X14443143Y-14896643D01*
X14428857Y-14910929D01*
X14400286Y-14925214D01*
X14371714Y-14925214D01*
X14343143Y-14910929D01*
X14328857Y-14896643D01*
X14314571Y-14868071D01*
X14300286Y-14810929D01*
X14300286Y-14739500D01*
X14314571Y-14682357D01*
X14328857Y-14653786D01*
X14343143Y-14639500D01*
X14371714Y-14625214D01*
X14600286Y-14896643D02*
X14614571Y-14910929D01*
X14600286Y-14925214D01*
X14586000Y-14910929D01*
X14600286Y-14896643D01*
X14600286Y-14925214D01*
X14800286Y-14625214D02*
X14828857Y-14625214D01*
X14857428Y-14639500D01*
X14871714Y-14653786D01*
X14886000Y-14682357D01*
X14900286Y-14739500D01*
X14900286Y-14810929D01*
X14886000Y-14868071D01*
X14871714Y-14896643D01*
X14857428Y-14910929D01*
X14828857Y-14925214D01*
X14800286Y-14925214D01*
X14771714Y-14910929D01*
X14757428Y-14896643D01*
X14743143Y-14868071D01*
X14728857Y-14810929D01*
X14728857Y-14739500D01*
X14743143Y-14682357D01*
X14757428Y-14653786D01*
X14771714Y-14639500D01*
X14800286Y-14625214D01*
X15071714Y-14753786D02*
X15043143Y-14739500D01*
X15028857Y-14725214D01*
X15014571Y-14696643D01*
X15014571Y-14682357D01*
X15028857Y-14653786D01*
X15043143Y-14639500D01*
X15071714Y-14625214D01*
X15128857Y-14625214D01*
X15157428Y-14639500D01*
X15171714Y-14653786D01*
X15186000Y-14682357D01*
X15186000Y-14696643D01*
X15171714Y-14725214D01*
X15157428Y-14739500D01*
X15128857Y-14753786D01*
X15071714Y-14753786D01*
X15043143Y-14768071D01*
X15028857Y-14782357D01*
X15014571Y-14810929D01*
X15014571Y-14868071D01*
X15028857Y-14896643D01*
X15043143Y-14910929D01*
X15071714Y-14925214D01*
X15128857Y-14925214D01*
X15157428Y-14910929D01*
X15171714Y-14896643D01*
X15186000Y-14868071D01*
X15186000Y-14810929D01*
X15171714Y-14782357D01*
X15157428Y-14768071D01*
X15128857Y-14753786D01*
X15443143Y-14625214D02*
X15386000Y-14625214D01*
X15357428Y-14639500D01*
X15343143Y-14653786D01*
X15314571Y-14696643D01*
X15300286Y-14753786D01*
X15300286Y-14868071D01*
X15314571Y-14896643D01*
X15328857Y-14910929D01*
X15357428Y-14925214D01*
X15414571Y-14925214D01*
X15443143Y-14910929D01*
X15457428Y-14896643D01*
X15471714Y-14868071D01*
X15471714Y-14796643D01*
X15457428Y-14768071D01*
X15443143Y-14753786D01*
X15414571Y-14739500D01*
X15357428Y-14739500D01*
X15328857Y-14753786D01*
X15314571Y-14768071D01*
X15300286Y-14796643D01*
X15728857Y-14625214D02*
X15671714Y-14625214D01*
X15643143Y-14639500D01*
X15628857Y-14653786D01*
X15600286Y-14696643D01*
X15586000Y-14753786D01*
X15586000Y-14868071D01*
X15600286Y-14896643D01*
X15614571Y-14910929D01*
X15643143Y-14925214D01*
X15700286Y-14925214D01*
X15728857Y-14910929D01*
X15743143Y-14896643D01*
X15757428Y-14868071D01*
X15757428Y-14796643D01*
X15743143Y-14768071D01*
X15728857Y-14753786D01*
X15700286Y-14739500D01*
X15643143Y-14739500D01*
X15614571Y-14753786D01*
X15600286Y-14768071D01*
X15586000Y-14796643D01*
X15871714Y-14625214D02*
X15871714Y-14682357D01*
X15986000Y-14625214D02*
X15986000Y-14682357D01*
X16428857Y-15039500D02*
X16414571Y-15025214D01*
X16386000Y-14982357D01*
X16371714Y-14953786D01*
X16357428Y-14910929D01*
X16343143Y-14839500D01*
X16343143Y-14782357D01*
X16357428Y-14710929D01*
X16371714Y-14668071D01*
X16386000Y-14639500D01*
X16414571Y-14596643D01*
X16428857Y-14582357D01*
X16671714Y-14725214D02*
X16671714Y-14925214D01*
X16600286Y-14610929D02*
X16528857Y-14825214D01*
X16714571Y-14825214D01*
X17057428Y-14925214D02*
X17057428Y-14625214D01*
X17186000Y-14925214D02*
X17186000Y-14768071D01*
X17171714Y-14739500D01*
X17143143Y-14725214D01*
X17100286Y-14725214D01*
X17071714Y-14739500D01*
X17057428Y-14753786D01*
X17371714Y-14925214D02*
X17343143Y-14910929D01*
X17328857Y-14896643D01*
X17314571Y-14868071D01*
X17314571Y-14782357D01*
X17328857Y-14753786D01*
X17343143Y-14739500D01*
X17371714Y-14725214D01*
X17414571Y-14725214D01*
X17443143Y-14739500D01*
X17457428Y-14753786D01*
X17471714Y-14782357D01*
X17471714Y-14868071D01*
X17457428Y-14896643D01*
X17443143Y-14910929D01*
X17414571Y-14925214D01*
X17371714Y-14925214D01*
X17643143Y-14925214D02*
X17614571Y-14910929D01*
X17600286Y-14882357D01*
X17600286Y-14625214D01*
X17871714Y-14910929D02*
X17843143Y-14925214D01*
X17786000Y-14925214D01*
X17757428Y-14910929D01*
X17743143Y-14882357D01*
X17743143Y-14768071D01*
X17757428Y-14739500D01*
X17786000Y-14725214D01*
X17843143Y-14725214D01*
X17871714Y-14739500D01*
X17886000Y-14768071D01*
X17886000Y-14796643D01*
X17743143Y-14825214D01*
X18000286Y-14910929D02*
X18028857Y-14925214D01*
X18086000Y-14925214D01*
X18114571Y-14910929D01*
X18128857Y-14882357D01*
X18128857Y-14868071D01*
X18114571Y-14839500D01*
X18086000Y-14825214D01*
X18043143Y-14825214D01*
X18014571Y-14810929D01*
X18000286Y-14782357D01*
X18000286Y-14768071D01*
X18014571Y-14739500D01*
X18043143Y-14725214D01*
X18086000Y-14725214D01*
X18114571Y-14739500D01*
X18228857Y-15039500D02*
X18243143Y-15025214D01*
X18271714Y-14982357D01*
X18286000Y-14953786D01*
X18300286Y-14910929D01*
X18314571Y-14839500D01*
X18314571Y-14782357D01*
X18300286Y-14710929D01*
X18286000Y-14668071D01*
X18271714Y-14639500D01*
X18243143Y-14596643D01*
X18228857Y-14582357D01*
M02*
