G04 #@! TF.GenerationSoftware,KiCad,Pcbnew,8.0.3*
G04 #@! TF.CreationDate,2024-06-26T12:06:14-07:00*
G04 #@! TF.ProjectId,qiroll PAS digital logic,7169726f-6c6c-4205-9041-532064696769,rev?*
G04 #@! TF.SameCoordinates,Original*
G04 #@! TF.FileFunction,Copper,L1,Top*
G04 #@! TF.FilePolarity,Positive*
%FSLAX46Y46*%
G04 Gerber Fmt 4.6, Leading zero omitted, Abs format (unit mm)*
G04 Created by KiCad (PCBNEW 8.0.3) date 2024-06-26 12:06:14*
%MOMM*%
%LPD*%
G01*
G04 APERTURE LIST*
G04 Aperture macros list*
%AMRoundRect*
0 Rectangle with rounded corners*
0 $1 Rounding radius*
0 $2 $3 $4 $5 $6 $7 $8 $9 X,Y pos of 4 corners*
0 Add a 4 corners polygon primitive as box body*
4,1,4,$2,$3,$4,$5,$6,$7,$8,$9,$2,$3,0*
0 Add four circle primitives for the rounded corners*
1,1,$1+$1,$2,$3*
1,1,$1+$1,$4,$5*
1,1,$1+$1,$6,$7*
1,1,$1+$1,$8,$9*
0 Add four rect primitives between the rounded corners*
20,1,$1+$1,$2,$3,$4,$5,0*
20,1,$1+$1,$4,$5,$6,$7,0*
20,1,$1+$1,$6,$7,$8,$9,0*
20,1,$1+$1,$8,$9,$2,$3,0*%
%AMFreePoly0*
4,1,19,0.550000,-0.750000,0.000000,-0.750000,0.000000,-0.744911,-0.071157,-0.744911,-0.207708,-0.704816,-0.327430,-0.627875,-0.420627,-0.520320,-0.479746,-0.390866,-0.500000,-0.250000,-0.500000,0.250000,-0.479746,0.390866,-0.420627,0.520320,-0.327430,0.627875,-0.207708,0.704816,-0.071157,0.744911,0.000000,0.744911,0.000000,0.750000,0.550000,0.750000,0.550000,-0.750000,0.550000,-0.750000,
$1*%
%AMFreePoly1*
4,1,19,0.000000,0.744911,0.071157,0.744911,0.207708,0.704816,0.327430,0.627875,0.420627,0.520320,0.479746,0.390866,0.500000,0.250000,0.500000,-0.250000,0.479746,-0.390866,0.420627,-0.520320,0.327430,-0.627875,0.207708,-0.704816,0.071157,-0.744911,0.000000,-0.744911,0.000000,-0.750000,-0.550000,-0.750000,-0.550000,0.750000,0.000000,0.750000,0.000000,0.744911,0.000000,0.744911,
$1*%
G04 Aperture macros list end*
G04 #@! TA.AperFunction,EtchedComponent*
%ADD10C,0.000000*%
G04 #@! TD*
G04 #@! TA.AperFunction,ComponentPad*
%ADD11R,1.600000X1.600000*%
G04 #@! TD*
G04 #@! TA.AperFunction,ComponentPad*
%ADD12C,1.600000*%
G04 #@! TD*
G04 #@! TA.AperFunction,ComponentPad*
%ADD13C,3.800000*%
G04 #@! TD*
G04 #@! TA.AperFunction,SMDPad,CuDef*
%ADD14RoundRect,0.225000X0.225000X0.250000X-0.225000X0.250000X-0.225000X-0.250000X0.225000X-0.250000X0*%
G04 #@! TD*
G04 #@! TA.AperFunction,SMDPad,CuDef*
%ADD15RoundRect,0.225000X-0.225000X-0.250000X0.225000X-0.250000X0.225000X0.250000X-0.225000X0.250000X0*%
G04 #@! TD*
G04 #@! TA.AperFunction,SMDPad,CuDef*
%ADD16RoundRect,0.200000X0.200000X0.275000X-0.200000X0.275000X-0.200000X-0.275000X0.200000X-0.275000X0*%
G04 #@! TD*
G04 #@! TA.AperFunction,SMDPad,CuDef*
%ADD17RoundRect,0.200000X0.275000X-0.200000X0.275000X0.200000X-0.275000X0.200000X-0.275000X-0.200000X0*%
G04 #@! TD*
G04 #@! TA.AperFunction,SMDPad,CuDef*
%ADD18RoundRect,0.150000X-0.825000X-0.150000X0.825000X-0.150000X0.825000X0.150000X-0.825000X0.150000X0*%
G04 #@! TD*
G04 #@! TA.AperFunction,SMDPad,CuDef*
%ADD19RoundRect,0.200000X-0.200000X-0.275000X0.200000X-0.275000X0.200000X0.275000X-0.200000X0.275000X0*%
G04 #@! TD*
G04 #@! TA.AperFunction,SMDPad,CuDef*
%ADD20RoundRect,0.225000X0.250000X-0.225000X0.250000X0.225000X-0.250000X0.225000X-0.250000X-0.225000X0*%
G04 #@! TD*
G04 #@! TA.AperFunction,SMDPad,CuDef*
%ADD21RoundRect,0.200000X-0.275000X0.200000X-0.275000X-0.200000X0.275000X-0.200000X0.275000X0.200000X0*%
G04 #@! TD*
G04 #@! TA.AperFunction,SMDPad,CuDef*
%ADD22RoundRect,0.225000X-0.250000X0.225000X-0.250000X-0.225000X0.250000X-0.225000X0.250000X0.225000X0*%
G04 #@! TD*
G04 #@! TA.AperFunction,SMDPad,CuDef*
%ADD23FreePoly0,0.000000*%
G04 #@! TD*
G04 #@! TA.AperFunction,SMDPad,CuDef*
%ADD24R,1.000000X1.500000*%
G04 #@! TD*
G04 #@! TA.AperFunction,SMDPad,CuDef*
%ADD25FreePoly1,0.000000*%
G04 #@! TD*
G04 #@! TA.AperFunction,SMDPad,CuDef*
%ADD26RoundRect,0.150000X-0.200000X0.150000X-0.200000X-0.150000X0.200000X-0.150000X0.200000X0.150000X0*%
G04 #@! TD*
G04 #@! TA.AperFunction,SMDPad,CuDef*
%ADD27RoundRect,0.150000X0.150000X0.200000X-0.150000X0.200000X-0.150000X-0.200000X0.150000X-0.200000X0*%
G04 #@! TD*
G04 #@! TA.AperFunction,SMDPad,CuDef*
%ADD28RoundRect,0.150000X-0.150000X-0.200000X0.150000X-0.200000X0.150000X0.200000X-0.150000X0.200000X0*%
G04 #@! TD*
G04 #@! TA.AperFunction,ComponentPad*
%ADD29R,1.700000X1.700000*%
G04 #@! TD*
G04 #@! TA.AperFunction,ComponentPad*
%ADD30O,1.700000X1.700000*%
G04 #@! TD*
G04 #@! TA.AperFunction,SMDPad,CuDef*
%ADD31RoundRect,0.150000X0.587500X0.150000X-0.587500X0.150000X-0.587500X-0.150000X0.587500X-0.150000X0*%
G04 #@! TD*
G04 #@! TA.AperFunction,ComponentPad*
%ADD32R,2.000000X2.000000*%
G04 #@! TD*
G04 #@! TA.AperFunction,ComponentPad*
%ADD33C,2.000000*%
G04 #@! TD*
G04 #@! TA.AperFunction,SMDPad,CuDef*
%ADD34RoundRect,0.250000X-0.375000X-0.625000X0.375000X-0.625000X0.375000X0.625000X-0.375000X0.625000X0*%
G04 #@! TD*
G04 #@! TA.AperFunction,SMDPad,CuDef*
%ADD35RoundRect,0.250000X-0.400000X-0.600000X0.400000X-0.600000X0.400000X0.600000X-0.400000X0.600000X0*%
G04 #@! TD*
G04 #@! TA.AperFunction,ViaPad*
%ADD36C,0.650000*%
G04 #@! TD*
G04 #@! TA.AperFunction,Conductor*
%ADD37C,0.150000*%
G04 #@! TD*
G04 APERTURE END LIST*
D10*
G04 #@! TA.AperFunction,EtchedComponent*
G04 #@! TO.C,JP1*
G36*
X135744000Y-110536000D02*
G01*
X135244000Y-110536000D01*
X135244000Y-109936000D01*
X135744000Y-109936000D01*
X135744000Y-110536000D01*
G37*
G04 #@! TD.AperFunction*
G04 #@! TD*
D11*
G04 #@! TO.P,C12,1*
G04 #@! TO.N,VDD*
X128270000Y-111252000D03*
D12*
G04 #@! TO.P,C12,2*
G04 #@! TO.N,GND*
X130770000Y-111252000D03*
G04 #@! TD*
D13*
G04 #@! TO.P,H2,1,1*
G04 #@! TO.N,GND*
X114300000Y-123825000D03*
G04 #@! TD*
G04 #@! TO.P,H3,1,1*
G04 #@! TO.N,GND*
X158750000Y-96520000D03*
G04 #@! TD*
G04 #@! TO.P,H4,1,1*
G04 #@! TO.N,GND*
X114300000Y-96520000D03*
G04 #@! TD*
D14*
G04 #@! TO.P,C13,1*
G04 #@! TO.N,VDD*
X125743000Y-114300000D03*
G04 #@! TO.P,C13,2*
G04 #@! TO.N,GND*
X124193000Y-114300000D03*
G04 #@! TD*
G04 #@! TO.P,C2,1*
G04 #@! TO.N,VDD*
X151270000Y-113030000D03*
G04 #@! TO.P,C2,2*
G04 #@! TO.N,Net-(J2-Pin_3)*
X149720000Y-113030000D03*
G04 #@! TD*
D15*
G04 #@! TO.P,C3,1*
G04 #@! TO.N,GND*
X138290000Y-106680000D03*
G04 #@! TO.P,C3,2*
G04 #@! TO.N,Net-(C3-Pad2)*
X139840000Y-106680000D03*
G04 #@! TD*
D16*
G04 #@! TO.P,R5,1*
G04 #@! TO.N,VDD*
X151320000Y-107315000D03*
G04 #@! TO.P,R5,2*
G04 #@! TO.N,Net-(J3-Pin_3)*
X149670000Y-107315000D03*
G04 #@! TD*
D17*
G04 #@! TO.P,R8,1*
G04 #@! TO.N,VDD*
X159385000Y-104965000D03*
G04 #@! TO.P,R8,2*
G04 #@! TO.N,Net-(U6A-RxCx)*
X159385000Y-103315000D03*
G04 #@! TD*
D16*
G04 #@! TO.P,R10,1*
G04 #@! TO.N,Net-(U6A-~{Q})*
X151320000Y-109855000D03*
G04 #@! TO.P,R10,2*
G04 #@! TO.N,Net-(C9-Pad1)*
X149670000Y-109855000D03*
G04 #@! TD*
D18*
G04 #@! TO.P,U1,1*
G04 #@! TO.N,Net-(C1-Pad1)*
X124525000Y-117475000D03*
G04 #@! TO.P,U1,2*
G04 #@! TO.N,Net-(D4-K)*
X124525000Y-118745000D03*
G04 #@! TO.P,U1,3*
G04 #@! TO.N,Net-(R1-Pad1)*
X124525000Y-120015000D03*
G04 #@! TO.P,U1,4*
G04 #@! TO.N,Net-(U1-Pad13)*
X124525000Y-121285000D03*
G04 #@! TO.P,U1,5*
G04 #@! TO.N,Net-(R1-Pad1)*
X124525000Y-122555000D03*
G04 #@! TO.P,U1,6*
X124525000Y-123825000D03*
G04 #@! TO.P,U1,7,GND*
G04 #@! TO.N,GND*
X124525000Y-125095000D03*
G04 #@! TO.P,U1,8*
G04 #@! TO.N,Net-(R1-Pad1)*
X129475000Y-125095000D03*
G04 #@! TO.P,U1,9*
G04 #@! TO.N,Net-(U2A-Q)*
X129475000Y-123825000D03*
G04 #@! TO.P,U1,10*
G04 #@! TO.N,Net-(U1-Pad10)*
X129475000Y-122555000D03*
G04 #@! TO.P,U1,11*
G04 #@! TO.N,Net-(U1-Pad11)*
X129475000Y-121285000D03*
G04 #@! TO.P,U1,12*
G04 #@! TO.N,Net-(U2A-~{Q})*
X129475000Y-120015000D03*
G04 #@! TO.P,U1,13*
G04 #@! TO.N,Net-(U1-Pad13)*
X129475000Y-118745000D03*
G04 #@! TO.P,U1,14,VCC*
G04 #@! TO.N,VDD*
X129475000Y-117475000D03*
G04 #@! TD*
G04 #@! TO.P,U6,1,Cx*
G04 #@! TO.N,GND*
X153735000Y-110490000D03*
G04 #@! TO.P,U6,2,RxCx*
G04 #@! TO.N,Net-(U6A-RxCx)*
X153735000Y-111760000D03*
G04 #@! TO.P,U6,3,R*
G04 #@! TO.N,VDD*
X153735000Y-113030000D03*
G04 #@! TO.P,U6,4,Clk+*
G04 #@! TO.N,Net-(J3-Pin_3)*
X153735000Y-114300000D03*
G04 #@! TO.P,U6,5,Clk-*
G04 #@! TO.N,VDD*
X153735000Y-115570000D03*
G04 #@! TO.P,U6,6,Q*
G04 #@! TO.N,unconnected-(U6A-Q-Pad6)*
X153735000Y-116840000D03*
G04 #@! TO.P,U6,7,~{Q}*
G04 #@! TO.N,Net-(U6A-~{Q})*
X153735000Y-118110000D03*
G04 #@! TO.P,U6,8,VSS*
G04 #@! TO.N,GND*
X153735000Y-119380000D03*
G04 #@! TO.P,U6,9,~{Q}*
G04 #@! TO.N,unconnected-(U6B-~{Q}-Pad9)*
X158685000Y-119380000D03*
G04 #@! TO.P,U6,10,Q*
G04 #@! TO.N,Net-(U6B-Q)*
X158685000Y-118110000D03*
G04 #@! TO.P,U6,11,Clk-*
G04 #@! TO.N,Net-(U2A-C)*
X158685000Y-116840000D03*
G04 #@! TO.P,U6,12,Clk+*
G04 #@! TO.N,GND*
X158685000Y-115570000D03*
G04 #@! TO.P,U6,13,R*
G04 #@! TO.N,VDD*
X158685000Y-114300000D03*
G04 #@! TO.P,U6,14,RxCx*
G04 #@! TO.N,Net-(U6B-RxCx)*
X158685000Y-113030000D03*
G04 #@! TO.P,U6,15,Cx*
G04 #@! TO.N,GND*
X158685000Y-111760000D03*
G04 #@! TO.P,U6,16,VDD*
G04 #@! TO.N,VDD*
X158685000Y-110490000D03*
G04 #@! TD*
D17*
G04 #@! TO.P,R7,1*
G04 #@! TO.N,Net-(D1-K)*
X114744500Y-111124500D03*
G04 #@! TO.P,R7,2*
G04 #@! TO.N,Net-(F1-Pad1)*
X114744500Y-109474500D03*
G04 #@! TD*
D18*
G04 #@! TO.P,U3,1*
G04 #@! TO.N,Net-(U1-Pad10)*
X142305000Y-107315000D03*
G04 #@! TO.P,U3,2*
G04 #@! TO.N,Net-(U1-Pad11)*
X142305000Y-108585000D03*
G04 #@! TO.P,U3,3*
G04 #@! TO.N,Net-(J2-Pin_4)*
X142305000Y-109855000D03*
G04 #@! TO.P,U3,4*
G04 #@! TO.N,Net-(J4-Pin_3)*
X142305000Y-111125000D03*
G04 #@! TO.P,U3,5*
G04 #@! TO.N,Net-(U3-Pad5)*
X142305000Y-112395000D03*
G04 #@! TO.P,U3,6*
G04 #@! TO.N,Net-(D2-K)*
X142305000Y-113665000D03*
G04 #@! TO.P,U3,7,GND*
G04 #@! TO.N,GND*
X142305000Y-114935000D03*
G04 #@! TO.P,U3,8*
G04 #@! TO.N,Net-(J2-Pin_3)*
X147255000Y-114935000D03*
G04 #@! TO.P,U3,9*
G04 #@! TO.N,VDD*
X147255000Y-113665000D03*
G04 #@! TO.P,U3,10*
G04 #@! TO.N,Net-(U2A-C)*
X147255000Y-112395000D03*
G04 #@! TO.P,U3,11*
G04 #@! TO.N,Net-(U2B-R)*
X147255000Y-111125000D03*
G04 #@! TO.P,U3,12*
G04 #@! TO.N,Net-(C9-Pad1)*
X147255000Y-109855000D03*
G04 #@! TO.P,U3,13*
G04 #@! TO.N,VDD*
X147255000Y-108585000D03*
G04 #@! TO.P,U3,14,VCC*
X147255000Y-107315000D03*
G04 #@! TD*
D19*
G04 #@! TO.P,R6,1*
G04 #@! TO.N,VDD*
X152845000Y-121285000D03*
G04 #@! TO.P,R6,2*
G04 #@! TO.N,Net-(U6B-RxCx)*
X154495000Y-121285000D03*
G04 #@! TD*
D15*
G04 #@! TO.P,C9,1*
G04 #@! TO.N,Net-(C9-Pad1)*
X156070000Y-107315000D03*
G04 #@! TO.P,C9,2*
G04 #@! TO.N,GND*
X157620000Y-107315000D03*
G04 #@! TD*
D19*
G04 #@! TO.P,R9,1*
G04 #@! TO.N,VDD*
X152845000Y-107315000D03*
G04 #@! TO.P,R9,2*
G04 #@! TO.N,Net-(C9-Pad1)*
X154495000Y-107315000D03*
G04 #@! TD*
D20*
G04 #@! TO.P,C5,1*
G04 #@! TO.N,Net-(U6A-RxCx)*
X157480000Y-101740000D03*
G04 #@! TO.P,C5,2*
G04 #@! TO.N,GND*
X157480000Y-100190000D03*
G04 #@! TD*
G04 #@! TO.P,C6,1*
G04 #@! TO.N,Net-(U6A-RxCx)*
X159385000Y-101740000D03*
G04 #@! TO.P,C6,2*
G04 #@! TO.N,GND*
X159385000Y-100190000D03*
G04 #@! TD*
D21*
G04 #@! TO.P,R2,1*
G04 #@! TO.N,VDD*
X157480000Y-103315000D03*
G04 #@! TO.P,R2,2*
G04 #@! TO.N,Net-(D2-K)*
X157480000Y-104965000D03*
G04 #@! TD*
D16*
G04 #@! TO.P,R3,1*
G04 #@! TO.N,VDD*
X151320000Y-115570000D03*
G04 #@! TO.P,R3,2*
G04 #@! TO.N,Net-(J2-Pin_3)*
X149670000Y-115570000D03*
G04 #@! TD*
D14*
G04 #@! TO.P,C1,1*
G04 #@! TO.N,Net-(C1-Pad1)*
X120155000Y-123190000D03*
G04 #@! TO.P,C1,2*
G04 #@! TO.N,GND*
X118605000Y-123190000D03*
G04 #@! TD*
D19*
G04 #@! TO.P,R1,1*
G04 #@! TO.N,Net-(R1-Pad1)*
X118555000Y-125095000D03*
G04 #@! TO.P,R1,2*
G04 #@! TO.N,Net-(C1-Pad1)*
X120205000Y-125095000D03*
G04 #@! TD*
D18*
G04 #@! TO.P,U5,1*
G04 #@! TO.N,Net-(D2-K)*
X143575000Y-117475000D03*
G04 #@! TO.P,U5,2*
X143575000Y-118745000D03*
G04 #@! TO.P,U5,3*
G04 #@! TO.N,Net-(D4-A)*
X143575000Y-120015000D03*
G04 #@! TO.P,U5,4*
G04 #@! TO.N,Net-(JP1-B)*
X143575000Y-121285000D03*
G04 #@! TO.P,U5,5*
G04 #@! TO.N,Net-(U2A-C)*
X143575000Y-122555000D03*
G04 #@! TO.P,U5,6*
G04 #@! TO.N,Net-(R11-Pad1)*
X143575000Y-123825000D03*
G04 #@! TO.P,U5,7,GND*
G04 #@! TO.N,GND*
X143575000Y-125095000D03*
G04 #@! TO.P,U5,8*
G04 #@! TO.N,Net-(U2A-Q)*
X148525000Y-125095000D03*
G04 #@! TO.P,U5,9*
G04 #@! TO.N,Net-(U2B-R)*
X148525000Y-123825000D03*
G04 #@! TO.P,U5,10*
G04 #@! TO.N,Net-(R4-Pad2)*
X148525000Y-122555000D03*
G04 #@! TO.P,U5,11*
G04 #@! TO.N,Net-(U3-Pad5)*
X148525000Y-121285000D03*
G04 #@! TO.P,U5,12*
G04 #@! TO.N,Net-(C3-Pad2)*
X148525000Y-120015000D03*
G04 #@! TO.P,U5,13*
X148525000Y-118745000D03*
G04 #@! TO.P,U5,14,VCC*
G04 #@! TO.N,VDD*
X148525000Y-117475000D03*
G04 #@! TD*
G04 #@! TO.P,U2,1,Q*
G04 #@! TO.N,Net-(U2A-Q)*
X134050000Y-116205000D03*
G04 #@! TO.P,U2,2,~{Q}*
G04 #@! TO.N,Net-(U2A-~{Q})*
X134050000Y-117475000D03*
G04 #@! TO.P,U2,3,C*
G04 #@! TO.N,Net-(U2A-C)*
X134050000Y-118745000D03*
G04 #@! TO.P,U2,4,R*
G04 #@! TO.N,GND*
X134050000Y-120015000D03*
G04 #@! TO.P,U2,5,K*
G04 #@! TO.N,VDD*
X134050000Y-121285000D03*
G04 #@! TO.P,U2,6,J*
X134050000Y-122555000D03*
G04 #@! TO.P,U2,7,S*
G04 #@! TO.N,GND*
X134050000Y-123825000D03*
G04 #@! TO.P,U2,8,VSS*
X134050000Y-125095000D03*
G04 #@! TO.P,U2,9,S*
X139000000Y-125095000D03*
G04 #@! TO.P,U2,10,J*
G04 #@! TO.N,VDD*
X139000000Y-123825000D03*
G04 #@! TO.P,U2,11,K*
X139000000Y-122555000D03*
G04 #@! TO.P,U2,12,R*
G04 #@! TO.N,Net-(U2B-R)*
X139000000Y-121285000D03*
G04 #@! TO.P,U2,13,C*
G04 #@! TO.N,Net-(JP1-B)*
X139000000Y-120015000D03*
G04 #@! TO.P,U2,14,~{Q}*
G04 #@! TO.N,Net-(JP1-A)*
X139000000Y-118745000D03*
G04 #@! TO.P,U2,15,Q*
G04 #@! TO.N,Net-(D5-A)*
X139000000Y-117475000D03*
G04 #@! TO.P,U2,16,VDD*
G04 #@! TO.N,VDD*
X139000000Y-116205000D03*
G04 #@! TD*
D14*
G04 #@! TO.P,C4,1*
G04 #@! TO.N,GND*
X153810000Y-123190000D03*
G04 #@! TO.P,C4,2*
G04 #@! TO.N,VDD*
X152260000Y-123190000D03*
G04 #@! TD*
D13*
G04 #@! TO.P,H1,1,1*
G04 #@! TO.N,GND*
X158750000Y-123825000D03*
G04 #@! TD*
D22*
G04 #@! TO.P,C8,1*
G04 #@! TO.N,Net-(U6B-RxCx)*
X155575000Y-123050000D03*
G04 #@! TO.P,C8,2*
G04 #@! TO.N,GND*
X155575000Y-124600000D03*
G04 #@! TD*
D21*
G04 #@! TO.P,R4,1*
G04 #@! TO.N,Net-(C3-Pad2)*
X151130000Y-119000000D03*
G04 #@! TO.P,R4,2*
G04 #@! TO.N,Net-(R4-Pad2)*
X151130000Y-120650000D03*
G04 #@! TD*
D19*
G04 #@! TO.P,R11,1*
G04 #@! TO.N,Net-(R11-Pad1)*
X152400000Y-125095000D03*
G04 #@! TO.P,R11,2*
G04 #@! TO.N,Net-(U6B-Q)*
X154050000Y-125095000D03*
G04 #@! TD*
D23*
G04 #@! TO.P,JP1,1,A*
G04 #@! TO.N,Net-(JP1-A)*
X134844000Y-110236000D03*
D24*
G04 #@! TO.P,JP1,2,C*
G04 #@! TO.N,Net-(D3-K)*
X136144000Y-110236000D03*
D25*
G04 #@! TO.P,JP1,3,B*
G04 #@! TO.N,Net-(JP1-B)*
X137444000Y-110236000D03*
G04 #@! TD*
D14*
G04 #@! TO.P,C15,1*
G04 #@! TO.N,VDD*
X135395000Y-114300000D03*
G04 #@! TO.P,C15,2*
G04 #@! TO.N,GND*
X133845000Y-114300000D03*
G04 #@! TD*
D26*
G04 #@! TO.P,D3,1,K*
G04 #@! TO.N,Net-(D3-K)*
X125730000Y-108192800D03*
G04 #@! TO.P,D3,2,A*
G04 #@! TO.N,Net-(D2-A)*
X125730000Y-106792800D03*
G04 #@! TD*
D27*
G04 #@! TO.P,D4,1,K*
G04 #@! TO.N,Net-(D4-K)*
X130048000Y-115824000D03*
G04 #@! TO.P,D4,2,A*
G04 #@! TO.N,Net-(D4-A)*
X131448000Y-115824000D03*
G04 #@! TD*
D16*
G04 #@! TO.P,R12,1*
G04 #@! TO.N,Net-(D4-K)*
X125793000Y-115824000D03*
G04 #@! TO.P,R12,2*
G04 #@! TO.N,GND*
X124143000Y-115824000D03*
G04 #@! TD*
D28*
G04 #@! TO.P,D2,1,K*
G04 #@! TO.N,Net-(D2-K)*
X129579600Y-106883200D03*
G04 #@! TO.P,D2,2,A*
G04 #@! TO.N,Net-(D2-A)*
X128179600Y-106883200D03*
G04 #@! TD*
D14*
G04 #@! TO.P,C14,1*
G04 #@! TO.N,VDD*
X135636000Y-112776000D03*
G04 #@! TO.P,C14,2*
G04 #@! TO.N,GND*
X134086000Y-112776000D03*
G04 #@! TD*
D27*
G04 #@! TO.P,D5,1,K*
G04 #@! TO.N,Net-(D4-K)*
X127316000Y-115824000D03*
G04 #@! TO.P,D5,2,A*
G04 #@! TO.N,Net-(D5-A)*
X128716000Y-115824000D03*
G04 #@! TD*
D29*
G04 #@! TO.P,J2,1,Pin_1*
G04 #@! TO.N,GND*
X136779000Y-103822500D03*
D30*
G04 #@! TO.P,J2,2,Pin_2*
G04 #@! TO.N,Net-(D2-K)*
X134239000Y-103822500D03*
G04 #@! TO.P,J2,3,Pin_3*
G04 #@! TO.N,Net-(J2-Pin_3)*
X131699000Y-103822500D03*
G04 #@! TO.P,J2,4,Pin_4*
G04 #@! TO.N,Net-(J2-Pin_4)*
X129159000Y-103822500D03*
G04 #@! TD*
D29*
G04 #@! TO.P,J3,1,Pin_1*
G04 #@! TO.N,VDD*
X145542000Y-103822500D03*
D30*
G04 #@! TO.P,J3,2,Pin_2*
G04 #@! TO.N,GND*
X143002000Y-103822500D03*
G04 #@! TO.P,J3,3,Pin_3*
G04 #@! TO.N,Net-(J3-Pin_3)*
X140462000Y-103822500D03*
G04 #@! TD*
D29*
G04 #@! TO.P,J4,1,Pin_1*
G04 #@! TO.N,GND*
X117792500Y-103822500D03*
D30*
G04 #@! TO.P,J4,2,Pin_2*
G04 #@! TO.N,Net-(J4-Pin_2)*
X120332500Y-103822500D03*
G04 #@! TO.P,J4,3,Pin_3*
G04 #@! TO.N,Net-(J4-Pin_3)*
X122872500Y-103822500D03*
G04 #@! TO.P,J4,4,Pin_4*
G04 #@! TO.N,Net-(D2-A)*
X125412500Y-103822500D03*
G04 #@! TD*
D29*
G04 #@! TO.P,J5,1,Pin_1*
G04 #@! TO.N,Net-(D2-K)*
X149288500Y-103822500D03*
D30*
G04 #@! TO.P,J5,2,Pin_2*
G04 #@! TO.N,GND*
X151828500Y-103822500D03*
G04 #@! TO.P,J5,3,Pin_3*
G04 #@! TO.N,Net-(J4-Pin_2)*
X154368500Y-103822500D03*
G04 #@! TD*
D31*
G04 #@! TO.P,U7,1,GND*
G04 #@! TO.N,GND*
X123810000Y-108963500D03*
G04 #@! TO.P,U7,2,VO*
G04 #@! TO.N,VDD*
X123810000Y-107063500D03*
G04 #@! TO.P,U7,3,VI*
G04 #@! TO.N,Net-(D1-K)*
X121935000Y-108013500D03*
G04 #@! TD*
D32*
G04 #@! TO.P,C10,1*
G04 #@! TO.N,Net-(D1-K)*
X117348000Y-114300000D03*
D33*
G04 #@! TO.P,C10,2*
G04 #@! TO.N,GND*
X117348000Y-119300000D03*
G04 #@! TD*
D34*
G04 #@! TO.P,F1,1*
G04 #@! TO.N,Net-(F1-Pad1)*
X116900500Y-106934000D03*
G04 #@! TO.P,F1,2*
G04 #@! TO.N,Net-(J4-Pin_2)*
X119700500Y-106934000D03*
G04 #@! TD*
D15*
G04 #@! TO.P,C11,1*
G04 #@! TO.N,Net-(D1-K)*
X121653000Y-112068000D03*
G04 #@! TO.P,C11,2*
G04 #@! TO.N,GND*
X123203000Y-112068000D03*
G04 #@! TD*
D35*
G04 #@! TO.P,D1,1,K*
G04 #@! TO.N,Net-(D1-K)*
X116512400Y-110299500D03*
G04 #@! TO.P,D1,2,A*
G04 #@! TO.N,VDD*
X120012400Y-110299500D03*
G04 #@! TD*
D36*
G04 #@! TO.N,VDD*
X115500000Y-112000000D03*
X117500000Y-111500000D03*
G04 #@! TO.N,Net-(J4-Pin_2)*
X121000000Y-100500000D03*
G04 #@! TO.N,VDD*
X127500000Y-108500000D03*
G04 #@! TO.N,GND*
X160020000Y-116205000D03*
X125679200Y-111353600D03*
X124612400Y-112420400D03*
X122326400Y-110439200D03*
X122885200Y-109677200D03*
X124612400Y-111353600D03*
X125679200Y-112420400D03*
X146050000Y-125051800D03*
X153810000Y-122234600D03*
X124968000Y-110439200D03*
X145796000Y-120396000D03*
X132588000Y-119380000D03*
X156210000Y-99060000D03*
X122000000Y-116000000D03*
X122123200Y-113690400D03*
X153735000Y-109220000D03*
X132080000Y-125095000D03*
X123596400Y-110439200D03*
X127000000Y-125095000D03*
X132080000Y-123825000D03*
X142305000Y-116205000D03*
X156845000Y-106045000D03*
X136525000Y-121285000D03*
X156210500Y-125454300D03*
X121500000Y-115000000D03*
G04 #@! TO.N,Net-(U1-Pad10)*
X140732300Y-109004300D03*
X132080000Y-122428000D03*
G04 #@! TO.N,Net-(D2-K)*
X133553200Y-106934000D03*
X144283400Y-116015900D03*
X153670000Y-106222800D03*
G04 #@! TO.N,Net-(D4-A)*
X132080000Y-121412000D03*
X131064000Y-116840000D03*
G04 #@! TO.N,Net-(U1-Pad11)*
X139192000Y-113792000D03*
X139192000Y-111687900D03*
G04 #@! TO.N,VDD*
X136525000Y-122555000D03*
X150495000Y-117475000D03*
X144830800Y-101396800D03*
X131241300Y-120802400D03*
X127635000Y-117475000D03*
G04 #@! TO.N,Net-(U2A-C)*
X156750500Y-116316300D03*
X141744400Y-120289100D03*
X149000000Y-114257300D03*
G04 #@! TO.N,Net-(U2B-R)*
X141361300Y-121369990D03*
X140666264Y-122886264D03*
X145608100Y-110630600D03*
X141732000Y-124460000D03*
G04 #@! TD*
D37*
G04 #@! TO.N,Net-(D1-K)*
X121914500Y-108034000D02*
X119500000Y-108034000D01*
X117234500Y-110299500D02*
X116512400Y-110299500D01*
X119500000Y-108034000D02*
X117234500Y-110299500D01*
G04 #@! TO.N,VDD*
X114538418Y-112000000D02*
X114000000Y-111461582D01*
X115500000Y-107500000D02*
X115500000Y-101500000D01*
X114000000Y-111461582D02*
X114000000Y-109000000D01*
X118811900Y-111500000D02*
X117500000Y-111500000D01*
X120012400Y-110299500D02*
X118811900Y-111500000D01*
X114000000Y-109000000D02*
X115500000Y-107500000D01*
X115500000Y-101500000D02*
X119530280Y-101500000D01*
X115500000Y-112000000D02*
X114538418Y-112000000D01*
X119530280Y-101500000D02*
X121797499Y-103767219D01*
X121797499Y-103767219D02*
X121797499Y-104988499D01*
G04 #@! TO.N,Net-(J4-Pin_2)*
X121000000Y-100500000D02*
X121068400Y-100431600D01*
X121068400Y-100431600D02*
X153974800Y-100431600D01*
X153974800Y-100431600D02*
X154368500Y-100825300D01*
X154368500Y-100825300D02*
X154368500Y-103822500D01*
G04 #@! TO.N,VDD*
X124109999Y-107363499D02*
X123810000Y-107063500D01*
X127500000Y-108500000D02*
X126363499Y-107363499D01*
X126363499Y-107363499D02*
X124109999Y-107363499D01*
G04 #@! TO.N,GND*
X158685000Y-116140000D02*
X158750000Y-116205000D01*
X145796000Y-120396000D02*
X145796000Y-120396000D01*
X138290000Y-106680000D02*
X138290000Y-105333500D01*
X135890000Y-120650000D02*
X136525000Y-121285000D01*
X153735000Y-110490000D02*
X153735000Y-109709800D01*
X132294000Y-112776000D02*
X130770000Y-111252000D01*
X134050000Y-120015000D02*
X133415000Y-119380000D01*
X145027300Y-125051800D02*
X143618200Y-125051800D01*
X157480000Y-106045000D02*
X156845000Y-106045000D01*
X153735000Y-109709800D02*
X153735000Y-109220000D01*
X159945600Y-112367000D02*
X159338600Y-111760000D01*
X124193000Y-114059000D02*
X124193000Y-114300000D01*
X132294000Y-112776000D02*
X134086000Y-112776000D01*
X124143000Y-114350000D02*
X124193000Y-114300000D01*
X158750000Y-116205000D02*
X160020000Y-116205000D01*
X134086000Y-112776000D02*
X134086000Y-114059000D01*
X157620000Y-107315000D02*
X157620000Y-106185000D01*
X118605000Y-120557000D02*
X117348000Y-119300000D01*
X138290000Y-106345300D02*
X138290000Y-106680000D01*
X158685000Y-115570000D02*
X158685000Y-116140000D01*
X138290000Y-105333500D02*
X136779000Y-103822500D01*
X160217210Y-116007790D02*
X160020000Y-116205000D01*
X133970900Y-123904100D02*
X132159100Y-123904100D01*
X159945600Y-113559622D02*
X160217210Y-113831232D01*
X145027300Y-125051800D02*
X146050000Y-125051800D01*
X158685000Y-115570000D02*
X158692600Y-115577600D01*
X157620000Y-106185000D02*
X157480000Y-106045000D01*
X142305000Y-116205000D02*
X142305000Y-118980346D01*
X124143000Y-115824000D02*
X124143000Y-114350000D01*
X153810000Y-122234600D02*
X153735000Y-122159600D01*
X132159100Y-123904100D02*
X132080000Y-123825000D01*
X139000000Y-125095000D02*
X143575000Y-125095000D01*
X142305000Y-114935000D02*
X142305000Y-116205000D01*
X134685000Y-120650000D02*
X134050000Y-120015000D01*
X134086700Y-120051700D02*
X134050000Y-120015000D01*
X135890000Y-120650000D02*
X134685000Y-120650000D01*
X159945600Y-112367000D02*
X159945600Y-113559622D01*
X157340000Y-100190000D02*
X157480000Y-100190000D01*
X159385000Y-100190000D02*
X157480000Y-100190000D01*
X156210000Y-99060000D02*
X157340000Y-100190000D01*
X133415000Y-119380000D02*
X132588000Y-119380000D01*
X134050000Y-123825000D02*
X133970900Y-123904100D01*
X153810000Y-123190000D02*
X153810000Y-122234600D01*
X143618200Y-125051800D02*
X143575000Y-125095000D01*
X142305000Y-118980346D02*
X142814644Y-119489990D01*
X153735000Y-122159600D02*
X153735000Y-119380000D01*
X142814644Y-119489990D02*
X144889990Y-119489990D01*
X132080000Y-125095000D02*
X134050000Y-125095000D01*
X144889990Y-119489990D02*
X145796000Y-120396000D01*
X156210500Y-125454300D02*
X155575000Y-124818800D01*
X134086000Y-114059000D02*
X133845000Y-114300000D01*
X160217210Y-113831232D02*
X160217210Y-116007790D01*
X159338600Y-111760000D02*
X158685000Y-111760000D01*
X124525000Y-125095000D02*
X127000000Y-125095000D01*
X118605000Y-123190000D02*
X118605000Y-120557000D01*
X155575000Y-124818800D02*
X155575000Y-124600000D01*
G04 #@! TO.N,Net-(C1-Pad1)*
X124525000Y-117475000D02*
X124273900Y-117475000D01*
X122936000Y-120082900D02*
X120155000Y-122863900D01*
X120155000Y-122863900D02*
X120155000Y-123190000D01*
X122936000Y-118364000D02*
X122936000Y-120082900D01*
X120155000Y-123190000D02*
X120155000Y-125045000D01*
X123825000Y-117475000D02*
X124525000Y-117475000D01*
X120155000Y-125045000D02*
X120205000Y-125095000D01*
X122936000Y-118364000D02*
X123825000Y-117475000D01*
G04 #@! TO.N,Net-(U1-Pad10)*
X142017600Y-107315000D02*
X140732300Y-108600300D01*
X140732300Y-108600300D02*
X140732300Y-109004300D01*
X142305000Y-107315000D02*
X142017600Y-107315000D01*
X130288700Y-122555000D02*
X129475000Y-122555000D01*
X132080000Y-122428000D02*
X129602000Y-122428000D01*
X129602000Y-122428000D02*
X129475000Y-122555000D01*
G04 #@! TO.N,Net-(J2-Pin_3)*
X149035000Y-114935000D02*
X149670000Y-115570000D01*
X149451600Y-113030000D02*
X149720000Y-113030000D01*
X144757500Y-107788400D02*
X142947800Y-105978700D01*
X144757500Y-110757500D02*
X144757500Y-107788400D01*
X147255000Y-114935000D02*
X149035000Y-114935000D01*
X149720000Y-113220000D02*
X149670000Y-113270000D01*
X142947800Y-105978700D02*
X141040202Y-105978700D01*
X145668300Y-111668300D02*
X144757500Y-110757500D01*
X132774001Y-102747499D02*
X131699000Y-103822500D01*
X141040202Y-105978700D02*
X137809001Y-102747499D01*
X149670000Y-113270000D02*
X149670000Y-115570000D01*
X148089900Y-111668300D02*
X145668300Y-111668300D01*
X149720000Y-113030000D02*
X149720000Y-113220000D01*
X137809001Y-102747499D02*
X132774001Y-102747499D01*
X149451600Y-113030000D02*
X148089900Y-111668300D01*
G04 #@! TO.N,Net-(U6A-RxCx)*
X159385000Y-103315000D02*
X159385000Y-101740000D01*
X158432500Y-104267500D02*
X159385000Y-103315000D01*
X154298300Y-111760000D02*
X158432500Y-107625800D01*
X158432500Y-107625800D02*
X158432500Y-104267500D01*
X153735000Y-111760000D02*
X154298300Y-111760000D01*
X157480000Y-101740000D02*
X159385000Y-101740000D01*
G04 #@! TO.N,Net-(U6B-RxCx)*
X155890000Y-119890000D02*
X155890000Y-116110000D01*
X154495000Y-121285000D02*
X155890000Y-119890000D01*
X157013900Y-114986100D02*
X159523300Y-114986100D01*
X158991700Y-113030000D02*
X158685000Y-113030000D01*
X159917200Y-114592200D02*
X159917200Y-113955500D01*
X154495000Y-121285000D02*
X155575000Y-122365000D01*
X159523300Y-114986100D02*
X159917200Y-114592200D01*
X159917200Y-113955500D02*
X158991700Y-113030000D01*
X155890000Y-116110000D02*
X157013900Y-114986100D01*
X155575000Y-122365000D02*
X155575000Y-123050000D01*
G04 #@! TO.N,Net-(D1-K)*
X114744500Y-111124500D02*
X115687400Y-111124500D01*
X116512400Y-113464400D02*
X117348000Y-114300000D01*
X115687400Y-111124500D02*
X116512400Y-110299500D01*
X117348000Y-114300000D02*
X119421000Y-114300000D01*
X119421000Y-114300000D02*
X121653000Y-112068000D01*
X116512400Y-110299500D02*
X116512400Y-113464400D01*
G04 #@! TO.N,Net-(D2-A)*
X125820400Y-106883200D02*
X125730000Y-106792800D01*
X125730000Y-106792800D02*
X125730000Y-104140000D01*
X128179600Y-106883200D02*
X125820400Y-106883200D01*
X125730000Y-104140000D02*
X125412500Y-103822500D01*
G04 #@! TO.N,Net-(C3-Pad2)*
X148280800Y-118745000D02*
X145584500Y-116048700D01*
X151130000Y-119000000D02*
X148780000Y-119000000D01*
X148780000Y-119000000D02*
X148525000Y-118745000D01*
X148525000Y-120015000D02*
X148800600Y-120015000D01*
X148525000Y-120015000D02*
X148525000Y-118745000D01*
X144238000Y-112866700D02*
X144238000Y-107693800D01*
X145584500Y-114213200D02*
X144238000Y-112866700D01*
X148525000Y-118745000D02*
X148280800Y-118745000D01*
X144238000Y-107693800D02*
X143224200Y-106680000D01*
X145584500Y-116048700D02*
X145584500Y-114213200D01*
X143224200Y-106680000D02*
X139840000Y-106680000D01*
G04 #@! TO.N,Net-(D2-K)*
X143524500Y-114648500D02*
X143524500Y-115257000D01*
X143575000Y-118745000D02*
X143823900Y-118745000D01*
X149288500Y-103822500D02*
X147913489Y-102447489D01*
X151688800Y-106222800D02*
X149288500Y-103822500D01*
X144283400Y-116766600D02*
X144283400Y-116015900D01*
X130623999Y-104338501D02*
X131182999Y-104897501D01*
X143524500Y-114648500D02*
X142541000Y-113665000D01*
X133163999Y-104897501D02*
X134239000Y-103822500D01*
X129579600Y-106883200D02*
X133502400Y-106883200D01*
X153670000Y-106222800D02*
X155194000Y-106222800D01*
X147913489Y-102447489D02*
X131483009Y-102447489D01*
X143575000Y-117475000D02*
X144283400Y-116766600D01*
X143524500Y-115257000D02*
X144283400Y-116015900D01*
X131483009Y-102447489D02*
X130623999Y-103306499D01*
X142541000Y-113665000D02*
X142305000Y-113665000D01*
X133502400Y-106883200D02*
X133553200Y-106934000D01*
X143575000Y-118745000D02*
X143575000Y-117475000D01*
X153670000Y-106222800D02*
X151688800Y-106222800D01*
X156451800Y-104965000D02*
X157480000Y-104965000D01*
X131182999Y-104897501D02*
X133163999Y-104897501D01*
X130623999Y-103306499D02*
X130623999Y-104338501D01*
X155194000Y-106222800D02*
X156451800Y-104965000D01*
G04 #@! TO.N,Net-(D3-K)*
X136144000Y-109336000D02*
X135312010Y-108504010D01*
X126441200Y-109474000D02*
X129370020Y-109474000D01*
X135312010Y-108504010D02*
X130340010Y-108504010D01*
X136144000Y-110236000D02*
X136144000Y-109336000D01*
X125730000Y-108762800D02*
X126441200Y-109474000D01*
X129370020Y-109474000D02*
X130340010Y-108504010D01*
X125730000Y-108192800D02*
X125730000Y-108762800D01*
G04 #@! TO.N,Net-(C9-Pad1)*
X149670000Y-109855000D02*
X150987500Y-108537500D01*
X154495000Y-107315000D02*
X156070000Y-107315000D01*
X150987500Y-108537500D02*
X153272500Y-108537500D01*
X147255000Y-109855000D02*
X149670000Y-109855000D01*
X153272500Y-108537500D02*
X154495000Y-107315000D01*
G04 #@! TO.N,Net-(D4-K)*
X129472999Y-115248999D02*
X127891001Y-115248999D01*
X125793000Y-118452000D02*
X125500000Y-118745000D01*
X125793000Y-115824000D02*
X125793000Y-118452000D01*
X125793000Y-115824000D02*
X127316000Y-115824000D01*
X130048000Y-115824000D02*
X129472999Y-115248999D01*
X125500000Y-118745000D02*
X124525000Y-118745000D01*
X127891001Y-115248999D02*
X127316000Y-115824000D01*
G04 #@! TO.N,Net-(R1-Pad1)*
X123310100Y-121605400D02*
X124259700Y-122555000D01*
X123310100Y-120991900D02*
X123310100Y-121605400D01*
X124259700Y-123825000D02*
X124525000Y-123825000D01*
X124525000Y-120015000D02*
X124287000Y-120015000D01*
X119284900Y-125824900D02*
X118555000Y-125095000D01*
X124259700Y-123825000D02*
X124259700Y-122555000D01*
X125051000Y-124351000D02*
X128731000Y-124351000D01*
X128731000Y-124351000D02*
X129475000Y-125095000D01*
X124525000Y-123825000D02*
X125051000Y-124351000D01*
X122259800Y-125824900D02*
X119284900Y-125824900D01*
X124287000Y-120015000D02*
X123310100Y-120991900D01*
X122259800Y-125824900D02*
X124259700Y-123825000D01*
X124259700Y-122555000D02*
X124525000Y-122555000D01*
G04 #@! TO.N,Net-(R4-Pad2)*
X148525000Y-122555000D02*
X149225000Y-122555000D01*
X149225000Y-122555000D02*
X151130000Y-120650000D01*
G04 #@! TO.N,Net-(D4-A)*
X144512910Y-123122436D02*
X144775010Y-122860336D01*
X131064000Y-116208000D02*
X131448000Y-115824000D01*
X132849990Y-122860336D02*
X133069664Y-123080010D01*
X132849990Y-121673990D02*
X132849990Y-122860336D01*
X140022762Y-124350010D02*
X141250336Y-123122436D01*
X144550000Y-120015000D02*
X143575000Y-120015000D01*
X144775010Y-122860336D02*
X144775010Y-120240010D01*
X132588000Y-121412000D02*
X132849990Y-121673990D01*
X143575000Y-120015000D02*
X143339654Y-120015000D01*
X144775010Y-120240010D02*
X144550000Y-120015000D01*
X131064000Y-116840000D02*
X131064000Y-116208000D01*
X135030336Y-123080010D02*
X136300336Y-124350010D01*
X136300336Y-124350010D02*
X140022762Y-124350010D01*
X133069664Y-123080010D02*
X135030336Y-123080010D01*
X141250336Y-123122436D02*
X144512910Y-123122436D01*
X143575000Y-120015000D02*
X143339100Y-120015000D01*
X132080000Y-121412000D02*
X132588000Y-121412000D01*
G04 #@! TO.N,Net-(D5-A)*
X131191622Y-118110000D02*
X127449756Y-118110000D01*
X132821300Y-115678000D02*
X132823290Y-115679990D01*
X138175700Y-117475000D02*
X136378700Y-115678000D01*
X128416000Y-115824000D02*
X128716000Y-115824000D01*
X132823290Y-116478332D02*
X131191622Y-118110000D01*
X127055000Y-117185000D02*
X128416000Y-115824000D01*
X127055000Y-117715244D02*
X127055000Y-117185000D01*
X127449756Y-118110000D02*
X127055000Y-117715244D01*
X136378700Y-115678000D02*
X132821300Y-115678000D01*
X132823290Y-115679990D02*
X132823290Y-116478332D01*
G04 #@! TO.N,Net-(U1-Pad11)*
X130691000Y-120374514D02*
X130691000Y-119963000D01*
X139980336Y-119270010D02*
X138019664Y-119270010D01*
X139192000Y-114467376D02*
X140500019Y-115775395D01*
X140500019Y-115775395D02*
X140500019Y-118750327D01*
X143572500Y-111405200D02*
X143572500Y-108877500D01*
X139192000Y-111687900D02*
X143289800Y-111687900D01*
X138019664Y-119270010D02*
X136960554Y-118210900D01*
X143289800Y-111687900D02*
X143572500Y-111405200D01*
X140500019Y-118750327D02*
X139980336Y-119270010D01*
X136960554Y-118210900D02*
X132443100Y-118210900D01*
X132443100Y-118210900D02*
X130691000Y-119963000D01*
X139192000Y-113792000D02*
X139192000Y-114467376D01*
X143572500Y-108877500D02*
X143280000Y-108585000D01*
X129475000Y-121285000D02*
X129780514Y-121285000D01*
X129780514Y-121285000D02*
X130691000Y-120374514D01*
X143280000Y-108585000D02*
X142305000Y-108585000D01*
G04 #@! TO.N,Net-(J4-Pin_2)*
X119700500Y-106934000D02*
X119700500Y-104454500D01*
X119700500Y-104454500D02*
X120332500Y-103822500D01*
G04 #@! TO.N,Net-(J2-Pin_4)*
X134068869Y-106008189D02*
X131344689Y-106008189D01*
X142305000Y-109855000D02*
X140762756Y-109855000D01*
X138302918Y-107395162D02*
X138302918Y-107388920D01*
X140762756Y-109855000D02*
X138302918Y-107395162D01*
X138302918Y-107388920D02*
X135449600Y-107388920D01*
X135449600Y-107388920D02*
X134068869Y-106008189D01*
X131344689Y-106008189D02*
X129159000Y-103822500D01*
G04 #@! TO.N,Net-(U1-Pad13)*
X124825000Y-121285000D02*
X127365000Y-118745000D01*
X127365000Y-118745000D02*
X129475000Y-118745000D01*
X124525000Y-121285000D02*
X124825000Y-121285000D01*
G04 #@! TO.N,VDD*
X136525000Y-122555000D02*
X139000000Y-122555000D01*
X157480900Y-111427200D02*
X157480900Y-113331246D01*
X154715336Y-118635010D02*
X155240009Y-118110337D01*
X158685000Y-110490000D02*
X158418100Y-110490000D01*
X154957800Y-113947000D02*
X154040800Y-113030000D01*
X152436846Y-118413846D02*
X152533500Y-118413846D01*
X146958200Y-113665000D02*
X147255000Y-113665000D01*
X150533400Y-106528400D02*
X151320000Y-107315000D01*
X139000000Y-123825000D02*
X139000000Y-122555000D01*
X133809010Y-115377990D02*
X133157990Y-115377990D01*
X156779990Y-102614990D02*
X156779990Y-101284010D01*
X152754664Y-118635010D02*
X154715336Y-118635010D01*
X157049300Y-101014700D02*
X159782100Y-101014700D01*
X152400000Y-118377000D02*
X152400000Y-120840000D01*
X125743000Y-113779000D02*
X128270000Y-111252000D01*
X121797499Y-102382901D02*
X122529600Y-101650800D01*
X146047300Y-115235900D02*
X146047300Y-114575900D01*
X152400000Y-116650000D02*
X151320000Y-115570000D01*
X122529600Y-101650800D02*
X133553200Y-101650800D01*
X158449654Y-114300000D02*
X158685000Y-114300000D01*
X129475000Y-117475000D02*
X127635000Y-117475000D01*
X153735000Y-115570000D02*
X153987800Y-115570000D01*
X157480900Y-113331246D02*
X158449654Y-114300000D01*
X158429000Y-114300000D02*
X158685000Y-114300000D01*
X133558600Y-120793600D02*
X131250100Y-120793600D01*
X156779990Y-101284010D02*
X157049300Y-101014700D01*
X158418100Y-110490000D02*
X157480900Y-111427200D01*
X144576800Y-101650800D02*
X144830800Y-101396800D01*
X157480000Y-103315000D02*
X157290000Y-103315000D01*
X157480000Y-103315000D02*
X156779990Y-102614990D01*
X132521290Y-116356054D02*
X132521290Y-115553732D01*
X146047300Y-114575900D02*
X146958200Y-113665000D01*
X155240009Y-116539991D02*
X155590000Y-116190000D01*
X152400000Y-118110000D02*
X152400000Y-118377000D01*
X159385000Y-104965000D02*
X160092900Y-104257100D01*
X131402344Y-117475000D02*
X132521290Y-116356054D01*
X154957800Y-114600000D02*
X154957800Y-113947000D01*
X148525000Y-117475000D02*
X148286400Y-117475000D01*
X125743000Y-114300000D02*
X125743000Y-113779000D01*
X150495000Y-116395000D02*
X151320000Y-115570000D01*
X152400000Y-120840000D02*
X152845000Y-121285000D01*
X123872500Y-107063500D02*
X121797499Y-104988499D01*
X131250100Y-120793600D02*
X131241300Y-120802400D01*
X145542000Y-103822500D02*
X145542000Y-105602000D01*
X137095000Y-114300000D02*
X139000000Y-116205000D01*
X152533500Y-118413846D02*
X152754664Y-118635010D01*
X133542300Y-115377700D02*
X133542010Y-115377990D01*
X152845000Y-121285000D02*
X152845000Y-122605000D01*
X150495000Y-117475000D02*
X150495000Y-116395000D01*
X152400000Y-118377000D02*
X152436846Y-118413846D01*
X134050000Y-122555000D02*
X136525000Y-122555000D01*
X149415000Y-117475000D02*
X148525000Y-117475000D01*
X138172700Y-115377700D02*
X136590300Y-115377700D01*
X135636000Y-114059000D02*
X135395000Y-114300000D01*
X132521290Y-115553732D02*
X132697032Y-115377990D01*
X139000000Y-116205000D02*
X138172700Y-115377700D01*
X159385000Y-104965000D02*
X159385000Y-109790000D01*
X135636000Y-112776000D02*
X135636000Y-114059000D01*
X147998100Y-106528400D02*
X150533400Y-106528400D01*
X147255000Y-108585000D02*
X147255000Y-107315000D01*
X155590000Y-115500000D02*
X156790000Y-114300000D01*
X160092900Y-104257100D02*
X160092900Y-101325500D01*
X133542010Y-115377990D02*
X133157990Y-115377990D01*
X151130000Y-107125000D02*
X151320000Y-107315000D01*
X134050000Y-121285000D02*
X133558600Y-120793600D01*
X154040800Y-113030000D02*
X153735000Y-113030000D01*
X160092900Y-101325500D02*
X159782100Y-101014700D01*
X155590000Y-116190000D02*
X155590000Y-115500000D01*
X135395000Y-114300000D02*
X137095000Y-114300000D01*
X151320000Y-107315000D02*
X152845000Y-107315000D01*
X156790000Y-114300000D02*
X158685000Y-114300000D01*
X152845000Y-122605000D02*
X152260000Y-123190000D01*
X152400000Y-118110000D02*
X152400000Y-116650000D01*
X123263700Y-107063500D02*
X123872500Y-107063500D01*
X153735000Y-113030000D02*
X151270000Y-113030000D01*
X136590300Y-115377700D02*
X133542300Y-115377700D01*
X133553200Y-101650800D02*
X144576800Y-101650800D01*
X155240009Y-118110337D02*
X155240009Y-116539991D01*
X153987800Y-115570000D02*
X154957800Y-114600000D01*
X147998100Y-106571900D02*
X147255000Y-107315000D01*
X150495000Y-117475000D02*
X148525000Y-117475000D01*
X145542000Y-105602000D02*
X147255000Y-107315000D01*
X134050000Y-121285000D02*
X134050000Y-122555000D01*
X132697032Y-115377990D02*
X133157990Y-115377990D01*
X159385000Y-109790000D02*
X158685000Y-110490000D01*
X151320000Y-115570000D02*
X153735000Y-115570000D01*
X148286400Y-117475000D02*
X146047300Y-115235900D01*
X147998100Y-106528400D02*
X147998100Y-106571900D01*
X129475000Y-117475000D02*
X131402344Y-117475000D01*
X121797499Y-104988499D02*
X121797499Y-102382901D01*
G04 #@! TO.N,Net-(U3-Pad5)*
X148525000Y-121285000D02*
X148224800Y-121285000D01*
X148224800Y-121285000D02*
X145178200Y-118238400D01*
X142540900Y-112395000D02*
X142305000Y-112395000D01*
X145178200Y-115032300D02*
X142540900Y-112395000D01*
X145178200Y-118238400D02*
X145178200Y-115032300D01*
G04 #@! TO.N,Net-(J3-Pin_3)*
X146045400Y-109422600D02*
X146314200Y-109153800D01*
X151412000Y-114300000D02*
X150495000Y-113383000D01*
X146045400Y-110220300D02*
X146045400Y-109422600D01*
X148221700Y-109153800D02*
X149670000Y-107705500D01*
X145358200Y-107769702D02*
X141410998Y-103822500D01*
X150495000Y-113383000D02*
X150495000Y-112688600D01*
X153735000Y-114300000D02*
X151412000Y-114300000D01*
X150495000Y-112688600D02*
X148402700Y-110596300D01*
X141410998Y-103822500D02*
X140462000Y-103822500D01*
X146421400Y-110596300D02*
X146045400Y-110220300D01*
X149670000Y-107705500D02*
X149670000Y-107315000D01*
X145358200Y-108197800D02*
X145358200Y-107769702D01*
X148402700Y-110596300D02*
X146421400Y-110596300D01*
X145358200Y-108197800D02*
X146314200Y-109153800D01*
X146314200Y-109153800D02*
X148221700Y-109153800D01*
G04 #@! TO.N,Net-(R11-Pad1)*
X145477800Y-123825000D02*
X146039600Y-123263200D01*
X143575000Y-123825000D02*
X145477800Y-123825000D01*
X151909300Y-124604300D02*
X152400000Y-125095000D01*
X146039600Y-123263200D02*
X149472700Y-123263200D01*
X149472700Y-123263200D02*
X150813800Y-124604300D01*
X150813800Y-124604300D02*
X151909300Y-124604300D01*
G04 #@! TO.N,Net-(J4-Pin_3)*
X135325332Y-107688930D02*
X137660930Y-107688930D01*
X125928501Y-102747499D02*
X129489201Y-106308199D01*
X129489201Y-106308199D02*
X133944601Y-106308199D01*
X122872500Y-103822500D02*
X123947501Y-102747499D01*
X142305000Y-111125000D02*
X141097000Y-111125000D01*
X133944601Y-106308199D02*
X135325332Y-107688930D01*
X141097000Y-111125000D02*
X138226800Y-108254800D01*
X137660930Y-107688930D02*
X138226800Y-108254800D01*
X123947501Y-102747499D02*
X125928501Y-102747499D01*
G04 #@! TO.N,Net-(F1-Pad1)*
X116900500Y-107318500D02*
X114744500Y-109474500D01*
X116900500Y-106934000D02*
X116900500Y-107318500D01*
G04 #@! TO.N,Net-(JP1-B)*
X142375000Y-120375000D02*
X143285000Y-121285000D01*
X142375000Y-119875000D02*
X142375000Y-120375000D01*
X143285000Y-121285000D02*
X143575000Y-121285000D01*
X140938096Y-114247998D02*
X140700998Y-114247998D01*
X141709096Y-119209096D02*
X142375000Y-119875000D01*
X140700998Y-114247998D02*
X137444000Y-110991000D01*
X140270000Y-120015000D02*
X139000000Y-120015000D01*
X140270000Y-119877192D02*
X140938096Y-119209096D01*
X137444000Y-110991000D02*
X137444000Y-110236000D01*
X140938096Y-114247998D02*
X140938096Y-119209096D01*
X140270000Y-120015000D02*
X140270000Y-119877192D01*
X140938096Y-119209096D02*
X141709096Y-119209096D01*
G04 #@! TO.N,Net-(JP1-A)*
X134844000Y-110591002D02*
X134844000Y-110236000D01*
X140200010Y-115899664D02*
X134844000Y-110543654D01*
X139255900Y-118745000D02*
X139000000Y-118745000D01*
X140200010Y-118519990D02*
X140200010Y-115899664D01*
X134844000Y-110872588D02*
X134844000Y-110236000D01*
X134844000Y-110543654D02*
X134844000Y-110236000D01*
X139000000Y-118745000D02*
X139975000Y-118745000D01*
X139975000Y-118745000D02*
X140200010Y-118519990D01*
G04 #@! TO.N,Net-(U6A-~{Q})*
X151320000Y-110878500D02*
X152770200Y-112328700D01*
X152770200Y-112328700D02*
X154574600Y-112328700D01*
X155290000Y-113044100D02*
X155290000Y-115855000D01*
X154574600Y-112328700D02*
X155290000Y-113044100D01*
X154940000Y-116205000D02*
X154940000Y-117140346D01*
X155290000Y-115855000D02*
X154940000Y-116205000D01*
X151320000Y-109855000D02*
X151320000Y-110878500D01*
X153970346Y-118110000D02*
X153735000Y-118110000D01*
X154940000Y-117140346D02*
X153970346Y-118110000D01*
G04 #@! TO.N,Net-(U6B-Q)*
X158423700Y-118110000D02*
X158685000Y-118110000D01*
X155993700Y-123825000D02*
X156333200Y-123485500D01*
X154697300Y-124447700D02*
X154050000Y-125095000D01*
X154697300Y-124345000D02*
X155217300Y-123825000D01*
X154697300Y-124345000D02*
X154697300Y-124447700D01*
X156333200Y-123485500D02*
X156333200Y-120200500D01*
X155217300Y-123825000D02*
X155993700Y-123825000D01*
X156333200Y-120200500D02*
X158423700Y-118110000D01*
G04 #@! TO.N,Net-(U2A-Q)*
X136742000Y-125947000D02*
X135255000Y-124460000D01*
X129475000Y-123825000D02*
X129220800Y-123825000D01*
X135255000Y-124460000D02*
X130110000Y-124460000D01*
X133755800Y-116205000D02*
X134050000Y-116205000D01*
X130239600Y-119486300D02*
X131212950Y-118512950D01*
X136742000Y-125947000D02*
X147673000Y-125947000D01*
X128245700Y-122849900D02*
X128245700Y-119689900D01*
X129220800Y-123825000D02*
X128245700Y-122849900D01*
X134050000Y-116205000D02*
X133520900Y-116205000D01*
X133520900Y-116205000D02*
X131212950Y-118512950D01*
X147673000Y-125947000D02*
X148525000Y-125095000D01*
X128245700Y-119689900D02*
X128449300Y-119486300D01*
X128449300Y-119486300D02*
X130239600Y-119486300D01*
X130110000Y-124460000D02*
X129475000Y-123825000D01*
G04 #@! TO.N,Net-(U2A-~{Q})*
X129475000Y-120015000D02*
X130214100Y-120015000D01*
X132754100Y-117475000D02*
X134050000Y-117475000D01*
X130214100Y-120015000D02*
X132754100Y-117475000D01*
X133389100Y-117475000D02*
X134050000Y-117475000D01*
G04 #@! TO.N,Net-(U2A-C)*
X142000000Y-121954999D02*
X142000000Y-120544700D01*
X156750500Y-116316300D02*
X157480000Y-116840000D01*
X142000000Y-120544700D02*
X141744400Y-120289100D01*
X137836600Y-120634800D02*
X141398700Y-120634800D01*
X143575000Y-122555000D02*
X142600001Y-122555000D01*
X142600001Y-122555000D02*
X142000000Y-121954999D01*
X149000000Y-114257300D02*
X148561100Y-113465000D01*
X135311800Y-118745000D02*
X137201600Y-120634800D01*
X134050000Y-118745000D02*
X135311800Y-118745000D01*
X148561100Y-113465000D02*
X147491100Y-112395000D01*
X137201600Y-120634800D02*
X138471600Y-120634800D01*
X157480000Y-116840000D02*
X158685000Y-116840000D01*
X147491100Y-112395000D02*
X147255000Y-112395000D01*
X141744400Y-120289100D02*
X141398700Y-120634800D01*
G04 #@! TO.N,Net-(U2B-R)*
X139700000Y-121285000D02*
X141276310Y-121285000D01*
X141361300Y-122191228D02*
X141361300Y-121369990D01*
X140270000Y-121285000D02*
X140335000Y-121285000D01*
X147255000Y-111125000D02*
X146102500Y-111125000D01*
X147890000Y-124460000D02*
X148525000Y-123825000D01*
X141276310Y-121285000D02*
X141361300Y-121369990D01*
X146102500Y-111125000D02*
X145608100Y-110630600D01*
X139000000Y-121285000D02*
X140335000Y-121285000D01*
X147890000Y-124460000D02*
X141732000Y-124460000D01*
X140666264Y-122886264D02*
X141361300Y-122191228D01*
X148525000Y-123825000D02*
X148762700Y-123825000D01*
G04 #@! TO.N,unconnected-(U6A-Q-Pad6)*
X153735000Y-116840000D02*
X153987700Y-116840000D01*
G04 #@! TO.N,Net-(D1-K)*
X121935000Y-108013500D02*
X121914500Y-108034000D01*
G04 #@! TD*
G04 #@! TA.AperFunction,Conductor*
G04 #@! TO.N,GND*
G36*
X124006121Y-108729502D02*
G01*
X124052614Y-108783158D01*
X124064000Y-108835500D01*
X124064000Y-109771499D01*
X124463956Y-109771499D01*
X124501250Y-109768565D01*
X124660900Y-109722181D01*
X124804001Y-109637551D01*
X124804003Y-109637550D01*
X124921550Y-109520003D01*
X124921551Y-109520001D01*
X125006181Y-109376901D01*
X125052565Y-109217249D01*
X125053497Y-109205410D01*
X125078781Y-109139068D01*
X125135919Y-109096928D01*
X125206769Y-109092367D01*
X125268204Y-109126198D01*
X126082923Y-109940916D01*
X126215978Y-110017736D01*
X126364381Y-110057500D01*
X126518020Y-110057500D01*
X126892948Y-110057500D01*
X126961069Y-110077502D01*
X127007562Y-110131158D01*
X127017666Y-110201432D01*
X127011003Y-110227533D01*
X126968011Y-110342795D01*
X126968009Y-110342803D01*
X126961500Y-110403350D01*
X126961500Y-111683115D01*
X126941498Y-111751236D01*
X126924595Y-111772210D01*
X125391840Y-113304964D01*
X125342378Y-113335473D01*
X125205902Y-113380696D01*
X125059959Y-113470715D01*
X125059953Y-113470720D01*
X125056742Y-113473932D01*
X124994430Y-113507958D01*
X124923615Y-113502893D01*
X124878552Y-113473932D01*
X124875734Y-113471114D01*
X124875728Y-113471109D01*
X124729884Y-113381152D01*
X124567241Y-113327257D01*
X124567229Y-113327255D01*
X124466852Y-113317000D01*
X124447000Y-113317000D01*
X124447000Y-115223809D01*
X124426998Y-115291930D01*
X124410095Y-115312904D01*
X124397000Y-115325999D01*
X124397000Y-115952000D01*
X124376998Y-116020121D01*
X124323342Y-116066614D01*
X124271000Y-116078000D01*
X123235001Y-116078000D01*
X123235001Y-116156221D01*
X123241481Y-116227553D01*
X123292634Y-116391707D01*
X123292634Y-116391708D01*
X123345751Y-116479576D01*
X123363874Y-116548220D01*
X123342009Y-116615766D01*
X123287096Y-116660767D01*
X123237397Y-116670758D01*
X121308505Y-116662721D01*
X121240468Y-116642435D01*
X121194199Y-116588586D01*
X121183031Y-116537093D01*
X121177316Y-114598852D01*
X123235000Y-114598852D01*
X123245255Y-114699229D01*
X123245257Y-114699241D01*
X123299153Y-114861885D01*
X123299154Y-114861888D01*
X123375880Y-114986282D01*
X123394617Y-115054761D01*
X123376468Y-115117612D01*
X123292633Y-115256293D01*
X123241481Y-115420446D01*
X123241481Y-115420447D01*
X123235000Y-115491777D01*
X123235000Y-115570000D01*
X123889000Y-115570000D01*
X123889000Y-114900191D01*
X123909002Y-114832070D01*
X123925905Y-114811096D01*
X123939000Y-114798001D01*
X123939000Y-114554000D01*
X123235000Y-114554000D01*
X123235000Y-114598852D01*
X121177316Y-114598852D01*
X121175554Y-114001147D01*
X123235000Y-114001147D01*
X123235000Y-114046000D01*
X123939000Y-114046000D01*
X123939000Y-113317000D01*
X123919147Y-113317000D01*
X123818770Y-113327255D01*
X123818758Y-113327257D01*
X123656115Y-113381152D01*
X123510271Y-113471109D01*
X123510265Y-113471114D01*
X123389114Y-113592265D01*
X123389109Y-113592271D01*
X123299152Y-113738115D01*
X123245257Y-113900758D01*
X123245255Y-113900770D01*
X123235000Y-114001147D01*
X121175554Y-114001147D01*
X121173855Y-113424896D01*
X121193656Y-113356720D01*
X121210750Y-113335443D01*
X121457790Y-113088402D01*
X121520100Y-113054379D01*
X121546883Y-113051500D01*
X121926880Y-113051500D01*
X121999936Y-113044035D01*
X122027336Y-113041236D01*
X122190101Y-112987302D01*
X122336040Y-112897285D01*
X122339250Y-112894074D01*
X122401554Y-112860045D01*
X122472370Y-112865101D01*
X122517447Y-112894067D01*
X122520265Y-112896885D01*
X122520271Y-112896890D01*
X122666115Y-112986847D01*
X122828758Y-113040742D01*
X122828770Y-113040744D01*
X122929147Y-113050999D01*
X122929147Y-113051000D01*
X122949000Y-113051000D01*
X123457000Y-113051000D01*
X123476853Y-113051000D01*
X123476852Y-113050999D01*
X123577229Y-113040744D01*
X123577241Y-113040742D01*
X123739884Y-112986847D01*
X123885728Y-112896890D01*
X123885734Y-112896885D01*
X124006885Y-112775734D01*
X124006890Y-112775728D01*
X124096847Y-112629884D01*
X124150742Y-112467241D01*
X124150744Y-112467229D01*
X124160999Y-112366852D01*
X124161000Y-112366852D01*
X124161000Y-112322000D01*
X123457000Y-112322000D01*
X123457000Y-113051000D01*
X122949000Y-113051000D01*
X122949000Y-111814000D01*
X123457000Y-111814000D01*
X124161000Y-111814000D01*
X124161000Y-111769147D01*
X124150744Y-111668770D01*
X124150742Y-111668758D01*
X124096847Y-111506115D01*
X124006890Y-111360271D01*
X124006885Y-111360265D01*
X123885734Y-111239114D01*
X123885728Y-111239109D01*
X123739884Y-111149152D01*
X123577241Y-111095257D01*
X123577229Y-111095255D01*
X123476852Y-111085000D01*
X123457000Y-111085000D01*
X123457000Y-111814000D01*
X122949000Y-111814000D01*
X122949000Y-111085000D01*
X122929147Y-111085000D01*
X122828770Y-111095255D01*
X122828758Y-111095257D01*
X122666115Y-111149152D01*
X122520271Y-111239109D01*
X122520267Y-111239112D01*
X122517442Y-111241938D01*
X122515026Y-111243256D01*
X122514514Y-111243662D01*
X122514444Y-111243574D01*
X122455128Y-111275959D01*
X122384312Y-111270890D01*
X122339253Y-111241928D01*
X122336040Y-111238715D01*
X122190101Y-111148698D01*
X122027336Y-111094764D01*
X122027333Y-111094763D01*
X121926880Y-111084500D01*
X121926872Y-111084500D01*
X121379128Y-111084500D01*
X121379117Y-111084500D01*
X121308695Y-111091695D01*
X121238895Y-111078721D01*
X121187189Y-111030068D01*
X121169995Y-110961185D01*
X121170539Y-110953572D01*
X121170900Y-110950045D01*
X121170899Y-109648956D01*
X121163111Y-109572718D01*
X121162461Y-109560319D01*
X121161451Y-109217500D01*
X122567507Y-109217500D01*
X122613818Y-109376901D01*
X122698448Y-109520001D01*
X122698449Y-109520003D01*
X122815996Y-109637550D01*
X122815998Y-109637551D01*
X122959098Y-109722181D01*
X123118751Y-109768565D01*
X123118749Y-109768565D01*
X123156043Y-109771499D01*
X123556000Y-109771499D01*
X123556000Y-109217500D01*
X122567507Y-109217500D01*
X121161451Y-109217500D01*
X121160658Y-108948371D01*
X121180459Y-108880192D01*
X121233977Y-108833541D01*
X121286657Y-108822000D01*
X122589011Y-108822000D01*
X122589011Y-108821999D01*
X122626331Y-108819062D01*
X122786101Y-108772645D01*
X122863203Y-108727046D01*
X122927342Y-108709500D01*
X123938000Y-108709500D01*
X124006121Y-108729502D01*
G37*
G04 #@! TD.AperFunction*
G04 #@! TD*
G04 #@! TA.AperFunction,Conductor*
G04 #@! TO.N,VDD*
G36*
X124225725Y-104498169D02*
G01*
X124247980Y-104523853D01*
X124281107Y-104574558D01*
X124336775Y-104659765D01*
X124336779Y-104659770D01*
X124489262Y-104825408D01*
X124543831Y-104867881D01*
X124666924Y-104963689D01*
X124864926Y-105070842D01*
X124864927Y-105070842D01*
X124864928Y-105070843D01*
X124926796Y-105092082D01*
X125061413Y-105138296D01*
X125119347Y-105179332D01*
X125145899Y-105245176D01*
X125146500Y-105257468D01*
X125146500Y-106042849D01*
X125126498Y-106110970D01*
X125109595Y-106131944D01*
X125005549Y-106235989D01*
X125005546Y-106235993D01*
X124950223Y-106329538D01*
X124898329Y-106377990D01*
X124828479Y-106390695D01*
X124777631Y-106373852D01*
X124660901Y-106304818D01*
X124501248Y-106258434D01*
X124501250Y-106258434D01*
X124463956Y-106255500D01*
X124064000Y-106255500D01*
X124064000Y-107191500D01*
X124043998Y-107259621D01*
X123990342Y-107306114D01*
X123938000Y-107317500D01*
X122927342Y-107317500D01*
X122863203Y-107299953D01*
X122786101Y-107254355D01*
X122706216Y-107231146D01*
X122626329Y-107207937D01*
X122589011Y-107205000D01*
X122589002Y-107205000D01*
X121280998Y-107205000D01*
X121280989Y-107205000D01*
X121243671Y-107207937D01*
X121243670Y-107207937D01*
X121083896Y-107254356D01*
X121024139Y-107289697D01*
X120955322Y-107307157D01*
X120887991Y-107284641D01*
X120843522Y-107229296D01*
X120833999Y-107181244D01*
X120833999Y-106809500D01*
X122567507Y-106809500D01*
X123556000Y-106809500D01*
X123556000Y-106255500D01*
X123156044Y-106255500D01*
X123118749Y-106258434D01*
X122959099Y-106304818D01*
X122815998Y-106389448D01*
X122815996Y-106389449D01*
X122698449Y-106506996D01*
X122698448Y-106506998D01*
X122613818Y-106650098D01*
X122567507Y-106809500D01*
X120833999Y-106809500D01*
X120833999Y-106258455D01*
X120823387Y-106154574D01*
X120806815Y-106104563D01*
X120767615Y-105986262D01*
X120674530Y-105835348D01*
X120674529Y-105835347D01*
X120674524Y-105835341D01*
X120549158Y-105709975D01*
X120549152Y-105709970D01*
X120398238Y-105616885D01*
X120398234Y-105616883D01*
X120398235Y-105616883D01*
X120370367Y-105607649D01*
X120311995Y-105567235D01*
X120284740Y-105501679D01*
X120284000Y-105488045D01*
X120284000Y-105307000D01*
X120304002Y-105238879D01*
X120357658Y-105192386D01*
X120410000Y-105181000D01*
X120445065Y-105181000D01*
X120445069Y-105181000D01*
X120667135Y-105143944D01*
X120880074Y-105070842D01*
X121078076Y-104963689D01*
X121255740Y-104825406D01*
X121408222Y-104659768D01*
X121497018Y-104523854D01*
X121551020Y-104477768D01*
X121621368Y-104468192D01*
X121685725Y-104498169D01*
X121707980Y-104523853D01*
X121741107Y-104574558D01*
X121796775Y-104659765D01*
X121796779Y-104659770D01*
X121949262Y-104825408D01*
X122003831Y-104867881D01*
X122126924Y-104963689D01*
X122324926Y-105070842D01*
X122324927Y-105070842D01*
X122324928Y-105070843D01*
X122436727Y-105109223D01*
X122537865Y-105143944D01*
X122759931Y-105181000D01*
X122759935Y-105181000D01*
X122985065Y-105181000D01*
X122985069Y-105181000D01*
X123207135Y-105143944D01*
X123420074Y-105070842D01*
X123618076Y-104963689D01*
X123795740Y-104825406D01*
X123948222Y-104659768D01*
X124037018Y-104523854D01*
X124091020Y-104477768D01*
X124161368Y-104468192D01*
X124225725Y-104498169D01*
G37*
G04 #@! TD.AperFunction*
G04 #@! TD*
M02*
