%FSLAX45Y45*%
G04 Gerber Fmt 4.5, Leading zero omitted, Abs format (unit mm)*
G04 Created by KiCad (PCBNEW (5.1.10-1-10_14)) date 2021-07-23 17:52:19*
%MOMM*%
%LPD*%
G01*
G04 APERTURE LIST*
%TA.AperFunction,Profile*%
%ADD10C,0.100000*%
%TD*%
%ADD11C,0.200000*%
%ADD12C,0.300000*%
G04 APERTURE END LIST*
D10*
X16129000Y-9398000D02*
X16129000Y-12636500D01*
X11176000Y-9398000D02*
X16129000Y-9398000D01*
X11176000Y-12636500D02*
X11176000Y-9398000D01*
X16129000Y-12636500D02*
X11176000Y-12636500D01*
D11*
X11666500Y-12238000D02*
X11701500Y-12273000D01*
X11701500Y-12238000D02*
X11666500Y-12273000D01*
X12619000Y-11222000D02*
X12654000Y-11257000D01*
X12654000Y-11222000D02*
X12619000Y-11257000D01*
X12682500Y-12492000D02*
X12717500Y-12527000D01*
X12717500Y-12492000D02*
X12682500Y-12527000D01*
X12746000Y-11730000D02*
X12781000Y-11765000D01*
X12781000Y-11730000D02*
X12746000Y-11765000D01*
X13106630Y-12017340D02*
X13141630Y-12052340D01*
X13141630Y-12017340D02*
X13106630Y-12052340D01*
X13190500Y-12122370D02*
X13225500Y-12157370D01*
X13225500Y-12122370D02*
X13190500Y-12157370D01*
X13190500Y-12365000D02*
X13225500Y-12400000D01*
X13225500Y-12365000D02*
X13190500Y-12400000D01*
X13190500Y-12492000D02*
X13225500Y-12527000D01*
X13225500Y-12492000D02*
X13190500Y-12527000D01*
X13635000Y-12111000D02*
X13670000Y-12146000D01*
X13670000Y-12111000D02*
X13635000Y-12146000D01*
X13635000Y-12238000D02*
X13670000Y-12273000D01*
X13670000Y-12238000D02*
X13635000Y-12273000D01*
X14055730Y-10882930D02*
X14090730Y-10917930D01*
X14090730Y-10882930D02*
X14055730Y-10917930D01*
X14118630Y-12119499D02*
X14153630Y-12154499D01*
X14153630Y-12119499D02*
X14118630Y-12154499D01*
X14156940Y-12011410D02*
X14191940Y-12046410D01*
X14191940Y-12011410D02*
X14156940Y-12046410D01*
X14213000Y-11603000D02*
X14248000Y-11638000D01*
X14248000Y-11603000D02*
X14213000Y-11638000D01*
X14410840Y-11584090D02*
X14445840Y-11619090D01*
X14445840Y-11584090D02*
X14410840Y-11619090D01*
X14543310Y-11045560D02*
X14578310Y-11080560D01*
X14578310Y-11045560D02*
X14543310Y-11080560D01*
X14587500Y-12487680D02*
X14622500Y-12522680D01*
X14622500Y-12487680D02*
X14587500Y-12522680D01*
X14838610Y-11408230D02*
X14873610Y-11443230D01*
X14873610Y-11408230D02*
X14838610Y-11443230D01*
X15032000Y-11730000D02*
X15067000Y-11765000D01*
X15067000Y-11730000D02*
X15032000Y-11765000D01*
X15356000Y-10904500D02*
X15391000Y-10939500D01*
X15391000Y-10904500D02*
X15356000Y-10939500D01*
X15363500Y-12205960D02*
X15398500Y-12240960D01*
X15398500Y-12205960D02*
X15363500Y-12240960D01*
X15603500Y-9888500D02*
X15638500Y-9923500D01*
X15638500Y-9888500D02*
X15603500Y-9923500D01*
X15603500Y-10206000D02*
X15638500Y-10241000D01*
X15638500Y-10206000D02*
X15603500Y-10241000D01*
X15603550Y-12527930D02*
X15638550Y-12562930D01*
X15638550Y-12527930D02*
X15603550Y-12562930D01*
X15657550Y-11614130D02*
X15692550Y-11649130D01*
X15692550Y-11614130D02*
X15657550Y-11649130D01*
X15667000Y-10587000D02*
X15702000Y-10622000D01*
X15702000Y-10587000D02*
X15667000Y-10622000D01*
X15984500Y-11603000D02*
X16019500Y-11638000D01*
X16019500Y-11603000D02*
X15984500Y-11638000D01*
X12229500Y-10922000D02*
G75*
G03*
X12229500Y-10922000I-37500J0D01*
G01*
X12356500Y-10922000D02*
G75*
G03*
X12356500Y-10922000I-37500J0D01*
G01*
X12483500Y-10922000D02*
G75*
G03*
X12483500Y-10922000I-37500J0D01*
G01*
X12827000Y-11009000D02*
X12827000Y-11089000D01*
X12787000Y-11049000D02*
X12867000Y-11049000D01*
X13077000Y-11009000D02*
X13077000Y-11089000D01*
X13037000Y-11049000D02*
X13117000Y-11049000D01*
X11826356Y-11465356D02*
X11826356Y-11394644D01*
X11755644Y-11394644D01*
X11755644Y-11465356D01*
X11826356Y-11465356D01*
X11826356Y-11965356D02*
X11826356Y-11894644D01*
X11755644Y-11894644D01*
X11755644Y-11965356D01*
X11826356Y-11965356D01*
X12036856Y-10449356D02*
X12036856Y-10378644D01*
X11966144Y-10378644D01*
X11966144Y-10449356D01*
X12036856Y-10449356D01*
X12290856Y-10449356D02*
X12290856Y-10378644D01*
X12220144Y-10378644D01*
X12220144Y-10449356D01*
X12290856Y-10449356D01*
X12544856Y-10449356D02*
X12544856Y-10378644D01*
X12474144Y-10378644D01*
X12474144Y-10449356D01*
X12544856Y-10449356D01*
X12798856Y-10449356D02*
X12798856Y-10378644D01*
X12728144Y-10378644D01*
X12728144Y-10449356D01*
X12798856Y-10449356D01*
X13243356Y-10449356D02*
X13243356Y-10378644D01*
X13172644Y-10378644D01*
X13172644Y-10449356D01*
X13243356Y-10449356D01*
X13497356Y-10449356D02*
X13497356Y-10378644D01*
X13426644Y-10378644D01*
X13426644Y-10449356D01*
X13497356Y-10449356D01*
X13517356Y-10957356D02*
X13517356Y-10886644D01*
X13446644Y-10886644D01*
X13446644Y-10957356D01*
X13517356Y-10957356D01*
X13517356Y-11211356D02*
X13517356Y-11140644D01*
X13446644Y-11140644D01*
X13446644Y-11211356D01*
X13517356Y-11211356D01*
X13751356Y-10449356D02*
X13751356Y-10378644D01*
X13680644Y-10378644D01*
X13680644Y-10449356D01*
X13751356Y-10449356D01*
X13878356Y-10957356D02*
X13878356Y-10886644D01*
X13807644Y-10886644D01*
X13807644Y-10957356D01*
X13878356Y-10957356D01*
X13878356Y-11211356D02*
X13878356Y-11140644D01*
X13807644Y-11140644D01*
X13807644Y-11211356D01*
X13878356Y-11211356D01*
X14195856Y-10449356D02*
X14195856Y-10378644D01*
X14125144Y-10378644D01*
X14125144Y-10449356D01*
X14195856Y-10449356D01*
X14449856Y-10449356D02*
X14449856Y-10378644D01*
X14379144Y-10378644D01*
X14379144Y-10449356D01*
X14449856Y-10449356D01*
X14703856Y-10449356D02*
X14703856Y-10378644D01*
X14633144Y-10378644D01*
X14633144Y-10449356D01*
X14703856Y-10449356D01*
X15148356Y-10449356D02*
X15148356Y-10378644D01*
X15077644Y-10378644D01*
X15077644Y-10449356D01*
X15148356Y-10449356D01*
X15402356Y-10449356D02*
X15402356Y-10378644D01*
X15331644Y-10378644D01*
X15331644Y-10449356D01*
X15402356Y-10449356D01*
X11430000Y-9762000D02*
X11540000Y-9652000D01*
X11430000Y-9542000D01*
X11320000Y-9652000D01*
X11430000Y-9762000D01*
X11430000Y-12492500D02*
X11540000Y-12382500D01*
X11430000Y-12272500D01*
X11320000Y-12382500D01*
X11430000Y-12492500D01*
X15875000Y-9762000D02*
X15985000Y-9652000D01*
X15875000Y-9542000D01*
X15765000Y-9652000D01*
X15875000Y-9762000D01*
X15875000Y-12492500D02*
X15985000Y-12382500D01*
X15875000Y-12272500D01*
X15765000Y-12382500D01*
X15875000Y-12492500D01*
D12*
X11457428Y-13107214D02*
X11457428Y-12807214D01*
X11528857Y-12807214D01*
X11571714Y-12821500D01*
X11600286Y-12850071D01*
X11614571Y-12878643D01*
X11628857Y-12935786D01*
X11628857Y-12978643D01*
X11614571Y-13035786D01*
X11600286Y-13064357D01*
X11571714Y-13092929D01*
X11528857Y-13107214D01*
X11457428Y-13107214D01*
X11757428Y-13107214D02*
X11757428Y-12907214D01*
X11757428Y-12964357D02*
X11771714Y-12935786D01*
X11786000Y-12921500D01*
X11814571Y-12907214D01*
X11843143Y-12907214D01*
X11943143Y-13107214D02*
X11943143Y-12907214D01*
X11943143Y-12807214D02*
X11928857Y-12821500D01*
X11943143Y-12835786D01*
X11957428Y-12821500D01*
X11943143Y-12807214D01*
X11943143Y-12835786D01*
X12128857Y-13107214D02*
X12100286Y-13092929D01*
X12086000Y-13064357D01*
X12086000Y-12807214D01*
X12286000Y-13107214D02*
X12257428Y-13092929D01*
X12243143Y-13064357D01*
X12243143Y-12807214D01*
X12628857Y-13107214D02*
X12628857Y-12807214D01*
X12728857Y-13021500D01*
X12828857Y-12807214D01*
X12828857Y-13107214D01*
X13100286Y-13107214D02*
X13100286Y-12950071D01*
X13086000Y-12921500D01*
X13057428Y-12907214D01*
X13000286Y-12907214D01*
X12971714Y-12921500D01*
X13100286Y-13092929D02*
X13071714Y-13107214D01*
X13000286Y-13107214D01*
X12971714Y-13092929D01*
X12957428Y-13064357D01*
X12957428Y-13035786D01*
X12971714Y-13007214D01*
X13000286Y-12992929D01*
X13071714Y-12992929D01*
X13100286Y-12978643D01*
X13243143Y-12907214D02*
X13243143Y-13207214D01*
X13243143Y-12921500D02*
X13271714Y-12907214D01*
X13328857Y-12907214D01*
X13357428Y-12921500D01*
X13371714Y-12935786D01*
X13386000Y-12964357D01*
X13386000Y-13050071D01*
X13371714Y-13078643D01*
X13357428Y-13092929D01*
X13328857Y-13107214D01*
X13271714Y-13107214D01*
X13243143Y-13092929D01*
X13514571Y-13078643D02*
X13528857Y-13092929D01*
X13514571Y-13107214D01*
X13500286Y-13092929D01*
X13514571Y-13078643D01*
X13514571Y-13107214D01*
X13514571Y-12921500D02*
X13528857Y-12935786D01*
X13514571Y-12950071D01*
X13500286Y-12935786D01*
X13514571Y-12921500D01*
X13514571Y-12950071D01*
X11136000Y-13584000D02*
X11171000Y-13619000D01*
X11171000Y-13584000D02*
X11136000Y-13619000D01*
X11514571Y-13437214D02*
X11543143Y-13437214D01*
X11571714Y-13451500D01*
X11586000Y-13465786D01*
X11600286Y-13494357D01*
X11614571Y-13551500D01*
X11614571Y-13622929D01*
X11600286Y-13680071D01*
X11586000Y-13708643D01*
X11571714Y-13722929D01*
X11543143Y-13737214D01*
X11514571Y-13737214D01*
X11486000Y-13722929D01*
X11471714Y-13708643D01*
X11457428Y-13680071D01*
X11443143Y-13622929D01*
X11443143Y-13551500D01*
X11457428Y-13494357D01*
X11471714Y-13465786D01*
X11486000Y-13451500D01*
X11514571Y-13437214D01*
X11743143Y-13708643D02*
X11757428Y-13722929D01*
X11743143Y-13737214D01*
X11728857Y-13722929D01*
X11743143Y-13708643D01*
X11743143Y-13737214D01*
X11857428Y-13437214D02*
X12043143Y-13437214D01*
X11943143Y-13551500D01*
X11986000Y-13551500D01*
X12014571Y-13565786D01*
X12028857Y-13580071D01*
X12043143Y-13608643D01*
X12043143Y-13680071D01*
X12028857Y-13708643D01*
X12014571Y-13722929D01*
X11986000Y-13737214D01*
X11900286Y-13737214D01*
X11871714Y-13722929D01*
X11857428Y-13708643D01*
X12314571Y-13437214D02*
X12171714Y-13437214D01*
X12157428Y-13580071D01*
X12171714Y-13565786D01*
X12200286Y-13551500D01*
X12271714Y-13551500D01*
X12300286Y-13565786D01*
X12314571Y-13580071D01*
X12328857Y-13608643D01*
X12328857Y-13680071D01*
X12314571Y-13708643D01*
X12300286Y-13722929D01*
X12271714Y-13737214D01*
X12200286Y-13737214D01*
X12171714Y-13722929D01*
X12157428Y-13708643D01*
X12514571Y-13437214D02*
X12543143Y-13437214D01*
X12571714Y-13451500D01*
X12586000Y-13465786D01*
X12600286Y-13494357D01*
X12614571Y-13551500D01*
X12614571Y-13622929D01*
X12600286Y-13680071D01*
X12586000Y-13708643D01*
X12571714Y-13722929D01*
X12543143Y-13737214D01*
X12514571Y-13737214D01*
X12486000Y-13722929D01*
X12471714Y-13708643D01*
X12457428Y-13680071D01*
X12443143Y-13622929D01*
X12443143Y-13551500D01*
X12457428Y-13494357D01*
X12471714Y-13465786D01*
X12486000Y-13451500D01*
X12514571Y-13437214D01*
X12743143Y-13737214D02*
X12743143Y-13537214D01*
X12743143Y-13565786D02*
X12757428Y-13551500D01*
X12786000Y-13537214D01*
X12828857Y-13537214D01*
X12857428Y-13551500D01*
X12871714Y-13580071D01*
X12871714Y-13737214D01*
X12871714Y-13580071D02*
X12886000Y-13551500D01*
X12914571Y-13537214D01*
X12957428Y-13537214D01*
X12986000Y-13551500D01*
X13000286Y-13580071D01*
X13000286Y-13737214D01*
X13143143Y-13737214D02*
X13143143Y-13537214D01*
X13143143Y-13565786D02*
X13157428Y-13551500D01*
X13186000Y-13537214D01*
X13228857Y-13537214D01*
X13257428Y-13551500D01*
X13271714Y-13580071D01*
X13271714Y-13737214D01*
X13271714Y-13580071D02*
X13286000Y-13551500D01*
X13314571Y-13537214D01*
X13357428Y-13537214D01*
X13386000Y-13551500D01*
X13400286Y-13580071D01*
X13400286Y-13737214D01*
X13986000Y-13422929D02*
X13728857Y-13808643D01*
X14371714Y-13437214D02*
X14400286Y-13437214D01*
X14428857Y-13451500D01*
X14443143Y-13465786D01*
X14457428Y-13494357D01*
X14471714Y-13551500D01*
X14471714Y-13622929D01*
X14457428Y-13680071D01*
X14443143Y-13708643D01*
X14428857Y-13722929D01*
X14400286Y-13737214D01*
X14371714Y-13737214D01*
X14343143Y-13722929D01*
X14328857Y-13708643D01*
X14314571Y-13680071D01*
X14300286Y-13622929D01*
X14300286Y-13551500D01*
X14314571Y-13494357D01*
X14328857Y-13465786D01*
X14343143Y-13451500D01*
X14371714Y-13437214D01*
X14600286Y-13708643D02*
X14614571Y-13722929D01*
X14600286Y-13737214D01*
X14586000Y-13722929D01*
X14600286Y-13708643D01*
X14600286Y-13737214D01*
X14800286Y-13437214D02*
X14828857Y-13437214D01*
X14857428Y-13451500D01*
X14871714Y-13465786D01*
X14886000Y-13494357D01*
X14900286Y-13551500D01*
X14900286Y-13622929D01*
X14886000Y-13680071D01*
X14871714Y-13708643D01*
X14857428Y-13722929D01*
X14828857Y-13737214D01*
X14800286Y-13737214D01*
X14771714Y-13722929D01*
X14757428Y-13708643D01*
X14743143Y-13680071D01*
X14728857Y-13622929D01*
X14728857Y-13551500D01*
X14743143Y-13494357D01*
X14757428Y-13465786D01*
X14771714Y-13451500D01*
X14800286Y-13437214D01*
X15186000Y-13737214D02*
X15014571Y-13737214D01*
X15100286Y-13737214D02*
X15100286Y-13437214D01*
X15071714Y-13480071D01*
X15043143Y-13508643D01*
X15014571Y-13522929D01*
X15286000Y-13437214D02*
X15471714Y-13437214D01*
X15371714Y-13551500D01*
X15414571Y-13551500D01*
X15443143Y-13565786D01*
X15457428Y-13580071D01*
X15471714Y-13608643D01*
X15471714Y-13680071D01*
X15457428Y-13708643D01*
X15443143Y-13722929D01*
X15414571Y-13737214D01*
X15328857Y-13737214D01*
X15300286Y-13722929D01*
X15286000Y-13708643D01*
X15643143Y-13565786D02*
X15614571Y-13551500D01*
X15600286Y-13537214D01*
X15586000Y-13508643D01*
X15586000Y-13494357D01*
X15600286Y-13465786D01*
X15614571Y-13451500D01*
X15643143Y-13437214D01*
X15700286Y-13437214D01*
X15728857Y-13451500D01*
X15743143Y-13465786D01*
X15757428Y-13494357D01*
X15757428Y-13508643D01*
X15743143Y-13537214D01*
X15728857Y-13551500D01*
X15700286Y-13565786D01*
X15643143Y-13565786D01*
X15614571Y-13580071D01*
X15600286Y-13594357D01*
X15586000Y-13622929D01*
X15586000Y-13680071D01*
X15600286Y-13708643D01*
X15614571Y-13722929D01*
X15643143Y-13737214D01*
X15700286Y-13737214D01*
X15728857Y-13722929D01*
X15743143Y-13708643D01*
X15757428Y-13680071D01*
X15757428Y-13622929D01*
X15743143Y-13594357D01*
X15728857Y-13580071D01*
X15700286Y-13565786D01*
X15871714Y-13437214D02*
X15871714Y-13494357D01*
X15986000Y-13437214D02*
X15986000Y-13494357D01*
X16428857Y-13851500D02*
X16414571Y-13837214D01*
X16386000Y-13794357D01*
X16371714Y-13765786D01*
X16357428Y-13722929D01*
X16343143Y-13651500D01*
X16343143Y-13594357D01*
X16357428Y-13522929D01*
X16371714Y-13480071D01*
X16386000Y-13451500D01*
X16414571Y-13408643D01*
X16428857Y-13394357D01*
X16528857Y-13465786D02*
X16543143Y-13451500D01*
X16571714Y-13437214D01*
X16643143Y-13437214D01*
X16671714Y-13451500D01*
X16686000Y-13465786D01*
X16700286Y-13494357D01*
X16700286Y-13522929D01*
X16686000Y-13565786D01*
X16514571Y-13737214D01*
X16700286Y-13737214D01*
X16800286Y-13437214D02*
X17000286Y-13437214D01*
X16871714Y-13737214D01*
X17343143Y-13737214D02*
X17343143Y-13437214D01*
X17471714Y-13737214D02*
X17471714Y-13580071D01*
X17457428Y-13551500D01*
X17428857Y-13537214D01*
X17386000Y-13537214D01*
X17357428Y-13551500D01*
X17343143Y-13565786D01*
X17657428Y-13737214D02*
X17628857Y-13722929D01*
X17614571Y-13708643D01*
X17600286Y-13680071D01*
X17600286Y-13594357D01*
X17614571Y-13565786D01*
X17628857Y-13551500D01*
X17657428Y-13537214D01*
X17700286Y-13537214D01*
X17728857Y-13551500D01*
X17743143Y-13565786D01*
X17757428Y-13594357D01*
X17757428Y-13680071D01*
X17743143Y-13708643D01*
X17728857Y-13722929D01*
X17700286Y-13737214D01*
X17657428Y-13737214D01*
X17928857Y-13737214D02*
X17900286Y-13722929D01*
X17886000Y-13694357D01*
X17886000Y-13437214D01*
X18157428Y-13722929D02*
X18128857Y-13737214D01*
X18071714Y-13737214D01*
X18043143Y-13722929D01*
X18028857Y-13694357D01*
X18028857Y-13580071D01*
X18043143Y-13551500D01*
X18071714Y-13537214D01*
X18128857Y-13537214D01*
X18157428Y-13551500D01*
X18171714Y-13580071D01*
X18171714Y-13608643D01*
X18028857Y-13637214D01*
X18286000Y-13722929D02*
X18314571Y-13737214D01*
X18371714Y-13737214D01*
X18400286Y-13722929D01*
X18414571Y-13694357D01*
X18414571Y-13680071D01*
X18400286Y-13651500D01*
X18371714Y-13637214D01*
X18328857Y-13637214D01*
X18300286Y-13622929D01*
X18286000Y-13594357D01*
X18286000Y-13580071D01*
X18300286Y-13551500D01*
X18328857Y-13537214D01*
X18371714Y-13537214D01*
X18400286Y-13551500D01*
X18514571Y-13851500D02*
X18528857Y-13837214D01*
X18557428Y-13794357D01*
X18571714Y-13765786D01*
X18586000Y-13722929D01*
X18600286Y-13651500D01*
X18600286Y-13594357D01*
X18586000Y-13522929D01*
X18571714Y-13480071D01*
X18557428Y-13451500D01*
X18528857Y-13408643D01*
X18514571Y-13394357D01*
X11171000Y-13997500D02*
G75*
G03*
X11171000Y-13997500I-37500J0D01*
G01*
X11514571Y-13833214D02*
X11543143Y-13833214D01*
X11571714Y-13847500D01*
X11586000Y-13861786D01*
X11600286Y-13890357D01*
X11614571Y-13947500D01*
X11614571Y-14018929D01*
X11600286Y-14076071D01*
X11586000Y-14104643D01*
X11571714Y-14118929D01*
X11543143Y-14133214D01*
X11514571Y-14133214D01*
X11486000Y-14118929D01*
X11471714Y-14104643D01*
X11457428Y-14076071D01*
X11443143Y-14018929D01*
X11443143Y-13947500D01*
X11457428Y-13890357D01*
X11471714Y-13861786D01*
X11486000Y-13847500D01*
X11514571Y-13833214D01*
X11743143Y-14104643D02*
X11757428Y-14118929D01*
X11743143Y-14133214D01*
X11728857Y-14118929D01*
X11743143Y-14104643D01*
X11743143Y-14133214D01*
X11857428Y-13833214D02*
X12057428Y-13833214D01*
X11928857Y-14133214D01*
X12314571Y-13833214D02*
X12171714Y-13833214D01*
X12157428Y-13976071D01*
X12171714Y-13961786D01*
X12200286Y-13947500D01*
X12271714Y-13947500D01*
X12300286Y-13961786D01*
X12314571Y-13976071D01*
X12328857Y-14004643D01*
X12328857Y-14076071D01*
X12314571Y-14104643D01*
X12300286Y-14118929D01*
X12271714Y-14133214D01*
X12200286Y-14133214D01*
X12171714Y-14118929D01*
X12157428Y-14104643D01*
X12514571Y-13833214D02*
X12543143Y-13833214D01*
X12571714Y-13847500D01*
X12586000Y-13861786D01*
X12600286Y-13890357D01*
X12614571Y-13947500D01*
X12614571Y-14018929D01*
X12600286Y-14076071D01*
X12586000Y-14104643D01*
X12571714Y-14118929D01*
X12543143Y-14133214D01*
X12514571Y-14133214D01*
X12486000Y-14118929D01*
X12471714Y-14104643D01*
X12457428Y-14076071D01*
X12443143Y-14018929D01*
X12443143Y-13947500D01*
X12457428Y-13890357D01*
X12471714Y-13861786D01*
X12486000Y-13847500D01*
X12514571Y-13833214D01*
X12743143Y-14133214D02*
X12743143Y-13933214D01*
X12743143Y-13961786D02*
X12757428Y-13947500D01*
X12786000Y-13933214D01*
X12828857Y-13933214D01*
X12857428Y-13947500D01*
X12871714Y-13976071D01*
X12871714Y-14133214D01*
X12871714Y-13976071D02*
X12886000Y-13947500D01*
X12914571Y-13933214D01*
X12957428Y-13933214D01*
X12986000Y-13947500D01*
X13000286Y-13976071D01*
X13000286Y-14133214D01*
X13143143Y-14133214D02*
X13143143Y-13933214D01*
X13143143Y-13961786D02*
X13157428Y-13947500D01*
X13186000Y-13933214D01*
X13228857Y-13933214D01*
X13257428Y-13947500D01*
X13271714Y-13976071D01*
X13271714Y-14133214D01*
X13271714Y-13976071D02*
X13286000Y-13947500D01*
X13314571Y-13933214D01*
X13357428Y-13933214D01*
X13386000Y-13947500D01*
X13400286Y-13976071D01*
X13400286Y-14133214D01*
X13986000Y-13818929D02*
X13728857Y-14204643D01*
X14371714Y-13833214D02*
X14400286Y-13833214D01*
X14428857Y-13847500D01*
X14443143Y-13861786D01*
X14457428Y-13890357D01*
X14471714Y-13947500D01*
X14471714Y-14018929D01*
X14457428Y-14076071D01*
X14443143Y-14104643D01*
X14428857Y-14118929D01*
X14400286Y-14133214D01*
X14371714Y-14133214D01*
X14343143Y-14118929D01*
X14328857Y-14104643D01*
X14314571Y-14076071D01*
X14300286Y-14018929D01*
X14300286Y-13947500D01*
X14314571Y-13890357D01*
X14328857Y-13861786D01*
X14343143Y-13847500D01*
X14371714Y-13833214D01*
X14600286Y-14104643D02*
X14614571Y-14118929D01*
X14600286Y-14133214D01*
X14586000Y-14118929D01*
X14600286Y-14104643D01*
X14600286Y-14133214D01*
X14800286Y-13833214D02*
X14828857Y-13833214D01*
X14857428Y-13847500D01*
X14871714Y-13861786D01*
X14886000Y-13890357D01*
X14900286Y-13947500D01*
X14900286Y-14018929D01*
X14886000Y-14076071D01*
X14871714Y-14104643D01*
X14857428Y-14118929D01*
X14828857Y-14133214D01*
X14800286Y-14133214D01*
X14771714Y-14118929D01*
X14757428Y-14104643D01*
X14743143Y-14076071D01*
X14728857Y-14018929D01*
X14728857Y-13947500D01*
X14743143Y-13890357D01*
X14757428Y-13861786D01*
X14771714Y-13847500D01*
X14800286Y-13833214D01*
X15014571Y-13861786D02*
X15028857Y-13847500D01*
X15057428Y-13833214D01*
X15128857Y-13833214D01*
X15157428Y-13847500D01*
X15171714Y-13861786D01*
X15186000Y-13890357D01*
X15186000Y-13918929D01*
X15171714Y-13961786D01*
X15000286Y-14133214D01*
X15186000Y-14133214D01*
X15328857Y-14133214D02*
X15386000Y-14133214D01*
X15414571Y-14118929D01*
X15428857Y-14104643D01*
X15457428Y-14061786D01*
X15471714Y-14004643D01*
X15471714Y-13890357D01*
X15457428Y-13861786D01*
X15443143Y-13847500D01*
X15414571Y-13833214D01*
X15357428Y-13833214D01*
X15328857Y-13847500D01*
X15314571Y-13861786D01*
X15300286Y-13890357D01*
X15300286Y-13961786D01*
X15314571Y-13990357D01*
X15328857Y-14004643D01*
X15357428Y-14018929D01*
X15414571Y-14018929D01*
X15443143Y-14004643D01*
X15457428Y-13990357D01*
X15471714Y-13961786D01*
X15743143Y-13833214D02*
X15600286Y-13833214D01*
X15586000Y-13976071D01*
X15600286Y-13961786D01*
X15628857Y-13947500D01*
X15700286Y-13947500D01*
X15728857Y-13961786D01*
X15743143Y-13976071D01*
X15757428Y-14004643D01*
X15757428Y-14076071D01*
X15743143Y-14104643D01*
X15728857Y-14118929D01*
X15700286Y-14133214D01*
X15628857Y-14133214D01*
X15600286Y-14118929D01*
X15586000Y-14104643D01*
X15871714Y-13833214D02*
X15871714Y-13890357D01*
X15986000Y-13833214D02*
X15986000Y-13890357D01*
X16428857Y-14247500D02*
X16414571Y-14233214D01*
X16386000Y-14190357D01*
X16371714Y-14161786D01*
X16357428Y-14118929D01*
X16343143Y-14047500D01*
X16343143Y-13990357D01*
X16357428Y-13918929D01*
X16371714Y-13876071D01*
X16386000Y-13847500D01*
X16414571Y-13804643D01*
X16428857Y-13790357D01*
X16514571Y-13833214D02*
X16700286Y-13833214D01*
X16600286Y-13947500D01*
X16643143Y-13947500D01*
X16671714Y-13961786D01*
X16686000Y-13976071D01*
X16700286Y-14004643D01*
X16700286Y-14076071D01*
X16686000Y-14104643D01*
X16671714Y-14118929D01*
X16643143Y-14133214D01*
X16557428Y-14133214D01*
X16528857Y-14118929D01*
X16514571Y-14104643D01*
X17057428Y-14133214D02*
X17057428Y-13833214D01*
X17186000Y-14133214D02*
X17186000Y-13976071D01*
X17171714Y-13947500D01*
X17143143Y-13933214D01*
X17100286Y-13933214D01*
X17071714Y-13947500D01*
X17057428Y-13961786D01*
X17371714Y-14133214D02*
X17343143Y-14118929D01*
X17328857Y-14104643D01*
X17314571Y-14076071D01*
X17314571Y-13990357D01*
X17328857Y-13961786D01*
X17343143Y-13947500D01*
X17371714Y-13933214D01*
X17414571Y-13933214D01*
X17443143Y-13947500D01*
X17457428Y-13961786D01*
X17471714Y-13990357D01*
X17471714Y-14076071D01*
X17457428Y-14104643D01*
X17443143Y-14118929D01*
X17414571Y-14133214D01*
X17371714Y-14133214D01*
X17643143Y-14133214D02*
X17614571Y-14118929D01*
X17600286Y-14090357D01*
X17600286Y-13833214D01*
X17871714Y-14118929D02*
X17843143Y-14133214D01*
X17786000Y-14133214D01*
X17757428Y-14118929D01*
X17743143Y-14090357D01*
X17743143Y-13976071D01*
X17757428Y-13947500D01*
X17786000Y-13933214D01*
X17843143Y-13933214D01*
X17871714Y-13947500D01*
X17886000Y-13976071D01*
X17886000Y-14004643D01*
X17743143Y-14033214D01*
X18000286Y-14118929D02*
X18028857Y-14133214D01*
X18086000Y-14133214D01*
X18114571Y-14118929D01*
X18128857Y-14090357D01*
X18128857Y-14076071D01*
X18114571Y-14047500D01*
X18086000Y-14033214D01*
X18043143Y-14033214D01*
X18014571Y-14018929D01*
X18000286Y-13990357D01*
X18000286Y-13976071D01*
X18014571Y-13947500D01*
X18043143Y-13933214D01*
X18086000Y-13933214D01*
X18114571Y-13947500D01*
X18228857Y-14247500D02*
X18243143Y-14233214D01*
X18271714Y-14190357D01*
X18286000Y-14161786D01*
X18300286Y-14118929D01*
X18314571Y-14047500D01*
X18314571Y-13990357D01*
X18300286Y-13918929D01*
X18286000Y-13876071D01*
X18271714Y-13847500D01*
X18243143Y-13804643D01*
X18228857Y-13790357D01*
X11131000Y-14353500D02*
X11131000Y-14433500D01*
X11091000Y-14393500D02*
X11171000Y-14393500D01*
X11514571Y-14229214D02*
X11543143Y-14229214D01*
X11571714Y-14243500D01*
X11586000Y-14257786D01*
X11600286Y-14286357D01*
X11614571Y-14343500D01*
X11614571Y-14414929D01*
X11600286Y-14472071D01*
X11586000Y-14500643D01*
X11571714Y-14514929D01*
X11543143Y-14529214D01*
X11514571Y-14529214D01*
X11486000Y-14514929D01*
X11471714Y-14500643D01*
X11457428Y-14472071D01*
X11443143Y-14414929D01*
X11443143Y-14343500D01*
X11457428Y-14286357D01*
X11471714Y-14257786D01*
X11486000Y-14243500D01*
X11514571Y-14229214D01*
X11743143Y-14500643D02*
X11757428Y-14514929D01*
X11743143Y-14529214D01*
X11728857Y-14514929D01*
X11743143Y-14500643D01*
X11743143Y-14529214D01*
X11928857Y-14357786D02*
X11900286Y-14343500D01*
X11886000Y-14329214D01*
X11871714Y-14300643D01*
X11871714Y-14286357D01*
X11886000Y-14257786D01*
X11900286Y-14243500D01*
X11928857Y-14229214D01*
X11986000Y-14229214D01*
X12014571Y-14243500D01*
X12028857Y-14257786D01*
X12043143Y-14286357D01*
X12043143Y-14300643D01*
X12028857Y-14329214D01*
X12014571Y-14343500D01*
X11986000Y-14357786D01*
X11928857Y-14357786D01*
X11900286Y-14372071D01*
X11886000Y-14386357D01*
X11871714Y-14414929D01*
X11871714Y-14472071D01*
X11886000Y-14500643D01*
X11900286Y-14514929D01*
X11928857Y-14529214D01*
X11986000Y-14529214D01*
X12014571Y-14514929D01*
X12028857Y-14500643D01*
X12043143Y-14472071D01*
X12043143Y-14414929D01*
X12028857Y-14386357D01*
X12014571Y-14372071D01*
X11986000Y-14357786D01*
X12228857Y-14229214D02*
X12257428Y-14229214D01*
X12286000Y-14243500D01*
X12300286Y-14257786D01*
X12314571Y-14286357D01*
X12328857Y-14343500D01*
X12328857Y-14414929D01*
X12314571Y-14472071D01*
X12300286Y-14500643D01*
X12286000Y-14514929D01*
X12257428Y-14529214D01*
X12228857Y-14529214D01*
X12200286Y-14514929D01*
X12186000Y-14500643D01*
X12171714Y-14472071D01*
X12157428Y-14414929D01*
X12157428Y-14343500D01*
X12171714Y-14286357D01*
X12186000Y-14257786D01*
X12200286Y-14243500D01*
X12228857Y-14229214D01*
X12514571Y-14229214D02*
X12543143Y-14229214D01*
X12571714Y-14243500D01*
X12586000Y-14257786D01*
X12600286Y-14286357D01*
X12614571Y-14343500D01*
X12614571Y-14414929D01*
X12600286Y-14472071D01*
X12586000Y-14500643D01*
X12571714Y-14514929D01*
X12543143Y-14529214D01*
X12514571Y-14529214D01*
X12486000Y-14514929D01*
X12471714Y-14500643D01*
X12457428Y-14472071D01*
X12443143Y-14414929D01*
X12443143Y-14343500D01*
X12457428Y-14286357D01*
X12471714Y-14257786D01*
X12486000Y-14243500D01*
X12514571Y-14229214D01*
X12743143Y-14529214D02*
X12743143Y-14329214D01*
X12743143Y-14357786D02*
X12757428Y-14343500D01*
X12786000Y-14329214D01*
X12828857Y-14329214D01*
X12857428Y-14343500D01*
X12871714Y-14372071D01*
X12871714Y-14529214D01*
X12871714Y-14372071D02*
X12886000Y-14343500D01*
X12914571Y-14329214D01*
X12957428Y-14329214D01*
X12986000Y-14343500D01*
X13000286Y-14372071D01*
X13000286Y-14529214D01*
X13143143Y-14529214D02*
X13143143Y-14329214D01*
X13143143Y-14357786D02*
X13157428Y-14343500D01*
X13186000Y-14329214D01*
X13228857Y-14329214D01*
X13257428Y-14343500D01*
X13271714Y-14372071D01*
X13271714Y-14529214D01*
X13271714Y-14372071D02*
X13286000Y-14343500D01*
X13314571Y-14329214D01*
X13357428Y-14329214D01*
X13386000Y-14343500D01*
X13400286Y-14372071D01*
X13400286Y-14529214D01*
X13986000Y-14214929D02*
X13728857Y-14600643D01*
X14371714Y-14229214D02*
X14400286Y-14229214D01*
X14428857Y-14243500D01*
X14443143Y-14257786D01*
X14457428Y-14286357D01*
X14471714Y-14343500D01*
X14471714Y-14414929D01*
X14457428Y-14472071D01*
X14443143Y-14500643D01*
X14428857Y-14514929D01*
X14400286Y-14529214D01*
X14371714Y-14529214D01*
X14343143Y-14514929D01*
X14328857Y-14500643D01*
X14314571Y-14472071D01*
X14300286Y-14414929D01*
X14300286Y-14343500D01*
X14314571Y-14286357D01*
X14328857Y-14257786D01*
X14343143Y-14243500D01*
X14371714Y-14229214D01*
X14600286Y-14500643D02*
X14614571Y-14514929D01*
X14600286Y-14529214D01*
X14586000Y-14514929D01*
X14600286Y-14500643D01*
X14600286Y-14529214D01*
X14800286Y-14229214D02*
X14828857Y-14229214D01*
X14857428Y-14243500D01*
X14871714Y-14257786D01*
X14886000Y-14286357D01*
X14900286Y-14343500D01*
X14900286Y-14414929D01*
X14886000Y-14472071D01*
X14871714Y-14500643D01*
X14857428Y-14514929D01*
X14828857Y-14529214D01*
X14800286Y-14529214D01*
X14771714Y-14514929D01*
X14757428Y-14500643D01*
X14743143Y-14472071D01*
X14728857Y-14414929D01*
X14728857Y-14343500D01*
X14743143Y-14286357D01*
X14757428Y-14257786D01*
X14771714Y-14243500D01*
X14800286Y-14229214D01*
X15000286Y-14229214D02*
X15186000Y-14229214D01*
X15086000Y-14343500D01*
X15128857Y-14343500D01*
X15157428Y-14357786D01*
X15171714Y-14372071D01*
X15186000Y-14400643D01*
X15186000Y-14472071D01*
X15171714Y-14500643D01*
X15157428Y-14514929D01*
X15128857Y-14529214D01*
X15043143Y-14529214D01*
X15014571Y-14514929D01*
X15000286Y-14500643D01*
X15471714Y-14529214D02*
X15300286Y-14529214D01*
X15386000Y-14529214D02*
X15386000Y-14229214D01*
X15357428Y-14272071D01*
X15328857Y-14300643D01*
X15300286Y-14314929D01*
X15743143Y-14229214D02*
X15600286Y-14229214D01*
X15586000Y-14372071D01*
X15600286Y-14357786D01*
X15628857Y-14343500D01*
X15700286Y-14343500D01*
X15728857Y-14357786D01*
X15743143Y-14372071D01*
X15757428Y-14400643D01*
X15757428Y-14472071D01*
X15743143Y-14500643D01*
X15728857Y-14514929D01*
X15700286Y-14529214D01*
X15628857Y-14529214D01*
X15600286Y-14514929D01*
X15586000Y-14500643D01*
X15871714Y-14229214D02*
X15871714Y-14286357D01*
X15986000Y-14229214D02*
X15986000Y-14286357D01*
X16428857Y-14643500D02*
X16414571Y-14629214D01*
X16386000Y-14586357D01*
X16371714Y-14557786D01*
X16357428Y-14514929D01*
X16343143Y-14443500D01*
X16343143Y-14386357D01*
X16357428Y-14314929D01*
X16371714Y-14272071D01*
X16386000Y-14243500D01*
X16414571Y-14200643D01*
X16428857Y-14186357D01*
X16528857Y-14257786D02*
X16543143Y-14243500D01*
X16571714Y-14229214D01*
X16643143Y-14229214D01*
X16671714Y-14243500D01*
X16686000Y-14257786D01*
X16700286Y-14286357D01*
X16700286Y-14314929D01*
X16686000Y-14357786D01*
X16514571Y-14529214D01*
X16700286Y-14529214D01*
X17057428Y-14529214D02*
X17057428Y-14229214D01*
X17186000Y-14529214D02*
X17186000Y-14372071D01*
X17171714Y-14343500D01*
X17143143Y-14329214D01*
X17100286Y-14329214D01*
X17071714Y-14343500D01*
X17057428Y-14357786D01*
X17371714Y-14529214D02*
X17343143Y-14514929D01*
X17328857Y-14500643D01*
X17314571Y-14472071D01*
X17314571Y-14386357D01*
X17328857Y-14357786D01*
X17343143Y-14343500D01*
X17371714Y-14329214D01*
X17414571Y-14329214D01*
X17443143Y-14343500D01*
X17457428Y-14357786D01*
X17471714Y-14386357D01*
X17471714Y-14472071D01*
X17457428Y-14500643D01*
X17443143Y-14514929D01*
X17414571Y-14529214D01*
X17371714Y-14529214D01*
X17643143Y-14529214D02*
X17614571Y-14514929D01*
X17600286Y-14486357D01*
X17600286Y-14229214D01*
X17871714Y-14514929D02*
X17843143Y-14529214D01*
X17786000Y-14529214D01*
X17757428Y-14514929D01*
X17743143Y-14486357D01*
X17743143Y-14372071D01*
X17757428Y-14343500D01*
X17786000Y-14329214D01*
X17843143Y-14329214D01*
X17871714Y-14343500D01*
X17886000Y-14372071D01*
X17886000Y-14400643D01*
X17743143Y-14429214D01*
X18000286Y-14514929D02*
X18028857Y-14529214D01*
X18086000Y-14529214D01*
X18114571Y-14514929D01*
X18128857Y-14486357D01*
X18128857Y-14472071D01*
X18114571Y-14443500D01*
X18086000Y-14429214D01*
X18043143Y-14429214D01*
X18014571Y-14414929D01*
X18000286Y-14386357D01*
X18000286Y-14372071D01*
X18014571Y-14343500D01*
X18043143Y-14329214D01*
X18086000Y-14329214D01*
X18114571Y-14343500D01*
X18228857Y-14643500D02*
X18243143Y-14629214D01*
X18271714Y-14586357D01*
X18286000Y-14557786D01*
X18300286Y-14514929D01*
X18314571Y-14443500D01*
X18314571Y-14386357D01*
X18300286Y-14314929D01*
X18286000Y-14272071D01*
X18271714Y-14243500D01*
X18243143Y-14200643D01*
X18228857Y-14186357D01*
X11156356Y-14824856D02*
X11156356Y-14754144D01*
X11085644Y-14754144D01*
X11085644Y-14824856D01*
X11156356Y-14824856D01*
X11614571Y-14925214D02*
X11443143Y-14925214D01*
X11528857Y-14925214D02*
X11528857Y-14625214D01*
X11500286Y-14668071D01*
X11471714Y-14696643D01*
X11443143Y-14710929D01*
X11743143Y-14896643D02*
X11757428Y-14910929D01*
X11743143Y-14925214D01*
X11728857Y-14910929D01*
X11743143Y-14896643D01*
X11743143Y-14925214D01*
X11943143Y-14625214D02*
X11971714Y-14625214D01*
X12000286Y-14639500D01*
X12014571Y-14653786D01*
X12028857Y-14682357D01*
X12043143Y-14739500D01*
X12043143Y-14810929D01*
X12028857Y-14868071D01*
X12014571Y-14896643D01*
X12000286Y-14910929D01*
X11971714Y-14925214D01*
X11943143Y-14925214D01*
X11914571Y-14910929D01*
X11900286Y-14896643D01*
X11886000Y-14868071D01*
X11871714Y-14810929D01*
X11871714Y-14739500D01*
X11886000Y-14682357D01*
X11900286Y-14653786D01*
X11914571Y-14639500D01*
X11943143Y-14625214D01*
X12228857Y-14625214D02*
X12257428Y-14625214D01*
X12286000Y-14639500D01*
X12300286Y-14653786D01*
X12314571Y-14682357D01*
X12328857Y-14739500D01*
X12328857Y-14810929D01*
X12314571Y-14868071D01*
X12300286Y-14896643D01*
X12286000Y-14910929D01*
X12257428Y-14925214D01*
X12228857Y-14925214D01*
X12200286Y-14910929D01*
X12186000Y-14896643D01*
X12171714Y-14868071D01*
X12157428Y-14810929D01*
X12157428Y-14739500D01*
X12171714Y-14682357D01*
X12186000Y-14653786D01*
X12200286Y-14639500D01*
X12228857Y-14625214D01*
X12514571Y-14625214D02*
X12543143Y-14625214D01*
X12571714Y-14639500D01*
X12586000Y-14653786D01*
X12600286Y-14682357D01*
X12614571Y-14739500D01*
X12614571Y-14810929D01*
X12600286Y-14868071D01*
X12586000Y-14896643D01*
X12571714Y-14910929D01*
X12543143Y-14925214D01*
X12514571Y-14925214D01*
X12486000Y-14910929D01*
X12471714Y-14896643D01*
X12457428Y-14868071D01*
X12443143Y-14810929D01*
X12443143Y-14739500D01*
X12457428Y-14682357D01*
X12471714Y-14653786D01*
X12486000Y-14639500D01*
X12514571Y-14625214D01*
X12743143Y-14925214D02*
X12743143Y-14725214D01*
X12743143Y-14753786D02*
X12757428Y-14739500D01*
X12786000Y-14725214D01*
X12828857Y-14725214D01*
X12857428Y-14739500D01*
X12871714Y-14768071D01*
X12871714Y-14925214D01*
X12871714Y-14768071D02*
X12886000Y-14739500D01*
X12914571Y-14725214D01*
X12957428Y-14725214D01*
X12986000Y-14739500D01*
X13000286Y-14768071D01*
X13000286Y-14925214D01*
X13143143Y-14925214D02*
X13143143Y-14725214D01*
X13143143Y-14753786D02*
X13157428Y-14739500D01*
X13186000Y-14725214D01*
X13228857Y-14725214D01*
X13257428Y-14739500D01*
X13271714Y-14768071D01*
X13271714Y-14925214D01*
X13271714Y-14768071D02*
X13286000Y-14739500D01*
X13314571Y-14725214D01*
X13357428Y-14725214D01*
X13386000Y-14739500D01*
X13400286Y-14768071D01*
X13400286Y-14925214D01*
X13986000Y-14610929D02*
X13728857Y-14996643D01*
X14371714Y-14625214D02*
X14400286Y-14625214D01*
X14428857Y-14639500D01*
X14443143Y-14653786D01*
X14457428Y-14682357D01*
X14471714Y-14739500D01*
X14471714Y-14810929D01*
X14457428Y-14868071D01*
X14443143Y-14896643D01*
X14428857Y-14910929D01*
X14400286Y-14925214D01*
X14371714Y-14925214D01*
X14343143Y-14910929D01*
X14328857Y-14896643D01*
X14314571Y-14868071D01*
X14300286Y-14810929D01*
X14300286Y-14739500D01*
X14314571Y-14682357D01*
X14328857Y-14653786D01*
X14343143Y-14639500D01*
X14371714Y-14625214D01*
X14600286Y-14896643D02*
X14614571Y-14910929D01*
X14600286Y-14925214D01*
X14586000Y-14910929D01*
X14600286Y-14896643D01*
X14600286Y-14925214D01*
X14800286Y-14625214D02*
X14828857Y-14625214D01*
X14857428Y-14639500D01*
X14871714Y-14653786D01*
X14886000Y-14682357D01*
X14900286Y-14739500D01*
X14900286Y-14810929D01*
X14886000Y-14868071D01*
X14871714Y-14896643D01*
X14857428Y-14910929D01*
X14828857Y-14925214D01*
X14800286Y-14925214D01*
X14771714Y-14910929D01*
X14757428Y-14896643D01*
X14743143Y-14868071D01*
X14728857Y-14810929D01*
X14728857Y-14739500D01*
X14743143Y-14682357D01*
X14757428Y-14653786D01*
X14771714Y-14639500D01*
X14800286Y-14625214D01*
X15000286Y-14625214D02*
X15186000Y-14625214D01*
X15086000Y-14739500D01*
X15128857Y-14739500D01*
X15157428Y-14753786D01*
X15171714Y-14768071D01*
X15186000Y-14796643D01*
X15186000Y-14868071D01*
X15171714Y-14896643D01*
X15157428Y-14910929D01*
X15128857Y-14925214D01*
X15043143Y-14925214D01*
X15014571Y-14910929D01*
X15000286Y-14896643D01*
X15328857Y-14925214D02*
X15386000Y-14925214D01*
X15414571Y-14910929D01*
X15428857Y-14896643D01*
X15457428Y-14853786D01*
X15471714Y-14796643D01*
X15471714Y-14682357D01*
X15457428Y-14653786D01*
X15443143Y-14639500D01*
X15414571Y-14625214D01*
X15357428Y-14625214D01*
X15328857Y-14639500D01*
X15314571Y-14653786D01*
X15300286Y-14682357D01*
X15300286Y-14753786D01*
X15314571Y-14782357D01*
X15328857Y-14796643D01*
X15357428Y-14810929D01*
X15414571Y-14810929D01*
X15443143Y-14796643D01*
X15457428Y-14782357D01*
X15471714Y-14753786D01*
X15728857Y-14725214D02*
X15728857Y-14925214D01*
X15657428Y-14610929D02*
X15586000Y-14825214D01*
X15771714Y-14825214D01*
X15871714Y-14625214D02*
X15871714Y-14682357D01*
X15986000Y-14625214D02*
X15986000Y-14682357D01*
X16428857Y-15039500D02*
X16414571Y-15025214D01*
X16386000Y-14982357D01*
X16371714Y-14953786D01*
X16357428Y-14910929D01*
X16343143Y-14839500D01*
X16343143Y-14782357D01*
X16357428Y-14710929D01*
X16371714Y-14668071D01*
X16386000Y-14639500D01*
X16414571Y-14596643D01*
X16428857Y-14582357D01*
X16700286Y-14925214D02*
X16528857Y-14925214D01*
X16614571Y-14925214D02*
X16614571Y-14625214D01*
X16586000Y-14668071D01*
X16557428Y-14696643D01*
X16528857Y-14710929D01*
X16871714Y-14753786D02*
X16843143Y-14739500D01*
X16828857Y-14725214D01*
X16814571Y-14696643D01*
X16814571Y-14682357D01*
X16828857Y-14653786D01*
X16843143Y-14639500D01*
X16871714Y-14625214D01*
X16928857Y-14625214D01*
X16957428Y-14639500D01*
X16971714Y-14653786D01*
X16986000Y-14682357D01*
X16986000Y-14696643D01*
X16971714Y-14725214D01*
X16957428Y-14739500D01*
X16928857Y-14753786D01*
X16871714Y-14753786D01*
X16843143Y-14768071D01*
X16828857Y-14782357D01*
X16814571Y-14810929D01*
X16814571Y-14868071D01*
X16828857Y-14896643D01*
X16843143Y-14910929D01*
X16871714Y-14925214D01*
X16928857Y-14925214D01*
X16957428Y-14910929D01*
X16971714Y-14896643D01*
X16986000Y-14868071D01*
X16986000Y-14810929D01*
X16971714Y-14782357D01*
X16957428Y-14768071D01*
X16928857Y-14753786D01*
X17343143Y-14925214D02*
X17343143Y-14625214D01*
X17471714Y-14925214D02*
X17471714Y-14768071D01*
X17457428Y-14739500D01*
X17428857Y-14725214D01*
X17386000Y-14725214D01*
X17357428Y-14739500D01*
X17343143Y-14753786D01*
X17657428Y-14925214D02*
X17628857Y-14910929D01*
X17614571Y-14896643D01*
X17600286Y-14868071D01*
X17600286Y-14782357D01*
X17614571Y-14753786D01*
X17628857Y-14739500D01*
X17657428Y-14725214D01*
X17700286Y-14725214D01*
X17728857Y-14739500D01*
X17743143Y-14753786D01*
X17757428Y-14782357D01*
X17757428Y-14868071D01*
X17743143Y-14896643D01*
X17728857Y-14910929D01*
X17700286Y-14925214D01*
X17657428Y-14925214D01*
X17928857Y-14925214D02*
X17900286Y-14910929D01*
X17886000Y-14882357D01*
X17886000Y-14625214D01*
X18157428Y-14910929D02*
X18128857Y-14925214D01*
X18071714Y-14925214D01*
X18043143Y-14910929D01*
X18028857Y-14882357D01*
X18028857Y-14768071D01*
X18043143Y-14739500D01*
X18071714Y-14725214D01*
X18128857Y-14725214D01*
X18157428Y-14739500D01*
X18171714Y-14768071D01*
X18171714Y-14796643D01*
X18028857Y-14825214D01*
X18286000Y-14910929D02*
X18314571Y-14925214D01*
X18371714Y-14925214D01*
X18400286Y-14910929D01*
X18414571Y-14882357D01*
X18414571Y-14868071D01*
X18400286Y-14839500D01*
X18371714Y-14825214D01*
X18328857Y-14825214D01*
X18300286Y-14810929D01*
X18286000Y-14782357D01*
X18286000Y-14768071D01*
X18300286Y-14739500D01*
X18328857Y-14725214D01*
X18371714Y-14725214D01*
X18400286Y-14739500D01*
X18514571Y-15039500D02*
X18528857Y-15025214D01*
X18557428Y-14982357D01*
X18571714Y-14953786D01*
X18586000Y-14910929D01*
X18600286Y-14839500D01*
X18600286Y-14782357D01*
X18586000Y-14710929D01*
X18571714Y-14668071D01*
X18557428Y-14639500D01*
X18528857Y-14596643D01*
X18514571Y-14582357D01*
X11061000Y-15295500D02*
X11171000Y-15185500D01*
X11061000Y-15075500D01*
X10951000Y-15185500D01*
X11061000Y-15295500D01*
X11443143Y-15049786D02*
X11457428Y-15035500D01*
X11486000Y-15021214D01*
X11557428Y-15021214D01*
X11586000Y-15035500D01*
X11600286Y-15049786D01*
X11614571Y-15078357D01*
X11614571Y-15106929D01*
X11600286Y-15149786D01*
X11428857Y-15321214D01*
X11614571Y-15321214D01*
X11743143Y-15292643D02*
X11757428Y-15306929D01*
X11743143Y-15321214D01*
X11728857Y-15306929D01*
X11743143Y-15292643D01*
X11743143Y-15321214D01*
X11871714Y-15049786D02*
X11886000Y-15035500D01*
X11914571Y-15021214D01*
X11986000Y-15021214D01*
X12014571Y-15035500D01*
X12028857Y-15049786D01*
X12043143Y-15078357D01*
X12043143Y-15106929D01*
X12028857Y-15149786D01*
X11857428Y-15321214D01*
X12043143Y-15321214D01*
X12228857Y-15021214D02*
X12257428Y-15021214D01*
X12286000Y-15035500D01*
X12300286Y-15049786D01*
X12314571Y-15078357D01*
X12328857Y-15135500D01*
X12328857Y-15206929D01*
X12314571Y-15264071D01*
X12300286Y-15292643D01*
X12286000Y-15306929D01*
X12257428Y-15321214D01*
X12228857Y-15321214D01*
X12200286Y-15306929D01*
X12186000Y-15292643D01*
X12171714Y-15264071D01*
X12157428Y-15206929D01*
X12157428Y-15135500D01*
X12171714Y-15078357D01*
X12186000Y-15049786D01*
X12200286Y-15035500D01*
X12228857Y-15021214D01*
X12514571Y-15021214D02*
X12543143Y-15021214D01*
X12571714Y-15035500D01*
X12586000Y-15049786D01*
X12600286Y-15078357D01*
X12614571Y-15135500D01*
X12614571Y-15206929D01*
X12600286Y-15264071D01*
X12586000Y-15292643D01*
X12571714Y-15306929D01*
X12543143Y-15321214D01*
X12514571Y-15321214D01*
X12486000Y-15306929D01*
X12471714Y-15292643D01*
X12457428Y-15264071D01*
X12443143Y-15206929D01*
X12443143Y-15135500D01*
X12457428Y-15078357D01*
X12471714Y-15049786D01*
X12486000Y-15035500D01*
X12514571Y-15021214D01*
X12743143Y-15321214D02*
X12743143Y-15121214D01*
X12743143Y-15149786D02*
X12757428Y-15135500D01*
X12786000Y-15121214D01*
X12828857Y-15121214D01*
X12857428Y-15135500D01*
X12871714Y-15164071D01*
X12871714Y-15321214D01*
X12871714Y-15164071D02*
X12886000Y-15135500D01*
X12914571Y-15121214D01*
X12957428Y-15121214D01*
X12986000Y-15135500D01*
X13000286Y-15164071D01*
X13000286Y-15321214D01*
X13143143Y-15321214D02*
X13143143Y-15121214D01*
X13143143Y-15149786D02*
X13157428Y-15135500D01*
X13186000Y-15121214D01*
X13228857Y-15121214D01*
X13257428Y-15135500D01*
X13271714Y-15164071D01*
X13271714Y-15321214D01*
X13271714Y-15164071D02*
X13286000Y-15135500D01*
X13314571Y-15121214D01*
X13357428Y-15121214D01*
X13386000Y-15135500D01*
X13400286Y-15164071D01*
X13400286Y-15321214D01*
X13986000Y-15006929D02*
X13728857Y-15392643D01*
X14371714Y-15021214D02*
X14400286Y-15021214D01*
X14428857Y-15035500D01*
X14443143Y-15049786D01*
X14457428Y-15078357D01*
X14471714Y-15135500D01*
X14471714Y-15206929D01*
X14457428Y-15264071D01*
X14443143Y-15292643D01*
X14428857Y-15306929D01*
X14400286Y-15321214D01*
X14371714Y-15321214D01*
X14343143Y-15306929D01*
X14328857Y-15292643D01*
X14314571Y-15264071D01*
X14300286Y-15206929D01*
X14300286Y-15135500D01*
X14314571Y-15078357D01*
X14328857Y-15049786D01*
X14343143Y-15035500D01*
X14371714Y-15021214D01*
X14600286Y-15292643D02*
X14614571Y-15306929D01*
X14600286Y-15321214D01*
X14586000Y-15306929D01*
X14600286Y-15292643D01*
X14600286Y-15321214D01*
X14800286Y-15021214D02*
X14828857Y-15021214D01*
X14857428Y-15035500D01*
X14871714Y-15049786D01*
X14886000Y-15078357D01*
X14900286Y-15135500D01*
X14900286Y-15206929D01*
X14886000Y-15264071D01*
X14871714Y-15292643D01*
X14857428Y-15306929D01*
X14828857Y-15321214D01*
X14800286Y-15321214D01*
X14771714Y-15306929D01*
X14757428Y-15292643D01*
X14743143Y-15264071D01*
X14728857Y-15206929D01*
X14728857Y-15135500D01*
X14743143Y-15078357D01*
X14757428Y-15049786D01*
X14771714Y-15035500D01*
X14800286Y-15021214D01*
X15071714Y-15149786D02*
X15043143Y-15135500D01*
X15028857Y-15121214D01*
X15014571Y-15092643D01*
X15014571Y-15078357D01*
X15028857Y-15049786D01*
X15043143Y-15035500D01*
X15071714Y-15021214D01*
X15128857Y-15021214D01*
X15157428Y-15035500D01*
X15171714Y-15049786D01*
X15186000Y-15078357D01*
X15186000Y-15092643D01*
X15171714Y-15121214D01*
X15157428Y-15135500D01*
X15128857Y-15149786D01*
X15071714Y-15149786D01*
X15043143Y-15164071D01*
X15028857Y-15178357D01*
X15014571Y-15206929D01*
X15014571Y-15264071D01*
X15028857Y-15292643D01*
X15043143Y-15306929D01*
X15071714Y-15321214D01*
X15128857Y-15321214D01*
X15157428Y-15306929D01*
X15171714Y-15292643D01*
X15186000Y-15264071D01*
X15186000Y-15206929D01*
X15171714Y-15178357D01*
X15157428Y-15164071D01*
X15128857Y-15149786D01*
X15443143Y-15021214D02*
X15386000Y-15021214D01*
X15357428Y-15035500D01*
X15343143Y-15049786D01*
X15314571Y-15092643D01*
X15300286Y-15149786D01*
X15300286Y-15264071D01*
X15314571Y-15292643D01*
X15328857Y-15306929D01*
X15357428Y-15321214D01*
X15414571Y-15321214D01*
X15443143Y-15306929D01*
X15457428Y-15292643D01*
X15471714Y-15264071D01*
X15471714Y-15192643D01*
X15457428Y-15164071D01*
X15443143Y-15149786D01*
X15414571Y-15135500D01*
X15357428Y-15135500D01*
X15328857Y-15149786D01*
X15314571Y-15164071D01*
X15300286Y-15192643D01*
X15728857Y-15021214D02*
X15671714Y-15021214D01*
X15643143Y-15035500D01*
X15628857Y-15049786D01*
X15600286Y-15092643D01*
X15586000Y-15149786D01*
X15586000Y-15264071D01*
X15600286Y-15292643D01*
X15614571Y-15306929D01*
X15643143Y-15321214D01*
X15700286Y-15321214D01*
X15728857Y-15306929D01*
X15743143Y-15292643D01*
X15757428Y-15264071D01*
X15757428Y-15192643D01*
X15743143Y-15164071D01*
X15728857Y-15149786D01*
X15700286Y-15135500D01*
X15643143Y-15135500D01*
X15614571Y-15149786D01*
X15600286Y-15164071D01*
X15586000Y-15192643D01*
X15871714Y-15021214D02*
X15871714Y-15078357D01*
X15986000Y-15021214D02*
X15986000Y-15078357D01*
X16428857Y-15435500D02*
X16414571Y-15421214D01*
X16386000Y-15378357D01*
X16371714Y-15349786D01*
X16357428Y-15306929D01*
X16343143Y-15235500D01*
X16343143Y-15178357D01*
X16357428Y-15106929D01*
X16371714Y-15064071D01*
X16386000Y-15035500D01*
X16414571Y-14992643D01*
X16428857Y-14978357D01*
X16671714Y-15121214D02*
X16671714Y-15321214D01*
X16600286Y-15006929D02*
X16528857Y-15221214D01*
X16714571Y-15221214D01*
X17057428Y-15321214D02*
X17057428Y-15021214D01*
X17186000Y-15321214D02*
X17186000Y-15164071D01*
X17171714Y-15135500D01*
X17143143Y-15121214D01*
X17100286Y-15121214D01*
X17071714Y-15135500D01*
X17057428Y-15149786D01*
X17371714Y-15321214D02*
X17343143Y-15306929D01*
X17328857Y-15292643D01*
X17314571Y-15264071D01*
X17314571Y-15178357D01*
X17328857Y-15149786D01*
X17343143Y-15135500D01*
X17371714Y-15121214D01*
X17414571Y-15121214D01*
X17443143Y-15135500D01*
X17457428Y-15149786D01*
X17471714Y-15178357D01*
X17471714Y-15264071D01*
X17457428Y-15292643D01*
X17443143Y-15306929D01*
X17414571Y-15321214D01*
X17371714Y-15321214D01*
X17643143Y-15321214D02*
X17614571Y-15306929D01*
X17600286Y-15278357D01*
X17600286Y-15021214D01*
X17871714Y-15306929D02*
X17843143Y-15321214D01*
X17786000Y-15321214D01*
X17757428Y-15306929D01*
X17743143Y-15278357D01*
X17743143Y-15164071D01*
X17757428Y-15135500D01*
X17786000Y-15121214D01*
X17843143Y-15121214D01*
X17871714Y-15135500D01*
X17886000Y-15164071D01*
X17886000Y-15192643D01*
X17743143Y-15221214D01*
X18000286Y-15306929D02*
X18028857Y-15321214D01*
X18086000Y-15321214D01*
X18114571Y-15306929D01*
X18128857Y-15278357D01*
X18128857Y-15264071D01*
X18114571Y-15235500D01*
X18086000Y-15221214D01*
X18043143Y-15221214D01*
X18014571Y-15206929D01*
X18000286Y-15178357D01*
X18000286Y-15164071D01*
X18014571Y-15135500D01*
X18043143Y-15121214D01*
X18086000Y-15121214D01*
X18114571Y-15135500D01*
X18228857Y-15435500D02*
X18243143Y-15421214D01*
X18271714Y-15378357D01*
X18286000Y-15349786D01*
X18300286Y-15306929D01*
X18314571Y-15235500D01*
X18314571Y-15178357D01*
X18300286Y-15106929D01*
X18286000Y-15064071D01*
X18271714Y-15035500D01*
X18243143Y-14992643D01*
X18228857Y-14978357D01*
M02*
