M48
; DRILL file {KiCad (5.1.10-1-10_14)} date Thursday, December 16, 2021 at 04:27:28 PM
; FORMAT={-:-/ absolute / metric / decimal}
; #@! TF.CreationDate,2021-12-16T16:27:28-08:00
; #@! TF.GenerationSoftware,Kicad,Pcbnew,(5.1.10-1-10_14)
; #@! TF.FileFunction,Plated,1,2,PTH
FMAT,2
METRIC
T1C0.350
T2C0.800
T3C1.000
T4C2.200
%
G90
G05
T1
X122.123Y-113.69
X122.123Y-114.706
X122.123Y-115.621
X122.326Y-110.439
X122.885Y-109.677
X123.596Y-110.439
X124.612Y-111.354
X124.612Y-112.42
X124.968Y-110.439
X125.679Y-111.354
X125.679Y-112.42
X127.0Y-125.095
X127.635Y-117.475
X131.064Y-116.84
X131.241Y-120.802
X132.08Y-121.412
X132.08Y-122.428
X132.08Y-123.825
X132.08Y-125.095
X132.588Y-119.38
X133.553Y-106.934
X136.525Y-121.285
X136.525Y-122.555
X139.192Y-111.688
X139.192Y-113.792
X140.666Y-122.886
X140.732Y-109.004
X141.361Y-121.37
X141.732Y-124.46
X141.744Y-120.289
X142.305Y-116.205
X144.283Y-116.016
X144.831Y-101.397
X145.608Y-110.631
X145.796Y-120.396
X146.05Y-125.052
X148.561Y-114.257
X150.495Y-117.475
X153.67Y-106.223
X153.735Y-109.22
X153.81Y-122.235
X156.21Y-99.06
X156.21Y-125.454
X156.75Y-116.316
X156.845Y-106.045
X160.02Y-116.205
T2
X128.27Y-111.252
X130.77Y-111.252
T3
X117.348Y-114.3
X117.348Y-119.3
X117.792Y-103.822
X120.332Y-103.822
X122.872Y-103.822
X125.412Y-103.822
X129.159Y-103.822
X131.699Y-103.822
X134.239Y-103.822
X136.779Y-103.822
X140.462Y-103.822
X143.002Y-103.822
X145.542Y-103.822
X149.288Y-103.822
X151.828Y-103.822
X154.368Y-103.822
T4
X114.3Y-96.52
X114.3Y-123.825
X158.75Y-96.52
X158.75Y-123.825
T0
M30
