G04 #@! TF.GenerationSoftware,KiCad,Pcbnew,(5.1.10-1-10_14)*
G04 #@! TF.CreationDate,2021-12-18T09:27:52-08:00*
G04 #@! TF.ProjectId,qiroll PAS digital logic,7169726f-6c6c-4205-9041-532064696769,rev?*
G04 #@! TF.SameCoordinates,Original*
G04 #@! TF.FileFunction,Copper,L1,Top*
G04 #@! TF.FilePolarity,Positive*
%FSLAX46Y46*%
G04 Gerber Fmt 4.6, Leading zero omitted, Abs format (unit mm)*
G04 Created by KiCad (PCBNEW (5.1.10-1-10_14)) date 2021-12-18 09:27:52*
%MOMM*%
%LPD*%
G01*
G04 APERTURE LIST*
G04 #@! TA.AperFunction,EtchedComponent*
%ADD10C,0.100000*%
G04 #@! TD*
G04 #@! TA.AperFunction,ComponentPad*
%ADD11O,1.700000X1.700000*%
G04 #@! TD*
G04 #@! TA.AperFunction,ComponentPad*
%ADD12R,1.700000X1.700000*%
G04 #@! TD*
G04 #@! TA.AperFunction,SMDPad,CuDef*
%ADD13R,0.900000X0.800000*%
G04 #@! TD*
G04 #@! TA.AperFunction,SMDPad,CuDef*
%ADD14R,0.600000X0.700000*%
G04 #@! TD*
G04 #@! TA.AperFunction,SMDPad,CuDef*
%ADD15R,0.700000X0.600000*%
G04 #@! TD*
G04 #@! TA.AperFunction,SMDPad,CuDef*
%ADD16C,0.100000*%
G04 #@! TD*
G04 #@! TA.AperFunction,SMDPad,CuDef*
%ADD17R,1.000000X1.500000*%
G04 #@! TD*
G04 #@! TA.AperFunction,SMDPad,CuDef*
%ADD18R,1.300000X1.700000*%
G04 #@! TD*
G04 #@! TA.AperFunction,ComponentPad*
%ADD19C,1.600000*%
G04 #@! TD*
G04 #@! TA.AperFunction,ComponentPad*
%ADD20R,1.600000X1.600000*%
G04 #@! TD*
G04 #@! TA.AperFunction,ComponentPad*
%ADD21C,3.800000*%
G04 #@! TD*
G04 #@! TA.AperFunction,ComponentPad*
%ADD22C,2.000000*%
G04 #@! TD*
G04 #@! TA.AperFunction,ComponentPad*
%ADD23R,2.000000X2.000000*%
G04 #@! TD*
G04 #@! TA.AperFunction,ViaPad*
%ADD24C,0.650000*%
G04 #@! TD*
G04 #@! TA.AperFunction,Conductor*
%ADD25C,0.150000*%
G04 #@! TD*
G04 #@! TA.AperFunction,Conductor*
%ADD26C,0.254000*%
G04 #@! TD*
G04 #@! TA.AperFunction,Conductor*
%ADD27C,0.100000*%
G04 #@! TD*
G04 APERTURE END LIST*
D10*
G04 #@! TO.C,JP1*
G36*
X135244000Y-109936000D02*
G01*
X135744000Y-109936000D01*
X135744000Y-110536000D01*
X135244000Y-110536000D01*
X135244000Y-109936000D01*
G37*
G04 #@! TD*
D11*
G04 #@! TO.P,J4,4*
G04 #@! TO.N,Net-(D2-Pad2)*
X125412500Y-103822500D03*
G04 #@! TO.P,J4,3*
G04 #@! TO.N,Net-(J4-Pad3)*
X122872500Y-103822500D03*
G04 #@! TO.P,J4,2*
G04 #@! TO.N,Net-(F1-Pad2)*
X120332500Y-103822500D03*
D12*
G04 #@! TO.P,J4,1*
G04 #@! TO.N,GND*
X117792500Y-103822500D03*
G04 #@! TD*
D13*
G04 #@! TO.P,U7,3*
G04 #@! TO.N,Net-(C10-Pad1)*
X121872500Y-108013500D03*
G04 #@! TO.P,U7,2*
G04 #@! TO.N,VDD*
X123872500Y-107063500D03*
G04 #@! TO.P,U7,1*
G04 #@! TO.N,GND*
X123872500Y-108963500D03*
G04 #@! TD*
D11*
G04 #@! TO.P,J5,3*
G04 #@! TO.N,Net-(F1-Pad2)*
X154368500Y-103822500D03*
G04 #@! TO.P,J5,2*
G04 #@! TO.N,GND*
X151828500Y-103822500D03*
D12*
G04 #@! TO.P,J5,1*
G04 #@! TO.N,Net-(D2-Pad1)*
X149288500Y-103822500D03*
G04 #@! TD*
D11*
G04 #@! TO.P,J3,3*
G04 #@! TO.N,Net-(J3-Pad3)*
X140462000Y-103822500D03*
G04 #@! TO.P,J3,2*
G04 #@! TO.N,GND*
X143002000Y-103822500D03*
D12*
G04 #@! TO.P,J3,1*
G04 #@! TO.N,VDD*
X145542000Y-103822500D03*
G04 #@! TD*
D11*
G04 #@! TO.P,J2,4*
G04 #@! TO.N,Net-(J2-Pad4)*
X129159000Y-103822500D03*
G04 #@! TO.P,J2,3*
G04 #@! TO.N,Net-(C2-Pad2)*
X131699000Y-103822500D03*
G04 #@! TO.P,J2,2*
G04 #@! TO.N,Net-(D2-Pad1)*
X134239000Y-103822500D03*
D12*
G04 #@! TO.P,J2,1*
G04 #@! TO.N,GND*
X136779000Y-103822500D03*
G04 #@! TD*
G04 #@! TO.P,R12,2*
G04 #@! TO.N,GND*
G04 #@! TA.AperFunction,SMDPad,CuDef*
G36*
G01*
X124543000Y-115549000D02*
X124543000Y-116099000D01*
G75*
G02*
X124343000Y-116299000I-200000J0D01*
G01*
X123943000Y-116299000D01*
G75*
G02*
X123743000Y-116099000I0J200000D01*
G01*
X123743000Y-115549000D01*
G75*
G02*
X123943000Y-115349000I200000J0D01*
G01*
X124343000Y-115349000D01*
G75*
G02*
X124543000Y-115549000I0J-200000D01*
G01*
G37*
G04 #@! TD.AperFunction*
G04 #@! TO.P,R12,1*
G04 #@! TO.N,Net-(D4-Pad1)*
G04 #@! TA.AperFunction,SMDPad,CuDef*
G36*
G01*
X126193000Y-115549000D02*
X126193000Y-116099000D01*
G75*
G02*
X125993000Y-116299000I-200000J0D01*
G01*
X125593000Y-116299000D01*
G75*
G02*
X125393000Y-116099000I0J200000D01*
G01*
X125393000Y-115549000D01*
G75*
G02*
X125593000Y-115349000I200000J0D01*
G01*
X125993000Y-115349000D01*
G75*
G02*
X126193000Y-115549000I0J-200000D01*
G01*
G37*
G04 #@! TD.AperFunction*
G04 #@! TD*
D14*
G04 #@! TO.P,D5,1*
G04 #@! TO.N,Net-(D4-Pad1)*
X127316000Y-115824000D03*
G04 #@! TO.P,D5,2*
G04 #@! TO.N,Net-(D5-Pad2)*
X128716000Y-115824000D03*
G04 #@! TD*
G04 #@! TO.P,D4,1*
G04 #@! TO.N,Net-(D4-Pad1)*
X130048000Y-115824000D03*
G04 #@! TO.P,D4,2*
G04 #@! TO.N,Net-(D4-Pad2)*
X131448000Y-115824000D03*
G04 #@! TD*
D15*
G04 #@! TO.P,D3,1*
G04 #@! TO.N,Net-(D3-Pad1)*
X125730000Y-108192800D03*
G04 #@! TO.P,D3,2*
G04 #@! TO.N,Net-(D2-Pad2)*
X125730000Y-106792800D03*
G04 #@! TD*
D14*
G04 #@! TO.P,D2,1*
G04 #@! TO.N,Net-(D2-Pad1)*
X129579600Y-106883200D03*
G04 #@! TO.P,D2,2*
G04 #@! TO.N,Net-(D2-Pad2)*
X128179600Y-106883200D03*
G04 #@! TD*
G04 #@! TO.P,C15,2*
G04 #@! TO.N,GND*
G04 #@! TA.AperFunction,SMDPad,CuDef*
G36*
G01*
X134295000Y-114050000D02*
X134295000Y-114550000D01*
G75*
G02*
X134070000Y-114775000I-225000J0D01*
G01*
X133620000Y-114775000D01*
G75*
G02*
X133395000Y-114550000I0J225000D01*
G01*
X133395000Y-114050000D01*
G75*
G02*
X133620000Y-113825000I225000J0D01*
G01*
X134070000Y-113825000D01*
G75*
G02*
X134295000Y-114050000I0J-225000D01*
G01*
G37*
G04 #@! TD.AperFunction*
G04 #@! TO.P,C15,1*
G04 #@! TO.N,VDD*
G04 #@! TA.AperFunction,SMDPad,CuDef*
G36*
G01*
X135845000Y-114050000D02*
X135845000Y-114550000D01*
G75*
G02*
X135620000Y-114775000I-225000J0D01*
G01*
X135170000Y-114775000D01*
G75*
G02*
X134945000Y-114550000I0J225000D01*
G01*
X134945000Y-114050000D01*
G75*
G02*
X135170000Y-113825000I225000J0D01*
G01*
X135620000Y-113825000D01*
G75*
G02*
X135845000Y-114050000I0J-225000D01*
G01*
G37*
G04 #@! TD.AperFunction*
G04 #@! TD*
G04 #@! TA.AperFunction,SMDPad,CuDef*
D16*
G04 #@! TO.P,JP1,1*
G04 #@! TO.N,Net-(JP1-Pad1)*
G36*
X135394000Y-110986000D02*
G01*
X134844000Y-110986000D01*
X134844000Y-110985398D01*
X134819466Y-110985398D01*
X134770635Y-110980588D01*
X134722510Y-110971016D01*
X134675555Y-110956772D01*
X134630222Y-110937995D01*
X134586949Y-110914864D01*
X134546150Y-110887604D01*
X134508221Y-110856476D01*
X134473524Y-110821779D01*
X134442396Y-110783850D01*
X134415136Y-110743051D01*
X134392005Y-110699778D01*
X134373228Y-110654445D01*
X134358984Y-110607490D01*
X134349412Y-110559365D01*
X134344602Y-110510534D01*
X134344602Y-110486000D01*
X134344000Y-110486000D01*
X134344000Y-109986000D01*
X134344602Y-109986000D01*
X134344602Y-109961466D01*
X134349412Y-109912635D01*
X134358984Y-109864510D01*
X134373228Y-109817555D01*
X134392005Y-109772222D01*
X134415136Y-109728949D01*
X134442396Y-109688150D01*
X134473524Y-109650221D01*
X134508221Y-109615524D01*
X134546150Y-109584396D01*
X134586949Y-109557136D01*
X134630222Y-109534005D01*
X134675555Y-109515228D01*
X134722510Y-109500984D01*
X134770635Y-109491412D01*
X134819466Y-109486602D01*
X134844000Y-109486602D01*
X134844000Y-109486000D01*
X135394000Y-109486000D01*
X135394000Y-110986000D01*
G37*
G04 #@! TD.AperFunction*
D17*
G04 #@! TO.P,JP1,2*
G04 #@! TO.N,Net-(D3-Pad1)*
X136144000Y-110236000D03*
G04 #@! TA.AperFunction,SMDPad,CuDef*
D16*
G04 #@! TO.P,JP1,3*
G04 #@! TO.N,Net-(JP1-Pad3)*
G36*
X137444000Y-109486602D02*
G01*
X137468534Y-109486602D01*
X137517365Y-109491412D01*
X137565490Y-109500984D01*
X137612445Y-109515228D01*
X137657778Y-109534005D01*
X137701051Y-109557136D01*
X137741850Y-109584396D01*
X137779779Y-109615524D01*
X137814476Y-109650221D01*
X137845604Y-109688150D01*
X137872864Y-109728949D01*
X137895995Y-109772222D01*
X137914772Y-109817555D01*
X137929016Y-109864510D01*
X137938588Y-109912635D01*
X137943398Y-109961466D01*
X137943398Y-109986000D01*
X137944000Y-109986000D01*
X137944000Y-110486000D01*
X137943398Y-110486000D01*
X137943398Y-110510534D01*
X137938588Y-110559365D01*
X137929016Y-110607490D01*
X137914772Y-110654445D01*
X137895995Y-110699778D01*
X137872864Y-110743051D01*
X137845604Y-110783850D01*
X137814476Y-110821779D01*
X137779779Y-110856476D01*
X137741850Y-110887604D01*
X137701051Y-110914864D01*
X137657778Y-110937995D01*
X137612445Y-110956772D01*
X137565490Y-110971016D01*
X137517365Y-110980588D01*
X137468534Y-110985398D01*
X137444000Y-110985398D01*
X137444000Y-110986000D01*
X136894000Y-110986000D01*
X136894000Y-109486000D01*
X137444000Y-109486000D01*
X137444000Y-109486602D01*
G37*
G04 #@! TD.AperFunction*
G04 #@! TD*
G04 #@! TO.P,C14,2*
G04 #@! TO.N,GND*
G04 #@! TA.AperFunction,SMDPad,CuDef*
G36*
G01*
X134536000Y-112526000D02*
X134536000Y-113026000D01*
G75*
G02*
X134311000Y-113251000I-225000J0D01*
G01*
X133861000Y-113251000D01*
G75*
G02*
X133636000Y-113026000I0J225000D01*
G01*
X133636000Y-112526000D01*
G75*
G02*
X133861000Y-112301000I225000J0D01*
G01*
X134311000Y-112301000D01*
G75*
G02*
X134536000Y-112526000I0J-225000D01*
G01*
G37*
G04 #@! TD.AperFunction*
G04 #@! TO.P,C14,1*
G04 #@! TO.N,VDD*
G04 #@! TA.AperFunction,SMDPad,CuDef*
G36*
G01*
X136086000Y-112526000D02*
X136086000Y-113026000D01*
G75*
G02*
X135861000Y-113251000I-225000J0D01*
G01*
X135411000Y-113251000D01*
G75*
G02*
X135186000Y-113026000I0J225000D01*
G01*
X135186000Y-112526000D01*
G75*
G02*
X135411000Y-112301000I225000J0D01*
G01*
X135861000Y-112301000D01*
G75*
G02*
X136086000Y-112526000I0J-225000D01*
G01*
G37*
G04 #@! TD.AperFunction*
G04 #@! TD*
G04 #@! TO.P,R11,2*
G04 #@! TO.N,Net-(R11-Pad2)*
G04 #@! TA.AperFunction,SMDPad,CuDef*
G36*
G01*
X153650000Y-125370000D02*
X153650000Y-124820000D01*
G75*
G02*
X153850000Y-124620000I200000J0D01*
G01*
X154250000Y-124620000D01*
G75*
G02*
X154450000Y-124820000I0J-200000D01*
G01*
X154450000Y-125370000D01*
G75*
G02*
X154250000Y-125570000I-200000J0D01*
G01*
X153850000Y-125570000D01*
G75*
G02*
X153650000Y-125370000I0J200000D01*
G01*
G37*
G04 #@! TD.AperFunction*
G04 #@! TO.P,R11,1*
G04 #@! TO.N,Net-(R11-Pad1)*
G04 #@! TA.AperFunction,SMDPad,CuDef*
G36*
G01*
X152000000Y-125370000D02*
X152000000Y-124820000D01*
G75*
G02*
X152200000Y-124620000I200000J0D01*
G01*
X152600000Y-124620000D01*
G75*
G02*
X152800000Y-124820000I0J-200000D01*
G01*
X152800000Y-125370000D01*
G75*
G02*
X152600000Y-125570000I-200000J0D01*
G01*
X152200000Y-125570000D01*
G75*
G02*
X152000000Y-125370000I0J200000D01*
G01*
G37*
G04 #@! TD.AperFunction*
G04 #@! TD*
G04 #@! TO.P,R10,2*
G04 #@! TO.N,Net-(C9-Pad1)*
G04 #@! TA.AperFunction,SMDPad,CuDef*
G36*
G01*
X150070000Y-109580000D02*
X150070000Y-110130000D01*
G75*
G02*
X149870000Y-110330000I-200000J0D01*
G01*
X149470000Y-110330000D01*
G75*
G02*
X149270000Y-110130000I0J200000D01*
G01*
X149270000Y-109580000D01*
G75*
G02*
X149470000Y-109380000I200000J0D01*
G01*
X149870000Y-109380000D01*
G75*
G02*
X150070000Y-109580000I0J-200000D01*
G01*
G37*
G04 #@! TD.AperFunction*
G04 #@! TO.P,R10,1*
G04 #@! TO.N,Net-(R10-Pad1)*
G04 #@! TA.AperFunction,SMDPad,CuDef*
G36*
G01*
X151720000Y-109580000D02*
X151720000Y-110130000D01*
G75*
G02*
X151520000Y-110330000I-200000J0D01*
G01*
X151120000Y-110330000D01*
G75*
G02*
X150920000Y-110130000I0J200000D01*
G01*
X150920000Y-109580000D01*
G75*
G02*
X151120000Y-109380000I200000J0D01*
G01*
X151520000Y-109380000D01*
G75*
G02*
X151720000Y-109580000I0J-200000D01*
G01*
G37*
G04 #@! TD.AperFunction*
G04 #@! TD*
G04 #@! TO.P,R9,2*
G04 #@! TO.N,Net-(C9-Pad1)*
G04 #@! TA.AperFunction,SMDPad,CuDef*
G36*
G01*
X154095000Y-107590000D02*
X154095000Y-107040000D01*
G75*
G02*
X154295000Y-106840000I200000J0D01*
G01*
X154695000Y-106840000D01*
G75*
G02*
X154895000Y-107040000I0J-200000D01*
G01*
X154895000Y-107590000D01*
G75*
G02*
X154695000Y-107790000I-200000J0D01*
G01*
X154295000Y-107790000D01*
G75*
G02*
X154095000Y-107590000I0J200000D01*
G01*
G37*
G04 #@! TD.AperFunction*
G04 #@! TO.P,R9,1*
G04 #@! TO.N,VDD*
G04 #@! TA.AperFunction,SMDPad,CuDef*
G36*
G01*
X152445000Y-107590000D02*
X152445000Y-107040000D01*
G75*
G02*
X152645000Y-106840000I200000J0D01*
G01*
X153045000Y-106840000D01*
G75*
G02*
X153245000Y-107040000I0J-200000D01*
G01*
X153245000Y-107590000D01*
G75*
G02*
X153045000Y-107790000I-200000J0D01*
G01*
X152645000Y-107790000D01*
G75*
G02*
X152445000Y-107590000I0J200000D01*
G01*
G37*
G04 #@! TD.AperFunction*
G04 #@! TD*
G04 #@! TO.P,R8,2*
G04 #@! TO.N,Net-(C5-Pad1)*
G04 #@! TA.AperFunction,SMDPad,CuDef*
G36*
G01*
X159660000Y-103715000D02*
X159110000Y-103715000D01*
G75*
G02*
X158910000Y-103515000I0J200000D01*
G01*
X158910000Y-103115000D01*
G75*
G02*
X159110000Y-102915000I200000J0D01*
G01*
X159660000Y-102915000D01*
G75*
G02*
X159860000Y-103115000I0J-200000D01*
G01*
X159860000Y-103515000D01*
G75*
G02*
X159660000Y-103715000I-200000J0D01*
G01*
G37*
G04 #@! TD.AperFunction*
G04 #@! TO.P,R8,1*
G04 #@! TO.N,VDD*
G04 #@! TA.AperFunction,SMDPad,CuDef*
G36*
G01*
X159660000Y-105365000D02*
X159110000Y-105365000D01*
G75*
G02*
X158910000Y-105165000I0J200000D01*
G01*
X158910000Y-104765000D01*
G75*
G02*
X159110000Y-104565000I200000J0D01*
G01*
X159660000Y-104565000D01*
G75*
G02*
X159860000Y-104765000I0J-200000D01*
G01*
X159860000Y-105165000D01*
G75*
G02*
X159660000Y-105365000I-200000J0D01*
G01*
G37*
G04 #@! TD.AperFunction*
G04 #@! TD*
G04 #@! TO.P,R6,2*
G04 #@! TO.N,Net-(C8-Pad1)*
G04 #@! TA.AperFunction,SMDPad,CuDef*
G36*
G01*
X154095000Y-121560000D02*
X154095000Y-121010000D01*
G75*
G02*
X154295000Y-120810000I200000J0D01*
G01*
X154695000Y-120810000D01*
G75*
G02*
X154895000Y-121010000I0J-200000D01*
G01*
X154895000Y-121560000D01*
G75*
G02*
X154695000Y-121760000I-200000J0D01*
G01*
X154295000Y-121760000D01*
G75*
G02*
X154095000Y-121560000I0J200000D01*
G01*
G37*
G04 #@! TD.AperFunction*
G04 #@! TO.P,R6,1*
G04 #@! TO.N,VDD*
G04 #@! TA.AperFunction,SMDPad,CuDef*
G36*
G01*
X152445000Y-121560000D02*
X152445000Y-121010000D01*
G75*
G02*
X152645000Y-120810000I200000J0D01*
G01*
X153045000Y-120810000D01*
G75*
G02*
X153245000Y-121010000I0J-200000D01*
G01*
X153245000Y-121560000D01*
G75*
G02*
X153045000Y-121760000I-200000J0D01*
G01*
X152645000Y-121760000D01*
G75*
G02*
X152445000Y-121560000I0J200000D01*
G01*
G37*
G04 #@! TD.AperFunction*
G04 #@! TD*
G04 #@! TO.P,R5,2*
G04 #@! TO.N,Net-(J3-Pad3)*
G04 #@! TA.AperFunction,SMDPad,CuDef*
G36*
G01*
X150070000Y-107040000D02*
X150070000Y-107590000D01*
G75*
G02*
X149870000Y-107790000I-200000J0D01*
G01*
X149470000Y-107790000D01*
G75*
G02*
X149270000Y-107590000I0J200000D01*
G01*
X149270000Y-107040000D01*
G75*
G02*
X149470000Y-106840000I200000J0D01*
G01*
X149870000Y-106840000D01*
G75*
G02*
X150070000Y-107040000I0J-200000D01*
G01*
G37*
G04 #@! TD.AperFunction*
G04 #@! TO.P,R5,1*
G04 #@! TO.N,VDD*
G04 #@! TA.AperFunction,SMDPad,CuDef*
G36*
G01*
X151720000Y-107040000D02*
X151720000Y-107590000D01*
G75*
G02*
X151520000Y-107790000I-200000J0D01*
G01*
X151120000Y-107790000D01*
G75*
G02*
X150920000Y-107590000I0J200000D01*
G01*
X150920000Y-107040000D01*
G75*
G02*
X151120000Y-106840000I200000J0D01*
G01*
X151520000Y-106840000D01*
G75*
G02*
X151720000Y-107040000I0J-200000D01*
G01*
G37*
G04 #@! TD.AperFunction*
G04 #@! TD*
G04 #@! TO.P,R4,2*
G04 #@! TO.N,Net-(R4-Pad2)*
G04 #@! TA.AperFunction,SMDPad,CuDef*
G36*
G01*
X150855000Y-120250000D02*
X151405000Y-120250000D01*
G75*
G02*
X151605000Y-120450000I0J-200000D01*
G01*
X151605000Y-120850000D01*
G75*
G02*
X151405000Y-121050000I-200000J0D01*
G01*
X150855000Y-121050000D01*
G75*
G02*
X150655000Y-120850000I0J200000D01*
G01*
X150655000Y-120450000D01*
G75*
G02*
X150855000Y-120250000I200000J0D01*
G01*
G37*
G04 #@! TD.AperFunction*
G04 #@! TO.P,R4,1*
G04 #@! TO.N,Net-(C3-Pad2)*
G04 #@! TA.AperFunction,SMDPad,CuDef*
G36*
G01*
X150855000Y-118600000D02*
X151405000Y-118600000D01*
G75*
G02*
X151605000Y-118800000I0J-200000D01*
G01*
X151605000Y-119200000D01*
G75*
G02*
X151405000Y-119400000I-200000J0D01*
G01*
X150855000Y-119400000D01*
G75*
G02*
X150655000Y-119200000I0J200000D01*
G01*
X150655000Y-118800000D01*
G75*
G02*
X150855000Y-118600000I200000J0D01*
G01*
G37*
G04 #@! TD.AperFunction*
G04 #@! TD*
G04 #@! TO.P,R3,2*
G04 #@! TO.N,Net-(C2-Pad2)*
G04 #@! TA.AperFunction,SMDPad,CuDef*
G36*
G01*
X150070000Y-115295000D02*
X150070000Y-115845000D01*
G75*
G02*
X149870000Y-116045000I-200000J0D01*
G01*
X149470000Y-116045000D01*
G75*
G02*
X149270000Y-115845000I0J200000D01*
G01*
X149270000Y-115295000D01*
G75*
G02*
X149470000Y-115095000I200000J0D01*
G01*
X149870000Y-115095000D01*
G75*
G02*
X150070000Y-115295000I0J-200000D01*
G01*
G37*
G04 #@! TD.AperFunction*
G04 #@! TO.P,R3,1*
G04 #@! TO.N,VDD*
G04 #@! TA.AperFunction,SMDPad,CuDef*
G36*
G01*
X151720000Y-115295000D02*
X151720000Y-115845000D01*
G75*
G02*
X151520000Y-116045000I-200000J0D01*
G01*
X151120000Y-116045000D01*
G75*
G02*
X150920000Y-115845000I0J200000D01*
G01*
X150920000Y-115295000D01*
G75*
G02*
X151120000Y-115095000I200000J0D01*
G01*
X151520000Y-115095000D01*
G75*
G02*
X151720000Y-115295000I0J-200000D01*
G01*
G37*
G04 #@! TD.AperFunction*
G04 #@! TD*
G04 #@! TO.P,R2,2*
G04 #@! TO.N,Net-(D2-Pad1)*
G04 #@! TA.AperFunction,SMDPad,CuDef*
G36*
G01*
X157205000Y-104565000D02*
X157755000Y-104565000D01*
G75*
G02*
X157955000Y-104765000I0J-200000D01*
G01*
X157955000Y-105165000D01*
G75*
G02*
X157755000Y-105365000I-200000J0D01*
G01*
X157205000Y-105365000D01*
G75*
G02*
X157005000Y-105165000I0J200000D01*
G01*
X157005000Y-104765000D01*
G75*
G02*
X157205000Y-104565000I200000J0D01*
G01*
G37*
G04 #@! TD.AperFunction*
G04 #@! TO.P,R2,1*
G04 #@! TO.N,VDD*
G04 #@! TA.AperFunction,SMDPad,CuDef*
G36*
G01*
X157205000Y-102915000D02*
X157755000Y-102915000D01*
G75*
G02*
X157955000Y-103115000I0J-200000D01*
G01*
X157955000Y-103515000D01*
G75*
G02*
X157755000Y-103715000I-200000J0D01*
G01*
X157205000Y-103715000D01*
G75*
G02*
X157005000Y-103515000I0J200000D01*
G01*
X157005000Y-103115000D01*
G75*
G02*
X157205000Y-102915000I200000J0D01*
G01*
G37*
G04 #@! TD.AperFunction*
G04 #@! TD*
G04 #@! TO.P,R1,2*
G04 #@! TO.N,Net-(C1-Pad1)*
G04 #@! TA.AperFunction,SMDPad,CuDef*
G36*
G01*
X119805000Y-125370000D02*
X119805000Y-124820000D01*
G75*
G02*
X120005000Y-124620000I200000J0D01*
G01*
X120405000Y-124620000D01*
G75*
G02*
X120605000Y-124820000I0J-200000D01*
G01*
X120605000Y-125370000D01*
G75*
G02*
X120405000Y-125570000I-200000J0D01*
G01*
X120005000Y-125570000D01*
G75*
G02*
X119805000Y-125370000I0J200000D01*
G01*
G37*
G04 #@! TD.AperFunction*
G04 #@! TO.P,R1,1*
G04 #@! TO.N,Net-(R1-Pad1)*
G04 #@! TA.AperFunction,SMDPad,CuDef*
G36*
G01*
X118155000Y-125370000D02*
X118155000Y-124820000D01*
G75*
G02*
X118355000Y-124620000I200000J0D01*
G01*
X118755000Y-124620000D01*
G75*
G02*
X118955000Y-124820000I0J-200000D01*
G01*
X118955000Y-125370000D01*
G75*
G02*
X118755000Y-125570000I-200000J0D01*
G01*
X118355000Y-125570000D01*
G75*
G02*
X118155000Y-125370000I0J200000D01*
G01*
G37*
G04 #@! TD.AperFunction*
G04 #@! TD*
G04 #@! TO.P,C9,2*
G04 #@! TO.N,GND*
G04 #@! TA.AperFunction,SMDPad,CuDef*
G36*
G01*
X157170000Y-107565000D02*
X157170000Y-107065000D01*
G75*
G02*
X157395000Y-106840000I225000J0D01*
G01*
X157845000Y-106840000D01*
G75*
G02*
X158070000Y-107065000I0J-225000D01*
G01*
X158070000Y-107565000D01*
G75*
G02*
X157845000Y-107790000I-225000J0D01*
G01*
X157395000Y-107790000D01*
G75*
G02*
X157170000Y-107565000I0J225000D01*
G01*
G37*
G04 #@! TD.AperFunction*
G04 #@! TO.P,C9,1*
G04 #@! TO.N,Net-(C9-Pad1)*
G04 #@! TA.AperFunction,SMDPad,CuDef*
G36*
G01*
X155620000Y-107565000D02*
X155620000Y-107065000D01*
G75*
G02*
X155845000Y-106840000I225000J0D01*
G01*
X156295000Y-106840000D01*
G75*
G02*
X156520000Y-107065000I0J-225000D01*
G01*
X156520000Y-107565000D01*
G75*
G02*
X156295000Y-107790000I-225000J0D01*
G01*
X155845000Y-107790000D01*
G75*
G02*
X155620000Y-107565000I0J225000D01*
G01*
G37*
G04 #@! TD.AperFunction*
G04 #@! TD*
G04 #@! TO.P,C8,2*
G04 #@! TO.N,GND*
G04 #@! TA.AperFunction,SMDPad,CuDef*
G36*
G01*
X155325000Y-124150000D02*
X155825000Y-124150000D01*
G75*
G02*
X156050000Y-124375000I0J-225000D01*
G01*
X156050000Y-124825000D01*
G75*
G02*
X155825000Y-125050000I-225000J0D01*
G01*
X155325000Y-125050000D01*
G75*
G02*
X155100000Y-124825000I0J225000D01*
G01*
X155100000Y-124375000D01*
G75*
G02*
X155325000Y-124150000I225000J0D01*
G01*
G37*
G04 #@! TD.AperFunction*
G04 #@! TO.P,C8,1*
G04 #@! TO.N,Net-(C8-Pad1)*
G04 #@! TA.AperFunction,SMDPad,CuDef*
G36*
G01*
X155325000Y-122600000D02*
X155825000Y-122600000D01*
G75*
G02*
X156050000Y-122825000I0J-225000D01*
G01*
X156050000Y-123275000D01*
G75*
G02*
X155825000Y-123500000I-225000J0D01*
G01*
X155325000Y-123500000D01*
G75*
G02*
X155100000Y-123275000I0J225000D01*
G01*
X155100000Y-122825000D01*
G75*
G02*
X155325000Y-122600000I225000J0D01*
G01*
G37*
G04 #@! TD.AperFunction*
G04 #@! TD*
G04 #@! TO.P,C6,2*
G04 #@! TO.N,GND*
G04 #@! TA.AperFunction,SMDPad,CuDef*
G36*
G01*
X159635000Y-100640000D02*
X159135000Y-100640000D01*
G75*
G02*
X158910000Y-100415000I0J225000D01*
G01*
X158910000Y-99965000D01*
G75*
G02*
X159135000Y-99740000I225000J0D01*
G01*
X159635000Y-99740000D01*
G75*
G02*
X159860000Y-99965000I0J-225000D01*
G01*
X159860000Y-100415000D01*
G75*
G02*
X159635000Y-100640000I-225000J0D01*
G01*
G37*
G04 #@! TD.AperFunction*
G04 #@! TO.P,C6,1*
G04 #@! TO.N,Net-(C5-Pad1)*
G04 #@! TA.AperFunction,SMDPad,CuDef*
G36*
G01*
X159635000Y-102190000D02*
X159135000Y-102190000D01*
G75*
G02*
X158910000Y-101965000I0J225000D01*
G01*
X158910000Y-101515000D01*
G75*
G02*
X159135000Y-101290000I225000J0D01*
G01*
X159635000Y-101290000D01*
G75*
G02*
X159860000Y-101515000I0J-225000D01*
G01*
X159860000Y-101965000D01*
G75*
G02*
X159635000Y-102190000I-225000J0D01*
G01*
G37*
G04 #@! TD.AperFunction*
G04 #@! TD*
G04 #@! TO.P,C5,2*
G04 #@! TO.N,GND*
G04 #@! TA.AperFunction,SMDPad,CuDef*
G36*
G01*
X157730000Y-100640000D02*
X157230000Y-100640000D01*
G75*
G02*
X157005000Y-100415000I0J225000D01*
G01*
X157005000Y-99965000D01*
G75*
G02*
X157230000Y-99740000I225000J0D01*
G01*
X157730000Y-99740000D01*
G75*
G02*
X157955000Y-99965000I0J-225000D01*
G01*
X157955000Y-100415000D01*
G75*
G02*
X157730000Y-100640000I-225000J0D01*
G01*
G37*
G04 #@! TD.AperFunction*
G04 #@! TO.P,C5,1*
G04 #@! TO.N,Net-(C5-Pad1)*
G04 #@! TA.AperFunction,SMDPad,CuDef*
G36*
G01*
X157730000Y-102190000D02*
X157230000Y-102190000D01*
G75*
G02*
X157005000Y-101965000I0J225000D01*
G01*
X157005000Y-101515000D01*
G75*
G02*
X157230000Y-101290000I225000J0D01*
G01*
X157730000Y-101290000D01*
G75*
G02*
X157955000Y-101515000I0J-225000D01*
G01*
X157955000Y-101965000D01*
G75*
G02*
X157730000Y-102190000I-225000J0D01*
G01*
G37*
G04 #@! TD.AperFunction*
G04 #@! TD*
G04 #@! TO.P,C4,2*
G04 #@! TO.N,VDD*
G04 #@! TA.AperFunction,SMDPad,CuDef*
G36*
G01*
X152710000Y-122940000D02*
X152710000Y-123440000D01*
G75*
G02*
X152485000Y-123665000I-225000J0D01*
G01*
X152035000Y-123665000D01*
G75*
G02*
X151810000Y-123440000I0J225000D01*
G01*
X151810000Y-122940000D01*
G75*
G02*
X152035000Y-122715000I225000J0D01*
G01*
X152485000Y-122715000D01*
G75*
G02*
X152710000Y-122940000I0J-225000D01*
G01*
G37*
G04 #@! TD.AperFunction*
G04 #@! TO.P,C4,1*
G04 #@! TO.N,GND*
G04 #@! TA.AperFunction,SMDPad,CuDef*
G36*
G01*
X154260000Y-122940000D02*
X154260000Y-123440000D01*
G75*
G02*
X154035000Y-123665000I-225000J0D01*
G01*
X153585000Y-123665000D01*
G75*
G02*
X153360000Y-123440000I0J225000D01*
G01*
X153360000Y-122940000D01*
G75*
G02*
X153585000Y-122715000I225000J0D01*
G01*
X154035000Y-122715000D01*
G75*
G02*
X154260000Y-122940000I0J-225000D01*
G01*
G37*
G04 #@! TD.AperFunction*
G04 #@! TD*
G04 #@! TO.P,C3,2*
G04 #@! TO.N,Net-(C3-Pad2)*
G04 #@! TA.AperFunction,SMDPad,CuDef*
G36*
G01*
X139390000Y-106930000D02*
X139390000Y-106430000D01*
G75*
G02*
X139615000Y-106205000I225000J0D01*
G01*
X140065000Y-106205000D01*
G75*
G02*
X140290000Y-106430000I0J-225000D01*
G01*
X140290000Y-106930000D01*
G75*
G02*
X140065000Y-107155000I-225000J0D01*
G01*
X139615000Y-107155000D01*
G75*
G02*
X139390000Y-106930000I0J225000D01*
G01*
G37*
G04 #@! TD.AperFunction*
G04 #@! TO.P,C3,1*
G04 #@! TO.N,GND*
G04 #@! TA.AperFunction,SMDPad,CuDef*
G36*
G01*
X137840000Y-106930000D02*
X137840000Y-106430000D01*
G75*
G02*
X138065000Y-106205000I225000J0D01*
G01*
X138515000Y-106205000D01*
G75*
G02*
X138740000Y-106430000I0J-225000D01*
G01*
X138740000Y-106930000D01*
G75*
G02*
X138515000Y-107155000I-225000J0D01*
G01*
X138065000Y-107155000D01*
G75*
G02*
X137840000Y-106930000I0J225000D01*
G01*
G37*
G04 #@! TD.AperFunction*
G04 #@! TD*
G04 #@! TO.P,C2,2*
G04 #@! TO.N,Net-(C2-Pad2)*
G04 #@! TA.AperFunction,SMDPad,CuDef*
G36*
G01*
X150170000Y-112780000D02*
X150170000Y-113280000D01*
G75*
G02*
X149945000Y-113505000I-225000J0D01*
G01*
X149495000Y-113505000D01*
G75*
G02*
X149270000Y-113280000I0J225000D01*
G01*
X149270000Y-112780000D01*
G75*
G02*
X149495000Y-112555000I225000J0D01*
G01*
X149945000Y-112555000D01*
G75*
G02*
X150170000Y-112780000I0J-225000D01*
G01*
G37*
G04 #@! TD.AperFunction*
G04 #@! TO.P,C2,1*
G04 #@! TO.N,VDD*
G04 #@! TA.AperFunction,SMDPad,CuDef*
G36*
G01*
X151720000Y-112780000D02*
X151720000Y-113280000D01*
G75*
G02*
X151495000Y-113505000I-225000J0D01*
G01*
X151045000Y-113505000D01*
G75*
G02*
X150820000Y-113280000I0J225000D01*
G01*
X150820000Y-112780000D01*
G75*
G02*
X151045000Y-112555000I225000J0D01*
G01*
X151495000Y-112555000D01*
G75*
G02*
X151720000Y-112780000I0J-225000D01*
G01*
G37*
G04 #@! TD.AperFunction*
G04 #@! TD*
G04 #@! TO.P,C1,2*
G04 #@! TO.N,GND*
G04 #@! TA.AperFunction,SMDPad,CuDef*
G36*
G01*
X119055000Y-122940000D02*
X119055000Y-123440000D01*
G75*
G02*
X118830000Y-123665000I-225000J0D01*
G01*
X118380000Y-123665000D01*
G75*
G02*
X118155000Y-123440000I0J225000D01*
G01*
X118155000Y-122940000D01*
G75*
G02*
X118380000Y-122715000I225000J0D01*
G01*
X118830000Y-122715000D01*
G75*
G02*
X119055000Y-122940000I0J-225000D01*
G01*
G37*
G04 #@! TD.AperFunction*
G04 #@! TO.P,C1,1*
G04 #@! TO.N,Net-(C1-Pad1)*
G04 #@! TA.AperFunction,SMDPad,CuDef*
G36*
G01*
X120605000Y-122940000D02*
X120605000Y-123440000D01*
G75*
G02*
X120380000Y-123665000I-225000J0D01*
G01*
X119930000Y-123665000D01*
G75*
G02*
X119705000Y-123440000I0J225000D01*
G01*
X119705000Y-122940000D01*
G75*
G02*
X119930000Y-122715000I225000J0D01*
G01*
X120380000Y-122715000D01*
G75*
G02*
X120605000Y-122940000I0J-225000D01*
G01*
G37*
G04 #@! TD.AperFunction*
G04 #@! TD*
D18*
G04 #@! TO.P,D1,2*
G04 #@! TO.N,VDD*
X120012400Y-110299500D03*
G04 #@! TO.P,D1,1*
G04 #@! TO.N,Net-(C10-Pad1)*
X116512400Y-110299500D03*
G04 #@! TD*
G04 #@! TO.P,F1,2*
G04 #@! TO.N,Net-(F1-Pad2)*
G04 #@! TA.AperFunction,SMDPad,CuDef*
G36*
G01*
X119075500Y-107559000D02*
X119075500Y-106309000D01*
G75*
G02*
X119325500Y-106059000I250000J0D01*
G01*
X120075500Y-106059000D01*
G75*
G02*
X120325500Y-106309000I0J-250000D01*
G01*
X120325500Y-107559000D01*
G75*
G02*
X120075500Y-107809000I-250000J0D01*
G01*
X119325500Y-107809000D01*
G75*
G02*
X119075500Y-107559000I0J250000D01*
G01*
G37*
G04 #@! TD.AperFunction*
G04 #@! TO.P,F1,1*
G04 #@! TO.N,Net-(F1-Pad1)*
G04 #@! TA.AperFunction,SMDPad,CuDef*
G36*
G01*
X116275500Y-107559000D02*
X116275500Y-106309000D01*
G75*
G02*
X116525500Y-106059000I250000J0D01*
G01*
X117275500Y-106059000D01*
G75*
G02*
X117525500Y-106309000I0J-250000D01*
G01*
X117525500Y-107559000D01*
G75*
G02*
X117275500Y-107809000I-250000J0D01*
G01*
X116525500Y-107809000D01*
G75*
G02*
X116275500Y-107559000I0J250000D01*
G01*
G37*
G04 #@! TD.AperFunction*
G04 #@! TD*
G04 #@! TO.P,R7,2*
G04 #@! TO.N,Net-(F1-Pad1)*
G04 #@! TA.AperFunction,SMDPad,CuDef*
G36*
G01*
X115019500Y-109874500D02*
X114469500Y-109874500D01*
G75*
G02*
X114269500Y-109674500I0J200000D01*
G01*
X114269500Y-109274500D01*
G75*
G02*
X114469500Y-109074500I200000J0D01*
G01*
X115019500Y-109074500D01*
G75*
G02*
X115219500Y-109274500I0J-200000D01*
G01*
X115219500Y-109674500D01*
G75*
G02*
X115019500Y-109874500I-200000J0D01*
G01*
G37*
G04 #@! TD.AperFunction*
G04 #@! TO.P,R7,1*
G04 #@! TO.N,Net-(C10-Pad1)*
G04 #@! TA.AperFunction,SMDPad,CuDef*
G36*
G01*
X115019500Y-111524500D02*
X114469500Y-111524500D01*
G75*
G02*
X114269500Y-111324500I0J200000D01*
G01*
X114269500Y-110924500D01*
G75*
G02*
X114469500Y-110724500I200000J0D01*
G01*
X115019500Y-110724500D01*
G75*
G02*
X115219500Y-110924500I0J-200000D01*
G01*
X115219500Y-111324500D01*
G75*
G02*
X115019500Y-111524500I-200000J0D01*
G01*
G37*
G04 #@! TD.AperFunction*
G04 #@! TD*
D19*
G04 #@! TO.P,C12,2*
G04 #@! TO.N,GND*
X130770000Y-111252000D03*
D20*
G04 #@! TO.P,C12,1*
G04 #@! TO.N,VDD*
X128270000Y-111252000D03*
G04 #@! TD*
G04 #@! TO.P,C13,2*
G04 #@! TO.N,GND*
G04 #@! TA.AperFunction,SMDPad,CuDef*
G36*
G01*
X124643000Y-114050000D02*
X124643000Y-114550000D01*
G75*
G02*
X124418000Y-114775000I-225000J0D01*
G01*
X123968000Y-114775000D01*
G75*
G02*
X123743000Y-114550000I0J225000D01*
G01*
X123743000Y-114050000D01*
G75*
G02*
X123968000Y-113825000I225000J0D01*
G01*
X124418000Y-113825000D01*
G75*
G02*
X124643000Y-114050000I0J-225000D01*
G01*
G37*
G04 #@! TD.AperFunction*
G04 #@! TO.P,C13,1*
G04 #@! TO.N,VDD*
G04 #@! TA.AperFunction,SMDPad,CuDef*
G36*
G01*
X126193000Y-114050000D02*
X126193000Y-114550000D01*
G75*
G02*
X125968000Y-114775000I-225000J0D01*
G01*
X125518000Y-114775000D01*
G75*
G02*
X125293000Y-114550000I0J225000D01*
G01*
X125293000Y-114050000D01*
G75*
G02*
X125518000Y-113825000I225000J0D01*
G01*
X125968000Y-113825000D01*
G75*
G02*
X126193000Y-114050000I0J-225000D01*
G01*
G37*
G04 #@! TD.AperFunction*
G04 #@! TD*
G04 #@! TO.P,C11,2*
G04 #@! TO.N,GND*
G04 #@! TA.AperFunction,SMDPad,CuDef*
G36*
G01*
X122753000Y-112318000D02*
X122753000Y-111818000D01*
G75*
G02*
X122978000Y-111593000I225000J0D01*
G01*
X123428000Y-111593000D01*
G75*
G02*
X123653000Y-111818000I0J-225000D01*
G01*
X123653000Y-112318000D01*
G75*
G02*
X123428000Y-112543000I-225000J0D01*
G01*
X122978000Y-112543000D01*
G75*
G02*
X122753000Y-112318000I0J225000D01*
G01*
G37*
G04 #@! TD.AperFunction*
G04 #@! TO.P,C11,1*
G04 #@! TO.N,Net-(C10-Pad1)*
G04 #@! TA.AperFunction,SMDPad,CuDef*
G36*
G01*
X121203000Y-112318000D02*
X121203000Y-111818000D01*
G75*
G02*
X121428000Y-111593000I225000J0D01*
G01*
X121878000Y-111593000D01*
G75*
G02*
X122103000Y-111818000I0J-225000D01*
G01*
X122103000Y-112318000D01*
G75*
G02*
X121878000Y-112543000I-225000J0D01*
G01*
X121428000Y-112543000D01*
G75*
G02*
X121203000Y-112318000I0J225000D01*
G01*
G37*
G04 #@! TD.AperFunction*
G04 #@! TD*
D21*
G04 #@! TO.P,H4,1*
G04 #@! TO.N,GND*
X114300000Y-96520000D03*
G04 #@! TD*
G04 #@! TO.P,H3,1*
G04 #@! TO.N,GND*
X158750000Y-96520000D03*
G04 #@! TD*
G04 #@! TO.P,U6,16*
G04 #@! TO.N,VDD*
G04 #@! TA.AperFunction,SMDPad,CuDef*
G36*
G01*
X157710000Y-110640000D02*
X157710000Y-110340000D01*
G75*
G02*
X157860000Y-110190000I150000J0D01*
G01*
X159510000Y-110190000D01*
G75*
G02*
X159660000Y-110340000I0J-150000D01*
G01*
X159660000Y-110640000D01*
G75*
G02*
X159510000Y-110790000I-150000J0D01*
G01*
X157860000Y-110790000D01*
G75*
G02*
X157710000Y-110640000I0J150000D01*
G01*
G37*
G04 #@! TD.AperFunction*
G04 #@! TO.P,U6,15*
G04 #@! TO.N,GND*
G04 #@! TA.AperFunction,SMDPad,CuDef*
G36*
G01*
X157710000Y-111910000D02*
X157710000Y-111610000D01*
G75*
G02*
X157860000Y-111460000I150000J0D01*
G01*
X159510000Y-111460000D01*
G75*
G02*
X159660000Y-111610000I0J-150000D01*
G01*
X159660000Y-111910000D01*
G75*
G02*
X159510000Y-112060000I-150000J0D01*
G01*
X157860000Y-112060000D01*
G75*
G02*
X157710000Y-111910000I0J150000D01*
G01*
G37*
G04 #@! TD.AperFunction*
G04 #@! TO.P,U6,14*
G04 #@! TO.N,Net-(C8-Pad1)*
G04 #@! TA.AperFunction,SMDPad,CuDef*
G36*
G01*
X157710000Y-113180000D02*
X157710000Y-112880000D01*
G75*
G02*
X157860000Y-112730000I150000J0D01*
G01*
X159510000Y-112730000D01*
G75*
G02*
X159660000Y-112880000I0J-150000D01*
G01*
X159660000Y-113180000D01*
G75*
G02*
X159510000Y-113330000I-150000J0D01*
G01*
X157860000Y-113330000D01*
G75*
G02*
X157710000Y-113180000I0J150000D01*
G01*
G37*
G04 #@! TD.AperFunction*
G04 #@! TO.P,U6,13*
G04 #@! TO.N,VDD*
G04 #@! TA.AperFunction,SMDPad,CuDef*
G36*
G01*
X157710000Y-114450000D02*
X157710000Y-114150000D01*
G75*
G02*
X157860000Y-114000000I150000J0D01*
G01*
X159510000Y-114000000D01*
G75*
G02*
X159660000Y-114150000I0J-150000D01*
G01*
X159660000Y-114450000D01*
G75*
G02*
X159510000Y-114600000I-150000J0D01*
G01*
X157860000Y-114600000D01*
G75*
G02*
X157710000Y-114450000I0J150000D01*
G01*
G37*
G04 #@! TD.AperFunction*
G04 #@! TO.P,U6,12*
G04 #@! TO.N,GND*
G04 #@! TA.AperFunction,SMDPad,CuDef*
G36*
G01*
X157710000Y-115720000D02*
X157710000Y-115420000D01*
G75*
G02*
X157860000Y-115270000I150000J0D01*
G01*
X159510000Y-115270000D01*
G75*
G02*
X159660000Y-115420000I0J-150000D01*
G01*
X159660000Y-115720000D01*
G75*
G02*
X159510000Y-115870000I-150000J0D01*
G01*
X157860000Y-115870000D01*
G75*
G02*
X157710000Y-115720000I0J150000D01*
G01*
G37*
G04 #@! TD.AperFunction*
G04 #@! TO.P,U6,11*
G04 #@! TO.N,Net-(U2-Pad3)*
G04 #@! TA.AperFunction,SMDPad,CuDef*
G36*
G01*
X157710000Y-116990000D02*
X157710000Y-116690000D01*
G75*
G02*
X157860000Y-116540000I150000J0D01*
G01*
X159510000Y-116540000D01*
G75*
G02*
X159660000Y-116690000I0J-150000D01*
G01*
X159660000Y-116990000D01*
G75*
G02*
X159510000Y-117140000I-150000J0D01*
G01*
X157860000Y-117140000D01*
G75*
G02*
X157710000Y-116990000I0J150000D01*
G01*
G37*
G04 #@! TD.AperFunction*
G04 #@! TO.P,U6,10*
G04 #@! TO.N,Net-(R11-Pad2)*
G04 #@! TA.AperFunction,SMDPad,CuDef*
G36*
G01*
X157710000Y-118260000D02*
X157710000Y-117960000D01*
G75*
G02*
X157860000Y-117810000I150000J0D01*
G01*
X159510000Y-117810000D01*
G75*
G02*
X159660000Y-117960000I0J-150000D01*
G01*
X159660000Y-118260000D01*
G75*
G02*
X159510000Y-118410000I-150000J0D01*
G01*
X157860000Y-118410000D01*
G75*
G02*
X157710000Y-118260000I0J150000D01*
G01*
G37*
G04 #@! TD.AperFunction*
G04 #@! TO.P,U6,9*
G04 #@! TO.N,Net-(U6-Pad9)*
G04 #@! TA.AperFunction,SMDPad,CuDef*
G36*
G01*
X157710000Y-119530000D02*
X157710000Y-119230000D01*
G75*
G02*
X157860000Y-119080000I150000J0D01*
G01*
X159510000Y-119080000D01*
G75*
G02*
X159660000Y-119230000I0J-150000D01*
G01*
X159660000Y-119530000D01*
G75*
G02*
X159510000Y-119680000I-150000J0D01*
G01*
X157860000Y-119680000D01*
G75*
G02*
X157710000Y-119530000I0J150000D01*
G01*
G37*
G04 #@! TD.AperFunction*
G04 #@! TO.P,U6,8*
G04 #@! TO.N,GND*
G04 #@! TA.AperFunction,SMDPad,CuDef*
G36*
G01*
X152760000Y-119530000D02*
X152760000Y-119230000D01*
G75*
G02*
X152910000Y-119080000I150000J0D01*
G01*
X154560000Y-119080000D01*
G75*
G02*
X154710000Y-119230000I0J-150000D01*
G01*
X154710000Y-119530000D01*
G75*
G02*
X154560000Y-119680000I-150000J0D01*
G01*
X152910000Y-119680000D01*
G75*
G02*
X152760000Y-119530000I0J150000D01*
G01*
G37*
G04 #@! TD.AperFunction*
G04 #@! TO.P,U6,7*
G04 #@! TO.N,Net-(R10-Pad1)*
G04 #@! TA.AperFunction,SMDPad,CuDef*
G36*
G01*
X152760000Y-118260000D02*
X152760000Y-117960000D01*
G75*
G02*
X152910000Y-117810000I150000J0D01*
G01*
X154560000Y-117810000D01*
G75*
G02*
X154710000Y-117960000I0J-150000D01*
G01*
X154710000Y-118260000D01*
G75*
G02*
X154560000Y-118410000I-150000J0D01*
G01*
X152910000Y-118410000D01*
G75*
G02*
X152760000Y-118260000I0J150000D01*
G01*
G37*
G04 #@! TD.AperFunction*
G04 #@! TO.P,U6,6*
G04 #@! TO.N,Net-(U6-Pad6)*
G04 #@! TA.AperFunction,SMDPad,CuDef*
G36*
G01*
X152760000Y-116990000D02*
X152760000Y-116690000D01*
G75*
G02*
X152910000Y-116540000I150000J0D01*
G01*
X154560000Y-116540000D01*
G75*
G02*
X154710000Y-116690000I0J-150000D01*
G01*
X154710000Y-116990000D01*
G75*
G02*
X154560000Y-117140000I-150000J0D01*
G01*
X152910000Y-117140000D01*
G75*
G02*
X152760000Y-116990000I0J150000D01*
G01*
G37*
G04 #@! TD.AperFunction*
G04 #@! TO.P,U6,5*
G04 #@! TO.N,VDD*
G04 #@! TA.AperFunction,SMDPad,CuDef*
G36*
G01*
X152760000Y-115720000D02*
X152760000Y-115420000D01*
G75*
G02*
X152910000Y-115270000I150000J0D01*
G01*
X154560000Y-115270000D01*
G75*
G02*
X154710000Y-115420000I0J-150000D01*
G01*
X154710000Y-115720000D01*
G75*
G02*
X154560000Y-115870000I-150000J0D01*
G01*
X152910000Y-115870000D01*
G75*
G02*
X152760000Y-115720000I0J150000D01*
G01*
G37*
G04 #@! TD.AperFunction*
G04 #@! TO.P,U6,4*
G04 #@! TO.N,Net-(J3-Pad3)*
G04 #@! TA.AperFunction,SMDPad,CuDef*
G36*
G01*
X152760000Y-114450000D02*
X152760000Y-114150000D01*
G75*
G02*
X152910000Y-114000000I150000J0D01*
G01*
X154560000Y-114000000D01*
G75*
G02*
X154710000Y-114150000I0J-150000D01*
G01*
X154710000Y-114450000D01*
G75*
G02*
X154560000Y-114600000I-150000J0D01*
G01*
X152910000Y-114600000D01*
G75*
G02*
X152760000Y-114450000I0J150000D01*
G01*
G37*
G04 #@! TD.AperFunction*
G04 #@! TO.P,U6,3*
G04 #@! TO.N,VDD*
G04 #@! TA.AperFunction,SMDPad,CuDef*
G36*
G01*
X152760000Y-113180000D02*
X152760000Y-112880000D01*
G75*
G02*
X152910000Y-112730000I150000J0D01*
G01*
X154560000Y-112730000D01*
G75*
G02*
X154710000Y-112880000I0J-150000D01*
G01*
X154710000Y-113180000D01*
G75*
G02*
X154560000Y-113330000I-150000J0D01*
G01*
X152910000Y-113330000D01*
G75*
G02*
X152760000Y-113180000I0J150000D01*
G01*
G37*
G04 #@! TD.AperFunction*
G04 #@! TO.P,U6,2*
G04 #@! TO.N,Net-(C5-Pad1)*
G04 #@! TA.AperFunction,SMDPad,CuDef*
G36*
G01*
X152760000Y-111910000D02*
X152760000Y-111610000D01*
G75*
G02*
X152910000Y-111460000I150000J0D01*
G01*
X154560000Y-111460000D01*
G75*
G02*
X154710000Y-111610000I0J-150000D01*
G01*
X154710000Y-111910000D01*
G75*
G02*
X154560000Y-112060000I-150000J0D01*
G01*
X152910000Y-112060000D01*
G75*
G02*
X152760000Y-111910000I0J150000D01*
G01*
G37*
G04 #@! TD.AperFunction*
G04 #@! TO.P,U6,1*
G04 #@! TO.N,GND*
G04 #@! TA.AperFunction,SMDPad,CuDef*
G36*
G01*
X152760000Y-110640000D02*
X152760000Y-110340000D01*
G75*
G02*
X152910000Y-110190000I150000J0D01*
G01*
X154560000Y-110190000D01*
G75*
G02*
X154710000Y-110340000I0J-150000D01*
G01*
X154710000Y-110640000D01*
G75*
G02*
X154560000Y-110790000I-150000J0D01*
G01*
X152910000Y-110790000D01*
G75*
G02*
X152760000Y-110640000I0J150000D01*
G01*
G37*
G04 #@! TD.AperFunction*
G04 #@! TD*
G04 #@! TO.P,U3,14*
G04 #@! TO.N,VDD*
G04 #@! TA.AperFunction,SMDPad,CuDef*
G36*
G01*
X146280000Y-107465000D02*
X146280000Y-107165000D01*
G75*
G02*
X146430000Y-107015000I150000J0D01*
G01*
X148080000Y-107015000D01*
G75*
G02*
X148230000Y-107165000I0J-150000D01*
G01*
X148230000Y-107465000D01*
G75*
G02*
X148080000Y-107615000I-150000J0D01*
G01*
X146430000Y-107615000D01*
G75*
G02*
X146280000Y-107465000I0J150000D01*
G01*
G37*
G04 #@! TD.AperFunction*
G04 #@! TO.P,U3,13*
G04 #@! TA.AperFunction,SMDPad,CuDef*
G36*
G01*
X146280000Y-108735000D02*
X146280000Y-108435000D01*
G75*
G02*
X146430000Y-108285000I150000J0D01*
G01*
X148080000Y-108285000D01*
G75*
G02*
X148230000Y-108435000I0J-150000D01*
G01*
X148230000Y-108735000D01*
G75*
G02*
X148080000Y-108885000I-150000J0D01*
G01*
X146430000Y-108885000D01*
G75*
G02*
X146280000Y-108735000I0J150000D01*
G01*
G37*
G04 #@! TD.AperFunction*
G04 #@! TO.P,U3,12*
G04 #@! TO.N,Net-(C9-Pad1)*
G04 #@! TA.AperFunction,SMDPad,CuDef*
G36*
G01*
X146280000Y-110005000D02*
X146280000Y-109705000D01*
G75*
G02*
X146430000Y-109555000I150000J0D01*
G01*
X148080000Y-109555000D01*
G75*
G02*
X148230000Y-109705000I0J-150000D01*
G01*
X148230000Y-110005000D01*
G75*
G02*
X148080000Y-110155000I-150000J0D01*
G01*
X146430000Y-110155000D01*
G75*
G02*
X146280000Y-110005000I0J150000D01*
G01*
G37*
G04 #@! TD.AperFunction*
G04 #@! TO.P,U3,11*
G04 #@! TO.N,Net-(U2-Pad12)*
G04 #@! TA.AperFunction,SMDPad,CuDef*
G36*
G01*
X146280000Y-111275000D02*
X146280000Y-110975000D01*
G75*
G02*
X146430000Y-110825000I150000J0D01*
G01*
X148080000Y-110825000D01*
G75*
G02*
X148230000Y-110975000I0J-150000D01*
G01*
X148230000Y-111275000D01*
G75*
G02*
X148080000Y-111425000I-150000J0D01*
G01*
X146430000Y-111425000D01*
G75*
G02*
X146280000Y-111275000I0J150000D01*
G01*
G37*
G04 #@! TD.AperFunction*
G04 #@! TO.P,U3,10*
G04 #@! TO.N,Net-(U2-Pad3)*
G04 #@! TA.AperFunction,SMDPad,CuDef*
G36*
G01*
X146280000Y-112545000D02*
X146280000Y-112245000D01*
G75*
G02*
X146430000Y-112095000I150000J0D01*
G01*
X148080000Y-112095000D01*
G75*
G02*
X148230000Y-112245000I0J-150000D01*
G01*
X148230000Y-112545000D01*
G75*
G02*
X148080000Y-112695000I-150000J0D01*
G01*
X146430000Y-112695000D01*
G75*
G02*
X146280000Y-112545000I0J150000D01*
G01*
G37*
G04 #@! TD.AperFunction*
G04 #@! TO.P,U3,9*
G04 #@! TO.N,VDD*
G04 #@! TA.AperFunction,SMDPad,CuDef*
G36*
G01*
X146280000Y-113815000D02*
X146280000Y-113515000D01*
G75*
G02*
X146430000Y-113365000I150000J0D01*
G01*
X148080000Y-113365000D01*
G75*
G02*
X148230000Y-113515000I0J-150000D01*
G01*
X148230000Y-113815000D01*
G75*
G02*
X148080000Y-113965000I-150000J0D01*
G01*
X146430000Y-113965000D01*
G75*
G02*
X146280000Y-113815000I0J150000D01*
G01*
G37*
G04 #@! TD.AperFunction*
G04 #@! TO.P,U3,8*
G04 #@! TO.N,Net-(C2-Pad2)*
G04 #@! TA.AperFunction,SMDPad,CuDef*
G36*
G01*
X146280000Y-115085000D02*
X146280000Y-114785000D01*
G75*
G02*
X146430000Y-114635000I150000J0D01*
G01*
X148080000Y-114635000D01*
G75*
G02*
X148230000Y-114785000I0J-150000D01*
G01*
X148230000Y-115085000D01*
G75*
G02*
X148080000Y-115235000I-150000J0D01*
G01*
X146430000Y-115235000D01*
G75*
G02*
X146280000Y-115085000I0J150000D01*
G01*
G37*
G04 #@! TD.AperFunction*
G04 #@! TO.P,U3,7*
G04 #@! TO.N,GND*
G04 #@! TA.AperFunction,SMDPad,CuDef*
G36*
G01*
X141330000Y-115085000D02*
X141330000Y-114785000D01*
G75*
G02*
X141480000Y-114635000I150000J0D01*
G01*
X143130000Y-114635000D01*
G75*
G02*
X143280000Y-114785000I0J-150000D01*
G01*
X143280000Y-115085000D01*
G75*
G02*
X143130000Y-115235000I-150000J0D01*
G01*
X141480000Y-115235000D01*
G75*
G02*
X141330000Y-115085000I0J150000D01*
G01*
G37*
G04 #@! TD.AperFunction*
G04 #@! TO.P,U3,6*
G04 #@! TO.N,Net-(D2-Pad1)*
G04 #@! TA.AperFunction,SMDPad,CuDef*
G36*
G01*
X141330000Y-113815000D02*
X141330000Y-113515000D01*
G75*
G02*
X141480000Y-113365000I150000J0D01*
G01*
X143130000Y-113365000D01*
G75*
G02*
X143280000Y-113515000I0J-150000D01*
G01*
X143280000Y-113815000D01*
G75*
G02*
X143130000Y-113965000I-150000J0D01*
G01*
X141480000Y-113965000D01*
G75*
G02*
X141330000Y-113815000I0J150000D01*
G01*
G37*
G04 #@! TD.AperFunction*
G04 #@! TO.P,U3,5*
G04 #@! TO.N,Net-(U3-Pad5)*
G04 #@! TA.AperFunction,SMDPad,CuDef*
G36*
G01*
X141330000Y-112545000D02*
X141330000Y-112245000D01*
G75*
G02*
X141480000Y-112095000I150000J0D01*
G01*
X143130000Y-112095000D01*
G75*
G02*
X143280000Y-112245000I0J-150000D01*
G01*
X143280000Y-112545000D01*
G75*
G02*
X143130000Y-112695000I-150000J0D01*
G01*
X141480000Y-112695000D01*
G75*
G02*
X141330000Y-112545000I0J150000D01*
G01*
G37*
G04 #@! TD.AperFunction*
G04 #@! TO.P,U3,4*
G04 #@! TO.N,Net-(J4-Pad3)*
G04 #@! TA.AperFunction,SMDPad,CuDef*
G36*
G01*
X141330000Y-111275000D02*
X141330000Y-110975000D01*
G75*
G02*
X141480000Y-110825000I150000J0D01*
G01*
X143130000Y-110825000D01*
G75*
G02*
X143280000Y-110975000I0J-150000D01*
G01*
X143280000Y-111275000D01*
G75*
G02*
X143130000Y-111425000I-150000J0D01*
G01*
X141480000Y-111425000D01*
G75*
G02*
X141330000Y-111275000I0J150000D01*
G01*
G37*
G04 #@! TD.AperFunction*
G04 #@! TO.P,U3,3*
G04 #@! TO.N,Net-(J2-Pad4)*
G04 #@! TA.AperFunction,SMDPad,CuDef*
G36*
G01*
X141330000Y-110005000D02*
X141330000Y-109705000D01*
G75*
G02*
X141480000Y-109555000I150000J0D01*
G01*
X143130000Y-109555000D01*
G75*
G02*
X143280000Y-109705000I0J-150000D01*
G01*
X143280000Y-110005000D01*
G75*
G02*
X143130000Y-110155000I-150000J0D01*
G01*
X141480000Y-110155000D01*
G75*
G02*
X141330000Y-110005000I0J150000D01*
G01*
G37*
G04 #@! TD.AperFunction*
G04 #@! TO.P,U3,2*
G04 #@! TO.N,Net-(U1-Pad11)*
G04 #@! TA.AperFunction,SMDPad,CuDef*
G36*
G01*
X141330000Y-108735000D02*
X141330000Y-108435000D01*
G75*
G02*
X141480000Y-108285000I150000J0D01*
G01*
X143130000Y-108285000D01*
G75*
G02*
X143280000Y-108435000I0J-150000D01*
G01*
X143280000Y-108735000D01*
G75*
G02*
X143130000Y-108885000I-150000J0D01*
G01*
X141480000Y-108885000D01*
G75*
G02*
X141330000Y-108735000I0J150000D01*
G01*
G37*
G04 #@! TD.AperFunction*
G04 #@! TO.P,U3,1*
G04 #@! TO.N,Net-(U1-Pad10)*
G04 #@! TA.AperFunction,SMDPad,CuDef*
G36*
G01*
X141330000Y-107465000D02*
X141330000Y-107165000D01*
G75*
G02*
X141480000Y-107015000I150000J0D01*
G01*
X143130000Y-107015000D01*
G75*
G02*
X143280000Y-107165000I0J-150000D01*
G01*
X143280000Y-107465000D01*
G75*
G02*
X143130000Y-107615000I-150000J0D01*
G01*
X141480000Y-107615000D01*
G75*
G02*
X141330000Y-107465000I0J150000D01*
G01*
G37*
G04 #@! TD.AperFunction*
G04 #@! TD*
G04 #@! TO.P,U2,16*
G04 #@! TO.N,VDD*
G04 #@! TA.AperFunction,SMDPad,CuDef*
G36*
G01*
X138025000Y-116355000D02*
X138025000Y-116055000D01*
G75*
G02*
X138175000Y-115905000I150000J0D01*
G01*
X139825000Y-115905000D01*
G75*
G02*
X139975000Y-116055000I0J-150000D01*
G01*
X139975000Y-116355000D01*
G75*
G02*
X139825000Y-116505000I-150000J0D01*
G01*
X138175000Y-116505000D01*
G75*
G02*
X138025000Y-116355000I0J150000D01*
G01*
G37*
G04 #@! TD.AperFunction*
G04 #@! TO.P,U2,15*
G04 #@! TO.N,Net-(D5-Pad2)*
G04 #@! TA.AperFunction,SMDPad,CuDef*
G36*
G01*
X138025000Y-117625000D02*
X138025000Y-117325000D01*
G75*
G02*
X138175000Y-117175000I150000J0D01*
G01*
X139825000Y-117175000D01*
G75*
G02*
X139975000Y-117325000I0J-150000D01*
G01*
X139975000Y-117625000D01*
G75*
G02*
X139825000Y-117775000I-150000J0D01*
G01*
X138175000Y-117775000D01*
G75*
G02*
X138025000Y-117625000I0J150000D01*
G01*
G37*
G04 #@! TD.AperFunction*
G04 #@! TO.P,U2,14*
G04 #@! TO.N,Net-(JP1-Pad1)*
G04 #@! TA.AperFunction,SMDPad,CuDef*
G36*
G01*
X138025000Y-118895000D02*
X138025000Y-118595000D01*
G75*
G02*
X138175000Y-118445000I150000J0D01*
G01*
X139825000Y-118445000D01*
G75*
G02*
X139975000Y-118595000I0J-150000D01*
G01*
X139975000Y-118895000D01*
G75*
G02*
X139825000Y-119045000I-150000J0D01*
G01*
X138175000Y-119045000D01*
G75*
G02*
X138025000Y-118895000I0J150000D01*
G01*
G37*
G04 #@! TD.AperFunction*
G04 #@! TO.P,U2,13*
G04 #@! TO.N,Net-(JP1-Pad3)*
G04 #@! TA.AperFunction,SMDPad,CuDef*
G36*
G01*
X138025000Y-120165000D02*
X138025000Y-119865000D01*
G75*
G02*
X138175000Y-119715000I150000J0D01*
G01*
X139825000Y-119715000D01*
G75*
G02*
X139975000Y-119865000I0J-150000D01*
G01*
X139975000Y-120165000D01*
G75*
G02*
X139825000Y-120315000I-150000J0D01*
G01*
X138175000Y-120315000D01*
G75*
G02*
X138025000Y-120165000I0J150000D01*
G01*
G37*
G04 #@! TD.AperFunction*
G04 #@! TO.P,U2,12*
G04 #@! TO.N,Net-(U2-Pad12)*
G04 #@! TA.AperFunction,SMDPad,CuDef*
G36*
G01*
X138025000Y-121435000D02*
X138025000Y-121135000D01*
G75*
G02*
X138175000Y-120985000I150000J0D01*
G01*
X139825000Y-120985000D01*
G75*
G02*
X139975000Y-121135000I0J-150000D01*
G01*
X139975000Y-121435000D01*
G75*
G02*
X139825000Y-121585000I-150000J0D01*
G01*
X138175000Y-121585000D01*
G75*
G02*
X138025000Y-121435000I0J150000D01*
G01*
G37*
G04 #@! TD.AperFunction*
G04 #@! TO.P,U2,11*
G04 #@! TO.N,VDD*
G04 #@! TA.AperFunction,SMDPad,CuDef*
G36*
G01*
X138025000Y-122705000D02*
X138025000Y-122405000D01*
G75*
G02*
X138175000Y-122255000I150000J0D01*
G01*
X139825000Y-122255000D01*
G75*
G02*
X139975000Y-122405000I0J-150000D01*
G01*
X139975000Y-122705000D01*
G75*
G02*
X139825000Y-122855000I-150000J0D01*
G01*
X138175000Y-122855000D01*
G75*
G02*
X138025000Y-122705000I0J150000D01*
G01*
G37*
G04 #@! TD.AperFunction*
G04 #@! TO.P,U2,10*
G04 #@! TA.AperFunction,SMDPad,CuDef*
G36*
G01*
X138025000Y-123975000D02*
X138025000Y-123675000D01*
G75*
G02*
X138175000Y-123525000I150000J0D01*
G01*
X139825000Y-123525000D01*
G75*
G02*
X139975000Y-123675000I0J-150000D01*
G01*
X139975000Y-123975000D01*
G75*
G02*
X139825000Y-124125000I-150000J0D01*
G01*
X138175000Y-124125000D01*
G75*
G02*
X138025000Y-123975000I0J150000D01*
G01*
G37*
G04 #@! TD.AperFunction*
G04 #@! TO.P,U2,9*
G04 #@! TO.N,GND*
G04 #@! TA.AperFunction,SMDPad,CuDef*
G36*
G01*
X138025000Y-125245000D02*
X138025000Y-124945000D01*
G75*
G02*
X138175000Y-124795000I150000J0D01*
G01*
X139825000Y-124795000D01*
G75*
G02*
X139975000Y-124945000I0J-150000D01*
G01*
X139975000Y-125245000D01*
G75*
G02*
X139825000Y-125395000I-150000J0D01*
G01*
X138175000Y-125395000D01*
G75*
G02*
X138025000Y-125245000I0J150000D01*
G01*
G37*
G04 #@! TD.AperFunction*
G04 #@! TO.P,U2,8*
G04 #@! TA.AperFunction,SMDPad,CuDef*
G36*
G01*
X133075000Y-125245000D02*
X133075000Y-124945000D01*
G75*
G02*
X133225000Y-124795000I150000J0D01*
G01*
X134875000Y-124795000D01*
G75*
G02*
X135025000Y-124945000I0J-150000D01*
G01*
X135025000Y-125245000D01*
G75*
G02*
X134875000Y-125395000I-150000J0D01*
G01*
X133225000Y-125395000D01*
G75*
G02*
X133075000Y-125245000I0J150000D01*
G01*
G37*
G04 #@! TD.AperFunction*
G04 #@! TO.P,U2,7*
G04 #@! TA.AperFunction,SMDPad,CuDef*
G36*
G01*
X133075000Y-123975000D02*
X133075000Y-123675000D01*
G75*
G02*
X133225000Y-123525000I150000J0D01*
G01*
X134875000Y-123525000D01*
G75*
G02*
X135025000Y-123675000I0J-150000D01*
G01*
X135025000Y-123975000D01*
G75*
G02*
X134875000Y-124125000I-150000J0D01*
G01*
X133225000Y-124125000D01*
G75*
G02*
X133075000Y-123975000I0J150000D01*
G01*
G37*
G04 #@! TD.AperFunction*
G04 #@! TO.P,U2,6*
G04 #@! TO.N,VDD*
G04 #@! TA.AperFunction,SMDPad,CuDef*
G36*
G01*
X133075000Y-122705000D02*
X133075000Y-122405000D01*
G75*
G02*
X133225000Y-122255000I150000J0D01*
G01*
X134875000Y-122255000D01*
G75*
G02*
X135025000Y-122405000I0J-150000D01*
G01*
X135025000Y-122705000D01*
G75*
G02*
X134875000Y-122855000I-150000J0D01*
G01*
X133225000Y-122855000D01*
G75*
G02*
X133075000Y-122705000I0J150000D01*
G01*
G37*
G04 #@! TD.AperFunction*
G04 #@! TO.P,U2,5*
G04 #@! TA.AperFunction,SMDPad,CuDef*
G36*
G01*
X133075000Y-121435000D02*
X133075000Y-121135000D01*
G75*
G02*
X133225000Y-120985000I150000J0D01*
G01*
X134875000Y-120985000D01*
G75*
G02*
X135025000Y-121135000I0J-150000D01*
G01*
X135025000Y-121435000D01*
G75*
G02*
X134875000Y-121585000I-150000J0D01*
G01*
X133225000Y-121585000D01*
G75*
G02*
X133075000Y-121435000I0J150000D01*
G01*
G37*
G04 #@! TD.AperFunction*
G04 #@! TO.P,U2,4*
G04 #@! TO.N,GND*
G04 #@! TA.AperFunction,SMDPad,CuDef*
G36*
G01*
X133075000Y-120165000D02*
X133075000Y-119865000D01*
G75*
G02*
X133225000Y-119715000I150000J0D01*
G01*
X134875000Y-119715000D01*
G75*
G02*
X135025000Y-119865000I0J-150000D01*
G01*
X135025000Y-120165000D01*
G75*
G02*
X134875000Y-120315000I-150000J0D01*
G01*
X133225000Y-120315000D01*
G75*
G02*
X133075000Y-120165000I0J150000D01*
G01*
G37*
G04 #@! TD.AperFunction*
G04 #@! TO.P,U2,3*
G04 #@! TO.N,Net-(U2-Pad3)*
G04 #@! TA.AperFunction,SMDPad,CuDef*
G36*
G01*
X133075000Y-118895000D02*
X133075000Y-118595000D01*
G75*
G02*
X133225000Y-118445000I150000J0D01*
G01*
X134875000Y-118445000D01*
G75*
G02*
X135025000Y-118595000I0J-150000D01*
G01*
X135025000Y-118895000D01*
G75*
G02*
X134875000Y-119045000I-150000J0D01*
G01*
X133225000Y-119045000D01*
G75*
G02*
X133075000Y-118895000I0J150000D01*
G01*
G37*
G04 #@! TD.AperFunction*
G04 #@! TO.P,U2,2*
G04 #@! TO.N,Net-(U1-Pad12)*
G04 #@! TA.AperFunction,SMDPad,CuDef*
G36*
G01*
X133075000Y-117625000D02*
X133075000Y-117325000D01*
G75*
G02*
X133225000Y-117175000I150000J0D01*
G01*
X134875000Y-117175000D01*
G75*
G02*
X135025000Y-117325000I0J-150000D01*
G01*
X135025000Y-117625000D01*
G75*
G02*
X134875000Y-117775000I-150000J0D01*
G01*
X133225000Y-117775000D01*
G75*
G02*
X133075000Y-117625000I0J150000D01*
G01*
G37*
G04 #@! TD.AperFunction*
G04 #@! TO.P,U2,1*
G04 #@! TO.N,Net-(U1-Pad9)*
G04 #@! TA.AperFunction,SMDPad,CuDef*
G36*
G01*
X133075000Y-116355000D02*
X133075000Y-116055000D01*
G75*
G02*
X133225000Y-115905000I150000J0D01*
G01*
X134875000Y-115905000D01*
G75*
G02*
X135025000Y-116055000I0J-150000D01*
G01*
X135025000Y-116355000D01*
G75*
G02*
X134875000Y-116505000I-150000J0D01*
G01*
X133225000Y-116505000D01*
G75*
G02*
X133075000Y-116355000I0J150000D01*
G01*
G37*
G04 #@! TD.AperFunction*
G04 #@! TD*
G04 #@! TO.P,U1,14*
G04 #@! TO.N,VDD*
G04 #@! TA.AperFunction,SMDPad,CuDef*
G36*
G01*
X128500000Y-117625000D02*
X128500000Y-117325000D01*
G75*
G02*
X128650000Y-117175000I150000J0D01*
G01*
X130300000Y-117175000D01*
G75*
G02*
X130450000Y-117325000I0J-150000D01*
G01*
X130450000Y-117625000D01*
G75*
G02*
X130300000Y-117775000I-150000J0D01*
G01*
X128650000Y-117775000D01*
G75*
G02*
X128500000Y-117625000I0J150000D01*
G01*
G37*
G04 #@! TD.AperFunction*
G04 #@! TO.P,U1,13*
G04 #@! TO.N,Net-(U1-Pad13)*
G04 #@! TA.AperFunction,SMDPad,CuDef*
G36*
G01*
X128500000Y-118895000D02*
X128500000Y-118595000D01*
G75*
G02*
X128650000Y-118445000I150000J0D01*
G01*
X130300000Y-118445000D01*
G75*
G02*
X130450000Y-118595000I0J-150000D01*
G01*
X130450000Y-118895000D01*
G75*
G02*
X130300000Y-119045000I-150000J0D01*
G01*
X128650000Y-119045000D01*
G75*
G02*
X128500000Y-118895000I0J150000D01*
G01*
G37*
G04 #@! TD.AperFunction*
G04 #@! TO.P,U1,12*
G04 #@! TO.N,Net-(U1-Pad12)*
G04 #@! TA.AperFunction,SMDPad,CuDef*
G36*
G01*
X128500000Y-120165000D02*
X128500000Y-119865000D01*
G75*
G02*
X128650000Y-119715000I150000J0D01*
G01*
X130300000Y-119715000D01*
G75*
G02*
X130450000Y-119865000I0J-150000D01*
G01*
X130450000Y-120165000D01*
G75*
G02*
X130300000Y-120315000I-150000J0D01*
G01*
X128650000Y-120315000D01*
G75*
G02*
X128500000Y-120165000I0J150000D01*
G01*
G37*
G04 #@! TD.AperFunction*
G04 #@! TO.P,U1,11*
G04 #@! TO.N,Net-(U1-Pad11)*
G04 #@! TA.AperFunction,SMDPad,CuDef*
G36*
G01*
X128500000Y-121435000D02*
X128500000Y-121135000D01*
G75*
G02*
X128650000Y-120985000I150000J0D01*
G01*
X130300000Y-120985000D01*
G75*
G02*
X130450000Y-121135000I0J-150000D01*
G01*
X130450000Y-121435000D01*
G75*
G02*
X130300000Y-121585000I-150000J0D01*
G01*
X128650000Y-121585000D01*
G75*
G02*
X128500000Y-121435000I0J150000D01*
G01*
G37*
G04 #@! TD.AperFunction*
G04 #@! TO.P,U1,10*
G04 #@! TO.N,Net-(U1-Pad10)*
G04 #@! TA.AperFunction,SMDPad,CuDef*
G36*
G01*
X128500000Y-122705000D02*
X128500000Y-122405000D01*
G75*
G02*
X128650000Y-122255000I150000J0D01*
G01*
X130300000Y-122255000D01*
G75*
G02*
X130450000Y-122405000I0J-150000D01*
G01*
X130450000Y-122705000D01*
G75*
G02*
X130300000Y-122855000I-150000J0D01*
G01*
X128650000Y-122855000D01*
G75*
G02*
X128500000Y-122705000I0J150000D01*
G01*
G37*
G04 #@! TD.AperFunction*
G04 #@! TO.P,U1,9*
G04 #@! TO.N,Net-(U1-Pad9)*
G04 #@! TA.AperFunction,SMDPad,CuDef*
G36*
G01*
X128500000Y-123975000D02*
X128500000Y-123675000D01*
G75*
G02*
X128650000Y-123525000I150000J0D01*
G01*
X130300000Y-123525000D01*
G75*
G02*
X130450000Y-123675000I0J-150000D01*
G01*
X130450000Y-123975000D01*
G75*
G02*
X130300000Y-124125000I-150000J0D01*
G01*
X128650000Y-124125000D01*
G75*
G02*
X128500000Y-123975000I0J150000D01*
G01*
G37*
G04 #@! TD.AperFunction*
G04 #@! TO.P,U1,8*
G04 #@! TO.N,Net-(R1-Pad1)*
G04 #@! TA.AperFunction,SMDPad,CuDef*
G36*
G01*
X128500000Y-125245000D02*
X128500000Y-124945000D01*
G75*
G02*
X128650000Y-124795000I150000J0D01*
G01*
X130300000Y-124795000D01*
G75*
G02*
X130450000Y-124945000I0J-150000D01*
G01*
X130450000Y-125245000D01*
G75*
G02*
X130300000Y-125395000I-150000J0D01*
G01*
X128650000Y-125395000D01*
G75*
G02*
X128500000Y-125245000I0J150000D01*
G01*
G37*
G04 #@! TD.AperFunction*
G04 #@! TO.P,U1,7*
G04 #@! TO.N,GND*
G04 #@! TA.AperFunction,SMDPad,CuDef*
G36*
G01*
X123550000Y-125245000D02*
X123550000Y-124945000D01*
G75*
G02*
X123700000Y-124795000I150000J0D01*
G01*
X125350000Y-124795000D01*
G75*
G02*
X125500000Y-124945000I0J-150000D01*
G01*
X125500000Y-125245000D01*
G75*
G02*
X125350000Y-125395000I-150000J0D01*
G01*
X123700000Y-125395000D01*
G75*
G02*
X123550000Y-125245000I0J150000D01*
G01*
G37*
G04 #@! TD.AperFunction*
G04 #@! TO.P,U1,6*
G04 #@! TO.N,Net-(R1-Pad1)*
G04 #@! TA.AperFunction,SMDPad,CuDef*
G36*
G01*
X123550000Y-123975000D02*
X123550000Y-123675000D01*
G75*
G02*
X123700000Y-123525000I150000J0D01*
G01*
X125350000Y-123525000D01*
G75*
G02*
X125500000Y-123675000I0J-150000D01*
G01*
X125500000Y-123975000D01*
G75*
G02*
X125350000Y-124125000I-150000J0D01*
G01*
X123700000Y-124125000D01*
G75*
G02*
X123550000Y-123975000I0J150000D01*
G01*
G37*
G04 #@! TD.AperFunction*
G04 #@! TO.P,U1,5*
G04 #@! TA.AperFunction,SMDPad,CuDef*
G36*
G01*
X123550000Y-122705000D02*
X123550000Y-122405000D01*
G75*
G02*
X123700000Y-122255000I150000J0D01*
G01*
X125350000Y-122255000D01*
G75*
G02*
X125500000Y-122405000I0J-150000D01*
G01*
X125500000Y-122705000D01*
G75*
G02*
X125350000Y-122855000I-150000J0D01*
G01*
X123700000Y-122855000D01*
G75*
G02*
X123550000Y-122705000I0J150000D01*
G01*
G37*
G04 #@! TD.AperFunction*
G04 #@! TO.P,U1,4*
G04 #@! TO.N,Net-(U1-Pad13)*
G04 #@! TA.AperFunction,SMDPad,CuDef*
G36*
G01*
X123550000Y-121435000D02*
X123550000Y-121135000D01*
G75*
G02*
X123700000Y-120985000I150000J0D01*
G01*
X125350000Y-120985000D01*
G75*
G02*
X125500000Y-121135000I0J-150000D01*
G01*
X125500000Y-121435000D01*
G75*
G02*
X125350000Y-121585000I-150000J0D01*
G01*
X123700000Y-121585000D01*
G75*
G02*
X123550000Y-121435000I0J150000D01*
G01*
G37*
G04 #@! TD.AperFunction*
G04 #@! TO.P,U1,3*
G04 #@! TO.N,Net-(R1-Pad1)*
G04 #@! TA.AperFunction,SMDPad,CuDef*
G36*
G01*
X123550000Y-120165000D02*
X123550000Y-119865000D01*
G75*
G02*
X123700000Y-119715000I150000J0D01*
G01*
X125350000Y-119715000D01*
G75*
G02*
X125500000Y-119865000I0J-150000D01*
G01*
X125500000Y-120165000D01*
G75*
G02*
X125350000Y-120315000I-150000J0D01*
G01*
X123700000Y-120315000D01*
G75*
G02*
X123550000Y-120165000I0J150000D01*
G01*
G37*
G04 #@! TD.AperFunction*
G04 #@! TO.P,U1,2*
G04 #@! TO.N,Net-(D4-Pad1)*
G04 #@! TA.AperFunction,SMDPad,CuDef*
G36*
G01*
X123550000Y-118895000D02*
X123550000Y-118595000D01*
G75*
G02*
X123700000Y-118445000I150000J0D01*
G01*
X125350000Y-118445000D01*
G75*
G02*
X125500000Y-118595000I0J-150000D01*
G01*
X125500000Y-118895000D01*
G75*
G02*
X125350000Y-119045000I-150000J0D01*
G01*
X123700000Y-119045000D01*
G75*
G02*
X123550000Y-118895000I0J150000D01*
G01*
G37*
G04 #@! TD.AperFunction*
G04 #@! TO.P,U1,1*
G04 #@! TO.N,Net-(C1-Pad1)*
G04 #@! TA.AperFunction,SMDPad,CuDef*
G36*
G01*
X123550000Y-117625000D02*
X123550000Y-117325000D01*
G75*
G02*
X123700000Y-117175000I150000J0D01*
G01*
X125350000Y-117175000D01*
G75*
G02*
X125500000Y-117325000I0J-150000D01*
G01*
X125500000Y-117625000D01*
G75*
G02*
X125350000Y-117775000I-150000J0D01*
G01*
X123700000Y-117775000D01*
G75*
G02*
X123550000Y-117625000I0J150000D01*
G01*
G37*
G04 #@! TD.AperFunction*
G04 #@! TD*
G04 #@! TO.P,H2,1*
G04 #@! TO.N,GND*
X114300000Y-123825000D03*
G04 #@! TD*
G04 #@! TO.P,H1,1*
G04 #@! TO.N,GND*
X158750000Y-123825000D03*
G04 #@! TD*
D22*
G04 #@! TO.P,C10,2*
G04 #@! TO.N,GND*
X117348000Y-119300000D03*
D23*
G04 #@! TO.P,C10,1*
G04 #@! TO.N,Net-(C10-Pad1)*
X117348000Y-114300000D03*
G04 #@! TD*
G04 #@! TO.P,U5,14*
G04 #@! TO.N,VDD*
G04 #@! TA.AperFunction,SMDPad,CuDef*
G36*
G01*
X147550000Y-117625000D02*
X147550000Y-117325000D01*
G75*
G02*
X147700000Y-117175000I150000J0D01*
G01*
X149350000Y-117175000D01*
G75*
G02*
X149500000Y-117325000I0J-150000D01*
G01*
X149500000Y-117625000D01*
G75*
G02*
X149350000Y-117775000I-150000J0D01*
G01*
X147700000Y-117775000D01*
G75*
G02*
X147550000Y-117625000I0J150000D01*
G01*
G37*
G04 #@! TD.AperFunction*
G04 #@! TO.P,U5,13*
G04 #@! TO.N,Net-(C3-Pad2)*
G04 #@! TA.AperFunction,SMDPad,CuDef*
G36*
G01*
X147550000Y-118895000D02*
X147550000Y-118595000D01*
G75*
G02*
X147700000Y-118445000I150000J0D01*
G01*
X149350000Y-118445000D01*
G75*
G02*
X149500000Y-118595000I0J-150000D01*
G01*
X149500000Y-118895000D01*
G75*
G02*
X149350000Y-119045000I-150000J0D01*
G01*
X147700000Y-119045000D01*
G75*
G02*
X147550000Y-118895000I0J150000D01*
G01*
G37*
G04 #@! TD.AperFunction*
G04 #@! TO.P,U5,12*
G04 #@! TA.AperFunction,SMDPad,CuDef*
G36*
G01*
X147550000Y-120165000D02*
X147550000Y-119865000D01*
G75*
G02*
X147700000Y-119715000I150000J0D01*
G01*
X149350000Y-119715000D01*
G75*
G02*
X149500000Y-119865000I0J-150000D01*
G01*
X149500000Y-120165000D01*
G75*
G02*
X149350000Y-120315000I-150000J0D01*
G01*
X147700000Y-120315000D01*
G75*
G02*
X147550000Y-120165000I0J150000D01*
G01*
G37*
G04 #@! TD.AperFunction*
G04 #@! TO.P,U5,11*
G04 #@! TO.N,Net-(U3-Pad5)*
G04 #@! TA.AperFunction,SMDPad,CuDef*
G36*
G01*
X147550000Y-121435000D02*
X147550000Y-121135000D01*
G75*
G02*
X147700000Y-120985000I150000J0D01*
G01*
X149350000Y-120985000D01*
G75*
G02*
X149500000Y-121135000I0J-150000D01*
G01*
X149500000Y-121435000D01*
G75*
G02*
X149350000Y-121585000I-150000J0D01*
G01*
X147700000Y-121585000D01*
G75*
G02*
X147550000Y-121435000I0J150000D01*
G01*
G37*
G04 #@! TD.AperFunction*
G04 #@! TO.P,U5,10*
G04 #@! TO.N,Net-(R4-Pad2)*
G04 #@! TA.AperFunction,SMDPad,CuDef*
G36*
G01*
X147550000Y-122705000D02*
X147550000Y-122405000D01*
G75*
G02*
X147700000Y-122255000I150000J0D01*
G01*
X149350000Y-122255000D01*
G75*
G02*
X149500000Y-122405000I0J-150000D01*
G01*
X149500000Y-122705000D01*
G75*
G02*
X149350000Y-122855000I-150000J0D01*
G01*
X147700000Y-122855000D01*
G75*
G02*
X147550000Y-122705000I0J150000D01*
G01*
G37*
G04 #@! TD.AperFunction*
G04 #@! TO.P,U5,9*
G04 #@! TO.N,Net-(U2-Pad12)*
G04 #@! TA.AperFunction,SMDPad,CuDef*
G36*
G01*
X147550000Y-123975000D02*
X147550000Y-123675000D01*
G75*
G02*
X147700000Y-123525000I150000J0D01*
G01*
X149350000Y-123525000D01*
G75*
G02*
X149500000Y-123675000I0J-150000D01*
G01*
X149500000Y-123975000D01*
G75*
G02*
X149350000Y-124125000I-150000J0D01*
G01*
X147700000Y-124125000D01*
G75*
G02*
X147550000Y-123975000I0J150000D01*
G01*
G37*
G04 #@! TD.AperFunction*
G04 #@! TO.P,U5,8*
G04 #@! TO.N,Net-(U1-Pad9)*
G04 #@! TA.AperFunction,SMDPad,CuDef*
G36*
G01*
X147550000Y-125245000D02*
X147550000Y-124945000D01*
G75*
G02*
X147700000Y-124795000I150000J0D01*
G01*
X149350000Y-124795000D01*
G75*
G02*
X149500000Y-124945000I0J-150000D01*
G01*
X149500000Y-125245000D01*
G75*
G02*
X149350000Y-125395000I-150000J0D01*
G01*
X147700000Y-125395000D01*
G75*
G02*
X147550000Y-125245000I0J150000D01*
G01*
G37*
G04 #@! TD.AperFunction*
G04 #@! TO.P,U5,7*
G04 #@! TO.N,GND*
G04 #@! TA.AperFunction,SMDPad,CuDef*
G36*
G01*
X142600000Y-125245000D02*
X142600000Y-124945000D01*
G75*
G02*
X142750000Y-124795000I150000J0D01*
G01*
X144400000Y-124795000D01*
G75*
G02*
X144550000Y-124945000I0J-150000D01*
G01*
X144550000Y-125245000D01*
G75*
G02*
X144400000Y-125395000I-150000J0D01*
G01*
X142750000Y-125395000D01*
G75*
G02*
X142600000Y-125245000I0J150000D01*
G01*
G37*
G04 #@! TD.AperFunction*
G04 #@! TO.P,U5,6*
G04 #@! TO.N,Net-(R11-Pad1)*
G04 #@! TA.AperFunction,SMDPad,CuDef*
G36*
G01*
X142600000Y-123975000D02*
X142600000Y-123675000D01*
G75*
G02*
X142750000Y-123525000I150000J0D01*
G01*
X144400000Y-123525000D01*
G75*
G02*
X144550000Y-123675000I0J-150000D01*
G01*
X144550000Y-123975000D01*
G75*
G02*
X144400000Y-124125000I-150000J0D01*
G01*
X142750000Y-124125000D01*
G75*
G02*
X142600000Y-123975000I0J150000D01*
G01*
G37*
G04 #@! TD.AperFunction*
G04 #@! TO.P,U5,5*
G04 #@! TO.N,Net-(U2-Pad3)*
G04 #@! TA.AperFunction,SMDPad,CuDef*
G36*
G01*
X142600000Y-122705000D02*
X142600000Y-122405000D01*
G75*
G02*
X142750000Y-122255000I150000J0D01*
G01*
X144400000Y-122255000D01*
G75*
G02*
X144550000Y-122405000I0J-150000D01*
G01*
X144550000Y-122705000D01*
G75*
G02*
X144400000Y-122855000I-150000J0D01*
G01*
X142750000Y-122855000D01*
G75*
G02*
X142600000Y-122705000I0J150000D01*
G01*
G37*
G04 #@! TD.AperFunction*
G04 #@! TO.P,U5,4*
G04 #@! TO.N,Net-(JP1-Pad3)*
G04 #@! TA.AperFunction,SMDPad,CuDef*
G36*
G01*
X142600000Y-121435000D02*
X142600000Y-121135000D01*
G75*
G02*
X142750000Y-120985000I150000J0D01*
G01*
X144400000Y-120985000D01*
G75*
G02*
X144550000Y-121135000I0J-150000D01*
G01*
X144550000Y-121435000D01*
G75*
G02*
X144400000Y-121585000I-150000J0D01*
G01*
X142750000Y-121585000D01*
G75*
G02*
X142600000Y-121435000I0J150000D01*
G01*
G37*
G04 #@! TD.AperFunction*
G04 #@! TO.P,U5,3*
G04 #@! TO.N,Net-(D4-Pad2)*
G04 #@! TA.AperFunction,SMDPad,CuDef*
G36*
G01*
X142600000Y-120165000D02*
X142600000Y-119865000D01*
G75*
G02*
X142750000Y-119715000I150000J0D01*
G01*
X144400000Y-119715000D01*
G75*
G02*
X144550000Y-119865000I0J-150000D01*
G01*
X144550000Y-120165000D01*
G75*
G02*
X144400000Y-120315000I-150000J0D01*
G01*
X142750000Y-120315000D01*
G75*
G02*
X142600000Y-120165000I0J150000D01*
G01*
G37*
G04 #@! TD.AperFunction*
G04 #@! TO.P,U5,2*
G04 #@! TO.N,Net-(D2-Pad1)*
G04 #@! TA.AperFunction,SMDPad,CuDef*
G36*
G01*
X142600000Y-118895000D02*
X142600000Y-118595000D01*
G75*
G02*
X142750000Y-118445000I150000J0D01*
G01*
X144400000Y-118445000D01*
G75*
G02*
X144550000Y-118595000I0J-150000D01*
G01*
X144550000Y-118895000D01*
G75*
G02*
X144400000Y-119045000I-150000J0D01*
G01*
X142750000Y-119045000D01*
G75*
G02*
X142600000Y-118895000I0J150000D01*
G01*
G37*
G04 #@! TD.AperFunction*
G04 #@! TO.P,U5,1*
G04 #@! TA.AperFunction,SMDPad,CuDef*
G36*
G01*
X142600000Y-117625000D02*
X142600000Y-117325000D01*
G75*
G02*
X142750000Y-117175000I150000J0D01*
G01*
X144400000Y-117175000D01*
G75*
G02*
X144550000Y-117325000I0J-150000D01*
G01*
X144550000Y-117625000D01*
G75*
G02*
X144400000Y-117775000I-150000J0D01*
G01*
X142750000Y-117775000D01*
G75*
G02*
X142600000Y-117625000I0J150000D01*
G01*
G37*
G04 #@! TD.AperFunction*
G04 #@! TD*
D24*
G04 #@! TO.N,GND*
X156210500Y-125454300D03*
X142305000Y-116205000D03*
X136525000Y-121285000D03*
X146050000Y-125051800D03*
X156210000Y-99060000D03*
X125679200Y-111353600D03*
X153735000Y-109220000D03*
X156845000Y-106045000D03*
X153810000Y-122234600D03*
X160020000Y-116205000D03*
X132080000Y-125095000D03*
X132080000Y-123825000D03*
X127000000Y-125095000D03*
X132588000Y-119380000D03*
X145796000Y-120396000D03*
X123596400Y-110439200D03*
X122326400Y-110439200D03*
X124968000Y-110439200D03*
X122123200Y-113690400D03*
X122123200Y-114706400D03*
X122123200Y-115620800D03*
X124612400Y-112420400D03*
X122885200Y-109677200D03*
X124612400Y-111353600D03*
X125679200Y-112420400D03*
G04 #@! TO.N,Net-(U1-Pad10)*
X140732300Y-109004300D03*
X132080000Y-122428000D03*
G04 #@! TO.N,Net-(U2-Pad3)*
X141744400Y-120289100D03*
X148561100Y-114257300D03*
X156750500Y-116316300D03*
G04 #@! TO.N,Net-(U1-Pad11)*
X139192000Y-113792000D03*
X139192000Y-111687900D03*
G04 #@! TO.N,Net-(U2-Pad12)*
X145608100Y-110630600D03*
X141361300Y-121369990D03*
X141732000Y-124460000D03*
X140666264Y-122886264D03*
G04 #@! TO.N,VDD*
X150495000Y-117475000D03*
X127635000Y-117475000D03*
X131241300Y-120802400D03*
X136525000Y-122555000D03*
X144830800Y-101396800D03*
G04 #@! TO.N,Net-(D2-Pad1)*
X144283400Y-116015900D03*
X153670000Y-106222800D03*
X133553200Y-106934000D03*
G04 #@! TO.N,Net-(D4-Pad2)*
X132080000Y-121412000D03*
X131064000Y-116840000D03*
G04 #@! TD*
D25*
G04 #@! TO.N,GND*
X156210500Y-125454300D02*
X155575000Y-124818800D01*
X155575000Y-124818800D02*
X155575000Y-124600000D01*
X134086700Y-120051700D02*
X134050000Y-120015000D01*
X159945600Y-112367000D02*
X159338600Y-111760000D01*
X159338600Y-111760000D02*
X158685000Y-111760000D01*
X138290000Y-106345300D02*
X138290000Y-106680000D01*
X145027300Y-125051800D02*
X143618200Y-125051800D01*
X143618200Y-125051800D02*
X143575000Y-125095000D01*
X153810000Y-122234600D02*
X153735000Y-122159600D01*
X153735000Y-122159600D02*
X153735000Y-119380000D01*
X153810000Y-123190000D02*
X153810000Y-122234600D01*
X153735000Y-110490000D02*
X153735000Y-109709800D01*
X159385000Y-100190000D02*
X157480000Y-100190000D01*
X132080000Y-125095000D02*
X134050000Y-125095000D01*
X132159100Y-123904100D02*
X132080000Y-123825000D01*
X133970900Y-123904100D02*
X132159100Y-123904100D01*
X134050000Y-123825000D02*
X133970900Y-123904100D01*
X153735000Y-109709800D02*
X153735000Y-109220000D01*
X158685000Y-115570000D02*
X158692600Y-115577600D01*
X158685000Y-116140000D02*
X158750000Y-116205000D01*
X158685000Y-115570000D02*
X158685000Y-116140000D01*
X158750000Y-116205000D02*
X160020000Y-116205000D01*
X160217210Y-113831232D02*
X160217210Y-116007790D01*
X159945600Y-113559622D02*
X160217210Y-113831232D01*
X160217210Y-116007790D02*
X160020000Y-116205000D01*
X159945600Y-112367000D02*
X159945600Y-113559622D01*
X157340000Y-100190000D02*
X157480000Y-100190000D01*
X156210000Y-99060000D02*
X157340000Y-100190000D01*
X157480000Y-106045000D02*
X156845000Y-106045000D01*
X157620000Y-106185000D02*
X157480000Y-106045000D01*
X157620000Y-107315000D02*
X157620000Y-106185000D01*
X124525000Y-125095000D02*
X127000000Y-125095000D01*
X134685000Y-120650000D02*
X134050000Y-120015000D01*
X135890000Y-120650000D02*
X134685000Y-120650000D01*
X145027300Y-125051800D02*
X146050000Y-125051800D01*
X142305000Y-114935000D02*
X142305000Y-116205000D01*
X135890000Y-120650000D02*
X136525000Y-121285000D01*
X133415000Y-119380000D02*
X132588000Y-119380000D01*
X134050000Y-120015000D02*
X133415000Y-119380000D01*
X142814644Y-119489990D02*
X144889990Y-119489990D01*
X142305000Y-118980346D02*
X142814644Y-119489990D01*
X142305000Y-116205000D02*
X142305000Y-118980346D01*
X144889990Y-119489990D02*
X145796000Y-120396000D01*
X145796000Y-120396000D02*
X145796000Y-120396000D01*
X139000000Y-125095000D02*
X143575000Y-125095000D01*
X132294000Y-112776000D02*
X130770000Y-111252000D01*
X124143000Y-114350000D02*
X124193000Y-114300000D01*
X124143000Y-115824000D02*
X124143000Y-114350000D01*
X132294000Y-112776000D02*
X134086000Y-112776000D01*
X134086000Y-114059000D02*
X133845000Y-114300000D01*
X134086000Y-112776000D02*
X134086000Y-114059000D01*
X124193000Y-114059000D02*
X124193000Y-114300000D01*
X118605000Y-120557000D02*
X117348000Y-119300000D01*
X118605000Y-123190000D02*
X118605000Y-120557000D01*
X138290000Y-105333500D02*
X136779000Y-103822500D01*
X138290000Y-106680000D02*
X138290000Y-105333500D01*
G04 #@! TO.N,Net-(C1-Pad1)*
X120155000Y-123190000D02*
X120155000Y-125045000D01*
X120155000Y-125045000D02*
X120205000Y-125095000D01*
X124525000Y-117475000D02*
X124273900Y-117475000D01*
X120155000Y-122863900D02*
X120155000Y-123190000D01*
X122936000Y-120082900D02*
X120155000Y-122863900D01*
X122936000Y-118364000D02*
X122936000Y-120082900D01*
X123825000Y-117475000D02*
X124525000Y-117475000D01*
X122936000Y-118364000D02*
X123825000Y-117475000D01*
G04 #@! TO.N,Net-(U1-Pad10)*
X142305000Y-107315000D02*
X142017600Y-107315000D01*
X142017600Y-107315000D02*
X140732300Y-108600300D01*
X140732300Y-108600300D02*
X140732300Y-109004300D01*
X130288700Y-122555000D02*
X129475000Y-122555000D01*
X129602000Y-122428000D02*
X129475000Y-122555000D01*
X132080000Y-122428000D02*
X129602000Y-122428000D01*
G04 #@! TO.N,Net-(U1-Pad9)*
X129475000Y-123825000D02*
X129220800Y-123825000D01*
X129220800Y-123825000D02*
X128245700Y-122849900D01*
X128245700Y-122849900D02*
X128245700Y-119689900D01*
X128245700Y-119689900D02*
X128449300Y-119486300D01*
X128449300Y-119486300D02*
X130239600Y-119486300D01*
X133755800Y-116205000D02*
X134050000Y-116205000D01*
X133520900Y-116205000D02*
X131212950Y-118512950D01*
X131212950Y-118512950D02*
X131338700Y-118387200D01*
X134050000Y-116205000D02*
X133520900Y-116205000D01*
X130239600Y-119486300D02*
X131212950Y-118512950D01*
X130110000Y-124460000D02*
X129475000Y-123825000D01*
X135255000Y-124460000D02*
X130110000Y-124460000D01*
X136742000Y-125947000D02*
X135255000Y-124460000D01*
X147673000Y-125947000D02*
X148525000Y-125095000D01*
X136742000Y-125947000D02*
X147673000Y-125947000D01*
G04 #@! TO.N,Net-(U2-Pad12)*
X148525000Y-123825000D02*
X148762700Y-123825000D01*
G04 #@! TO.N,Net-(U2-Pad3)*
X141744400Y-120289100D02*
X141398700Y-120634800D01*
X134050000Y-118745000D02*
X135311800Y-118745000D01*
X135311800Y-118745000D02*
X137201600Y-120634800D01*
X137836600Y-120634800D02*
X141398700Y-120634800D01*
X148561100Y-114257300D02*
X148561100Y-113465000D01*
X148561100Y-113465000D02*
X147491100Y-112395000D01*
X147491100Y-112395000D02*
X147255000Y-112395000D01*
X157480000Y-116840000D02*
X158685000Y-116840000D01*
X156750500Y-116316300D02*
X157480000Y-116840000D01*
X137201600Y-120634800D02*
X138471600Y-120634800D01*
X141911302Y-121866302D02*
X142600000Y-122555000D01*
X142600000Y-122555000D02*
X143575000Y-122555000D01*
X141911302Y-120456002D02*
X141911302Y-121866302D01*
X141744400Y-120289100D02*
X141911302Y-120456002D01*
G04 #@! TO.N,Net-(C10-Pad1)*
X115687400Y-111124500D02*
X116512400Y-110299500D01*
X114744500Y-111124500D02*
X115687400Y-111124500D01*
X116512400Y-113464400D02*
X117348000Y-114300000D01*
X116512400Y-110299500D02*
X116512400Y-113464400D01*
X119421000Y-114300000D02*
X121653000Y-112068000D01*
X117348000Y-114300000D02*
X119421000Y-114300000D01*
X117587401Y-109224499D02*
X117597501Y-109224499D01*
X116512400Y-110299500D02*
X117587401Y-109224499D01*
X117597501Y-109224499D02*
X118160800Y-108661200D01*
X121224800Y-108661200D02*
X121872500Y-108013500D01*
X118160800Y-108661200D02*
X121224800Y-108661200D01*
G04 #@! TO.N,Net-(F1-Pad2)*
X119700500Y-104454500D02*
X120332500Y-103822500D01*
X119700500Y-106934000D02*
X119700500Y-104454500D01*
X120332500Y-101968300D02*
X120332500Y-103822500D01*
X154368500Y-100825300D02*
X153974800Y-100431600D01*
X121869200Y-100431600D02*
X120332500Y-101968300D01*
X153974800Y-100431600D02*
X121869200Y-100431600D01*
X154368500Y-103822500D02*
X154368500Y-100825300D01*
G04 #@! TO.N,Net-(C2-Pad2)*
X149035000Y-114935000D02*
X149670000Y-115570000D01*
X147255000Y-114935000D02*
X149035000Y-114935000D01*
X149451600Y-113030000D02*
X149451600Y-114518400D01*
X149451600Y-114518400D02*
X149035000Y-114935000D01*
X149451600Y-113030000D02*
X149720000Y-113030000D01*
X145867500Y-111668300D02*
X148089900Y-111668300D01*
X144757500Y-107788400D02*
X144757500Y-110558300D01*
X142947800Y-105978700D02*
X144757500Y-107788400D01*
X148089900Y-111668300D02*
X149451600Y-113030000D01*
X144757500Y-110558300D02*
X145867500Y-111668300D01*
X137809001Y-102747499D02*
X132774001Y-102747499D01*
X132774001Y-102747499D02*
X131699000Y-103822500D01*
X141040202Y-105978700D02*
X137809001Y-102747499D01*
X142947800Y-105978700D02*
X141040202Y-105978700D01*
G04 #@! TO.N,Net-(C3-Pad2)*
X148525000Y-118745000D02*
X148280800Y-118745000D01*
X148280800Y-118745000D02*
X145584500Y-116048700D01*
X145584500Y-116048700D02*
X145584500Y-114213200D01*
X145584500Y-114213200D02*
X144238000Y-112866700D01*
X144238000Y-112866700D02*
X144238000Y-107693800D01*
X144238000Y-107693800D02*
X143224200Y-106680000D01*
X143224200Y-106680000D02*
X139840000Y-106680000D01*
X148525000Y-120015000D02*
X148525000Y-118745000D01*
X148525000Y-120015000D02*
X148800600Y-120015000D01*
X148780000Y-119000000D02*
X148525000Y-118745000D01*
X151130000Y-119000000D02*
X148780000Y-119000000D01*
G04 #@! TO.N,Net-(C5-Pad1)*
X159385000Y-103315000D02*
X159385000Y-101740000D01*
X153735000Y-111760000D02*
X154298300Y-111760000D01*
X154298300Y-111760000D02*
X158432500Y-107625800D01*
X158432500Y-107625800D02*
X158432500Y-104267500D01*
X158432500Y-104267500D02*
X159385000Y-103315000D01*
X157480000Y-101740000D02*
X159385000Y-101740000D01*
G04 #@! TO.N,Net-(C8-Pad1)*
X154495000Y-121285000D02*
X155575000Y-122365000D01*
X155575000Y-122365000D02*
X155575000Y-123050000D01*
X158685000Y-113030000D02*
X158991700Y-113030000D01*
X158991700Y-113030000D02*
X159917200Y-113955500D01*
X159917200Y-113955500D02*
X159917200Y-114592200D01*
X159917200Y-114592200D02*
X159523300Y-114986100D01*
X159523300Y-114986100D02*
X157271700Y-114986100D01*
X157271700Y-114986100D02*
X155874000Y-116383800D01*
X155874000Y-116383800D02*
X155874000Y-119906000D01*
X155874000Y-119906000D02*
X154495000Y-121285000D01*
G04 #@! TO.N,Net-(C9-Pad1)*
X149670000Y-109855000D02*
X150987500Y-108537500D01*
X150987500Y-108537500D02*
X153272500Y-108537500D01*
X153272500Y-108537500D02*
X154495000Y-107315000D01*
X147255000Y-109855000D02*
X149670000Y-109855000D01*
X154495000Y-107315000D02*
X156070000Y-107315000D01*
G04 #@! TO.N,Net-(J4-Pad3)*
X142305000Y-111125000D02*
X141097000Y-111125000D01*
X137660930Y-107688930D02*
X138226800Y-108254800D01*
X133944601Y-106308199D02*
X135325332Y-107688930D01*
X129489201Y-106308199D02*
X133944601Y-106308199D01*
X123947501Y-102747499D02*
X125928501Y-102747499D01*
X135325332Y-107688930D02*
X137660930Y-107688930D01*
X122872500Y-103822500D02*
X123947501Y-102747499D01*
X141097000Y-111125000D02*
X138226800Y-108254800D01*
X125928501Y-102747499D02*
X129489201Y-106308199D01*
X138226800Y-108254800D02*
X138176000Y-108204000D01*
G04 #@! TO.N,Net-(R1-Pad1)*
X124525000Y-123825000D02*
X125051000Y-124351000D01*
X125051000Y-124351000D02*
X128731000Y-124351000D01*
X128731000Y-124351000D02*
X129475000Y-125095000D01*
X124259700Y-123825000D02*
X124525000Y-123825000D01*
X122259800Y-125824900D02*
X124259700Y-123825000D01*
X124259700Y-123825000D02*
X124259700Y-122555000D01*
X124259700Y-122555000D02*
X124525000Y-122555000D01*
X124525000Y-120015000D02*
X124287000Y-120015000D01*
X124287000Y-120015000D02*
X123310100Y-120991900D01*
X123310100Y-120991900D02*
X123310100Y-121605400D01*
X123310100Y-121605400D02*
X124259700Y-122555000D01*
X119284900Y-125824900D02*
X118555000Y-125095000D01*
X122259800Y-125824900D02*
X119284900Y-125824900D01*
G04 #@! TO.N,Net-(R4-Pad2)*
X149225000Y-122555000D02*
X151130000Y-120650000D01*
X148525000Y-122555000D02*
X149225000Y-122555000D01*
G04 #@! TO.N,Net-(R10-Pad1)*
X153970346Y-118110000D02*
X153735000Y-118110000D01*
X154940000Y-116205000D02*
X154940000Y-117140346D01*
X155290000Y-115855000D02*
X154940000Y-116205000D01*
X152770200Y-112328700D02*
X154574600Y-112328700D01*
X155290000Y-113044100D02*
X155290000Y-115855000D01*
X151320000Y-109855000D02*
X151320000Y-110878500D01*
X154574600Y-112328700D02*
X155290000Y-113044100D01*
X154940000Y-117140346D02*
X153970346Y-118110000D01*
X151320000Y-110878500D02*
X152770200Y-112328700D01*
G04 #@! TO.N,Net-(U1-Pad12)*
X129475000Y-120015000D02*
X130214100Y-120015000D01*
X130214100Y-120015000D02*
X132754100Y-117475000D01*
X133389100Y-117475000D02*
X134050000Y-117475000D01*
X132754100Y-117475000D02*
X134050000Y-117475000D01*
G04 #@! TO.N,Net-(U1-Pad11)*
X139772100Y-111687900D02*
X139772100Y-111687900D01*
X130450000Y-121285000D02*
X129475000Y-121285000D01*
X130691000Y-119963000D02*
X130691000Y-121044000D01*
X132443100Y-118210900D02*
X130691000Y-119963000D01*
X139980336Y-119270010D02*
X138019664Y-119270010D01*
X140500019Y-118750327D02*
X139980336Y-119270010D01*
X138019664Y-119270010D02*
X136960554Y-118210900D01*
X140500019Y-115775395D02*
X140500019Y-118750327D01*
X130691000Y-121044000D02*
X130450000Y-121285000D01*
X136960554Y-118210900D02*
X132443100Y-118210900D01*
X143280000Y-108585000D02*
X142305000Y-108585000D01*
X143572500Y-108877500D02*
X143280000Y-108585000D01*
X143572500Y-111405200D02*
X143572500Y-108877500D01*
X143289800Y-111687900D02*
X143572500Y-111405200D01*
X139192000Y-111687900D02*
X143289800Y-111687900D01*
X139192000Y-114467376D02*
X140500019Y-115775395D01*
X139192000Y-113792000D02*
X139192000Y-114467376D01*
G04 #@! TO.N,Net-(U2-Pad12)*
X147255000Y-111125000D02*
X146102500Y-111125000D01*
X146102500Y-111125000D02*
X145608100Y-110630600D01*
X139000000Y-121285000D02*
X140335000Y-121285000D01*
X140270000Y-121285000D02*
X140335000Y-121285000D01*
X139700000Y-121285000D02*
X141276310Y-121285000D01*
X141276310Y-121285000D02*
X141361300Y-121369990D01*
X147890000Y-124460000D02*
X141732000Y-124460000D01*
X141361300Y-122191228D02*
X141361300Y-121369990D01*
X140666264Y-122886264D02*
X141361300Y-122191228D01*
X147890000Y-124460000D02*
X148525000Y-123825000D01*
G04 #@! TO.N,Net-(U1-Pad13)*
X124525000Y-121285000D02*
X124825000Y-121285000D01*
X124825000Y-121285000D02*
X127365000Y-118745000D01*
X127365000Y-118745000D02*
X129475000Y-118745000D01*
G04 #@! TO.N,VDD*
X157480000Y-103315000D02*
X157290000Y-103315000D01*
X151320000Y-107315000D02*
X152845000Y-107315000D01*
X151130000Y-107125000D02*
X151320000Y-107315000D01*
X159385000Y-104965000D02*
X159385000Y-109790000D01*
X159385000Y-109790000D02*
X158685000Y-110490000D01*
X153735000Y-113030000D02*
X151270000Y-113030000D01*
X158429000Y-114300000D02*
X158685000Y-114300000D01*
X149415000Y-117475000D02*
X148525000Y-117475000D01*
X148525000Y-117475000D02*
X148286400Y-117475000D01*
X148286400Y-117475000D02*
X146047300Y-115235900D01*
X146047300Y-115235900D02*
X146047300Y-114575900D01*
X146047300Y-114575900D02*
X146958200Y-113665000D01*
X146958200Y-113665000D02*
X147255000Y-113665000D01*
X147998100Y-106571900D02*
X147255000Y-107315000D01*
X147998100Y-106528400D02*
X147998100Y-106571900D01*
X139000000Y-123825000D02*
X139000000Y-122555000D01*
X152845000Y-121285000D02*
X152845000Y-122605000D01*
X152845000Y-122605000D02*
X152260000Y-123190000D01*
X134050000Y-121285000D02*
X134050000Y-122555000D01*
X153735000Y-115570000D02*
X153987800Y-115570000D01*
X153987800Y-115570000D02*
X154957800Y-114600000D01*
X154957800Y-114600000D02*
X154957800Y-113947000D01*
X154957800Y-113947000D02*
X154040800Y-113030000D01*
X154040800Y-113030000D02*
X153735000Y-113030000D01*
X134050000Y-122555000D02*
X136525000Y-122555000D01*
X147255000Y-108585000D02*
X147255000Y-107315000D01*
X129475000Y-117475000D02*
X127635000Y-117475000D01*
X136525000Y-122555000D02*
X139000000Y-122555000D01*
X150495000Y-117475000D02*
X148525000Y-117475000D01*
X150495000Y-116395000D02*
X151320000Y-115570000D01*
X150495000Y-117475000D02*
X150495000Y-116395000D01*
X160092900Y-101325500D02*
X159782100Y-101014700D01*
X160092900Y-104257100D02*
X160092900Y-101325500D01*
X159385000Y-104965000D02*
X160092900Y-104257100D01*
X157480900Y-111427200D02*
X157480900Y-113331246D01*
X158449654Y-114300000D02*
X158685000Y-114300000D01*
X157480900Y-113331246D02*
X158449654Y-114300000D01*
X158418100Y-110490000D02*
X157480900Y-111427200D01*
X158685000Y-110490000D02*
X158418100Y-110490000D01*
X139000000Y-116205000D02*
X138172700Y-115377700D01*
X133542010Y-115377990D02*
X133157990Y-115377990D01*
X133542300Y-115377700D02*
X133542010Y-115377990D01*
X133157990Y-115377990D02*
X133157700Y-115377700D01*
X154715336Y-118635010D02*
X152754664Y-118635010D01*
X155240009Y-116539991D02*
X155240009Y-118110337D01*
X152754664Y-118635010D02*
X152533500Y-118413846D01*
X155240009Y-118110337D02*
X154715336Y-118635010D01*
X157480000Y-114300000D02*
X155240009Y-116539991D01*
X158685000Y-114300000D02*
X157480000Y-114300000D01*
X151320000Y-115570000D02*
X153735000Y-115570000D01*
X152400000Y-120840000D02*
X152845000Y-121285000D01*
X152400000Y-118377000D02*
X152400000Y-120840000D01*
X152400000Y-118110000D02*
X152400000Y-116650000D01*
X152400000Y-116650000D02*
X151320000Y-115570000D01*
X152436846Y-118413846D02*
X152400000Y-118377000D01*
X152533500Y-118413846D02*
X152436846Y-118413846D01*
X152400000Y-118110000D02*
X152400000Y-118377000D01*
X133809010Y-115377990D02*
X133157990Y-115377990D01*
X136590300Y-115377700D02*
X133542300Y-115377700D01*
X138172700Y-115377700D02*
X136590300Y-115377700D01*
X150533400Y-106528400D02*
X151320000Y-107315000D01*
X147998100Y-106528400D02*
X150533400Y-106528400D01*
X157049300Y-101014700D02*
X159782100Y-101014700D01*
X125743000Y-113779000D02*
X128270000Y-111252000D01*
X125743000Y-114300000D02*
X125743000Y-113779000D01*
X135636000Y-114059000D02*
X135395000Y-114300000D01*
X135636000Y-112776000D02*
X135636000Y-114059000D01*
X137095000Y-114300000D02*
X139000000Y-116205000D01*
X135395000Y-114300000D02*
X137095000Y-114300000D01*
X132697032Y-115377990D02*
X133157990Y-115377990D01*
X132521290Y-115553732D02*
X132697032Y-115377990D01*
X132521290Y-116356054D02*
X132521290Y-115553732D01*
X131402344Y-117475000D02*
X132521290Y-116356054D01*
X129475000Y-117475000D02*
X131402344Y-117475000D01*
X156779990Y-102614990D02*
X156779990Y-101284010D01*
X156779990Y-101284010D02*
X157049300Y-101014700D01*
X157480000Y-103315000D02*
X156779990Y-102614990D01*
X127511000Y-111252000D02*
X128270000Y-111252000D01*
X123872500Y-107613500D02*
X127511000Y-111252000D01*
X123872500Y-107063500D02*
X123872500Y-107613500D01*
X145542000Y-105602000D02*
X147255000Y-107315000D01*
X145542000Y-103822500D02*
X145542000Y-105602000D01*
X121797499Y-104988499D02*
X121797499Y-102382901D01*
X123872500Y-107063500D02*
X121797499Y-104988499D01*
X121797499Y-102382901D02*
X122529600Y-101650800D01*
X122529600Y-101650800D02*
X133553200Y-101650800D01*
X133553200Y-101650800D02*
X144576800Y-101650800D01*
X144576800Y-101650800D02*
X144830800Y-101396800D01*
X131250100Y-120793600D02*
X131241300Y-120802400D01*
X133558600Y-120793600D02*
X131250100Y-120793600D01*
X134050000Y-121285000D02*
X133558600Y-120793600D01*
X120841502Y-110299500D02*
X122580400Y-108560602D01*
X123263700Y-107063500D02*
X123872500Y-107063500D01*
X122580400Y-107746800D02*
X123263700Y-107063500D01*
X122580400Y-108560602D02*
X122580400Y-107746800D01*
X120012400Y-110299500D02*
X120841502Y-110299500D01*
G04 #@! TO.N,Net-(U3-Pad5)*
X148525000Y-121285000D02*
X148224800Y-121285000D01*
X148224800Y-121285000D02*
X145178200Y-118238400D01*
X145178200Y-118238400D02*
X145178200Y-115032300D01*
X145178200Y-115032300D02*
X142540900Y-112395000D01*
X142540900Y-112395000D02*
X142305000Y-112395000D01*
G04 #@! TO.N,Net-(R11-Pad2)*
X154697300Y-124345000D02*
X155217300Y-123825000D01*
X155217300Y-123825000D02*
X155993700Y-123825000D01*
X155993700Y-123825000D02*
X156333200Y-123485500D01*
X156333200Y-123485500D02*
X156333200Y-120200500D01*
X156333200Y-120200500D02*
X158423700Y-118110000D01*
X158423700Y-118110000D02*
X158685000Y-118110000D01*
X154697300Y-124447700D02*
X154050000Y-125095000D01*
X154697300Y-124345000D02*
X154697300Y-124447700D01*
G04 #@! TO.N,Net-(R11-Pad1)*
X143575000Y-123825000D02*
X145477800Y-123825000D01*
X145477800Y-123825000D02*
X146039600Y-123263200D01*
X146039600Y-123263200D02*
X149472700Y-123263200D01*
X149472700Y-123263200D02*
X150813800Y-124604300D01*
X151909300Y-124604300D02*
X152400000Y-125095000D01*
X150813800Y-124604300D02*
X151909300Y-124604300D01*
G04 #@! TO.N,Net-(U6-Pad6)*
X153735000Y-116840000D02*
X153987700Y-116840000D01*
G04 #@! TO.N,Net-(F1-Pad1)*
X116900500Y-107318500D02*
X114744500Y-109474500D01*
X116900500Y-106934000D02*
X116900500Y-107318500D01*
G04 #@! TO.N,Net-(JP1-Pad1)*
X139255900Y-118745000D02*
X139000000Y-118745000D01*
X140200010Y-118519990D02*
X140200010Y-115899664D01*
X139975000Y-118745000D02*
X140200010Y-118519990D01*
X139000000Y-118745000D02*
X139975000Y-118745000D01*
X134844000Y-110872588D02*
X134844000Y-110236000D01*
X134844000Y-110591002D02*
X134844000Y-110236000D01*
X134844000Y-110543654D02*
X134844000Y-110236000D01*
X140200010Y-115899664D02*
X134844000Y-110543654D01*
G04 #@! TO.N,Net-(JP1-Pad3)*
X143575000Y-121285000D02*
X143290500Y-121285000D01*
X143290500Y-121285000D02*
X142294700Y-120289200D01*
X142294700Y-120289200D02*
X142294700Y-120061000D01*
X142294700Y-120061000D02*
X141966700Y-119733000D01*
X141966700Y-119733000D02*
X141462000Y-119733000D01*
X139635000Y-120015000D02*
X141180000Y-120015000D01*
X141180000Y-120015000D02*
X141462000Y-119733000D01*
X140270000Y-120015000D02*
X139000000Y-120015000D01*
X140938096Y-119209096D02*
X141462000Y-119733000D01*
X140938096Y-114247998D02*
X140938096Y-119209096D01*
X137444000Y-110753902D02*
X140938096Y-114247998D01*
X137444000Y-110236000D02*
X137444000Y-110753902D01*
G04 #@! TO.N,Net-(D2-Pad1)*
X143575000Y-118745000D02*
X143575000Y-117475000D01*
X143575000Y-117475000D02*
X144283400Y-116766600D01*
X144283400Y-116766600D02*
X144283400Y-116015900D01*
X143575000Y-118745000D02*
X143823900Y-118745000D01*
X143524500Y-114648500D02*
X142541000Y-113665000D01*
X142541000Y-113665000D02*
X142305000Y-113665000D01*
X143524500Y-115257000D02*
X144283400Y-116015900D01*
X143524500Y-114648500D02*
X143524500Y-115257000D01*
X151688800Y-106222800D02*
X149288500Y-103822500D01*
X153670000Y-106222800D02*
X151688800Y-106222800D01*
X133163999Y-104897501D02*
X134239000Y-103822500D01*
X130623999Y-103306499D02*
X130623999Y-104338501D01*
X130623999Y-104338501D02*
X131182999Y-104897501D01*
X131483009Y-102447489D02*
X130623999Y-103306499D01*
X131182999Y-104897501D02*
X133163999Y-104897501D01*
X147913489Y-102447489D02*
X131483009Y-102447489D01*
X149288500Y-103822500D02*
X147913489Y-102447489D01*
X133502400Y-106883200D02*
X133553200Y-106934000D01*
X129579600Y-106883200D02*
X133502400Y-106883200D01*
X153670000Y-106222800D02*
X155194000Y-106222800D01*
X156451800Y-104965000D02*
X157480000Y-104965000D01*
X155194000Y-106222800D02*
X156451800Y-104965000D01*
G04 #@! TO.N,Net-(D2-Pad2)*
X125730000Y-104140000D02*
X125412500Y-103822500D01*
X125730000Y-106792800D02*
X125730000Y-104140000D01*
X125820400Y-106883200D02*
X125730000Y-106792800D01*
X128179600Y-106883200D02*
X125820400Y-106883200D01*
G04 #@! TO.N,Net-(D3-Pad1)*
X135312010Y-108504010D02*
X130340010Y-108504010D01*
X136144000Y-109336000D02*
X135312010Y-108504010D01*
X136144000Y-110236000D02*
X136144000Y-109336000D01*
X125730000Y-108192800D02*
X125730000Y-108762800D01*
X125730000Y-108762800D02*
X126441200Y-109474000D01*
X129370020Y-109474000D02*
X130340010Y-108504010D01*
X126441200Y-109474000D02*
X129370020Y-109474000D01*
G04 #@! TO.N,Net-(D4-Pad1)*
X125500000Y-118745000D02*
X124525000Y-118745000D01*
X125793000Y-118452000D02*
X125500000Y-118745000D01*
X125793000Y-115824000D02*
X125793000Y-118452000D01*
X125793000Y-115824000D02*
X127316000Y-115824000D01*
X127891001Y-115248999D02*
X127316000Y-115824000D01*
X129472999Y-115248999D02*
X127891001Y-115248999D01*
X130048000Y-115824000D02*
X129472999Y-115248999D01*
G04 #@! TO.N,Net-(D4-Pad2)*
X143575000Y-120015000D02*
X143339100Y-120015000D01*
X143575000Y-120015000D02*
X143339654Y-120015000D01*
X133069664Y-123080010D02*
X132849990Y-122860336D01*
X135030336Y-123080010D02*
X133069664Y-123080010D01*
X136300336Y-124350010D02*
X135030336Y-123080010D01*
X141250336Y-123080010D02*
X139980336Y-124350010D01*
X132849990Y-122860336D02*
X132849990Y-121673990D01*
X143575000Y-120015000D02*
X144550000Y-120015000D01*
X144555336Y-123080010D02*
X141250336Y-123080010D01*
X139980336Y-124350010D02*
X136300336Y-124350010D01*
X144775010Y-122860336D02*
X144555336Y-123080010D01*
X144775010Y-120240010D02*
X144775010Y-122860336D01*
X144550000Y-120015000D02*
X144775010Y-120240010D01*
X132849990Y-121673990D02*
X132588000Y-121412000D01*
X132588000Y-121412000D02*
X132588000Y-121412000D01*
X132588000Y-121412000D02*
X132080000Y-121412000D01*
X131064000Y-116208000D02*
X131448000Y-115824000D01*
X131064000Y-116840000D02*
X131064000Y-116208000D01*
G04 #@! TO.N,Net-(D5-Pad2)*
X136378700Y-115678000D02*
X132821300Y-115678000D01*
X138175700Y-117475000D02*
X136378700Y-115678000D01*
X128471998Y-115824000D02*
X128716000Y-115824000D01*
X127084999Y-117210999D02*
X128471998Y-115824000D01*
X127084999Y-117739001D02*
X127084999Y-117210999D01*
X127455998Y-118110000D02*
X127084999Y-117739001D01*
X132823290Y-115679990D02*
X132823290Y-116478332D01*
X132821300Y-115678000D02*
X132823290Y-115679990D01*
X131191622Y-118110000D02*
X130302000Y-118110000D01*
X132823290Y-116478332D02*
X131191622Y-118110000D01*
X130302000Y-118110000D02*
X127455998Y-118110000D01*
X130389300Y-118110000D02*
X130302000Y-118110000D01*
G04 #@! TO.N,Net-(J2-Pad4)*
X140768998Y-109855000D02*
X142305000Y-109855000D01*
X134068869Y-106008189D02*
X135449600Y-107388920D01*
X138302918Y-107388920D02*
X140768998Y-109855000D01*
X135449600Y-107388920D02*
X138302918Y-107388920D01*
X131344689Y-106008189D02*
X134068869Y-106008189D01*
X129159000Y-103822500D02*
X131344689Y-106008189D01*
G04 #@! TO.N,Net-(J3-Pad3)*
X146314200Y-109153800D02*
X148221700Y-109153800D01*
X148221700Y-109153800D02*
X149670000Y-107705500D01*
X149670000Y-107705500D02*
X149670000Y-107315000D01*
X145358200Y-108197800D02*
X146314200Y-109153800D01*
X153735000Y-114300000D02*
X151412000Y-114300000D01*
X151412000Y-114300000D02*
X150495000Y-113383000D01*
X150495000Y-113383000D02*
X150495000Y-112688600D01*
X150495000Y-112688600D02*
X148402700Y-110596300D01*
X148402700Y-110596300D02*
X146421400Y-110596300D01*
X146421400Y-110596300D02*
X146045400Y-110220300D01*
X146045400Y-110220300D02*
X146045400Y-109422600D01*
X146045400Y-109422600D02*
X146314200Y-109153800D01*
X141410998Y-103822500D02*
X140462000Y-103822500D01*
X145358200Y-107769702D02*
X141410998Y-103822500D01*
X145358200Y-108197800D02*
X145358200Y-107769702D01*
G04 #@! TD*
D26*
G04 #@! TO.N,VDD*
X124259025Y-104769132D02*
X124465868Y-104975975D01*
X124709089Y-105138490D01*
X124979342Y-105250432D01*
X125020001Y-105258520D01*
X125020000Y-105966781D01*
X124928815Y-106041615D01*
X124849463Y-106138306D01*
X124790498Y-106248620D01*
X124754188Y-106368318D01*
X124741928Y-106492800D01*
X124741928Y-107092800D01*
X124754188Y-107217282D01*
X124790498Y-107336980D01*
X124849463Y-107447294D01*
X124886809Y-107492800D01*
X124849463Y-107538306D01*
X124790498Y-107648620D01*
X124754188Y-107768318D01*
X124749818Y-107812685D01*
X122960572Y-107822319D01*
X122960572Y-107613500D01*
X122948312Y-107489018D01*
X122912002Y-107369320D01*
X122853037Y-107259006D01*
X122773685Y-107162315D01*
X122676994Y-107082963D01*
X122566680Y-107023998D01*
X122446982Y-106987688D01*
X122322500Y-106975428D01*
X121422500Y-106975428D01*
X121298018Y-106987688D01*
X121178320Y-107023998D01*
X121068006Y-107082963D01*
X120971315Y-107162315D01*
X120963572Y-107171750D01*
X120963572Y-106309000D01*
X120946508Y-106135746D01*
X120895972Y-105969150D01*
X120813905Y-105815614D01*
X120703462Y-105681038D01*
X120568886Y-105570595D01*
X120415350Y-105488528D01*
X120410500Y-105487057D01*
X120410500Y-105307500D01*
X120478760Y-105307500D01*
X120765658Y-105250432D01*
X121035911Y-105138490D01*
X121279132Y-104975975D01*
X121485975Y-104769132D01*
X121602500Y-104594740D01*
X121719025Y-104769132D01*
X121925868Y-104975975D01*
X122169089Y-105138490D01*
X122439342Y-105250432D01*
X122726240Y-105307500D01*
X123018760Y-105307500D01*
X123305658Y-105250432D01*
X123575911Y-105138490D01*
X123819132Y-104975975D01*
X124025975Y-104769132D01*
X124142500Y-104594740D01*
X124259025Y-104769132D01*
G04 #@! TA.AperFunction,Conductor*
D27*
G36*
X124259025Y-104769132D02*
G01*
X124465868Y-104975975D01*
X124709089Y-105138490D01*
X124979342Y-105250432D01*
X125020001Y-105258520D01*
X125020000Y-105966781D01*
X124928815Y-106041615D01*
X124849463Y-106138306D01*
X124790498Y-106248620D01*
X124754188Y-106368318D01*
X124741928Y-106492800D01*
X124741928Y-107092800D01*
X124754188Y-107217282D01*
X124790498Y-107336980D01*
X124849463Y-107447294D01*
X124886809Y-107492800D01*
X124849463Y-107538306D01*
X124790498Y-107648620D01*
X124754188Y-107768318D01*
X124749818Y-107812685D01*
X122960572Y-107822319D01*
X122960572Y-107613500D01*
X122948312Y-107489018D01*
X122912002Y-107369320D01*
X122853037Y-107259006D01*
X122773685Y-107162315D01*
X122676994Y-107082963D01*
X122566680Y-107023998D01*
X122446982Y-106987688D01*
X122322500Y-106975428D01*
X121422500Y-106975428D01*
X121298018Y-106987688D01*
X121178320Y-107023998D01*
X121068006Y-107082963D01*
X120971315Y-107162315D01*
X120963572Y-107171750D01*
X120963572Y-106309000D01*
X120946508Y-106135746D01*
X120895972Y-105969150D01*
X120813905Y-105815614D01*
X120703462Y-105681038D01*
X120568886Y-105570595D01*
X120415350Y-105488528D01*
X120410500Y-105487057D01*
X120410500Y-105307500D01*
X120478760Y-105307500D01*
X120765658Y-105250432D01*
X121035911Y-105138490D01*
X121279132Y-104975975D01*
X121485975Y-104769132D01*
X121602500Y-104594740D01*
X121719025Y-104769132D01*
X121925868Y-104975975D01*
X122169089Y-105138490D01*
X122439342Y-105250432D01*
X122726240Y-105307500D01*
X123018760Y-105307500D01*
X123305658Y-105250432D01*
X123575911Y-105138490D01*
X123819132Y-104975975D01*
X124025975Y-104769132D01*
X124142500Y-104594740D01*
X124259025Y-104769132D01*
G37*
G04 #@! TD.AperFunction*
G04 #@! TD*
D26*
G04 #@! TO.N,GND*
X123940404Y-108685495D02*
X126831928Y-111577020D01*
X126831928Y-111685981D01*
X125299059Y-113218850D01*
X125187717Y-113252625D01*
X125041649Y-113330700D01*
X124997494Y-113294463D01*
X124887180Y-113235498D01*
X124767482Y-113199188D01*
X124643000Y-113186928D01*
X124478750Y-113190000D01*
X124320000Y-113348750D01*
X124320000Y-114173000D01*
X124340000Y-114173000D01*
X124340000Y-114427000D01*
X124320000Y-114427000D01*
X124320000Y-114822750D01*
X124270000Y-114872750D01*
X124270000Y-115697000D01*
X124290000Y-115697000D01*
X124290000Y-115951000D01*
X124270000Y-115951000D01*
X124270000Y-115971000D01*
X124016000Y-115971000D01*
X124016000Y-115951000D01*
X123266750Y-115951000D01*
X123108000Y-116109750D01*
X123104928Y-116299000D01*
X123117188Y-116423482D01*
X123153498Y-116543180D01*
X123153620Y-116543408D01*
X121310004Y-116535726D01*
X121304493Y-114775000D01*
X123104928Y-114775000D01*
X123117188Y-114899482D01*
X123153498Y-115019180D01*
X123176386Y-115062000D01*
X123153498Y-115104820D01*
X123117188Y-115224518D01*
X123104928Y-115349000D01*
X123108000Y-115538250D01*
X123266750Y-115697000D01*
X124016000Y-115697000D01*
X124016000Y-115301250D01*
X124066000Y-115251250D01*
X124066000Y-114427000D01*
X123266750Y-114427000D01*
X123108000Y-114585750D01*
X123104928Y-114775000D01*
X121304493Y-114775000D01*
X121301520Y-113825000D01*
X123104928Y-113825000D01*
X123108000Y-114014250D01*
X123266750Y-114173000D01*
X124066000Y-114173000D01*
X124066000Y-113348750D01*
X123907250Y-113190000D01*
X123743000Y-113186928D01*
X123618518Y-113199188D01*
X123498820Y-113235498D01*
X123388506Y-113294463D01*
X123291815Y-113373815D01*
X123212463Y-113470506D01*
X123153498Y-113580820D01*
X123117188Y-113700518D01*
X123104928Y-113825000D01*
X121301520Y-113825000D01*
X121300267Y-113424824D01*
X121544019Y-113181072D01*
X121878000Y-113181072D01*
X122046377Y-113164488D01*
X122208283Y-113115375D01*
X122354351Y-113037300D01*
X122398506Y-113073537D01*
X122508820Y-113132502D01*
X122628518Y-113168812D01*
X122753000Y-113181072D01*
X122917250Y-113178000D01*
X123076000Y-113019250D01*
X123076000Y-112195000D01*
X123330000Y-112195000D01*
X123330000Y-113019250D01*
X123488750Y-113178000D01*
X123653000Y-113181072D01*
X123777482Y-113168812D01*
X123897180Y-113132502D01*
X124007494Y-113073537D01*
X124104185Y-112994185D01*
X124183537Y-112897494D01*
X124242502Y-112787180D01*
X124278812Y-112667482D01*
X124291072Y-112543000D01*
X124288000Y-112353750D01*
X124129250Y-112195000D01*
X123330000Y-112195000D01*
X123076000Y-112195000D01*
X123056000Y-112195000D01*
X123056000Y-111941000D01*
X123076000Y-111941000D01*
X123076000Y-111116750D01*
X123330000Y-111116750D01*
X123330000Y-111941000D01*
X124129250Y-111941000D01*
X124288000Y-111782250D01*
X124291072Y-111593000D01*
X124278812Y-111468518D01*
X124242502Y-111348820D01*
X124183537Y-111238506D01*
X124104185Y-111141815D01*
X124007494Y-111062463D01*
X123897180Y-111003498D01*
X123777482Y-110967188D01*
X123653000Y-110954928D01*
X123488750Y-110958000D01*
X123330000Y-111116750D01*
X123076000Y-111116750D01*
X122917250Y-110958000D01*
X122753000Y-110954928D01*
X122628518Y-110967188D01*
X122508820Y-111003498D01*
X122398506Y-111062463D01*
X122354351Y-111098700D01*
X122208283Y-111020625D01*
X122046377Y-110971512D01*
X121878000Y-110954928D01*
X121428000Y-110954928D01*
X121300472Y-110967489D01*
X121300472Y-110841320D01*
X121345977Y-110803975D01*
X121368214Y-110776879D01*
X123057789Y-109087305D01*
X123084874Y-109065077D01*
X123107104Y-109037990D01*
X123107107Y-109037987D01*
X123173599Y-108956966D01*
X123173601Y-108956964D01*
X123239528Y-108833622D01*
X123280127Y-108699786D01*
X123281805Y-108682750D01*
X123940404Y-108685495D01*
G04 #@! TA.AperFunction,Conductor*
D27*
G36*
X123940404Y-108685495D02*
G01*
X126831928Y-111577020D01*
X126831928Y-111685981D01*
X125299059Y-113218850D01*
X125187717Y-113252625D01*
X125041649Y-113330700D01*
X124997494Y-113294463D01*
X124887180Y-113235498D01*
X124767482Y-113199188D01*
X124643000Y-113186928D01*
X124478750Y-113190000D01*
X124320000Y-113348750D01*
X124320000Y-114173000D01*
X124340000Y-114173000D01*
X124340000Y-114427000D01*
X124320000Y-114427000D01*
X124320000Y-114822750D01*
X124270000Y-114872750D01*
X124270000Y-115697000D01*
X124290000Y-115697000D01*
X124290000Y-115951000D01*
X124270000Y-115951000D01*
X124270000Y-115971000D01*
X124016000Y-115971000D01*
X124016000Y-115951000D01*
X123266750Y-115951000D01*
X123108000Y-116109750D01*
X123104928Y-116299000D01*
X123117188Y-116423482D01*
X123153498Y-116543180D01*
X123153620Y-116543408D01*
X121310004Y-116535726D01*
X121304493Y-114775000D01*
X123104928Y-114775000D01*
X123117188Y-114899482D01*
X123153498Y-115019180D01*
X123176386Y-115062000D01*
X123153498Y-115104820D01*
X123117188Y-115224518D01*
X123104928Y-115349000D01*
X123108000Y-115538250D01*
X123266750Y-115697000D01*
X124016000Y-115697000D01*
X124016000Y-115301250D01*
X124066000Y-115251250D01*
X124066000Y-114427000D01*
X123266750Y-114427000D01*
X123108000Y-114585750D01*
X123104928Y-114775000D01*
X121304493Y-114775000D01*
X121301520Y-113825000D01*
X123104928Y-113825000D01*
X123108000Y-114014250D01*
X123266750Y-114173000D01*
X124066000Y-114173000D01*
X124066000Y-113348750D01*
X123907250Y-113190000D01*
X123743000Y-113186928D01*
X123618518Y-113199188D01*
X123498820Y-113235498D01*
X123388506Y-113294463D01*
X123291815Y-113373815D01*
X123212463Y-113470506D01*
X123153498Y-113580820D01*
X123117188Y-113700518D01*
X123104928Y-113825000D01*
X121301520Y-113825000D01*
X121300267Y-113424824D01*
X121544019Y-113181072D01*
X121878000Y-113181072D01*
X122046377Y-113164488D01*
X122208283Y-113115375D01*
X122354351Y-113037300D01*
X122398506Y-113073537D01*
X122508820Y-113132502D01*
X122628518Y-113168812D01*
X122753000Y-113181072D01*
X122917250Y-113178000D01*
X123076000Y-113019250D01*
X123076000Y-112195000D01*
X123330000Y-112195000D01*
X123330000Y-113019250D01*
X123488750Y-113178000D01*
X123653000Y-113181072D01*
X123777482Y-113168812D01*
X123897180Y-113132502D01*
X124007494Y-113073537D01*
X124104185Y-112994185D01*
X124183537Y-112897494D01*
X124242502Y-112787180D01*
X124278812Y-112667482D01*
X124291072Y-112543000D01*
X124288000Y-112353750D01*
X124129250Y-112195000D01*
X123330000Y-112195000D01*
X123076000Y-112195000D01*
X123056000Y-112195000D01*
X123056000Y-111941000D01*
X123076000Y-111941000D01*
X123076000Y-111116750D01*
X123330000Y-111116750D01*
X123330000Y-111941000D01*
X124129250Y-111941000D01*
X124288000Y-111782250D01*
X124291072Y-111593000D01*
X124278812Y-111468518D01*
X124242502Y-111348820D01*
X124183537Y-111238506D01*
X124104185Y-111141815D01*
X124007494Y-111062463D01*
X123897180Y-111003498D01*
X123777482Y-110967188D01*
X123653000Y-110954928D01*
X123488750Y-110958000D01*
X123330000Y-111116750D01*
X123076000Y-111116750D01*
X122917250Y-110958000D01*
X122753000Y-110954928D01*
X122628518Y-110967188D01*
X122508820Y-111003498D01*
X122398506Y-111062463D01*
X122354351Y-111098700D01*
X122208283Y-111020625D01*
X122046377Y-110971512D01*
X121878000Y-110954928D01*
X121428000Y-110954928D01*
X121300472Y-110967489D01*
X121300472Y-110841320D01*
X121345977Y-110803975D01*
X121368214Y-110776879D01*
X123057789Y-109087305D01*
X123084874Y-109065077D01*
X123107104Y-109037990D01*
X123107107Y-109037987D01*
X123173599Y-108956966D01*
X123173601Y-108956964D01*
X123239528Y-108833622D01*
X123280127Y-108699786D01*
X123281805Y-108682750D01*
X123940404Y-108685495D01*
G37*
G04 #@! TD.AperFunction*
G04 #@! TD*
M02*
