G04 #@! TF.GenerationSoftware,KiCad,Pcbnew,(5.1.10-1-10_14)*
G04 #@! TF.CreationDate,2021-07-23T17:52:14-07:00*
G04 #@! TF.ProjectId,qiroll PAS digital logic,7169726f-6c6c-4205-9041-532064696769,rev?*
G04 #@! TF.SameCoordinates,Original*
G04 #@! TF.FileFunction,Copper,L1,Top*
G04 #@! TF.FilePolarity,Positive*
%FSLAX46Y46*%
G04 Gerber Fmt 4.6, Leading zero omitted, Abs format (unit mm)*
G04 Created by KiCad (PCBNEW (5.1.10-1-10_14)) date 2021-07-23 17:52:14*
%MOMM*%
%LPD*%
G01*
G04 APERTURE LIST*
G04 #@! TA.AperFunction,ComponentPad*
%ADD10O,1.700000X1.700000*%
G04 #@! TD*
G04 #@! TA.AperFunction,ComponentPad*
%ADD11R,1.700000X1.700000*%
G04 #@! TD*
G04 #@! TA.AperFunction,SMDPad,CuDef*
%ADD12R,1.300000X1.700000*%
G04 #@! TD*
G04 #@! TA.AperFunction,ComponentPad*
%ADD13C,1.600000*%
G04 #@! TD*
G04 #@! TA.AperFunction,ComponentPad*
%ADD14R,1.600000X1.600000*%
G04 #@! TD*
G04 #@! TA.AperFunction,ComponentPad*
%ADD15C,3.800000*%
G04 #@! TD*
G04 #@! TA.AperFunction,ComponentPad*
%ADD16R,1.050000X1.500000*%
G04 #@! TD*
G04 #@! TA.AperFunction,ComponentPad*
%ADD17O,1.050000X1.500000*%
G04 #@! TD*
G04 #@! TA.AperFunction,ComponentPad*
%ADD18C,2.000000*%
G04 #@! TD*
G04 #@! TA.AperFunction,ComponentPad*
%ADD19R,2.000000X2.000000*%
G04 #@! TD*
G04 #@! TA.AperFunction,ViaPad*
%ADD20C,0.650000*%
G04 #@! TD*
G04 #@! TA.AperFunction,Conductor*
%ADD21C,0.150000*%
G04 #@! TD*
G04 APERTURE END LIST*
D10*
G04 #@! TO.P,J4,4*
G04 #@! TO.N,Net-(J3-Pad2)*
X120015000Y-104140000D03*
G04 #@! TO.P,J4,3*
G04 #@! TO.N,Net-(J4-Pad3)*
X122555000Y-104140000D03*
G04 #@! TO.P,J4,2*
G04 #@! TO.N,Net-(F1-Pad2)*
X125095000Y-104140000D03*
D11*
G04 #@! TO.P,J4,1*
G04 #@! TO.N,GND*
X127635000Y-104140000D03*
G04 #@! TD*
G04 #@! TO.P,R11,2*
G04 #@! TO.N,Net-(R11-Pad2)*
G04 #@! TA.AperFunction,SMDPad,CuDef*
G36*
G01*
X153650000Y-125370000D02*
X153650000Y-124820000D01*
G75*
G02*
X153850000Y-124620000I200000J0D01*
G01*
X154250000Y-124620000D01*
G75*
G02*
X154450000Y-124820000I0J-200000D01*
G01*
X154450000Y-125370000D01*
G75*
G02*
X154250000Y-125570000I-200000J0D01*
G01*
X153850000Y-125570000D01*
G75*
G02*
X153650000Y-125370000I0J200000D01*
G01*
G37*
G04 #@! TD.AperFunction*
G04 #@! TO.P,R11,1*
G04 #@! TO.N,Net-(R11-Pad1)*
G04 #@! TA.AperFunction,SMDPad,CuDef*
G36*
G01*
X152000000Y-125370000D02*
X152000000Y-124820000D01*
G75*
G02*
X152200000Y-124620000I200000J0D01*
G01*
X152600000Y-124620000D01*
G75*
G02*
X152800000Y-124820000I0J-200000D01*
G01*
X152800000Y-125370000D01*
G75*
G02*
X152600000Y-125570000I-200000J0D01*
G01*
X152200000Y-125570000D01*
G75*
G02*
X152000000Y-125370000I0J200000D01*
G01*
G37*
G04 #@! TD.AperFunction*
G04 #@! TD*
G04 #@! TO.P,R10,2*
G04 #@! TO.N,Net-(C9-Pad1)*
G04 #@! TA.AperFunction,SMDPad,CuDef*
G36*
G01*
X150070000Y-109580000D02*
X150070000Y-110130000D01*
G75*
G02*
X149870000Y-110330000I-200000J0D01*
G01*
X149470000Y-110330000D01*
G75*
G02*
X149270000Y-110130000I0J200000D01*
G01*
X149270000Y-109580000D01*
G75*
G02*
X149470000Y-109380000I200000J0D01*
G01*
X149870000Y-109380000D01*
G75*
G02*
X150070000Y-109580000I0J-200000D01*
G01*
G37*
G04 #@! TD.AperFunction*
G04 #@! TO.P,R10,1*
G04 #@! TO.N,Net-(R10-Pad1)*
G04 #@! TA.AperFunction,SMDPad,CuDef*
G36*
G01*
X151720000Y-109580000D02*
X151720000Y-110130000D01*
G75*
G02*
X151520000Y-110330000I-200000J0D01*
G01*
X151120000Y-110330000D01*
G75*
G02*
X150920000Y-110130000I0J200000D01*
G01*
X150920000Y-109580000D01*
G75*
G02*
X151120000Y-109380000I200000J0D01*
G01*
X151520000Y-109380000D01*
G75*
G02*
X151720000Y-109580000I0J-200000D01*
G01*
G37*
G04 #@! TD.AperFunction*
G04 #@! TD*
G04 #@! TO.P,R9,2*
G04 #@! TO.N,Net-(C9-Pad1)*
G04 #@! TA.AperFunction,SMDPad,CuDef*
G36*
G01*
X154095000Y-107590000D02*
X154095000Y-107040000D01*
G75*
G02*
X154295000Y-106840000I200000J0D01*
G01*
X154695000Y-106840000D01*
G75*
G02*
X154895000Y-107040000I0J-200000D01*
G01*
X154895000Y-107590000D01*
G75*
G02*
X154695000Y-107790000I-200000J0D01*
G01*
X154295000Y-107790000D01*
G75*
G02*
X154095000Y-107590000I0J200000D01*
G01*
G37*
G04 #@! TD.AperFunction*
G04 #@! TO.P,R9,1*
G04 #@! TO.N,VDD*
G04 #@! TA.AperFunction,SMDPad,CuDef*
G36*
G01*
X152445000Y-107590000D02*
X152445000Y-107040000D01*
G75*
G02*
X152645000Y-106840000I200000J0D01*
G01*
X153045000Y-106840000D01*
G75*
G02*
X153245000Y-107040000I0J-200000D01*
G01*
X153245000Y-107590000D01*
G75*
G02*
X153045000Y-107790000I-200000J0D01*
G01*
X152645000Y-107790000D01*
G75*
G02*
X152445000Y-107590000I0J200000D01*
G01*
G37*
G04 #@! TD.AperFunction*
G04 #@! TD*
G04 #@! TO.P,R8,2*
G04 #@! TO.N,Net-(C5-Pad1)*
G04 #@! TA.AperFunction,SMDPad,CuDef*
G36*
G01*
X159660000Y-103715000D02*
X159110000Y-103715000D01*
G75*
G02*
X158910000Y-103515000I0J200000D01*
G01*
X158910000Y-103115000D01*
G75*
G02*
X159110000Y-102915000I200000J0D01*
G01*
X159660000Y-102915000D01*
G75*
G02*
X159860000Y-103115000I0J-200000D01*
G01*
X159860000Y-103515000D01*
G75*
G02*
X159660000Y-103715000I-200000J0D01*
G01*
G37*
G04 #@! TD.AperFunction*
G04 #@! TO.P,R8,1*
G04 #@! TO.N,VDD*
G04 #@! TA.AperFunction,SMDPad,CuDef*
G36*
G01*
X159660000Y-105365000D02*
X159110000Y-105365000D01*
G75*
G02*
X158910000Y-105165000I0J200000D01*
G01*
X158910000Y-104765000D01*
G75*
G02*
X159110000Y-104565000I200000J0D01*
G01*
X159660000Y-104565000D01*
G75*
G02*
X159860000Y-104765000I0J-200000D01*
G01*
X159860000Y-105165000D01*
G75*
G02*
X159660000Y-105365000I-200000J0D01*
G01*
G37*
G04 #@! TD.AperFunction*
G04 #@! TD*
G04 #@! TO.P,R6,2*
G04 #@! TO.N,Net-(C8-Pad1)*
G04 #@! TA.AperFunction,SMDPad,CuDef*
G36*
G01*
X154095000Y-121560000D02*
X154095000Y-121010000D01*
G75*
G02*
X154295000Y-120810000I200000J0D01*
G01*
X154695000Y-120810000D01*
G75*
G02*
X154895000Y-121010000I0J-200000D01*
G01*
X154895000Y-121560000D01*
G75*
G02*
X154695000Y-121760000I-200000J0D01*
G01*
X154295000Y-121760000D01*
G75*
G02*
X154095000Y-121560000I0J200000D01*
G01*
G37*
G04 #@! TD.AperFunction*
G04 #@! TO.P,R6,1*
G04 #@! TO.N,VDD*
G04 #@! TA.AperFunction,SMDPad,CuDef*
G36*
G01*
X152445000Y-121560000D02*
X152445000Y-121010000D01*
G75*
G02*
X152645000Y-120810000I200000J0D01*
G01*
X153045000Y-120810000D01*
G75*
G02*
X153245000Y-121010000I0J-200000D01*
G01*
X153245000Y-121560000D01*
G75*
G02*
X153045000Y-121760000I-200000J0D01*
G01*
X152645000Y-121760000D01*
G75*
G02*
X152445000Y-121560000I0J200000D01*
G01*
G37*
G04 #@! TD.AperFunction*
G04 #@! TD*
G04 #@! TO.P,R5,2*
G04 #@! TO.N,Net-(J5-Pad3)*
G04 #@! TA.AperFunction,SMDPad,CuDef*
G36*
G01*
X150070000Y-107040000D02*
X150070000Y-107590000D01*
G75*
G02*
X149870000Y-107790000I-200000J0D01*
G01*
X149470000Y-107790000D01*
G75*
G02*
X149270000Y-107590000I0J200000D01*
G01*
X149270000Y-107040000D01*
G75*
G02*
X149470000Y-106840000I200000J0D01*
G01*
X149870000Y-106840000D01*
G75*
G02*
X150070000Y-107040000I0J-200000D01*
G01*
G37*
G04 #@! TD.AperFunction*
G04 #@! TO.P,R5,1*
G04 #@! TO.N,VDD*
G04 #@! TA.AperFunction,SMDPad,CuDef*
G36*
G01*
X151720000Y-107040000D02*
X151720000Y-107590000D01*
G75*
G02*
X151520000Y-107790000I-200000J0D01*
G01*
X151120000Y-107790000D01*
G75*
G02*
X150920000Y-107590000I0J200000D01*
G01*
X150920000Y-107040000D01*
G75*
G02*
X151120000Y-106840000I200000J0D01*
G01*
X151520000Y-106840000D01*
G75*
G02*
X151720000Y-107040000I0J-200000D01*
G01*
G37*
G04 #@! TD.AperFunction*
G04 #@! TD*
G04 #@! TO.P,R4,2*
G04 #@! TO.N,Net-(R4-Pad2)*
G04 #@! TA.AperFunction,SMDPad,CuDef*
G36*
G01*
X150855000Y-120250000D02*
X151405000Y-120250000D01*
G75*
G02*
X151605000Y-120450000I0J-200000D01*
G01*
X151605000Y-120850000D01*
G75*
G02*
X151405000Y-121050000I-200000J0D01*
G01*
X150855000Y-121050000D01*
G75*
G02*
X150655000Y-120850000I0J200000D01*
G01*
X150655000Y-120450000D01*
G75*
G02*
X150855000Y-120250000I200000J0D01*
G01*
G37*
G04 #@! TD.AperFunction*
G04 #@! TO.P,R4,1*
G04 #@! TO.N,Net-(C3-Pad2)*
G04 #@! TA.AperFunction,SMDPad,CuDef*
G36*
G01*
X150855000Y-118600000D02*
X151405000Y-118600000D01*
G75*
G02*
X151605000Y-118800000I0J-200000D01*
G01*
X151605000Y-119200000D01*
G75*
G02*
X151405000Y-119400000I-200000J0D01*
G01*
X150855000Y-119400000D01*
G75*
G02*
X150655000Y-119200000I0J200000D01*
G01*
X150655000Y-118800000D01*
G75*
G02*
X150855000Y-118600000I200000J0D01*
G01*
G37*
G04 #@! TD.AperFunction*
G04 #@! TD*
G04 #@! TO.P,R3,2*
G04 #@! TO.N,Net-(C2-Pad2)*
G04 #@! TA.AperFunction,SMDPad,CuDef*
G36*
G01*
X150070000Y-115295000D02*
X150070000Y-115845000D01*
G75*
G02*
X149870000Y-116045000I-200000J0D01*
G01*
X149470000Y-116045000D01*
G75*
G02*
X149270000Y-115845000I0J200000D01*
G01*
X149270000Y-115295000D01*
G75*
G02*
X149470000Y-115095000I200000J0D01*
G01*
X149870000Y-115095000D01*
G75*
G02*
X150070000Y-115295000I0J-200000D01*
G01*
G37*
G04 #@! TD.AperFunction*
G04 #@! TO.P,R3,1*
G04 #@! TO.N,VDD*
G04 #@! TA.AperFunction,SMDPad,CuDef*
G36*
G01*
X151720000Y-115295000D02*
X151720000Y-115845000D01*
G75*
G02*
X151520000Y-116045000I-200000J0D01*
G01*
X151120000Y-116045000D01*
G75*
G02*
X150920000Y-115845000I0J200000D01*
G01*
X150920000Y-115295000D01*
G75*
G02*
X151120000Y-115095000I200000J0D01*
G01*
X151520000Y-115095000D01*
G75*
G02*
X151720000Y-115295000I0J-200000D01*
G01*
G37*
G04 #@! TD.AperFunction*
G04 #@! TD*
G04 #@! TO.P,R2,2*
G04 #@! TO.N,GND*
G04 #@! TA.AperFunction,SMDPad,CuDef*
G36*
G01*
X157755000Y-103715000D02*
X157205000Y-103715000D01*
G75*
G02*
X157005000Y-103515000I0J200000D01*
G01*
X157005000Y-103115000D01*
G75*
G02*
X157205000Y-102915000I200000J0D01*
G01*
X157755000Y-102915000D01*
G75*
G02*
X157955000Y-103115000I0J-200000D01*
G01*
X157955000Y-103515000D01*
G75*
G02*
X157755000Y-103715000I-200000J0D01*
G01*
G37*
G04 #@! TD.AperFunction*
G04 #@! TO.P,R2,1*
G04 #@! TO.N,Net-(J1-Pad1)*
G04 #@! TA.AperFunction,SMDPad,CuDef*
G36*
G01*
X157755000Y-105365000D02*
X157205000Y-105365000D01*
G75*
G02*
X157005000Y-105165000I0J200000D01*
G01*
X157005000Y-104765000D01*
G75*
G02*
X157205000Y-104565000I200000J0D01*
G01*
X157755000Y-104565000D01*
G75*
G02*
X157955000Y-104765000I0J-200000D01*
G01*
X157955000Y-105165000D01*
G75*
G02*
X157755000Y-105365000I-200000J0D01*
G01*
G37*
G04 #@! TD.AperFunction*
G04 #@! TD*
G04 #@! TO.P,R1,2*
G04 #@! TO.N,Net-(C1-Pad1)*
G04 #@! TA.AperFunction,SMDPad,CuDef*
G36*
G01*
X119805000Y-125370000D02*
X119805000Y-124820000D01*
G75*
G02*
X120005000Y-124620000I200000J0D01*
G01*
X120405000Y-124620000D01*
G75*
G02*
X120605000Y-124820000I0J-200000D01*
G01*
X120605000Y-125370000D01*
G75*
G02*
X120405000Y-125570000I-200000J0D01*
G01*
X120005000Y-125570000D01*
G75*
G02*
X119805000Y-125370000I0J200000D01*
G01*
G37*
G04 #@! TD.AperFunction*
G04 #@! TO.P,R1,1*
G04 #@! TO.N,Net-(R1-Pad1)*
G04 #@! TA.AperFunction,SMDPad,CuDef*
G36*
G01*
X118155000Y-125370000D02*
X118155000Y-124820000D01*
G75*
G02*
X118355000Y-124620000I200000J0D01*
G01*
X118755000Y-124620000D01*
G75*
G02*
X118955000Y-124820000I0J-200000D01*
G01*
X118955000Y-125370000D01*
G75*
G02*
X118755000Y-125570000I-200000J0D01*
G01*
X118355000Y-125570000D01*
G75*
G02*
X118155000Y-125370000I0J200000D01*
G01*
G37*
G04 #@! TD.AperFunction*
G04 #@! TD*
G04 #@! TO.P,C9,2*
G04 #@! TO.N,GND*
G04 #@! TA.AperFunction,SMDPad,CuDef*
G36*
G01*
X157170000Y-107565000D02*
X157170000Y-107065000D01*
G75*
G02*
X157395000Y-106840000I225000J0D01*
G01*
X157845000Y-106840000D01*
G75*
G02*
X158070000Y-107065000I0J-225000D01*
G01*
X158070000Y-107565000D01*
G75*
G02*
X157845000Y-107790000I-225000J0D01*
G01*
X157395000Y-107790000D01*
G75*
G02*
X157170000Y-107565000I0J225000D01*
G01*
G37*
G04 #@! TD.AperFunction*
G04 #@! TO.P,C9,1*
G04 #@! TO.N,Net-(C9-Pad1)*
G04 #@! TA.AperFunction,SMDPad,CuDef*
G36*
G01*
X155620000Y-107565000D02*
X155620000Y-107065000D01*
G75*
G02*
X155845000Y-106840000I225000J0D01*
G01*
X156295000Y-106840000D01*
G75*
G02*
X156520000Y-107065000I0J-225000D01*
G01*
X156520000Y-107565000D01*
G75*
G02*
X156295000Y-107790000I-225000J0D01*
G01*
X155845000Y-107790000D01*
G75*
G02*
X155620000Y-107565000I0J225000D01*
G01*
G37*
G04 #@! TD.AperFunction*
G04 #@! TD*
G04 #@! TO.P,C8,2*
G04 #@! TO.N,GND*
G04 #@! TA.AperFunction,SMDPad,CuDef*
G36*
G01*
X155325000Y-124150000D02*
X155825000Y-124150000D01*
G75*
G02*
X156050000Y-124375000I0J-225000D01*
G01*
X156050000Y-124825000D01*
G75*
G02*
X155825000Y-125050000I-225000J0D01*
G01*
X155325000Y-125050000D01*
G75*
G02*
X155100000Y-124825000I0J225000D01*
G01*
X155100000Y-124375000D01*
G75*
G02*
X155325000Y-124150000I225000J0D01*
G01*
G37*
G04 #@! TD.AperFunction*
G04 #@! TO.P,C8,1*
G04 #@! TO.N,Net-(C8-Pad1)*
G04 #@! TA.AperFunction,SMDPad,CuDef*
G36*
G01*
X155325000Y-122600000D02*
X155825000Y-122600000D01*
G75*
G02*
X156050000Y-122825000I0J-225000D01*
G01*
X156050000Y-123275000D01*
G75*
G02*
X155825000Y-123500000I-225000J0D01*
G01*
X155325000Y-123500000D01*
G75*
G02*
X155100000Y-123275000I0J225000D01*
G01*
X155100000Y-122825000D01*
G75*
G02*
X155325000Y-122600000I225000J0D01*
G01*
G37*
G04 #@! TD.AperFunction*
G04 #@! TD*
G04 #@! TO.P,C6,2*
G04 #@! TO.N,GND*
G04 #@! TA.AperFunction,SMDPad,CuDef*
G36*
G01*
X159635000Y-100640000D02*
X159135000Y-100640000D01*
G75*
G02*
X158910000Y-100415000I0J225000D01*
G01*
X158910000Y-99965000D01*
G75*
G02*
X159135000Y-99740000I225000J0D01*
G01*
X159635000Y-99740000D01*
G75*
G02*
X159860000Y-99965000I0J-225000D01*
G01*
X159860000Y-100415000D01*
G75*
G02*
X159635000Y-100640000I-225000J0D01*
G01*
G37*
G04 #@! TD.AperFunction*
G04 #@! TO.P,C6,1*
G04 #@! TO.N,Net-(C5-Pad1)*
G04 #@! TA.AperFunction,SMDPad,CuDef*
G36*
G01*
X159635000Y-102190000D02*
X159135000Y-102190000D01*
G75*
G02*
X158910000Y-101965000I0J225000D01*
G01*
X158910000Y-101515000D01*
G75*
G02*
X159135000Y-101290000I225000J0D01*
G01*
X159635000Y-101290000D01*
G75*
G02*
X159860000Y-101515000I0J-225000D01*
G01*
X159860000Y-101965000D01*
G75*
G02*
X159635000Y-102190000I-225000J0D01*
G01*
G37*
G04 #@! TD.AperFunction*
G04 #@! TD*
G04 #@! TO.P,C5,2*
G04 #@! TO.N,GND*
G04 #@! TA.AperFunction,SMDPad,CuDef*
G36*
G01*
X157730000Y-100640000D02*
X157230000Y-100640000D01*
G75*
G02*
X157005000Y-100415000I0J225000D01*
G01*
X157005000Y-99965000D01*
G75*
G02*
X157230000Y-99740000I225000J0D01*
G01*
X157730000Y-99740000D01*
G75*
G02*
X157955000Y-99965000I0J-225000D01*
G01*
X157955000Y-100415000D01*
G75*
G02*
X157730000Y-100640000I-225000J0D01*
G01*
G37*
G04 #@! TD.AperFunction*
G04 #@! TO.P,C5,1*
G04 #@! TO.N,Net-(C5-Pad1)*
G04 #@! TA.AperFunction,SMDPad,CuDef*
G36*
G01*
X157730000Y-102190000D02*
X157230000Y-102190000D01*
G75*
G02*
X157005000Y-101965000I0J225000D01*
G01*
X157005000Y-101515000D01*
G75*
G02*
X157230000Y-101290000I225000J0D01*
G01*
X157730000Y-101290000D01*
G75*
G02*
X157955000Y-101515000I0J-225000D01*
G01*
X157955000Y-101965000D01*
G75*
G02*
X157730000Y-102190000I-225000J0D01*
G01*
G37*
G04 #@! TD.AperFunction*
G04 #@! TD*
G04 #@! TO.P,C4,2*
G04 #@! TO.N,VDD*
G04 #@! TA.AperFunction,SMDPad,CuDef*
G36*
G01*
X152710000Y-122940000D02*
X152710000Y-123440000D01*
G75*
G02*
X152485000Y-123665000I-225000J0D01*
G01*
X152035000Y-123665000D01*
G75*
G02*
X151810000Y-123440000I0J225000D01*
G01*
X151810000Y-122940000D01*
G75*
G02*
X152035000Y-122715000I225000J0D01*
G01*
X152485000Y-122715000D01*
G75*
G02*
X152710000Y-122940000I0J-225000D01*
G01*
G37*
G04 #@! TD.AperFunction*
G04 #@! TO.P,C4,1*
G04 #@! TO.N,GND*
G04 #@! TA.AperFunction,SMDPad,CuDef*
G36*
G01*
X154260000Y-122940000D02*
X154260000Y-123440000D01*
G75*
G02*
X154035000Y-123665000I-225000J0D01*
G01*
X153585000Y-123665000D01*
G75*
G02*
X153360000Y-123440000I0J225000D01*
G01*
X153360000Y-122940000D01*
G75*
G02*
X153585000Y-122715000I225000J0D01*
G01*
X154035000Y-122715000D01*
G75*
G02*
X154260000Y-122940000I0J-225000D01*
G01*
G37*
G04 #@! TD.AperFunction*
G04 #@! TD*
G04 #@! TO.P,C3,2*
G04 #@! TO.N,Net-(C3-Pad2)*
G04 #@! TA.AperFunction,SMDPad,CuDef*
G36*
G01*
X139390000Y-106930000D02*
X139390000Y-106430000D01*
G75*
G02*
X139615000Y-106205000I225000J0D01*
G01*
X140065000Y-106205000D01*
G75*
G02*
X140290000Y-106430000I0J-225000D01*
G01*
X140290000Y-106930000D01*
G75*
G02*
X140065000Y-107155000I-225000J0D01*
G01*
X139615000Y-107155000D01*
G75*
G02*
X139390000Y-106930000I0J225000D01*
G01*
G37*
G04 #@! TD.AperFunction*
G04 #@! TO.P,C3,1*
G04 #@! TO.N,GND*
G04 #@! TA.AperFunction,SMDPad,CuDef*
G36*
G01*
X137840000Y-106930000D02*
X137840000Y-106430000D01*
G75*
G02*
X138065000Y-106205000I225000J0D01*
G01*
X138515000Y-106205000D01*
G75*
G02*
X138740000Y-106430000I0J-225000D01*
G01*
X138740000Y-106930000D01*
G75*
G02*
X138515000Y-107155000I-225000J0D01*
G01*
X138065000Y-107155000D01*
G75*
G02*
X137840000Y-106930000I0J225000D01*
G01*
G37*
G04 #@! TD.AperFunction*
G04 #@! TD*
G04 #@! TO.P,C2,2*
G04 #@! TO.N,Net-(C2-Pad2)*
G04 #@! TA.AperFunction,SMDPad,CuDef*
G36*
G01*
X150170000Y-112780000D02*
X150170000Y-113280000D01*
G75*
G02*
X149945000Y-113505000I-225000J0D01*
G01*
X149495000Y-113505000D01*
G75*
G02*
X149270000Y-113280000I0J225000D01*
G01*
X149270000Y-112780000D01*
G75*
G02*
X149495000Y-112555000I225000J0D01*
G01*
X149945000Y-112555000D01*
G75*
G02*
X150170000Y-112780000I0J-225000D01*
G01*
G37*
G04 #@! TD.AperFunction*
G04 #@! TO.P,C2,1*
G04 #@! TO.N,VDD*
G04 #@! TA.AperFunction,SMDPad,CuDef*
G36*
G01*
X151720000Y-112780000D02*
X151720000Y-113280000D01*
G75*
G02*
X151495000Y-113505000I-225000J0D01*
G01*
X151045000Y-113505000D01*
G75*
G02*
X150820000Y-113280000I0J225000D01*
G01*
X150820000Y-112780000D01*
G75*
G02*
X151045000Y-112555000I225000J0D01*
G01*
X151495000Y-112555000D01*
G75*
G02*
X151720000Y-112780000I0J-225000D01*
G01*
G37*
G04 #@! TD.AperFunction*
G04 #@! TD*
G04 #@! TO.P,C1,2*
G04 #@! TO.N,GND*
G04 #@! TA.AperFunction,SMDPad,CuDef*
G36*
G01*
X119055000Y-122940000D02*
X119055000Y-123440000D01*
G75*
G02*
X118830000Y-123665000I-225000J0D01*
G01*
X118380000Y-123665000D01*
G75*
G02*
X118155000Y-123440000I0J225000D01*
G01*
X118155000Y-122940000D01*
G75*
G02*
X118380000Y-122715000I225000J0D01*
G01*
X118830000Y-122715000D01*
G75*
G02*
X119055000Y-122940000I0J-225000D01*
G01*
G37*
G04 #@! TD.AperFunction*
G04 #@! TO.P,C1,1*
G04 #@! TO.N,Net-(C1-Pad1)*
G04 #@! TA.AperFunction,SMDPad,CuDef*
G36*
G01*
X120605000Y-122940000D02*
X120605000Y-123440000D01*
G75*
G02*
X120380000Y-123665000I-225000J0D01*
G01*
X119930000Y-123665000D01*
G75*
G02*
X119705000Y-123440000I0J225000D01*
G01*
X119705000Y-122940000D01*
G75*
G02*
X119930000Y-122715000I225000J0D01*
G01*
X120380000Y-122715000D01*
G75*
G02*
X120605000Y-122940000I0J-225000D01*
G01*
G37*
G04 #@! TD.AperFunction*
G04 #@! TD*
D12*
G04 #@! TO.P,D1,2*
G04 #@! TO.N,VDD*
X118590000Y-109855000D03*
G04 #@! TO.P,D1,1*
G04 #@! TO.N,Net-(C10-Pad1)*
X115090000Y-109855000D03*
G04 #@! TD*
G04 #@! TO.P,F1,2*
G04 #@! TO.N,Net-(F1-Pad2)*
G04 #@! TA.AperFunction,SMDPad,CuDef*
G36*
G01*
X116830000Y-101460000D02*
X115580000Y-101460000D01*
G75*
G02*
X115330000Y-101210000I0J250000D01*
G01*
X115330000Y-100460000D01*
G75*
G02*
X115580000Y-100210000I250000J0D01*
G01*
X116830000Y-100210000D01*
G75*
G02*
X117080000Y-100460000I0J-250000D01*
G01*
X117080000Y-101210000D01*
G75*
G02*
X116830000Y-101460000I-250000J0D01*
G01*
G37*
G04 #@! TD.AperFunction*
G04 #@! TO.P,F1,1*
G04 #@! TO.N,Net-(F1-Pad1)*
G04 #@! TA.AperFunction,SMDPad,CuDef*
G36*
G01*
X116830000Y-104260000D02*
X115580000Y-104260000D01*
G75*
G02*
X115330000Y-104010000I0J250000D01*
G01*
X115330000Y-103260000D01*
G75*
G02*
X115580000Y-103010000I250000J0D01*
G01*
X116830000Y-103010000D01*
G75*
G02*
X117080000Y-103260000I0J-250000D01*
G01*
X117080000Y-104010000D01*
G75*
G02*
X116830000Y-104260000I-250000J0D01*
G01*
G37*
G04 #@! TD.AperFunction*
G04 #@! TD*
G04 #@! TO.P,R7,2*
G04 #@! TO.N,Net-(F1-Pad1)*
G04 #@! TA.AperFunction,SMDPad,CuDef*
G36*
G01*
X117050000Y-107040000D02*
X117050000Y-107590000D01*
G75*
G02*
X116850000Y-107790000I-200000J0D01*
G01*
X116450000Y-107790000D01*
G75*
G02*
X116250000Y-107590000I0J200000D01*
G01*
X116250000Y-107040000D01*
G75*
G02*
X116450000Y-106840000I200000J0D01*
G01*
X116850000Y-106840000D01*
G75*
G02*
X117050000Y-107040000I0J-200000D01*
G01*
G37*
G04 #@! TD.AperFunction*
G04 #@! TO.P,R7,1*
G04 #@! TO.N,Net-(C10-Pad1)*
G04 #@! TA.AperFunction,SMDPad,CuDef*
G36*
G01*
X118700000Y-107040000D02*
X118700000Y-107590000D01*
G75*
G02*
X118500000Y-107790000I-200000J0D01*
G01*
X118100000Y-107790000D01*
G75*
G02*
X117900000Y-107590000I0J200000D01*
G01*
X117900000Y-107040000D01*
G75*
G02*
X118100000Y-106840000I200000J0D01*
G01*
X118500000Y-106840000D01*
G75*
G02*
X118700000Y-107040000I0J-200000D01*
G01*
G37*
G04 #@! TD.AperFunction*
G04 #@! TD*
D10*
G04 #@! TO.P,J1,2*
G04 #@! TO.N,VDD*
X151130000Y-104140000D03*
D11*
G04 #@! TO.P,J1,1*
G04 #@! TO.N,Net-(J1-Pad1)*
X153670000Y-104140000D03*
G04 #@! TD*
D10*
G04 #@! TO.P,J5,3*
G04 #@! TO.N,Net-(J5-Pad3)*
X141605000Y-104140000D03*
G04 #@! TO.P,J5,2*
G04 #@! TO.N,GND*
X144145000Y-104140000D03*
D11*
G04 #@! TO.P,J5,1*
G04 #@! TO.N,VDD*
X146685000Y-104140000D03*
G04 #@! TD*
D10*
G04 #@! TO.P,J2,3*
G04 #@! TO.N,Net-(J2-Pad3)*
X132080000Y-104140000D03*
G04 #@! TO.P,J2,2*
G04 #@! TO.N,Net-(C2-Pad2)*
X134620000Y-104140000D03*
D11*
G04 #@! TO.P,J2,1*
G04 #@! TO.N,GND*
X137160000Y-104140000D03*
G04 #@! TD*
D13*
G04 #@! TO.P,C12,2*
G04 #@! TO.N,GND*
X130770000Y-110490000D03*
D14*
G04 #@! TO.P,C12,1*
G04 #@! TO.N,VDD*
X128270000Y-110490000D03*
G04 #@! TD*
G04 #@! TO.P,C13,2*
G04 #@! TO.N,GND*
G04 #@! TA.AperFunction,SMDPad,CuDef*
G36*
G01*
X124770000Y-114050000D02*
X124770000Y-114550000D01*
G75*
G02*
X124545000Y-114775000I-225000J0D01*
G01*
X124095000Y-114775000D01*
G75*
G02*
X123870000Y-114550000I0J225000D01*
G01*
X123870000Y-114050000D01*
G75*
G02*
X124095000Y-113825000I225000J0D01*
G01*
X124545000Y-113825000D01*
G75*
G02*
X124770000Y-114050000I0J-225000D01*
G01*
G37*
G04 #@! TD.AperFunction*
G04 #@! TO.P,C13,1*
G04 #@! TO.N,VDD*
G04 #@! TA.AperFunction,SMDPad,CuDef*
G36*
G01*
X126320000Y-114050000D02*
X126320000Y-114550000D01*
G75*
G02*
X126095000Y-114775000I-225000J0D01*
G01*
X125645000Y-114775000D01*
G75*
G02*
X125420000Y-114550000I0J225000D01*
G01*
X125420000Y-114050000D01*
G75*
G02*
X125645000Y-113825000I225000J0D01*
G01*
X126095000Y-113825000D01*
G75*
G02*
X126320000Y-114050000I0J-225000D01*
G01*
G37*
G04 #@! TD.AperFunction*
G04 #@! TD*
G04 #@! TO.P,C11,2*
G04 #@! TO.N,GND*
G04 #@! TA.AperFunction,SMDPad,CuDef*
G36*
G01*
X123515000Y-112645000D02*
X123515000Y-112145000D01*
G75*
G02*
X123740000Y-111920000I225000J0D01*
G01*
X124190000Y-111920000D01*
G75*
G02*
X124415000Y-112145000I0J-225000D01*
G01*
X124415000Y-112645000D01*
G75*
G02*
X124190000Y-112870000I-225000J0D01*
G01*
X123740000Y-112870000D01*
G75*
G02*
X123515000Y-112645000I0J225000D01*
G01*
G37*
G04 #@! TD.AperFunction*
G04 #@! TO.P,C11,1*
G04 #@! TO.N,Net-(C10-Pad1)*
G04 #@! TA.AperFunction,SMDPad,CuDef*
G36*
G01*
X121965000Y-112645000D02*
X121965000Y-112145000D01*
G75*
G02*
X122190000Y-111920000I225000J0D01*
G01*
X122640000Y-111920000D01*
G75*
G02*
X122865000Y-112145000I0J-225000D01*
G01*
X122865000Y-112645000D01*
G75*
G02*
X122640000Y-112870000I-225000J0D01*
G01*
X122190000Y-112870000D01*
G75*
G02*
X121965000Y-112645000I0J225000D01*
G01*
G37*
G04 #@! TD.AperFunction*
G04 #@! TD*
D15*
G04 #@! TO.P,H4,1*
G04 #@! TO.N,GND*
X114300000Y-96520000D03*
G04 #@! TD*
G04 #@! TO.P,H3,1*
G04 #@! TO.N,GND*
X158750000Y-96520000D03*
G04 #@! TD*
D10*
G04 #@! TO.P,J6,2*
G04 #@! TO.N,Net-(J6-Pad2)*
X134820000Y-111760000D03*
D11*
G04 #@! TO.P,J6,1*
G04 #@! TO.N,Net-(J3-Pad2)*
X134820000Y-109220000D03*
G04 #@! TD*
D10*
G04 #@! TO.P,J3,2*
G04 #@! TO.N,Net-(J3-Pad2)*
X138430000Y-109220000D03*
D11*
G04 #@! TO.P,J3,1*
G04 #@! TO.N,Net-(J3-Pad1)*
X138430000Y-111760000D03*
G04 #@! TD*
D16*
G04 #@! TO.P,U7,1*
G04 #@! TO.N,VDD*
X121920000Y-109220000D03*
D17*
G04 #@! TO.P,U7,3*
G04 #@! TO.N,Net-(C10-Pad1)*
X124460000Y-109220000D03*
G04 #@! TO.P,U7,2*
G04 #@! TO.N,GND*
X123190000Y-109220000D03*
G04 #@! TD*
G04 #@! TO.P,U6,16*
G04 #@! TO.N,VDD*
G04 #@! TA.AperFunction,SMDPad,CuDef*
G36*
G01*
X157710000Y-110640000D02*
X157710000Y-110340000D01*
G75*
G02*
X157860000Y-110190000I150000J0D01*
G01*
X159510000Y-110190000D01*
G75*
G02*
X159660000Y-110340000I0J-150000D01*
G01*
X159660000Y-110640000D01*
G75*
G02*
X159510000Y-110790000I-150000J0D01*
G01*
X157860000Y-110790000D01*
G75*
G02*
X157710000Y-110640000I0J150000D01*
G01*
G37*
G04 #@! TD.AperFunction*
G04 #@! TO.P,U6,15*
G04 #@! TO.N,GND*
G04 #@! TA.AperFunction,SMDPad,CuDef*
G36*
G01*
X157710000Y-111910000D02*
X157710000Y-111610000D01*
G75*
G02*
X157860000Y-111460000I150000J0D01*
G01*
X159510000Y-111460000D01*
G75*
G02*
X159660000Y-111610000I0J-150000D01*
G01*
X159660000Y-111910000D01*
G75*
G02*
X159510000Y-112060000I-150000J0D01*
G01*
X157860000Y-112060000D01*
G75*
G02*
X157710000Y-111910000I0J150000D01*
G01*
G37*
G04 #@! TD.AperFunction*
G04 #@! TO.P,U6,14*
G04 #@! TO.N,Net-(C8-Pad1)*
G04 #@! TA.AperFunction,SMDPad,CuDef*
G36*
G01*
X157710000Y-113180000D02*
X157710000Y-112880000D01*
G75*
G02*
X157860000Y-112730000I150000J0D01*
G01*
X159510000Y-112730000D01*
G75*
G02*
X159660000Y-112880000I0J-150000D01*
G01*
X159660000Y-113180000D01*
G75*
G02*
X159510000Y-113330000I-150000J0D01*
G01*
X157860000Y-113330000D01*
G75*
G02*
X157710000Y-113180000I0J150000D01*
G01*
G37*
G04 #@! TD.AperFunction*
G04 #@! TO.P,U6,13*
G04 #@! TO.N,VDD*
G04 #@! TA.AperFunction,SMDPad,CuDef*
G36*
G01*
X157710000Y-114450000D02*
X157710000Y-114150000D01*
G75*
G02*
X157860000Y-114000000I150000J0D01*
G01*
X159510000Y-114000000D01*
G75*
G02*
X159660000Y-114150000I0J-150000D01*
G01*
X159660000Y-114450000D01*
G75*
G02*
X159510000Y-114600000I-150000J0D01*
G01*
X157860000Y-114600000D01*
G75*
G02*
X157710000Y-114450000I0J150000D01*
G01*
G37*
G04 #@! TD.AperFunction*
G04 #@! TO.P,U6,12*
G04 #@! TO.N,GND*
G04 #@! TA.AperFunction,SMDPad,CuDef*
G36*
G01*
X157710000Y-115720000D02*
X157710000Y-115420000D01*
G75*
G02*
X157860000Y-115270000I150000J0D01*
G01*
X159510000Y-115270000D01*
G75*
G02*
X159660000Y-115420000I0J-150000D01*
G01*
X159660000Y-115720000D01*
G75*
G02*
X159510000Y-115870000I-150000J0D01*
G01*
X157860000Y-115870000D01*
G75*
G02*
X157710000Y-115720000I0J150000D01*
G01*
G37*
G04 #@! TD.AperFunction*
G04 #@! TO.P,U6,11*
G04 #@! TO.N,Net-(U2-Pad3)*
G04 #@! TA.AperFunction,SMDPad,CuDef*
G36*
G01*
X157710000Y-116990000D02*
X157710000Y-116690000D01*
G75*
G02*
X157860000Y-116540000I150000J0D01*
G01*
X159510000Y-116540000D01*
G75*
G02*
X159660000Y-116690000I0J-150000D01*
G01*
X159660000Y-116990000D01*
G75*
G02*
X159510000Y-117140000I-150000J0D01*
G01*
X157860000Y-117140000D01*
G75*
G02*
X157710000Y-116990000I0J150000D01*
G01*
G37*
G04 #@! TD.AperFunction*
G04 #@! TO.P,U6,10*
G04 #@! TO.N,Net-(R11-Pad2)*
G04 #@! TA.AperFunction,SMDPad,CuDef*
G36*
G01*
X157710000Y-118260000D02*
X157710000Y-117960000D01*
G75*
G02*
X157860000Y-117810000I150000J0D01*
G01*
X159510000Y-117810000D01*
G75*
G02*
X159660000Y-117960000I0J-150000D01*
G01*
X159660000Y-118260000D01*
G75*
G02*
X159510000Y-118410000I-150000J0D01*
G01*
X157860000Y-118410000D01*
G75*
G02*
X157710000Y-118260000I0J150000D01*
G01*
G37*
G04 #@! TD.AperFunction*
G04 #@! TO.P,U6,9*
G04 #@! TO.N,Net-(U6-Pad9)*
G04 #@! TA.AperFunction,SMDPad,CuDef*
G36*
G01*
X157710000Y-119530000D02*
X157710000Y-119230000D01*
G75*
G02*
X157860000Y-119080000I150000J0D01*
G01*
X159510000Y-119080000D01*
G75*
G02*
X159660000Y-119230000I0J-150000D01*
G01*
X159660000Y-119530000D01*
G75*
G02*
X159510000Y-119680000I-150000J0D01*
G01*
X157860000Y-119680000D01*
G75*
G02*
X157710000Y-119530000I0J150000D01*
G01*
G37*
G04 #@! TD.AperFunction*
G04 #@! TO.P,U6,8*
G04 #@! TO.N,GND*
G04 #@! TA.AperFunction,SMDPad,CuDef*
G36*
G01*
X152760000Y-119530000D02*
X152760000Y-119230000D01*
G75*
G02*
X152910000Y-119080000I150000J0D01*
G01*
X154560000Y-119080000D01*
G75*
G02*
X154710000Y-119230000I0J-150000D01*
G01*
X154710000Y-119530000D01*
G75*
G02*
X154560000Y-119680000I-150000J0D01*
G01*
X152910000Y-119680000D01*
G75*
G02*
X152760000Y-119530000I0J150000D01*
G01*
G37*
G04 #@! TD.AperFunction*
G04 #@! TO.P,U6,7*
G04 #@! TO.N,Net-(R10-Pad1)*
G04 #@! TA.AperFunction,SMDPad,CuDef*
G36*
G01*
X152760000Y-118260000D02*
X152760000Y-117960000D01*
G75*
G02*
X152910000Y-117810000I150000J0D01*
G01*
X154560000Y-117810000D01*
G75*
G02*
X154710000Y-117960000I0J-150000D01*
G01*
X154710000Y-118260000D01*
G75*
G02*
X154560000Y-118410000I-150000J0D01*
G01*
X152910000Y-118410000D01*
G75*
G02*
X152760000Y-118260000I0J150000D01*
G01*
G37*
G04 #@! TD.AperFunction*
G04 #@! TO.P,U6,6*
G04 #@! TO.N,Net-(U6-Pad6)*
G04 #@! TA.AperFunction,SMDPad,CuDef*
G36*
G01*
X152760000Y-116990000D02*
X152760000Y-116690000D01*
G75*
G02*
X152910000Y-116540000I150000J0D01*
G01*
X154560000Y-116540000D01*
G75*
G02*
X154710000Y-116690000I0J-150000D01*
G01*
X154710000Y-116990000D01*
G75*
G02*
X154560000Y-117140000I-150000J0D01*
G01*
X152910000Y-117140000D01*
G75*
G02*
X152760000Y-116990000I0J150000D01*
G01*
G37*
G04 #@! TD.AperFunction*
G04 #@! TO.P,U6,5*
G04 #@! TO.N,VDD*
G04 #@! TA.AperFunction,SMDPad,CuDef*
G36*
G01*
X152760000Y-115720000D02*
X152760000Y-115420000D01*
G75*
G02*
X152910000Y-115270000I150000J0D01*
G01*
X154560000Y-115270000D01*
G75*
G02*
X154710000Y-115420000I0J-150000D01*
G01*
X154710000Y-115720000D01*
G75*
G02*
X154560000Y-115870000I-150000J0D01*
G01*
X152910000Y-115870000D01*
G75*
G02*
X152760000Y-115720000I0J150000D01*
G01*
G37*
G04 #@! TD.AperFunction*
G04 #@! TO.P,U6,4*
G04 #@! TO.N,Net-(J5-Pad3)*
G04 #@! TA.AperFunction,SMDPad,CuDef*
G36*
G01*
X152760000Y-114450000D02*
X152760000Y-114150000D01*
G75*
G02*
X152910000Y-114000000I150000J0D01*
G01*
X154560000Y-114000000D01*
G75*
G02*
X154710000Y-114150000I0J-150000D01*
G01*
X154710000Y-114450000D01*
G75*
G02*
X154560000Y-114600000I-150000J0D01*
G01*
X152910000Y-114600000D01*
G75*
G02*
X152760000Y-114450000I0J150000D01*
G01*
G37*
G04 #@! TD.AperFunction*
G04 #@! TO.P,U6,3*
G04 #@! TO.N,VDD*
G04 #@! TA.AperFunction,SMDPad,CuDef*
G36*
G01*
X152760000Y-113180000D02*
X152760000Y-112880000D01*
G75*
G02*
X152910000Y-112730000I150000J0D01*
G01*
X154560000Y-112730000D01*
G75*
G02*
X154710000Y-112880000I0J-150000D01*
G01*
X154710000Y-113180000D01*
G75*
G02*
X154560000Y-113330000I-150000J0D01*
G01*
X152910000Y-113330000D01*
G75*
G02*
X152760000Y-113180000I0J150000D01*
G01*
G37*
G04 #@! TD.AperFunction*
G04 #@! TO.P,U6,2*
G04 #@! TO.N,Net-(C5-Pad1)*
G04 #@! TA.AperFunction,SMDPad,CuDef*
G36*
G01*
X152760000Y-111910000D02*
X152760000Y-111610000D01*
G75*
G02*
X152910000Y-111460000I150000J0D01*
G01*
X154560000Y-111460000D01*
G75*
G02*
X154710000Y-111610000I0J-150000D01*
G01*
X154710000Y-111910000D01*
G75*
G02*
X154560000Y-112060000I-150000J0D01*
G01*
X152910000Y-112060000D01*
G75*
G02*
X152760000Y-111910000I0J150000D01*
G01*
G37*
G04 #@! TD.AperFunction*
G04 #@! TO.P,U6,1*
G04 #@! TO.N,GND*
G04 #@! TA.AperFunction,SMDPad,CuDef*
G36*
G01*
X152760000Y-110640000D02*
X152760000Y-110340000D01*
G75*
G02*
X152910000Y-110190000I150000J0D01*
G01*
X154560000Y-110190000D01*
G75*
G02*
X154710000Y-110340000I0J-150000D01*
G01*
X154710000Y-110640000D01*
G75*
G02*
X154560000Y-110790000I-150000J0D01*
G01*
X152910000Y-110790000D01*
G75*
G02*
X152760000Y-110640000I0J150000D01*
G01*
G37*
G04 #@! TD.AperFunction*
G04 #@! TD*
G04 #@! TO.P,U3,14*
G04 #@! TO.N,VDD*
G04 #@! TA.AperFunction,SMDPad,CuDef*
G36*
G01*
X146280000Y-107465000D02*
X146280000Y-107165000D01*
G75*
G02*
X146430000Y-107015000I150000J0D01*
G01*
X148080000Y-107015000D01*
G75*
G02*
X148230000Y-107165000I0J-150000D01*
G01*
X148230000Y-107465000D01*
G75*
G02*
X148080000Y-107615000I-150000J0D01*
G01*
X146430000Y-107615000D01*
G75*
G02*
X146280000Y-107465000I0J150000D01*
G01*
G37*
G04 #@! TD.AperFunction*
G04 #@! TO.P,U3,13*
G04 #@! TA.AperFunction,SMDPad,CuDef*
G36*
G01*
X146280000Y-108735000D02*
X146280000Y-108435000D01*
G75*
G02*
X146430000Y-108285000I150000J0D01*
G01*
X148080000Y-108285000D01*
G75*
G02*
X148230000Y-108435000I0J-150000D01*
G01*
X148230000Y-108735000D01*
G75*
G02*
X148080000Y-108885000I-150000J0D01*
G01*
X146430000Y-108885000D01*
G75*
G02*
X146280000Y-108735000I0J150000D01*
G01*
G37*
G04 #@! TD.AperFunction*
G04 #@! TO.P,U3,12*
G04 #@! TO.N,Net-(C9-Pad1)*
G04 #@! TA.AperFunction,SMDPad,CuDef*
G36*
G01*
X146280000Y-110005000D02*
X146280000Y-109705000D01*
G75*
G02*
X146430000Y-109555000I150000J0D01*
G01*
X148080000Y-109555000D01*
G75*
G02*
X148230000Y-109705000I0J-150000D01*
G01*
X148230000Y-110005000D01*
G75*
G02*
X148080000Y-110155000I-150000J0D01*
G01*
X146430000Y-110155000D01*
G75*
G02*
X146280000Y-110005000I0J150000D01*
G01*
G37*
G04 #@! TD.AperFunction*
G04 #@! TO.P,U3,11*
G04 #@! TO.N,Net-(U2-Pad12)*
G04 #@! TA.AperFunction,SMDPad,CuDef*
G36*
G01*
X146280000Y-111275000D02*
X146280000Y-110975000D01*
G75*
G02*
X146430000Y-110825000I150000J0D01*
G01*
X148080000Y-110825000D01*
G75*
G02*
X148230000Y-110975000I0J-150000D01*
G01*
X148230000Y-111275000D01*
G75*
G02*
X148080000Y-111425000I-150000J0D01*
G01*
X146430000Y-111425000D01*
G75*
G02*
X146280000Y-111275000I0J150000D01*
G01*
G37*
G04 #@! TD.AperFunction*
G04 #@! TO.P,U3,10*
G04 #@! TO.N,Net-(U2-Pad3)*
G04 #@! TA.AperFunction,SMDPad,CuDef*
G36*
G01*
X146280000Y-112545000D02*
X146280000Y-112245000D01*
G75*
G02*
X146430000Y-112095000I150000J0D01*
G01*
X148080000Y-112095000D01*
G75*
G02*
X148230000Y-112245000I0J-150000D01*
G01*
X148230000Y-112545000D01*
G75*
G02*
X148080000Y-112695000I-150000J0D01*
G01*
X146430000Y-112695000D01*
G75*
G02*
X146280000Y-112545000I0J150000D01*
G01*
G37*
G04 #@! TD.AperFunction*
G04 #@! TO.P,U3,9*
G04 #@! TO.N,VDD*
G04 #@! TA.AperFunction,SMDPad,CuDef*
G36*
G01*
X146280000Y-113815000D02*
X146280000Y-113515000D01*
G75*
G02*
X146430000Y-113365000I150000J0D01*
G01*
X148080000Y-113365000D01*
G75*
G02*
X148230000Y-113515000I0J-150000D01*
G01*
X148230000Y-113815000D01*
G75*
G02*
X148080000Y-113965000I-150000J0D01*
G01*
X146430000Y-113965000D01*
G75*
G02*
X146280000Y-113815000I0J150000D01*
G01*
G37*
G04 #@! TD.AperFunction*
G04 #@! TO.P,U3,8*
G04 #@! TO.N,Net-(C2-Pad2)*
G04 #@! TA.AperFunction,SMDPad,CuDef*
G36*
G01*
X146280000Y-115085000D02*
X146280000Y-114785000D01*
G75*
G02*
X146430000Y-114635000I150000J0D01*
G01*
X148080000Y-114635000D01*
G75*
G02*
X148230000Y-114785000I0J-150000D01*
G01*
X148230000Y-115085000D01*
G75*
G02*
X148080000Y-115235000I-150000J0D01*
G01*
X146430000Y-115235000D01*
G75*
G02*
X146280000Y-115085000I0J150000D01*
G01*
G37*
G04 #@! TD.AperFunction*
G04 #@! TO.P,U3,7*
G04 #@! TO.N,GND*
G04 #@! TA.AperFunction,SMDPad,CuDef*
G36*
G01*
X141330000Y-115085000D02*
X141330000Y-114785000D01*
G75*
G02*
X141480000Y-114635000I150000J0D01*
G01*
X143130000Y-114635000D01*
G75*
G02*
X143280000Y-114785000I0J-150000D01*
G01*
X143280000Y-115085000D01*
G75*
G02*
X143130000Y-115235000I-150000J0D01*
G01*
X141480000Y-115235000D01*
G75*
G02*
X141330000Y-115085000I0J150000D01*
G01*
G37*
G04 #@! TD.AperFunction*
G04 #@! TO.P,U3,6*
G04 #@! TO.N,Net-(U3-Pad6)*
G04 #@! TA.AperFunction,SMDPad,CuDef*
G36*
G01*
X141330000Y-113815000D02*
X141330000Y-113515000D01*
G75*
G02*
X141480000Y-113365000I150000J0D01*
G01*
X143130000Y-113365000D01*
G75*
G02*
X143280000Y-113515000I0J-150000D01*
G01*
X143280000Y-113815000D01*
G75*
G02*
X143130000Y-113965000I-150000J0D01*
G01*
X141480000Y-113965000D01*
G75*
G02*
X141330000Y-113815000I0J150000D01*
G01*
G37*
G04 #@! TD.AperFunction*
G04 #@! TO.P,U3,5*
G04 #@! TO.N,Net-(U3-Pad5)*
G04 #@! TA.AperFunction,SMDPad,CuDef*
G36*
G01*
X141330000Y-112545000D02*
X141330000Y-112245000D01*
G75*
G02*
X141480000Y-112095000I150000J0D01*
G01*
X143130000Y-112095000D01*
G75*
G02*
X143280000Y-112245000I0J-150000D01*
G01*
X143280000Y-112545000D01*
G75*
G02*
X143130000Y-112695000I-150000J0D01*
G01*
X141480000Y-112695000D01*
G75*
G02*
X141330000Y-112545000I0J150000D01*
G01*
G37*
G04 #@! TD.AperFunction*
G04 #@! TO.P,U3,4*
G04 #@! TO.N,Net-(J4-Pad3)*
G04 #@! TA.AperFunction,SMDPad,CuDef*
G36*
G01*
X141330000Y-111275000D02*
X141330000Y-110975000D01*
G75*
G02*
X141480000Y-110825000I150000J0D01*
G01*
X143130000Y-110825000D01*
G75*
G02*
X143280000Y-110975000I0J-150000D01*
G01*
X143280000Y-111275000D01*
G75*
G02*
X143130000Y-111425000I-150000J0D01*
G01*
X141480000Y-111425000D01*
G75*
G02*
X141330000Y-111275000I0J150000D01*
G01*
G37*
G04 #@! TD.AperFunction*
G04 #@! TO.P,U3,3*
G04 #@! TO.N,Net-(J2-Pad3)*
G04 #@! TA.AperFunction,SMDPad,CuDef*
G36*
G01*
X141330000Y-110005000D02*
X141330000Y-109705000D01*
G75*
G02*
X141480000Y-109555000I150000J0D01*
G01*
X143130000Y-109555000D01*
G75*
G02*
X143280000Y-109705000I0J-150000D01*
G01*
X143280000Y-110005000D01*
G75*
G02*
X143130000Y-110155000I-150000J0D01*
G01*
X141480000Y-110155000D01*
G75*
G02*
X141330000Y-110005000I0J150000D01*
G01*
G37*
G04 #@! TD.AperFunction*
G04 #@! TO.P,U3,2*
G04 #@! TO.N,Net-(U1-Pad11)*
G04 #@! TA.AperFunction,SMDPad,CuDef*
G36*
G01*
X141330000Y-108735000D02*
X141330000Y-108435000D01*
G75*
G02*
X141480000Y-108285000I150000J0D01*
G01*
X143130000Y-108285000D01*
G75*
G02*
X143280000Y-108435000I0J-150000D01*
G01*
X143280000Y-108735000D01*
G75*
G02*
X143130000Y-108885000I-150000J0D01*
G01*
X141480000Y-108885000D01*
G75*
G02*
X141330000Y-108735000I0J150000D01*
G01*
G37*
G04 #@! TD.AperFunction*
G04 #@! TO.P,U3,1*
G04 #@! TO.N,Net-(U1-Pad10)*
G04 #@! TA.AperFunction,SMDPad,CuDef*
G36*
G01*
X141330000Y-107465000D02*
X141330000Y-107165000D01*
G75*
G02*
X141480000Y-107015000I150000J0D01*
G01*
X143130000Y-107015000D01*
G75*
G02*
X143280000Y-107165000I0J-150000D01*
G01*
X143280000Y-107465000D01*
G75*
G02*
X143130000Y-107615000I-150000J0D01*
G01*
X141480000Y-107615000D01*
G75*
G02*
X141330000Y-107465000I0J150000D01*
G01*
G37*
G04 #@! TD.AperFunction*
G04 #@! TD*
G04 #@! TO.P,U2,16*
G04 #@! TO.N,VDD*
G04 #@! TA.AperFunction,SMDPad,CuDef*
G36*
G01*
X138025000Y-116355000D02*
X138025000Y-116055000D01*
G75*
G02*
X138175000Y-115905000I150000J0D01*
G01*
X139825000Y-115905000D01*
G75*
G02*
X139975000Y-116055000I0J-150000D01*
G01*
X139975000Y-116355000D01*
G75*
G02*
X139825000Y-116505000I-150000J0D01*
G01*
X138175000Y-116505000D01*
G75*
G02*
X138025000Y-116355000I0J150000D01*
G01*
G37*
G04 #@! TD.AperFunction*
G04 #@! TO.P,U2,15*
G04 #@! TO.N,Net-(U1-Pad2)*
G04 #@! TA.AperFunction,SMDPad,CuDef*
G36*
G01*
X138025000Y-117625000D02*
X138025000Y-117325000D01*
G75*
G02*
X138175000Y-117175000I150000J0D01*
G01*
X139825000Y-117175000D01*
G75*
G02*
X139975000Y-117325000I0J-150000D01*
G01*
X139975000Y-117625000D01*
G75*
G02*
X139825000Y-117775000I-150000J0D01*
G01*
X138175000Y-117775000D01*
G75*
G02*
X138025000Y-117625000I0J150000D01*
G01*
G37*
G04 #@! TD.AperFunction*
G04 #@! TO.P,U2,14*
G04 #@! TO.N,Net-(J6-Pad2)*
G04 #@! TA.AperFunction,SMDPad,CuDef*
G36*
G01*
X138025000Y-118895000D02*
X138025000Y-118595000D01*
G75*
G02*
X138175000Y-118445000I150000J0D01*
G01*
X139825000Y-118445000D01*
G75*
G02*
X139975000Y-118595000I0J-150000D01*
G01*
X139975000Y-118895000D01*
G75*
G02*
X139825000Y-119045000I-150000J0D01*
G01*
X138175000Y-119045000D01*
G75*
G02*
X138025000Y-118895000I0J150000D01*
G01*
G37*
G04 #@! TD.AperFunction*
G04 #@! TO.P,U2,13*
G04 #@! TO.N,Net-(J3-Pad1)*
G04 #@! TA.AperFunction,SMDPad,CuDef*
G36*
G01*
X138025000Y-120165000D02*
X138025000Y-119865000D01*
G75*
G02*
X138175000Y-119715000I150000J0D01*
G01*
X139825000Y-119715000D01*
G75*
G02*
X139975000Y-119865000I0J-150000D01*
G01*
X139975000Y-120165000D01*
G75*
G02*
X139825000Y-120315000I-150000J0D01*
G01*
X138175000Y-120315000D01*
G75*
G02*
X138025000Y-120165000I0J150000D01*
G01*
G37*
G04 #@! TD.AperFunction*
G04 #@! TO.P,U2,12*
G04 #@! TO.N,Net-(U2-Pad12)*
G04 #@! TA.AperFunction,SMDPad,CuDef*
G36*
G01*
X138025000Y-121435000D02*
X138025000Y-121135000D01*
G75*
G02*
X138175000Y-120985000I150000J0D01*
G01*
X139825000Y-120985000D01*
G75*
G02*
X139975000Y-121135000I0J-150000D01*
G01*
X139975000Y-121435000D01*
G75*
G02*
X139825000Y-121585000I-150000J0D01*
G01*
X138175000Y-121585000D01*
G75*
G02*
X138025000Y-121435000I0J150000D01*
G01*
G37*
G04 #@! TD.AperFunction*
G04 #@! TO.P,U2,11*
G04 #@! TO.N,VDD*
G04 #@! TA.AperFunction,SMDPad,CuDef*
G36*
G01*
X138025000Y-122705000D02*
X138025000Y-122405000D01*
G75*
G02*
X138175000Y-122255000I150000J0D01*
G01*
X139825000Y-122255000D01*
G75*
G02*
X139975000Y-122405000I0J-150000D01*
G01*
X139975000Y-122705000D01*
G75*
G02*
X139825000Y-122855000I-150000J0D01*
G01*
X138175000Y-122855000D01*
G75*
G02*
X138025000Y-122705000I0J150000D01*
G01*
G37*
G04 #@! TD.AperFunction*
G04 #@! TO.P,U2,10*
G04 #@! TA.AperFunction,SMDPad,CuDef*
G36*
G01*
X138025000Y-123975000D02*
X138025000Y-123675000D01*
G75*
G02*
X138175000Y-123525000I150000J0D01*
G01*
X139825000Y-123525000D01*
G75*
G02*
X139975000Y-123675000I0J-150000D01*
G01*
X139975000Y-123975000D01*
G75*
G02*
X139825000Y-124125000I-150000J0D01*
G01*
X138175000Y-124125000D01*
G75*
G02*
X138025000Y-123975000I0J150000D01*
G01*
G37*
G04 #@! TD.AperFunction*
G04 #@! TO.P,U2,9*
G04 #@! TO.N,Net-(J1-Pad1)*
G04 #@! TA.AperFunction,SMDPad,CuDef*
G36*
G01*
X138025000Y-125245000D02*
X138025000Y-124945000D01*
G75*
G02*
X138175000Y-124795000I150000J0D01*
G01*
X139825000Y-124795000D01*
G75*
G02*
X139975000Y-124945000I0J-150000D01*
G01*
X139975000Y-125245000D01*
G75*
G02*
X139825000Y-125395000I-150000J0D01*
G01*
X138175000Y-125395000D01*
G75*
G02*
X138025000Y-125245000I0J150000D01*
G01*
G37*
G04 #@! TD.AperFunction*
G04 #@! TO.P,U2,8*
G04 #@! TO.N,GND*
G04 #@! TA.AperFunction,SMDPad,CuDef*
G36*
G01*
X133075000Y-125245000D02*
X133075000Y-124945000D01*
G75*
G02*
X133225000Y-124795000I150000J0D01*
G01*
X134875000Y-124795000D01*
G75*
G02*
X135025000Y-124945000I0J-150000D01*
G01*
X135025000Y-125245000D01*
G75*
G02*
X134875000Y-125395000I-150000J0D01*
G01*
X133225000Y-125395000D01*
G75*
G02*
X133075000Y-125245000I0J150000D01*
G01*
G37*
G04 #@! TD.AperFunction*
G04 #@! TO.P,U2,7*
G04 #@! TA.AperFunction,SMDPad,CuDef*
G36*
G01*
X133075000Y-123975000D02*
X133075000Y-123675000D01*
G75*
G02*
X133225000Y-123525000I150000J0D01*
G01*
X134875000Y-123525000D01*
G75*
G02*
X135025000Y-123675000I0J-150000D01*
G01*
X135025000Y-123975000D01*
G75*
G02*
X134875000Y-124125000I-150000J0D01*
G01*
X133225000Y-124125000D01*
G75*
G02*
X133075000Y-123975000I0J150000D01*
G01*
G37*
G04 #@! TD.AperFunction*
G04 #@! TO.P,U2,6*
G04 #@! TO.N,VDD*
G04 #@! TA.AperFunction,SMDPad,CuDef*
G36*
G01*
X133075000Y-122705000D02*
X133075000Y-122405000D01*
G75*
G02*
X133225000Y-122255000I150000J0D01*
G01*
X134875000Y-122255000D01*
G75*
G02*
X135025000Y-122405000I0J-150000D01*
G01*
X135025000Y-122705000D01*
G75*
G02*
X134875000Y-122855000I-150000J0D01*
G01*
X133225000Y-122855000D01*
G75*
G02*
X133075000Y-122705000I0J150000D01*
G01*
G37*
G04 #@! TD.AperFunction*
G04 #@! TO.P,U2,5*
G04 #@! TA.AperFunction,SMDPad,CuDef*
G36*
G01*
X133075000Y-121435000D02*
X133075000Y-121135000D01*
G75*
G02*
X133225000Y-120985000I150000J0D01*
G01*
X134875000Y-120985000D01*
G75*
G02*
X135025000Y-121135000I0J-150000D01*
G01*
X135025000Y-121435000D01*
G75*
G02*
X134875000Y-121585000I-150000J0D01*
G01*
X133225000Y-121585000D01*
G75*
G02*
X133075000Y-121435000I0J150000D01*
G01*
G37*
G04 #@! TD.AperFunction*
G04 #@! TO.P,U2,4*
G04 #@! TO.N,GND*
G04 #@! TA.AperFunction,SMDPad,CuDef*
G36*
G01*
X133075000Y-120165000D02*
X133075000Y-119865000D01*
G75*
G02*
X133225000Y-119715000I150000J0D01*
G01*
X134875000Y-119715000D01*
G75*
G02*
X135025000Y-119865000I0J-150000D01*
G01*
X135025000Y-120165000D01*
G75*
G02*
X134875000Y-120315000I-150000J0D01*
G01*
X133225000Y-120315000D01*
G75*
G02*
X133075000Y-120165000I0J150000D01*
G01*
G37*
G04 #@! TD.AperFunction*
G04 #@! TO.P,U2,3*
G04 #@! TO.N,Net-(U2-Pad3)*
G04 #@! TA.AperFunction,SMDPad,CuDef*
G36*
G01*
X133075000Y-118895000D02*
X133075000Y-118595000D01*
G75*
G02*
X133225000Y-118445000I150000J0D01*
G01*
X134875000Y-118445000D01*
G75*
G02*
X135025000Y-118595000I0J-150000D01*
G01*
X135025000Y-118895000D01*
G75*
G02*
X134875000Y-119045000I-150000J0D01*
G01*
X133225000Y-119045000D01*
G75*
G02*
X133075000Y-118895000I0J150000D01*
G01*
G37*
G04 #@! TD.AperFunction*
G04 #@! TO.P,U2,2*
G04 #@! TO.N,Net-(U1-Pad12)*
G04 #@! TA.AperFunction,SMDPad,CuDef*
G36*
G01*
X133075000Y-117625000D02*
X133075000Y-117325000D01*
G75*
G02*
X133225000Y-117175000I150000J0D01*
G01*
X134875000Y-117175000D01*
G75*
G02*
X135025000Y-117325000I0J-150000D01*
G01*
X135025000Y-117625000D01*
G75*
G02*
X134875000Y-117775000I-150000J0D01*
G01*
X133225000Y-117775000D01*
G75*
G02*
X133075000Y-117625000I0J150000D01*
G01*
G37*
G04 #@! TD.AperFunction*
G04 #@! TO.P,U2,1*
G04 #@! TO.N,Net-(U1-Pad9)*
G04 #@! TA.AperFunction,SMDPad,CuDef*
G36*
G01*
X133075000Y-116355000D02*
X133075000Y-116055000D01*
G75*
G02*
X133225000Y-115905000I150000J0D01*
G01*
X134875000Y-115905000D01*
G75*
G02*
X135025000Y-116055000I0J-150000D01*
G01*
X135025000Y-116355000D01*
G75*
G02*
X134875000Y-116505000I-150000J0D01*
G01*
X133225000Y-116505000D01*
G75*
G02*
X133075000Y-116355000I0J150000D01*
G01*
G37*
G04 #@! TD.AperFunction*
G04 #@! TD*
G04 #@! TO.P,U1,14*
G04 #@! TO.N,VDD*
G04 #@! TA.AperFunction,SMDPad,CuDef*
G36*
G01*
X128500000Y-117625000D02*
X128500000Y-117325000D01*
G75*
G02*
X128650000Y-117175000I150000J0D01*
G01*
X130300000Y-117175000D01*
G75*
G02*
X130450000Y-117325000I0J-150000D01*
G01*
X130450000Y-117625000D01*
G75*
G02*
X130300000Y-117775000I-150000J0D01*
G01*
X128650000Y-117775000D01*
G75*
G02*
X128500000Y-117625000I0J150000D01*
G01*
G37*
G04 #@! TD.AperFunction*
G04 #@! TO.P,U1,13*
G04 #@! TO.N,Net-(U1-Pad13)*
G04 #@! TA.AperFunction,SMDPad,CuDef*
G36*
G01*
X128500000Y-118895000D02*
X128500000Y-118595000D01*
G75*
G02*
X128650000Y-118445000I150000J0D01*
G01*
X130300000Y-118445000D01*
G75*
G02*
X130450000Y-118595000I0J-150000D01*
G01*
X130450000Y-118895000D01*
G75*
G02*
X130300000Y-119045000I-150000J0D01*
G01*
X128650000Y-119045000D01*
G75*
G02*
X128500000Y-118895000I0J150000D01*
G01*
G37*
G04 #@! TD.AperFunction*
G04 #@! TO.P,U1,12*
G04 #@! TO.N,Net-(U1-Pad12)*
G04 #@! TA.AperFunction,SMDPad,CuDef*
G36*
G01*
X128500000Y-120165000D02*
X128500000Y-119865000D01*
G75*
G02*
X128650000Y-119715000I150000J0D01*
G01*
X130300000Y-119715000D01*
G75*
G02*
X130450000Y-119865000I0J-150000D01*
G01*
X130450000Y-120165000D01*
G75*
G02*
X130300000Y-120315000I-150000J0D01*
G01*
X128650000Y-120315000D01*
G75*
G02*
X128500000Y-120165000I0J150000D01*
G01*
G37*
G04 #@! TD.AperFunction*
G04 #@! TO.P,U1,11*
G04 #@! TO.N,Net-(U1-Pad11)*
G04 #@! TA.AperFunction,SMDPad,CuDef*
G36*
G01*
X128500000Y-121435000D02*
X128500000Y-121135000D01*
G75*
G02*
X128650000Y-120985000I150000J0D01*
G01*
X130300000Y-120985000D01*
G75*
G02*
X130450000Y-121135000I0J-150000D01*
G01*
X130450000Y-121435000D01*
G75*
G02*
X130300000Y-121585000I-150000J0D01*
G01*
X128650000Y-121585000D01*
G75*
G02*
X128500000Y-121435000I0J150000D01*
G01*
G37*
G04 #@! TD.AperFunction*
G04 #@! TO.P,U1,10*
G04 #@! TO.N,Net-(U1-Pad10)*
G04 #@! TA.AperFunction,SMDPad,CuDef*
G36*
G01*
X128500000Y-122705000D02*
X128500000Y-122405000D01*
G75*
G02*
X128650000Y-122255000I150000J0D01*
G01*
X130300000Y-122255000D01*
G75*
G02*
X130450000Y-122405000I0J-150000D01*
G01*
X130450000Y-122705000D01*
G75*
G02*
X130300000Y-122855000I-150000J0D01*
G01*
X128650000Y-122855000D01*
G75*
G02*
X128500000Y-122705000I0J150000D01*
G01*
G37*
G04 #@! TD.AperFunction*
G04 #@! TO.P,U1,9*
G04 #@! TO.N,Net-(U1-Pad9)*
G04 #@! TA.AperFunction,SMDPad,CuDef*
G36*
G01*
X128500000Y-123975000D02*
X128500000Y-123675000D01*
G75*
G02*
X128650000Y-123525000I150000J0D01*
G01*
X130300000Y-123525000D01*
G75*
G02*
X130450000Y-123675000I0J-150000D01*
G01*
X130450000Y-123975000D01*
G75*
G02*
X130300000Y-124125000I-150000J0D01*
G01*
X128650000Y-124125000D01*
G75*
G02*
X128500000Y-123975000I0J150000D01*
G01*
G37*
G04 #@! TD.AperFunction*
G04 #@! TO.P,U1,8*
G04 #@! TO.N,Net-(R1-Pad1)*
G04 #@! TA.AperFunction,SMDPad,CuDef*
G36*
G01*
X128500000Y-125245000D02*
X128500000Y-124945000D01*
G75*
G02*
X128650000Y-124795000I150000J0D01*
G01*
X130300000Y-124795000D01*
G75*
G02*
X130450000Y-124945000I0J-150000D01*
G01*
X130450000Y-125245000D01*
G75*
G02*
X130300000Y-125395000I-150000J0D01*
G01*
X128650000Y-125395000D01*
G75*
G02*
X128500000Y-125245000I0J150000D01*
G01*
G37*
G04 #@! TD.AperFunction*
G04 #@! TO.P,U1,7*
G04 #@! TO.N,GND*
G04 #@! TA.AperFunction,SMDPad,CuDef*
G36*
G01*
X123550000Y-125245000D02*
X123550000Y-124945000D01*
G75*
G02*
X123700000Y-124795000I150000J0D01*
G01*
X125350000Y-124795000D01*
G75*
G02*
X125500000Y-124945000I0J-150000D01*
G01*
X125500000Y-125245000D01*
G75*
G02*
X125350000Y-125395000I-150000J0D01*
G01*
X123700000Y-125395000D01*
G75*
G02*
X123550000Y-125245000I0J150000D01*
G01*
G37*
G04 #@! TD.AperFunction*
G04 #@! TO.P,U1,6*
G04 #@! TO.N,Net-(R1-Pad1)*
G04 #@! TA.AperFunction,SMDPad,CuDef*
G36*
G01*
X123550000Y-123975000D02*
X123550000Y-123675000D01*
G75*
G02*
X123700000Y-123525000I150000J0D01*
G01*
X125350000Y-123525000D01*
G75*
G02*
X125500000Y-123675000I0J-150000D01*
G01*
X125500000Y-123975000D01*
G75*
G02*
X125350000Y-124125000I-150000J0D01*
G01*
X123700000Y-124125000D01*
G75*
G02*
X123550000Y-123975000I0J150000D01*
G01*
G37*
G04 #@! TD.AperFunction*
G04 #@! TO.P,U1,5*
G04 #@! TA.AperFunction,SMDPad,CuDef*
G36*
G01*
X123550000Y-122705000D02*
X123550000Y-122405000D01*
G75*
G02*
X123700000Y-122255000I150000J0D01*
G01*
X125350000Y-122255000D01*
G75*
G02*
X125500000Y-122405000I0J-150000D01*
G01*
X125500000Y-122705000D01*
G75*
G02*
X125350000Y-122855000I-150000J0D01*
G01*
X123700000Y-122855000D01*
G75*
G02*
X123550000Y-122705000I0J150000D01*
G01*
G37*
G04 #@! TD.AperFunction*
G04 #@! TO.P,U1,4*
G04 #@! TO.N,Net-(U1-Pad13)*
G04 #@! TA.AperFunction,SMDPad,CuDef*
G36*
G01*
X123550000Y-121435000D02*
X123550000Y-121135000D01*
G75*
G02*
X123700000Y-120985000I150000J0D01*
G01*
X125350000Y-120985000D01*
G75*
G02*
X125500000Y-121135000I0J-150000D01*
G01*
X125500000Y-121435000D01*
G75*
G02*
X125350000Y-121585000I-150000J0D01*
G01*
X123700000Y-121585000D01*
G75*
G02*
X123550000Y-121435000I0J150000D01*
G01*
G37*
G04 #@! TD.AperFunction*
G04 #@! TO.P,U1,3*
G04 #@! TO.N,Net-(R1-Pad1)*
G04 #@! TA.AperFunction,SMDPad,CuDef*
G36*
G01*
X123550000Y-120165000D02*
X123550000Y-119865000D01*
G75*
G02*
X123700000Y-119715000I150000J0D01*
G01*
X125350000Y-119715000D01*
G75*
G02*
X125500000Y-119865000I0J-150000D01*
G01*
X125500000Y-120165000D01*
G75*
G02*
X125350000Y-120315000I-150000J0D01*
G01*
X123700000Y-120315000D01*
G75*
G02*
X123550000Y-120165000I0J150000D01*
G01*
G37*
G04 #@! TD.AperFunction*
G04 #@! TO.P,U1,2*
G04 #@! TO.N,Net-(U1-Pad2)*
G04 #@! TA.AperFunction,SMDPad,CuDef*
G36*
G01*
X123550000Y-118895000D02*
X123550000Y-118595000D01*
G75*
G02*
X123700000Y-118445000I150000J0D01*
G01*
X125350000Y-118445000D01*
G75*
G02*
X125500000Y-118595000I0J-150000D01*
G01*
X125500000Y-118895000D01*
G75*
G02*
X125350000Y-119045000I-150000J0D01*
G01*
X123700000Y-119045000D01*
G75*
G02*
X123550000Y-118895000I0J150000D01*
G01*
G37*
G04 #@! TD.AperFunction*
G04 #@! TO.P,U1,1*
G04 #@! TO.N,Net-(C1-Pad1)*
G04 #@! TA.AperFunction,SMDPad,CuDef*
G36*
G01*
X123550000Y-117625000D02*
X123550000Y-117325000D01*
G75*
G02*
X123700000Y-117175000I150000J0D01*
G01*
X125350000Y-117175000D01*
G75*
G02*
X125500000Y-117325000I0J-150000D01*
G01*
X125500000Y-117625000D01*
G75*
G02*
X125350000Y-117775000I-150000J0D01*
G01*
X123700000Y-117775000D01*
G75*
G02*
X123550000Y-117625000I0J150000D01*
G01*
G37*
G04 #@! TD.AperFunction*
G04 #@! TD*
D15*
G04 #@! TO.P,H2,1*
G04 #@! TO.N,GND*
X114300000Y-123825000D03*
G04 #@! TD*
G04 #@! TO.P,H1,1*
G04 #@! TO.N,GND*
X158750000Y-123825000D03*
G04 #@! TD*
D18*
G04 #@! TO.P,C10,2*
G04 #@! TO.N,GND*
X117910000Y-119300000D03*
D19*
G04 #@! TO.P,C10,1*
G04 #@! TO.N,Net-(C10-Pad1)*
X117910000Y-114300000D03*
G04 #@! TD*
G04 #@! TO.P,U5,14*
G04 #@! TO.N,VDD*
G04 #@! TA.AperFunction,SMDPad,CuDef*
G36*
G01*
X147550000Y-117625000D02*
X147550000Y-117325000D01*
G75*
G02*
X147700000Y-117175000I150000J0D01*
G01*
X149350000Y-117175000D01*
G75*
G02*
X149500000Y-117325000I0J-150000D01*
G01*
X149500000Y-117625000D01*
G75*
G02*
X149350000Y-117775000I-150000J0D01*
G01*
X147700000Y-117775000D01*
G75*
G02*
X147550000Y-117625000I0J150000D01*
G01*
G37*
G04 #@! TD.AperFunction*
G04 #@! TO.P,U5,13*
G04 #@! TO.N,Net-(C3-Pad2)*
G04 #@! TA.AperFunction,SMDPad,CuDef*
G36*
G01*
X147550000Y-118895000D02*
X147550000Y-118595000D01*
G75*
G02*
X147700000Y-118445000I150000J0D01*
G01*
X149350000Y-118445000D01*
G75*
G02*
X149500000Y-118595000I0J-150000D01*
G01*
X149500000Y-118895000D01*
G75*
G02*
X149350000Y-119045000I-150000J0D01*
G01*
X147700000Y-119045000D01*
G75*
G02*
X147550000Y-118895000I0J150000D01*
G01*
G37*
G04 #@! TD.AperFunction*
G04 #@! TO.P,U5,12*
G04 #@! TA.AperFunction,SMDPad,CuDef*
G36*
G01*
X147550000Y-120165000D02*
X147550000Y-119865000D01*
G75*
G02*
X147700000Y-119715000I150000J0D01*
G01*
X149350000Y-119715000D01*
G75*
G02*
X149500000Y-119865000I0J-150000D01*
G01*
X149500000Y-120165000D01*
G75*
G02*
X149350000Y-120315000I-150000J0D01*
G01*
X147700000Y-120315000D01*
G75*
G02*
X147550000Y-120165000I0J150000D01*
G01*
G37*
G04 #@! TD.AperFunction*
G04 #@! TO.P,U5,11*
G04 #@! TO.N,Net-(U3-Pad5)*
G04 #@! TA.AperFunction,SMDPad,CuDef*
G36*
G01*
X147550000Y-121435000D02*
X147550000Y-121135000D01*
G75*
G02*
X147700000Y-120985000I150000J0D01*
G01*
X149350000Y-120985000D01*
G75*
G02*
X149500000Y-121135000I0J-150000D01*
G01*
X149500000Y-121435000D01*
G75*
G02*
X149350000Y-121585000I-150000J0D01*
G01*
X147700000Y-121585000D01*
G75*
G02*
X147550000Y-121435000I0J150000D01*
G01*
G37*
G04 #@! TD.AperFunction*
G04 #@! TO.P,U5,10*
G04 #@! TO.N,Net-(R4-Pad2)*
G04 #@! TA.AperFunction,SMDPad,CuDef*
G36*
G01*
X147550000Y-122705000D02*
X147550000Y-122405000D01*
G75*
G02*
X147700000Y-122255000I150000J0D01*
G01*
X149350000Y-122255000D01*
G75*
G02*
X149500000Y-122405000I0J-150000D01*
G01*
X149500000Y-122705000D01*
G75*
G02*
X149350000Y-122855000I-150000J0D01*
G01*
X147700000Y-122855000D01*
G75*
G02*
X147550000Y-122705000I0J150000D01*
G01*
G37*
G04 #@! TD.AperFunction*
G04 #@! TO.P,U5,9*
G04 #@! TO.N,Net-(U1-Pad9)*
G04 #@! TA.AperFunction,SMDPad,CuDef*
G36*
G01*
X147550000Y-123975000D02*
X147550000Y-123675000D01*
G75*
G02*
X147700000Y-123525000I150000J0D01*
G01*
X149350000Y-123525000D01*
G75*
G02*
X149500000Y-123675000I0J-150000D01*
G01*
X149500000Y-123975000D01*
G75*
G02*
X149350000Y-124125000I-150000J0D01*
G01*
X147700000Y-124125000D01*
G75*
G02*
X147550000Y-123975000I0J150000D01*
G01*
G37*
G04 #@! TD.AperFunction*
G04 #@! TO.P,U5,8*
G04 #@! TO.N,Net-(U2-Pad12)*
G04 #@! TA.AperFunction,SMDPad,CuDef*
G36*
G01*
X147550000Y-125245000D02*
X147550000Y-124945000D01*
G75*
G02*
X147700000Y-124795000I150000J0D01*
G01*
X149350000Y-124795000D01*
G75*
G02*
X149500000Y-124945000I0J-150000D01*
G01*
X149500000Y-125245000D01*
G75*
G02*
X149350000Y-125395000I-150000J0D01*
G01*
X147700000Y-125395000D01*
G75*
G02*
X147550000Y-125245000I0J150000D01*
G01*
G37*
G04 #@! TD.AperFunction*
G04 #@! TO.P,U5,7*
G04 #@! TO.N,GND*
G04 #@! TA.AperFunction,SMDPad,CuDef*
G36*
G01*
X142600000Y-125245000D02*
X142600000Y-124945000D01*
G75*
G02*
X142750000Y-124795000I150000J0D01*
G01*
X144400000Y-124795000D01*
G75*
G02*
X144550000Y-124945000I0J-150000D01*
G01*
X144550000Y-125245000D01*
G75*
G02*
X144400000Y-125395000I-150000J0D01*
G01*
X142750000Y-125395000D01*
G75*
G02*
X142600000Y-125245000I0J150000D01*
G01*
G37*
G04 #@! TD.AperFunction*
G04 #@! TO.P,U5,6*
G04 #@! TO.N,Net-(R11-Pad1)*
G04 #@! TA.AperFunction,SMDPad,CuDef*
G36*
G01*
X142600000Y-123975000D02*
X142600000Y-123675000D01*
G75*
G02*
X142750000Y-123525000I150000J0D01*
G01*
X144400000Y-123525000D01*
G75*
G02*
X144550000Y-123675000I0J-150000D01*
G01*
X144550000Y-123975000D01*
G75*
G02*
X144400000Y-124125000I-150000J0D01*
G01*
X142750000Y-124125000D01*
G75*
G02*
X142600000Y-123975000I0J150000D01*
G01*
G37*
G04 #@! TD.AperFunction*
G04 #@! TO.P,U5,5*
G04 #@! TO.N,Net-(U2-Pad3)*
G04 #@! TA.AperFunction,SMDPad,CuDef*
G36*
G01*
X142600000Y-122705000D02*
X142600000Y-122405000D01*
G75*
G02*
X142750000Y-122255000I150000J0D01*
G01*
X144400000Y-122255000D01*
G75*
G02*
X144550000Y-122405000I0J-150000D01*
G01*
X144550000Y-122705000D01*
G75*
G02*
X144400000Y-122855000I-150000J0D01*
G01*
X142750000Y-122855000D01*
G75*
G02*
X142600000Y-122705000I0J150000D01*
G01*
G37*
G04 #@! TD.AperFunction*
G04 #@! TO.P,U5,4*
G04 #@! TO.N,Net-(J3-Pad1)*
G04 #@! TA.AperFunction,SMDPad,CuDef*
G36*
G01*
X142600000Y-121435000D02*
X142600000Y-121135000D01*
G75*
G02*
X142750000Y-120985000I150000J0D01*
G01*
X144400000Y-120985000D01*
G75*
G02*
X144550000Y-121135000I0J-150000D01*
G01*
X144550000Y-121435000D01*
G75*
G02*
X144400000Y-121585000I-150000J0D01*
G01*
X142750000Y-121585000D01*
G75*
G02*
X142600000Y-121435000I0J150000D01*
G01*
G37*
G04 #@! TD.AperFunction*
G04 #@! TO.P,U5,3*
G04 #@! TO.N,Net-(U3-Pad6)*
G04 #@! TA.AperFunction,SMDPad,CuDef*
G36*
G01*
X142600000Y-120165000D02*
X142600000Y-119865000D01*
G75*
G02*
X142750000Y-119715000I150000J0D01*
G01*
X144400000Y-119715000D01*
G75*
G02*
X144550000Y-119865000I0J-150000D01*
G01*
X144550000Y-120165000D01*
G75*
G02*
X144400000Y-120315000I-150000J0D01*
G01*
X142750000Y-120315000D01*
G75*
G02*
X142600000Y-120165000I0J150000D01*
G01*
G37*
G04 #@! TD.AperFunction*
G04 #@! TO.P,U5,2*
G04 #@! TO.N,Net-(J1-Pad1)*
G04 #@! TA.AperFunction,SMDPad,CuDef*
G36*
G01*
X142600000Y-118895000D02*
X142600000Y-118595000D01*
G75*
G02*
X142750000Y-118445000I150000J0D01*
G01*
X144400000Y-118445000D01*
G75*
G02*
X144550000Y-118595000I0J-150000D01*
G01*
X144550000Y-118895000D01*
G75*
G02*
X144400000Y-119045000I-150000J0D01*
G01*
X142750000Y-119045000D01*
G75*
G02*
X142600000Y-118895000I0J150000D01*
G01*
G37*
G04 #@! TD.AperFunction*
G04 #@! TO.P,U5,1*
G04 #@! TA.AperFunction,SMDPad,CuDef*
G36*
G01*
X142600000Y-117625000D02*
X142600000Y-117325000D01*
G75*
G02*
X142750000Y-117175000I150000J0D01*
G01*
X144400000Y-117175000D01*
G75*
G02*
X144550000Y-117325000I0J-150000D01*
G01*
X144550000Y-117625000D01*
G75*
G02*
X144400000Y-117775000I-150000J0D01*
G01*
X142750000Y-117775000D01*
G75*
G02*
X142600000Y-117625000I0J150000D01*
G01*
G37*
G04 #@! TD.AperFunction*
G04 #@! TD*
D20*
G04 #@! TO.N,GND*
X156210500Y-125454300D03*
X142305000Y-116205000D03*
X136525000Y-121285000D03*
X156210000Y-102235000D03*
X146050000Y-125051800D03*
X156210000Y-99060000D03*
X126365000Y-112395000D03*
X153735000Y-109220000D03*
X156845000Y-106045000D03*
X153810000Y-122234600D03*
X116840000Y-122555000D03*
X160020000Y-116205000D03*
X132080000Y-125095000D03*
X132080000Y-123825000D03*
X127000000Y-125095000D03*
G04 #@! TO.N,Net-(U1-Pad10)*
X140732300Y-109004300D03*
X132080000Y-121398700D03*
G04 #@! TO.N,Net-(U2-Pad3)*
X141744400Y-120289100D03*
X148561100Y-114257300D03*
X156750500Y-116316300D03*
G04 #@! TO.N,Net-(J1-Pad1)*
X144283400Y-116015900D03*
G04 #@! TO.N,Net-(U2-Pad12)*
X145608100Y-110630600D03*
X141361300Y-121369990D03*
G04 #@! TO.N,VDD*
X150495000Y-117475000D03*
X127635000Y-117475000D03*
X131241300Y-120348400D03*
X136525000Y-122555000D03*
G04 #@! TD*
D21*
G04 #@! TO.N,GND*
X156210500Y-125454300D02*
X155575000Y-124818800D01*
X155575000Y-124818800D02*
X155575000Y-124600000D01*
X134086700Y-120051700D02*
X134050000Y-120015000D01*
X159945600Y-112367000D02*
X159338600Y-111760000D01*
X159338600Y-111760000D02*
X158685000Y-111760000D01*
X138290000Y-106345300D02*
X138290000Y-106680000D01*
X145027300Y-125051800D02*
X143618200Y-125051800D01*
X143618200Y-125051800D02*
X143575000Y-125095000D01*
X153810000Y-122234600D02*
X153735000Y-122159600D01*
X153735000Y-122159600D02*
X153735000Y-119380000D01*
X153810000Y-123190000D02*
X153810000Y-122234600D01*
X153735000Y-110490000D02*
X153735000Y-109709800D01*
X159385000Y-100190000D02*
X157480000Y-100190000D01*
X132080000Y-125095000D02*
X134050000Y-125095000D01*
X132159100Y-123904100D02*
X132080000Y-123825000D01*
X133970900Y-123904100D02*
X132159100Y-123904100D01*
X134050000Y-123825000D02*
X133970900Y-123904100D01*
X153735000Y-109709800D02*
X153735000Y-109220000D01*
X158685000Y-115570000D02*
X158692600Y-115577600D01*
X158685000Y-116140000D02*
X158750000Y-116205000D01*
X158685000Y-115570000D02*
X158685000Y-116140000D01*
X158750000Y-116205000D02*
X160020000Y-116205000D01*
X160217210Y-113831232D02*
X160217210Y-116007790D01*
X159945600Y-113559622D02*
X160217210Y-113831232D01*
X160217210Y-116007790D02*
X160020000Y-116205000D01*
X159945600Y-112367000D02*
X159945600Y-113559622D01*
X157340000Y-100190000D02*
X157480000Y-100190000D01*
X156210000Y-99060000D02*
X157340000Y-100190000D01*
X157480000Y-106045000D02*
X156845000Y-106045000D01*
X157620000Y-106185000D02*
X157480000Y-106045000D01*
X157620000Y-107315000D02*
X157620000Y-106185000D01*
X124460000Y-112395000D02*
X124740000Y-112395000D01*
X124525000Y-125095000D02*
X127000000Y-125095000D01*
X134685000Y-120650000D02*
X134050000Y-120015000D01*
X135890000Y-120650000D02*
X134685000Y-120650000D01*
X126365000Y-112395000D02*
X124740000Y-112395000D01*
X124320000Y-114300000D02*
X124460000Y-114300000D01*
X136525000Y-104140000D02*
X137160000Y-104140000D01*
X135255000Y-106045000D02*
X135255000Y-105410000D01*
X135255000Y-105410000D02*
X136525000Y-104140000D01*
X135890000Y-106680000D02*
X135255000Y-106045000D01*
X138290000Y-106680000D02*
X135890000Y-106680000D01*
X145027300Y-125051800D02*
X146050000Y-125051800D01*
X142305000Y-114935000D02*
X142305000Y-116205000D01*
X157290000Y-103315000D02*
X156210000Y-102235000D01*
X157480000Y-103315000D02*
X157290000Y-103315000D01*
X117970000Y-122555000D02*
X118605000Y-123190000D01*
X116840000Y-122555000D02*
X117970000Y-122555000D01*
X135890000Y-120650000D02*
X136525000Y-121285000D01*
X124460000Y-112395000D02*
X123965000Y-112395000D01*
X124320000Y-112750000D02*
X123965000Y-112395000D01*
X124320000Y-114300000D02*
X124320000Y-112750000D01*
G04 #@! TO.N,Net-(C1-Pad1)*
X120155000Y-123190000D02*
X120155000Y-125045000D01*
X120155000Y-125045000D02*
X120205000Y-125095000D01*
X124525000Y-117475000D02*
X124273900Y-117475000D01*
X120155000Y-122863900D02*
X120155000Y-123190000D01*
X123748890Y-119270010D02*
X120155000Y-122863900D01*
X123544664Y-119270010D02*
X123748890Y-119270010D01*
X123324990Y-119050336D02*
X123544664Y-119270010D01*
X124525000Y-117865361D02*
X124170371Y-118219990D01*
X123324990Y-118439664D02*
X123324990Y-119050336D01*
X123544664Y-118219990D02*
X123324990Y-118439664D01*
X124170371Y-118219990D02*
X123544664Y-118219990D01*
X124525000Y-117475000D02*
X124525000Y-117865361D01*
G04 #@! TO.N,Net-(J2-Pad3)*
X132191400Y-104251400D02*
X132080000Y-104140000D01*
X135449600Y-108144600D02*
X132191400Y-104886400D01*
X139074000Y-108144600D02*
X135449600Y-108144600D01*
X140784400Y-109855000D02*
X139074000Y-108144600D01*
X132191400Y-104886400D02*
X132191400Y-104251400D01*
X142305000Y-109855000D02*
X140784400Y-109855000D01*
G04 #@! TO.N,Net-(U1-Pad10)*
X142305000Y-107315000D02*
X142017600Y-107315000D01*
X142017600Y-107315000D02*
X140732300Y-108600300D01*
X140732300Y-108600300D02*
X140732300Y-109004300D01*
X130288700Y-122555000D02*
X131445000Y-121398700D01*
X129475000Y-122555000D02*
X130288700Y-122555000D01*
X131445000Y-121398700D02*
X132080000Y-121398700D01*
G04 #@! TO.N,Net-(U1-Pad9)*
X129475000Y-123825000D02*
X129220800Y-123825000D01*
X129220800Y-123825000D02*
X128245700Y-122849900D01*
X128245700Y-122849900D02*
X128245700Y-119689900D01*
X128245700Y-119689900D02*
X128449300Y-119486300D01*
X128449300Y-119486300D02*
X130239600Y-119486300D01*
X133755800Y-116205000D02*
X134050000Y-116205000D01*
X133520900Y-116205000D02*
X131212950Y-118512950D01*
X131212950Y-118512950D02*
X131338700Y-118387200D01*
X134050000Y-116205000D02*
X133520900Y-116205000D01*
X130239600Y-119486300D02*
X131212950Y-118512950D01*
X130110000Y-124460000D02*
X129475000Y-123825000D01*
X135255000Y-124460000D02*
X130110000Y-124460000D01*
X136742000Y-125947000D02*
X135255000Y-124460000D01*
X149217300Y-125947000D02*
X136742000Y-125947000D01*
X149764900Y-125399400D02*
X149217300Y-125947000D01*
X148762700Y-123825000D02*
X149764900Y-124827200D01*
X149764900Y-124827200D02*
X149764900Y-125399400D01*
X148525000Y-123825000D02*
X148762700Y-123825000D01*
G04 #@! TO.N,Net-(U2-Pad3)*
X141744400Y-120289100D02*
X141398700Y-120634800D01*
X134050000Y-118745000D02*
X135311800Y-118745000D01*
X135311800Y-118745000D02*
X137201600Y-120634800D01*
X137836600Y-120634800D02*
X141398700Y-120634800D01*
X148561100Y-114257300D02*
X148561100Y-113465000D01*
X148561100Y-113465000D02*
X147491100Y-112395000D01*
X147491100Y-112395000D02*
X147255000Y-112395000D01*
X157480000Y-116840000D02*
X158685000Y-116840000D01*
X156750500Y-116316300D02*
X157480000Y-116840000D01*
X137201600Y-120634800D02*
X138471600Y-120634800D01*
X141911302Y-121866302D02*
X142600000Y-122555000D01*
X142600000Y-122555000D02*
X143575000Y-122555000D01*
X141911302Y-120456002D02*
X141911302Y-121866302D01*
X141744400Y-120289100D02*
X141911302Y-120456002D01*
G04 #@! TO.N,Net-(C10-Pad1)*
X124460000Y-111125000D02*
X124460000Y-109220000D01*
X121285000Y-113525000D02*
X122415000Y-112395000D01*
X123890010Y-111694990D02*
X124460000Y-111125000D01*
X123115010Y-111694990D02*
X123890010Y-111694990D01*
X122415000Y-112395000D02*
X123115010Y-111694990D01*
X120510000Y-114300000D02*
X118110000Y-114300000D01*
X121285000Y-113525000D02*
X120510000Y-114300000D01*
X119229700Y-108244700D02*
X118300000Y-107315000D01*
X123484990Y-108244990D02*
X123484700Y-108244700D01*
X123500664Y-108244990D02*
X123484990Y-108244990D01*
X123484700Y-108244700D02*
X119229700Y-108244700D01*
X123940010Y-108684336D02*
X123500664Y-108244990D01*
X123940010Y-108700010D02*
X123940010Y-108684336D01*
X124460000Y-109220000D02*
X123940010Y-108700010D01*
X118300000Y-107445000D02*
X118300000Y-107315000D01*
X115890000Y-109855000D02*
X118300000Y-107445000D01*
X115090000Y-109855000D02*
X115890000Y-109855000D01*
G04 #@! TO.N,Net-(F1-Pad2)*
X124019700Y-104005600D02*
X120849100Y-100835000D01*
X120849100Y-100835000D02*
X116205000Y-100835000D01*
X124960600Y-104005600D02*
X125095000Y-104140000D01*
X124019700Y-104005600D02*
X124960600Y-104005600D01*
G04 #@! TO.N,Net-(C2-Pad2)*
X149035000Y-114935000D02*
X149670000Y-115570000D01*
X147255000Y-114935000D02*
X149035000Y-114935000D01*
X149451600Y-113030000D02*
X149451600Y-114518400D01*
X149451600Y-114518400D02*
X149035000Y-114935000D01*
X149451600Y-113030000D02*
X149720000Y-113030000D01*
X145867500Y-111668300D02*
X148089900Y-111668300D01*
X144757500Y-107788400D02*
X144757500Y-110558300D01*
X142947800Y-105978700D02*
X144757500Y-107788400D01*
X138957600Y-103064600D02*
X141871700Y-105978700D01*
X148089900Y-111668300D02*
X149451600Y-113030000D01*
X141871700Y-105978700D02*
X142947800Y-105978700D01*
X135695400Y-103064600D02*
X138957600Y-103064600D01*
X144757500Y-110558300D02*
X145867500Y-111668300D01*
X134620000Y-104140000D02*
X135695400Y-103064600D01*
G04 #@! TO.N,Net-(C3-Pad2)*
X148525000Y-118745000D02*
X148280800Y-118745000D01*
X148280800Y-118745000D02*
X145584500Y-116048700D01*
X145584500Y-116048700D02*
X145584500Y-114213200D01*
X145584500Y-114213200D02*
X144238000Y-112866700D01*
X144238000Y-112866700D02*
X144238000Y-107693800D01*
X144238000Y-107693800D02*
X143224200Y-106680000D01*
X143224200Y-106680000D02*
X139840000Y-106680000D01*
X148525000Y-120015000D02*
X148525000Y-118745000D01*
X148525000Y-120015000D02*
X148800600Y-120015000D01*
X148780000Y-119000000D02*
X148525000Y-118745000D01*
X151130000Y-119000000D02*
X148780000Y-119000000D01*
G04 #@! TO.N,Net-(C5-Pad1)*
X159385000Y-103315000D02*
X159385000Y-101740000D01*
X153735000Y-111760000D02*
X154298300Y-111760000D01*
X154298300Y-111760000D02*
X158432500Y-107625800D01*
X158432500Y-107625800D02*
X158432500Y-104267500D01*
X158432500Y-104267500D02*
X159385000Y-103315000D01*
X157480000Y-101740000D02*
X159385000Y-101740000D01*
G04 #@! TO.N,Net-(C8-Pad1)*
X154495000Y-121285000D02*
X155575000Y-122365000D01*
X155575000Y-122365000D02*
X155575000Y-123050000D01*
X158685000Y-113030000D02*
X158991700Y-113030000D01*
X158991700Y-113030000D02*
X159917200Y-113955500D01*
X159917200Y-113955500D02*
X159917200Y-114592200D01*
X159917200Y-114592200D02*
X159523300Y-114986100D01*
X159523300Y-114986100D02*
X157271700Y-114986100D01*
X157271700Y-114986100D02*
X155874000Y-116383800D01*
X155874000Y-116383800D02*
X155874000Y-119906000D01*
X155874000Y-119906000D02*
X154495000Y-121285000D01*
G04 #@! TO.N,Net-(C9-Pad1)*
X149670000Y-109855000D02*
X150987500Y-108537500D01*
X150987500Y-108537500D02*
X153272500Y-108537500D01*
X153272500Y-108537500D02*
X154495000Y-107315000D01*
X147255000Y-109855000D02*
X149670000Y-109855000D01*
X154495000Y-107315000D02*
X156070000Y-107315000D01*
G04 #@! TO.N,Net-(J1-Pad1)*
X143575000Y-118745000D02*
X143575000Y-117475000D01*
X143575000Y-117475000D02*
X144283400Y-116766600D01*
X144283400Y-116766600D02*
X144283400Y-116015900D01*
X153670000Y-104140000D02*
X156655000Y-104140000D01*
X156655000Y-104140000D02*
X157480000Y-104965000D01*
X144778800Y-122858400D02*
X144432200Y-123205000D01*
X140335000Y-125095000D02*
X139000000Y-125095000D01*
X144778800Y-119699900D02*
X144778800Y-122858400D01*
X143823900Y-118745000D02*
X144778800Y-119699900D01*
X144432200Y-123205000D02*
X142225000Y-123205000D01*
X142225000Y-123205000D02*
X140335000Y-125095000D01*
X143575000Y-118745000D02*
X143823900Y-118745000D01*
G04 #@! TO.N,Net-(J3-Pad1)*
X143575000Y-121285000D02*
X143290500Y-121285000D01*
X143290500Y-121285000D02*
X142294700Y-120289200D01*
X142294700Y-120289200D02*
X142294700Y-120061000D01*
X142294700Y-120061000D02*
X141966700Y-119733000D01*
X141966700Y-119733000D02*
X141462000Y-119733000D01*
X139635000Y-120015000D02*
X141180000Y-120015000D01*
X141180000Y-120015000D02*
X141462000Y-119733000D01*
X140270000Y-120015000D02*
X139000000Y-120015000D01*
X140970000Y-119241000D02*
X140970000Y-115378049D01*
X140970000Y-115378049D02*
X140147723Y-114555771D01*
X141462000Y-119733000D02*
X140970000Y-119241000D01*
X140147723Y-113477723D02*
X138430000Y-111760000D01*
X140147723Y-114555771D02*
X140147723Y-113477723D01*
G04 #@! TO.N,Net-(J3-Pad2)*
X134820000Y-109220000D02*
X138430000Y-109220000D01*
G04 #@! TO.N,Net-(J4-Pad3)*
X127689900Y-105215300D02*
X132855600Y-110381000D01*
X132855600Y-110381000D02*
X141561000Y-110381000D01*
X141561000Y-110381000D02*
X142305000Y-111125000D01*
X122555000Y-104140000D02*
X123630300Y-105215300D01*
X123630300Y-105215300D02*
X124654700Y-105215300D01*
X124654700Y-105215300D02*
X127689900Y-105215300D01*
X124571100Y-105215300D02*
X124654700Y-105215300D01*
G04 #@! TO.N,Net-(J5-Pad3)*
X146314200Y-109153800D02*
X148221700Y-109153800D01*
X148221700Y-109153800D02*
X149670000Y-107705500D01*
X149670000Y-107705500D02*
X149670000Y-107315000D01*
X142680300Y-105215300D02*
X145358200Y-107893200D01*
X145358200Y-107893200D02*
X145358200Y-108197800D01*
X145358200Y-108197800D02*
X146314200Y-109153800D01*
X153735000Y-114300000D02*
X151412000Y-114300000D01*
X151412000Y-114300000D02*
X150495000Y-113383000D01*
X150495000Y-113383000D02*
X150495000Y-112688600D01*
X150495000Y-112688600D02*
X148402700Y-110596300D01*
X148402700Y-110596300D02*
X146421400Y-110596300D01*
X146421400Y-110596300D02*
X146045400Y-110220300D01*
X146045400Y-110220300D02*
X146045400Y-109422600D01*
X146045400Y-109422600D02*
X146314200Y-109153800D01*
X142680300Y-105215300D02*
X141605000Y-104140000D01*
G04 #@! TO.N,Net-(R1-Pad1)*
X124525000Y-123825000D02*
X125051000Y-124351000D01*
X125051000Y-124351000D02*
X128731000Y-124351000D01*
X128731000Y-124351000D02*
X129475000Y-125095000D01*
X124259700Y-123825000D02*
X124525000Y-123825000D01*
X122259800Y-125824900D02*
X124259700Y-123825000D01*
X124259700Y-123825000D02*
X124259700Y-122555000D01*
X124259700Y-122555000D02*
X124525000Y-122555000D01*
X124525000Y-120015000D02*
X124287000Y-120015000D01*
X124287000Y-120015000D02*
X123310100Y-120991900D01*
X123310100Y-120991900D02*
X123310100Y-121605400D01*
X123310100Y-121605400D02*
X124259700Y-122555000D01*
X119284900Y-125824900D02*
X118555000Y-125095000D01*
X122259800Y-125824900D02*
X119284900Y-125824900D01*
G04 #@! TO.N,Net-(R4-Pad2)*
X149225000Y-122555000D02*
X151130000Y-120650000D01*
X148525000Y-122555000D02*
X149225000Y-122555000D01*
G04 #@! TO.N,Net-(R10-Pad1)*
X153970346Y-118110000D02*
X153735000Y-118110000D01*
X154940000Y-116205000D02*
X154940000Y-117140346D01*
X155290000Y-115855000D02*
X154940000Y-116205000D01*
X152770200Y-112328700D02*
X154574600Y-112328700D01*
X155290000Y-113044100D02*
X155290000Y-115855000D01*
X151320000Y-109855000D02*
X151320000Y-110878500D01*
X154574600Y-112328700D02*
X155290000Y-113044100D01*
X154940000Y-117140346D02*
X153970346Y-118110000D01*
X151320000Y-110878500D02*
X152770200Y-112328700D01*
G04 #@! TO.N,Net-(U1-Pad12)*
X129475000Y-120015000D02*
X130214100Y-120015000D01*
X130214100Y-120015000D02*
X132754100Y-117475000D01*
X133389100Y-117475000D02*
X134050000Y-117475000D01*
X132754100Y-117475000D02*
X134050000Y-117475000D01*
G04 #@! TO.N,Net-(U1-Pad11)*
X143572500Y-108877500D02*
X143280000Y-108585000D01*
X143572500Y-111405200D02*
X143572500Y-108877500D01*
X140408200Y-111687900D02*
X143289800Y-111687900D01*
X139404900Y-110684600D02*
X140408200Y-111687900D01*
X143289800Y-111687900D02*
X143572500Y-111405200D01*
X137479600Y-110684600D02*
X139404900Y-110684600D01*
X137354600Y-110809600D02*
X137479600Y-110684600D01*
X130691000Y-121044000D02*
X130691000Y-119963000D01*
X143280000Y-108585000D02*
X142305000Y-108585000D01*
X130450000Y-121285000D02*
X130691000Y-121044000D01*
X130691000Y-119963000D02*
X132443100Y-118210900D01*
X129475000Y-121285000D02*
X130450000Y-121285000D01*
X140500019Y-115775395D02*
X138594946Y-113870322D01*
X140500019Y-118750327D02*
X140500019Y-115775395D01*
X138019664Y-119270010D02*
X139980336Y-119270010D01*
X136960554Y-118210900D02*
X138019664Y-119270010D01*
X139980336Y-119270010D02*
X140500019Y-118750327D01*
X132443100Y-118210900D02*
X136960554Y-118210900D01*
X138000322Y-113870322D02*
X137354600Y-113224600D01*
X138594946Y-113870322D02*
X138000322Y-113870322D01*
X137354600Y-113224600D02*
X137354600Y-110809600D01*
G04 #@! TO.N,Net-(U1-Pad2)*
X124525000Y-118745000D02*
X125160000Y-118110000D01*
X125160000Y-118110000D02*
X130389300Y-118110000D01*
X136378700Y-115678000D02*
X132821300Y-115678000D01*
X132821300Y-115678000D02*
X131869650Y-116629650D01*
X138175700Y-117475000D02*
X136378700Y-115678000D01*
X131869650Y-116629650D02*
X131978300Y-116521000D01*
X130389300Y-118110000D02*
X131869650Y-116629650D01*
G04 #@! TO.N,Net-(U2-Pad12)*
X147255000Y-111125000D02*
X146102500Y-111125000D01*
X146102500Y-111125000D02*
X145608100Y-110630600D01*
X139000000Y-121285000D02*
X140335000Y-121285000D01*
X140270000Y-121285000D02*
X140335000Y-121285000D01*
X139700000Y-121285000D02*
X141276310Y-121285000D01*
X138023054Y-125623400D02*
X137799990Y-125400336D01*
X138129654Y-124460000D02*
X140335000Y-124460000D01*
X137799990Y-125400336D02*
X137799990Y-124789664D01*
X140335000Y-124460000D02*
X141361300Y-123433700D01*
X141361300Y-123433700D02*
X141361300Y-121369990D01*
X141276310Y-121285000D02*
X141361300Y-121369990D01*
X137799990Y-124789664D02*
X138129654Y-124460000D01*
X147996600Y-125623400D02*
X148525000Y-125095000D01*
X138023054Y-125623400D02*
X147996600Y-125623400D01*
G04 #@! TO.N,Net-(J6-Pad2)*
X139255900Y-118745000D02*
X139000000Y-118745000D01*
X139975000Y-118745000D02*
X139000000Y-118745000D01*
X140200010Y-118519990D02*
X139975000Y-118745000D01*
X140200010Y-115899664D02*
X140200010Y-118519990D01*
X139980336Y-115679990D02*
X140200010Y-115899664D01*
X139374990Y-115679990D02*
X139980336Y-115679990D01*
X135455000Y-111760000D02*
X134820000Y-111760000D01*
X139374990Y-115679990D02*
X135455000Y-111760000D01*
G04 #@! TO.N,Net-(U1-Pad13)*
X124525000Y-121285000D02*
X124825000Y-121285000D01*
X124825000Y-121285000D02*
X127365000Y-118745000D01*
X127365000Y-118745000D02*
X129475000Y-118745000D01*
G04 #@! TO.N,VDD*
X151320000Y-107315000D02*
X152845000Y-107315000D01*
X151130000Y-106571900D02*
X151130000Y-107125000D01*
X151130000Y-107125000D02*
X151320000Y-107315000D01*
X131876300Y-120348400D02*
X132321500Y-120793600D01*
X132321500Y-120793600D02*
X133558600Y-120793600D01*
X133558600Y-120793600D02*
X134050000Y-121285000D01*
X127618500Y-112551500D02*
X125870000Y-114300000D01*
X128270000Y-110490000D02*
X128270000Y-111900000D01*
X128270000Y-111900000D02*
X127618500Y-112551500D01*
X159385000Y-104965000D02*
X159385000Y-109790000D01*
X159385000Y-109790000D02*
X158685000Y-110490000D01*
X153735000Y-113030000D02*
X151270000Y-113030000D01*
X158429000Y-114300000D02*
X158685000Y-114300000D01*
X149415000Y-117475000D02*
X148525000Y-117475000D01*
X148525000Y-117475000D02*
X148286400Y-117475000D01*
X148286400Y-117475000D02*
X146047300Y-115235900D01*
X146047300Y-115235900D02*
X146047300Y-114575900D01*
X146047300Y-114575900D02*
X146958200Y-113665000D01*
X146958200Y-113665000D02*
X147255000Y-113665000D01*
X146685000Y-104140000D02*
X146685000Y-105215300D01*
X147998100Y-106571900D02*
X147255000Y-107315000D01*
X151130000Y-106571900D02*
X147998100Y-106571900D01*
X146685000Y-105215300D02*
X147998100Y-106528400D01*
X147998100Y-106528400D02*
X147998100Y-106571900D01*
X151130000Y-104140000D02*
X151130000Y-106571900D01*
X139000000Y-123825000D02*
X139000000Y-122555000D01*
X152845000Y-121285000D02*
X152845000Y-122605000D01*
X152845000Y-122605000D02*
X152260000Y-123190000D01*
X134050000Y-121285000D02*
X134050000Y-122555000D01*
X153735000Y-115570000D02*
X153987800Y-115570000D01*
X153987800Y-115570000D02*
X154957800Y-114600000D01*
X154957800Y-114600000D02*
X154957800Y-113947000D01*
X154957800Y-113947000D02*
X154040800Y-113030000D01*
X154040800Y-113030000D02*
X153735000Y-113030000D01*
X134050000Y-122555000D02*
X136525000Y-122555000D01*
X147255000Y-108585000D02*
X147255000Y-107315000D01*
X118590000Y-109855000D02*
X119465300Y-109855000D01*
X121920000Y-109220000D02*
X120100300Y-109220000D01*
X120100300Y-109220000D02*
X119465300Y-109855000D01*
X129475000Y-117475000D02*
X127635000Y-117475000D01*
X136525000Y-122555000D02*
X139000000Y-122555000D01*
X150495000Y-117475000D02*
X148525000Y-117475000D01*
X150495000Y-116395000D02*
X151320000Y-115570000D01*
X150495000Y-117475000D02*
X150495000Y-116395000D01*
X130745000Y-112965000D02*
X128270000Y-110490000D01*
X154255300Y-101014700D02*
X151130000Y-104140000D01*
X159782100Y-101014700D02*
X154255300Y-101014700D01*
X160092900Y-101325500D02*
X159782100Y-101014700D01*
X160092900Y-104257100D02*
X160092900Y-101325500D01*
X159385000Y-104965000D02*
X160092900Y-104257100D01*
X157480900Y-111427200D02*
X157480900Y-113331246D01*
X158449654Y-114300000D02*
X158685000Y-114300000D01*
X157480900Y-113331246D02*
X158449654Y-114300000D01*
X158418100Y-110490000D02*
X157480900Y-111427200D01*
X158685000Y-110490000D02*
X158418100Y-110490000D01*
X133157700Y-115377700D02*
X130745000Y-112965000D01*
X139000000Y-116205000D02*
X138172700Y-115377700D01*
X133542010Y-115377990D02*
X133157990Y-115377990D01*
X133542300Y-115377700D02*
X133542010Y-115377990D01*
X138172700Y-115377700D02*
X133542300Y-115377700D01*
X133157990Y-115377990D02*
X133157700Y-115377700D01*
X131241300Y-120348400D02*
X131876300Y-120348400D01*
X154715336Y-118635010D02*
X152754664Y-118635010D01*
X155240009Y-116539991D02*
X155240009Y-118110337D01*
X152754664Y-118635010D02*
X152533500Y-118413846D01*
X155240009Y-118110337D02*
X154715336Y-118635010D01*
X157480000Y-114300000D02*
X155240009Y-116539991D01*
X158685000Y-114300000D02*
X157480000Y-114300000D01*
X151320000Y-115570000D02*
X153735000Y-115570000D01*
X152400000Y-120840000D02*
X152845000Y-121285000D01*
X152400000Y-118377000D02*
X152400000Y-120840000D01*
X152400000Y-118110000D02*
X152400000Y-116650000D01*
X152400000Y-116650000D02*
X151320000Y-115570000D01*
X152436846Y-118413846D02*
X152400000Y-118377000D01*
X152533500Y-118413846D02*
X152436846Y-118413846D01*
X152400000Y-118110000D02*
X152400000Y-118377000D01*
X127635000Y-116065000D02*
X125870000Y-114300000D01*
X127635000Y-117475000D02*
X127635000Y-116065000D01*
G04 #@! TO.N,Net-(U3-Pad6)*
X143575000Y-120015000D02*
X143339100Y-120015000D01*
X143524500Y-114648500D02*
X142541000Y-113665000D01*
X143524500Y-116190500D02*
X143524500Y-114648500D01*
X142875000Y-116840000D02*
X143524500Y-116190500D01*
X142704654Y-116840000D02*
X142875000Y-116840000D01*
X142374990Y-117169664D02*
X142704654Y-116840000D01*
X142374990Y-119050336D02*
X142374990Y-117169664D01*
X142541000Y-113665000D02*
X142305000Y-113665000D01*
X143339654Y-120015000D02*
X142374990Y-119050336D01*
X143575000Y-120015000D02*
X143339654Y-120015000D01*
G04 #@! TO.N,Net-(U3-Pad5)*
X148525000Y-121285000D02*
X148224800Y-121285000D01*
X148224800Y-121285000D02*
X145178200Y-118238400D01*
X145178200Y-118238400D02*
X145178200Y-115032300D01*
X145178200Y-115032300D02*
X142540900Y-112395000D01*
X142540900Y-112395000D02*
X142305000Y-112395000D01*
G04 #@! TO.N,Net-(R11-Pad2)*
X154697300Y-124345000D02*
X155217300Y-123825000D01*
X155217300Y-123825000D02*
X155993700Y-123825000D01*
X155993700Y-123825000D02*
X156333200Y-123485500D01*
X156333200Y-123485500D02*
X156333200Y-120200500D01*
X156333200Y-120200500D02*
X158423700Y-118110000D01*
X158423700Y-118110000D02*
X158685000Y-118110000D01*
X154697300Y-124447700D02*
X154050000Y-125095000D01*
X154697300Y-124345000D02*
X154697300Y-124447700D01*
G04 #@! TO.N,Net-(R11-Pad1)*
X143575000Y-123825000D02*
X145477800Y-123825000D01*
X145477800Y-123825000D02*
X146039600Y-123263200D01*
X146039600Y-123263200D02*
X149472700Y-123263200D01*
X149472700Y-123263200D02*
X150813800Y-124604300D01*
X151909300Y-124604300D02*
X152400000Y-125095000D01*
X150813800Y-124604300D02*
X151909300Y-124604300D01*
G04 #@! TO.N,Net-(U6-Pad6)*
X153735000Y-116840000D02*
X153987700Y-116840000D01*
G04 #@! TO.N,Net-(F1-Pad1)*
X116650000Y-104080000D02*
X116205000Y-103635000D01*
X116650000Y-107315000D02*
X116650000Y-104080000D01*
G04 #@! TD*
M02*
