G04 #@! TF.GenerationSoftware,KiCad,Pcbnew,(5.1.10-1-10_14)*
G04 #@! TF.CreationDate,2021-06-28T15:59:20-07:00*
G04 #@! TF.ProjectId,qiroll PAS digital logic,7169726f-6c6c-4205-9041-532064696769,rev?*
G04 #@! TF.SameCoordinates,Original*
G04 #@! TF.FileFunction,Legend,Top*
G04 #@! TF.FilePolarity,Positive*
%FSLAX46Y46*%
G04 Gerber Fmt 4.6, Leading zero omitted, Abs format (unit mm)*
G04 Created by KiCad (PCBNEW (5.1.10-1-10_14)) date 2021-06-28 15:59:20*
%MOMM*%
%LPD*%
G01*
G04 APERTURE LIST*
%ADD10C,0.150000*%
%ADD11C,0.120000*%
%ADD12C,3.800000*%
%ADD13O,1.700000X1.700000*%
%ADD14R,1.700000X1.700000*%
%ADD15R,0.700000X0.510000*%
%ADD16R,1.300000X1.300000*%
%ADD17C,1.300000*%
%ADD18C,1.600000*%
%ADD19R,1.600000X1.600000*%
%ADD20C,2.000000*%
%ADD21R,2.000000X2.000000*%
G04 APERTURE END LIST*
D10*
X121992380Y-43664714D02*
X121992380Y-44664714D01*
X121992380Y-44283761D02*
X121897142Y-44331380D01*
X121706666Y-44331380D01*
X121611428Y-44283761D01*
X121563809Y-44236142D01*
X121516190Y-44140904D01*
X121516190Y-43855190D01*
X121563809Y-43759952D01*
X121611428Y-43712333D01*
X121706666Y-43664714D01*
X121897142Y-43664714D01*
X121992380Y-43712333D01*
X122468571Y-44331380D02*
X122468571Y-43664714D01*
X122468571Y-43331380D02*
X122420952Y-43379000D01*
X122468571Y-43426619D01*
X122516190Y-43379000D01*
X122468571Y-43331380D01*
X122468571Y-43426619D01*
X122944761Y-44331380D02*
X122944761Y-43664714D01*
X122944761Y-43855190D02*
X122992380Y-43759952D01*
X123040000Y-43712333D01*
X123135238Y-43664714D01*
X123230476Y-43664714D01*
X123706666Y-44331380D02*
X123611428Y-44283761D01*
X123563809Y-44236142D01*
X123516190Y-44140904D01*
X123516190Y-43855190D01*
X123563809Y-43759952D01*
X123611428Y-43712333D01*
X123706666Y-43664714D01*
X123849523Y-43664714D01*
X123944761Y-43712333D01*
X123992380Y-43759952D01*
X124040000Y-43855190D01*
X124040000Y-44140904D01*
X123992380Y-44236142D01*
X123944761Y-44283761D01*
X123849523Y-44331380D01*
X123706666Y-44331380D01*
X124611428Y-44331380D02*
X124516190Y-44283761D01*
X124468571Y-44188523D01*
X124468571Y-43331380D01*
X125135238Y-44331380D02*
X125040000Y-44283761D01*
X124992380Y-44188523D01*
X124992380Y-43331380D01*
X126278095Y-43664714D02*
X126278095Y-44664714D01*
X126278095Y-43712333D02*
X126373333Y-43664714D01*
X126563809Y-43664714D01*
X126659047Y-43712333D01*
X126706666Y-43759952D01*
X126754285Y-43855190D01*
X126754285Y-44140904D01*
X126706666Y-44236142D01*
X126659047Y-44283761D01*
X126563809Y-44331380D01*
X126373333Y-44331380D01*
X126278095Y-44283761D01*
X127563809Y-44283761D02*
X127468571Y-44331380D01*
X127278095Y-44331380D01*
X127182857Y-44283761D01*
X127135238Y-44188523D01*
X127135238Y-43807571D01*
X127182857Y-43712333D01*
X127278095Y-43664714D01*
X127468571Y-43664714D01*
X127563809Y-43712333D01*
X127611428Y-43807571D01*
X127611428Y-43902809D01*
X127135238Y-43998047D01*
X128468571Y-44331380D02*
X128468571Y-43331380D01*
X128468571Y-44283761D02*
X128373333Y-44331380D01*
X128182857Y-44331380D01*
X128087619Y-44283761D01*
X128040000Y-44236142D01*
X127992380Y-44140904D01*
X127992380Y-43855190D01*
X128040000Y-43759952D01*
X128087619Y-43712333D01*
X128182857Y-43664714D01*
X128373333Y-43664714D01*
X128468571Y-43712333D01*
X129373333Y-44331380D02*
X129373333Y-43807571D01*
X129325714Y-43712333D01*
X129230476Y-43664714D01*
X129040000Y-43664714D01*
X128944761Y-43712333D01*
X129373333Y-44283761D02*
X129278095Y-44331380D01*
X129040000Y-44331380D01*
X128944761Y-44283761D01*
X128897142Y-44188523D01*
X128897142Y-44093285D01*
X128944761Y-43998047D01*
X129040000Y-43950428D01*
X129278095Y-43950428D01*
X129373333Y-43902809D01*
X129992380Y-44331380D02*
X129897142Y-44283761D01*
X129849523Y-44188523D01*
X129849523Y-43331380D01*
X131563809Y-44331380D02*
X131563809Y-43807571D01*
X131516190Y-43712333D01*
X131420952Y-43664714D01*
X131230476Y-43664714D01*
X131135238Y-43712333D01*
X131563809Y-44283761D02*
X131468571Y-44331380D01*
X131230476Y-44331380D01*
X131135238Y-44283761D01*
X131087619Y-44188523D01*
X131087619Y-44093285D01*
X131135238Y-43998047D01*
X131230476Y-43950428D01*
X131468571Y-43950428D01*
X131563809Y-43902809D01*
X131992380Y-44283761D02*
X132087619Y-44331380D01*
X132278095Y-44331380D01*
X132373333Y-44283761D01*
X132420952Y-44188523D01*
X132420952Y-44140904D01*
X132373333Y-44045666D01*
X132278095Y-43998047D01*
X132135238Y-43998047D01*
X132040000Y-43950428D01*
X131992380Y-43855190D01*
X131992380Y-43807571D01*
X132040000Y-43712333D01*
X132135238Y-43664714D01*
X132278095Y-43664714D01*
X132373333Y-43712333D01*
X132801904Y-44283761D02*
X132897142Y-44331380D01*
X133087619Y-44331380D01*
X133182857Y-44283761D01*
X133230476Y-44188523D01*
X133230476Y-44140904D01*
X133182857Y-44045666D01*
X133087619Y-43998047D01*
X132944761Y-43998047D01*
X132849523Y-43950428D01*
X132801904Y-43855190D01*
X132801904Y-43807571D01*
X132849523Y-43712333D01*
X132944761Y-43664714D01*
X133087619Y-43664714D01*
X133182857Y-43712333D01*
X133659047Y-44331380D02*
X133659047Y-43664714D01*
X133659047Y-43331380D02*
X133611428Y-43379000D01*
X133659047Y-43426619D01*
X133706666Y-43379000D01*
X133659047Y-43331380D01*
X133659047Y-43426619D01*
X134087619Y-44283761D02*
X134182857Y-44331380D01*
X134373333Y-44331380D01*
X134468571Y-44283761D01*
X134516190Y-44188523D01*
X134516190Y-44140904D01*
X134468571Y-44045666D01*
X134373333Y-43998047D01*
X134230476Y-43998047D01*
X134135238Y-43950428D01*
X134087619Y-43855190D01*
X134087619Y-43807571D01*
X134135238Y-43712333D01*
X134230476Y-43664714D01*
X134373333Y-43664714D01*
X134468571Y-43712333D01*
X134801904Y-43664714D02*
X135182857Y-43664714D01*
X134944761Y-43331380D02*
X134944761Y-44188523D01*
X134992380Y-44283761D01*
X135087619Y-44331380D01*
X135182857Y-44331380D01*
X136182857Y-43664714D02*
X136420952Y-44331380D01*
X136659047Y-43664714D01*
X137563809Y-44331380D02*
X136992380Y-44331380D01*
X137278095Y-44331380D02*
X137278095Y-43331380D01*
X137182857Y-43474238D01*
X137087619Y-43569476D01*
X136992380Y-43617095D01*
X124111428Y-45457571D02*
X124444761Y-45457571D01*
X124587619Y-45981380D02*
X124111428Y-45981380D01*
X124111428Y-44981380D01*
X124587619Y-44981380D01*
X125016190Y-45981380D02*
X125016190Y-45314714D01*
X125016190Y-45505190D02*
X125063809Y-45409952D01*
X125111428Y-45362333D01*
X125206666Y-45314714D01*
X125301904Y-45314714D01*
X125635238Y-45981380D02*
X125635238Y-45314714D01*
X125635238Y-44981380D02*
X125587619Y-45029000D01*
X125635238Y-45076619D01*
X125682857Y-45029000D01*
X125635238Y-44981380D01*
X125635238Y-45076619D01*
X126540000Y-45933761D02*
X126444761Y-45981380D01*
X126254285Y-45981380D01*
X126159047Y-45933761D01*
X126111428Y-45886142D01*
X126063809Y-45790904D01*
X126063809Y-45505190D01*
X126111428Y-45409952D01*
X126159047Y-45362333D01*
X126254285Y-45314714D01*
X126444761Y-45314714D01*
X126540000Y-45362333D01*
X127730476Y-45981380D02*
X127730476Y-44981380D01*
X127968571Y-44981380D01*
X128111428Y-45029000D01*
X128206666Y-45124238D01*
X128254285Y-45219476D01*
X128301904Y-45409952D01*
X128301904Y-45552809D01*
X128254285Y-45743285D01*
X128206666Y-45838523D01*
X128111428Y-45933761D01*
X127968571Y-45981380D01*
X127730476Y-45981380D01*
X129159047Y-45981380D02*
X129159047Y-45457571D01*
X129111428Y-45362333D01*
X129016190Y-45314714D01*
X128825714Y-45314714D01*
X128730476Y-45362333D01*
X129159047Y-45933761D02*
X129063809Y-45981380D01*
X128825714Y-45981380D01*
X128730476Y-45933761D01*
X128682857Y-45838523D01*
X128682857Y-45743285D01*
X128730476Y-45648047D01*
X128825714Y-45600428D01*
X129063809Y-45600428D01*
X129159047Y-45552809D01*
X129587619Y-45933761D02*
X129682857Y-45981380D01*
X129873333Y-45981380D01*
X129968571Y-45933761D01*
X130016190Y-45838523D01*
X130016190Y-45790904D01*
X129968571Y-45695666D01*
X129873333Y-45648047D01*
X129730476Y-45648047D01*
X129635238Y-45600428D01*
X129587619Y-45505190D01*
X129587619Y-45457571D01*
X129635238Y-45362333D01*
X129730476Y-45314714D01*
X129873333Y-45314714D01*
X129968571Y-45362333D01*
X130444761Y-45981380D02*
X130444761Y-45314714D01*
X130444761Y-45409952D02*
X130492380Y-45362333D01*
X130587619Y-45314714D01*
X130730476Y-45314714D01*
X130825714Y-45362333D01*
X130873333Y-45457571D01*
X130873333Y-45981380D01*
X130873333Y-45457571D02*
X130920952Y-45362333D01*
X131016190Y-45314714D01*
X131159047Y-45314714D01*
X131254285Y-45362333D01*
X131301904Y-45457571D01*
X131301904Y-45981380D01*
X132206666Y-45981380D02*
X132206666Y-45457571D01*
X132159047Y-45362333D01*
X132063809Y-45314714D01*
X131873333Y-45314714D01*
X131778095Y-45362333D01*
X132206666Y-45933761D02*
X132111428Y-45981380D01*
X131873333Y-45981380D01*
X131778095Y-45933761D01*
X131730476Y-45838523D01*
X131730476Y-45743285D01*
X131778095Y-45648047D01*
X131873333Y-45600428D01*
X132111428Y-45600428D01*
X132206666Y-45552809D01*
X132825714Y-45981380D02*
X132730476Y-45933761D01*
X132682857Y-45838523D01*
X132682857Y-44981380D01*
X133635238Y-45933761D02*
X133540000Y-45981380D01*
X133349523Y-45981380D01*
X133254285Y-45933761D01*
X133206666Y-45886142D01*
X133159047Y-45790904D01*
X133159047Y-45505190D01*
X133206666Y-45409952D01*
X133254285Y-45362333D01*
X133349523Y-45314714D01*
X133540000Y-45314714D01*
X133635238Y-45362333D01*
X134063809Y-45981380D02*
X134063809Y-44981380D01*
X134492380Y-45981380D02*
X134492380Y-45457571D01*
X134444761Y-45362333D01*
X134349523Y-45314714D01*
X134206666Y-45314714D01*
X134111428Y-45362333D01*
X134063809Y-45409952D01*
X134968571Y-45981380D02*
X134968571Y-45314714D01*
X134968571Y-44981380D02*
X134920952Y-45029000D01*
X134968571Y-45076619D01*
X135016190Y-45029000D01*
X134968571Y-44981380D01*
X134968571Y-45076619D01*
X142025714Y-48037523D02*
X143025714Y-48037523D01*
X142073333Y-48037523D02*
X142025714Y-47942285D01*
X142025714Y-47751809D01*
X142073333Y-47656571D01*
X142120952Y-47608952D01*
X142216190Y-47561333D01*
X142501904Y-47561333D01*
X142597142Y-47608952D01*
X142644761Y-47656571D01*
X142692380Y-47751809D01*
X142692380Y-47942285D01*
X142644761Y-48037523D01*
X142644761Y-46751809D02*
X142692380Y-46847047D01*
X142692380Y-47037523D01*
X142644761Y-47132761D01*
X142549523Y-47180380D01*
X142168571Y-47180380D01*
X142073333Y-47132761D01*
X142025714Y-47037523D01*
X142025714Y-46847047D01*
X142073333Y-46751809D01*
X142168571Y-46704190D01*
X142263809Y-46704190D01*
X142359047Y-47180380D01*
X142692380Y-45847047D02*
X141692380Y-45847047D01*
X142644761Y-45847047D02*
X142692380Y-45942285D01*
X142692380Y-46132761D01*
X142644761Y-46228000D01*
X142597142Y-46275619D01*
X142501904Y-46323238D01*
X142216190Y-46323238D01*
X142120952Y-46275619D01*
X142073333Y-46228000D01*
X142025714Y-46132761D01*
X142025714Y-45942285D01*
X142073333Y-45847047D01*
X142692380Y-44942285D02*
X142168571Y-44942285D01*
X142073333Y-44989904D01*
X142025714Y-45085142D01*
X142025714Y-45275619D01*
X142073333Y-45370857D01*
X142644761Y-44942285D02*
X142692380Y-45037523D01*
X142692380Y-45275619D01*
X142644761Y-45370857D01*
X142549523Y-45418476D01*
X142454285Y-45418476D01*
X142359047Y-45370857D01*
X142311428Y-45275619D01*
X142311428Y-45037523D01*
X142263809Y-44942285D01*
X142692380Y-44323238D02*
X142644761Y-44418476D01*
X142549523Y-44466095D01*
X141692380Y-44466095D01*
X132532380Y-50736380D02*
X131532380Y-50736380D01*
X131913333Y-50736380D02*
X131865714Y-50641142D01*
X131865714Y-50450666D01*
X131913333Y-50355428D01*
X131960952Y-50307809D01*
X132056190Y-50260190D01*
X132341904Y-50260190D01*
X132437142Y-50307809D01*
X132484761Y-50355428D01*
X132532380Y-50450666D01*
X132532380Y-50641142D01*
X132484761Y-50736380D01*
X131865714Y-49974476D02*
X131865714Y-49593523D01*
X131532380Y-49831619D02*
X132389523Y-49831619D01*
X132484761Y-49784000D01*
X132532380Y-49688761D01*
X132532380Y-49593523D01*
X131865714Y-49260190D02*
X132532380Y-49260190D01*
X131960952Y-49260190D02*
X131913333Y-49212571D01*
X131865714Y-49117333D01*
X131865714Y-48974476D01*
X131913333Y-48879238D01*
X132008571Y-48831619D01*
X132532380Y-48831619D01*
X129484380Y-50545904D02*
X129436761Y-50641142D01*
X129341523Y-50688761D01*
X128484380Y-50688761D01*
X129436761Y-49784000D02*
X129484380Y-49879238D01*
X129484380Y-50069714D01*
X129436761Y-50164952D01*
X129341523Y-50212571D01*
X128960571Y-50212571D01*
X128865333Y-50164952D01*
X128817714Y-50069714D01*
X128817714Y-49879238D01*
X128865333Y-49784000D01*
X128960571Y-49736380D01*
X129055809Y-49736380D01*
X129151047Y-50212571D01*
X129484380Y-48879238D02*
X128484380Y-48879238D01*
X129436761Y-48879238D02*
X129484380Y-48974476D01*
X129484380Y-49164952D01*
X129436761Y-49260190D01*
X129389142Y-49307809D01*
X129293904Y-49355428D01*
X129008190Y-49355428D01*
X128912952Y-49307809D01*
X128865333Y-49260190D01*
X128817714Y-49164952D01*
X128817714Y-48974476D01*
X128865333Y-48879238D01*
X147391428Y-47974095D02*
X147391428Y-47212190D01*
X147772380Y-47593142D02*
X147010476Y-47593142D01*
X146772380Y-46259809D02*
X146772380Y-46736000D01*
X147248571Y-46783619D01*
X147200952Y-46736000D01*
X147153333Y-46640761D01*
X147153333Y-46402666D01*
X147200952Y-46307428D01*
X147248571Y-46259809D01*
X147343809Y-46212190D01*
X147581904Y-46212190D01*
X147677142Y-46259809D01*
X147724761Y-46307428D01*
X147772380Y-46402666D01*
X147772380Y-46640761D01*
X147724761Y-46736000D01*
X147677142Y-46783619D01*
X147105714Y-45878857D02*
X147772380Y-45640761D01*
X147105714Y-45402666D01*
X154503428Y-48990095D02*
X154503428Y-48228190D01*
X154884380Y-48609142D02*
X154122476Y-48609142D01*
X153884380Y-47275809D02*
X153884380Y-47752000D01*
X154360571Y-47799619D01*
X154312952Y-47752000D01*
X154265333Y-47656761D01*
X154265333Y-47418666D01*
X154312952Y-47323428D01*
X154360571Y-47275809D01*
X154455809Y-47228190D01*
X154693904Y-47228190D01*
X154789142Y-47275809D01*
X154836761Y-47323428D01*
X154884380Y-47418666D01*
X154884380Y-47656761D01*
X154836761Y-47752000D01*
X154789142Y-47799619D01*
X154217714Y-46894857D02*
X154884380Y-46656761D01*
X154217714Y-46418666D01*
X157424380Y-48680571D02*
X156424380Y-48680571D01*
X156805333Y-48680571D02*
X156757714Y-48585333D01*
X156757714Y-48394857D01*
X156805333Y-48299619D01*
X156852952Y-48252000D01*
X156948190Y-48204380D01*
X157233904Y-48204380D01*
X157329142Y-48252000D01*
X157376761Y-48299619D01*
X157424380Y-48394857D01*
X157424380Y-48585333D01*
X157376761Y-48680571D01*
X157424380Y-47775809D02*
X156757714Y-47775809D01*
X156948190Y-47775809D02*
X156852952Y-47728190D01*
X156805333Y-47680571D01*
X156757714Y-47585333D01*
X156757714Y-47490095D01*
X157424380Y-47156761D02*
X156424380Y-47156761D01*
X157043428Y-47061523D02*
X157424380Y-46775809D01*
X156757714Y-46775809D02*
X157138666Y-47156761D01*
X144565714Y-47426476D02*
X145375238Y-47426476D01*
X145470476Y-47474095D01*
X145518095Y-47521714D01*
X145565714Y-47616952D01*
X145565714Y-47759809D01*
X145518095Y-47855047D01*
X145184761Y-47426476D02*
X145232380Y-47521714D01*
X145232380Y-47712190D01*
X145184761Y-47807428D01*
X145137142Y-47855047D01*
X145041904Y-47902666D01*
X144756190Y-47902666D01*
X144660952Y-47855047D01*
X144613333Y-47807428D01*
X144565714Y-47712190D01*
X144565714Y-47521714D01*
X144613333Y-47426476D01*
X144565714Y-46950285D02*
X145232380Y-46950285D01*
X144660952Y-46950285D02*
X144613333Y-46902666D01*
X144565714Y-46807428D01*
X144565714Y-46664571D01*
X144613333Y-46569333D01*
X144708571Y-46521714D01*
X145232380Y-46521714D01*
X145232380Y-45616952D02*
X144232380Y-45616952D01*
X145184761Y-45616952D02*
X145232380Y-45712190D01*
X145232380Y-45902666D01*
X145184761Y-45997904D01*
X145137142Y-46045523D01*
X145041904Y-46093142D01*
X144756190Y-46093142D01*
X144660952Y-46045523D01*
X144613333Y-45997904D01*
X144565714Y-45902666D01*
X144565714Y-45712190D01*
X144613333Y-45616952D01*
X134405714Y-50474476D02*
X135215238Y-50474476D01*
X135310476Y-50522095D01*
X135358095Y-50569714D01*
X135405714Y-50664952D01*
X135405714Y-50807809D01*
X135358095Y-50903047D01*
X135024761Y-50474476D02*
X135072380Y-50569714D01*
X135072380Y-50760190D01*
X135024761Y-50855428D01*
X134977142Y-50903047D01*
X134881904Y-50950666D01*
X134596190Y-50950666D01*
X134500952Y-50903047D01*
X134453333Y-50855428D01*
X134405714Y-50760190D01*
X134405714Y-50569714D01*
X134453333Y-50474476D01*
X134405714Y-49998285D02*
X135072380Y-49998285D01*
X134500952Y-49998285D02*
X134453333Y-49950666D01*
X134405714Y-49855428D01*
X134405714Y-49712571D01*
X134453333Y-49617333D01*
X134548571Y-49569714D01*
X135072380Y-49569714D01*
X135072380Y-48664952D02*
X134072380Y-48664952D01*
X135024761Y-48664952D02*
X135072380Y-48760190D01*
X135072380Y-48950666D01*
X135024761Y-49045904D01*
X134977142Y-49093523D01*
X134881904Y-49141142D01*
X134596190Y-49141142D01*
X134500952Y-49093523D01*
X134453333Y-49045904D01*
X134405714Y-48950666D01*
X134405714Y-48760190D01*
X134453333Y-48664952D01*
X121705714Y-50982476D02*
X122515238Y-50982476D01*
X122610476Y-51030095D01*
X122658095Y-51077714D01*
X122705714Y-51172952D01*
X122705714Y-51315809D01*
X122658095Y-51411047D01*
X122324761Y-50982476D02*
X122372380Y-51077714D01*
X122372380Y-51268190D01*
X122324761Y-51363428D01*
X122277142Y-51411047D01*
X122181904Y-51458666D01*
X121896190Y-51458666D01*
X121800952Y-51411047D01*
X121753333Y-51363428D01*
X121705714Y-51268190D01*
X121705714Y-51077714D01*
X121753333Y-50982476D01*
X121705714Y-50506285D02*
X122372380Y-50506285D01*
X121800952Y-50506285D02*
X121753333Y-50458666D01*
X121705714Y-50363428D01*
X121705714Y-50220571D01*
X121753333Y-50125333D01*
X121848571Y-50077714D01*
X122372380Y-50077714D01*
X122372380Y-49172952D02*
X121372380Y-49172952D01*
X122324761Y-49172952D02*
X122372380Y-49268190D01*
X122372380Y-49458666D01*
X122324761Y-49553904D01*
X122277142Y-49601523D01*
X122181904Y-49649142D01*
X121896190Y-49649142D01*
X121800952Y-49601523D01*
X121753333Y-49553904D01*
X121705714Y-49458666D01*
X121705714Y-49268190D01*
X121753333Y-49172952D01*
X119832380Y-49553523D02*
X118832380Y-49553523D01*
X119213333Y-49553523D02*
X119165714Y-49458285D01*
X119165714Y-49267809D01*
X119213333Y-49172571D01*
X119260952Y-49124952D01*
X119356190Y-49077333D01*
X119641904Y-49077333D01*
X119737142Y-49124952D01*
X119784761Y-49172571D01*
X119832380Y-49267809D01*
X119832380Y-49458285D01*
X119784761Y-49553523D01*
X119832380Y-48220190D02*
X119308571Y-48220190D01*
X119213333Y-48267809D01*
X119165714Y-48363047D01*
X119165714Y-48553523D01*
X119213333Y-48648761D01*
X119784761Y-48220190D02*
X119832380Y-48315428D01*
X119832380Y-48553523D01*
X119784761Y-48648761D01*
X119689523Y-48696380D01*
X119594285Y-48696380D01*
X119499047Y-48648761D01*
X119451428Y-48553523D01*
X119451428Y-48315428D01*
X119403809Y-48220190D01*
X119165714Y-47886857D02*
X119165714Y-47505904D01*
X118832380Y-47744000D02*
X119689523Y-47744000D01*
X119784761Y-47696380D01*
X119832380Y-47601142D01*
X119832380Y-47505904D01*
X119165714Y-47315428D02*
X119165714Y-46934476D01*
X118832380Y-47172571D02*
X119689523Y-47172571D01*
X119784761Y-47124952D01*
X119832380Y-47029714D01*
X119832380Y-46934476D01*
X119927619Y-46839238D02*
X119927619Y-46077333D01*
X119832380Y-45839238D02*
X119165714Y-45839238D01*
X118832380Y-45839238D02*
X118880000Y-45886857D01*
X118927619Y-45839238D01*
X118880000Y-45791619D01*
X118832380Y-45839238D01*
X118927619Y-45839238D01*
X119165714Y-45363047D02*
X119832380Y-45363047D01*
X119260952Y-45363047D02*
X119213333Y-45315428D01*
X119165714Y-45220190D01*
X119165714Y-45077333D01*
X119213333Y-44982095D01*
X119308571Y-44934476D01*
X119832380Y-44934476D01*
X116117714Y-51434666D02*
X116117714Y-51053714D01*
X115784380Y-51291809D02*
X116641523Y-51291809D01*
X116736761Y-51244190D01*
X116784380Y-51148952D01*
X116784380Y-51053714D01*
X116784380Y-50720380D02*
X115784380Y-50720380D01*
X116784380Y-50291809D02*
X116260571Y-50291809D01*
X116165333Y-50339428D01*
X116117714Y-50434666D01*
X116117714Y-50577523D01*
X116165333Y-50672761D01*
X116212952Y-50720380D01*
X116784380Y-49815619D02*
X116117714Y-49815619D01*
X116308190Y-49815619D02*
X116212952Y-49768000D01*
X116165333Y-49720380D01*
X116117714Y-49625142D01*
X116117714Y-49529904D01*
X116784380Y-49053714D02*
X116736761Y-49148952D01*
X116689142Y-49196571D01*
X116593904Y-49244190D01*
X116308190Y-49244190D01*
X116212952Y-49196571D01*
X116165333Y-49148952D01*
X116117714Y-49053714D01*
X116117714Y-48910857D01*
X116165333Y-48815619D01*
X116212952Y-48768000D01*
X116308190Y-48720380D01*
X116593904Y-48720380D01*
X116689142Y-48768000D01*
X116736761Y-48815619D01*
X116784380Y-48910857D01*
X116784380Y-49053714D01*
X116117714Y-48434666D02*
X116117714Y-48053714D01*
X115784380Y-48291809D02*
X116641523Y-48291809D01*
X116736761Y-48244190D01*
X116784380Y-48148952D01*
X116784380Y-48053714D01*
X116117714Y-47863238D02*
X116117714Y-47482285D01*
X115784380Y-47720380D02*
X116641523Y-47720380D01*
X116736761Y-47672761D01*
X116784380Y-47577523D01*
X116784380Y-47482285D01*
X116784380Y-47006095D02*
X116736761Y-47101333D01*
X116641523Y-47148952D01*
X115784380Y-47148952D01*
X116736761Y-46244190D02*
X116784380Y-46339428D01*
X116784380Y-46529904D01*
X116736761Y-46625142D01*
X116641523Y-46672761D01*
X116260571Y-46672761D01*
X116165333Y-46625142D01*
X116117714Y-46529904D01*
X116117714Y-46339428D01*
X116165333Y-46244190D01*
X116260571Y-46196571D01*
X116355809Y-46196571D01*
X116451047Y-46672761D01*
X113419380Y-50776000D02*
X112752714Y-50776000D01*
X112943190Y-50776000D02*
X112847952Y-50728380D01*
X112800333Y-50680761D01*
X112752714Y-50585523D01*
X112752714Y-50490285D01*
X112752714Y-49728380D02*
X113562238Y-49728380D01*
X113657476Y-49776000D01*
X113705095Y-49823619D01*
X113752714Y-49918857D01*
X113752714Y-50061714D01*
X113705095Y-50156952D01*
X113371761Y-49728380D02*
X113419380Y-49823619D01*
X113419380Y-50014095D01*
X113371761Y-50109333D01*
X113324142Y-50156952D01*
X113228904Y-50204571D01*
X112943190Y-50204571D01*
X112847952Y-50156952D01*
X112800333Y-50109333D01*
X112752714Y-50014095D01*
X112752714Y-49823619D01*
X112800333Y-49728380D01*
X112752714Y-49252190D02*
X113419380Y-49252190D01*
X112847952Y-49252190D02*
X112800333Y-49204571D01*
X112752714Y-49109333D01*
X112752714Y-48966476D01*
X112800333Y-48871238D01*
X112895571Y-48823619D01*
X113419380Y-48823619D01*
X112371761Y-47633142D02*
X113657476Y-48490285D01*
X115069380Y-51037904D02*
X114402714Y-51037904D01*
X114497952Y-51037904D02*
X114450333Y-50990285D01*
X114402714Y-50895047D01*
X114402714Y-50752190D01*
X114450333Y-50656952D01*
X114545571Y-50609333D01*
X115069380Y-50609333D01*
X114545571Y-50609333D02*
X114450333Y-50561714D01*
X114402714Y-50466476D01*
X114402714Y-50323619D01*
X114450333Y-50228380D01*
X114545571Y-50180761D01*
X115069380Y-50180761D01*
X115069380Y-49561714D02*
X115021761Y-49656952D01*
X114974142Y-49704571D01*
X114878904Y-49752190D01*
X114593190Y-49752190D01*
X114497952Y-49704571D01*
X114450333Y-49656952D01*
X114402714Y-49561714D01*
X114402714Y-49418857D01*
X114450333Y-49323619D01*
X114497952Y-49276000D01*
X114593190Y-49228380D01*
X114878904Y-49228380D01*
X114974142Y-49276000D01*
X115021761Y-49323619D01*
X115069380Y-49418857D01*
X115069380Y-49561714D01*
X115069380Y-48371238D02*
X114069380Y-48371238D01*
X115021761Y-48371238D02*
X115069380Y-48466476D01*
X115069380Y-48656952D01*
X115021761Y-48752190D01*
X114974142Y-48799809D01*
X114878904Y-48847428D01*
X114593190Y-48847428D01*
X114497952Y-48799809D01*
X114450333Y-48752190D01*
X114402714Y-48656952D01*
X114402714Y-48466476D01*
X114450333Y-48371238D01*
X115021761Y-47514095D02*
X115069380Y-47609333D01*
X115069380Y-47799809D01*
X115021761Y-47895047D01*
X114926523Y-47942666D01*
X114545571Y-47942666D01*
X114450333Y-47895047D01*
X114402714Y-47799809D01*
X114402714Y-47609333D01*
X114450333Y-47514095D01*
X114545571Y-47466476D01*
X114640809Y-47466476D01*
X114736047Y-47942666D01*
X129437142Y-56681714D02*
X129437142Y-57681714D01*
X129437142Y-56729333D02*
X129532380Y-56681714D01*
X129722857Y-56681714D01*
X129818095Y-56729333D01*
X129865714Y-56776952D01*
X129913333Y-56872190D01*
X129913333Y-57157904D01*
X129865714Y-57253142D01*
X129818095Y-57300761D01*
X129722857Y-57348380D01*
X129532380Y-57348380D01*
X129437142Y-57300761D01*
X130341904Y-57348380D02*
X130341904Y-56681714D01*
X130341904Y-56872190D02*
X130389523Y-56776952D01*
X130437142Y-56729333D01*
X130532380Y-56681714D01*
X130627619Y-56681714D01*
X131103809Y-57348380D02*
X131008571Y-57300761D01*
X130960952Y-57253142D01*
X130913333Y-57157904D01*
X130913333Y-56872190D01*
X130960952Y-56776952D01*
X131008571Y-56729333D01*
X131103809Y-56681714D01*
X131246666Y-56681714D01*
X131341904Y-56729333D01*
X131389523Y-56776952D01*
X131437142Y-56872190D01*
X131437142Y-57157904D01*
X131389523Y-57253142D01*
X131341904Y-57300761D01*
X131246666Y-57348380D01*
X131103809Y-57348380D01*
X132580000Y-56300761D02*
X131722857Y-57586476D01*
X132865714Y-57300761D02*
X132960952Y-57348380D01*
X133151428Y-57348380D01*
X133246666Y-57300761D01*
X133294285Y-57205523D01*
X133294285Y-57157904D01*
X133246666Y-57062666D01*
X133151428Y-57015047D01*
X133008571Y-57015047D01*
X132913333Y-56967428D01*
X132865714Y-56872190D01*
X132865714Y-56824571D01*
X132913333Y-56729333D01*
X133008571Y-56681714D01*
X133151428Y-56681714D01*
X133246666Y-56729333D01*
X133580000Y-56681714D02*
X133960952Y-56681714D01*
X133722857Y-56348380D02*
X133722857Y-57205523D01*
X133770476Y-57300761D01*
X133865714Y-57348380D01*
X133960952Y-57348380D01*
X134722857Y-57348380D02*
X134722857Y-56348380D01*
X134722857Y-57300761D02*
X134627619Y-57348380D01*
X134437142Y-57348380D01*
X134341904Y-57300761D01*
X134294285Y-57253142D01*
X134246666Y-57157904D01*
X134246666Y-56872190D01*
X134294285Y-56776952D01*
X134341904Y-56729333D01*
X134437142Y-56681714D01*
X134627619Y-56681714D01*
X134722857Y-56729333D01*
D11*
G04 #@! TO.C,J5*
X129480000Y-58360000D02*
X129480000Y-63560000D01*
X132080000Y-58360000D02*
X129480000Y-58360000D01*
X134680000Y-63560000D02*
X129480000Y-63560000D01*
X132080000Y-58360000D02*
X132080000Y-60960000D01*
X132080000Y-60960000D02*
X134680000Y-60960000D01*
X134680000Y-60960000D02*
X134680000Y-63560000D01*
X133350000Y-58360000D02*
X134680000Y-58360000D01*
X134680000Y-58360000D02*
X134680000Y-59690000D01*
G04 #@! TO.C,U1*
X156210000Y-67925000D02*
X158160000Y-67925000D01*
X156210000Y-67925000D02*
X154260000Y-67925000D01*
X156210000Y-57805000D02*
X158160000Y-57805000D01*
X156210000Y-57805000D02*
X152760000Y-57805000D01*
G04 #@! TO.C,R10*
X118507742Y-57037500D02*
X118982258Y-57037500D01*
X118507742Y-55992500D02*
X118982258Y-55992500D01*
G04 #@! TO.C,U8*
X124168000Y-70180000D02*
X126468000Y-70180000D01*
X125768000Y-66980000D02*
X124168000Y-66980000D01*
G04 #@! TO.C,U7*
X124460000Y-83810000D02*
X127910000Y-83810000D01*
X124460000Y-83810000D02*
X122510000Y-83810000D01*
X124460000Y-74940000D02*
X126410000Y-74940000D01*
X124460000Y-74940000D02*
X122510000Y-74940000D01*
G04 #@! TO.C,U6*
X149215000Y-62230000D02*
X149215000Y-58780000D01*
X149215000Y-62230000D02*
X149215000Y-64180000D01*
X140345000Y-62230000D02*
X140345000Y-60280000D01*
X140345000Y-62230000D02*
X140345000Y-64180000D01*
G04 #@! TO.C,U5*
X113770000Y-62175000D02*
X117370000Y-62175000D01*
X117408478Y-62163478D02*
G75*
G03*
X115570000Y-57725000I-1838478J1838478D01*
G01*
X113731522Y-62163478D02*
G75*
G02*
X115570000Y-57725000I1838478J1838478D01*
G01*
G04 #@! TO.C,U4*
X156210000Y-73680000D02*
X152760000Y-73680000D01*
X156210000Y-73680000D02*
X158160000Y-73680000D01*
X156210000Y-83800000D02*
X154260000Y-83800000D01*
X156210000Y-83800000D02*
X158160000Y-83800000D01*
G04 #@! TO.C,U3*
X140355000Y-72390000D02*
X140355000Y-75840000D01*
X140355000Y-72390000D02*
X140355000Y-70440000D01*
X150475000Y-72390000D02*
X150475000Y-74340000D01*
X150475000Y-72390000D02*
X150475000Y-70440000D01*
G04 #@! TO.C,U2*
X133985000Y-83810000D02*
X137435000Y-83810000D01*
X133985000Y-83810000D02*
X132035000Y-83810000D01*
X133985000Y-74940000D02*
X135935000Y-74940000D01*
X133985000Y-74940000D02*
X132035000Y-74940000D01*
G04 #@! TO.C,R9*
X131207742Y-74182500D02*
X131682258Y-74182500D01*
X131207742Y-73137500D02*
X131682258Y-73137500D01*
G04 #@! TO.C,R8*
X117237742Y-83072500D02*
X117712258Y-83072500D01*
X117237742Y-82027500D02*
X117712258Y-82027500D01*
G04 #@! TO.C,R7*
X144542742Y-81167500D02*
X145017258Y-81167500D01*
X144542742Y-80122500D02*
X145017258Y-80122500D01*
G04 #@! TO.C,R6*
X158512742Y-71642500D02*
X158987258Y-71642500D01*
X158512742Y-70597500D02*
X158987258Y-70597500D01*
G04 #@! TO.C,R5*
X148827258Y-80122500D02*
X148352742Y-80122500D01*
X148827258Y-81167500D02*
X148352742Y-81167500D01*
G04 #@! TO.C,R4*
X148827258Y-82662500D02*
X148352742Y-82662500D01*
X148827258Y-83707500D02*
X148352742Y-83707500D01*
G04 #@! TO.C,R3*
X141367742Y-57037500D02*
X141842258Y-57037500D01*
X141367742Y-55992500D02*
X141842258Y-55992500D01*
G04 #@! TO.C,R2*
X153432742Y-71642500D02*
X153907258Y-71642500D01*
X153432742Y-70597500D02*
X153907258Y-70597500D01*
G04 #@! TO.C,R1*
X153432742Y-57037500D02*
X153907258Y-57037500D01*
X153432742Y-55992500D02*
X153907258Y-55992500D01*
G04 #@! TO.C,J4*
X158175000Y-52010000D02*
X158175000Y-53340000D01*
X156845000Y-52010000D02*
X158175000Y-52010000D01*
X155575000Y-52010000D02*
X155575000Y-54670000D01*
X155575000Y-54670000D02*
X152975000Y-54670000D01*
X155575000Y-52010000D02*
X152975000Y-52010000D01*
X152975000Y-52010000D02*
X152975000Y-54670000D01*
G04 #@! TO.C,J3*
X148650000Y-52010000D02*
X148650000Y-53340000D01*
X147320000Y-52010000D02*
X148650000Y-52010000D01*
X146050000Y-52010000D02*
X146050000Y-54670000D01*
X146050000Y-54670000D02*
X140910000Y-54670000D01*
X146050000Y-52010000D02*
X140910000Y-52010000D01*
X140910000Y-52010000D02*
X140910000Y-54670000D01*
G04 #@! TO.C,J2*
X123250000Y-52010000D02*
X123250000Y-53340000D01*
X121920000Y-52010000D02*
X123250000Y-52010000D01*
X120650000Y-52010000D02*
X120650000Y-54670000D01*
X120650000Y-54670000D02*
X112970000Y-54670000D01*
X120650000Y-52010000D02*
X112970000Y-52010000D01*
X112970000Y-52010000D02*
X112970000Y-54670000D01*
G04 #@! TO.C,J1*
X135950000Y-52010000D02*
X135950000Y-53340000D01*
X134620000Y-52010000D02*
X135950000Y-52010000D01*
X133350000Y-52010000D02*
X133350000Y-54670000D01*
X133350000Y-54670000D02*
X128210000Y-54670000D01*
X133350000Y-52010000D02*
X128210000Y-52010000D01*
X128210000Y-52010000D02*
X128210000Y-54670000D01*
G04 #@! TO.C,C13*
X144639420Y-79250000D02*
X144920580Y-79250000D01*
X144639420Y-78230000D02*
X144920580Y-78230000D01*
G04 #@! TO.C,C12*
X151005000Y-56020580D02*
X151005000Y-55739420D01*
X149985000Y-56020580D02*
X149985000Y-55739420D01*
G04 #@! TO.C,C11*
X131585580Y-69975000D02*
X131304420Y-69975000D01*
X131585580Y-70995000D02*
X131304420Y-70995000D01*
G04 #@! TO.C,C10*
X117615580Y-77595000D02*
X117334420Y-77595000D01*
X117615580Y-78615000D02*
X117334420Y-78615000D01*
G04 #@! TO.C,C9*
X119984759Y-58171000D02*
X119984759Y-58801000D01*
X119669759Y-58486000D02*
X120299759Y-58486000D01*
X126411000Y-59923000D02*
X126411000Y-60727000D01*
X126371000Y-59692000D02*
X126371000Y-60958000D01*
X126331000Y-59523000D02*
X126331000Y-61127000D01*
X126291000Y-59385000D02*
X126291000Y-61265000D01*
X126251000Y-59266000D02*
X126251000Y-61384000D01*
X126211000Y-59160000D02*
X126211000Y-61490000D01*
X126171000Y-59063000D02*
X126171000Y-61587000D01*
X126131000Y-58975000D02*
X126131000Y-61675000D01*
X126091000Y-58893000D02*
X126091000Y-61757000D01*
X126051000Y-58816000D02*
X126051000Y-61834000D01*
X126011000Y-58744000D02*
X126011000Y-61906000D01*
X125971000Y-58675000D02*
X125971000Y-61975000D01*
X125931000Y-58611000D02*
X125931000Y-62039000D01*
X125891000Y-58549000D02*
X125891000Y-62101000D01*
X125851000Y-58491000D02*
X125851000Y-62159000D01*
X125811000Y-58435000D02*
X125811000Y-62215000D01*
X125771000Y-58381000D02*
X125771000Y-62269000D01*
X125731000Y-58330000D02*
X125731000Y-62320000D01*
X125691000Y-58281000D02*
X125691000Y-62369000D01*
X125651000Y-58233000D02*
X125651000Y-62417000D01*
X125611000Y-58188000D02*
X125611000Y-62462000D01*
X125571000Y-58143000D02*
X125571000Y-62507000D01*
X125531000Y-58101000D02*
X125531000Y-62549000D01*
X125491000Y-58060000D02*
X125491000Y-62590000D01*
X125451000Y-61365000D02*
X125451000Y-62630000D01*
X125451000Y-58020000D02*
X125451000Y-59285000D01*
X125411000Y-61365000D02*
X125411000Y-62668000D01*
X125411000Y-57982000D02*
X125411000Y-59285000D01*
X125371000Y-61365000D02*
X125371000Y-62705000D01*
X125371000Y-57945000D02*
X125371000Y-59285000D01*
X125331000Y-61365000D02*
X125331000Y-62741000D01*
X125331000Y-57909000D02*
X125331000Y-59285000D01*
X125291000Y-61365000D02*
X125291000Y-62775000D01*
X125291000Y-57875000D02*
X125291000Y-59285000D01*
X125251000Y-61365000D02*
X125251000Y-62809000D01*
X125251000Y-57841000D02*
X125251000Y-59285000D01*
X125211000Y-61365000D02*
X125211000Y-62841000D01*
X125211000Y-57809000D02*
X125211000Y-59285000D01*
X125171000Y-61365000D02*
X125171000Y-62873000D01*
X125171000Y-57777000D02*
X125171000Y-59285000D01*
X125131000Y-61365000D02*
X125131000Y-62903000D01*
X125131000Y-57747000D02*
X125131000Y-59285000D01*
X125091000Y-61365000D02*
X125091000Y-62932000D01*
X125091000Y-57718000D02*
X125091000Y-59285000D01*
X125051000Y-61365000D02*
X125051000Y-62961000D01*
X125051000Y-57689000D02*
X125051000Y-59285000D01*
X125011000Y-61365000D02*
X125011000Y-62989000D01*
X125011000Y-57661000D02*
X125011000Y-59285000D01*
X124971000Y-61365000D02*
X124971000Y-63015000D01*
X124971000Y-57635000D02*
X124971000Y-59285000D01*
X124931000Y-61365000D02*
X124931000Y-63041000D01*
X124931000Y-57609000D02*
X124931000Y-59285000D01*
X124891000Y-61365000D02*
X124891000Y-63067000D01*
X124891000Y-57583000D02*
X124891000Y-59285000D01*
X124851000Y-61365000D02*
X124851000Y-63091000D01*
X124851000Y-57559000D02*
X124851000Y-59285000D01*
X124811000Y-61365000D02*
X124811000Y-63115000D01*
X124811000Y-57535000D02*
X124811000Y-59285000D01*
X124771000Y-61365000D02*
X124771000Y-63137000D01*
X124771000Y-57513000D02*
X124771000Y-59285000D01*
X124731000Y-61365000D02*
X124731000Y-63159000D01*
X124731000Y-57491000D02*
X124731000Y-59285000D01*
X124691000Y-61365000D02*
X124691000Y-63181000D01*
X124691000Y-57469000D02*
X124691000Y-59285000D01*
X124651000Y-61365000D02*
X124651000Y-63201000D01*
X124651000Y-57449000D02*
X124651000Y-59285000D01*
X124611000Y-61365000D02*
X124611000Y-63221000D01*
X124611000Y-57429000D02*
X124611000Y-59285000D01*
X124571000Y-61365000D02*
X124571000Y-63241000D01*
X124571000Y-57409000D02*
X124571000Y-59285000D01*
X124531000Y-61365000D02*
X124531000Y-63259000D01*
X124531000Y-57391000D02*
X124531000Y-59285000D01*
X124491000Y-61365000D02*
X124491000Y-63277000D01*
X124491000Y-57373000D02*
X124491000Y-59285000D01*
X124451000Y-61365000D02*
X124451000Y-63295000D01*
X124451000Y-57355000D02*
X124451000Y-59285000D01*
X124411000Y-61365000D02*
X124411000Y-63311000D01*
X124411000Y-57339000D02*
X124411000Y-59285000D01*
X124371000Y-61365000D02*
X124371000Y-63327000D01*
X124371000Y-57323000D02*
X124371000Y-59285000D01*
X124331000Y-61365000D02*
X124331000Y-63343000D01*
X124331000Y-57307000D02*
X124331000Y-59285000D01*
X124291000Y-61365000D02*
X124291000Y-63358000D01*
X124291000Y-57292000D02*
X124291000Y-59285000D01*
X124251000Y-61365000D02*
X124251000Y-63372000D01*
X124251000Y-57278000D02*
X124251000Y-59285000D01*
X124211000Y-61365000D02*
X124211000Y-63386000D01*
X124211000Y-57264000D02*
X124211000Y-59285000D01*
X124171000Y-61365000D02*
X124171000Y-63399000D01*
X124171000Y-57251000D02*
X124171000Y-59285000D01*
X124131000Y-61365000D02*
X124131000Y-63411000D01*
X124131000Y-57239000D02*
X124131000Y-59285000D01*
X124091000Y-61365000D02*
X124091000Y-63423000D01*
X124091000Y-57227000D02*
X124091000Y-59285000D01*
X124051000Y-61365000D02*
X124051000Y-63435000D01*
X124051000Y-57215000D02*
X124051000Y-59285000D01*
X124011000Y-61365000D02*
X124011000Y-63446000D01*
X124011000Y-57204000D02*
X124011000Y-59285000D01*
X123971000Y-61365000D02*
X123971000Y-63456000D01*
X123971000Y-57194000D02*
X123971000Y-59285000D01*
X123931000Y-61365000D02*
X123931000Y-63466000D01*
X123931000Y-57184000D02*
X123931000Y-59285000D01*
X123891000Y-61365000D02*
X123891000Y-63475000D01*
X123891000Y-57175000D02*
X123891000Y-59285000D01*
X123850000Y-61365000D02*
X123850000Y-63484000D01*
X123850000Y-57166000D02*
X123850000Y-59285000D01*
X123810000Y-61365000D02*
X123810000Y-63492000D01*
X123810000Y-57158000D02*
X123810000Y-59285000D01*
X123770000Y-61365000D02*
X123770000Y-63500000D01*
X123770000Y-57150000D02*
X123770000Y-59285000D01*
X123730000Y-61365000D02*
X123730000Y-63507000D01*
X123730000Y-57143000D02*
X123730000Y-59285000D01*
X123690000Y-61365000D02*
X123690000Y-63514000D01*
X123690000Y-57136000D02*
X123690000Y-59285000D01*
X123650000Y-61365000D02*
X123650000Y-63520000D01*
X123650000Y-57130000D02*
X123650000Y-59285000D01*
X123610000Y-61365000D02*
X123610000Y-63526000D01*
X123610000Y-57124000D02*
X123610000Y-59285000D01*
X123570000Y-61365000D02*
X123570000Y-63531000D01*
X123570000Y-57119000D02*
X123570000Y-59285000D01*
X123530000Y-61365000D02*
X123530000Y-63536000D01*
X123530000Y-57114000D02*
X123530000Y-59285000D01*
X123490000Y-61365000D02*
X123490000Y-63540000D01*
X123490000Y-57110000D02*
X123490000Y-59285000D01*
X123450000Y-61365000D02*
X123450000Y-63543000D01*
X123450000Y-57107000D02*
X123450000Y-59285000D01*
X123410000Y-61365000D02*
X123410000Y-63547000D01*
X123410000Y-57103000D02*
X123410000Y-59285000D01*
X123370000Y-57101000D02*
X123370000Y-63549000D01*
X123330000Y-57098000D02*
X123330000Y-63552000D01*
X123290000Y-57097000D02*
X123290000Y-63553000D01*
X123250000Y-57095000D02*
X123250000Y-63555000D01*
X123210000Y-57095000D02*
X123210000Y-63555000D01*
X123170000Y-57095000D02*
X123170000Y-63555000D01*
X126440000Y-60325000D02*
G75*
G03*
X126440000Y-60325000I-3270000J0D01*
G01*
G04 #@! TO.C,C8*
X112455354Y-67110000D02*
X112455354Y-68110000D01*
X111955354Y-67610000D02*
X112955354Y-67610000D01*
X122516000Y-69886000D02*
X122516000Y-71084000D01*
X122476000Y-69623000D02*
X122476000Y-71347000D01*
X122436000Y-69423000D02*
X122436000Y-71547000D01*
X122396000Y-69255000D02*
X122396000Y-71715000D01*
X122356000Y-69107000D02*
X122356000Y-71863000D01*
X122316000Y-68975000D02*
X122316000Y-71995000D01*
X122276000Y-68855000D02*
X122276000Y-72115000D01*
X122236000Y-68743000D02*
X122236000Y-72227000D01*
X122196000Y-68639000D02*
X122196000Y-72331000D01*
X122156000Y-68541000D02*
X122156000Y-72429000D01*
X122116000Y-68448000D02*
X122116000Y-72522000D01*
X122076000Y-68360000D02*
X122076000Y-72610000D01*
X122036000Y-68276000D02*
X122036000Y-72694000D01*
X121996000Y-68196000D02*
X121996000Y-72774000D01*
X121956000Y-68120000D02*
X121956000Y-72850000D01*
X121916000Y-68046000D02*
X121916000Y-72924000D01*
X121876000Y-67975000D02*
X121876000Y-72995000D01*
X121836000Y-67906000D02*
X121836000Y-73064000D01*
X121796000Y-67840000D02*
X121796000Y-73130000D01*
X121756000Y-67776000D02*
X121756000Y-73194000D01*
X121716000Y-67715000D02*
X121716000Y-73255000D01*
X121676000Y-67655000D02*
X121676000Y-73315000D01*
X121636000Y-67596000D02*
X121636000Y-73374000D01*
X121596000Y-67540000D02*
X121596000Y-73430000D01*
X121556000Y-67485000D02*
X121556000Y-73485000D01*
X121516000Y-67431000D02*
X121516000Y-73539000D01*
X121476000Y-67379000D02*
X121476000Y-73591000D01*
X121436000Y-67329000D02*
X121436000Y-73641000D01*
X121396000Y-67279000D02*
X121396000Y-73691000D01*
X121356000Y-67231000D02*
X121356000Y-73739000D01*
X121316000Y-67184000D02*
X121316000Y-73786000D01*
X121276000Y-67138000D02*
X121276000Y-73832000D01*
X121236000Y-67093000D02*
X121236000Y-73877000D01*
X121196000Y-67049000D02*
X121196000Y-73921000D01*
X121156000Y-71726000D02*
X121156000Y-73963000D01*
X121156000Y-67007000D02*
X121156000Y-69244000D01*
X121116000Y-71726000D02*
X121116000Y-74005000D01*
X121116000Y-66965000D02*
X121116000Y-69244000D01*
X121076000Y-71726000D02*
X121076000Y-74046000D01*
X121076000Y-66924000D02*
X121076000Y-69244000D01*
X121036000Y-71726000D02*
X121036000Y-74086000D01*
X121036000Y-66884000D02*
X121036000Y-69244000D01*
X120996000Y-71726000D02*
X120996000Y-74125000D01*
X120996000Y-66845000D02*
X120996000Y-69244000D01*
X120956000Y-71726000D02*
X120956000Y-74164000D01*
X120956000Y-66806000D02*
X120956000Y-69244000D01*
X120916000Y-71726000D02*
X120916000Y-74201000D01*
X120916000Y-66769000D02*
X120916000Y-69244000D01*
X120876000Y-71726000D02*
X120876000Y-74238000D01*
X120876000Y-66732000D02*
X120876000Y-69244000D01*
X120836000Y-71726000D02*
X120836000Y-74274000D01*
X120836000Y-66696000D02*
X120836000Y-69244000D01*
X120796000Y-71726000D02*
X120796000Y-74309000D01*
X120796000Y-66661000D02*
X120796000Y-69244000D01*
X120756000Y-71726000D02*
X120756000Y-74343000D01*
X120756000Y-66627000D02*
X120756000Y-69244000D01*
X120716000Y-71726000D02*
X120716000Y-74377000D01*
X120716000Y-66593000D02*
X120716000Y-69244000D01*
X120676000Y-71726000D02*
X120676000Y-74410000D01*
X120676000Y-66560000D02*
X120676000Y-69244000D01*
X120636000Y-71726000D02*
X120636000Y-74442000D01*
X120636000Y-66528000D02*
X120636000Y-69244000D01*
X120596000Y-71726000D02*
X120596000Y-74474000D01*
X120596000Y-66496000D02*
X120596000Y-69244000D01*
X120556000Y-71726000D02*
X120556000Y-74505000D01*
X120556000Y-66465000D02*
X120556000Y-69244000D01*
X120516000Y-71726000D02*
X120516000Y-74535000D01*
X120516000Y-66435000D02*
X120516000Y-69244000D01*
X120476000Y-71726000D02*
X120476000Y-74565000D01*
X120476000Y-66405000D02*
X120476000Y-69244000D01*
X120436000Y-71726000D02*
X120436000Y-74595000D01*
X120436000Y-66375000D02*
X120436000Y-69244000D01*
X120396000Y-71726000D02*
X120396000Y-74623000D01*
X120396000Y-66347000D02*
X120396000Y-69244000D01*
X120356000Y-71726000D02*
X120356000Y-74651000D01*
X120356000Y-66319000D02*
X120356000Y-69244000D01*
X120316000Y-71726000D02*
X120316000Y-74679000D01*
X120316000Y-66291000D02*
X120316000Y-69244000D01*
X120276000Y-71726000D02*
X120276000Y-74706000D01*
X120276000Y-66264000D02*
X120276000Y-69244000D01*
X120236000Y-71726000D02*
X120236000Y-74732000D01*
X120236000Y-66238000D02*
X120236000Y-69244000D01*
X120196000Y-71726000D02*
X120196000Y-74758000D01*
X120196000Y-66212000D02*
X120196000Y-69244000D01*
X120156000Y-71726000D02*
X120156000Y-74783000D01*
X120156000Y-66187000D02*
X120156000Y-69244000D01*
X120116000Y-71726000D02*
X120116000Y-74808000D01*
X120116000Y-66162000D02*
X120116000Y-69244000D01*
X120076000Y-71726000D02*
X120076000Y-74832000D01*
X120076000Y-66138000D02*
X120076000Y-69244000D01*
X120036000Y-71726000D02*
X120036000Y-74856000D01*
X120036000Y-66114000D02*
X120036000Y-69244000D01*
X119996000Y-71726000D02*
X119996000Y-74880000D01*
X119996000Y-66090000D02*
X119996000Y-69244000D01*
X119956000Y-71726000D02*
X119956000Y-74902000D01*
X119956000Y-66068000D02*
X119956000Y-69244000D01*
X119916000Y-71726000D02*
X119916000Y-74925000D01*
X119916000Y-66045000D02*
X119916000Y-69244000D01*
X119876000Y-71726000D02*
X119876000Y-74947000D01*
X119876000Y-66023000D02*
X119876000Y-69244000D01*
X119836000Y-71726000D02*
X119836000Y-74968000D01*
X119836000Y-66002000D02*
X119836000Y-69244000D01*
X119796000Y-71726000D02*
X119796000Y-74989000D01*
X119796000Y-65981000D02*
X119796000Y-69244000D01*
X119756000Y-71726000D02*
X119756000Y-75010000D01*
X119756000Y-65960000D02*
X119756000Y-69244000D01*
X119716000Y-71726000D02*
X119716000Y-75030000D01*
X119716000Y-65940000D02*
X119716000Y-69244000D01*
X119676000Y-71726000D02*
X119676000Y-75049000D01*
X119676000Y-65921000D02*
X119676000Y-69244000D01*
X119636000Y-71726000D02*
X119636000Y-75069000D01*
X119636000Y-65901000D02*
X119636000Y-69244000D01*
X119596000Y-71726000D02*
X119596000Y-75088000D01*
X119596000Y-65882000D02*
X119596000Y-69244000D01*
X119556000Y-71726000D02*
X119556000Y-75106000D01*
X119556000Y-65864000D02*
X119556000Y-69244000D01*
X119516000Y-71726000D02*
X119516000Y-75124000D01*
X119516000Y-65846000D02*
X119516000Y-69244000D01*
X119476000Y-71726000D02*
X119476000Y-75142000D01*
X119476000Y-65828000D02*
X119476000Y-69244000D01*
X119436000Y-71726000D02*
X119436000Y-75159000D01*
X119436000Y-65811000D02*
X119436000Y-69244000D01*
X119396000Y-71726000D02*
X119396000Y-75175000D01*
X119396000Y-65795000D02*
X119396000Y-69244000D01*
X119356000Y-71726000D02*
X119356000Y-75192000D01*
X119356000Y-65778000D02*
X119356000Y-69244000D01*
X119316000Y-71726000D02*
X119316000Y-75208000D01*
X119316000Y-65762000D02*
X119316000Y-69244000D01*
X119276000Y-71726000D02*
X119276000Y-75223000D01*
X119276000Y-65747000D02*
X119276000Y-69244000D01*
X119236000Y-71726000D02*
X119236000Y-75239000D01*
X119236000Y-65731000D02*
X119236000Y-69244000D01*
X119196000Y-71726000D02*
X119196000Y-75253000D01*
X119196000Y-65717000D02*
X119196000Y-69244000D01*
X119156000Y-71726000D02*
X119156000Y-75268000D01*
X119156000Y-65702000D02*
X119156000Y-69244000D01*
X119116000Y-71726000D02*
X119116000Y-75282000D01*
X119116000Y-65688000D02*
X119116000Y-69244000D01*
X119076000Y-71726000D02*
X119076000Y-75296000D01*
X119076000Y-65674000D02*
X119076000Y-69244000D01*
X119036000Y-71726000D02*
X119036000Y-75309000D01*
X119036000Y-65661000D02*
X119036000Y-69244000D01*
X118996000Y-71726000D02*
X118996000Y-75322000D01*
X118996000Y-65648000D02*
X118996000Y-69244000D01*
X118956000Y-71726000D02*
X118956000Y-75335000D01*
X118956000Y-65635000D02*
X118956000Y-69244000D01*
X118916000Y-71726000D02*
X118916000Y-75347000D01*
X118916000Y-65623000D02*
X118916000Y-69244000D01*
X118876000Y-71726000D02*
X118876000Y-75359000D01*
X118876000Y-65611000D02*
X118876000Y-69244000D01*
X118836000Y-71726000D02*
X118836000Y-75370000D01*
X118836000Y-65600000D02*
X118836000Y-69244000D01*
X118796000Y-71726000D02*
X118796000Y-75382000D01*
X118796000Y-65588000D02*
X118796000Y-69244000D01*
X118756000Y-71726000D02*
X118756000Y-75392000D01*
X118756000Y-65578000D02*
X118756000Y-69244000D01*
X118716000Y-71726000D02*
X118716000Y-75403000D01*
X118716000Y-65567000D02*
X118716000Y-69244000D01*
X118676000Y-65557000D02*
X118676000Y-75413000D01*
X118636000Y-65547000D02*
X118636000Y-75423000D01*
X118596000Y-65538000D02*
X118596000Y-75432000D01*
X118556000Y-65529000D02*
X118556000Y-75441000D01*
X118516000Y-65520000D02*
X118516000Y-75450000D01*
X118476000Y-65511000D02*
X118476000Y-75459000D01*
X118436000Y-65503000D02*
X118436000Y-75467000D01*
X118396000Y-65495000D02*
X118396000Y-75475000D01*
X118356000Y-65488000D02*
X118356000Y-75482000D01*
X118316000Y-65481000D02*
X118316000Y-75489000D01*
X118276000Y-65474000D02*
X118276000Y-75496000D01*
X118236000Y-65467000D02*
X118236000Y-75503000D01*
X118196000Y-65461000D02*
X118196000Y-75509000D01*
X118156000Y-65455000D02*
X118156000Y-75515000D01*
X118115000Y-65450000D02*
X118115000Y-75520000D01*
X118075000Y-65445000D02*
X118075000Y-75525000D01*
X118035000Y-65440000D02*
X118035000Y-75530000D01*
X117995000Y-65435000D02*
X117995000Y-75535000D01*
X117955000Y-65431000D02*
X117955000Y-75539000D01*
X117915000Y-65427000D02*
X117915000Y-75543000D01*
X117875000Y-65423000D02*
X117875000Y-75547000D01*
X117835000Y-65420000D02*
X117835000Y-75550000D01*
X117795000Y-65417000D02*
X117795000Y-75553000D01*
X117755000Y-65415000D02*
X117755000Y-75555000D01*
X117715000Y-65412000D02*
X117715000Y-75558000D01*
X117675000Y-65410000D02*
X117675000Y-75560000D01*
X117635000Y-65408000D02*
X117635000Y-75562000D01*
X117595000Y-65407000D02*
X117595000Y-75563000D01*
X117555000Y-65406000D02*
X117555000Y-75564000D01*
X117515000Y-65405000D02*
X117515000Y-75565000D01*
X117475000Y-65405000D02*
X117475000Y-75565000D01*
X117435000Y-65405000D02*
X117435000Y-75565000D01*
X122555000Y-70485000D02*
G75*
G03*
X122555000Y-70485000I-5120000J0D01*
G01*
G04 #@! TO.C,C7*
X123049420Y-65915000D02*
X123330580Y-65915000D01*
X123049420Y-64895000D02*
X123330580Y-64895000D01*
G04 #@! TO.C,C6*
X114794420Y-64645000D02*
X115075580Y-64645000D01*
X114794420Y-63625000D02*
X115075580Y-63625000D01*
G04 #@! TO.C,C5*
X144639420Y-83695000D02*
X144920580Y-83695000D01*
X144639420Y-82675000D02*
X144920580Y-82675000D01*
G04 #@! TO.C,C4*
X158890580Y-68705000D02*
X158609420Y-68705000D01*
X158890580Y-69725000D02*
X158609420Y-69725000D01*
G04 #@! TO.C,C3*
X148449420Y-79250000D02*
X148730580Y-79250000D01*
X148449420Y-78230000D02*
X148730580Y-78230000D01*
G04 #@! TO.C,C2*
X153810580Y-68705000D02*
X153529420Y-68705000D01*
X153810580Y-69725000D02*
X153529420Y-69725000D01*
G04 #@! TO.C,C1*
X158609420Y-57025000D02*
X158890580Y-57025000D01*
X158609420Y-56005000D02*
X158890580Y-56005000D01*
G04 #@! TO.C,J5*
D10*
X135810666Y-60920380D02*
X135810666Y-61634666D01*
X135763047Y-61777523D01*
X135667809Y-61872761D01*
X135524952Y-61920380D01*
X135429714Y-61920380D01*
X136763047Y-60920380D02*
X136286857Y-60920380D01*
X136239238Y-61396571D01*
X136286857Y-61348952D01*
X136382095Y-61301333D01*
X136620190Y-61301333D01*
X136715428Y-61348952D01*
X136763047Y-61396571D01*
X136810666Y-61491809D01*
X136810666Y-61729904D01*
X136763047Y-61825142D01*
X136715428Y-61872761D01*
X136620190Y-61920380D01*
X136382095Y-61920380D01*
X136286857Y-61872761D01*
X136239238Y-61825142D01*
G04 #@! TO.C,U1*
X155448095Y-56417380D02*
X155448095Y-57226904D01*
X155495714Y-57322142D01*
X155543333Y-57369761D01*
X155638571Y-57417380D01*
X155829047Y-57417380D01*
X155924285Y-57369761D01*
X155971904Y-57322142D01*
X156019523Y-57226904D01*
X156019523Y-56417380D01*
X157019523Y-57417380D02*
X156448095Y-57417380D01*
X156733809Y-57417380D02*
X156733809Y-56417380D01*
X156638571Y-56560238D01*
X156543333Y-56655476D01*
X156448095Y-56703095D01*
G04 #@! TO.C,R10*
X121277142Y-56332380D02*
X120943809Y-55856190D01*
X120705714Y-56332380D02*
X120705714Y-55332380D01*
X121086666Y-55332380D01*
X121181904Y-55380000D01*
X121229523Y-55427619D01*
X121277142Y-55522857D01*
X121277142Y-55665714D01*
X121229523Y-55760952D01*
X121181904Y-55808571D01*
X121086666Y-55856190D01*
X120705714Y-55856190D01*
X122229523Y-56332380D02*
X121658095Y-56332380D01*
X121943809Y-56332380D02*
X121943809Y-55332380D01*
X121848571Y-55475238D01*
X121753333Y-55570476D01*
X121658095Y-55618095D01*
X122848571Y-55332380D02*
X122943809Y-55332380D01*
X123039047Y-55380000D01*
X123086666Y-55427619D01*
X123134285Y-55522857D01*
X123181904Y-55713333D01*
X123181904Y-55951428D01*
X123134285Y-56141904D01*
X123086666Y-56237142D01*
X123039047Y-56284761D01*
X122943809Y-56332380D01*
X122848571Y-56332380D01*
X122753333Y-56284761D01*
X122705714Y-56237142D01*
X122658095Y-56141904D01*
X122610476Y-55951428D01*
X122610476Y-55713333D01*
X122658095Y-55522857D01*
X122705714Y-55427619D01*
X122753333Y-55380000D01*
X122848571Y-55332380D01*
G04 #@! TO.C,U8*
X124206095Y-70482380D02*
X124206095Y-71291904D01*
X124253714Y-71387142D01*
X124301333Y-71434761D01*
X124396571Y-71482380D01*
X124587047Y-71482380D01*
X124682285Y-71434761D01*
X124729904Y-71387142D01*
X124777523Y-71291904D01*
X124777523Y-70482380D01*
X125396571Y-70910952D02*
X125301333Y-70863333D01*
X125253714Y-70815714D01*
X125206095Y-70720476D01*
X125206095Y-70672857D01*
X125253714Y-70577619D01*
X125301333Y-70530000D01*
X125396571Y-70482380D01*
X125587047Y-70482380D01*
X125682285Y-70530000D01*
X125729904Y-70577619D01*
X125777523Y-70672857D01*
X125777523Y-70720476D01*
X125729904Y-70815714D01*
X125682285Y-70863333D01*
X125587047Y-70910952D01*
X125396571Y-70910952D01*
X125301333Y-70958571D01*
X125253714Y-71006190D01*
X125206095Y-71101428D01*
X125206095Y-71291904D01*
X125253714Y-71387142D01*
X125301333Y-71434761D01*
X125396571Y-71482380D01*
X125587047Y-71482380D01*
X125682285Y-71434761D01*
X125729904Y-71387142D01*
X125777523Y-71291904D01*
X125777523Y-71101428D01*
X125729904Y-71006190D01*
X125682285Y-70958571D01*
X125587047Y-70910952D01*
G04 #@! TO.C,U7*
X123698095Y-84107380D02*
X123698095Y-84916904D01*
X123745714Y-85012142D01*
X123793333Y-85059761D01*
X123888571Y-85107380D01*
X124079047Y-85107380D01*
X124174285Y-85059761D01*
X124221904Y-85012142D01*
X124269523Y-84916904D01*
X124269523Y-84107380D01*
X124650476Y-84107380D02*
X125317142Y-84107380D01*
X124888571Y-85107380D01*
G04 #@! TO.C,U6*
X149606095Y-60412380D02*
X149606095Y-61221904D01*
X149653714Y-61317142D01*
X149701333Y-61364761D01*
X149796571Y-61412380D01*
X149987047Y-61412380D01*
X150082285Y-61364761D01*
X150129904Y-61317142D01*
X150177523Y-61221904D01*
X150177523Y-60412380D01*
X151082285Y-60412380D02*
X150891809Y-60412380D01*
X150796571Y-60460000D01*
X150748952Y-60507619D01*
X150653714Y-60650476D01*
X150606095Y-60840952D01*
X150606095Y-61221904D01*
X150653714Y-61317142D01*
X150701333Y-61364761D01*
X150796571Y-61412380D01*
X150987047Y-61412380D01*
X151082285Y-61364761D01*
X151129904Y-61317142D01*
X151177523Y-61221904D01*
X151177523Y-60983809D01*
X151129904Y-60888571D01*
X151082285Y-60840952D01*
X150987047Y-60793333D01*
X150796571Y-60793333D01*
X150701333Y-60840952D01*
X150653714Y-60888571D01*
X150606095Y-60983809D01*
G04 #@! TO.C,U5*
X114046095Y-56217380D02*
X114046095Y-57026904D01*
X114093714Y-57122142D01*
X114141333Y-57169761D01*
X114236571Y-57217380D01*
X114427047Y-57217380D01*
X114522285Y-57169761D01*
X114569904Y-57122142D01*
X114617523Y-57026904D01*
X114617523Y-56217380D01*
X115569904Y-56217380D02*
X115093714Y-56217380D01*
X115046095Y-56693571D01*
X115093714Y-56645952D01*
X115188952Y-56598333D01*
X115427047Y-56598333D01*
X115522285Y-56645952D01*
X115569904Y-56693571D01*
X115617523Y-56788809D01*
X115617523Y-57026904D01*
X115569904Y-57122142D01*
X115522285Y-57169761D01*
X115427047Y-57217380D01*
X115188952Y-57217380D01*
X115093714Y-57169761D01*
X115046095Y-57122142D01*
G04 #@! TO.C,U4*
X158750095Y-72292380D02*
X158750095Y-73101904D01*
X158797714Y-73197142D01*
X158845333Y-73244761D01*
X158940571Y-73292380D01*
X159131047Y-73292380D01*
X159226285Y-73244761D01*
X159273904Y-73197142D01*
X159321523Y-73101904D01*
X159321523Y-72292380D01*
X160226285Y-72625714D02*
X160226285Y-73292380D01*
X159988190Y-72244761D02*
X159750095Y-72959047D01*
X160369142Y-72959047D01*
G04 #@! TO.C,U3*
X138430095Y-71842380D02*
X138430095Y-72651904D01*
X138477714Y-72747142D01*
X138525333Y-72794761D01*
X138620571Y-72842380D01*
X138811047Y-72842380D01*
X138906285Y-72794761D01*
X138953904Y-72747142D01*
X139001523Y-72651904D01*
X139001523Y-71842380D01*
X139382476Y-71842380D02*
X140001523Y-71842380D01*
X139668190Y-72223333D01*
X139811047Y-72223333D01*
X139906285Y-72270952D01*
X139953904Y-72318571D01*
X140001523Y-72413809D01*
X140001523Y-72651904D01*
X139953904Y-72747142D01*
X139906285Y-72794761D01*
X139811047Y-72842380D01*
X139525333Y-72842380D01*
X139430095Y-72794761D01*
X139382476Y-72747142D01*
G04 #@! TO.C,U2*
X133223095Y-84107380D02*
X133223095Y-84916904D01*
X133270714Y-85012142D01*
X133318333Y-85059761D01*
X133413571Y-85107380D01*
X133604047Y-85107380D01*
X133699285Y-85059761D01*
X133746904Y-85012142D01*
X133794523Y-84916904D01*
X133794523Y-84107380D01*
X134223095Y-84202619D02*
X134270714Y-84155000D01*
X134365952Y-84107380D01*
X134604047Y-84107380D01*
X134699285Y-84155000D01*
X134746904Y-84202619D01*
X134794523Y-84297857D01*
X134794523Y-84393095D01*
X134746904Y-84535952D01*
X134175476Y-85107380D01*
X134794523Y-85107380D01*
G04 #@! TO.C,R9*
X131278333Y-72682380D02*
X130945000Y-72206190D01*
X130706904Y-72682380D02*
X130706904Y-71682380D01*
X131087857Y-71682380D01*
X131183095Y-71730000D01*
X131230714Y-71777619D01*
X131278333Y-71872857D01*
X131278333Y-72015714D01*
X131230714Y-72110952D01*
X131183095Y-72158571D01*
X131087857Y-72206190D01*
X130706904Y-72206190D01*
X131754523Y-72682380D02*
X131945000Y-72682380D01*
X132040238Y-72634761D01*
X132087857Y-72587142D01*
X132183095Y-72444285D01*
X132230714Y-72253809D01*
X132230714Y-71872857D01*
X132183095Y-71777619D01*
X132135476Y-71730000D01*
X132040238Y-71682380D01*
X131849761Y-71682380D01*
X131754523Y-71730000D01*
X131706904Y-71777619D01*
X131659285Y-71872857D01*
X131659285Y-72110952D01*
X131706904Y-72206190D01*
X131754523Y-72253809D01*
X131849761Y-72301428D01*
X132040238Y-72301428D01*
X132135476Y-72253809D01*
X132183095Y-72206190D01*
X132230714Y-72110952D01*
G04 #@! TO.C,R8*
X114641333Y-81224380D02*
X114308000Y-80748190D01*
X114069904Y-81224380D02*
X114069904Y-80224380D01*
X114450857Y-80224380D01*
X114546095Y-80272000D01*
X114593714Y-80319619D01*
X114641333Y-80414857D01*
X114641333Y-80557714D01*
X114593714Y-80652952D01*
X114546095Y-80700571D01*
X114450857Y-80748190D01*
X114069904Y-80748190D01*
X115212761Y-80652952D02*
X115117523Y-80605333D01*
X115069904Y-80557714D01*
X115022285Y-80462476D01*
X115022285Y-80414857D01*
X115069904Y-80319619D01*
X115117523Y-80272000D01*
X115212761Y-80224380D01*
X115403238Y-80224380D01*
X115498476Y-80272000D01*
X115546095Y-80319619D01*
X115593714Y-80414857D01*
X115593714Y-80462476D01*
X115546095Y-80557714D01*
X115498476Y-80605333D01*
X115403238Y-80652952D01*
X115212761Y-80652952D01*
X115117523Y-80700571D01*
X115069904Y-80748190D01*
X115022285Y-80843428D01*
X115022285Y-81033904D01*
X115069904Y-81129142D01*
X115117523Y-81176761D01*
X115212761Y-81224380D01*
X115403238Y-81224380D01*
X115498476Y-81176761D01*
X115546095Y-81129142D01*
X115593714Y-81033904D01*
X115593714Y-80843428D01*
X115546095Y-80748190D01*
X115498476Y-80700571D01*
X115403238Y-80652952D01*
G04 #@! TO.C,R7*
X140041333Y-79700380D02*
X139708000Y-79224190D01*
X139469904Y-79700380D02*
X139469904Y-78700380D01*
X139850857Y-78700380D01*
X139946095Y-78748000D01*
X139993714Y-78795619D01*
X140041333Y-78890857D01*
X140041333Y-79033714D01*
X139993714Y-79128952D01*
X139946095Y-79176571D01*
X139850857Y-79224190D01*
X139469904Y-79224190D01*
X140374666Y-78700380D02*
X141041333Y-78700380D01*
X140612761Y-79700380D01*
G04 #@! TO.C,R6*
X161377333Y-71572380D02*
X161044000Y-71096190D01*
X160805904Y-71572380D02*
X160805904Y-70572380D01*
X161186857Y-70572380D01*
X161282095Y-70620000D01*
X161329714Y-70667619D01*
X161377333Y-70762857D01*
X161377333Y-70905714D01*
X161329714Y-71000952D01*
X161282095Y-71048571D01*
X161186857Y-71096190D01*
X160805904Y-71096190D01*
X162234476Y-70572380D02*
X162044000Y-70572380D01*
X161948761Y-70620000D01*
X161901142Y-70667619D01*
X161805904Y-70810476D01*
X161758285Y-71000952D01*
X161758285Y-71381904D01*
X161805904Y-71477142D01*
X161853523Y-71524761D01*
X161948761Y-71572380D01*
X162139238Y-71572380D01*
X162234476Y-71524761D01*
X162282095Y-71477142D01*
X162329714Y-71381904D01*
X162329714Y-71143809D01*
X162282095Y-71048571D01*
X162234476Y-71000952D01*
X162139238Y-70953333D01*
X161948761Y-70953333D01*
X161853523Y-71000952D01*
X161805904Y-71048571D01*
X161758285Y-71143809D01*
G04 #@! TO.C,R5*
X151217333Y-80716380D02*
X150884000Y-80240190D01*
X150645904Y-80716380D02*
X150645904Y-79716380D01*
X151026857Y-79716380D01*
X151122095Y-79764000D01*
X151169714Y-79811619D01*
X151217333Y-79906857D01*
X151217333Y-80049714D01*
X151169714Y-80144952D01*
X151122095Y-80192571D01*
X151026857Y-80240190D01*
X150645904Y-80240190D01*
X152122095Y-79716380D02*
X151645904Y-79716380D01*
X151598285Y-80192571D01*
X151645904Y-80144952D01*
X151741142Y-80097333D01*
X151979238Y-80097333D01*
X152074476Y-80144952D01*
X152122095Y-80192571D01*
X152169714Y-80287809D01*
X152169714Y-80525904D01*
X152122095Y-80621142D01*
X152074476Y-80668761D01*
X151979238Y-80716380D01*
X151741142Y-80716380D01*
X151645904Y-80668761D01*
X151598285Y-80621142D01*
G04 #@! TO.C,R4*
X151217333Y-82748380D02*
X150884000Y-82272190D01*
X150645904Y-82748380D02*
X150645904Y-81748380D01*
X151026857Y-81748380D01*
X151122095Y-81796000D01*
X151169714Y-81843619D01*
X151217333Y-81938857D01*
X151217333Y-82081714D01*
X151169714Y-82176952D01*
X151122095Y-82224571D01*
X151026857Y-82272190D01*
X150645904Y-82272190D01*
X152074476Y-82081714D02*
X152074476Y-82748380D01*
X151836380Y-81700761D02*
X151598285Y-82415047D01*
X152217333Y-82415047D01*
G04 #@! TO.C,R3*
X139025333Y-56840380D02*
X138692000Y-56364190D01*
X138453904Y-56840380D02*
X138453904Y-55840380D01*
X138834857Y-55840380D01*
X138930095Y-55888000D01*
X138977714Y-55935619D01*
X139025333Y-56030857D01*
X139025333Y-56173714D01*
X138977714Y-56268952D01*
X138930095Y-56316571D01*
X138834857Y-56364190D01*
X138453904Y-56364190D01*
X139358666Y-55840380D02*
X139977714Y-55840380D01*
X139644380Y-56221333D01*
X139787238Y-56221333D01*
X139882476Y-56268952D01*
X139930095Y-56316571D01*
X139977714Y-56411809D01*
X139977714Y-56649904D01*
X139930095Y-56745142D01*
X139882476Y-56792761D01*
X139787238Y-56840380D01*
X139501523Y-56840380D01*
X139406285Y-56792761D01*
X139358666Y-56745142D01*
G04 #@! TO.C,R2*
X155789333Y-71572380D02*
X155456000Y-71096190D01*
X155217904Y-71572380D02*
X155217904Y-70572380D01*
X155598857Y-70572380D01*
X155694095Y-70620000D01*
X155741714Y-70667619D01*
X155789333Y-70762857D01*
X155789333Y-70905714D01*
X155741714Y-71000952D01*
X155694095Y-71048571D01*
X155598857Y-71096190D01*
X155217904Y-71096190D01*
X156170285Y-70667619D02*
X156217904Y-70620000D01*
X156313142Y-70572380D01*
X156551238Y-70572380D01*
X156646476Y-70620000D01*
X156694095Y-70667619D01*
X156741714Y-70762857D01*
X156741714Y-70858095D01*
X156694095Y-71000952D01*
X156122666Y-71572380D01*
X156741714Y-71572380D01*
G04 #@! TO.C,R1*
X153503333Y-55537380D02*
X153170000Y-55061190D01*
X152931904Y-55537380D02*
X152931904Y-54537380D01*
X153312857Y-54537380D01*
X153408095Y-54585000D01*
X153455714Y-54632619D01*
X153503333Y-54727857D01*
X153503333Y-54870714D01*
X153455714Y-54965952D01*
X153408095Y-55013571D01*
X153312857Y-55061190D01*
X152931904Y-55061190D01*
X154455714Y-55537380D02*
X153884285Y-55537380D01*
X154170000Y-55537380D02*
X154170000Y-54537380D01*
X154074761Y-54680238D01*
X153979523Y-54775476D01*
X153884285Y-54823095D01*
G04 #@! TO.C,J4*
X159686666Y-50760380D02*
X159686666Y-51474666D01*
X159639047Y-51617523D01*
X159543809Y-51712761D01*
X159400952Y-51760380D01*
X159305714Y-51760380D01*
X160591428Y-51093714D02*
X160591428Y-51760380D01*
X160353333Y-50712761D02*
X160115238Y-51427047D01*
X160734285Y-51427047D01*
G04 #@! TO.C,J3*
X141906666Y-50252380D02*
X141906666Y-50966666D01*
X141859047Y-51109523D01*
X141763809Y-51204761D01*
X141620952Y-51252380D01*
X141525714Y-51252380D01*
X142287619Y-50252380D02*
X142906666Y-50252380D01*
X142573333Y-50633333D01*
X142716190Y-50633333D01*
X142811428Y-50680952D01*
X142859047Y-50728571D01*
X142906666Y-50823809D01*
X142906666Y-51061904D01*
X142859047Y-51157142D01*
X142811428Y-51204761D01*
X142716190Y-51252380D01*
X142430476Y-51252380D01*
X142335238Y-51204761D01*
X142287619Y-51157142D01*
G04 #@! TO.C,J2*
X124634666Y-52792380D02*
X124634666Y-53506666D01*
X124587047Y-53649523D01*
X124491809Y-53744761D01*
X124348952Y-53792380D01*
X124253714Y-53792380D01*
X125063238Y-52887619D02*
X125110857Y-52840000D01*
X125206095Y-52792380D01*
X125444190Y-52792380D01*
X125539428Y-52840000D01*
X125587047Y-52887619D01*
X125634666Y-52982857D01*
X125634666Y-53078095D01*
X125587047Y-53220952D01*
X125015619Y-53792380D01*
X125634666Y-53792380D01*
G04 #@! TO.C,J1*
X137334666Y-50760380D02*
X137334666Y-51474666D01*
X137287047Y-51617523D01*
X137191809Y-51712761D01*
X137048952Y-51760380D01*
X136953714Y-51760380D01*
X138334666Y-51760380D02*
X137763238Y-51760380D01*
X138048952Y-51760380D02*
X138048952Y-50760380D01*
X137953714Y-50903238D01*
X137858476Y-50998476D01*
X137763238Y-51046095D01*
G04 #@! TO.C,C13*
X139565142Y-78081142D02*
X139517523Y-78128761D01*
X139374666Y-78176380D01*
X139279428Y-78176380D01*
X139136571Y-78128761D01*
X139041333Y-78033523D01*
X138993714Y-77938285D01*
X138946095Y-77747809D01*
X138946095Y-77604952D01*
X138993714Y-77414476D01*
X139041333Y-77319238D01*
X139136571Y-77224000D01*
X139279428Y-77176380D01*
X139374666Y-77176380D01*
X139517523Y-77224000D01*
X139565142Y-77271619D01*
X140517523Y-78176380D02*
X139946095Y-78176380D01*
X140231809Y-78176380D02*
X140231809Y-77176380D01*
X140136571Y-77319238D01*
X140041333Y-77414476D01*
X139946095Y-77462095D01*
X140850857Y-77176380D02*
X141469904Y-77176380D01*
X141136571Y-77557333D01*
X141279428Y-77557333D01*
X141374666Y-77604952D01*
X141422285Y-77652571D01*
X141469904Y-77747809D01*
X141469904Y-77985904D01*
X141422285Y-78081142D01*
X141374666Y-78128761D01*
X141279428Y-78176380D01*
X140993714Y-78176380D01*
X140898476Y-78128761D01*
X140850857Y-78081142D01*
G04 #@! TO.C,C12*
X149422142Y-56522857D02*
X149469761Y-56570476D01*
X149517380Y-56713333D01*
X149517380Y-56808571D01*
X149469761Y-56951428D01*
X149374523Y-57046666D01*
X149279285Y-57094285D01*
X149088809Y-57141904D01*
X148945952Y-57141904D01*
X148755476Y-57094285D01*
X148660238Y-57046666D01*
X148565000Y-56951428D01*
X148517380Y-56808571D01*
X148517380Y-56713333D01*
X148565000Y-56570476D01*
X148612619Y-56522857D01*
X149517380Y-55570476D02*
X149517380Y-56141904D01*
X149517380Y-55856190D02*
X148517380Y-55856190D01*
X148660238Y-55951428D01*
X148755476Y-56046666D01*
X148803095Y-56141904D01*
X148612619Y-55189523D02*
X148565000Y-55141904D01*
X148517380Y-55046666D01*
X148517380Y-54808571D01*
X148565000Y-54713333D01*
X148612619Y-54665714D01*
X148707857Y-54618095D01*
X148803095Y-54618095D01*
X148945952Y-54665714D01*
X149517380Y-55237142D01*
X149517380Y-54618095D01*
G04 #@! TO.C,C11*
X131437142Y-69445142D02*
X131389523Y-69492761D01*
X131246666Y-69540380D01*
X131151428Y-69540380D01*
X131008571Y-69492761D01*
X130913333Y-69397523D01*
X130865714Y-69302285D01*
X130818095Y-69111809D01*
X130818095Y-68968952D01*
X130865714Y-68778476D01*
X130913333Y-68683238D01*
X131008571Y-68588000D01*
X131151428Y-68540380D01*
X131246666Y-68540380D01*
X131389523Y-68588000D01*
X131437142Y-68635619D01*
X132389523Y-69540380D02*
X131818095Y-69540380D01*
X132103809Y-69540380D02*
X132103809Y-68540380D01*
X132008571Y-68683238D01*
X131913333Y-68778476D01*
X131818095Y-68826095D01*
X133341904Y-69540380D02*
X132770476Y-69540380D01*
X133056190Y-69540380D02*
X133056190Y-68540380D01*
X132960952Y-68683238D01*
X132865714Y-68778476D01*
X132770476Y-68826095D01*
G04 #@! TO.C,C10*
X113657142Y-78589142D02*
X113609523Y-78636761D01*
X113466666Y-78684380D01*
X113371428Y-78684380D01*
X113228571Y-78636761D01*
X113133333Y-78541523D01*
X113085714Y-78446285D01*
X113038095Y-78255809D01*
X113038095Y-78112952D01*
X113085714Y-77922476D01*
X113133333Y-77827238D01*
X113228571Y-77732000D01*
X113371428Y-77684380D01*
X113466666Y-77684380D01*
X113609523Y-77732000D01*
X113657142Y-77779619D01*
X114609523Y-78684380D02*
X114038095Y-78684380D01*
X114323809Y-78684380D02*
X114323809Y-77684380D01*
X114228571Y-77827238D01*
X114133333Y-77922476D01*
X114038095Y-77970095D01*
X115228571Y-77684380D02*
X115323809Y-77684380D01*
X115419047Y-77732000D01*
X115466666Y-77779619D01*
X115514285Y-77874857D01*
X115561904Y-78065333D01*
X115561904Y-78303428D01*
X115514285Y-78493904D01*
X115466666Y-78589142D01*
X115419047Y-78636761D01*
X115323809Y-78684380D01*
X115228571Y-78684380D01*
X115133333Y-78636761D01*
X115085714Y-78589142D01*
X115038095Y-78493904D01*
X114990476Y-78303428D01*
X114990476Y-78065333D01*
X115038095Y-77874857D01*
X115085714Y-77779619D01*
X115133333Y-77732000D01*
X115228571Y-77684380D01*
G04 #@! TO.C,C9*
X124801333Y-56237142D02*
X124753714Y-56284761D01*
X124610857Y-56332380D01*
X124515619Y-56332380D01*
X124372761Y-56284761D01*
X124277523Y-56189523D01*
X124229904Y-56094285D01*
X124182285Y-55903809D01*
X124182285Y-55760952D01*
X124229904Y-55570476D01*
X124277523Y-55475238D01*
X124372761Y-55380000D01*
X124515619Y-55332380D01*
X124610857Y-55332380D01*
X124753714Y-55380000D01*
X124801333Y-55427619D01*
X125277523Y-56332380D02*
X125468000Y-56332380D01*
X125563238Y-56284761D01*
X125610857Y-56237142D01*
X125706095Y-56094285D01*
X125753714Y-55903809D01*
X125753714Y-55522857D01*
X125706095Y-55427619D01*
X125658476Y-55380000D01*
X125563238Y-55332380D01*
X125372761Y-55332380D01*
X125277523Y-55380000D01*
X125229904Y-55427619D01*
X125182285Y-55522857D01*
X125182285Y-55760952D01*
X125229904Y-55856190D01*
X125277523Y-55903809D01*
X125372761Y-55951428D01*
X125563238Y-55951428D01*
X125658476Y-55903809D01*
X125706095Y-55856190D01*
X125753714Y-55760952D01*
G04 #@! TO.C,C8*
X119721333Y-65381142D02*
X119673714Y-65428761D01*
X119530857Y-65476380D01*
X119435619Y-65476380D01*
X119292761Y-65428761D01*
X119197523Y-65333523D01*
X119149904Y-65238285D01*
X119102285Y-65047809D01*
X119102285Y-64904952D01*
X119149904Y-64714476D01*
X119197523Y-64619238D01*
X119292761Y-64524000D01*
X119435619Y-64476380D01*
X119530857Y-64476380D01*
X119673714Y-64524000D01*
X119721333Y-64571619D01*
X120292761Y-64904952D02*
X120197523Y-64857333D01*
X120149904Y-64809714D01*
X120102285Y-64714476D01*
X120102285Y-64666857D01*
X120149904Y-64571619D01*
X120197523Y-64524000D01*
X120292761Y-64476380D01*
X120483238Y-64476380D01*
X120578476Y-64524000D01*
X120626095Y-64571619D01*
X120673714Y-64666857D01*
X120673714Y-64714476D01*
X120626095Y-64809714D01*
X120578476Y-64857333D01*
X120483238Y-64904952D01*
X120292761Y-64904952D01*
X120197523Y-64952571D01*
X120149904Y-65000190D01*
X120102285Y-65095428D01*
X120102285Y-65285904D01*
X120149904Y-65381142D01*
X120197523Y-65428761D01*
X120292761Y-65476380D01*
X120483238Y-65476380D01*
X120578476Y-65428761D01*
X120626095Y-65381142D01*
X120673714Y-65285904D01*
X120673714Y-65095428D01*
X120626095Y-65000190D01*
X120578476Y-64952571D01*
X120483238Y-64904952D01*
G04 #@! TO.C,C7*
X123023333Y-64332142D02*
X122975714Y-64379761D01*
X122832857Y-64427380D01*
X122737619Y-64427380D01*
X122594761Y-64379761D01*
X122499523Y-64284523D01*
X122451904Y-64189285D01*
X122404285Y-63998809D01*
X122404285Y-63855952D01*
X122451904Y-63665476D01*
X122499523Y-63570238D01*
X122594761Y-63475000D01*
X122737619Y-63427380D01*
X122832857Y-63427380D01*
X122975714Y-63475000D01*
X123023333Y-63522619D01*
X123356666Y-63427380D02*
X124023333Y-63427380D01*
X123594761Y-64427380D01*
G04 #@! TO.C,C6*
X117689333Y-64365142D02*
X117641714Y-64412761D01*
X117498857Y-64460380D01*
X117403619Y-64460380D01*
X117260761Y-64412761D01*
X117165523Y-64317523D01*
X117117904Y-64222285D01*
X117070285Y-64031809D01*
X117070285Y-63888952D01*
X117117904Y-63698476D01*
X117165523Y-63603238D01*
X117260761Y-63508000D01*
X117403619Y-63460380D01*
X117498857Y-63460380D01*
X117641714Y-63508000D01*
X117689333Y-63555619D01*
X118546476Y-63460380D02*
X118356000Y-63460380D01*
X118260761Y-63508000D01*
X118213142Y-63555619D01*
X118117904Y-63698476D01*
X118070285Y-63888952D01*
X118070285Y-64269904D01*
X118117904Y-64365142D01*
X118165523Y-64412761D01*
X118260761Y-64460380D01*
X118451238Y-64460380D01*
X118546476Y-64412761D01*
X118594095Y-64365142D01*
X118641714Y-64269904D01*
X118641714Y-64031809D01*
X118594095Y-63936571D01*
X118546476Y-63888952D01*
X118451238Y-63841333D01*
X118260761Y-63841333D01*
X118165523Y-63888952D01*
X118117904Y-63936571D01*
X118070285Y-64031809D01*
G04 #@! TO.C,C5*
X142581333Y-82653142D02*
X142533714Y-82700761D01*
X142390857Y-82748380D01*
X142295619Y-82748380D01*
X142152761Y-82700761D01*
X142057523Y-82605523D01*
X142009904Y-82510285D01*
X141962285Y-82319809D01*
X141962285Y-82176952D01*
X142009904Y-81986476D01*
X142057523Y-81891238D01*
X142152761Y-81796000D01*
X142295619Y-81748380D01*
X142390857Y-81748380D01*
X142533714Y-81796000D01*
X142581333Y-81843619D01*
X143486095Y-81748380D02*
X143009904Y-81748380D01*
X142962285Y-82224571D01*
X143009904Y-82176952D01*
X143105142Y-82129333D01*
X143343238Y-82129333D01*
X143438476Y-82176952D01*
X143486095Y-82224571D01*
X143533714Y-82319809D01*
X143533714Y-82557904D01*
X143486095Y-82653142D01*
X143438476Y-82700761D01*
X143343238Y-82748380D01*
X143105142Y-82748380D01*
X143009904Y-82700761D01*
X142962285Y-82653142D01*
G04 #@! TO.C,C4*
X161377333Y-69445142D02*
X161329714Y-69492761D01*
X161186857Y-69540380D01*
X161091619Y-69540380D01*
X160948761Y-69492761D01*
X160853523Y-69397523D01*
X160805904Y-69302285D01*
X160758285Y-69111809D01*
X160758285Y-68968952D01*
X160805904Y-68778476D01*
X160853523Y-68683238D01*
X160948761Y-68588000D01*
X161091619Y-68540380D01*
X161186857Y-68540380D01*
X161329714Y-68588000D01*
X161377333Y-68635619D01*
X162234476Y-68873714D02*
X162234476Y-69540380D01*
X161996380Y-68492761D02*
X161758285Y-69207047D01*
X162377333Y-69207047D01*
G04 #@! TO.C,C3*
X148423333Y-77667142D02*
X148375714Y-77714761D01*
X148232857Y-77762380D01*
X148137619Y-77762380D01*
X147994761Y-77714761D01*
X147899523Y-77619523D01*
X147851904Y-77524285D01*
X147804285Y-77333809D01*
X147804285Y-77190952D01*
X147851904Y-77000476D01*
X147899523Y-76905238D01*
X147994761Y-76810000D01*
X148137619Y-76762380D01*
X148232857Y-76762380D01*
X148375714Y-76810000D01*
X148423333Y-76857619D01*
X148756666Y-76762380D02*
X149375714Y-76762380D01*
X149042380Y-77143333D01*
X149185238Y-77143333D01*
X149280476Y-77190952D01*
X149328095Y-77238571D01*
X149375714Y-77333809D01*
X149375714Y-77571904D01*
X149328095Y-77667142D01*
X149280476Y-77714761D01*
X149185238Y-77762380D01*
X148899523Y-77762380D01*
X148804285Y-77714761D01*
X148756666Y-77667142D01*
G04 #@! TO.C,C2*
X151217333Y-69953142D02*
X151169714Y-70000761D01*
X151026857Y-70048380D01*
X150931619Y-70048380D01*
X150788761Y-70000761D01*
X150693523Y-69905523D01*
X150645904Y-69810285D01*
X150598285Y-69619809D01*
X150598285Y-69476952D01*
X150645904Y-69286476D01*
X150693523Y-69191238D01*
X150788761Y-69096000D01*
X150931619Y-69048380D01*
X151026857Y-69048380D01*
X151169714Y-69096000D01*
X151217333Y-69143619D01*
X151598285Y-69143619D02*
X151645904Y-69096000D01*
X151741142Y-69048380D01*
X151979238Y-69048380D01*
X152074476Y-69096000D01*
X152122095Y-69143619D01*
X152169714Y-69238857D01*
X152169714Y-69334095D01*
X152122095Y-69476952D01*
X151550666Y-70048380D01*
X152169714Y-70048380D01*
G04 #@! TO.C,C1*
X158583333Y-55442142D02*
X158535714Y-55489761D01*
X158392857Y-55537380D01*
X158297619Y-55537380D01*
X158154761Y-55489761D01*
X158059523Y-55394523D01*
X158011904Y-55299285D01*
X157964285Y-55108809D01*
X157964285Y-54965952D01*
X158011904Y-54775476D01*
X158059523Y-54680238D01*
X158154761Y-54585000D01*
X158297619Y-54537380D01*
X158392857Y-54537380D01*
X158535714Y-54585000D01*
X158583333Y-54632619D01*
X159535714Y-55537380D02*
X158964285Y-55537380D01*
X159250000Y-55537380D02*
X159250000Y-54537380D01*
X159154761Y-54680238D01*
X159059523Y-54775476D01*
X158964285Y-54823095D01*
G04 #@! TD*
%LPC*%
D12*
G04 #@! TO.C,H4*
X113792000Y-85852000D03*
G04 #@! TD*
G04 #@! TO.C,H3*
X162052000Y-85852000D03*
G04 #@! TD*
G04 #@! TO.C,H2*
X113792000Y-45212000D03*
G04 #@! TD*
G04 #@! TO.C,H1*
X162052000Y-45212000D03*
G04 #@! TD*
D13*
G04 #@! TO.C,J5*
X130810000Y-62230000D03*
X130810000Y-59690000D03*
X133350000Y-62230000D03*
D14*
X133350000Y-59690000D03*
G04 #@! TD*
G04 #@! TO.C,U1*
G36*
G01*
X157710000Y-58570000D02*
X157710000Y-58270000D01*
G75*
G02*
X157860000Y-58120000I150000J0D01*
G01*
X159510000Y-58120000D01*
G75*
G02*
X159660000Y-58270000I0J-150000D01*
G01*
X159660000Y-58570000D01*
G75*
G02*
X159510000Y-58720000I-150000J0D01*
G01*
X157860000Y-58720000D01*
G75*
G02*
X157710000Y-58570000I0J150000D01*
G01*
G37*
G36*
G01*
X157710000Y-59840000D02*
X157710000Y-59540000D01*
G75*
G02*
X157860000Y-59390000I150000J0D01*
G01*
X159510000Y-59390000D01*
G75*
G02*
X159660000Y-59540000I0J-150000D01*
G01*
X159660000Y-59840000D01*
G75*
G02*
X159510000Y-59990000I-150000J0D01*
G01*
X157860000Y-59990000D01*
G75*
G02*
X157710000Y-59840000I0J150000D01*
G01*
G37*
G36*
G01*
X157710000Y-61110000D02*
X157710000Y-60810000D01*
G75*
G02*
X157860000Y-60660000I150000J0D01*
G01*
X159510000Y-60660000D01*
G75*
G02*
X159660000Y-60810000I0J-150000D01*
G01*
X159660000Y-61110000D01*
G75*
G02*
X159510000Y-61260000I-150000J0D01*
G01*
X157860000Y-61260000D01*
G75*
G02*
X157710000Y-61110000I0J150000D01*
G01*
G37*
G36*
G01*
X157710000Y-62380000D02*
X157710000Y-62080000D01*
G75*
G02*
X157860000Y-61930000I150000J0D01*
G01*
X159510000Y-61930000D01*
G75*
G02*
X159660000Y-62080000I0J-150000D01*
G01*
X159660000Y-62380000D01*
G75*
G02*
X159510000Y-62530000I-150000J0D01*
G01*
X157860000Y-62530000D01*
G75*
G02*
X157710000Y-62380000I0J150000D01*
G01*
G37*
G36*
G01*
X157710000Y-63650000D02*
X157710000Y-63350000D01*
G75*
G02*
X157860000Y-63200000I150000J0D01*
G01*
X159510000Y-63200000D01*
G75*
G02*
X159660000Y-63350000I0J-150000D01*
G01*
X159660000Y-63650000D01*
G75*
G02*
X159510000Y-63800000I-150000J0D01*
G01*
X157860000Y-63800000D01*
G75*
G02*
X157710000Y-63650000I0J150000D01*
G01*
G37*
G36*
G01*
X157710000Y-64920000D02*
X157710000Y-64620000D01*
G75*
G02*
X157860000Y-64470000I150000J0D01*
G01*
X159510000Y-64470000D01*
G75*
G02*
X159660000Y-64620000I0J-150000D01*
G01*
X159660000Y-64920000D01*
G75*
G02*
X159510000Y-65070000I-150000J0D01*
G01*
X157860000Y-65070000D01*
G75*
G02*
X157710000Y-64920000I0J150000D01*
G01*
G37*
G36*
G01*
X157710000Y-66190000D02*
X157710000Y-65890000D01*
G75*
G02*
X157860000Y-65740000I150000J0D01*
G01*
X159510000Y-65740000D01*
G75*
G02*
X159660000Y-65890000I0J-150000D01*
G01*
X159660000Y-66190000D01*
G75*
G02*
X159510000Y-66340000I-150000J0D01*
G01*
X157860000Y-66340000D01*
G75*
G02*
X157710000Y-66190000I0J150000D01*
G01*
G37*
G36*
G01*
X157710000Y-67460000D02*
X157710000Y-67160000D01*
G75*
G02*
X157860000Y-67010000I150000J0D01*
G01*
X159510000Y-67010000D01*
G75*
G02*
X159660000Y-67160000I0J-150000D01*
G01*
X159660000Y-67460000D01*
G75*
G02*
X159510000Y-67610000I-150000J0D01*
G01*
X157860000Y-67610000D01*
G75*
G02*
X157710000Y-67460000I0J150000D01*
G01*
G37*
G36*
G01*
X152760000Y-67460000D02*
X152760000Y-67160000D01*
G75*
G02*
X152910000Y-67010000I150000J0D01*
G01*
X154560000Y-67010000D01*
G75*
G02*
X154710000Y-67160000I0J-150000D01*
G01*
X154710000Y-67460000D01*
G75*
G02*
X154560000Y-67610000I-150000J0D01*
G01*
X152910000Y-67610000D01*
G75*
G02*
X152760000Y-67460000I0J150000D01*
G01*
G37*
G36*
G01*
X152760000Y-66190000D02*
X152760000Y-65890000D01*
G75*
G02*
X152910000Y-65740000I150000J0D01*
G01*
X154560000Y-65740000D01*
G75*
G02*
X154710000Y-65890000I0J-150000D01*
G01*
X154710000Y-66190000D01*
G75*
G02*
X154560000Y-66340000I-150000J0D01*
G01*
X152910000Y-66340000D01*
G75*
G02*
X152760000Y-66190000I0J150000D01*
G01*
G37*
G36*
G01*
X152760000Y-64920000D02*
X152760000Y-64620000D01*
G75*
G02*
X152910000Y-64470000I150000J0D01*
G01*
X154560000Y-64470000D01*
G75*
G02*
X154710000Y-64620000I0J-150000D01*
G01*
X154710000Y-64920000D01*
G75*
G02*
X154560000Y-65070000I-150000J0D01*
G01*
X152910000Y-65070000D01*
G75*
G02*
X152760000Y-64920000I0J150000D01*
G01*
G37*
G36*
G01*
X152760000Y-63650000D02*
X152760000Y-63350000D01*
G75*
G02*
X152910000Y-63200000I150000J0D01*
G01*
X154560000Y-63200000D01*
G75*
G02*
X154710000Y-63350000I0J-150000D01*
G01*
X154710000Y-63650000D01*
G75*
G02*
X154560000Y-63800000I-150000J0D01*
G01*
X152910000Y-63800000D01*
G75*
G02*
X152760000Y-63650000I0J150000D01*
G01*
G37*
G36*
G01*
X152760000Y-62380000D02*
X152760000Y-62080000D01*
G75*
G02*
X152910000Y-61930000I150000J0D01*
G01*
X154560000Y-61930000D01*
G75*
G02*
X154710000Y-62080000I0J-150000D01*
G01*
X154710000Y-62380000D01*
G75*
G02*
X154560000Y-62530000I-150000J0D01*
G01*
X152910000Y-62530000D01*
G75*
G02*
X152760000Y-62380000I0J150000D01*
G01*
G37*
G36*
G01*
X152760000Y-61110000D02*
X152760000Y-60810000D01*
G75*
G02*
X152910000Y-60660000I150000J0D01*
G01*
X154560000Y-60660000D01*
G75*
G02*
X154710000Y-60810000I0J-150000D01*
G01*
X154710000Y-61110000D01*
G75*
G02*
X154560000Y-61260000I-150000J0D01*
G01*
X152910000Y-61260000D01*
G75*
G02*
X152760000Y-61110000I0J150000D01*
G01*
G37*
G36*
G01*
X152760000Y-59840000D02*
X152760000Y-59540000D01*
G75*
G02*
X152910000Y-59390000I150000J0D01*
G01*
X154560000Y-59390000D01*
G75*
G02*
X154710000Y-59540000I0J-150000D01*
G01*
X154710000Y-59840000D01*
G75*
G02*
X154560000Y-59990000I-150000J0D01*
G01*
X152910000Y-59990000D01*
G75*
G02*
X152760000Y-59840000I0J150000D01*
G01*
G37*
G36*
G01*
X152760000Y-58570000D02*
X152760000Y-58270000D01*
G75*
G02*
X152910000Y-58120000I150000J0D01*
G01*
X154560000Y-58120000D01*
G75*
G02*
X154710000Y-58270000I0J-150000D01*
G01*
X154710000Y-58570000D01*
G75*
G02*
X154560000Y-58720000I-150000J0D01*
G01*
X152910000Y-58720000D01*
G75*
G02*
X152760000Y-58570000I0J150000D01*
G01*
G37*
G04 #@! TD*
G04 #@! TO.C,R10*
G36*
G01*
X119170000Y-56790000D02*
X119170000Y-56240000D01*
G75*
G02*
X119370000Y-56040000I200000J0D01*
G01*
X119770000Y-56040000D01*
G75*
G02*
X119970000Y-56240000I0J-200000D01*
G01*
X119970000Y-56790000D01*
G75*
G02*
X119770000Y-56990000I-200000J0D01*
G01*
X119370000Y-56990000D01*
G75*
G02*
X119170000Y-56790000I0J200000D01*
G01*
G37*
G36*
G01*
X117520000Y-56790000D02*
X117520000Y-56240000D01*
G75*
G02*
X117720000Y-56040000I200000J0D01*
G01*
X118120000Y-56040000D01*
G75*
G02*
X118320000Y-56240000I0J-200000D01*
G01*
X118320000Y-56790000D01*
G75*
G02*
X118120000Y-56990000I-200000J0D01*
G01*
X117720000Y-56990000D01*
G75*
G02*
X117520000Y-56790000I0J200000D01*
G01*
G37*
G04 #@! TD*
D15*
G04 #@! TO.C,U8*
X123808000Y-69530000D03*
X123808000Y-67630000D03*
X126128000Y-67630000D03*
X126128000Y-68580000D03*
X126128000Y-69530000D03*
G04 #@! TD*
G04 #@! TO.C,U7*
G36*
G01*
X122960000Y-83035000D02*
X122960000Y-83335000D01*
G75*
G02*
X122810000Y-83485000I-150000J0D01*
G01*
X121160000Y-83485000D01*
G75*
G02*
X121010000Y-83335000I0J150000D01*
G01*
X121010000Y-83035000D01*
G75*
G02*
X121160000Y-82885000I150000J0D01*
G01*
X122810000Y-82885000D01*
G75*
G02*
X122960000Y-83035000I0J-150000D01*
G01*
G37*
G36*
G01*
X122960000Y-81765000D02*
X122960000Y-82065000D01*
G75*
G02*
X122810000Y-82215000I-150000J0D01*
G01*
X121160000Y-82215000D01*
G75*
G02*
X121010000Y-82065000I0J150000D01*
G01*
X121010000Y-81765000D01*
G75*
G02*
X121160000Y-81615000I150000J0D01*
G01*
X122810000Y-81615000D01*
G75*
G02*
X122960000Y-81765000I0J-150000D01*
G01*
G37*
G36*
G01*
X122960000Y-80495000D02*
X122960000Y-80795000D01*
G75*
G02*
X122810000Y-80945000I-150000J0D01*
G01*
X121160000Y-80945000D01*
G75*
G02*
X121010000Y-80795000I0J150000D01*
G01*
X121010000Y-80495000D01*
G75*
G02*
X121160000Y-80345000I150000J0D01*
G01*
X122810000Y-80345000D01*
G75*
G02*
X122960000Y-80495000I0J-150000D01*
G01*
G37*
G36*
G01*
X122960000Y-79225000D02*
X122960000Y-79525000D01*
G75*
G02*
X122810000Y-79675000I-150000J0D01*
G01*
X121160000Y-79675000D01*
G75*
G02*
X121010000Y-79525000I0J150000D01*
G01*
X121010000Y-79225000D01*
G75*
G02*
X121160000Y-79075000I150000J0D01*
G01*
X122810000Y-79075000D01*
G75*
G02*
X122960000Y-79225000I0J-150000D01*
G01*
G37*
G36*
G01*
X122960000Y-77955000D02*
X122960000Y-78255000D01*
G75*
G02*
X122810000Y-78405000I-150000J0D01*
G01*
X121160000Y-78405000D01*
G75*
G02*
X121010000Y-78255000I0J150000D01*
G01*
X121010000Y-77955000D01*
G75*
G02*
X121160000Y-77805000I150000J0D01*
G01*
X122810000Y-77805000D01*
G75*
G02*
X122960000Y-77955000I0J-150000D01*
G01*
G37*
G36*
G01*
X122960000Y-76685000D02*
X122960000Y-76985000D01*
G75*
G02*
X122810000Y-77135000I-150000J0D01*
G01*
X121160000Y-77135000D01*
G75*
G02*
X121010000Y-76985000I0J150000D01*
G01*
X121010000Y-76685000D01*
G75*
G02*
X121160000Y-76535000I150000J0D01*
G01*
X122810000Y-76535000D01*
G75*
G02*
X122960000Y-76685000I0J-150000D01*
G01*
G37*
G36*
G01*
X122960000Y-75415000D02*
X122960000Y-75715000D01*
G75*
G02*
X122810000Y-75865000I-150000J0D01*
G01*
X121160000Y-75865000D01*
G75*
G02*
X121010000Y-75715000I0J150000D01*
G01*
X121010000Y-75415000D01*
G75*
G02*
X121160000Y-75265000I150000J0D01*
G01*
X122810000Y-75265000D01*
G75*
G02*
X122960000Y-75415000I0J-150000D01*
G01*
G37*
G36*
G01*
X127910000Y-75415000D02*
X127910000Y-75715000D01*
G75*
G02*
X127760000Y-75865000I-150000J0D01*
G01*
X126110000Y-75865000D01*
G75*
G02*
X125960000Y-75715000I0J150000D01*
G01*
X125960000Y-75415000D01*
G75*
G02*
X126110000Y-75265000I150000J0D01*
G01*
X127760000Y-75265000D01*
G75*
G02*
X127910000Y-75415000I0J-150000D01*
G01*
G37*
G36*
G01*
X127910000Y-76685000D02*
X127910000Y-76985000D01*
G75*
G02*
X127760000Y-77135000I-150000J0D01*
G01*
X126110000Y-77135000D01*
G75*
G02*
X125960000Y-76985000I0J150000D01*
G01*
X125960000Y-76685000D01*
G75*
G02*
X126110000Y-76535000I150000J0D01*
G01*
X127760000Y-76535000D01*
G75*
G02*
X127910000Y-76685000I0J-150000D01*
G01*
G37*
G36*
G01*
X127910000Y-77955000D02*
X127910000Y-78255000D01*
G75*
G02*
X127760000Y-78405000I-150000J0D01*
G01*
X126110000Y-78405000D01*
G75*
G02*
X125960000Y-78255000I0J150000D01*
G01*
X125960000Y-77955000D01*
G75*
G02*
X126110000Y-77805000I150000J0D01*
G01*
X127760000Y-77805000D01*
G75*
G02*
X127910000Y-77955000I0J-150000D01*
G01*
G37*
G36*
G01*
X127910000Y-79225000D02*
X127910000Y-79525000D01*
G75*
G02*
X127760000Y-79675000I-150000J0D01*
G01*
X126110000Y-79675000D01*
G75*
G02*
X125960000Y-79525000I0J150000D01*
G01*
X125960000Y-79225000D01*
G75*
G02*
X126110000Y-79075000I150000J0D01*
G01*
X127760000Y-79075000D01*
G75*
G02*
X127910000Y-79225000I0J-150000D01*
G01*
G37*
G36*
G01*
X127910000Y-80495000D02*
X127910000Y-80795000D01*
G75*
G02*
X127760000Y-80945000I-150000J0D01*
G01*
X126110000Y-80945000D01*
G75*
G02*
X125960000Y-80795000I0J150000D01*
G01*
X125960000Y-80495000D01*
G75*
G02*
X126110000Y-80345000I150000J0D01*
G01*
X127760000Y-80345000D01*
G75*
G02*
X127910000Y-80495000I0J-150000D01*
G01*
G37*
G36*
G01*
X127910000Y-81765000D02*
X127910000Y-82065000D01*
G75*
G02*
X127760000Y-82215000I-150000J0D01*
G01*
X126110000Y-82215000D01*
G75*
G02*
X125960000Y-82065000I0J150000D01*
G01*
X125960000Y-81765000D01*
G75*
G02*
X126110000Y-81615000I150000J0D01*
G01*
X127760000Y-81615000D01*
G75*
G02*
X127910000Y-81765000I0J-150000D01*
G01*
G37*
G36*
G01*
X127910000Y-83035000D02*
X127910000Y-83335000D01*
G75*
G02*
X127760000Y-83485000I-150000J0D01*
G01*
X126110000Y-83485000D01*
G75*
G02*
X125960000Y-83335000I0J150000D01*
G01*
X125960000Y-83035000D01*
G75*
G02*
X126110000Y-82885000I150000J0D01*
G01*
X127760000Y-82885000D01*
G75*
G02*
X127910000Y-83035000I0J-150000D01*
G01*
G37*
G04 #@! TD*
G04 #@! TO.C,U6*
G36*
G01*
X148440000Y-63730000D02*
X148740000Y-63730000D01*
G75*
G02*
X148890000Y-63880000I0J-150000D01*
G01*
X148890000Y-65530000D01*
G75*
G02*
X148740000Y-65680000I-150000J0D01*
G01*
X148440000Y-65680000D01*
G75*
G02*
X148290000Y-65530000I0J150000D01*
G01*
X148290000Y-63880000D01*
G75*
G02*
X148440000Y-63730000I150000J0D01*
G01*
G37*
G36*
G01*
X147170000Y-63730000D02*
X147470000Y-63730000D01*
G75*
G02*
X147620000Y-63880000I0J-150000D01*
G01*
X147620000Y-65530000D01*
G75*
G02*
X147470000Y-65680000I-150000J0D01*
G01*
X147170000Y-65680000D01*
G75*
G02*
X147020000Y-65530000I0J150000D01*
G01*
X147020000Y-63880000D01*
G75*
G02*
X147170000Y-63730000I150000J0D01*
G01*
G37*
G36*
G01*
X145900000Y-63730000D02*
X146200000Y-63730000D01*
G75*
G02*
X146350000Y-63880000I0J-150000D01*
G01*
X146350000Y-65530000D01*
G75*
G02*
X146200000Y-65680000I-150000J0D01*
G01*
X145900000Y-65680000D01*
G75*
G02*
X145750000Y-65530000I0J150000D01*
G01*
X145750000Y-63880000D01*
G75*
G02*
X145900000Y-63730000I150000J0D01*
G01*
G37*
G36*
G01*
X144630000Y-63730000D02*
X144930000Y-63730000D01*
G75*
G02*
X145080000Y-63880000I0J-150000D01*
G01*
X145080000Y-65530000D01*
G75*
G02*
X144930000Y-65680000I-150000J0D01*
G01*
X144630000Y-65680000D01*
G75*
G02*
X144480000Y-65530000I0J150000D01*
G01*
X144480000Y-63880000D01*
G75*
G02*
X144630000Y-63730000I150000J0D01*
G01*
G37*
G36*
G01*
X143360000Y-63730000D02*
X143660000Y-63730000D01*
G75*
G02*
X143810000Y-63880000I0J-150000D01*
G01*
X143810000Y-65530000D01*
G75*
G02*
X143660000Y-65680000I-150000J0D01*
G01*
X143360000Y-65680000D01*
G75*
G02*
X143210000Y-65530000I0J150000D01*
G01*
X143210000Y-63880000D01*
G75*
G02*
X143360000Y-63730000I150000J0D01*
G01*
G37*
G36*
G01*
X142090000Y-63730000D02*
X142390000Y-63730000D01*
G75*
G02*
X142540000Y-63880000I0J-150000D01*
G01*
X142540000Y-65530000D01*
G75*
G02*
X142390000Y-65680000I-150000J0D01*
G01*
X142090000Y-65680000D01*
G75*
G02*
X141940000Y-65530000I0J150000D01*
G01*
X141940000Y-63880000D01*
G75*
G02*
X142090000Y-63730000I150000J0D01*
G01*
G37*
G36*
G01*
X140820000Y-63730000D02*
X141120000Y-63730000D01*
G75*
G02*
X141270000Y-63880000I0J-150000D01*
G01*
X141270000Y-65530000D01*
G75*
G02*
X141120000Y-65680000I-150000J0D01*
G01*
X140820000Y-65680000D01*
G75*
G02*
X140670000Y-65530000I0J150000D01*
G01*
X140670000Y-63880000D01*
G75*
G02*
X140820000Y-63730000I150000J0D01*
G01*
G37*
G36*
G01*
X140820000Y-58780000D02*
X141120000Y-58780000D01*
G75*
G02*
X141270000Y-58930000I0J-150000D01*
G01*
X141270000Y-60580000D01*
G75*
G02*
X141120000Y-60730000I-150000J0D01*
G01*
X140820000Y-60730000D01*
G75*
G02*
X140670000Y-60580000I0J150000D01*
G01*
X140670000Y-58930000D01*
G75*
G02*
X140820000Y-58780000I150000J0D01*
G01*
G37*
G36*
G01*
X142090000Y-58780000D02*
X142390000Y-58780000D01*
G75*
G02*
X142540000Y-58930000I0J-150000D01*
G01*
X142540000Y-60580000D01*
G75*
G02*
X142390000Y-60730000I-150000J0D01*
G01*
X142090000Y-60730000D01*
G75*
G02*
X141940000Y-60580000I0J150000D01*
G01*
X141940000Y-58930000D01*
G75*
G02*
X142090000Y-58780000I150000J0D01*
G01*
G37*
G36*
G01*
X143360000Y-58780000D02*
X143660000Y-58780000D01*
G75*
G02*
X143810000Y-58930000I0J-150000D01*
G01*
X143810000Y-60580000D01*
G75*
G02*
X143660000Y-60730000I-150000J0D01*
G01*
X143360000Y-60730000D01*
G75*
G02*
X143210000Y-60580000I0J150000D01*
G01*
X143210000Y-58930000D01*
G75*
G02*
X143360000Y-58780000I150000J0D01*
G01*
G37*
G36*
G01*
X144630000Y-58780000D02*
X144930000Y-58780000D01*
G75*
G02*
X145080000Y-58930000I0J-150000D01*
G01*
X145080000Y-60580000D01*
G75*
G02*
X144930000Y-60730000I-150000J0D01*
G01*
X144630000Y-60730000D01*
G75*
G02*
X144480000Y-60580000I0J150000D01*
G01*
X144480000Y-58930000D01*
G75*
G02*
X144630000Y-58780000I150000J0D01*
G01*
G37*
G36*
G01*
X145900000Y-58780000D02*
X146200000Y-58780000D01*
G75*
G02*
X146350000Y-58930000I0J-150000D01*
G01*
X146350000Y-60580000D01*
G75*
G02*
X146200000Y-60730000I-150000J0D01*
G01*
X145900000Y-60730000D01*
G75*
G02*
X145750000Y-60580000I0J150000D01*
G01*
X145750000Y-58930000D01*
G75*
G02*
X145900000Y-58780000I150000J0D01*
G01*
G37*
G36*
G01*
X147170000Y-58780000D02*
X147470000Y-58780000D01*
G75*
G02*
X147620000Y-58930000I0J-150000D01*
G01*
X147620000Y-60580000D01*
G75*
G02*
X147470000Y-60730000I-150000J0D01*
G01*
X147170000Y-60730000D01*
G75*
G02*
X147020000Y-60580000I0J150000D01*
G01*
X147020000Y-58930000D01*
G75*
G02*
X147170000Y-58780000I150000J0D01*
G01*
G37*
G36*
G01*
X148440000Y-58780000D02*
X148740000Y-58780000D01*
G75*
G02*
X148890000Y-58930000I0J-150000D01*
G01*
X148890000Y-60580000D01*
G75*
G02*
X148740000Y-60730000I-150000J0D01*
G01*
X148440000Y-60730000D01*
G75*
G02*
X148290000Y-60580000I0J150000D01*
G01*
X148290000Y-58930000D01*
G75*
G02*
X148440000Y-58780000I150000J0D01*
G01*
G37*
G04 #@! TD*
D16*
G04 #@! TO.C,U5*
X114300000Y-60325000D03*
D17*
X116840000Y-60325000D03*
X115570000Y-59055000D03*
G04 #@! TD*
G04 #@! TO.C,U4*
G36*
G01*
X157710000Y-74445000D02*
X157710000Y-74145000D01*
G75*
G02*
X157860000Y-73995000I150000J0D01*
G01*
X159510000Y-73995000D01*
G75*
G02*
X159660000Y-74145000I0J-150000D01*
G01*
X159660000Y-74445000D01*
G75*
G02*
X159510000Y-74595000I-150000J0D01*
G01*
X157860000Y-74595000D01*
G75*
G02*
X157710000Y-74445000I0J150000D01*
G01*
G37*
G36*
G01*
X157710000Y-75715000D02*
X157710000Y-75415000D01*
G75*
G02*
X157860000Y-75265000I150000J0D01*
G01*
X159510000Y-75265000D01*
G75*
G02*
X159660000Y-75415000I0J-150000D01*
G01*
X159660000Y-75715000D01*
G75*
G02*
X159510000Y-75865000I-150000J0D01*
G01*
X157860000Y-75865000D01*
G75*
G02*
X157710000Y-75715000I0J150000D01*
G01*
G37*
G36*
G01*
X157710000Y-76985000D02*
X157710000Y-76685000D01*
G75*
G02*
X157860000Y-76535000I150000J0D01*
G01*
X159510000Y-76535000D01*
G75*
G02*
X159660000Y-76685000I0J-150000D01*
G01*
X159660000Y-76985000D01*
G75*
G02*
X159510000Y-77135000I-150000J0D01*
G01*
X157860000Y-77135000D01*
G75*
G02*
X157710000Y-76985000I0J150000D01*
G01*
G37*
G36*
G01*
X157710000Y-78255000D02*
X157710000Y-77955000D01*
G75*
G02*
X157860000Y-77805000I150000J0D01*
G01*
X159510000Y-77805000D01*
G75*
G02*
X159660000Y-77955000I0J-150000D01*
G01*
X159660000Y-78255000D01*
G75*
G02*
X159510000Y-78405000I-150000J0D01*
G01*
X157860000Y-78405000D01*
G75*
G02*
X157710000Y-78255000I0J150000D01*
G01*
G37*
G36*
G01*
X157710000Y-79525000D02*
X157710000Y-79225000D01*
G75*
G02*
X157860000Y-79075000I150000J0D01*
G01*
X159510000Y-79075000D01*
G75*
G02*
X159660000Y-79225000I0J-150000D01*
G01*
X159660000Y-79525000D01*
G75*
G02*
X159510000Y-79675000I-150000J0D01*
G01*
X157860000Y-79675000D01*
G75*
G02*
X157710000Y-79525000I0J150000D01*
G01*
G37*
G36*
G01*
X157710000Y-80795000D02*
X157710000Y-80495000D01*
G75*
G02*
X157860000Y-80345000I150000J0D01*
G01*
X159510000Y-80345000D01*
G75*
G02*
X159660000Y-80495000I0J-150000D01*
G01*
X159660000Y-80795000D01*
G75*
G02*
X159510000Y-80945000I-150000J0D01*
G01*
X157860000Y-80945000D01*
G75*
G02*
X157710000Y-80795000I0J150000D01*
G01*
G37*
G36*
G01*
X157710000Y-82065000D02*
X157710000Y-81765000D01*
G75*
G02*
X157860000Y-81615000I150000J0D01*
G01*
X159510000Y-81615000D01*
G75*
G02*
X159660000Y-81765000I0J-150000D01*
G01*
X159660000Y-82065000D01*
G75*
G02*
X159510000Y-82215000I-150000J0D01*
G01*
X157860000Y-82215000D01*
G75*
G02*
X157710000Y-82065000I0J150000D01*
G01*
G37*
G36*
G01*
X157710000Y-83335000D02*
X157710000Y-83035000D01*
G75*
G02*
X157860000Y-82885000I150000J0D01*
G01*
X159510000Y-82885000D01*
G75*
G02*
X159660000Y-83035000I0J-150000D01*
G01*
X159660000Y-83335000D01*
G75*
G02*
X159510000Y-83485000I-150000J0D01*
G01*
X157860000Y-83485000D01*
G75*
G02*
X157710000Y-83335000I0J150000D01*
G01*
G37*
G36*
G01*
X152760000Y-83335000D02*
X152760000Y-83035000D01*
G75*
G02*
X152910000Y-82885000I150000J0D01*
G01*
X154560000Y-82885000D01*
G75*
G02*
X154710000Y-83035000I0J-150000D01*
G01*
X154710000Y-83335000D01*
G75*
G02*
X154560000Y-83485000I-150000J0D01*
G01*
X152910000Y-83485000D01*
G75*
G02*
X152760000Y-83335000I0J150000D01*
G01*
G37*
G36*
G01*
X152760000Y-82065000D02*
X152760000Y-81765000D01*
G75*
G02*
X152910000Y-81615000I150000J0D01*
G01*
X154560000Y-81615000D01*
G75*
G02*
X154710000Y-81765000I0J-150000D01*
G01*
X154710000Y-82065000D01*
G75*
G02*
X154560000Y-82215000I-150000J0D01*
G01*
X152910000Y-82215000D01*
G75*
G02*
X152760000Y-82065000I0J150000D01*
G01*
G37*
G36*
G01*
X152760000Y-80795000D02*
X152760000Y-80495000D01*
G75*
G02*
X152910000Y-80345000I150000J0D01*
G01*
X154560000Y-80345000D01*
G75*
G02*
X154710000Y-80495000I0J-150000D01*
G01*
X154710000Y-80795000D01*
G75*
G02*
X154560000Y-80945000I-150000J0D01*
G01*
X152910000Y-80945000D01*
G75*
G02*
X152760000Y-80795000I0J150000D01*
G01*
G37*
G36*
G01*
X152760000Y-79525000D02*
X152760000Y-79225000D01*
G75*
G02*
X152910000Y-79075000I150000J0D01*
G01*
X154560000Y-79075000D01*
G75*
G02*
X154710000Y-79225000I0J-150000D01*
G01*
X154710000Y-79525000D01*
G75*
G02*
X154560000Y-79675000I-150000J0D01*
G01*
X152910000Y-79675000D01*
G75*
G02*
X152760000Y-79525000I0J150000D01*
G01*
G37*
G36*
G01*
X152760000Y-78255000D02*
X152760000Y-77955000D01*
G75*
G02*
X152910000Y-77805000I150000J0D01*
G01*
X154560000Y-77805000D01*
G75*
G02*
X154710000Y-77955000I0J-150000D01*
G01*
X154710000Y-78255000D01*
G75*
G02*
X154560000Y-78405000I-150000J0D01*
G01*
X152910000Y-78405000D01*
G75*
G02*
X152760000Y-78255000I0J150000D01*
G01*
G37*
G36*
G01*
X152760000Y-76985000D02*
X152760000Y-76685000D01*
G75*
G02*
X152910000Y-76535000I150000J0D01*
G01*
X154560000Y-76535000D01*
G75*
G02*
X154710000Y-76685000I0J-150000D01*
G01*
X154710000Y-76985000D01*
G75*
G02*
X154560000Y-77135000I-150000J0D01*
G01*
X152910000Y-77135000D01*
G75*
G02*
X152760000Y-76985000I0J150000D01*
G01*
G37*
G36*
G01*
X152760000Y-75715000D02*
X152760000Y-75415000D01*
G75*
G02*
X152910000Y-75265000I150000J0D01*
G01*
X154560000Y-75265000D01*
G75*
G02*
X154710000Y-75415000I0J-150000D01*
G01*
X154710000Y-75715000D01*
G75*
G02*
X154560000Y-75865000I-150000J0D01*
G01*
X152910000Y-75865000D01*
G75*
G02*
X152760000Y-75715000I0J150000D01*
G01*
G37*
G36*
G01*
X152760000Y-74445000D02*
X152760000Y-74145000D01*
G75*
G02*
X152910000Y-73995000I150000J0D01*
G01*
X154560000Y-73995000D01*
G75*
G02*
X154710000Y-74145000I0J-150000D01*
G01*
X154710000Y-74445000D01*
G75*
G02*
X154560000Y-74595000I-150000J0D01*
G01*
X152910000Y-74595000D01*
G75*
G02*
X152760000Y-74445000I0J150000D01*
G01*
G37*
G04 #@! TD*
G04 #@! TO.C,U3*
G36*
G01*
X141120000Y-70890000D02*
X140820000Y-70890000D01*
G75*
G02*
X140670000Y-70740000I0J150000D01*
G01*
X140670000Y-69090000D01*
G75*
G02*
X140820000Y-68940000I150000J0D01*
G01*
X141120000Y-68940000D01*
G75*
G02*
X141270000Y-69090000I0J-150000D01*
G01*
X141270000Y-70740000D01*
G75*
G02*
X141120000Y-70890000I-150000J0D01*
G01*
G37*
G36*
G01*
X142390000Y-70890000D02*
X142090000Y-70890000D01*
G75*
G02*
X141940000Y-70740000I0J150000D01*
G01*
X141940000Y-69090000D01*
G75*
G02*
X142090000Y-68940000I150000J0D01*
G01*
X142390000Y-68940000D01*
G75*
G02*
X142540000Y-69090000I0J-150000D01*
G01*
X142540000Y-70740000D01*
G75*
G02*
X142390000Y-70890000I-150000J0D01*
G01*
G37*
G36*
G01*
X143660000Y-70890000D02*
X143360000Y-70890000D01*
G75*
G02*
X143210000Y-70740000I0J150000D01*
G01*
X143210000Y-69090000D01*
G75*
G02*
X143360000Y-68940000I150000J0D01*
G01*
X143660000Y-68940000D01*
G75*
G02*
X143810000Y-69090000I0J-150000D01*
G01*
X143810000Y-70740000D01*
G75*
G02*
X143660000Y-70890000I-150000J0D01*
G01*
G37*
G36*
G01*
X144930000Y-70890000D02*
X144630000Y-70890000D01*
G75*
G02*
X144480000Y-70740000I0J150000D01*
G01*
X144480000Y-69090000D01*
G75*
G02*
X144630000Y-68940000I150000J0D01*
G01*
X144930000Y-68940000D01*
G75*
G02*
X145080000Y-69090000I0J-150000D01*
G01*
X145080000Y-70740000D01*
G75*
G02*
X144930000Y-70890000I-150000J0D01*
G01*
G37*
G36*
G01*
X146200000Y-70890000D02*
X145900000Y-70890000D01*
G75*
G02*
X145750000Y-70740000I0J150000D01*
G01*
X145750000Y-69090000D01*
G75*
G02*
X145900000Y-68940000I150000J0D01*
G01*
X146200000Y-68940000D01*
G75*
G02*
X146350000Y-69090000I0J-150000D01*
G01*
X146350000Y-70740000D01*
G75*
G02*
X146200000Y-70890000I-150000J0D01*
G01*
G37*
G36*
G01*
X147470000Y-70890000D02*
X147170000Y-70890000D01*
G75*
G02*
X147020000Y-70740000I0J150000D01*
G01*
X147020000Y-69090000D01*
G75*
G02*
X147170000Y-68940000I150000J0D01*
G01*
X147470000Y-68940000D01*
G75*
G02*
X147620000Y-69090000I0J-150000D01*
G01*
X147620000Y-70740000D01*
G75*
G02*
X147470000Y-70890000I-150000J0D01*
G01*
G37*
G36*
G01*
X148740000Y-70890000D02*
X148440000Y-70890000D01*
G75*
G02*
X148290000Y-70740000I0J150000D01*
G01*
X148290000Y-69090000D01*
G75*
G02*
X148440000Y-68940000I150000J0D01*
G01*
X148740000Y-68940000D01*
G75*
G02*
X148890000Y-69090000I0J-150000D01*
G01*
X148890000Y-70740000D01*
G75*
G02*
X148740000Y-70890000I-150000J0D01*
G01*
G37*
G36*
G01*
X150010000Y-70890000D02*
X149710000Y-70890000D01*
G75*
G02*
X149560000Y-70740000I0J150000D01*
G01*
X149560000Y-69090000D01*
G75*
G02*
X149710000Y-68940000I150000J0D01*
G01*
X150010000Y-68940000D01*
G75*
G02*
X150160000Y-69090000I0J-150000D01*
G01*
X150160000Y-70740000D01*
G75*
G02*
X150010000Y-70890000I-150000J0D01*
G01*
G37*
G36*
G01*
X150010000Y-75840000D02*
X149710000Y-75840000D01*
G75*
G02*
X149560000Y-75690000I0J150000D01*
G01*
X149560000Y-74040000D01*
G75*
G02*
X149710000Y-73890000I150000J0D01*
G01*
X150010000Y-73890000D01*
G75*
G02*
X150160000Y-74040000I0J-150000D01*
G01*
X150160000Y-75690000D01*
G75*
G02*
X150010000Y-75840000I-150000J0D01*
G01*
G37*
G36*
G01*
X148740000Y-75840000D02*
X148440000Y-75840000D01*
G75*
G02*
X148290000Y-75690000I0J150000D01*
G01*
X148290000Y-74040000D01*
G75*
G02*
X148440000Y-73890000I150000J0D01*
G01*
X148740000Y-73890000D01*
G75*
G02*
X148890000Y-74040000I0J-150000D01*
G01*
X148890000Y-75690000D01*
G75*
G02*
X148740000Y-75840000I-150000J0D01*
G01*
G37*
G36*
G01*
X147470000Y-75840000D02*
X147170000Y-75840000D01*
G75*
G02*
X147020000Y-75690000I0J150000D01*
G01*
X147020000Y-74040000D01*
G75*
G02*
X147170000Y-73890000I150000J0D01*
G01*
X147470000Y-73890000D01*
G75*
G02*
X147620000Y-74040000I0J-150000D01*
G01*
X147620000Y-75690000D01*
G75*
G02*
X147470000Y-75840000I-150000J0D01*
G01*
G37*
G36*
G01*
X146200000Y-75840000D02*
X145900000Y-75840000D01*
G75*
G02*
X145750000Y-75690000I0J150000D01*
G01*
X145750000Y-74040000D01*
G75*
G02*
X145900000Y-73890000I150000J0D01*
G01*
X146200000Y-73890000D01*
G75*
G02*
X146350000Y-74040000I0J-150000D01*
G01*
X146350000Y-75690000D01*
G75*
G02*
X146200000Y-75840000I-150000J0D01*
G01*
G37*
G36*
G01*
X144930000Y-75840000D02*
X144630000Y-75840000D01*
G75*
G02*
X144480000Y-75690000I0J150000D01*
G01*
X144480000Y-74040000D01*
G75*
G02*
X144630000Y-73890000I150000J0D01*
G01*
X144930000Y-73890000D01*
G75*
G02*
X145080000Y-74040000I0J-150000D01*
G01*
X145080000Y-75690000D01*
G75*
G02*
X144930000Y-75840000I-150000J0D01*
G01*
G37*
G36*
G01*
X143660000Y-75840000D02*
X143360000Y-75840000D01*
G75*
G02*
X143210000Y-75690000I0J150000D01*
G01*
X143210000Y-74040000D01*
G75*
G02*
X143360000Y-73890000I150000J0D01*
G01*
X143660000Y-73890000D01*
G75*
G02*
X143810000Y-74040000I0J-150000D01*
G01*
X143810000Y-75690000D01*
G75*
G02*
X143660000Y-75840000I-150000J0D01*
G01*
G37*
G36*
G01*
X142390000Y-75840000D02*
X142090000Y-75840000D01*
G75*
G02*
X141940000Y-75690000I0J150000D01*
G01*
X141940000Y-74040000D01*
G75*
G02*
X142090000Y-73890000I150000J0D01*
G01*
X142390000Y-73890000D01*
G75*
G02*
X142540000Y-74040000I0J-150000D01*
G01*
X142540000Y-75690000D01*
G75*
G02*
X142390000Y-75840000I-150000J0D01*
G01*
G37*
G36*
G01*
X141120000Y-75840000D02*
X140820000Y-75840000D01*
G75*
G02*
X140670000Y-75690000I0J150000D01*
G01*
X140670000Y-74040000D01*
G75*
G02*
X140820000Y-73890000I150000J0D01*
G01*
X141120000Y-73890000D01*
G75*
G02*
X141270000Y-74040000I0J-150000D01*
G01*
X141270000Y-75690000D01*
G75*
G02*
X141120000Y-75840000I-150000J0D01*
G01*
G37*
G04 #@! TD*
G04 #@! TO.C,U2*
G36*
G01*
X132485000Y-83035000D02*
X132485000Y-83335000D01*
G75*
G02*
X132335000Y-83485000I-150000J0D01*
G01*
X130685000Y-83485000D01*
G75*
G02*
X130535000Y-83335000I0J150000D01*
G01*
X130535000Y-83035000D01*
G75*
G02*
X130685000Y-82885000I150000J0D01*
G01*
X132335000Y-82885000D01*
G75*
G02*
X132485000Y-83035000I0J-150000D01*
G01*
G37*
G36*
G01*
X132485000Y-81765000D02*
X132485000Y-82065000D01*
G75*
G02*
X132335000Y-82215000I-150000J0D01*
G01*
X130685000Y-82215000D01*
G75*
G02*
X130535000Y-82065000I0J150000D01*
G01*
X130535000Y-81765000D01*
G75*
G02*
X130685000Y-81615000I150000J0D01*
G01*
X132335000Y-81615000D01*
G75*
G02*
X132485000Y-81765000I0J-150000D01*
G01*
G37*
G36*
G01*
X132485000Y-80495000D02*
X132485000Y-80795000D01*
G75*
G02*
X132335000Y-80945000I-150000J0D01*
G01*
X130685000Y-80945000D01*
G75*
G02*
X130535000Y-80795000I0J150000D01*
G01*
X130535000Y-80495000D01*
G75*
G02*
X130685000Y-80345000I150000J0D01*
G01*
X132335000Y-80345000D01*
G75*
G02*
X132485000Y-80495000I0J-150000D01*
G01*
G37*
G36*
G01*
X132485000Y-79225000D02*
X132485000Y-79525000D01*
G75*
G02*
X132335000Y-79675000I-150000J0D01*
G01*
X130685000Y-79675000D01*
G75*
G02*
X130535000Y-79525000I0J150000D01*
G01*
X130535000Y-79225000D01*
G75*
G02*
X130685000Y-79075000I150000J0D01*
G01*
X132335000Y-79075000D01*
G75*
G02*
X132485000Y-79225000I0J-150000D01*
G01*
G37*
G36*
G01*
X132485000Y-77955000D02*
X132485000Y-78255000D01*
G75*
G02*
X132335000Y-78405000I-150000J0D01*
G01*
X130685000Y-78405000D01*
G75*
G02*
X130535000Y-78255000I0J150000D01*
G01*
X130535000Y-77955000D01*
G75*
G02*
X130685000Y-77805000I150000J0D01*
G01*
X132335000Y-77805000D01*
G75*
G02*
X132485000Y-77955000I0J-150000D01*
G01*
G37*
G36*
G01*
X132485000Y-76685000D02*
X132485000Y-76985000D01*
G75*
G02*
X132335000Y-77135000I-150000J0D01*
G01*
X130685000Y-77135000D01*
G75*
G02*
X130535000Y-76985000I0J150000D01*
G01*
X130535000Y-76685000D01*
G75*
G02*
X130685000Y-76535000I150000J0D01*
G01*
X132335000Y-76535000D01*
G75*
G02*
X132485000Y-76685000I0J-150000D01*
G01*
G37*
G36*
G01*
X132485000Y-75415000D02*
X132485000Y-75715000D01*
G75*
G02*
X132335000Y-75865000I-150000J0D01*
G01*
X130685000Y-75865000D01*
G75*
G02*
X130535000Y-75715000I0J150000D01*
G01*
X130535000Y-75415000D01*
G75*
G02*
X130685000Y-75265000I150000J0D01*
G01*
X132335000Y-75265000D01*
G75*
G02*
X132485000Y-75415000I0J-150000D01*
G01*
G37*
G36*
G01*
X137435000Y-75415000D02*
X137435000Y-75715000D01*
G75*
G02*
X137285000Y-75865000I-150000J0D01*
G01*
X135635000Y-75865000D01*
G75*
G02*
X135485000Y-75715000I0J150000D01*
G01*
X135485000Y-75415000D01*
G75*
G02*
X135635000Y-75265000I150000J0D01*
G01*
X137285000Y-75265000D01*
G75*
G02*
X137435000Y-75415000I0J-150000D01*
G01*
G37*
G36*
G01*
X137435000Y-76685000D02*
X137435000Y-76985000D01*
G75*
G02*
X137285000Y-77135000I-150000J0D01*
G01*
X135635000Y-77135000D01*
G75*
G02*
X135485000Y-76985000I0J150000D01*
G01*
X135485000Y-76685000D01*
G75*
G02*
X135635000Y-76535000I150000J0D01*
G01*
X137285000Y-76535000D01*
G75*
G02*
X137435000Y-76685000I0J-150000D01*
G01*
G37*
G36*
G01*
X137435000Y-77955000D02*
X137435000Y-78255000D01*
G75*
G02*
X137285000Y-78405000I-150000J0D01*
G01*
X135635000Y-78405000D01*
G75*
G02*
X135485000Y-78255000I0J150000D01*
G01*
X135485000Y-77955000D01*
G75*
G02*
X135635000Y-77805000I150000J0D01*
G01*
X137285000Y-77805000D01*
G75*
G02*
X137435000Y-77955000I0J-150000D01*
G01*
G37*
G36*
G01*
X137435000Y-79225000D02*
X137435000Y-79525000D01*
G75*
G02*
X137285000Y-79675000I-150000J0D01*
G01*
X135635000Y-79675000D01*
G75*
G02*
X135485000Y-79525000I0J150000D01*
G01*
X135485000Y-79225000D01*
G75*
G02*
X135635000Y-79075000I150000J0D01*
G01*
X137285000Y-79075000D01*
G75*
G02*
X137435000Y-79225000I0J-150000D01*
G01*
G37*
G36*
G01*
X137435000Y-80495000D02*
X137435000Y-80795000D01*
G75*
G02*
X137285000Y-80945000I-150000J0D01*
G01*
X135635000Y-80945000D01*
G75*
G02*
X135485000Y-80795000I0J150000D01*
G01*
X135485000Y-80495000D01*
G75*
G02*
X135635000Y-80345000I150000J0D01*
G01*
X137285000Y-80345000D01*
G75*
G02*
X137435000Y-80495000I0J-150000D01*
G01*
G37*
G36*
G01*
X137435000Y-81765000D02*
X137435000Y-82065000D01*
G75*
G02*
X137285000Y-82215000I-150000J0D01*
G01*
X135635000Y-82215000D01*
G75*
G02*
X135485000Y-82065000I0J150000D01*
G01*
X135485000Y-81765000D01*
G75*
G02*
X135635000Y-81615000I150000J0D01*
G01*
X137285000Y-81615000D01*
G75*
G02*
X137435000Y-81765000I0J-150000D01*
G01*
G37*
G36*
G01*
X137435000Y-83035000D02*
X137435000Y-83335000D01*
G75*
G02*
X137285000Y-83485000I-150000J0D01*
G01*
X135635000Y-83485000D01*
G75*
G02*
X135485000Y-83335000I0J150000D01*
G01*
X135485000Y-83035000D01*
G75*
G02*
X135635000Y-82885000I150000J0D01*
G01*
X137285000Y-82885000D01*
G75*
G02*
X137435000Y-83035000I0J-150000D01*
G01*
G37*
G04 #@! TD*
G04 #@! TO.C,R9*
G36*
G01*
X131870000Y-73935000D02*
X131870000Y-73385000D01*
G75*
G02*
X132070000Y-73185000I200000J0D01*
G01*
X132470000Y-73185000D01*
G75*
G02*
X132670000Y-73385000I0J-200000D01*
G01*
X132670000Y-73935000D01*
G75*
G02*
X132470000Y-74135000I-200000J0D01*
G01*
X132070000Y-74135000D01*
G75*
G02*
X131870000Y-73935000I0J200000D01*
G01*
G37*
G36*
G01*
X130220000Y-73935000D02*
X130220000Y-73385000D01*
G75*
G02*
X130420000Y-73185000I200000J0D01*
G01*
X130820000Y-73185000D01*
G75*
G02*
X131020000Y-73385000I0J-200000D01*
G01*
X131020000Y-73935000D01*
G75*
G02*
X130820000Y-74135000I-200000J0D01*
G01*
X130420000Y-74135000D01*
G75*
G02*
X130220000Y-73935000I0J200000D01*
G01*
G37*
G04 #@! TD*
G04 #@! TO.C,R8*
G36*
G01*
X117900000Y-82825000D02*
X117900000Y-82275000D01*
G75*
G02*
X118100000Y-82075000I200000J0D01*
G01*
X118500000Y-82075000D01*
G75*
G02*
X118700000Y-82275000I0J-200000D01*
G01*
X118700000Y-82825000D01*
G75*
G02*
X118500000Y-83025000I-200000J0D01*
G01*
X118100000Y-83025000D01*
G75*
G02*
X117900000Y-82825000I0J200000D01*
G01*
G37*
G36*
G01*
X116250000Y-82825000D02*
X116250000Y-82275000D01*
G75*
G02*
X116450000Y-82075000I200000J0D01*
G01*
X116850000Y-82075000D01*
G75*
G02*
X117050000Y-82275000I0J-200000D01*
G01*
X117050000Y-82825000D01*
G75*
G02*
X116850000Y-83025000I-200000J0D01*
G01*
X116450000Y-83025000D01*
G75*
G02*
X116250000Y-82825000I0J200000D01*
G01*
G37*
G04 #@! TD*
G04 #@! TO.C,R7*
G36*
G01*
X145205000Y-80920000D02*
X145205000Y-80370000D01*
G75*
G02*
X145405000Y-80170000I200000J0D01*
G01*
X145805000Y-80170000D01*
G75*
G02*
X146005000Y-80370000I0J-200000D01*
G01*
X146005000Y-80920000D01*
G75*
G02*
X145805000Y-81120000I-200000J0D01*
G01*
X145405000Y-81120000D01*
G75*
G02*
X145205000Y-80920000I0J200000D01*
G01*
G37*
G36*
G01*
X143555000Y-80920000D02*
X143555000Y-80370000D01*
G75*
G02*
X143755000Y-80170000I200000J0D01*
G01*
X144155000Y-80170000D01*
G75*
G02*
X144355000Y-80370000I0J-200000D01*
G01*
X144355000Y-80920000D01*
G75*
G02*
X144155000Y-81120000I-200000J0D01*
G01*
X143755000Y-81120000D01*
G75*
G02*
X143555000Y-80920000I0J200000D01*
G01*
G37*
G04 #@! TD*
G04 #@! TO.C,R6*
G36*
G01*
X159175000Y-71395000D02*
X159175000Y-70845000D01*
G75*
G02*
X159375000Y-70645000I200000J0D01*
G01*
X159775000Y-70645000D01*
G75*
G02*
X159975000Y-70845000I0J-200000D01*
G01*
X159975000Y-71395000D01*
G75*
G02*
X159775000Y-71595000I-200000J0D01*
G01*
X159375000Y-71595000D01*
G75*
G02*
X159175000Y-71395000I0J200000D01*
G01*
G37*
G36*
G01*
X157525000Y-71395000D02*
X157525000Y-70845000D01*
G75*
G02*
X157725000Y-70645000I200000J0D01*
G01*
X158125000Y-70645000D01*
G75*
G02*
X158325000Y-70845000I0J-200000D01*
G01*
X158325000Y-71395000D01*
G75*
G02*
X158125000Y-71595000I-200000J0D01*
G01*
X157725000Y-71595000D01*
G75*
G02*
X157525000Y-71395000I0J200000D01*
G01*
G37*
G04 #@! TD*
G04 #@! TO.C,R5*
G36*
G01*
X148165000Y-80370000D02*
X148165000Y-80920000D01*
G75*
G02*
X147965000Y-81120000I-200000J0D01*
G01*
X147565000Y-81120000D01*
G75*
G02*
X147365000Y-80920000I0J200000D01*
G01*
X147365000Y-80370000D01*
G75*
G02*
X147565000Y-80170000I200000J0D01*
G01*
X147965000Y-80170000D01*
G75*
G02*
X148165000Y-80370000I0J-200000D01*
G01*
G37*
G36*
G01*
X149815000Y-80370000D02*
X149815000Y-80920000D01*
G75*
G02*
X149615000Y-81120000I-200000J0D01*
G01*
X149215000Y-81120000D01*
G75*
G02*
X149015000Y-80920000I0J200000D01*
G01*
X149015000Y-80370000D01*
G75*
G02*
X149215000Y-80170000I200000J0D01*
G01*
X149615000Y-80170000D01*
G75*
G02*
X149815000Y-80370000I0J-200000D01*
G01*
G37*
G04 #@! TD*
G04 #@! TO.C,R4*
G36*
G01*
X148165000Y-82910000D02*
X148165000Y-83460000D01*
G75*
G02*
X147965000Y-83660000I-200000J0D01*
G01*
X147565000Y-83660000D01*
G75*
G02*
X147365000Y-83460000I0J200000D01*
G01*
X147365000Y-82910000D01*
G75*
G02*
X147565000Y-82710000I200000J0D01*
G01*
X147965000Y-82710000D01*
G75*
G02*
X148165000Y-82910000I0J-200000D01*
G01*
G37*
G36*
G01*
X149815000Y-82910000D02*
X149815000Y-83460000D01*
G75*
G02*
X149615000Y-83660000I-200000J0D01*
G01*
X149215000Y-83660000D01*
G75*
G02*
X149015000Y-83460000I0J200000D01*
G01*
X149015000Y-82910000D01*
G75*
G02*
X149215000Y-82710000I200000J0D01*
G01*
X149615000Y-82710000D01*
G75*
G02*
X149815000Y-82910000I0J-200000D01*
G01*
G37*
G04 #@! TD*
G04 #@! TO.C,R3*
G36*
G01*
X142030000Y-56790000D02*
X142030000Y-56240000D01*
G75*
G02*
X142230000Y-56040000I200000J0D01*
G01*
X142630000Y-56040000D01*
G75*
G02*
X142830000Y-56240000I0J-200000D01*
G01*
X142830000Y-56790000D01*
G75*
G02*
X142630000Y-56990000I-200000J0D01*
G01*
X142230000Y-56990000D01*
G75*
G02*
X142030000Y-56790000I0J200000D01*
G01*
G37*
G36*
G01*
X140380000Y-56790000D02*
X140380000Y-56240000D01*
G75*
G02*
X140580000Y-56040000I200000J0D01*
G01*
X140980000Y-56040000D01*
G75*
G02*
X141180000Y-56240000I0J-200000D01*
G01*
X141180000Y-56790000D01*
G75*
G02*
X140980000Y-56990000I-200000J0D01*
G01*
X140580000Y-56990000D01*
G75*
G02*
X140380000Y-56790000I0J200000D01*
G01*
G37*
G04 #@! TD*
G04 #@! TO.C,R2*
G36*
G01*
X154095000Y-71395000D02*
X154095000Y-70845000D01*
G75*
G02*
X154295000Y-70645000I200000J0D01*
G01*
X154695000Y-70645000D01*
G75*
G02*
X154895000Y-70845000I0J-200000D01*
G01*
X154895000Y-71395000D01*
G75*
G02*
X154695000Y-71595000I-200000J0D01*
G01*
X154295000Y-71595000D01*
G75*
G02*
X154095000Y-71395000I0J200000D01*
G01*
G37*
G36*
G01*
X152445000Y-71395000D02*
X152445000Y-70845000D01*
G75*
G02*
X152645000Y-70645000I200000J0D01*
G01*
X153045000Y-70645000D01*
G75*
G02*
X153245000Y-70845000I0J-200000D01*
G01*
X153245000Y-71395000D01*
G75*
G02*
X153045000Y-71595000I-200000J0D01*
G01*
X152645000Y-71595000D01*
G75*
G02*
X152445000Y-71395000I0J200000D01*
G01*
G37*
G04 #@! TD*
G04 #@! TO.C,R1*
G36*
G01*
X154095000Y-56790000D02*
X154095000Y-56240000D01*
G75*
G02*
X154295000Y-56040000I200000J0D01*
G01*
X154695000Y-56040000D01*
G75*
G02*
X154895000Y-56240000I0J-200000D01*
G01*
X154895000Y-56790000D01*
G75*
G02*
X154695000Y-56990000I-200000J0D01*
G01*
X154295000Y-56990000D01*
G75*
G02*
X154095000Y-56790000I0J200000D01*
G01*
G37*
G36*
G01*
X152445000Y-56790000D02*
X152445000Y-56240000D01*
G75*
G02*
X152645000Y-56040000I200000J0D01*
G01*
X153045000Y-56040000D01*
G75*
G02*
X153245000Y-56240000I0J-200000D01*
G01*
X153245000Y-56790000D01*
G75*
G02*
X153045000Y-56990000I-200000J0D01*
G01*
X152645000Y-56990000D01*
G75*
G02*
X152445000Y-56790000I0J200000D01*
G01*
G37*
G04 #@! TD*
D13*
G04 #@! TO.C,J4*
X154305000Y-53340000D03*
D14*
X156845000Y-53340000D03*
G04 #@! TD*
D13*
G04 #@! TO.C,J3*
X142240000Y-53340000D03*
X144780000Y-53340000D03*
D14*
X147320000Y-53340000D03*
G04 #@! TD*
D13*
G04 #@! TO.C,J2*
X114300000Y-53340000D03*
X116840000Y-53340000D03*
X119380000Y-53340000D03*
D14*
X121920000Y-53340000D03*
G04 #@! TD*
D13*
G04 #@! TO.C,J1*
X129540000Y-53340000D03*
X132080000Y-53340000D03*
D14*
X134620000Y-53340000D03*
G04 #@! TD*
G04 #@! TO.C,C13*
G36*
G01*
X145105000Y-78990000D02*
X145105000Y-78490000D01*
G75*
G02*
X145330000Y-78265000I225000J0D01*
G01*
X145780000Y-78265000D01*
G75*
G02*
X146005000Y-78490000I0J-225000D01*
G01*
X146005000Y-78990000D01*
G75*
G02*
X145780000Y-79215000I-225000J0D01*
G01*
X145330000Y-79215000D01*
G75*
G02*
X145105000Y-78990000I0J225000D01*
G01*
G37*
G36*
G01*
X143555000Y-78990000D02*
X143555000Y-78490000D01*
G75*
G02*
X143780000Y-78265000I225000J0D01*
G01*
X144230000Y-78265000D01*
G75*
G02*
X144455000Y-78490000I0J-225000D01*
G01*
X144455000Y-78990000D01*
G75*
G02*
X144230000Y-79215000I-225000J0D01*
G01*
X143780000Y-79215000D01*
G75*
G02*
X143555000Y-78990000I0J225000D01*
G01*
G37*
G04 #@! TD*
G04 #@! TO.C,C12*
G36*
G01*
X150745000Y-55555000D02*
X150245000Y-55555000D01*
G75*
G02*
X150020000Y-55330000I0J225000D01*
G01*
X150020000Y-54880000D01*
G75*
G02*
X150245000Y-54655000I225000J0D01*
G01*
X150745000Y-54655000D01*
G75*
G02*
X150970000Y-54880000I0J-225000D01*
G01*
X150970000Y-55330000D01*
G75*
G02*
X150745000Y-55555000I-225000J0D01*
G01*
G37*
G36*
G01*
X150745000Y-57105000D02*
X150245000Y-57105000D01*
G75*
G02*
X150020000Y-56880000I0J225000D01*
G01*
X150020000Y-56430000D01*
G75*
G02*
X150245000Y-56205000I225000J0D01*
G01*
X150745000Y-56205000D01*
G75*
G02*
X150970000Y-56430000I0J-225000D01*
G01*
X150970000Y-56880000D01*
G75*
G02*
X150745000Y-57105000I-225000J0D01*
G01*
G37*
G04 #@! TD*
G04 #@! TO.C,C11*
G36*
G01*
X131120000Y-70235000D02*
X131120000Y-70735000D01*
G75*
G02*
X130895000Y-70960000I-225000J0D01*
G01*
X130445000Y-70960000D01*
G75*
G02*
X130220000Y-70735000I0J225000D01*
G01*
X130220000Y-70235000D01*
G75*
G02*
X130445000Y-70010000I225000J0D01*
G01*
X130895000Y-70010000D01*
G75*
G02*
X131120000Y-70235000I0J-225000D01*
G01*
G37*
G36*
G01*
X132670000Y-70235000D02*
X132670000Y-70735000D01*
G75*
G02*
X132445000Y-70960000I-225000J0D01*
G01*
X131995000Y-70960000D01*
G75*
G02*
X131770000Y-70735000I0J225000D01*
G01*
X131770000Y-70235000D01*
G75*
G02*
X131995000Y-70010000I225000J0D01*
G01*
X132445000Y-70010000D01*
G75*
G02*
X132670000Y-70235000I0J-225000D01*
G01*
G37*
G04 #@! TD*
G04 #@! TO.C,C10*
G36*
G01*
X117150000Y-77855000D02*
X117150000Y-78355000D01*
G75*
G02*
X116925000Y-78580000I-225000J0D01*
G01*
X116475000Y-78580000D01*
G75*
G02*
X116250000Y-78355000I0J225000D01*
G01*
X116250000Y-77855000D01*
G75*
G02*
X116475000Y-77630000I225000J0D01*
G01*
X116925000Y-77630000D01*
G75*
G02*
X117150000Y-77855000I0J-225000D01*
G01*
G37*
G36*
G01*
X118700000Y-77855000D02*
X118700000Y-78355000D01*
G75*
G02*
X118475000Y-78580000I-225000J0D01*
G01*
X118025000Y-78580000D01*
G75*
G02*
X117800000Y-78355000I0J225000D01*
G01*
X117800000Y-77855000D01*
G75*
G02*
X118025000Y-77630000I225000J0D01*
G01*
X118475000Y-77630000D01*
G75*
G02*
X118700000Y-77855000I0J-225000D01*
G01*
G37*
G04 #@! TD*
D18*
G04 #@! TO.C,C9*
X124420000Y-60325000D03*
D19*
X121920000Y-60325000D03*
G04 #@! TD*
D20*
G04 #@! TO.C,C8*
X119935000Y-70485000D03*
D21*
X114935000Y-70485000D03*
G04 #@! TD*
G04 #@! TO.C,C7*
G36*
G01*
X123515000Y-65655000D02*
X123515000Y-65155000D01*
G75*
G02*
X123740000Y-64930000I225000J0D01*
G01*
X124190000Y-64930000D01*
G75*
G02*
X124415000Y-65155000I0J-225000D01*
G01*
X124415000Y-65655000D01*
G75*
G02*
X124190000Y-65880000I-225000J0D01*
G01*
X123740000Y-65880000D01*
G75*
G02*
X123515000Y-65655000I0J225000D01*
G01*
G37*
G36*
G01*
X121965000Y-65655000D02*
X121965000Y-65155000D01*
G75*
G02*
X122190000Y-64930000I225000J0D01*
G01*
X122640000Y-64930000D01*
G75*
G02*
X122865000Y-65155000I0J-225000D01*
G01*
X122865000Y-65655000D01*
G75*
G02*
X122640000Y-65880000I-225000J0D01*
G01*
X122190000Y-65880000D01*
G75*
G02*
X121965000Y-65655000I0J225000D01*
G01*
G37*
G04 #@! TD*
G04 #@! TO.C,C6*
G36*
G01*
X115260000Y-64385000D02*
X115260000Y-63885000D01*
G75*
G02*
X115485000Y-63660000I225000J0D01*
G01*
X115935000Y-63660000D01*
G75*
G02*
X116160000Y-63885000I0J-225000D01*
G01*
X116160000Y-64385000D01*
G75*
G02*
X115935000Y-64610000I-225000J0D01*
G01*
X115485000Y-64610000D01*
G75*
G02*
X115260000Y-64385000I0J225000D01*
G01*
G37*
G36*
G01*
X113710000Y-64385000D02*
X113710000Y-63885000D01*
G75*
G02*
X113935000Y-63660000I225000J0D01*
G01*
X114385000Y-63660000D01*
G75*
G02*
X114610000Y-63885000I0J-225000D01*
G01*
X114610000Y-64385000D01*
G75*
G02*
X114385000Y-64610000I-225000J0D01*
G01*
X113935000Y-64610000D01*
G75*
G02*
X113710000Y-64385000I0J225000D01*
G01*
G37*
G04 #@! TD*
G04 #@! TO.C,C5*
G36*
G01*
X145105000Y-83435000D02*
X145105000Y-82935000D01*
G75*
G02*
X145330000Y-82710000I225000J0D01*
G01*
X145780000Y-82710000D01*
G75*
G02*
X146005000Y-82935000I0J-225000D01*
G01*
X146005000Y-83435000D01*
G75*
G02*
X145780000Y-83660000I-225000J0D01*
G01*
X145330000Y-83660000D01*
G75*
G02*
X145105000Y-83435000I0J225000D01*
G01*
G37*
G36*
G01*
X143555000Y-83435000D02*
X143555000Y-82935000D01*
G75*
G02*
X143780000Y-82710000I225000J0D01*
G01*
X144230000Y-82710000D01*
G75*
G02*
X144455000Y-82935000I0J-225000D01*
G01*
X144455000Y-83435000D01*
G75*
G02*
X144230000Y-83660000I-225000J0D01*
G01*
X143780000Y-83660000D01*
G75*
G02*
X143555000Y-83435000I0J225000D01*
G01*
G37*
G04 #@! TD*
G04 #@! TO.C,C4*
G36*
G01*
X158425000Y-68965000D02*
X158425000Y-69465000D01*
G75*
G02*
X158200000Y-69690000I-225000J0D01*
G01*
X157750000Y-69690000D01*
G75*
G02*
X157525000Y-69465000I0J225000D01*
G01*
X157525000Y-68965000D01*
G75*
G02*
X157750000Y-68740000I225000J0D01*
G01*
X158200000Y-68740000D01*
G75*
G02*
X158425000Y-68965000I0J-225000D01*
G01*
G37*
G36*
G01*
X159975000Y-68965000D02*
X159975000Y-69465000D01*
G75*
G02*
X159750000Y-69690000I-225000J0D01*
G01*
X159300000Y-69690000D01*
G75*
G02*
X159075000Y-69465000I0J225000D01*
G01*
X159075000Y-68965000D01*
G75*
G02*
X159300000Y-68740000I225000J0D01*
G01*
X159750000Y-68740000D01*
G75*
G02*
X159975000Y-68965000I0J-225000D01*
G01*
G37*
G04 #@! TD*
G04 #@! TO.C,C3*
G36*
G01*
X148915000Y-78990000D02*
X148915000Y-78490000D01*
G75*
G02*
X149140000Y-78265000I225000J0D01*
G01*
X149590000Y-78265000D01*
G75*
G02*
X149815000Y-78490000I0J-225000D01*
G01*
X149815000Y-78990000D01*
G75*
G02*
X149590000Y-79215000I-225000J0D01*
G01*
X149140000Y-79215000D01*
G75*
G02*
X148915000Y-78990000I0J225000D01*
G01*
G37*
G36*
G01*
X147365000Y-78990000D02*
X147365000Y-78490000D01*
G75*
G02*
X147590000Y-78265000I225000J0D01*
G01*
X148040000Y-78265000D01*
G75*
G02*
X148265000Y-78490000I0J-225000D01*
G01*
X148265000Y-78990000D01*
G75*
G02*
X148040000Y-79215000I-225000J0D01*
G01*
X147590000Y-79215000D01*
G75*
G02*
X147365000Y-78990000I0J225000D01*
G01*
G37*
G04 #@! TD*
G04 #@! TO.C,C2*
G36*
G01*
X153345000Y-68965000D02*
X153345000Y-69465000D01*
G75*
G02*
X153120000Y-69690000I-225000J0D01*
G01*
X152670000Y-69690000D01*
G75*
G02*
X152445000Y-69465000I0J225000D01*
G01*
X152445000Y-68965000D01*
G75*
G02*
X152670000Y-68740000I225000J0D01*
G01*
X153120000Y-68740000D01*
G75*
G02*
X153345000Y-68965000I0J-225000D01*
G01*
G37*
G36*
G01*
X154895000Y-68965000D02*
X154895000Y-69465000D01*
G75*
G02*
X154670000Y-69690000I-225000J0D01*
G01*
X154220000Y-69690000D01*
G75*
G02*
X153995000Y-69465000I0J225000D01*
G01*
X153995000Y-68965000D01*
G75*
G02*
X154220000Y-68740000I225000J0D01*
G01*
X154670000Y-68740000D01*
G75*
G02*
X154895000Y-68965000I0J-225000D01*
G01*
G37*
G04 #@! TD*
G04 #@! TO.C,C1*
G36*
G01*
X159075000Y-56765000D02*
X159075000Y-56265000D01*
G75*
G02*
X159300000Y-56040000I225000J0D01*
G01*
X159750000Y-56040000D01*
G75*
G02*
X159975000Y-56265000I0J-225000D01*
G01*
X159975000Y-56765000D01*
G75*
G02*
X159750000Y-56990000I-225000J0D01*
G01*
X159300000Y-56990000D01*
G75*
G02*
X159075000Y-56765000I0J225000D01*
G01*
G37*
G36*
G01*
X157525000Y-56765000D02*
X157525000Y-56265000D01*
G75*
G02*
X157750000Y-56040000I225000J0D01*
G01*
X158200000Y-56040000D01*
G75*
G02*
X158425000Y-56265000I0J-225000D01*
G01*
X158425000Y-56765000D01*
G75*
G02*
X158200000Y-56990000I-225000J0D01*
G01*
X157750000Y-56990000D01*
G75*
G02*
X157525000Y-56765000I0J225000D01*
G01*
G37*
G04 #@! TD*
M02*
