G04 #@! TF.GenerationSoftware,KiCad,Pcbnew,(5.1.10-1-10_14)*
G04 #@! TF.CreationDate,2021-07-23T17:52:14-07:00*
G04 #@! TF.ProjectId,qiroll PAS digital logic,7169726f-6c6c-4205-9041-532064696769,rev?*
G04 #@! TF.SameCoordinates,Original*
G04 #@! TF.FileFunction,Soldermask,Top*
G04 #@! TF.FilePolarity,Negative*
%FSLAX46Y46*%
G04 Gerber Fmt 4.6, Leading zero omitted, Abs format (unit mm)*
G04 Created by KiCad (PCBNEW (5.1.10-1-10_14)) date 2021-07-23 17:52:14*
%MOMM*%
%LPD*%
G01*
G04 APERTURE LIST*
%ADD10O,1.700000X1.700000*%
%ADD11R,1.700000X1.700000*%
%ADD12R,1.300000X1.700000*%
%ADD13C,1.600000*%
%ADD14R,1.600000X1.600000*%
%ADD15C,3.800000*%
%ADD16R,1.050000X1.500000*%
%ADD17O,1.050000X1.500000*%
%ADD18C,2.000000*%
%ADD19R,2.000000X2.000000*%
G04 APERTURE END LIST*
D10*
G04 #@! TO.C,J4*
X120015000Y-104140000D03*
X122555000Y-104140000D03*
X125095000Y-104140000D03*
D11*
X127635000Y-104140000D03*
G04 #@! TD*
G04 #@! TO.C,R11*
G36*
G01*
X153650000Y-125370000D02*
X153650000Y-124820000D01*
G75*
G02*
X153850000Y-124620000I200000J0D01*
G01*
X154250000Y-124620000D01*
G75*
G02*
X154450000Y-124820000I0J-200000D01*
G01*
X154450000Y-125370000D01*
G75*
G02*
X154250000Y-125570000I-200000J0D01*
G01*
X153850000Y-125570000D01*
G75*
G02*
X153650000Y-125370000I0J200000D01*
G01*
G37*
G36*
G01*
X152000000Y-125370000D02*
X152000000Y-124820000D01*
G75*
G02*
X152200000Y-124620000I200000J0D01*
G01*
X152600000Y-124620000D01*
G75*
G02*
X152800000Y-124820000I0J-200000D01*
G01*
X152800000Y-125370000D01*
G75*
G02*
X152600000Y-125570000I-200000J0D01*
G01*
X152200000Y-125570000D01*
G75*
G02*
X152000000Y-125370000I0J200000D01*
G01*
G37*
G04 #@! TD*
G04 #@! TO.C,R10*
G36*
G01*
X150070000Y-109580000D02*
X150070000Y-110130000D01*
G75*
G02*
X149870000Y-110330000I-200000J0D01*
G01*
X149470000Y-110330000D01*
G75*
G02*
X149270000Y-110130000I0J200000D01*
G01*
X149270000Y-109580000D01*
G75*
G02*
X149470000Y-109380000I200000J0D01*
G01*
X149870000Y-109380000D01*
G75*
G02*
X150070000Y-109580000I0J-200000D01*
G01*
G37*
G36*
G01*
X151720000Y-109580000D02*
X151720000Y-110130000D01*
G75*
G02*
X151520000Y-110330000I-200000J0D01*
G01*
X151120000Y-110330000D01*
G75*
G02*
X150920000Y-110130000I0J200000D01*
G01*
X150920000Y-109580000D01*
G75*
G02*
X151120000Y-109380000I200000J0D01*
G01*
X151520000Y-109380000D01*
G75*
G02*
X151720000Y-109580000I0J-200000D01*
G01*
G37*
G04 #@! TD*
G04 #@! TO.C,R9*
G36*
G01*
X154095000Y-107590000D02*
X154095000Y-107040000D01*
G75*
G02*
X154295000Y-106840000I200000J0D01*
G01*
X154695000Y-106840000D01*
G75*
G02*
X154895000Y-107040000I0J-200000D01*
G01*
X154895000Y-107590000D01*
G75*
G02*
X154695000Y-107790000I-200000J0D01*
G01*
X154295000Y-107790000D01*
G75*
G02*
X154095000Y-107590000I0J200000D01*
G01*
G37*
G36*
G01*
X152445000Y-107590000D02*
X152445000Y-107040000D01*
G75*
G02*
X152645000Y-106840000I200000J0D01*
G01*
X153045000Y-106840000D01*
G75*
G02*
X153245000Y-107040000I0J-200000D01*
G01*
X153245000Y-107590000D01*
G75*
G02*
X153045000Y-107790000I-200000J0D01*
G01*
X152645000Y-107790000D01*
G75*
G02*
X152445000Y-107590000I0J200000D01*
G01*
G37*
G04 #@! TD*
G04 #@! TO.C,R8*
G36*
G01*
X159660000Y-103715000D02*
X159110000Y-103715000D01*
G75*
G02*
X158910000Y-103515000I0J200000D01*
G01*
X158910000Y-103115000D01*
G75*
G02*
X159110000Y-102915000I200000J0D01*
G01*
X159660000Y-102915000D01*
G75*
G02*
X159860000Y-103115000I0J-200000D01*
G01*
X159860000Y-103515000D01*
G75*
G02*
X159660000Y-103715000I-200000J0D01*
G01*
G37*
G36*
G01*
X159660000Y-105365000D02*
X159110000Y-105365000D01*
G75*
G02*
X158910000Y-105165000I0J200000D01*
G01*
X158910000Y-104765000D01*
G75*
G02*
X159110000Y-104565000I200000J0D01*
G01*
X159660000Y-104565000D01*
G75*
G02*
X159860000Y-104765000I0J-200000D01*
G01*
X159860000Y-105165000D01*
G75*
G02*
X159660000Y-105365000I-200000J0D01*
G01*
G37*
G04 #@! TD*
G04 #@! TO.C,R6*
G36*
G01*
X154095000Y-121560000D02*
X154095000Y-121010000D01*
G75*
G02*
X154295000Y-120810000I200000J0D01*
G01*
X154695000Y-120810000D01*
G75*
G02*
X154895000Y-121010000I0J-200000D01*
G01*
X154895000Y-121560000D01*
G75*
G02*
X154695000Y-121760000I-200000J0D01*
G01*
X154295000Y-121760000D01*
G75*
G02*
X154095000Y-121560000I0J200000D01*
G01*
G37*
G36*
G01*
X152445000Y-121560000D02*
X152445000Y-121010000D01*
G75*
G02*
X152645000Y-120810000I200000J0D01*
G01*
X153045000Y-120810000D01*
G75*
G02*
X153245000Y-121010000I0J-200000D01*
G01*
X153245000Y-121560000D01*
G75*
G02*
X153045000Y-121760000I-200000J0D01*
G01*
X152645000Y-121760000D01*
G75*
G02*
X152445000Y-121560000I0J200000D01*
G01*
G37*
G04 #@! TD*
G04 #@! TO.C,R5*
G36*
G01*
X150070000Y-107040000D02*
X150070000Y-107590000D01*
G75*
G02*
X149870000Y-107790000I-200000J0D01*
G01*
X149470000Y-107790000D01*
G75*
G02*
X149270000Y-107590000I0J200000D01*
G01*
X149270000Y-107040000D01*
G75*
G02*
X149470000Y-106840000I200000J0D01*
G01*
X149870000Y-106840000D01*
G75*
G02*
X150070000Y-107040000I0J-200000D01*
G01*
G37*
G36*
G01*
X151720000Y-107040000D02*
X151720000Y-107590000D01*
G75*
G02*
X151520000Y-107790000I-200000J0D01*
G01*
X151120000Y-107790000D01*
G75*
G02*
X150920000Y-107590000I0J200000D01*
G01*
X150920000Y-107040000D01*
G75*
G02*
X151120000Y-106840000I200000J0D01*
G01*
X151520000Y-106840000D01*
G75*
G02*
X151720000Y-107040000I0J-200000D01*
G01*
G37*
G04 #@! TD*
G04 #@! TO.C,R4*
G36*
G01*
X150855000Y-120250000D02*
X151405000Y-120250000D01*
G75*
G02*
X151605000Y-120450000I0J-200000D01*
G01*
X151605000Y-120850000D01*
G75*
G02*
X151405000Y-121050000I-200000J0D01*
G01*
X150855000Y-121050000D01*
G75*
G02*
X150655000Y-120850000I0J200000D01*
G01*
X150655000Y-120450000D01*
G75*
G02*
X150855000Y-120250000I200000J0D01*
G01*
G37*
G36*
G01*
X150855000Y-118600000D02*
X151405000Y-118600000D01*
G75*
G02*
X151605000Y-118800000I0J-200000D01*
G01*
X151605000Y-119200000D01*
G75*
G02*
X151405000Y-119400000I-200000J0D01*
G01*
X150855000Y-119400000D01*
G75*
G02*
X150655000Y-119200000I0J200000D01*
G01*
X150655000Y-118800000D01*
G75*
G02*
X150855000Y-118600000I200000J0D01*
G01*
G37*
G04 #@! TD*
G04 #@! TO.C,R3*
G36*
G01*
X150070000Y-115295000D02*
X150070000Y-115845000D01*
G75*
G02*
X149870000Y-116045000I-200000J0D01*
G01*
X149470000Y-116045000D01*
G75*
G02*
X149270000Y-115845000I0J200000D01*
G01*
X149270000Y-115295000D01*
G75*
G02*
X149470000Y-115095000I200000J0D01*
G01*
X149870000Y-115095000D01*
G75*
G02*
X150070000Y-115295000I0J-200000D01*
G01*
G37*
G36*
G01*
X151720000Y-115295000D02*
X151720000Y-115845000D01*
G75*
G02*
X151520000Y-116045000I-200000J0D01*
G01*
X151120000Y-116045000D01*
G75*
G02*
X150920000Y-115845000I0J200000D01*
G01*
X150920000Y-115295000D01*
G75*
G02*
X151120000Y-115095000I200000J0D01*
G01*
X151520000Y-115095000D01*
G75*
G02*
X151720000Y-115295000I0J-200000D01*
G01*
G37*
G04 #@! TD*
G04 #@! TO.C,R2*
G36*
G01*
X157755000Y-103715000D02*
X157205000Y-103715000D01*
G75*
G02*
X157005000Y-103515000I0J200000D01*
G01*
X157005000Y-103115000D01*
G75*
G02*
X157205000Y-102915000I200000J0D01*
G01*
X157755000Y-102915000D01*
G75*
G02*
X157955000Y-103115000I0J-200000D01*
G01*
X157955000Y-103515000D01*
G75*
G02*
X157755000Y-103715000I-200000J0D01*
G01*
G37*
G36*
G01*
X157755000Y-105365000D02*
X157205000Y-105365000D01*
G75*
G02*
X157005000Y-105165000I0J200000D01*
G01*
X157005000Y-104765000D01*
G75*
G02*
X157205000Y-104565000I200000J0D01*
G01*
X157755000Y-104565000D01*
G75*
G02*
X157955000Y-104765000I0J-200000D01*
G01*
X157955000Y-105165000D01*
G75*
G02*
X157755000Y-105365000I-200000J0D01*
G01*
G37*
G04 #@! TD*
G04 #@! TO.C,R1*
G36*
G01*
X119805000Y-125370000D02*
X119805000Y-124820000D01*
G75*
G02*
X120005000Y-124620000I200000J0D01*
G01*
X120405000Y-124620000D01*
G75*
G02*
X120605000Y-124820000I0J-200000D01*
G01*
X120605000Y-125370000D01*
G75*
G02*
X120405000Y-125570000I-200000J0D01*
G01*
X120005000Y-125570000D01*
G75*
G02*
X119805000Y-125370000I0J200000D01*
G01*
G37*
G36*
G01*
X118155000Y-125370000D02*
X118155000Y-124820000D01*
G75*
G02*
X118355000Y-124620000I200000J0D01*
G01*
X118755000Y-124620000D01*
G75*
G02*
X118955000Y-124820000I0J-200000D01*
G01*
X118955000Y-125370000D01*
G75*
G02*
X118755000Y-125570000I-200000J0D01*
G01*
X118355000Y-125570000D01*
G75*
G02*
X118155000Y-125370000I0J200000D01*
G01*
G37*
G04 #@! TD*
G04 #@! TO.C,C9*
G36*
G01*
X157170000Y-107565000D02*
X157170000Y-107065000D01*
G75*
G02*
X157395000Y-106840000I225000J0D01*
G01*
X157845000Y-106840000D01*
G75*
G02*
X158070000Y-107065000I0J-225000D01*
G01*
X158070000Y-107565000D01*
G75*
G02*
X157845000Y-107790000I-225000J0D01*
G01*
X157395000Y-107790000D01*
G75*
G02*
X157170000Y-107565000I0J225000D01*
G01*
G37*
G36*
G01*
X155620000Y-107565000D02*
X155620000Y-107065000D01*
G75*
G02*
X155845000Y-106840000I225000J0D01*
G01*
X156295000Y-106840000D01*
G75*
G02*
X156520000Y-107065000I0J-225000D01*
G01*
X156520000Y-107565000D01*
G75*
G02*
X156295000Y-107790000I-225000J0D01*
G01*
X155845000Y-107790000D01*
G75*
G02*
X155620000Y-107565000I0J225000D01*
G01*
G37*
G04 #@! TD*
G04 #@! TO.C,C8*
G36*
G01*
X155325000Y-124150000D02*
X155825000Y-124150000D01*
G75*
G02*
X156050000Y-124375000I0J-225000D01*
G01*
X156050000Y-124825000D01*
G75*
G02*
X155825000Y-125050000I-225000J0D01*
G01*
X155325000Y-125050000D01*
G75*
G02*
X155100000Y-124825000I0J225000D01*
G01*
X155100000Y-124375000D01*
G75*
G02*
X155325000Y-124150000I225000J0D01*
G01*
G37*
G36*
G01*
X155325000Y-122600000D02*
X155825000Y-122600000D01*
G75*
G02*
X156050000Y-122825000I0J-225000D01*
G01*
X156050000Y-123275000D01*
G75*
G02*
X155825000Y-123500000I-225000J0D01*
G01*
X155325000Y-123500000D01*
G75*
G02*
X155100000Y-123275000I0J225000D01*
G01*
X155100000Y-122825000D01*
G75*
G02*
X155325000Y-122600000I225000J0D01*
G01*
G37*
G04 #@! TD*
G04 #@! TO.C,C6*
G36*
G01*
X159635000Y-100640000D02*
X159135000Y-100640000D01*
G75*
G02*
X158910000Y-100415000I0J225000D01*
G01*
X158910000Y-99965000D01*
G75*
G02*
X159135000Y-99740000I225000J0D01*
G01*
X159635000Y-99740000D01*
G75*
G02*
X159860000Y-99965000I0J-225000D01*
G01*
X159860000Y-100415000D01*
G75*
G02*
X159635000Y-100640000I-225000J0D01*
G01*
G37*
G36*
G01*
X159635000Y-102190000D02*
X159135000Y-102190000D01*
G75*
G02*
X158910000Y-101965000I0J225000D01*
G01*
X158910000Y-101515000D01*
G75*
G02*
X159135000Y-101290000I225000J0D01*
G01*
X159635000Y-101290000D01*
G75*
G02*
X159860000Y-101515000I0J-225000D01*
G01*
X159860000Y-101965000D01*
G75*
G02*
X159635000Y-102190000I-225000J0D01*
G01*
G37*
G04 #@! TD*
G04 #@! TO.C,C5*
G36*
G01*
X157730000Y-100640000D02*
X157230000Y-100640000D01*
G75*
G02*
X157005000Y-100415000I0J225000D01*
G01*
X157005000Y-99965000D01*
G75*
G02*
X157230000Y-99740000I225000J0D01*
G01*
X157730000Y-99740000D01*
G75*
G02*
X157955000Y-99965000I0J-225000D01*
G01*
X157955000Y-100415000D01*
G75*
G02*
X157730000Y-100640000I-225000J0D01*
G01*
G37*
G36*
G01*
X157730000Y-102190000D02*
X157230000Y-102190000D01*
G75*
G02*
X157005000Y-101965000I0J225000D01*
G01*
X157005000Y-101515000D01*
G75*
G02*
X157230000Y-101290000I225000J0D01*
G01*
X157730000Y-101290000D01*
G75*
G02*
X157955000Y-101515000I0J-225000D01*
G01*
X157955000Y-101965000D01*
G75*
G02*
X157730000Y-102190000I-225000J0D01*
G01*
G37*
G04 #@! TD*
G04 #@! TO.C,C4*
G36*
G01*
X152710000Y-122940000D02*
X152710000Y-123440000D01*
G75*
G02*
X152485000Y-123665000I-225000J0D01*
G01*
X152035000Y-123665000D01*
G75*
G02*
X151810000Y-123440000I0J225000D01*
G01*
X151810000Y-122940000D01*
G75*
G02*
X152035000Y-122715000I225000J0D01*
G01*
X152485000Y-122715000D01*
G75*
G02*
X152710000Y-122940000I0J-225000D01*
G01*
G37*
G36*
G01*
X154260000Y-122940000D02*
X154260000Y-123440000D01*
G75*
G02*
X154035000Y-123665000I-225000J0D01*
G01*
X153585000Y-123665000D01*
G75*
G02*
X153360000Y-123440000I0J225000D01*
G01*
X153360000Y-122940000D01*
G75*
G02*
X153585000Y-122715000I225000J0D01*
G01*
X154035000Y-122715000D01*
G75*
G02*
X154260000Y-122940000I0J-225000D01*
G01*
G37*
G04 #@! TD*
G04 #@! TO.C,C3*
G36*
G01*
X139390000Y-106930000D02*
X139390000Y-106430000D01*
G75*
G02*
X139615000Y-106205000I225000J0D01*
G01*
X140065000Y-106205000D01*
G75*
G02*
X140290000Y-106430000I0J-225000D01*
G01*
X140290000Y-106930000D01*
G75*
G02*
X140065000Y-107155000I-225000J0D01*
G01*
X139615000Y-107155000D01*
G75*
G02*
X139390000Y-106930000I0J225000D01*
G01*
G37*
G36*
G01*
X137840000Y-106930000D02*
X137840000Y-106430000D01*
G75*
G02*
X138065000Y-106205000I225000J0D01*
G01*
X138515000Y-106205000D01*
G75*
G02*
X138740000Y-106430000I0J-225000D01*
G01*
X138740000Y-106930000D01*
G75*
G02*
X138515000Y-107155000I-225000J0D01*
G01*
X138065000Y-107155000D01*
G75*
G02*
X137840000Y-106930000I0J225000D01*
G01*
G37*
G04 #@! TD*
G04 #@! TO.C,C2*
G36*
G01*
X150170000Y-112780000D02*
X150170000Y-113280000D01*
G75*
G02*
X149945000Y-113505000I-225000J0D01*
G01*
X149495000Y-113505000D01*
G75*
G02*
X149270000Y-113280000I0J225000D01*
G01*
X149270000Y-112780000D01*
G75*
G02*
X149495000Y-112555000I225000J0D01*
G01*
X149945000Y-112555000D01*
G75*
G02*
X150170000Y-112780000I0J-225000D01*
G01*
G37*
G36*
G01*
X151720000Y-112780000D02*
X151720000Y-113280000D01*
G75*
G02*
X151495000Y-113505000I-225000J0D01*
G01*
X151045000Y-113505000D01*
G75*
G02*
X150820000Y-113280000I0J225000D01*
G01*
X150820000Y-112780000D01*
G75*
G02*
X151045000Y-112555000I225000J0D01*
G01*
X151495000Y-112555000D01*
G75*
G02*
X151720000Y-112780000I0J-225000D01*
G01*
G37*
G04 #@! TD*
G04 #@! TO.C,C1*
G36*
G01*
X119055000Y-122940000D02*
X119055000Y-123440000D01*
G75*
G02*
X118830000Y-123665000I-225000J0D01*
G01*
X118380000Y-123665000D01*
G75*
G02*
X118155000Y-123440000I0J225000D01*
G01*
X118155000Y-122940000D01*
G75*
G02*
X118380000Y-122715000I225000J0D01*
G01*
X118830000Y-122715000D01*
G75*
G02*
X119055000Y-122940000I0J-225000D01*
G01*
G37*
G36*
G01*
X120605000Y-122940000D02*
X120605000Y-123440000D01*
G75*
G02*
X120380000Y-123665000I-225000J0D01*
G01*
X119930000Y-123665000D01*
G75*
G02*
X119705000Y-123440000I0J225000D01*
G01*
X119705000Y-122940000D01*
G75*
G02*
X119930000Y-122715000I225000J0D01*
G01*
X120380000Y-122715000D01*
G75*
G02*
X120605000Y-122940000I0J-225000D01*
G01*
G37*
G04 #@! TD*
D12*
G04 #@! TO.C,D1*
X118590000Y-109855000D03*
X115090000Y-109855000D03*
G04 #@! TD*
G04 #@! TO.C,F1*
G36*
G01*
X116830000Y-101460000D02*
X115580000Y-101460000D01*
G75*
G02*
X115330000Y-101210000I0J250000D01*
G01*
X115330000Y-100460000D01*
G75*
G02*
X115580000Y-100210000I250000J0D01*
G01*
X116830000Y-100210000D01*
G75*
G02*
X117080000Y-100460000I0J-250000D01*
G01*
X117080000Y-101210000D01*
G75*
G02*
X116830000Y-101460000I-250000J0D01*
G01*
G37*
G36*
G01*
X116830000Y-104260000D02*
X115580000Y-104260000D01*
G75*
G02*
X115330000Y-104010000I0J250000D01*
G01*
X115330000Y-103260000D01*
G75*
G02*
X115580000Y-103010000I250000J0D01*
G01*
X116830000Y-103010000D01*
G75*
G02*
X117080000Y-103260000I0J-250000D01*
G01*
X117080000Y-104010000D01*
G75*
G02*
X116830000Y-104260000I-250000J0D01*
G01*
G37*
G04 #@! TD*
G04 #@! TO.C,R7*
G36*
G01*
X117050000Y-107040000D02*
X117050000Y-107590000D01*
G75*
G02*
X116850000Y-107790000I-200000J0D01*
G01*
X116450000Y-107790000D01*
G75*
G02*
X116250000Y-107590000I0J200000D01*
G01*
X116250000Y-107040000D01*
G75*
G02*
X116450000Y-106840000I200000J0D01*
G01*
X116850000Y-106840000D01*
G75*
G02*
X117050000Y-107040000I0J-200000D01*
G01*
G37*
G36*
G01*
X118700000Y-107040000D02*
X118700000Y-107590000D01*
G75*
G02*
X118500000Y-107790000I-200000J0D01*
G01*
X118100000Y-107790000D01*
G75*
G02*
X117900000Y-107590000I0J200000D01*
G01*
X117900000Y-107040000D01*
G75*
G02*
X118100000Y-106840000I200000J0D01*
G01*
X118500000Y-106840000D01*
G75*
G02*
X118700000Y-107040000I0J-200000D01*
G01*
G37*
G04 #@! TD*
D10*
G04 #@! TO.C,J1*
X151130000Y-104140000D03*
D11*
X153670000Y-104140000D03*
G04 #@! TD*
D10*
G04 #@! TO.C,J5*
X141605000Y-104140000D03*
X144145000Y-104140000D03*
D11*
X146685000Y-104140000D03*
G04 #@! TD*
D10*
G04 #@! TO.C,J2*
X132080000Y-104140000D03*
X134620000Y-104140000D03*
D11*
X137160000Y-104140000D03*
G04 #@! TD*
D13*
G04 #@! TO.C,C12*
X130770000Y-110490000D03*
D14*
X128270000Y-110490000D03*
G04 #@! TD*
G04 #@! TO.C,C13*
G36*
G01*
X124770000Y-114050000D02*
X124770000Y-114550000D01*
G75*
G02*
X124545000Y-114775000I-225000J0D01*
G01*
X124095000Y-114775000D01*
G75*
G02*
X123870000Y-114550000I0J225000D01*
G01*
X123870000Y-114050000D01*
G75*
G02*
X124095000Y-113825000I225000J0D01*
G01*
X124545000Y-113825000D01*
G75*
G02*
X124770000Y-114050000I0J-225000D01*
G01*
G37*
G36*
G01*
X126320000Y-114050000D02*
X126320000Y-114550000D01*
G75*
G02*
X126095000Y-114775000I-225000J0D01*
G01*
X125645000Y-114775000D01*
G75*
G02*
X125420000Y-114550000I0J225000D01*
G01*
X125420000Y-114050000D01*
G75*
G02*
X125645000Y-113825000I225000J0D01*
G01*
X126095000Y-113825000D01*
G75*
G02*
X126320000Y-114050000I0J-225000D01*
G01*
G37*
G04 #@! TD*
G04 #@! TO.C,C11*
G36*
G01*
X123515000Y-112645000D02*
X123515000Y-112145000D01*
G75*
G02*
X123740000Y-111920000I225000J0D01*
G01*
X124190000Y-111920000D01*
G75*
G02*
X124415000Y-112145000I0J-225000D01*
G01*
X124415000Y-112645000D01*
G75*
G02*
X124190000Y-112870000I-225000J0D01*
G01*
X123740000Y-112870000D01*
G75*
G02*
X123515000Y-112645000I0J225000D01*
G01*
G37*
G36*
G01*
X121965000Y-112645000D02*
X121965000Y-112145000D01*
G75*
G02*
X122190000Y-111920000I225000J0D01*
G01*
X122640000Y-111920000D01*
G75*
G02*
X122865000Y-112145000I0J-225000D01*
G01*
X122865000Y-112645000D01*
G75*
G02*
X122640000Y-112870000I-225000J0D01*
G01*
X122190000Y-112870000D01*
G75*
G02*
X121965000Y-112645000I0J225000D01*
G01*
G37*
G04 #@! TD*
D15*
G04 #@! TO.C,H4*
X114300000Y-96520000D03*
G04 #@! TD*
G04 #@! TO.C,H3*
X158750000Y-96520000D03*
G04 #@! TD*
D10*
G04 #@! TO.C,J6*
X134820000Y-111760000D03*
D11*
X134820000Y-109220000D03*
G04 #@! TD*
D10*
G04 #@! TO.C,J3*
X138430000Y-109220000D03*
D11*
X138430000Y-111760000D03*
G04 #@! TD*
D16*
G04 #@! TO.C,U7*
X121920000Y-109220000D03*
D17*
X124460000Y-109220000D03*
X123190000Y-109220000D03*
G04 #@! TD*
G04 #@! TO.C,U6*
G36*
G01*
X157710000Y-110640000D02*
X157710000Y-110340000D01*
G75*
G02*
X157860000Y-110190000I150000J0D01*
G01*
X159510000Y-110190000D01*
G75*
G02*
X159660000Y-110340000I0J-150000D01*
G01*
X159660000Y-110640000D01*
G75*
G02*
X159510000Y-110790000I-150000J0D01*
G01*
X157860000Y-110790000D01*
G75*
G02*
X157710000Y-110640000I0J150000D01*
G01*
G37*
G36*
G01*
X157710000Y-111910000D02*
X157710000Y-111610000D01*
G75*
G02*
X157860000Y-111460000I150000J0D01*
G01*
X159510000Y-111460000D01*
G75*
G02*
X159660000Y-111610000I0J-150000D01*
G01*
X159660000Y-111910000D01*
G75*
G02*
X159510000Y-112060000I-150000J0D01*
G01*
X157860000Y-112060000D01*
G75*
G02*
X157710000Y-111910000I0J150000D01*
G01*
G37*
G36*
G01*
X157710000Y-113180000D02*
X157710000Y-112880000D01*
G75*
G02*
X157860000Y-112730000I150000J0D01*
G01*
X159510000Y-112730000D01*
G75*
G02*
X159660000Y-112880000I0J-150000D01*
G01*
X159660000Y-113180000D01*
G75*
G02*
X159510000Y-113330000I-150000J0D01*
G01*
X157860000Y-113330000D01*
G75*
G02*
X157710000Y-113180000I0J150000D01*
G01*
G37*
G36*
G01*
X157710000Y-114450000D02*
X157710000Y-114150000D01*
G75*
G02*
X157860000Y-114000000I150000J0D01*
G01*
X159510000Y-114000000D01*
G75*
G02*
X159660000Y-114150000I0J-150000D01*
G01*
X159660000Y-114450000D01*
G75*
G02*
X159510000Y-114600000I-150000J0D01*
G01*
X157860000Y-114600000D01*
G75*
G02*
X157710000Y-114450000I0J150000D01*
G01*
G37*
G36*
G01*
X157710000Y-115720000D02*
X157710000Y-115420000D01*
G75*
G02*
X157860000Y-115270000I150000J0D01*
G01*
X159510000Y-115270000D01*
G75*
G02*
X159660000Y-115420000I0J-150000D01*
G01*
X159660000Y-115720000D01*
G75*
G02*
X159510000Y-115870000I-150000J0D01*
G01*
X157860000Y-115870000D01*
G75*
G02*
X157710000Y-115720000I0J150000D01*
G01*
G37*
G36*
G01*
X157710000Y-116990000D02*
X157710000Y-116690000D01*
G75*
G02*
X157860000Y-116540000I150000J0D01*
G01*
X159510000Y-116540000D01*
G75*
G02*
X159660000Y-116690000I0J-150000D01*
G01*
X159660000Y-116990000D01*
G75*
G02*
X159510000Y-117140000I-150000J0D01*
G01*
X157860000Y-117140000D01*
G75*
G02*
X157710000Y-116990000I0J150000D01*
G01*
G37*
G36*
G01*
X157710000Y-118260000D02*
X157710000Y-117960000D01*
G75*
G02*
X157860000Y-117810000I150000J0D01*
G01*
X159510000Y-117810000D01*
G75*
G02*
X159660000Y-117960000I0J-150000D01*
G01*
X159660000Y-118260000D01*
G75*
G02*
X159510000Y-118410000I-150000J0D01*
G01*
X157860000Y-118410000D01*
G75*
G02*
X157710000Y-118260000I0J150000D01*
G01*
G37*
G36*
G01*
X157710000Y-119530000D02*
X157710000Y-119230000D01*
G75*
G02*
X157860000Y-119080000I150000J0D01*
G01*
X159510000Y-119080000D01*
G75*
G02*
X159660000Y-119230000I0J-150000D01*
G01*
X159660000Y-119530000D01*
G75*
G02*
X159510000Y-119680000I-150000J0D01*
G01*
X157860000Y-119680000D01*
G75*
G02*
X157710000Y-119530000I0J150000D01*
G01*
G37*
G36*
G01*
X152760000Y-119530000D02*
X152760000Y-119230000D01*
G75*
G02*
X152910000Y-119080000I150000J0D01*
G01*
X154560000Y-119080000D01*
G75*
G02*
X154710000Y-119230000I0J-150000D01*
G01*
X154710000Y-119530000D01*
G75*
G02*
X154560000Y-119680000I-150000J0D01*
G01*
X152910000Y-119680000D01*
G75*
G02*
X152760000Y-119530000I0J150000D01*
G01*
G37*
G36*
G01*
X152760000Y-118260000D02*
X152760000Y-117960000D01*
G75*
G02*
X152910000Y-117810000I150000J0D01*
G01*
X154560000Y-117810000D01*
G75*
G02*
X154710000Y-117960000I0J-150000D01*
G01*
X154710000Y-118260000D01*
G75*
G02*
X154560000Y-118410000I-150000J0D01*
G01*
X152910000Y-118410000D01*
G75*
G02*
X152760000Y-118260000I0J150000D01*
G01*
G37*
G36*
G01*
X152760000Y-116990000D02*
X152760000Y-116690000D01*
G75*
G02*
X152910000Y-116540000I150000J0D01*
G01*
X154560000Y-116540000D01*
G75*
G02*
X154710000Y-116690000I0J-150000D01*
G01*
X154710000Y-116990000D01*
G75*
G02*
X154560000Y-117140000I-150000J0D01*
G01*
X152910000Y-117140000D01*
G75*
G02*
X152760000Y-116990000I0J150000D01*
G01*
G37*
G36*
G01*
X152760000Y-115720000D02*
X152760000Y-115420000D01*
G75*
G02*
X152910000Y-115270000I150000J0D01*
G01*
X154560000Y-115270000D01*
G75*
G02*
X154710000Y-115420000I0J-150000D01*
G01*
X154710000Y-115720000D01*
G75*
G02*
X154560000Y-115870000I-150000J0D01*
G01*
X152910000Y-115870000D01*
G75*
G02*
X152760000Y-115720000I0J150000D01*
G01*
G37*
G36*
G01*
X152760000Y-114450000D02*
X152760000Y-114150000D01*
G75*
G02*
X152910000Y-114000000I150000J0D01*
G01*
X154560000Y-114000000D01*
G75*
G02*
X154710000Y-114150000I0J-150000D01*
G01*
X154710000Y-114450000D01*
G75*
G02*
X154560000Y-114600000I-150000J0D01*
G01*
X152910000Y-114600000D01*
G75*
G02*
X152760000Y-114450000I0J150000D01*
G01*
G37*
G36*
G01*
X152760000Y-113180000D02*
X152760000Y-112880000D01*
G75*
G02*
X152910000Y-112730000I150000J0D01*
G01*
X154560000Y-112730000D01*
G75*
G02*
X154710000Y-112880000I0J-150000D01*
G01*
X154710000Y-113180000D01*
G75*
G02*
X154560000Y-113330000I-150000J0D01*
G01*
X152910000Y-113330000D01*
G75*
G02*
X152760000Y-113180000I0J150000D01*
G01*
G37*
G36*
G01*
X152760000Y-111910000D02*
X152760000Y-111610000D01*
G75*
G02*
X152910000Y-111460000I150000J0D01*
G01*
X154560000Y-111460000D01*
G75*
G02*
X154710000Y-111610000I0J-150000D01*
G01*
X154710000Y-111910000D01*
G75*
G02*
X154560000Y-112060000I-150000J0D01*
G01*
X152910000Y-112060000D01*
G75*
G02*
X152760000Y-111910000I0J150000D01*
G01*
G37*
G36*
G01*
X152760000Y-110640000D02*
X152760000Y-110340000D01*
G75*
G02*
X152910000Y-110190000I150000J0D01*
G01*
X154560000Y-110190000D01*
G75*
G02*
X154710000Y-110340000I0J-150000D01*
G01*
X154710000Y-110640000D01*
G75*
G02*
X154560000Y-110790000I-150000J0D01*
G01*
X152910000Y-110790000D01*
G75*
G02*
X152760000Y-110640000I0J150000D01*
G01*
G37*
G04 #@! TD*
G04 #@! TO.C,U3*
G36*
G01*
X146280000Y-107465000D02*
X146280000Y-107165000D01*
G75*
G02*
X146430000Y-107015000I150000J0D01*
G01*
X148080000Y-107015000D01*
G75*
G02*
X148230000Y-107165000I0J-150000D01*
G01*
X148230000Y-107465000D01*
G75*
G02*
X148080000Y-107615000I-150000J0D01*
G01*
X146430000Y-107615000D01*
G75*
G02*
X146280000Y-107465000I0J150000D01*
G01*
G37*
G36*
G01*
X146280000Y-108735000D02*
X146280000Y-108435000D01*
G75*
G02*
X146430000Y-108285000I150000J0D01*
G01*
X148080000Y-108285000D01*
G75*
G02*
X148230000Y-108435000I0J-150000D01*
G01*
X148230000Y-108735000D01*
G75*
G02*
X148080000Y-108885000I-150000J0D01*
G01*
X146430000Y-108885000D01*
G75*
G02*
X146280000Y-108735000I0J150000D01*
G01*
G37*
G36*
G01*
X146280000Y-110005000D02*
X146280000Y-109705000D01*
G75*
G02*
X146430000Y-109555000I150000J0D01*
G01*
X148080000Y-109555000D01*
G75*
G02*
X148230000Y-109705000I0J-150000D01*
G01*
X148230000Y-110005000D01*
G75*
G02*
X148080000Y-110155000I-150000J0D01*
G01*
X146430000Y-110155000D01*
G75*
G02*
X146280000Y-110005000I0J150000D01*
G01*
G37*
G36*
G01*
X146280000Y-111275000D02*
X146280000Y-110975000D01*
G75*
G02*
X146430000Y-110825000I150000J0D01*
G01*
X148080000Y-110825000D01*
G75*
G02*
X148230000Y-110975000I0J-150000D01*
G01*
X148230000Y-111275000D01*
G75*
G02*
X148080000Y-111425000I-150000J0D01*
G01*
X146430000Y-111425000D01*
G75*
G02*
X146280000Y-111275000I0J150000D01*
G01*
G37*
G36*
G01*
X146280000Y-112545000D02*
X146280000Y-112245000D01*
G75*
G02*
X146430000Y-112095000I150000J0D01*
G01*
X148080000Y-112095000D01*
G75*
G02*
X148230000Y-112245000I0J-150000D01*
G01*
X148230000Y-112545000D01*
G75*
G02*
X148080000Y-112695000I-150000J0D01*
G01*
X146430000Y-112695000D01*
G75*
G02*
X146280000Y-112545000I0J150000D01*
G01*
G37*
G36*
G01*
X146280000Y-113815000D02*
X146280000Y-113515000D01*
G75*
G02*
X146430000Y-113365000I150000J0D01*
G01*
X148080000Y-113365000D01*
G75*
G02*
X148230000Y-113515000I0J-150000D01*
G01*
X148230000Y-113815000D01*
G75*
G02*
X148080000Y-113965000I-150000J0D01*
G01*
X146430000Y-113965000D01*
G75*
G02*
X146280000Y-113815000I0J150000D01*
G01*
G37*
G36*
G01*
X146280000Y-115085000D02*
X146280000Y-114785000D01*
G75*
G02*
X146430000Y-114635000I150000J0D01*
G01*
X148080000Y-114635000D01*
G75*
G02*
X148230000Y-114785000I0J-150000D01*
G01*
X148230000Y-115085000D01*
G75*
G02*
X148080000Y-115235000I-150000J0D01*
G01*
X146430000Y-115235000D01*
G75*
G02*
X146280000Y-115085000I0J150000D01*
G01*
G37*
G36*
G01*
X141330000Y-115085000D02*
X141330000Y-114785000D01*
G75*
G02*
X141480000Y-114635000I150000J0D01*
G01*
X143130000Y-114635000D01*
G75*
G02*
X143280000Y-114785000I0J-150000D01*
G01*
X143280000Y-115085000D01*
G75*
G02*
X143130000Y-115235000I-150000J0D01*
G01*
X141480000Y-115235000D01*
G75*
G02*
X141330000Y-115085000I0J150000D01*
G01*
G37*
G36*
G01*
X141330000Y-113815000D02*
X141330000Y-113515000D01*
G75*
G02*
X141480000Y-113365000I150000J0D01*
G01*
X143130000Y-113365000D01*
G75*
G02*
X143280000Y-113515000I0J-150000D01*
G01*
X143280000Y-113815000D01*
G75*
G02*
X143130000Y-113965000I-150000J0D01*
G01*
X141480000Y-113965000D01*
G75*
G02*
X141330000Y-113815000I0J150000D01*
G01*
G37*
G36*
G01*
X141330000Y-112545000D02*
X141330000Y-112245000D01*
G75*
G02*
X141480000Y-112095000I150000J0D01*
G01*
X143130000Y-112095000D01*
G75*
G02*
X143280000Y-112245000I0J-150000D01*
G01*
X143280000Y-112545000D01*
G75*
G02*
X143130000Y-112695000I-150000J0D01*
G01*
X141480000Y-112695000D01*
G75*
G02*
X141330000Y-112545000I0J150000D01*
G01*
G37*
G36*
G01*
X141330000Y-111275000D02*
X141330000Y-110975000D01*
G75*
G02*
X141480000Y-110825000I150000J0D01*
G01*
X143130000Y-110825000D01*
G75*
G02*
X143280000Y-110975000I0J-150000D01*
G01*
X143280000Y-111275000D01*
G75*
G02*
X143130000Y-111425000I-150000J0D01*
G01*
X141480000Y-111425000D01*
G75*
G02*
X141330000Y-111275000I0J150000D01*
G01*
G37*
G36*
G01*
X141330000Y-110005000D02*
X141330000Y-109705000D01*
G75*
G02*
X141480000Y-109555000I150000J0D01*
G01*
X143130000Y-109555000D01*
G75*
G02*
X143280000Y-109705000I0J-150000D01*
G01*
X143280000Y-110005000D01*
G75*
G02*
X143130000Y-110155000I-150000J0D01*
G01*
X141480000Y-110155000D01*
G75*
G02*
X141330000Y-110005000I0J150000D01*
G01*
G37*
G36*
G01*
X141330000Y-108735000D02*
X141330000Y-108435000D01*
G75*
G02*
X141480000Y-108285000I150000J0D01*
G01*
X143130000Y-108285000D01*
G75*
G02*
X143280000Y-108435000I0J-150000D01*
G01*
X143280000Y-108735000D01*
G75*
G02*
X143130000Y-108885000I-150000J0D01*
G01*
X141480000Y-108885000D01*
G75*
G02*
X141330000Y-108735000I0J150000D01*
G01*
G37*
G36*
G01*
X141330000Y-107465000D02*
X141330000Y-107165000D01*
G75*
G02*
X141480000Y-107015000I150000J0D01*
G01*
X143130000Y-107015000D01*
G75*
G02*
X143280000Y-107165000I0J-150000D01*
G01*
X143280000Y-107465000D01*
G75*
G02*
X143130000Y-107615000I-150000J0D01*
G01*
X141480000Y-107615000D01*
G75*
G02*
X141330000Y-107465000I0J150000D01*
G01*
G37*
G04 #@! TD*
G04 #@! TO.C,U2*
G36*
G01*
X138025000Y-116355000D02*
X138025000Y-116055000D01*
G75*
G02*
X138175000Y-115905000I150000J0D01*
G01*
X139825000Y-115905000D01*
G75*
G02*
X139975000Y-116055000I0J-150000D01*
G01*
X139975000Y-116355000D01*
G75*
G02*
X139825000Y-116505000I-150000J0D01*
G01*
X138175000Y-116505000D01*
G75*
G02*
X138025000Y-116355000I0J150000D01*
G01*
G37*
G36*
G01*
X138025000Y-117625000D02*
X138025000Y-117325000D01*
G75*
G02*
X138175000Y-117175000I150000J0D01*
G01*
X139825000Y-117175000D01*
G75*
G02*
X139975000Y-117325000I0J-150000D01*
G01*
X139975000Y-117625000D01*
G75*
G02*
X139825000Y-117775000I-150000J0D01*
G01*
X138175000Y-117775000D01*
G75*
G02*
X138025000Y-117625000I0J150000D01*
G01*
G37*
G36*
G01*
X138025000Y-118895000D02*
X138025000Y-118595000D01*
G75*
G02*
X138175000Y-118445000I150000J0D01*
G01*
X139825000Y-118445000D01*
G75*
G02*
X139975000Y-118595000I0J-150000D01*
G01*
X139975000Y-118895000D01*
G75*
G02*
X139825000Y-119045000I-150000J0D01*
G01*
X138175000Y-119045000D01*
G75*
G02*
X138025000Y-118895000I0J150000D01*
G01*
G37*
G36*
G01*
X138025000Y-120165000D02*
X138025000Y-119865000D01*
G75*
G02*
X138175000Y-119715000I150000J0D01*
G01*
X139825000Y-119715000D01*
G75*
G02*
X139975000Y-119865000I0J-150000D01*
G01*
X139975000Y-120165000D01*
G75*
G02*
X139825000Y-120315000I-150000J0D01*
G01*
X138175000Y-120315000D01*
G75*
G02*
X138025000Y-120165000I0J150000D01*
G01*
G37*
G36*
G01*
X138025000Y-121435000D02*
X138025000Y-121135000D01*
G75*
G02*
X138175000Y-120985000I150000J0D01*
G01*
X139825000Y-120985000D01*
G75*
G02*
X139975000Y-121135000I0J-150000D01*
G01*
X139975000Y-121435000D01*
G75*
G02*
X139825000Y-121585000I-150000J0D01*
G01*
X138175000Y-121585000D01*
G75*
G02*
X138025000Y-121435000I0J150000D01*
G01*
G37*
G36*
G01*
X138025000Y-122705000D02*
X138025000Y-122405000D01*
G75*
G02*
X138175000Y-122255000I150000J0D01*
G01*
X139825000Y-122255000D01*
G75*
G02*
X139975000Y-122405000I0J-150000D01*
G01*
X139975000Y-122705000D01*
G75*
G02*
X139825000Y-122855000I-150000J0D01*
G01*
X138175000Y-122855000D01*
G75*
G02*
X138025000Y-122705000I0J150000D01*
G01*
G37*
G36*
G01*
X138025000Y-123975000D02*
X138025000Y-123675000D01*
G75*
G02*
X138175000Y-123525000I150000J0D01*
G01*
X139825000Y-123525000D01*
G75*
G02*
X139975000Y-123675000I0J-150000D01*
G01*
X139975000Y-123975000D01*
G75*
G02*
X139825000Y-124125000I-150000J0D01*
G01*
X138175000Y-124125000D01*
G75*
G02*
X138025000Y-123975000I0J150000D01*
G01*
G37*
G36*
G01*
X138025000Y-125245000D02*
X138025000Y-124945000D01*
G75*
G02*
X138175000Y-124795000I150000J0D01*
G01*
X139825000Y-124795000D01*
G75*
G02*
X139975000Y-124945000I0J-150000D01*
G01*
X139975000Y-125245000D01*
G75*
G02*
X139825000Y-125395000I-150000J0D01*
G01*
X138175000Y-125395000D01*
G75*
G02*
X138025000Y-125245000I0J150000D01*
G01*
G37*
G36*
G01*
X133075000Y-125245000D02*
X133075000Y-124945000D01*
G75*
G02*
X133225000Y-124795000I150000J0D01*
G01*
X134875000Y-124795000D01*
G75*
G02*
X135025000Y-124945000I0J-150000D01*
G01*
X135025000Y-125245000D01*
G75*
G02*
X134875000Y-125395000I-150000J0D01*
G01*
X133225000Y-125395000D01*
G75*
G02*
X133075000Y-125245000I0J150000D01*
G01*
G37*
G36*
G01*
X133075000Y-123975000D02*
X133075000Y-123675000D01*
G75*
G02*
X133225000Y-123525000I150000J0D01*
G01*
X134875000Y-123525000D01*
G75*
G02*
X135025000Y-123675000I0J-150000D01*
G01*
X135025000Y-123975000D01*
G75*
G02*
X134875000Y-124125000I-150000J0D01*
G01*
X133225000Y-124125000D01*
G75*
G02*
X133075000Y-123975000I0J150000D01*
G01*
G37*
G36*
G01*
X133075000Y-122705000D02*
X133075000Y-122405000D01*
G75*
G02*
X133225000Y-122255000I150000J0D01*
G01*
X134875000Y-122255000D01*
G75*
G02*
X135025000Y-122405000I0J-150000D01*
G01*
X135025000Y-122705000D01*
G75*
G02*
X134875000Y-122855000I-150000J0D01*
G01*
X133225000Y-122855000D01*
G75*
G02*
X133075000Y-122705000I0J150000D01*
G01*
G37*
G36*
G01*
X133075000Y-121435000D02*
X133075000Y-121135000D01*
G75*
G02*
X133225000Y-120985000I150000J0D01*
G01*
X134875000Y-120985000D01*
G75*
G02*
X135025000Y-121135000I0J-150000D01*
G01*
X135025000Y-121435000D01*
G75*
G02*
X134875000Y-121585000I-150000J0D01*
G01*
X133225000Y-121585000D01*
G75*
G02*
X133075000Y-121435000I0J150000D01*
G01*
G37*
G36*
G01*
X133075000Y-120165000D02*
X133075000Y-119865000D01*
G75*
G02*
X133225000Y-119715000I150000J0D01*
G01*
X134875000Y-119715000D01*
G75*
G02*
X135025000Y-119865000I0J-150000D01*
G01*
X135025000Y-120165000D01*
G75*
G02*
X134875000Y-120315000I-150000J0D01*
G01*
X133225000Y-120315000D01*
G75*
G02*
X133075000Y-120165000I0J150000D01*
G01*
G37*
G36*
G01*
X133075000Y-118895000D02*
X133075000Y-118595000D01*
G75*
G02*
X133225000Y-118445000I150000J0D01*
G01*
X134875000Y-118445000D01*
G75*
G02*
X135025000Y-118595000I0J-150000D01*
G01*
X135025000Y-118895000D01*
G75*
G02*
X134875000Y-119045000I-150000J0D01*
G01*
X133225000Y-119045000D01*
G75*
G02*
X133075000Y-118895000I0J150000D01*
G01*
G37*
G36*
G01*
X133075000Y-117625000D02*
X133075000Y-117325000D01*
G75*
G02*
X133225000Y-117175000I150000J0D01*
G01*
X134875000Y-117175000D01*
G75*
G02*
X135025000Y-117325000I0J-150000D01*
G01*
X135025000Y-117625000D01*
G75*
G02*
X134875000Y-117775000I-150000J0D01*
G01*
X133225000Y-117775000D01*
G75*
G02*
X133075000Y-117625000I0J150000D01*
G01*
G37*
G36*
G01*
X133075000Y-116355000D02*
X133075000Y-116055000D01*
G75*
G02*
X133225000Y-115905000I150000J0D01*
G01*
X134875000Y-115905000D01*
G75*
G02*
X135025000Y-116055000I0J-150000D01*
G01*
X135025000Y-116355000D01*
G75*
G02*
X134875000Y-116505000I-150000J0D01*
G01*
X133225000Y-116505000D01*
G75*
G02*
X133075000Y-116355000I0J150000D01*
G01*
G37*
G04 #@! TD*
G04 #@! TO.C,U1*
G36*
G01*
X128500000Y-117625000D02*
X128500000Y-117325000D01*
G75*
G02*
X128650000Y-117175000I150000J0D01*
G01*
X130300000Y-117175000D01*
G75*
G02*
X130450000Y-117325000I0J-150000D01*
G01*
X130450000Y-117625000D01*
G75*
G02*
X130300000Y-117775000I-150000J0D01*
G01*
X128650000Y-117775000D01*
G75*
G02*
X128500000Y-117625000I0J150000D01*
G01*
G37*
G36*
G01*
X128500000Y-118895000D02*
X128500000Y-118595000D01*
G75*
G02*
X128650000Y-118445000I150000J0D01*
G01*
X130300000Y-118445000D01*
G75*
G02*
X130450000Y-118595000I0J-150000D01*
G01*
X130450000Y-118895000D01*
G75*
G02*
X130300000Y-119045000I-150000J0D01*
G01*
X128650000Y-119045000D01*
G75*
G02*
X128500000Y-118895000I0J150000D01*
G01*
G37*
G36*
G01*
X128500000Y-120165000D02*
X128500000Y-119865000D01*
G75*
G02*
X128650000Y-119715000I150000J0D01*
G01*
X130300000Y-119715000D01*
G75*
G02*
X130450000Y-119865000I0J-150000D01*
G01*
X130450000Y-120165000D01*
G75*
G02*
X130300000Y-120315000I-150000J0D01*
G01*
X128650000Y-120315000D01*
G75*
G02*
X128500000Y-120165000I0J150000D01*
G01*
G37*
G36*
G01*
X128500000Y-121435000D02*
X128500000Y-121135000D01*
G75*
G02*
X128650000Y-120985000I150000J0D01*
G01*
X130300000Y-120985000D01*
G75*
G02*
X130450000Y-121135000I0J-150000D01*
G01*
X130450000Y-121435000D01*
G75*
G02*
X130300000Y-121585000I-150000J0D01*
G01*
X128650000Y-121585000D01*
G75*
G02*
X128500000Y-121435000I0J150000D01*
G01*
G37*
G36*
G01*
X128500000Y-122705000D02*
X128500000Y-122405000D01*
G75*
G02*
X128650000Y-122255000I150000J0D01*
G01*
X130300000Y-122255000D01*
G75*
G02*
X130450000Y-122405000I0J-150000D01*
G01*
X130450000Y-122705000D01*
G75*
G02*
X130300000Y-122855000I-150000J0D01*
G01*
X128650000Y-122855000D01*
G75*
G02*
X128500000Y-122705000I0J150000D01*
G01*
G37*
G36*
G01*
X128500000Y-123975000D02*
X128500000Y-123675000D01*
G75*
G02*
X128650000Y-123525000I150000J0D01*
G01*
X130300000Y-123525000D01*
G75*
G02*
X130450000Y-123675000I0J-150000D01*
G01*
X130450000Y-123975000D01*
G75*
G02*
X130300000Y-124125000I-150000J0D01*
G01*
X128650000Y-124125000D01*
G75*
G02*
X128500000Y-123975000I0J150000D01*
G01*
G37*
G36*
G01*
X128500000Y-125245000D02*
X128500000Y-124945000D01*
G75*
G02*
X128650000Y-124795000I150000J0D01*
G01*
X130300000Y-124795000D01*
G75*
G02*
X130450000Y-124945000I0J-150000D01*
G01*
X130450000Y-125245000D01*
G75*
G02*
X130300000Y-125395000I-150000J0D01*
G01*
X128650000Y-125395000D01*
G75*
G02*
X128500000Y-125245000I0J150000D01*
G01*
G37*
G36*
G01*
X123550000Y-125245000D02*
X123550000Y-124945000D01*
G75*
G02*
X123700000Y-124795000I150000J0D01*
G01*
X125350000Y-124795000D01*
G75*
G02*
X125500000Y-124945000I0J-150000D01*
G01*
X125500000Y-125245000D01*
G75*
G02*
X125350000Y-125395000I-150000J0D01*
G01*
X123700000Y-125395000D01*
G75*
G02*
X123550000Y-125245000I0J150000D01*
G01*
G37*
G36*
G01*
X123550000Y-123975000D02*
X123550000Y-123675000D01*
G75*
G02*
X123700000Y-123525000I150000J0D01*
G01*
X125350000Y-123525000D01*
G75*
G02*
X125500000Y-123675000I0J-150000D01*
G01*
X125500000Y-123975000D01*
G75*
G02*
X125350000Y-124125000I-150000J0D01*
G01*
X123700000Y-124125000D01*
G75*
G02*
X123550000Y-123975000I0J150000D01*
G01*
G37*
G36*
G01*
X123550000Y-122705000D02*
X123550000Y-122405000D01*
G75*
G02*
X123700000Y-122255000I150000J0D01*
G01*
X125350000Y-122255000D01*
G75*
G02*
X125500000Y-122405000I0J-150000D01*
G01*
X125500000Y-122705000D01*
G75*
G02*
X125350000Y-122855000I-150000J0D01*
G01*
X123700000Y-122855000D01*
G75*
G02*
X123550000Y-122705000I0J150000D01*
G01*
G37*
G36*
G01*
X123550000Y-121435000D02*
X123550000Y-121135000D01*
G75*
G02*
X123700000Y-120985000I150000J0D01*
G01*
X125350000Y-120985000D01*
G75*
G02*
X125500000Y-121135000I0J-150000D01*
G01*
X125500000Y-121435000D01*
G75*
G02*
X125350000Y-121585000I-150000J0D01*
G01*
X123700000Y-121585000D01*
G75*
G02*
X123550000Y-121435000I0J150000D01*
G01*
G37*
G36*
G01*
X123550000Y-120165000D02*
X123550000Y-119865000D01*
G75*
G02*
X123700000Y-119715000I150000J0D01*
G01*
X125350000Y-119715000D01*
G75*
G02*
X125500000Y-119865000I0J-150000D01*
G01*
X125500000Y-120165000D01*
G75*
G02*
X125350000Y-120315000I-150000J0D01*
G01*
X123700000Y-120315000D01*
G75*
G02*
X123550000Y-120165000I0J150000D01*
G01*
G37*
G36*
G01*
X123550000Y-118895000D02*
X123550000Y-118595000D01*
G75*
G02*
X123700000Y-118445000I150000J0D01*
G01*
X125350000Y-118445000D01*
G75*
G02*
X125500000Y-118595000I0J-150000D01*
G01*
X125500000Y-118895000D01*
G75*
G02*
X125350000Y-119045000I-150000J0D01*
G01*
X123700000Y-119045000D01*
G75*
G02*
X123550000Y-118895000I0J150000D01*
G01*
G37*
G36*
G01*
X123550000Y-117625000D02*
X123550000Y-117325000D01*
G75*
G02*
X123700000Y-117175000I150000J0D01*
G01*
X125350000Y-117175000D01*
G75*
G02*
X125500000Y-117325000I0J-150000D01*
G01*
X125500000Y-117625000D01*
G75*
G02*
X125350000Y-117775000I-150000J0D01*
G01*
X123700000Y-117775000D01*
G75*
G02*
X123550000Y-117625000I0J150000D01*
G01*
G37*
G04 #@! TD*
D15*
G04 #@! TO.C,H2*
X114300000Y-123825000D03*
G04 #@! TD*
G04 #@! TO.C,H1*
X158750000Y-123825000D03*
G04 #@! TD*
D18*
G04 #@! TO.C,C10*
X117910000Y-119300000D03*
D19*
X117910000Y-114300000D03*
G04 #@! TD*
G04 #@! TO.C,U5*
G36*
G01*
X147550000Y-117625000D02*
X147550000Y-117325000D01*
G75*
G02*
X147700000Y-117175000I150000J0D01*
G01*
X149350000Y-117175000D01*
G75*
G02*
X149500000Y-117325000I0J-150000D01*
G01*
X149500000Y-117625000D01*
G75*
G02*
X149350000Y-117775000I-150000J0D01*
G01*
X147700000Y-117775000D01*
G75*
G02*
X147550000Y-117625000I0J150000D01*
G01*
G37*
G36*
G01*
X147550000Y-118895000D02*
X147550000Y-118595000D01*
G75*
G02*
X147700000Y-118445000I150000J0D01*
G01*
X149350000Y-118445000D01*
G75*
G02*
X149500000Y-118595000I0J-150000D01*
G01*
X149500000Y-118895000D01*
G75*
G02*
X149350000Y-119045000I-150000J0D01*
G01*
X147700000Y-119045000D01*
G75*
G02*
X147550000Y-118895000I0J150000D01*
G01*
G37*
G36*
G01*
X147550000Y-120165000D02*
X147550000Y-119865000D01*
G75*
G02*
X147700000Y-119715000I150000J0D01*
G01*
X149350000Y-119715000D01*
G75*
G02*
X149500000Y-119865000I0J-150000D01*
G01*
X149500000Y-120165000D01*
G75*
G02*
X149350000Y-120315000I-150000J0D01*
G01*
X147700000Y-120315000D01*
G75*
G02*
X147550000Y-120165000I0J150000D01*
G01*
G37*
G36*
G01*
X147550000Y-121435000D02*
X147550000Y-121135000D01*
G75*
G02*
X147700000Y-120985000I150000J0D01*
G01*
X149350000Y-120985000D01*
G75*
G02*
X149500000Y-121135000I0J-150000D01*
G01*
X149500000Y-121435000D01*
G75*
G02*
X149350000Y-121585000I-150000J0D01*
G01*
X147700000Y-121585000D01*
G75*
G02*
X147550000Y-121435000I0J150000D01*
G01*
G37*
G36*
G01*
X147550000Y-122705000D02*
X147550000Y-122405000D01*
G75*
G02*
X147700000Y-122255000I150000J0D01*
G01*
X149350000Y-122255000D01*
G75*
G02*
X149500000Y-122405000I0J-150000D01*
G01*
X149500000Y-122705000D01*
G75*
G02*
X149350000Y-122855000I-150000J0D01*
G01*
X147700000Y-122855000D01*
G75*
G02*
X147550000Y-122705000I0J150000D01*
G01*
G37*
G36*
G01*
X147550000Y-123975000D02*
X147550000Y-123675000D01*
G75*
G02*
X147700000Y-123525000I150000J0D01*
G01*
X149350000Y-123525000D01*
G75*
G02*
X149500000Y-123675000I0J-150000D01*
G01*
X149500000Y-123975000D01*
G75*
G02*
X149350000Y-124125000I-150000J0D01*
G01*
X147700000Y-124125000D01*
G75*
G02*
X147550000Y-123975000I0J150000D01*
G01*
G37*
G36*
G01*
X147550000Y-125245000D02*
X147550000Y-124945000D01*
G75*
G02*
X147700000Y-124795000I150000J0D01*
G01*
X149350000Y-124795000D01*
G75*
G02*
X149500000Y-124945000I0J-150000D01*
G01*
X149500000Y-125245000D01*
G75*
G02*
X149350000Y-125395000I-150000J0D01*
G01*
X147700000Y-125395000D01*
G75*
G02*
X147550000Y-125245000I0J150000D01*
G01*
G37*
G36*
G01*
X142600000Y-125245000D02*
X142600000Y-124945000D01*
G75*
G02*
X142750000Y-124795000I150000J0D01*
G01*
X144400000Y-124795000D01*
G75*
G02*
X144550000Y-124945000I0J-150000D01*
G01*
X144550000Y-125245000D01*
G75*
G02*
X144400000Y-125395000I-150000J0D01*
G01*
X142750000Y-125395000D01*
G75*
G02*
X142600000Y-125245000I0J150000D01*
G01*
G37*
G36*
G01*
X142600000Y-123975000D02*
X142600000Y-123675000D01*
G75*
G02*
X142750000Y-123525000I150000J0D01*
G01*
X144400000Y-123525000D01*
G75*
G02*
X144550000Y-123675000I0J-150000D01*
G01*
X144550000Y-123975000D01*
G75*
G02*
X144400000Y-124125000I-150000J0D01*
G01*
X142750000Y-124125000D01*
G75*
G02*
X142600000Y-123975000I0J150000D01*
G01*
G37*
G36*
G01*
X142600000Y-122705000D02*
X142600000Y-122405000D01*
G75*
G02*
X142750000Y-122255000I150000J0D01*
G01*
X144400000Y-122255000D01*
G75*
G02*
X144550000Y-122405000I0J-150000D01*
G01*
X144550000Y-122705000D01*
G75*
G02*
X144400000Y-122855000I-150000J0D01*
G01*
X142750000Y-122855000D01*
G75*
G02*
X142600000Y-122705000I0J150000D01*
G01*
G37*
G36*
G01*
X142600000Y-121435000D02*
X142600000Y-121135000D01*
G75*
G02*
X142750000Y-120985000I150000J0D01*
G01*
X144400000Y-120985000D01*
G75*
G02*
X144550000Y-121135000I0J-150000D01*
G01*
X144550000Y-121435000D01*
G75*
G02*
X144400000Y-121585000I-150000J0D01*
G01*
X142750000Y-121585000D01*
G75*
G02*
X142600000Y-121435000I0J150000D01*
G01*
G37*
G36*
G01*
X142600000Y-120165000D02*
X142600000Y-119865000D01*
G75*
G02*
X142750000Y-119715000I150000J0D01*
G01*
X144400000Y-119715000D01*
G75*
G02*
X144550000Y-119865000I0J-150000D01*
G01*
X144550000Y-120165000D01*
G75*
G02*
X144400000Y-120315000I-150000J0D01*
G01*
X142750000Y-120315000D01*
G75*
G02*
X142600000Y-120165000I0J150000D01*
G01*
G37*
G36*
G01*
X142600000Y-118895000D02*
X142600000Y-118595000D01*
G75*
G02*
X142750000Y-118445000I150000J0D01*
G01*
X144400000Y-118445000D01*
G75*
G02*
X144550000Y-118595000I0J-150000D01*
G01*
X144550000Y-118895000D01*
G75*
G02*
X144400000Y-119045000I-150000J0D01*
G01*
X142750000Y-119045000D01*
G75*
G02*
X142600000Y-118895000I0J150000D01*
G01*
G37*
G36*
G01*
X142600000Y-117625000D02*
X142600000Y-117325000D01*
G75*
G02*
X142750000Y-117175000I150000J0D01*
G01*
X144400000Y-117175000D01*
G75*
G02*
X144550000Y-117325000I0J-150000D01*
G01*
X144550000Y-117625000D01*
G75*
G02*
X144400000Y-117775000I-150000J0D01*
G01*
X142750000Y-117775000D01*
G75*
G02*
X142600000Y-117625000I0J150000D01*
G01*
G37*
G04 #@! TD*
M02*
