M48
; DRILL file {KiCad (5.1.10-1-10_14)} date Saturday, October 16, 2021 at 02:11:47 PM
; FORMAT={-:-/ absolute / metric / decimal}
; #@! TF.CreationDate,2021-10-16T14:11:47-07:00
; #@! TF.GenerationSoftware,Kicad,Pcbnew,(5.1.10-1-10_14)
; #@! TF.FileFunction,Plated,1,2,PTH
FMAT,2
METRIC
T1C0.350
T2C0.750
T3C0.800
T4C1.000
T5C2.200
%
G90
G05
T1
X116.84Y-122.555
X125.476Y-111.76
X126.365Y-112.395
X127.0Y-125.095
X127.635Y-117.475
X131.241Y-120.348
X132.08Y-121.399
X132.08Y-123.825
X132.08Y-125.095
X132.588Y-119.38
X136.525Y-121.285
X136.525Y-122.555
X139.7Y-113.792
X139.772Y-111.688
X140.732Y-109.004
X141.361Y-121.37
X141.744Y-120.289
X142.305Y-116.205
X144.283Y-116.016
X145.608Y-110.631
X146.05Y-125.052
X148.561Y-114.257
X150.495Y-117.475
X153.735Y-109.22
X153.81Y-122.235
X156.21Y-99.06
X156.21Y-125.454
X156.75Y-116.316
X156.845Y-106.045
X160.02Y-116.205
T2
X121.92Y-109.22
X123.19Y-109.22
X124.46Y-109.22
T3
X128.27Y-110.49
X130.77Y-110.49
T4
X117.91Y-114.3
X117.91Y-119.3
X120.015Y-104.14
X122.555Y-104.14
X125.095Y-104.14
X127.635Y-104.14
X132.08Y-104.14
X134.62Y-104.14
X137.16Y-104.14
X141.605Y-104.14
X144.145Y-104.14
X146.685Y-104.14
X151.13Y-104.14
X153.67Y-104.14
T5
X114.3Y-96.52
X114.3Y-123.825
X158.75Y-96.52
X158.75Y-123.825
T0
M30
