%FSLAX45Y45*%
G04 Gerber Fmt 4.5, Leading zero omitted, Abs format (unit mm)*
G04 Created by KiCad (PCBNEW (5.1.10-1-10_14)) date 2021-06-28 16:00:18*
%MOMM*%
%LPD*%
G01*
G04 APERTURE LIST*
%TA.AperFunction,Profile*%
%ADD10C,0.050000*%
%TD*%
%ADD11C,0.200000*%
%ADD12C,0.300000*%
G04 APERTURE END LIST*
D10*
X16459200Y-4267200D02*
X11125200Y-4267200D01*
X16459200Y-8839200D02*
X16459200Y-4267200D01*
X11125200Y-8839200D02*
X16459200Y-8839200D01*
X11125200Y-4267200D02*
X11125200Y-8839200D01*
D11*
X11918000Y-5060000D02*
X11958000Y-5100000D01*
X11958000Y-5060000D02*
X11918000Y-5100000D01*
X11918000Y-6177600D02*
X11958000Y-6217600D01*
X11958000Y-6177600D02*
X11918000Y-6217600D01*
X11918000Y-8044500D02*
X11958000Y-8084500D01*
X11958000Y-8044500D02*
X11918000Y-8084500D01*
X12375200Y-7193600D02*
X12415200Y-7233600D01*
X12415200Y-7193600D02*
X12375200Y-7233600D01*
X12426000Y-7955600D02*
X12466000Y-7995600D01*
X12466000Y-7955600D02*
X12426000Y-7995600D01*
X12527600Y-5009200D02*
X12567600Y-5049200D01*
X12567600Y-5009200D02*
X12527600Y-5049200D01*
X12616500Y-5631500D02*
X12656500Y-5671500D01*
X12656500Y-5631500D02*
X12616500Y-5671500D01*
X12629200Y-6634800D02*
X12669200Y-6674800D01*
X12669200Y-6634800D02*
X12629200Y-6674800D01*
X12680000Y-7346000D02*
X12720000Y-7386000D01*
X12720000Y-7346000D02*
X12680000Y-7386000D01*
X12730800Y-6482400D02*
X12770800Y-6522400D01*
X12770800Y-6482400D02*
X12730800Y-6522400D01*
X12870500Y-5631500D02*
X12910500Y-5671500D01*
X12910500Y-5631500D02*
X12870500Y-5671500D01*
X12934000Y-7981000D02*
X12974000Y-8021000D01*
X12974000Y-7981000D02*
X12934000Y-8021000D01*
X12934000Y-8298500D02*
X12974000Y-8338500D01*
X12974000Y-8298500D02*
X12934000Y-8338500D01*
X13238800Y-7193600D02*
X13278800Y-7233600D01*
X13278800Y-7193600D02*
X13238800Y-7233600D01*
X13340400Y-7701600D02*
X13380400Y-7741600D01*
X13380400Y-7701600D02*
X13340400Y-7741600D01*
X13340400Y-8209600D02*
X13380400Y-8249600D01*
X13380400Y-8209600D02*
X13340400Y-8249600D01*
X13391200Y-7549200D02*
X13431200Y-7589200D01*
X13431200Y-7549200D02*
X13391200Y-7589200D01*
X13391666Y-7905266D02*
X13431666Y-7945266D01*
X13431666Y-7905266D02*
X13391666Y-7945266D01*
X13492800Y-7041200D02*
X13532800Y-7081200D01*
X13532800Y-7041200D02*
X13492800Y-7081200D01*
X13594400Y-6330000D02*
X13634400Y-6370000D01*
X13634400Y-6330000D02*
X13594400Y-6370000D01*
X13594400Y-6939600D02*
X13634400Y-6979600D01*
X13634400Y-6939600D02*
X13594400Y-6979600D01*
X13594400Y-7142800D02*
X13634400Y-7182800D01*
X13634400Y-7142800D02*
X13594400Y-7182800D01*
X13696000Y-5631500D02*
X13736000Y-5671500D01*
X13736000Y-5631500D02*
X13696000Y-5671500D01*
X13696000Y-5949000D02*
X13736000Y-5989000D01*
X13736000Y-5949000D02*
X13696000Y-5989000D01*
X13759500Y-7409500D02*
X13799500Y-7449500D01*
X13799500Y-7409500D02*
X13759500Y-7449500D01*
X13797600Y-6482400D02*
X13837600Y-6522400D01*
X13837600Y-6482400D02*
X13797600Y-6522400D01*
X13797600Y-6669698D02*
X13837600Y-6709698D01*
X13837600Y-6669698D02*
X13797600Y-6709698D01*
X13823000Y-8044500D02*
X13863000Y-8084500D01*
X13863000Y-8044500D02*
X13823000Y-8084500D01*
X13886500Y-8171500D02*
X13926500Y-8211500D01*
X13926500Y-8171500D02*
X13886500Y-8211500D01*
X13899200Y-5872800D02*
X13939200Y-5912800D01*
X13939200Y-5872800D02*
X13899200Y-5912800D01*
X13899200Y-6939600D02*
X13939200Y-6979600D01*
X13939200Y-6939600D02*
X13899200Y-6979600D01*
X13899200Y-7650800D02*
X13939200Y-7690800D01*
X13939200Y-7650800D02*
X13899200Y-7690800D01*
X13950000Y-4653600D02*
X13990000Y-4693600D01*
X13990000Y-4653600D02*
X13950000Y-4693600D01*
X13950000Y-5466400D02*
X13990000Y-5506400D01*
X13990000Y-5466400D02*
X13950000Y-5506400D01*
X13950000Y-6330000D02*
X13990000Y-6370000D01*
X13990000Y-6330000D02*
X13950000Y-6370000D01*
X13950000Y-6714699D02*
X13990000Y-6754699D01*
X13990000Y-6714699D02*
X13950000Y-6754699D01*
X13950000Y-7092000D02*
X13990000Y-7132000D01*
X13990000Y-7092000D02*
X13950000Y-7132000D01*
X14000800Y-8463600D02*
X14040800Y-8503600D01*
X14040800Y-8463600D02*
X14000800Y-8503600D01*
X14051600Y-8209600D02*
X14091600Y-8249600D01*
X14091600Y-8209600D02*
X14051600Y-8249600D01*
X14153200Y-7295200D02*
X14193200Y-7335200D01*
X14193200Y-7295200D02*
X14153200Y-7335200D01*
X14153200Y-7701600D02*
X14193200Y-7741600D01*
X14193200Y-7701600D02*
X14153200Y-7741600D01*
X14204000Y-6177600D02*
X14244000Y-6217600D01*
X14244000Y-6177600D02*
X14204000Y-6217600D01*
X14204000Y-7955600D02*
X14244000Y-7995600D01*
X14244000Y-7955600D02*
X14204000Y-7995600D01*
X14204000Y-8108000D02*
X14244000Y-8148000D01*
X14244000Y-8108000D02*
X14204000Y-8148000D01*
X14204000Y-8298500D02*
X14244000Y-8338500D01*
X14244000Y-8298500D02*
X14204000Y-8338500D01*
X14305600Y-7193600D02*
X14345600Y-7233600D01*
X14345600Y-7193600D02*
X14305600Y-7233600D01*
X14356400Y-6177600D02*
X14396400Y-6217600D01*
X14396400Y-6177600D02*
X14356400Y-6217600D01*
X14458000Y-6736400D02*
X14498000Y-6776400D01*
X14498000Y-6736400D02*
X14458000Y-6776400D01*
X14458000Y-7663500D02*
X14498000Y-7703500D01*
X14498000Y-7663500D02*
X14458000Y-7703500D01*
X14559600Y-7193600D02*
X14599600Y-7233600D01*
X14599600Y-7193600D02*
X14559600Y-7233600D01*
X14610400Y-5720400D02*
X14650400Y-5760400D01*
X14650400Y-5720400D02*
X14610400Y-5760400D01*
X14610400Y-6736400D02*
X14650400Y-6776400D01*
X14650400Y-6736400D02*
X14610400Y-6776400D01*
X14661200Y-6279200D02*
X14701200Y-6319200D01*
X14701200Y-6279200D02*
X14661200Y-6319200D01*
X14661200Y-7142800D02*
X14701200Y-7182800D01*
X14701200Y-7142800D02*
X14661200Y-7182800D01*
X14712000Y-6634800D02*
X14752000Y-6674800D01*
X14752000Y-6634800D02*
X14712000Y-6674800D01*
X14712000Y-7701600D02*
X14752000Y-7741600D01*
X14752000Y-7701600D02*
X14712000Y-7741600D01*
X14813600Y-4806000D02*
X14853600Y-4846000D01*
X14853600Y-4806000D02*
X14813600Y-4846000D01*
X14915200Y-7244400D02*
X14955200Y-7284400D01*
X14955200Y-7244400D02*
X14915200Y-7284400D01*
X14966000Y-5187000D02*
X15006000Y-5227000D01*
X15006000Y-5187000D02*
X14966000Y-5227000D01*
X14966000Y-6228400D02*
X15006000Y-6268400D01*
X15006000Y-6228400D02*
X14966000Y-6268400D01*
X15067600Y-6634800D02*
X15107600Y-6674800D01*
X15107600Y-6634800D02*
X15067600Y-6674800D01*
X15156500Y-5822000D02*
X15196500Y-5862000D01*
X15196500Y-5822000D02*
X15156500Y-5862000D01*
X15156500Y-6787200D02*
X15196500Y-6827200D01*
X15196500Y-6787200D02*
X15156500Y-6827200D01*
X15156500Y-7409500D02*
X15196500Y-7449500D01*
X15196500Y-7409500D02*
X15156500Y-7449500D01*
X15156500Y-7727000D02*
X15196500Y-7767000D01*
X15196500Y-7727000D02*
X15156500Y-7767000D01*
X15156500Y-8044500D02*
X15196500Y-8084500D01*
X15196500Y-8044500D02*
X15156500Y-8084500D01*
X15156500Y-8298500D02*
X15196500Y-8338500D01*
X15196500Y-8298500D02*
X15156500Y-8338500D01*
X15169200Y-6533200D02*
X15209200Y-6573200D01*
X15209200Y-6533200D02*
X15169200Y-6573200D01*
X15169200Y-7193600D02*
X15209200Y-7233600D01*
X15209200Y-7193600D02*
X15169200Y-7233600D01*
X15575600Y-7295200D02*
X15615600Y-7335200D01*
X15615600Y-7295200D02*
X15575600Y-7335200D01*
X15575600Y-8514400D02*
X15615600Y-8554400D01*
X15615600Y-8514400D02*
X15575600Y-8554400D01*
X15601000Y-6584000D02*
X15641000Y-6624000D01*
X15641000Y-6584000D02*
X15601000Y-6624000D01*
X15601000Y-6901500D02*
X15641000Y-6941500D01*
X15641000Y-6901500D02*
X15601000Y-6941500D01*
X15664500Y-5949000D02*
X15704500Y-5989000D01*
X15704500Y-5949000D02*
X15664500Y-5989000D01*
X16045500Y-5822000D02*
X16085500Y-5862000D01*
X16085500Y-5822000D02*
X16045500Y-5862000D01*
X16045500Y-6330000D02*
X16085500Y-6370000D01*
X16085500Y-6330000D02*
X16045500Y-6370000D01*
X16045500Y-7536500D02*
X16085500Y-7576500D01*
X16085500Y-7536500D02*
X16045500Y-7576500D01*
X11467500Y-6032500D02*
G75*
G03*
X11467500Y-6032500I-37500J0D01*
G01*
X11594500Y-5905500D02*
G75*
G03*
X11594500Y-5905500I-37500J0D01*
G01*
X11721500Y-6032500D02*
G75*
G03*
X11721500Y-6032500I-37500J0D01*
G01*
X12192000Y-5992500D02*
X12192000Y-6072500D01*
X12152000Y-6032500D02*
X12232000Y-6032500D01*
X12442000Y-5992500D02*
X12442000Y-6072500D01*
X12402000Y-6032500D02*
X12482000Y-6032500D01*
X11465356Y-5369356D02*
X11465356Y-5298644D01*
X11394644Y-5298644D01*
X11394644Y-5369356D01*
X11465356Y-5369356D01*
X11528856Y-7083856D02*
X11528856Y-7013144D01*
X11458144Y-7013144D01*
X11458144Y-7083856D01*
X11528856Y-7083856D01*
X11719356Y-5369356D02*
X11719356Y-5298644D01*
X11648644Y-5298644D01*
X11648644Y-5369356D01*
X11719356Y-5369356D01*
X11973356Y-5369356D02*
X11973356Y-5298644D01*
X11902644Y-5298644D01*
X11902644Y-5369356D01*
X11973356Y-5369356D01*
X12028856Y-7083856D02*
X12028856Y-7013144D01*
X11958144Y-7013144D01*
X11958144Y-7083856D01*
X12028856Y-7083856D01*
X12227356Y-5369356D02*
X12227356Y-5298644D01*
X12156644Y-5298644D01*
X12156644Y-5369356D01*
X12227356Y-5369356D01*
X12989356Y-5369356D02*
X12989356Y-5298644D01*
X12918644Y-5298644D01*
X12918644Y-5369356D01*
X12989356Y-5369356D01*
X13116356Y-6004356D02*
X13116356Y-5933644D01*
X13045644Y-5933644D01*
X13045644Y-6004356D01*
X13116356Y-6004356D01*
X13116356Y-6258356D02*
X13116356Y-6187644D01*
X13045644Y-6187644D01*
X13045644Y-6258356D01*
X13116356Y-6258356D01*
X13243356Y-5369356D02*
X13243356Y-5298644D01*
X13172644Y-5298644D01*
X13172644Y-5369356D01*
X13243356Y-5369356D01*
X13370356Y-6004356D02*
X13370356Y-5933644D01*
X13299644Y-5933644D01*
X13299644Y-6004356D01*
X13370356Y-6004356D01*
X13370356Y-6258356D02*
X13370356Y-6187644D01*
X13299644Y-6187644D01*
X13299644Y-6258356D01*
X13370356Y-6258356D01*
X13497356Y-5369356D02*
X13497356Y-5298644D01*
X13426644Y-5298644D01*
X13426644Y-5369356D01*
X13497356Y-5369356D01*
X14259356Y-5369356D02*
X14259356Y-5298644D01*
X14188644Y-5298644D01*
X14188644Y-5369356D01*
X14259356Y-5369356D01*
X14513356Y-5369356D02*
X14513356Y-5298644D01*
X14442644Y-5298644D01*
X14442644Y-5369356D01*
X14513356Y-5369356D01*
X14767356Y-5369356D02*
X14767356Y-5298644D01*
X14696644Y-5298644D01*
X14696644Y-5369356D01*
X14767356Y-5369356D01*
X15465856Y-5369356D02*
X15465856Y-5298644D01*
X15395144Y-5298644D01*
X15395144Y-5369356D01*
X15465856Y-5369356D01*
X15719856Y-5369356D02*
X15719856Y-5298644D01*
X15649144Y-5298644D01*
X15649144Y-5369356D01*
X15719856Y-5369356D01*
X11379200Y-4631200D02*
X11489200Y-4521200D01*
X11379200Y-4411200D01*
X11269200Y-4521200D01*
X11379200Y-4631200D01*
X11379200Y-8695200D02*
X11489200Y-8585200D01*
X11379200Y-8475200D01*
X11269200Y-8585200D01*
X11379200Y-8695200D01*
X16205200Y-4631200D02*
X16315200Y-4521200D01*
X16205200Y-4411200D01*
X16095200Y-4521200D01*
X16205200Y-4631200D01*
X16205200Y-8695200D02*
X16315200Y-8585200D01*
X16205200Y-8475200D01*
X16095200Y-8585200D01*
X16205200Y-8695200D01*
D12*
X11409128Y-9307414D02*
X11409128Y-9007414D01*
X11480557Y-9007414D01*
X11523414Y-9021700D01*
X11551986Y-9050272D01*
X11566271Y-9078843D01*
X11580557Y-9135986D01*
X11580557Y-9178843D01*
X11566271Y-9235986D01*
X11551986Y-9264557D01*
X11523414Y-9293129D01*
X11480557Y-9307414D01*
X11409128Y-9307414D01*
X11709128Y-9307414D02*
X11709128Y-9107414D01*
X11709128Y-9164557D02*
X11723414Y-9135986D01*
X11737700Y-9121700D01*
X11766271Y-9107414D01*
X11794843Y-9107414D01*
X11894843Y-9307414D02*
X11894843Y-9107414D01*
X11894843Y-9007414D02*
X11880557Y-9021700D01*
X11894843Y-9035986D01*
X11909128Y-9021700D01*
X11894843Y-9007414D01*
X11894843Y-9035986D01*
X12080557Y-9307414D02*
X12051986Y-9293129D01*
X12037700Y-9264557D01*
X12037700Y-9007414D01*
X12237700Y-9307414D02*
X12209128Y-9293129D01*
X12194843Y-9264557D01*
X12194843Y-9007414D01*
X12580557Y-9307414D02*
X12580557Y-9007414D01*
X12680557Y-9221700D01*
X12780557Y-9007414D01*
X12780557Y-9307414D01*
X13051986Y-9307414D02*
X13051986Y-9150272D01*
X13037700Y-9121700D01*
X13009128Y-9107414D01*
X12951986Y-9107414D01*
X12923414Y-9121700D01*
X13051986Y-9293129D02*
X13023414Y-9307414D01*
X12951986Y-9307414D01*
X12923414Y-9293129D01*
X12909128Y-9264557D01*
X12909128Y-9235986D01*
X12923414Y-9207414D01*
X12951986Y-9193129D01*
X13023414Y-9193129D01*
X13051986Y-9178843D01*
X13194843Y-9107414D02*
X13194843Y-9407414D01*
X13194843Y-9121700D02*
X13223414Y-9107414D01*
X13280557Y-9107414D01*
X13309128Y-9121700D01*
X13323414Y-9135986D01*
X13337700Y-9164557D01*
X13337700Y-9250272D01*
X13323414Y-9278843D01*
X13309128Y-9293129D01*
X13280557Y-9307414D01*
X13223414Y-9307414D01*
X13194843Y-9293129D01*
X13466271Y-9278843D02*
X13480557Y-9293129D01*
X13466271Y-9307414D01*
X13451986Y-9293129D01*
X13466271Y-9278843D01*
X13466271Y-9307414D01*
X13466271Y-9121700D02*
X13480557Y-9135986D01*
X13466271Y-9150272D01*
X13451986Y-9135986D01*
X13466271Y-9121700D01*
X13466271Y-9150272D01*
X11082700Y-9781700D02*
X11122700Y-9821700D01*
X11122700Y-9781700D02*
X11082700Y-9821700D01*
X11466271Y-9637414D02*
X11494843Y-9637414D01*
X11523414Y-9651700D01*
X11537700Y-9665986D01*
X11551986Y-9694557D01*
X11566271Y-9751700D01*
X11566271Y-9823129D01*
X11551986Y-9880272D01*
X11537700Y-9908843D01*
X11523414Y-9923129D01*
X11494843Y-9937414D01*
X11466271Y-9937414D01*
X11437700Y-9923129D01*
X11423414Y-9908843D01*
X11409128Y-9880272D01*
X11394843Y-9823129D01*
X11394843Y-9751700D01*
X11409128Y-9694557D01*
X11423414Y-9665986D01*
X11437700Y-9651700D01*
X11466271Y-9637414D01*
X11694843Y-9908843D02*
X11709128Y-9923129D01*
X11694843Y-9937414D01*
X11680557Y-9923129D01*
X11694843Y-9908843D01*
X11694843Y-9937414D01*
X11966271Y-9737414D02*
X11966271Y-9937414D01*
X11894843Y-9623129D02*
X11823414Y-9837414D01*
X12009128Y-9837414D01*
X12180557Y-9637414D02*
X12209128Y-9637414D01*
X12237700Y-9651700D01*
X12251986Y-9665986D01*
X12266271Y-9694557D01*
X12280557Y-9751700D01*
X12280557Y-9823129D01*
X12266271Y-9880272D01*
X12251986Y-9908843D01*
X12237700Y-9923129D01*
X12209128Y-9937414D01*
X12180557Y-9937414D01*
X12151986Y-9923129D01*
X12137700Y-9908843D01*
X12123414Y-9880272D01*
X12109128Y-9823129D01*
X12109128Y-9751700D01*
X12123414Y-9694557D01*
X12137700Y-9665986D01*
X12151986Y-9651700D01*
X12180557Y-9637414D01*
X12466271Y-9637414D02*
X12494843Y-9637414D01*
X12523414Y-9651700D01*
X12537700Y-9665986D01*
X12551986Y-9694557D01*
X12566271Y-9751700D01*
X12566271Y-9823129D01*
X12551986Y-9880272D01*
X12537700Y-9908843D01*
X12523414Y-9923129D01*
X12494843Y-9937414D01*
X12466271Y-9937414D01*
X12437700Y-9923129D01*
X12423414Y-9908843D01*
X12409128Y-9880272D01*
X12394843Y-9823129D01*
X12394843Y-9751700D01*
X12409128Y-9694557D01*
X12423414Y-9665986D01*
X12437700Y-9651700D01*
X12466271Y-9637414D01*
X12694843Y-9937414D02*
X12694843Y-9737414D01*
X12694843Y-9765986D02*
X12709128Y-9751700D01*
X12737700Y-9737414D01*
X12780557Y-9737414D01*
X12809128Y-9751700D01*
X12823414Y-9780272D01*
X12823414Y-9937414D01*
X12823414Y-9780272D02*
X12837700Y-9751700D01*
X12866271Y-9737414D01*
X12909128Y-9737414D01*
X12937700Y-9751700D01*
X12951986Y-9780272D01*
X12951986Y-9937414D01*
X13094843Y-9937414D02*
X13094843Y-9737414D01*
X13094843Y-9765986D02*
X13109128Y-9751700D01*
X13137700Y-9737414D01*
X13180557Y-9737414D01*
X13209128Y-9751700D01*
X13223414Y-9780272D01*
X13223414Y-9937414D01*
X13223414Y-9780272D02*
X13237700Y-9751700D01*
X13266271Y-9737414D01*
X13309128Y-9737414D01*
X13337700Y-9751700D01*
X13351986Y-9780272D01*
X13351986Y-9937414D01*
X13937700Y-9623129D02*
X13680557Y-10008843D01*
X14323414Y-9637414D02*
X14351986Y-9637414D01*
X14380557Y-9651700D01*
X14394843Y-9665986D01*
X14409128Y-9694557D01*
X14423414Y-9751700D01*
X14423414Y-9823129D01*
X14409128Y-9880272D01*
X14394843Y-9908843D01*
X14380557Y-9923129D01*
X14351986Y-9937414D01*
X14323414Y-9937414D01*
X14294843Y-9923129D01*
X14280557Y-9908843D01*
X14266271Y-9880272D01*
X14251986Y-9823129D01*
X14251986Y-9751700D01*
X14266271Y-9694557D01*
X14280557Y-9665986D01*
X14294843Y-9651700D01*
X14323414Y-9637414D01*
X14551986Y-9908843D02*
X14566271Y-9923129D01*
X14551986Y-9937414D01*
X14537700Y-9923129D01*
X14551986Y-9908843D01*
X14551986Y-9937414D01*
X14751986Y-9637414D02*
X14780557Y-9637414D01*
X14809128Y-9651700D01*
X14823414Y-9665986D01*
X14837700Y-9694557D01*
X14851986Y-9751700D01*
X14851986Y-9823129D01*
X14837700Y-9880272D01*
X14823414Y-9908843D01*
X14809128Y-9923129D01*
X14780557Y-9937414D01*
X14751986Y-9937414D01*
X14723414Y-9923129D01*
X14709128Y-9908843D01*
X14694843Y-9880272D01*
X14680557Y-9823129D01*
X14680557Y-9751700D01*
X14694843Y-9694557D01*
X14709128Y-9665986D01*
X14723414Y-9651700D01*
X14751986Y-9637414D01*
X15137700Y-9937414D02*
X14966271Y-9937414D01*
X15051986Y-9937414D02*
X15051986Y-9637414D01*
X15023414Y-9680272D01*
X14994843Y-9708843D01*
X14966271Y-9723129D01*
X15409128Y-9637414D02*
X15266271Y-9637414D01*
X15251986Y-9780272D01*
X15266271Y-9765986D01*
X15294843Y-9751700D01*
X15366271Y-9751700D01*
X15394843Y-9765986D01*
X15409128Y-9780272D01*
X15423414Y-9808843D01*
X15423414Y-9880272D01*
X15409128Y-9908843D01*
X15394843Y-9923129D01*
X15366271Y-9937414D01*
X15294843Y-9937414D01*
X15266271Y-9923129D01*
X15251986Y-9908843D01*
X15523414Y-9637414D02*
X15723414Y-9637414D01*
X15594843Y-9937414D01*
X15823414Y-9637414D02*
X15823414Y-9694557D01*
X15937700Y-9637414D02*
X15937700Y-9694557D01*
X16380557Y-10051700D02*
X16366271Y-10037414D01*
X16337700Y-9994557D01*
X16323414Y-9965986D01*
X16309128Y-9923129D01*
X16294843Y-9851700D01*
X16294843Y-9794557D01*
X16309128Y-9723129D01*
X16323414Y-9680272D01*
X16337700Y-9651700D01*
X16366271Y-9608843D01*
X16380557Y-9594557D01*
X16466271Y-9637414D02*
X16666271Y-9637414D01*
X16537700Y-9937414D01*
X16751986Y-9637414D02*
X16951986Y-9637414D01*
X16823414Y-9937414D01*
X17294843Y-9937414D02*
X17294843Y-9637414D01*
X17423414Y-9937414D02*
X17423414Y-9780272D01*
X17409128Y-9751700D01*
X17380557Y-9737414D01*
X17337700Y-9737414D01*
X17309128Y-9751700D01*
X17294843Y-9765986D01*
X17609128Y-9937414D02*
X17580557Y-9923129D01*
X17566271Y-9908843D01*
X17551986Y-9880272D01*
X17551986Y-9794557D01*
X17566271Y-9765986D01*
X17580557Y-9751700D01*
X17609128Y-9737414D01*
X17651986Y-9737414D01*
X17680557Y-9751700D01*
X17694843Y-9765986D01*
X17709128Y-9794557D01*
X17709128Y-9880272D01*
X17694843Y-9908843D01*
X17680557Y-9923129D01*
X17651986Y-9937414D01*
X17609128Y-9937414D01*
X17880557Y-9937414D02*
X17851986Y-9923129D01*
X17837700Y-9894557D01*
X17837700Y-9637414D01*
X18109128Y-9923129D02*
X18080557Y-9937414D01*
X18023414Y-9937414D01*
X17994843Y-9923129D01*
X17980557Y-9894557D01*
X17980557Y-9780272D01*
X17994843Y-9751700D01*
X18023414Y-9737414D01*
X18080557Y-9737414D01*
X18109128Y-9751700D01*
X18123414Y-9780272D01*
X18123414Y-9808843D01*
X17980557Y-9837414D01*
X18237700Y-9923129D02*
X18266271Y-9937414D01*
X18323414Y-9937414D01*
X18351986Y-9923129D01*
X18366271Y-9894557D01*
X18366271Y-9880272D01*
X18351986Y-9851700D01*
X18323414Y-9837414D01*
X18280557Y-9837414D01*
X18251986Y-9823129D01*
X18237700Y-9794557D01*
X18237700Y-9780272D01*
X18251986Y-9751700D01*
X18280557Y-9737414D01*
X18323414Y-9737414D01*
X18351986Y-9751700D01*
X18466271Y-10051700D02*
X18480557Y-10037414D01*
X18509128Y-9994557D01*
X18523414Y-9965986D01*
X18537700Y-9923129D01*
X18551986Y-9851700D01*
X18551986Y-9794557D01*
X18537700Y-9723129D01*
X18523414Y-9680272D01*
X18509128Y-9651700D01*
X18480557Y-9608843D01*
X18466271Y-9594557D01*
X11122700Y-10197700D02*
G75*
G03*
X11122700Y-10197700I-37500J0D01*
G01*
X11466271Y-10033414D02*
X11494843Y-10033414D01*
X11523414Y-10047700D01*
X11537700Y-10061986D01*
X11551986Y-10090557D01*
X11566271Y-10147700D01*
X11566271Y-10219129D01*
X11551986Y-10276272D01*
X11537700Y-10304843D01*
X11523414Y-10319129D01*
X11494843Y-10333414D01*
X11466271Y-10333414D01*
X11437700Y-10319129D01*
X11423414Y-10304843D01*
X11409128Y-10276272D01*
X11394843Y-10219129D01*
X11394843Y-10147700D01*
X11409128Y-10090557D01*
X11423414Y-10061986D01*
X11437700Y-10047700D01*
X11466271Y-10033414D01*
X11694843Y-10304843D02*
X11709128Y-10319129D01*
X11694843Y-10333414D01*
X11680557Y-10319129D01*
X11694843Y-10304843D01*
X11694843Y-10333414D01*
X11809128Y-10033414D02*
X12009128Y-10033414D01*
X11880557Y-10333414D01*
X12266271Y-10033414D02*
X12123414Y-10033414D01*
X12109128Y-10176272D01*
X12123414Y-10161986D01*
X12151986Y-10147700D01*
X12223414Y-10147700D01*
X12251986Y-10161986D01*
X12266271Y-10176272D01*
X12280557Y-10204843D01*
X12280557Y-10276272D01*
X12266271Y-10304843D01*
X12251986Y-10319129D01*
X12223414Y-10333414D01*
X12151986Y-10333414D01*
X12123414Y-10319129D01*
X12109128Y-10304843D01*
X12466271Y-10033414D02*
X12494843Y-10033414D01*
X12523414Y-10047700D01*
X12537700Y-10061986D01*
X12551986Y-10090557D01*
X12566271Y-10147700D01*
X12566271Y-10219129D01*
X12551986Y-10276272D01*
X12537700Y-10304843D01*
X12523414Y-10319129D01*
X12494843Y-10333414D01*
X12466271Y-10333414D01*
X12437700Y-10319129D01*
X12423414Y-10304843D01*
X12409128Y-10276272D01*
X12394843Y-10219129D01*
X12394843Y-10147700D01*
X12409128Y-10090557D01*
X12423414Y-10061986D01*
X12437700Y-10047700D01*
X12466271Y-10033414D01*
X12694843Y-10333414D02*
X12694843Y-10133414D01*
X12694843Y-10161986D02*
X12709128Y-10147700D01*
X12737700Y-10133414D01*
X12780557Y-10133414D01*
X12809128Y-10147700D01*
X12823414Y-10176272D01*
X12823414Y-10333414D01*
X12823414Y-10176272D02*
X12837700Y-10147700D01*
X12866271Y-10133414D01*
X12909128Y-10133414D01*
X12937700Y-10147700D01*
X12951986Y-10176272D01*
X12951986Y-10333414D01*
X13094843Y-10333414D02*
X13094843Y-10133414D01*
X13094843Y-10161986D02*
X13109128Y-10147700D01*
X13137700Y-10133414D01*
X13180557Y-10133414D01*
X13209128Y-10147700D01*
X13223414Y-10176272D01*
X13223414Y-10333414D01*
X13223414Y-10176272D02*
X13237700Y-10147700D01*
X13266271Y-10133414D01*
X13309128Y-10133414D01*
X13337700Y-10147700D01*
X13351986Y-10176272D01*
X13351986Y-10333414D01*
X13937700Y-10019129D02*
X13680557Y-10404843D01*
X14323414Y-10033414D02*
X14351986Y-10033414D01*
X14380557Y-10047700D01*
X14394843Y-10061986D01*
X14409128Y-10090557D01*
X14423414Y-10147700D01*
X14423414Y-10219129D01*
X14409128Y-10276272D01*
X14394843Y-10304843D01*
X14380557Y-10319129D01*
X14351986Y-10333414D01*
X14323414Y-10333414D01*
X14294843Y-10319129D01*
X14280557Y-10304843D01*
X14266271Y-10276272D01*
X14251986Y-10219129D01*
X14251986Y-10147700D01*
X14266271Y-10090557D01*
X14280557Y-10061986D01*
X14294843Y-10047700D01*
X14323414Y-10033414D01*
X14551986Y-10304843D02*
X14566271Y-10319129D01*
X14551986Y-10333414D01*
X14537700Y-10319129D01*
X14551986Y-10304843D01*
X14551986Y-10333414D01*
X14751986Y-10033414D02*
X14780557Y-10033414D01*
X14809128Y-10047700D01*
X14823414Y-10061986D01*
X14837700Y-10090557D01*
X14851986Y-10147700D01*
X14851986Y-10219129D01*
X14837700Y-10276272D01*
X14823414Y-10304843D01*
X14809128Y-10319129D01*
X14780557Y-10333414D01*
X14751986Y-10333414D01*
X14723414Y-10319129D01*
X14709128Y-10304843D01*
X14694843Y-10276272D01*
X14680557Y-10219129D01*
X14680557Y-10147700D01*
X14694843Y-10090557D01*
X14709128Y-10061986D01*
X14723414Y-10047700D01*
X14751986Y-10033414D01*
X14966271Y-10061986D02*
X14980557Y-10047700D01*
X15009128Y-10033414D01*
X15080557Y-10033414D01*
X15109128Y-10047700D01*
X15123414Y-10061986D01*
X15137700Y-10090557D01*
X15137700Y-10119129D01*
X15123414Y-10161986D01*
X14951986Y-10333414D01*
X15137700Y-10333414D01*
X15280557Y-10333414D02*
X15337700Y-10333414D01*
X15366271Y-10319129D01*
X15380557Y-10304843D01*
X15409128Y-10261986D01*
X15423414Y-10204843D01*
X15423414Y-10090557D01*
X15409128Y-10061986D01*
X15394843Y-10047700D01*
X15366271Y-10033414D01*
X15309128Y-10033414D01*
X15280557Y-10047700D01*
X15266271Y-10061986D01*
X15251986Y-10090557D01*
X15251986Y-10161986D01*
X15266271Y-10190557D01*
X15280557Y-10204843D01*
X15309128Y-10219129D01*
X15366271Y-10219129D01*
X15394843Y-10204843D01*
X15409128Y-10190557D01*
X15423414Y-10161986D01*
X15694843Y-10033414D02*
X15551986Y-10033414D01*
X15537700Y-10176272D01*
X15551986Y-10161986D01*
X15580557Y-10147700D01*
X15651986Y-10147700D01*
X15680557Y-10161986D01*
X15694843Y-10176272D01*
X15709128Y-10204843D01*
X15709128Y-10276272D01*
X15694843Y-10304843D01*
X15680557Y-10319129D01*
X15651986Y-10333414D01*
X15580557Y-10333414D01*
X15551986Y-10319129D01*
X15537700Y-10304843D01*
X15823414Y-10033414D02*
X15823414Y-10090557D01*
X15937700Y-10033414D02*
X15937700Y-10090557D01*
X16380557Y-10447700D02*
X16366271Y-10433414D01*
X16337700Y-10390557D01*
X16323414Y-10361986D01*
X16309128Y-10319129D01*
X16294843Y-10247700D01*
X16294843Y-10190557D01*
X16309128Y-10119129D01*
X16323414Y-10076272D01*
X16337700Y-10047700D01*
X16366271Y-10004843D01*
X16380557Y-9990557D01*
X16466271Y-10033414D02*
X16651986Y-10033414D01*
X16551986Y-10147700D01*
X16594843Y-10147700D01*
X16623414Y-10161986D01*
X16637700Y-10176272D01*
X16651986Y-10204843D01*
X16651986Y-10276272D01*
X16637700Y-10304843D01*
X16623414Y-10319129D01*
X16594843Y-10333414D01*
X16509128Y-10333414D01*
X16480557Y-10319129D01*
X16466271Y-10304843D01*
X17009128Y-10333414D02*
X17009128Y-10033414D01*
X17137700Y-10333414D02*
X17137700Y-10176272D01*
X17123414Y-10147700D01*
X17094843Y-10133414D01*
X17051986Y-10133414D01*
X17023414Y-10147700D01*
X17009128Y-10161986D01*
X17323414Y-10333414D02*
X17294843Y-10319129D01*
X17280557Y-10304843D01*
X17266271Y-10276272D01*
X17266271Y-10190557D01*
X17280557Y-10161986D01*
X17294843Y-10147700D01*
X17323414Y-10133414D01*
X17366271Y-10133414D01*
X17394843Y-10147700D01*
X17409128Y-10161986D01*
X17423414Y-10190557D01*
X17423414Y-10276272D01*
X17409128Y-10304843D01*
X17394843Y-10319129D01*
X17366271Y-10333414D01*
X17323414Y-10333414D01*
X17594843Y-10333414D02*
X17566271Y-10319129D01*
X17551986Y-10290557D01*
X17551986Y-10033414D01*
X17823414Y-10319129D02*
X17794843Y-10333414D01*
X17737700Y-10333414D01*
X17709128Y-10319129D01*
X17694843Y-10290557D01*
X17694843Y-10176272D01*
X17709128Y-10147700D01*
X17737700Y-10133414D01*
X17794843Y-10133414D01*
X17823414Y-10147700D01*
X17837700Y-10176272D01*
X17837700Y-10204843D01*
X17694843Y-10233414D01*
X17951986Y-10319129D02*
X17980557Y-10333414D01*
X18037700Y-10333414D01*
X18066271Y-10319129D01*
X18080557Y-10290557D01*
X18080557Y-10276272D01*
X18066271Y-10247700D01*
X18037700Y-10233414D01*
X17994843Y-10233414D01*
X17966271Y-10219129D01*
X17951986Y-10190557D01*
X17951986Y-10176272D01*
X17966271Y-10147700D01*
X17994843Y-10133414D01*
X18037700Y-10133414D01*
X18066271Y-10147700D01*
X18180557Y-10447700D02*
X18194843Y-10433414D01*
X18223414Y-10390557D01*
X18237700Y-10361986D01*
X18251986Y-10319129D01*
X18266271Y-10247700D01*
X18266271Y-10190557D01*
X18251986Y-10119129D01*
X18237700Y-10076272D01*
X18223414Y-10047700D01*
X18194843Y-10004843D01*
X18180557Y-9990557D01*
X11082700Y-10553700D02*
X11082700Y-10633700D01*
X11042700Y-10593700D02*
X11122700Y-10593700D01*
X11466271Y-10429414D02*
X11494843Y-10429414D01*
X11523414Y-10443700D01*
X11537700Y-10457986D01*
X11551986Y-10486557D01*
X11566271Y-10543700D01*
X11566271Y-10615129D01*
X11551986Y-10672272D01*
X11537700Y-10700843D01*
X11523414Y-10715129D01*
X11494843Y-10729414D01*
X11466271Y-10729414D01*
X11437700Y-10715129D01*
X11423414Y-10700843D01*
X11409128Y-10672272D01*
X11394843Y-10615129D01*
X11394843Y-10543700D01*
X11409128Y-10486557D01*
X11423414Y-10457986D01*
X11437700Y-10443700D01*
X11466271Y-10429414D01*
X11694843Y-10700843D02*
X11709128Y-10715129D01*
X11694843Y-10729414D01*
X11680557Y-10715129D01*
X11694843Y-10700843D01*
X11694843Y-10729414D01*
X11880557Y-10557986D02*
X11851986Y-10543700D01*
X11837700Y-10529414D01*
X11823414Y-10500843D01*
X11823414Y-10486557D01*
X11837700Y-10457986D01*
X11851986Y-10443700D01*
X11880557Y-10429414D01*
X11937700Y-10429414D01*
X11966271Y-10443700D01*
X11980557Y-10457986D01*
X11994843Y-10486557D01*
X11994843Y-10500843D01*
X11980557Y-10529414D01*
X11966271Y-10543700D01*
X11937700Y-10557986D01*
X11880557Y-10557986D01*
X11851986Y-10572272D01*
X11837700Y-10586557D01*
X11823414Y-10615129D01*
X11823414Y-10672272D01*
X11837700Y-10700843D01*
X11851986Y-10715129D01*
X11880557Y-10729414D01*
X11937700Y-10729414D01*
X11966271Y-10715129D01*
X11980557Y-10700843D01*
X11994843Y-10672272D01*
X11994843Y-10615129D01*
X11980557Y-10586557D01*
X11966271Y-10572272D01*
X11937700Y-10557986D01*
X12180557Y-10429414D02*
X12209128Y-10429414D01*
X12237700Y-10443700D01*
X12251986Y-10457986D01*
X12266271Y-10486557D01*
X12280557Y-10543700D01*
X12280557Y-10615129D01*
X12266271Y-10672272D01*
X12251986Y-10700843D01*
X12237700Y-10715129D01*
X12209128Y-10729414D01*
X12180557Y-10729414D01*
X12151986Y-10715129D01*
X12137700Y-10700843D01*
X12123414Y-10672272D01*
X12109128Y-10615129D01*
X12109128Y-10543700D01*
X12123414Y-10486557D01*
X12137700Y-10457986D01*
X12151986Y-10443700D01*
X12180557Y-10429414D01*
X12466271Y-10429414D02*
X12494843Y-10429414D01*
X12523414Y-10443700D01*
X12537700Y-10457986D01*
X12551986Y-10486557D01*
X12566271Y-10543700D01*
X12566271Y-10615129D01*
X12551986Y-10672272D01*
X12537700Y-10700843D01*
X12523414Y-10715129D01*
X12494843Y-10729414D01*
X12466271Y-10729414D01*
X12437700Y-10715129D01*
X12423414Y-10700843D01*
X12409128Y-10672272D01*
X12394843Y-10615129D01*
X12394843Y-10543700D01*
X12409128Y-10486557D01*
X12423414Y-10457986D01*
X12437700Y-10443700D01*
X12466271Y-10429414D01*
X12694843Y-10729414D02*
X12694843Y-10529414D01*
X12694843Y-10557986D02*
X12709128Y-10543700D01*
X12737700Y-10529414D01*
X12780557Y-10529414D01*
X12809128Y-10543700D01*
X12823414Y-10572272D01*
X12823414Y-10729414D01*
X12823414Y-10572272D02*
X12837700Y-10543700D01*
X12866271Y-10529414D01*
X12909128Y-10529414D01*
X12937700Y-10543700D01*
X12951986Y-10572272D01*
X12951986Y-10729414D01*
X13094843Y-10729414D02*
X13094843Y-10529414D01*
X13094843Y-10557986D02*
X13109128Y-10543700D01*
X13137700Y-10529414D01*
X13180557Y-10529414D01*
X13209128Y-10543700D01*
X13223414Y-10572272D01*
X13223414Y-10729414D01*
X13223414Y-10572272D02*
X13237700Y-10543700D01*
X13266271Y-10529414D01*
X13309128Y-10529414D01*
X13337700Y-10543700D01*
X13351986Y-10572272D01*
X13351986Y-10729414D01*
X13937700Y-10415129D02*
X13680557Y-10800843D01*
X14323414Y-10429414D02*
X14351986Y-10429414D01*
X14380557Y-10443700D01*
X14394843Y-10457986D01*
X14409128Y-10486557D01*
X14423414Y-10543700D01*
X14423414Y-10615129D01*
X14409128Y-10672272D01*
X14394843Y-10700843D01*
X14380557Y-10715129D01*
X14351986Y-10729414D01*
X14323414Y-10729414D01*
X14294843Y-10715129D01*
X14280557Y-10700843D01*
X14266271Y-10672272D01*
X14251986Y-10615129D01*
X14251986Y-10543700D01*
X14266271Y-10486557D01*
X14280557Y-10457986D01*
X14294843Y-10443700D01*
X14323414Y-10429414D01*
X14551986Y-10700843D02*
X14566271Y-10715129D01*
X14551986Y-10729414D01*
X14537700Y-10715129D01*
X14551986Y-10700843D01*
X14551986Y-10729414D01*
X14751986Y-10429414D02*
X14780557Y-10429414D01*
X14809128Y-10443700D01*
X14823414Y-10457986D01*
X14837700Y-10486557D01*
X14851986Y-10543700D01*
X14851986Y-10615129D01*
X14837700Y-10672272D01*
X14823414Y-10700843D01*
X14809128Y-10715129D01*
X14780557Y-10729414D01*
X14751986Y-10729414D01*
X14723414Y-10715129D01*
X14709128Y-10700843D01*
X14694843Y-10672272D01*
X14680557Y-10615129D01*
X14680557Y-10543700D01*
X14694843Y-10486557D01*
X14709128Y-10457986D01*
X14723414Y-10443700D01*
X14751986Y-10429414D01*
X14951986Y-10429414D02*
X15137700Y-10429414D01*
X15037700Y-10543700D01*
X15080557Y-10543700D01*
X15109128Y-10557986D01*
X15123414Y-10572272D01*
X15137700Y-10600843D01*
X15137700Y-10672272D01*
X15123414Y-10700843D01*
X15109128Y-10715129D01*
X15080557Y-10729414D01*
X14994843Y-10729414D01*
X14966271Y-10715129D01*
X14951986Y-10700843D01*
X15423414Y-10729414D02*
X15251986Y-10729414D01*
X15337700Y-10729414D02*
X15337700Y-10429414D01*
X15309128Y-10472272D01*
X15280557Y-10500843D01*
X15251986Y-10515129D01*
X15694843Y-10429414D02*
X15551986Y-10429414D01*
X15537700Y-10572272D01*
X15551986Y-10557986D01*
X15580557Y-10543700D01*
X15651986Y-10543700D01*
X15680557Y-10557986D01*
X15694843Y-10572272D01*
X15709128Y-10600843D01*
X15709128Y-10672272D01*
X15694843Y-10700843D01*
X15680557Y-10715129D01*
X15651986Y-10729414D01*
X15580557Y-10729414D01*
X15551986Y-10715129D01*
X15537700Y-10700843D01*
X15823414Y-10429414D02*
X15823414Y-10486557D01*
X15937700Y-10429414D02*
X15937700Y-10486557D01*
X16380557Y-10843700D02*
X16366271Y-10829414D01*
X16337700Y-10786557D01*
X16323414Y-10757986D01*
X16309128Y-10715129D01*
X16294843Y-10643700D01*
X16294843Y-10586557D01*
X16309128Y-10515129D01*
X16323414Y-10472272D01*
X16337700Y-10443700D01*
X16366271Y-10400843D01*
X16380557Y-10386557D01*
X16480557Y-10457986D02*
X16494843Y-10443700D01*
X16523414Y-10429414D01*
X16594843Y-10429414D01*
X16623414Y-10443700D01*
X16637700Y-10457986D01*
X16651986Y-10486557D01*
X16651986Y-10515129D01*
X16637700Y-10557986D01*
X16466271Y-10729414D01*
X16651986Y-10729414D01*
X17009128Y-10729414D02*
X17009128Y-10429414D01*
X17137700Y-10729414D02*
X17137700Y-10572272D01*
X17123414Y-10543700D01*
X17094843Y-10529414D01*
X17051986Y-10529414D01*
X17023414Y-10543700D01*
X17009128Y-10557986D01*
X17323414Y-10729414D02*
X17294843Y-10715129D01*
X17280557Y-10700843D01*
X17266271Y-10672272D01*
X17266271Y-10586557D01*
X17280557Y-10557986D01*
X17294843Y-10543700D01*
X17323414Y-10529414D01*
X17366271Y-10529414D01*
X17394843Y-10543700D01*
X17409128Y-10557986D01*
X17423414Y-10586557D01*
X17423414Y-10672272D01*
X17409128Y-10700843D01*
X17394843Y-10715129D01*
X17366271Y-10729414D01*
X17323414Y-10729414D01*
X17594843Y-10729414D02*
X17566271Y-10715129D01*
X17551986Y-10686557D01*
X17551986Y-10429414D01*
X17823414Y-10715129D02*
X17794843Y-10729414D01*
X17737700Y-10729414D01*
X17709128Y-10715129D01*
X17694843Y-10686557D01*
X17694843Y-10572272D01*
X17709128Y-10543700D01*
X17737700Y-10529414D01*
X17794843Y-10529414D01*
X17823414Y-10543700D01*
X17837700Y-10572272D01*
X17837700Y-10600843D01*
X17694843Y-10629414D01*
X17951986Y-10715129D02*
X17980557Y-10729414D01*
X18037700Y-10729414D01*
X18066271Y-10715129D01*
X18080557Y-10686557D01*
X18080557Y-10672272D01*
X18066271Y-10643700D01*
X18037700Y-10629414D01*
X17994843Y-10629414D01*
X17966271Y-10615129D01*
X17951986Y-10586557D01*
X17951986Y-10572272D01*
X17966271Y-10543700D01*
X17994843Y-10529414D01*
X18037700Y-10529414D01*
X18066271Y-10543700D01*
X18180557Y-10843700D02*
X18194843Y-10829414D01*
X18223414Y-10786557D01*
X18237700Y-10757986D01*
X18251986Y-10715129D01*
X18266271Y-10643700D01*
X18266271Y-10586557D01*
X18251986Y-10515129D01*
X18237700Y-10472272D01*
X18223414Y-10443700D01*
X18194843Y-10400843D01*
X18180557Y-10386557D01*
X11108056Y-11025056D02*
X11108056Y-10954344D01*
X11037344Y-10954344D01*
X11037344Y-11025056D01*
X11108056Y-11025056D01*
X11566271Y-11125414D02*
X11394843Y-11125414D01*
X11480557Y-11125414D02*
X11480557Y-10825414D01*
X11451986Y-10868272D01*
X11423414Y-10896843D01*
X11394843Y-10911129D01*
X11694843Y-11096843D02*
X11709128Y-11111129D01*
X11694843Y-11125414D01*
X11680557Y-11111129D01*
X11694843Y-11096843D01*
X11694843Y-11125414D01*
X11894843Y-10825414D02*
X11923414Y-10825414D01*
X11951986Y-10839700D01*
X11966271Y-10853986D01*
X11980557Y-10882557D01*
X11994843Y-10939700D01*
X11994843Y-11011129D01*
X11980557Y-11068272D01*
X11966271Y-11096843D01*
X11951986Y-11111129D01*
X11923414Y-11125414D01*
X11894843Y-11125414D01*
X11866271Y-11111129D01*
X11851986Y-11096843D01*
X11837700Y-11068272D01*
X11823414Y-11011129D01*
X11823414Y-10939700D01*
X11837700Y-10882557D01*
X11851986Y-10853986D01*
X11866271Y-10839700D01*
X11894843Y-10825414D01*
X12180557Y-10825414D02*
X12209128Y-10825414D01*
X12237700Y-10839700D01*
X12251986Y-10853986D01*
X12266271Y-10882557D01*
X12280557Y-10939700D01*
X12280557Y-11011129D01*
X12266271Y-11068272D01*
X12251986Y-11096843D01*
X12237700Y-11111129D01*
X12209128Y-11125414D01*
X12180557Y-11125414D01*
X12151986Y-11111129D01*
X12137700Y-11096843D01*
X12123414Y-11068272D01*
X12109128Y-11011129D01*
X12109128Y-10939700D01*
X12123414Y-10882557D01*
X12137700Y-10853986D01*
X12151986Y-10839700D01*
X12180557Y-10825414D01*
X12466271Y-10825414D02*
X12494843Y-10825414D01*
X12523414Y-10839700D01*
X12537700Y-10853986D01*
X12551986Y-10882557D01*
X12566271Y-10939700D01*
X12566271Y-11011129D01*
X12551986Y-11068272D01*
X12537700Y-11096843D01*
X12523414Y-11111129D01*
X12494843Y-11125414D01*
X12466271Y-11125414D01*
X12437700Y-11111129D01*
X12423414Y-11096843D01*
X12409128Y-11068272D01*
X12394843Y-11011129D01*
X12394843Y-10939700D01*
X12409128Y-10882557D01*
X12423414Y-10853986D01*
X12437700Y-10839700D01*
X12466271Y-10825414D01*
X12694843Y-11125414D02*
X12694843Y-10925414D01*
X12694843Y-10953986D02*
X12709128Y-10939700D01*
X12737700Y-10925414D01*
X12780557Y-10925414D01*
X12809128Y-10939700D01*
X12823414Y-10968272D01*
X12823414Y-11125414D01*
X12823414Y-10968272D02*
X12837700Y-10939700D01*
X12866271Y-10925414D01*
X12909128Y-10925414D01*
X12937700Y-10939700D01*
X12951986Y-10968272D01*
X12951986Y-11125414D01*
X13094843Y-11125414D02*
X13094843Y-10925414D01*
X13094843Y-10953986D02*
X13109128Y-10939700D01*
X13137700Y-10925414D01*
X13180557Y-10925414D01*
X13209128Y-10939700D01*
X13223414Y-10968272D01*
X13223414Y-11125414D01*
X13223414Y-10968272D02*
X13237700Y-10939700D01*
X13266271Y-10925414D01*
X13309128Y-10925414D01*
X13337700Y-10939700D01*
X13351986Y-10968272D01*
X13351986Y-11125414D01*
X13937700Y-10811129D02*
X13680557Y-11196843D01*
X14323414Y-10825414D02*
X14351986Y-10825414D01*
X14380557Y-10839700D01*
X14394843Y-10853986D01*
X14409128Y-10882557D01*
X14423414Y-10939700D01*
X14423414Y-11011129D01*
X14409128Y-11068272D01*
X14394843Y-11096843D01*
X14380557Y-11111129D01*
X14351986Y-11125414D01*
X14323414Y-11125414D01*
X14294843Y-11111129D01*
X14280557Y-11096843D01*
X14266271Y-11068272D01*
X14251986Y-11011129D01*
X14251986Y-10939700D01*
X14266271Y-10882557D01*
X14280557Y-10853986D01*
X14294843Y-10839700D01*
X14323414Y-10825414D01*
X14551986Y-11096843D02*
X14566271Y-11111129D01*
X14551986Y-11125414D01*
X14537700Y-11111129D01*
X14551986Y-11096843D01*
X14551986Y-11125414D01*
X14751986Y-10825414D02*
X14780557Y-10825414D01*
X14809128Y-10839700D01*
X14823414Y-10853986D01*
X14837700Y-10882557D01*
X14851986Y-10939700D01*
X14851986Y-11011129D01*
X14837700Y-11068272D01*
X14823414Y-11096843D01*
X14809128Y-11111129D01*
X14780557Y-11125414D01*
X14751986Y-11125414D01*
X14723414Y-11111129D01*
X14709128Y-11096843D01*
X14694843Y-11068272D01*
X14680557Y-11011129D01*
X14680557Y-10939700D01*
X14694843Y-10882557D01*
X14709128Y-10853986D01*
X14723414Y-10839700D01*
X14751986Y-10825414D01*
X14951986Y-10825414D02*
X15137700Y-10825414D01*
X15037700Y-10939700D01*
X15080557Y-10939700D01*
X15109128Y-10953986D01*
X15123414Y-10968272D01*
X15137700Y-10996843D01*
X15137700Y-11068272D01*
X15123414Y-11096843D01*
X15109128Y-11111129D01*
X15080557Y-11125414D01*
X14994843Y-11125414D01*
X14966271Y-11111129D01*
X14951986Y-11096843D01*
X15280557Y-11125414D02*
X15337700Y-11125414D01*
X15366271Y-11111129D01*
X15380557Y-11096843D01*
X15409128Y-11053986D01*
X15423414Y-10996843D01*
X15423414Y-10882557D01*
X15409128Y-10853986D01*
X15394843Y-10839700D01*
X15366271Y-10825414D01*
X15309128Y-10825414D01*
X15280557Y-10839700D01*
X15266271Y-10853986D01*
X15251986Y-10882557D01*
X15251986Y-10953986D01*
X15266271Y-10982557D01*
X15280557Y-10996843D01*
X15309128Y-11011129D01*
X15366271Y-11011129D01*
X15394843Y-10996843D01*
X15409128Y-10982557D01*
X15423414Y-10953986D01*
X15680557Y-10925414D02*
X15680557Y-11125414D01*
X15609128Y-10811129D02*
X15537700Y-11025414D01*
X15723414Y-11025414D01*
X15823414Y-10825414D02*
X15823414Y-10882557D01*
X15937700Y-10825414D02*
X15937700Y-10882557D01*
X16380557Y-11239700D02*
X16366271Y-11225414D01*
X16337700Y-11182557D01*
X16323414Y-11153986D01*
X16309128Y-11111129D01*
X16294843Y-11039700D01*
X16294843Y-10982557D01*
X16309128Y-10911129D01*
X16323414Y-10868272D01*
X16337700Y-10839700D01*
X16366271Y-10796843D01*
X16380557Y-10782557D01*
X16651986Y-11125414D02*
X16480557Y-11125414D01*
X16566271Y-11125414D02*
X16566271Y-10825414D01*
X16537700Y-10868272D01*
X16509128Y-10896843D01*
X16480557Y-10911129D01*
X16823414Y-10953986D02*
X16794843Y-10939700D01*
X16780557Y-10925414D01*
X16766271Y-10896843D01*
X16766271Y-10882557D01*
X16780557Y-10853986D01*
X16794843Y-10839700D01*
X16823414Y-10825414D01*
X16880557Y-10825414D01*
X16909128Y-10839700D01*
X16923414Y-10853986D01*
X16937700Y-10882557D01*
X16937700Y-10896843D01*
X16923414Y-10925414D01*
X16909128Y-10939700D01*
X16880557Y-10953986D01*
X16823414Y-10953986D01*
X16794843Y-10968272D01*
X16780557Y-10982557D01*
X16766271Y-11011129D01*
X16766271Y-11068272D01*
X16780557Y-11096843D01*
X16794843Y-11111129D01*
X16823414Y-11125414D01*
X16880557Y-11125414D01*
X16909128Y-11111129D01*
X16923414Y-11096843D01*
X16937700Y-11068272D01*
X16937700Y-11011129D01*
X16923414Y-10982557D01*
X16909128Y-10968272D01*
X16880557Y-10953986D01*
X17294843Y-11125414D02*
X17294843Y-10825414D01*
X17423414Y-11125414D02*
X17423414Y-10968272D01*
X17409128Y-10939700D01*
X17380557Y-10925414D01*
X17337700Y-10925414D01*
X17309128Y-10939700D01*
X17294843Y-10953986D01*
X17609128Y-11125414D02*
X17580557Y-11111129D01*
X17566271Y-11096843D01*
X17551986Y-11068272D01*
X17551986Y-10982557D01*
X17566271Y-10953986D01*
X17580557Y-10939700D01*
X17609128Y-10925414D01*
X17651986Y-10925414D01*
X17680557Y-10939700D01*
X17694843Y-10953986D01*
X17709128Y-10982557D01*
X17709128Y-11068272D01*
X17694843Y-11096843D01*
X17680557Y-11111129D01*
X17651986Y-11125414D01*
X17609128Y-11125414D01*
X17880557Y-11125414D02*
X17851986Y-11111129D01*
X17837700Y-11082557D01*
X17837700Y-10825414D01*
X18109128Y-11111129D02*
X18080557Y-11125414D01*
X18023414Y-11125414D01*
X17994843Y-11111129D01*
X17980557Y-11082557D01*
X17980557Y-10968272D01*
X17994843Y-10939700D01*
X18023414Y-10925414D01*
X18080557Y-10925414D01*
X18109128Y-10939700D01*
X18123414Y-10968272D01*
X18123414Y-10996843D01*
X17980557Y-11025414D01*
X18237700Y-11111129D02*
X18266271Y-11125414D01*
X18323414Y-11125414D01*
X18351986Y-11111129D01*
X18366271Y-11082557D01*
X18366271Y-11068272D01*
X18351986Y-11039700D01*
X18323414Y-11025414D01*
X18280557Y-11025414D01*
X18251986Y-11011129D01*
X18237700Y-10982557D01*
X18237700Y-10968272D01*
X18251986Y-10939700D01*
X18280557Y-10925414D01*
X18323414Y-10925414D01*
X18351986Y-10939700D01*
X18466271Y-11239700D02*
X18480557Y-11225414D01*
X18509128Y-11182557D01*
X18523414Y-11153986D01*
X18537700Y-11111129D01*
X18551986Y-11039700D01*
X18551986Y-10982557D01*
X18537700Y-10911129D01*
X18523414Y-10868272D01*
X18509128Y-10839700D01*
X18480557Y-10796843D01*
X18466271Y-10782557D01*
X11012700Y-11495700D02*
X11122700Y-11385700D01*
X11012700Y-11275700D01*
X10902700Y-11385700D01*
X11012700Y-11495700D01*
X11394843Y-11249986D02*
X11409128Y-11235700D01*
X11437700Y-11221414D01*
X11509128Y-11221414D01*
X11537700Y-11235700D01*
X11551986Y-11249986D01*
X11566271Y-11278557D01*
X11566271Y-11307129D01*
X11551986Y-11349986D01*
X11380557Y-11521414D01*
X11566271Y-11521414D01*
X11694843Y-11492843D02*
X11709128Y-11507129D01*
X11694843Y-11521414D01*
X11680557Y-11507129D01*
X11694843Y-11492843D01*
X11694843Y-11521414D01*
X11823414Y-11249986D02*
X11837700Y-11235700D01*
X11866271Y-11221414D01*
X11937700Y-11221414D01*
X11966271Y-11235700D01*
X11980557Y-11249986D01*
X11994843Y-11278557D01*
X11994843Y-11307129D01*
X11980557Y-11349986D01*
X11809128Y-11521414D01*
X11994843Y-11521414D01*
X12180557Y-11221414D02*
X12209128Y-11221414D01*
X12237700Y-11235700D01*
X12251986Y-11249986D01*
X12266271Y-11278557D01*
X12280557Y-11335700D01*
X12280557Y-11407129D01*
X12266271Y-11464271D01*
X12251986Y-11492843D01*
X12237700Y-11507129D01*
X12209128Y-11521414D01*
X12180557Y-11521414D01*
X12151986Y-11507129D01*
X12137700Y-11492843D01*
X12123414Y-11464271D01*
X12109128Y-11407129D01*
X12109128Y-11335700D01*
X12123414Y-11278557D01*
X12137700Y-11249986D01*
X12151986Y-11235700D01*
X12180557Y-11221414D01*
X12466271Y-11221414D02*
X12494843Y-11221414D01*
X12523414Y-11235700D01*
X12537700Y-11249986D01*
X12551986Y-11278557D01*
X12566271Y-11335700D01*
X12566271Y-11407129D01*
X12551986Y-11464271D01*
X12537700Y-11492843D01*
X12523414Y-11507129D01*
X12494843Y-11521414D01*
X12466271Y-11521414D01*
X12437700Y-11507129D01*
X12423414Y-11492843D01*
X12409128Y-11464271D01*
X12394843Y-11407129D01*
X12394843Y-11335700D01*
X12409128Y-11278557D01*
X12423414Y-11249986D01*
X12437700Y-11235700D01*
X12466271Y-11221414D01*
X12694843Y-11521414D02*
X12694843Y-11321414D01*
X12694843Y-11349986D02*
X12709128Y-11335700D01*
X12737700Y-11321414D01*
X12780557Y-11321414D01*
X12809128Y-11335700D01*
X12823414Y-11364271D01*
X12823414Y-11521414D01*
X12823414Y-11364271D02*
X12837700Y-11335700D01*
X12866271Y-11321414D01*
X12909128Y-11321414D01*
X12937700Y-11335700D01*
X12951986Y-11364271D01*
X12951986Y-11521414D01*
X13094843Y-11521414D02*
X13094843Y-11321414D01*
X13094843Y-11349986D02*
X13109128Y-11335700D01*
X13137700Y-11321414D01*
X13180557Y-11321414D01*
X13209128Y-11335700D01*
X13223414Y-11364271D01*
X13223414Y-11521414D01*
X13223414Y-11364271D02*
X13237700Y-11335700D01*
X13266271Y-11321414D01*
X13309128Y-11321414D01*
X13337700Y-11335700D01*
X13351986Y-11364271D01*
X13351986Y-11521414D01*
X13937700Y-11207129D02*
X13680557Y-11592843D01*
X14323414Y-11221414D02*
X14351986Y-11221414D01*
X14380557Y-11235700D01*
X14394843Y-11249986D01*
X14409128Y-11278557D01*
X14423414Y-11335700D01*
X14423414Y-11407129D01*
X14409128Y-11464271D01*
X14394843Y-11492843D01*
X14380557Y-11507129D01*
X14351986Y-11521414D01*
X14323414Y-11521414D01*
X14294843Y-11507129D01*
X14280557Y-11492843D01*
X14266271Y-11464271D01*
X14251986Y-11407129D01*
X14251986Y-11335700D01*
X14266271Y-11278557D01*
X14280557Y-11249986D01*
X14294843Y-11235700D01*
X14323414Y-11221414D01*
X14551986Y-11492843D02*
X14566271Y-11507129D01*
X14551986Y-11521414D01*
X14537700Y-11507129D01*
X14551986Y-11492843D01*
X14551986Y-11521414D01*
X14751986Y-11221414D02*
X14780557Y-11221414D01*
X14809128Y-11235700D01*
X14823414Y-11249986D01*
X14837700Y-11278557D01*
X14851986Y-11335700D01*
X14851986Y-11407129D01*
X14837700Y-11464271D01*
X14823414Y-11492843D01*
X14809128Y-11507129D01*
X14780557Y-11521414D01*
X14751986Y-11521414D01*
X14723414Y-11507129D01*
X14709128Y-11492843D01*
X14694843Y-11464271D01*
X14680557Y-11407129D01*
X14680557Y-11335700D01*
X14694843Y-11278557D01*
X14709128Y-11249986D01*
X14723414Y-11235700D01*
X14751986Y-11221414D01*
X15023414Y-11349986D02*
X14994843Y-11335700D01*
X14980557Y-11321414D01*
X14966271Y-11292843D01*
X14966271Y-11278557D01*
X14980557Y-11249986D01*
X14994843Y-11235700D01*
X15023414Y-11221414D01*
X15080557Y-11221414D01*
X15109128Y-11235700D01*
X15123414Y-11249986D01*
X15137700Y-11278557D01*
X15137700Y-11292843D01*
X15123414Y-11321414D01*
X15109128Y-11335700D01*
X15080557Y-11349986D01*
X15023414Y-11349986D01*
X14994843Y-11364271D01*
X14980557Y-11378557D01*
X14966271Y-11407129D01*
X14966271Y-11464271D01*
X14980557Y-11492843D01*
X14994843Y-11507129D01*
X15023414Y-11521414D01*
X15080557Y-11521414D01*
X15109128Y-11507129D01*
X15123414Y-11492843D01*
X15137700Y-11464271D01*
X15137700Y-11407129D01*
X15123414Y-11378557D01*
X15109128Y-11364271D01*
X15080557Y-11349986D01*
X15394843Y-11221414D02*
X15337700Y-11221414D01*
X15309128Y-11235700D01*
X15294843Y-11249986D01*
X15266271Y-11292843D01*
X15251986Y-11349986D01*
X15251986Y-11464271D01*
X15266271Y-11492843D01*
X15280557Y-11507129D01*
X15309128Y-11521414D01*
X15366271Y-11521414D01*
X15394843Y-11507129D01*
X15409128Y-11492843D01*
X15423414Y-11464271D01*
X15423414Y-11392843D01*
X15409128Y-11364271D01*
X15394843Y-11349986D01*
X15366271Y-11335700D01*
X15309128Y-11335700D01*
X15280557Y-11349986D01*
X15266271Y-11364271D01*
X15251986Y-11392843D01*
X15680557Y-11221414D02*
X15623414Y-11221414D01*
X15594843Y-11235700D01*
X15580557Y-11249986D01*
X15551986Y-11292843D01*
X15537700Y-11349986D01*
X15537700Y-11464271D01*
X15551986Y-11492843D01*
X15566271Y-11507129D01*
X15594843Y-11521414D01*
X15651986Y-11521414D01*
X15680557Y-11507129D01*
X15694843Y-11492843D01*
X15709128Y-11464271D01*
X15709128Y-11392843D01*
X15694843Y-11364271D01*
X15680557Y-11349986D01*
X15651986Y-11335700D01*
X15594843Y-11335700D01*
X15566271Y-11349986D01*
X15551986Y-11364271D01*
X15537700Y-11392843D01*
X15823414Y-11221414D02*
X15823414Y-11278557D01*
X15937700Y-11221414D02*
X15937700Y-11278557D01*
X16380557Y-11635700D02*
X16366271Y-11621414D01*
X16337700Y-11578557D01*
X16323414Y-11549986D01*
X16309128Y-11507129D01*
X16294843Y-11435700D01*
X16294843Y-11378557D01*
X16309128Y-11307129D01*
X16323414Y-11264271D01*
X16337700Y-11235700D01*
X16366271Y-11192843D01*
X16380557Y-11178557D01*
X16623414Y-11321414D02*
X16623414Y-11521414D01*
X16551986Y-11207129D02*
X16480557Y-11421414D01*
X16666271Y-11421414D01*
X17009128Y-11521414D02*
X17009128Y-11221414D01*
X17137700Y-11521414D02*
X17137700Y-11364271D01*
X17123414Y-11335700D01*
X17094843Y-11321414D01*
X17051986Y-11321414D01*
X17023414Y-11335700D01*
X17009128Y-11349986D01*
X17323414Y-11521414D02*
X17294843Y-11507129D01*
X17280557Y-11492843D01*
X17266271Y-11464271D01*
X17266271Y-11378557D01*
X17280557Y-11349986D01*
X17294843Y-11335700D01*
X17323414Y-11321414D01*
X17366271Y-11321414D01*
X17394843Y-11335700D01*
X17409128Y-11349986D01*
X17423414Y-11378557D01*
X17423414Y-11464271D01*
X17409128Y-11492843D01*
X17394843Y-11507129D01*
X17366271Y-11521414D01*
X17323414Y-11521414D01*
X17594843Y-11521414D02*
X17566271Y-11507129D01*
X17551986Y-11478557D01*
X17551986Y-11221414D01*
X17823414Y-11507129D02*
X17794843Y-11521414D01*
X17737700Y-11521414D01*
X17709128Y-11507129D01*
X17694843Y-11478557D01*
X17694843Y-11364271D01*
X17709128Y-11335700D01*
X17737700Y-11321414D01*
X17794843Y-11321414D01*
X17823414Y-11335700D01*
X17837700Y-11364271D01*
X17837700Y-11392843D01*
X17694843Y-11421414D01*
X17951986Y-11507129D02*
X17980557Y-11521414D01*
X18037700Y-11521414D01*
X18066271Y-11507129D01*
X18080557Y-11478557D01*
X18080557Y-11464271D01*
X18066271Y-11435700D01*
X18037700Y-11421414D01*
X17994843Y-11421414D01*
X17966271Y-11407129D01*
X17951986Y-11378557D01*
X17951986Y-11364271D01*
X17966271Y-11335700D01*
X17994843Y-11321414D01*
X18037700Y-11321414D01*
X18066271Y-11335700D01*
X18180557Y-11635700D02*
X18194843Y-11621414D01*
X18223414Y-11578557D01*
X18237700Y-11549986D01*
X18251986Y-11507129D01*
X18266271Y-11435700D01*
X18266271Y-11378557D01*
X18251986Y-11307129D01*
X18237700Y-11264271D01*
X18223414Y-11235700D01*
X18194843Y-11192843D01*
X18180557Y-11178557D01*
M02*
