G04 #@! TF.GenerationSoftware,KiCad,Pcbnew,(5.1.10-1-10_14)*
G04 #@! TF.CreationDate,2021-10-16T14:11:52-07:00*
G04 #@! TF.ProjectId,qiroll PAS digital logic,7169726f-6c6c-4205-9041-532064696769,rev?*
G04 #@! TF.SameCoordinates,Original*
G04 #@! TF.FileFunction,Copper,L2,Bot*
G04 #@! TF.FilePolarity,Positive*
%FSLAX46Y46*%
G04 Gerber Fmt 4.6, Leading zero omitted, Abs format (unit mm)*
G04 Created by KiCad (PCBNEW (5.1.10-1-10_14)) date 2021-10-16 14:11:52*
%MOMM*%
%LPD*%
G01*
G04 APERTURE LIST*
G04 #@! TA.AperFunction,ComponentPad*
%ADD10O,1.700000X1.700000*%
G04 #@! TD*
G04 #@! TA.AperFunction,ComponentPad*
%ADD11R,1.700000X1.700000*%
G04 #@! TD*
G04 #@! TA.AperFunction,ComponentPad*
%ADD12C,1.600000*%
G04 #@! TD*
G04 #@! TA.AperFunction,ComponentPad*
%ADD13R,1.600000X1.600000*%
G04 #@! TD*
G04 #@! TA.AperFunction,ComponentPad*
%ADD14C,3.800000*%
G04 #@! TD*
G04 #@! TA.AperFunction,ComponentPad*
%ADD15R,1.050000X1.500000*%
G04 #@! TD*
G04 #@! TA.AperFunction,ComponentPad*
%ADD16O,1.050000X1.500000*%
G04 #@! TD*
G04 #@! TA.AperFunction,ComponentPad*
%ADD17C,2.000000*%
G04 #@! TD*
G04 #@! TA.AperFunction,ComponentPad*
%ADD18R,2.000000X2.000000*%
G04 #@! TD*
G04 #@! TA.AperFunction,ViaPad*
%ADD19C,0.650000*%
G04 #@! TD*
G04 #@! TA.AperFunction,Conductor*
%ADD20C,0.150000*%
G04 #@! TD*
G04 #@! TA.AperFunction,Conductor*
%ADD21C,0.254000*%
G04 #@! TD*
G04 #@! TA.AperFunction,Conductor*
%ADD22C,0.100000*%
G04 #@! TD*
G04 APERTURE END LIST*
D10*
G04 #@! TO.P,J4,4*
G04 #@! TO.N,Net-(J4-Pad4)*
X120015000Y-104140000D03*
G04 #@! TO.P,J4,3*
G04 #@! TO.N,Net-(J4-Pad3)*
X122555000Y-104140000D03*
G04 #@! TO.P,J4,2*
G04 #@! TO.N,Net-(F1-Pad2)*
X125095000Y-104140000D03*
D11*
G04 #@! TO.P,J4,1*
G04 #@! TO.N,GND*
X127635000Y-104140000D03*
G04 #@! TD*
D10*
G04 #@! TO.P,J1,2*
G04 #@! TO.N,GND*
X151130000Y-104140000D03*
D11*
G04 #@! TO.P,J1,1*
G04 #@! TO.N,Net-(J1-Pad1)*
X153670000Y-104140000D03*
G04 #@! TD*
D10*
G04 #@! TO.P,J5,3*
G04 #@! TO.N,Net-(J5-Pad3)*
X141605000Y-104140000D03*
G04 #@! TO.P,J5,2*
G04 #@! TO.N,GND*
X144145000Y-104140000D03*
D11*
G04 #@! TO.P,J5,1*
G04 #@! TO.N,VDD*
X146685000Y-104140000D03*
G04 #@! TD*
D10*
G04 #@! TO.P,J2,3*
G04 #@! TO.N,Net-(J2-Pad3)*
X132080000Y-104140000D03*
G04 #@! TO.P,J2,2*
G04 #@! TO.N,Net-(C2-Pad2)*
X134620000Y-104140000D03*
D11*
G04 #@! TO.P,J2,1*
G04 #@! TO.N,GND*
X137160000Y-104140000D03*
G04 #@! TD*
D12*
G04 #@! TO.P,C12,2*
G04 #@! TO.N,GND*
X130770000Y-110490000D03*
D13*
G04 #@! TO.P,C12,1*
G04 #@! TO.N,VDD*
X128270000Y-110490000D03*
G04 #@! TD*
D14*
G04 #@! TO.P,H4,1*
G04 #@! TO.N,GND*
X114300000Y-96520000D03*
G04 #@! TD*
G04 #@! TO.P,H3,1*
G04 #@! TO.N,GND*
X158750000Y-96520000D03*
G04 #@! TD*
D15*
G04 #@! TO.P,U7,1*
G04 #@! TO.N,VDD*
X121920000Y-109220000D03*
D16*
G04 #@! TO.P,U7,3*
G04 #@! TO.N,Net-(C10-Pad1)*
X124460000Y-109220000D03*
G04 #@! TO.P,U7,2*
G04 #@! TO.N,GND*
X123190000Y-109220000D03*
G04 #@! TD*
D14*
G04 #@! TO.P,H2,1*
G04 #@! TO.N,GND*
X114300000Y-123825000D03*
G04 #@! TD*
G04 #@! TO.P,H1,1*
G04 #@! TO.N,GND*
X158750000Y-123825000D03*
G04 #@! TD*
D17*
G04 #@! TO.P,C10,2*
G04 #@! TO.N,GND*
X117910000Y-119300000D03*
D18*
G04 #@! TO.P,C10,1*
G04 #@! TO.N,Net-(C10-Pad1)*
X117910000Y-114300000D03*
G04 #@! TD*
D19*
G04 #@! TO.N,GND*
X156210500Y-125454300D03*
X142305000Y-116205000D03*
X136525000Y-121285000D03*
X146050000Y-125051800D03*
X156210000Y-99060000D03*
X126365000Y-112395000D03*
X153735000Y-109220000D03*
X156845000Y-106045000D03*
X153810000Y-122234600D03*
X116840000Y-122555000D03*
X160020000Y-116205000D03*
X132080000Y-125095000D03*
X132080000Y-123825000D03*
X127000000Y-125095000D03*
X132588000Y-119380000D03*
G04 #@! TO.N,Net-(U1-Pad11)*
X139700000Y-113792000D03*
G04 #@! TO.N,Net-(U1-Pad10)*
X140732300Y-109004300D03*
X132080000Y-121398700D03*
G04 #@! TO.N,Net-(U2-Pad3)*
X141744400Y-120289100D03*
X148561100Y-114257300D03*
X156750500Y-116316300D03*
G04 #@! TO.N,Net-(C10-Pad1)*
X125476000Y-111760000D03*
G04 #@! TO.N,Net-(J1-Pad1)*
X144283400Y-116015900D03*
G04 #@! TO.N,Net-(U1-Pad11)*
X139772100Y-111687900D03*
G04 #@! TO.N,Net-(U2-Pad12)*
X145608100Y-110630600D03*
X141361300Y-121369990D03*
G04 #@! TO.N,VDD*
X150495000Y-117475000D03*
X127635000Y-117475000D03*
X131241300Y-120348400D03*
X136525000Y-122555000D03*
G04 #@! TD*
D20*
G04 #@! TO.N,GND*
X144273302Y-116840000D02*
X143510000Y-116840000D01*
X146050000Y-115570000D02*
X145603710Y-116016290D01*
X145603710Y-116016290D02*
X145097012Y-116016290D01*
X145097012Y-116016290D02*
X144273302Y-116840000D01*
G04 #@! TO.N,Net-(U1-Pad10)*
X140732300Y-115172700D02*
X140335000Y-115570000D01*
X140732300Y-109004300D02*
X140732300Y-115172700D01*
X133857400Y-121398700D02*
X132080000Y-121398700D01*
X139686100Y-115570000D02*
X133857400Y-121398700D01*
X140335000Y-115570000D02*
X139686100Y-115570000D01*
G04 #@! TO.N,Net-(U2-Pad3)*
X148561100Y-116316300D02*
X156750500Y-116316300D01*
X141744400Y-120289100D02*
X145717200Y-116316300D01*
X145717200Y-116316300D02*
X148561100Y-116316300D01*
X148561100Y-116316300D02*
X148561100Y-114257300D01*
G04 #@! TO.N,Net-(C10-Pad1)*
X125476000Y-110236000D02*
X124460000Y-109220000D01*
X125476000Y-111760000D02*
X125476000Y-110236000D01*
G04 #@! TO.N,Net-(J1-Pad1)*
X153670000Y-104140000D02*
X153670000Y-106629300D01*
X153670000Y-106629300D02*
X144283400Y-116015900D01*
G04 #@! TO.N,Net-(J4-Pad4)*
X120149500Y-104274500D02*
X120015000Y-104140000D01*
G04 #@! TO.N,Net-(U1-Pad11)*
X139772100Y-111687900D02*
X139772100Y-113719900D01*
G04 #@! TO.N,Net-(U2-Pad12)*
X141361300Y-114877400D02*
X141361300Y-119893900D01*
X141036301Y-120218899D02*
X141036301Y-121044991D01*
X145608100Y-110630600D02*
X141361300Y-114877400D01*
X141036301Y-121044991D02*
X141361300Y-121369990D01*
X141361300Y-119893900D02*
X141036301Y-120218899D01*
G04 #@! TO.N,VDD*
X128367900Y-117475000D02*
X131241300Y-120348400D01*
X127635000Y-117475000D02*
X128367900Y-117475000D01*
X141676802Y-121920000D02*
X137160000Y-121920000D01*
X146121802Y-117475000D02*
X141676802Y-121920000D01*
X137160000Y-121920000D02*
X136525000Y-122555000D01*
X150495000Y-117475000D02*
X146121802Y-117475000D01*
G04 #@! TD*
D21*
G04 #@! TO.N,GND*
X112703256Y-94743651D02*
X114300000Y-96340395D01*
X115896744Y-94743651D01*
X115851716Y-94665000D01*
X157198284Y-94665000D01*
X157153256Y-94743651D01*
X158750000Y-96340395D01*
X160346744Y-94743651D01*
X160301716Y-94665000D01*
X160605000Y-94665000D01*
X160605000Y-94968284D01*
X160526349Y-94923256D01*
X158929605Y-96520000D01*
X160526349Y-98116744D01*
X160605000Y-98071716D01*
X160605001Y-122273284D01*
X160526349Y-122228256D01*
X158929605Y-123825000D01*
X160526349Y-125421744D01*
X160605001Y-125376716D01*
X160605001Y-125680000D01*
X160301716Y-125680000D01*
X160346744Y-125601349D01*
X158750000Y-124004605D01*
X157153256Y-125601349D01*
X157198284Y-125680000D01*
X115851716Y-125680000D01*
X115896744Y-125601349D01*
X114300000Y-124004605D01*
X112703256Y-125601349D01*
X112748284Y-125680000D01*
X112445000Y-125680000D01*
X112445000Y-125376716D01*
X112523651Y-125421744D01*
X114120395Y-123825000D01*
X114479605Y-123825000D01*
X116076349Y-125421744D01*
X116432867Y-125217638D01*
X116663575Y-124774777D01*
X116803452Y-124295417D01*
X116842378Y-123852021D01*
X156202877Y-123852021D01*
X156257091Y-124348422D01*
X156407106Y-124824707D01*
X156617133Y-125217638D01*
X156973651Y-125421744D01*
X158570395Y-123825000D01*
X156973651Y-122228256D01*
X156617133Y-122432362D01*
X156386425Y-122875223D01*
X156246548Y-123354583D01*
X156202877Y-123852021D01*
X116842378Y-123852021D01*
X116847123Y-123797979D01*
X116792909Y-123301578D01*
X116642894Y-122825293D01*
X116432867Y-122432362D01*
X116076349Y-122228256D01*
X114479605Y-123825000D01*
X114120395Y-123825000D01*
X112523651Y-122228256D01*
X112445000Y-122273284D01*
X112445000Y-122048651D01*
X112703256Y-122048651D01*
X114300000Y-123645395D01*
X115896744Y-122048651D01*
X115692638Y-121692133D01*
X115249777Y-121461425D01*
X114770417Y-121321548D01*
X114272979Y-121277877D01*
X113776578Y-121332091D01*
X113300293Y-121482106D01*
X112907362Y-121692133D01*
X112703256Y-122048651D01*
X112445000Y-122048651D01*
X112445000Y-120435413D01*
X116954192Y-120435413D01*
X117049956Y-120699814D01*
X117339571Y-120840704D01*
X117651108Y-120922384D01*
X117972595Y-120941718D01*
X118291675Y-120897961D01*
X118596088Y-120792795D01*
X118770044Y-120699814D01*
X118865808Y-120435413D01*
X117910000Y-119479605D01*
X116954192Y-120435413D01*
X112445000Y-120435413D01*
X112445000Y-119362595D01*
X116268282Y-119362595D01*
X116312039Y-119681675D01*
X116417205Y-119986088D01*
X116510186Y-120160044D01*
X116774587Y-120255808D01*
X117730395Y-119300000D01*
X118089605Y-119300000D01*
X119045413Y-120255808D01*
X119309814Y-120160044D01*
X119450704Y-119870429D01*
X119532384Y-119558892D01*
X119551718Y-119237405D01*
X119507961Y-118918325D01*
X119402795Y-118613912D01*
X119309814Y-118439956D01*
X119045413Y-118344192D01*
X118089605Y-119300000D01*
X117730395Y-119300000D01*
X116774587Y-118344192D01*
X116510186Y-118439956D01*
X116369296Y-118729571D01*
X116287616Y-119041108D01*
X116268282Y-119362595D01*
X112445000Y-119362595D01*
X112445000Y-118164587D01*
X116954192Y-118164587D01*
X117910000Y-119120395D01*
X118865808Y-118164587D01*
X118770044Y-117900186D01*
X118480429Y-117759296D01*
X118168892Y-117677616D01*
X117847405Y-117658282D01*
X117528325Y-117702039D01*
X117223912Y-117807205D01*
X117049956Y-117900186D01*
X116954192Y-118164587D01*
X112445000Y-118164587D01*
X112445000Y-117380448D01*
X126675000Y-117380448D01*
X126675000Y-117569552D01*
X126711892Y-117755022D01*
X126784259Y-117929731D01*
X126889319Y-118086964D01*
X127023036Y-118220681D01*
X127180269Y-118325741D01*
X127354978Y-118398108D01*
X127540448Y-118435000D01*
X127729552Y-118435000D01*
X127915022Y-118398108D01*
X128089731Y-118325741D01*
X128164554Y-118275745D01*
X130281300Y-120392492D01*
X130281300Y-120442952D01*
X130318192Y-120628422D01*
X130390559Y-120803131D01*
X130495619Y-120960364D01*
X130629336Y-121094081D01*
X130786569Y-121199141D01*
X130961278Y-121271508D01*
X131120204Y-121303120D01*
X131120000Y-121304148D01*
X131120000Y-121493252D01*
X131156892Y-121678722D01*
X131229259Y-121853431D01*
X131334319Y-122010664D01*
X131468036Y-122144381D01*
X131625269Y-122249441D01*
X131799978Y-122321808D01*
X131985448Y-122358700D01*
X132174552Y-122358700D01*
X132360022Y-122321808D01*
X132534731Y-122249441D01*
X132691964Y-122144381D01*
X132727645Y-122108700D01*
X133822525Y-122108700D01*
X133857400Y-122112135D01*
X133892275Y-122108700D01*
X133892277Y-122108700D01*
X133996584Y-122098427D01*
X134130420Y-122057828D01*
X134253763Y-121991900D01*
X134361875Y-121903175D01*
X134384112Y-121876079D01*
X139980191Y-116280000D01*
X140300125Y-116280000D01*
X140335000Y-116283435D01*
X140369875Y-116280000D01*
X140369877Y-116280000D01*
X140474184Y-116269727D01*
X140608020Y-116229128D01*
X140651300Y-116205994D01*
X140651301Y-119599808D01*
X140558918Y-119692191D01*
X140531826Y-119714425D01*
X140443101Y-119822537D01*
X140377173Y-119945880D01*
X140336574Y-120079716D01*
X140326301Y-120184022D01*
X140322866Y-120218899D01*
X140326301Y-120253774D01*
X140326301Y-121010116D01*
X140322866Y-121044991D01*
X140326301Y-121079866D01*
X140326301Y-121079868D01*
X140332208Y-121139841D01*
X140336575Y-121184175D01*
X140344409Y-121210000D01*
X137194875Y-121210000D01*
X137160000Y-121206565D01*
X137125125Y-121210000D01*
X137125123Y-121210000D01*
X137020816Y-121220273D01*
X136886980Y-121260872D01*
X136763637Y-121326800D01*
X136655525Y-121415525D01*
X136633288Y-121442621D01*
X136480909Y-121595000D01*
X136430448Y-121595000D01*
X136244978Y-121631892D01*
X136070269Y-121704259D01*
X135913036Y-121809319D01*
X135779319Y-121943036D01*
X135674259Y-122100269D01*
X135601892Y-122274978D01*
X135565000Y-122460448D01*
X135565000Y-122649552D01*
X135601892Y-122835022D01*
X135674259Y-123009731D01*
X135779319Y-123166964D01*
X135913036Y-123300681D01*
X136070269Y-123405741D01*
X136244978Y-123478108D01*
X136430448Y-123515000D01*
X136619552Y-123515000D01*
X136805022Y-123478108D01*
X136979731Y-123405741D01*
X137136964Y-123300681D01*
X137270681Y-123166964D01*
X137375741Y-123009731D01*
X137448108Y-122835022D01*
X137485000Y-122649552D01*
X137485000Y-122630000D01*
X141641927Y-122630000D01*
X141676802Y-122633435D01*
X141711677Y-122630000D01*
X141711679Y-122630000D01*
X141815986Y-122619727D01*
X141949822Y-122579128D01*
X142073165Y-122513200D01*
X142181277Y-122424475D01*
X142203514Y-122397379D01*
X142552242Y-122048651D01*
X157153256Y-122048651D01*
X158750000Y-123645395D01*
X160346744Y-122048651D01*
X160142638Y-121692133D01*
X159699777Y-121461425D01*
X159220417Y-121321548D01*
X158722979Y-121277877D01*
X158226578Y-121332091D01*
X157750293Y-121482106D01*
X157357362Y-121692133D01*
X157153256Y-122048651D01*
X142552242Y-122048651D01*
X146415894Y-118185000D01*
X149847355Y-118185000D01*
X149883036Y-118220681D01*
X150040269Y-118325741D01*
X150214978Y-118398108D01*
X150400448Y-118435000D01*
X150589552Y-118435000D01*
X150775022Y-118398108D01*
X150949731Y-118325741D01*
X151106964Y-118220681D01*
X151240681Y-118086964D01*
X151345741Y-117929731D01*
X151418108Y-117755022D01*
X151455000Y-117569552D01*
X151455000Y-117380448D01*
X151418108Y-117194978D01*
X151348239Y-117026300D01*
X156102855Y-117026300D01*
X156138536Y-117061981D01*
X156295769Y-117167041D01*
X156470478Y-117239408D01*
X156655948Y-117276300D01*
X156845052Y-117276300D01*
X157030522Y-117239408D01*
X157205231Y-117167041D01*
X157362464Y-117061981D01*
X157496181Y-116928264D01*
X157601241Y-116771031D01*
X157673608Y-116596322D01*
X157710500Y-116410852D01*
X157710500Y-116221748D01*
X157673608Y-116036278D01*
X157601241Y-115861569D01*
X157496181Y-115704336D01*
X157362464Y-115570619D01*
X157205231Y-115465559D01*
X157030522Y-115393192D01*
X156845052Y-115356300D01*
X156655948Y-115356300D01*
X156470478Y-115393192D01*
X156295769Y-115465559D01*
X156138536Y-115570619D01*
X156102855Y-115606300D01*
X149271100Y-115606300D01*
X149271100Y-114904945D01*
X149306781Y-114869264D01*
X149411841Y-114712031D01*
X149484208Y-114537322D01*
X149521100Y-114351852D01*
X149521100Y-114162748D01*
X149484208Y-113977278D01*
X149411841Y-113802569D01*
X149306781Y-113645336D01*
X149173064Y-113511619D01*
X149015831Y-113406559D01*
X148841122Y-113334192D01*
X148655652Y-113297300D01*
X148466548Y-113297300D01*
X148281078Y-113334192D01*
X148106369Y-113406559D01*
X147949136Y-113511619D01*
X147815419Y-113645336D01*
X147710359Y-113802569D01*
X147637992Y-113977278D01*
X147601100Y-114162748D01*
X147601100Y-114351852D01*
X147637992Y-114537322D01*
X147710359Y-114712031D01*
X147815419Y-114869264D01*
X147851101Y-114904946D01*
X147851100Y-115606300D01*
X145752075Y-115606300D01*
X145717200Y-115602865D01*
X145698704Y-115604687D01*
X154147384Y-107156008D01*
X154174475Y-107133775D01*
X154263200Y-107025663D01*
X154329128Y-106902320D01*
X154369727Y-106768484D01*
X154380000Y-106664177D01*
X154380000Y-106664176D01*
X154383435Y-106629301D01*
X154380000Y-106594426D01*
X154380000Y-105628072D01*
X154520000Y-105628072D01*
X154644482Y-105615812D01*
X154764180Y-105579502D01*
X154874494Y-105520537D01*
X154971185Y-105441185D01*
X155050537Y-105344494D01*
X155109502Y-105234180D01*
X155145812Y-105114482D01*
X155158072Y-104990000D01*
X155158072Y-103290000D01*
X155145812Y-103165518D01*
X155109502Y-103045820D01*
X155050537Y-102935506D01*
X154971185Y-102838815D01*
X154874494Y-102759463D01*
X154764180Y-102700498D01*
X154644482Y-102664188D01*
X154520000Y-102651928D01*
X152820000Y-102651928D01*
X152695518Y-102664188D01*
X152575820Y-102700498D01*
X152465506Y-102759463D01*
X152368815Y-102838815D01*
X152289463Y-102935506D01*
X152230498Y-103045820D01*
X152206034Y-103126466D01*
X152130269Y-103042412D01*
X151896920Y-102868359D01*
X151634099Y-102743175D01*
X151486890Y-102698524D01*
X151257000Y-102819845D01*
X151257000Y-104013000D01*
X151277000Y-104013000D01*
X151277000Y-104267000D01*
X151257000Y-104267000D01*
X151257000Y-105460155D01*
X151486890Y-105581476D01*
X151634099Y-105536825D01*
X151896920Y-105411641D01*
X152130269Y-105237588D01*
X152206034Y-105153534D01*
X152230498Y-105234180D01*
X152289463Y-105344494D01*
X152368815Y-105441185D01*
X152465506Y-105520537D01*
X152575820Y-105579502D01*
X152695518Y-105615812D01*
X152820000Y-105628072D01*
X152960001Y-105628072D01*
X152960001Y-106335207D01*
X144239309Y-115055900D01*
X144188848Y-115055900D01*
X144003378Y-115092792D01*
X143828669Y-115165159D01*
X143671436Y-115270219D01*
X143537719Y-115403936D01*
X143432659Y-115561169D01*
X143360292Y-115735878D01*
X143323400Y-115921348D01*
X143323400Y-116110452D01*
X143360292Y-116295922D01*
X143432659Y-116470631D01*
X143537719Y-116627864D01*
X143671436Y-116761581D01*
X143828669Y-116866641D01*
X144003378Y-116939008D01*
X144075963Y-116953446D01*
X142071300Y-118958109D01*
X142071300Y-115171491D01*
X145652192Y-111590600D01*
X145702652Y-111590600D01*
X145888122Y-111553708D01*
X146062831Y-111481341D01*
X146220064Y-111376281D01*
X146353781Y-111242564D01*
X146458841Y-111085331D01*
X146531208Y-110910622D01*
X146568100Y-110725152D01*
X146568100Y-110536048D01*
X146531208Y-110350578D01*
X146458841Y-110175869D01*
X146353781Y-110018636D01*
X146220064Y-109884919D01*
X146062831Y-109779859D01*
X145888122Y-109707492D01*
X145702652Y-109670600D01*
X145513548Y-109670600D01*
X145328078Y-109707492D01*
X145153369Y-109779859D01*
X144996136Y-109884919D01*
X144862419Y-110018636D01*
X144757359Y-110175869D01*
X144684992Y-110350578D01*
X144648100Y-110536048D01*
X144648100Y-110586508D01*
X141442300Y-113792309D01*
X141442300Y-109651945D01*
X141477981Y-109616264D01*
X141583041Y-109459031D01*
X141655408Y-109284322D01*
X141692300Y-109098852D01*
X141692300Y-108909748D01*
X141655408Y-108724278D01*
X141583041Y-108549569D01*
X141477981Y-108392336D01*
X141344264Y-108258619D01*
X141187031Y-108153559D01*
X141012322Y-108081192D01*
X140826852Y-108044300D01*
X140637748Y-108044300D01*
X140452278Y-108081192D01*
X140277569Y-108153559D01*
X140120336Y-108258619D01*
X139986619Y-108392336D01*
X139881559Y-108549569D01*
X139809192Y-108724278D01*
X139772300Y-108909748D01*
X139772300Y-109098852D01*
X139809192Y-109284322D01*
X139881559Y-109459031D01*
X139986619Y-109616264D01*
X140022300Y-109651945D01*
X140022300Y-110758860D01*
X139866652Y-110727900D01*
X139677548Y-110727900D01*
X139492078Y-110764792D01*
X139317369Y-110837159D01*
X139160136Y-110942219D01*
X139026419Y-111075936D01*
X138921359Y-111233169D01*
X138848992Y-111407878D01*
X138812100Y-111593348D01*
X138812100Y-111782452D01*
X138848992Y-111967922D01*
X138921359Y-112142631D01*
X139026419Y-112299864D01*
X139062100Y-112335545D01*
X139062101Y-113072254D01*
X138954319Y-113180036D01*
X138849259Y-113337269D01*
X138776892Y-113511978D01*
X138740000Y-113697448D01*
X138740000Y-113886552D01*
X138776892Y-114072022D01*
X138849259Y-114246731D01*
X138954319Y-114403964D01*
X139088036Y-114537681D01*
X139245269Y-114642741D01*
X139419978Y-114715108D01*
X139605448Y-114752000D01*
X139794552Y-114752000D01*
X139980022Y-114715108D01*
X140022301Y-114697595D01*
X140022301Y-114860000D01*
X139720975Y-114860000D01*
X139686100Y-114856565D01*
X139651225Y-114860000D01*
X139651223Y-114860000D01*
X139546916Y-114870273D01*
X139413080Y-114910872D01*
X139289737Y-114976800D01*
X139181625Y-115065525D01*
X139159388Y-115092621D01*
X133563309Y-120688700D01*
X132727645Y-120688700D01*
X132691964Y-120653019D01*
X132534731Y-120547959D01*
X132360022Y-120475592D01*
X132201096Y-120443980D01*
X132201300Y-120442952D01*
X132201300Y-120253848D01*
X132164408Y-120068378D01*
X132092041Y-119893669D01*
X131986981Y-119736436D01*
X131853264Y-119602719D01*
X131696031Y-119497659D01*
X131521322Y-119425292D01*
X131335852Y-119388400D01*
X131285392Y-119388400D01*
X128894612Y-116997621D01*
X128872375Y-116970525D01*
X128764263Y-116881800D01*
X128640920Y-116815872D01*
X128507084Y-116775273D01*
X128402777Y-116765000D01*
X128402775Y-116765000D01*
X128367900Y-116761565D01*
X128333025Y-116765000D01*
X128282645Y-116765000D01*
X128246964Y-116729319D01*
X128089731Y-116624259D01*
X127915022Y-116551892D01*
X127729552Y-116515000D01*
X127540448Y-116515000D01*
X127354978Y-116551892D01*
X127180269Y-116624259D01*
X127023036Y-116729319D01*
X126889319Y-116863036D01*
X126784259Y-117020269D01*
X126711892Y-117194978D01*
X126675000Y-117380448D01*
X112445000Y-117380448D01*
X112445000Y-113300000D01*
X116271928Y-113300000D01*
X116271928Y-115300000D01*
X116284188Y-115424482D01*
X116320498Y-115544180D01*
X116379463Y-115654494D01*
X116458815Y-115751185D01*
X116555506Y-115830537D01*
X116665820Y-115889502D01*
X116785518Y-115925812D01*
X116910000Y-115938072D01*
X118910000Y-115938072D01*
X119034482Y-115925812D01*
X119154180Y-115889502D01*
X119264494Y-115830537D01*
X119361185Y-115751185D01*
X119440537Y-115654494D01*
X119499502Y-115544180D01*
X119535812Y-115424482D01*
X119548072Y-115300000D01*
X119548072Y-113300000D01*
X119535812Y-113175518D01*
X119499502Y-113055820D01*
X119440537Y-112945506D01*
X119361185Y-112848815D01*
X119264494Y-112769463D01*
X119154180Y-112710498D01*
X119034482Y-112674188D01*
X118910000Y-112661928D01*
X116910000Y-112661928D01*
X116785518Y-112674188D01*
X116665820Y-112710498D01*
X116555506Y-112769463D01*
X116458815Y-112848815D01*
X116379463Y-112945506D01*
X116320498Y-113055820D01*
X116284188Y-113175518D01*
X116271928Y-113300000D01*
X112445000Y-113300000D01*
X112445000Y-108470000D01*
X120756928Y-108470000D01*
X120756928Y-109970000D01*
X120769188Y-110094482D01*
X120805498Y-110214180D01*
X120864463Y-110324494D01*
X120943815Y-110421185D01*
X121040506Y-110500537D01*
X121150820Y-110559502D01*
X121270518Y-110595812D01*
X121395000Y-110608072D01*
X122445000Y-110608072D01*
X122569482Y-110595812D01*
X122689180Y-110559502D01*
X122754057Y-110524824D01*
X122822663Y-110555272D01*
X122884190Y-110563964D01*
X123063000Y-110438163D01*
X123063000Y-110120235D01*
X123070812Y-110094482D01*
X123083072Y-109970000D01*
X123083072Y-108938022D01*
X123300000Y-108938022D01*
X123300000Y-109501979D01*
X123316785Y-109672400D01*
X123317000Y-109673109D01*
X123317000Y-110438163D01*
X123495810Y-110563964D01*
X123557337Y-110555272D01*
X123766882Y-110462275D01*
X123825331Y-110421071D01*
X124013941Y-110521885D01*
X124232601Y-110588215D01*
X124460000Y-110610612D01*
X124687400Y-110588215D01*
X124766001Y-110564372D01*
X124766000Y-111112355D01*
X124730319Y-111148036D01*
X124625259Y-111305269D01*
X124552892Y-111479978D01*
X124516000Y-111665448D01*
X124516000Y-111854552D01*
X124552892Y-112040022D01*
X124625259Y-112214731D01*
X124730319Y-112371964D01*
X124864036Y-112505681D01*
X125021269Y-112610741D01*
X125195978Y-112683108D01*
X125381448Y-112720000D01*
X125570552Y-112720000D01*
X125756022Y-112683108D01*
X125930731Y-112610741D01*
X126087964Y-112505681D01*
X126221681Y-112371964D01*
X126326741Y-112214731D01*
X126399108Y-112040022D01*
X126436000Y-111854552D01*
X126436000Y-111665448D01*
X126399108Y-111479978D01*
X126326741Y-111305269D01*
X126221681Y-111148036D01*
X126186000Y-111112355D01*
X126186000Y-110270875D01*
X126189435Y-110236000D01*
X126186000Y-110201123D01*
X126175727Y-110096816D01*
X126135128Y-109962980D01*
X126069200Y-109839637D01*
X125980475Y-109731525D01*
X125953384Y-109709292D01*
X125934092Y-109690000D01*
X126831928Y-109690000D01*
X126831928Y-111290000D01*
X126844188Y-111414482D01*
X126880498Y-111534180D01*
X126939463Y-111644494D01*
X127018815Y-111741185D01*
X127115506Y-111820537D01*
X127225820Y-111879502D01*
X127345518Y-111915812D01*
X127470000Y-111928072D01*
X129070000Y-111928072D01*
X129194482Y-111915812D01*
X129314180Y-111879502D01*
X129424494Y-111820537D01*
X129521185Y-111741185D01*
X129600537Y-111644494D01*
X129659502Y-111534180D01*
X129675117Y-111482702D01*
X129956903Y-111482702D01*
X130028486Y-111726671D01*
X130283996Y-111847571D01*
X130558184Y-111916300D01*
X130840512Y-111930217D01*
X131120130Y-111888787D01*
X131386292Y-111793603D01*
X131511514Y-111726671D01*
X131583097Y-111482702D01*
X130770000Y-110669605D01*
X129956903Y-111482702D01*
X129675117Y-111482702D01*
X129695812Y-111414482D01*
X129708072Y-111290000D01*
X129708072Y-111282785D01*
X129777298Y-111303097D01*
X130590395Y-110490000D01*
X130949605Y-110490000D01*
X131762702Y-111303097D01*
X132006671Y-111231514D01*
X132127571Y-110976004D01*
X132196300Y-110701816D01*
X132210217Y-110419488D01*
X132168787Y-110139870D01*
X132073603Y-109873708D01*
X132006671Y-109748486D01*
X131762702Y-109676903D01*
X130949605Y-110490000D01*
X130590395Y-110490000D01*
X129777298Y-109676903D01*
X129708072Y-109697215D01*
X129708072Y-109690000D01*
X129695812Y-109565518D01*
X129675118Y-109497298D01*
X129956903Y-109497298D01*
X130770000Y-110310395D01*
X131583097Y-109497298D01*
X131511514Y-109253329D01*
X131256004Y-109132429D01*
X130981816Y-109063700D01*
X130699488Y-109049783D01*
X130419870Y-109091213D01*
X130153708Y-109186397D01*
X130028486Y-109253329D01*
X129956903Y-109497298D01*
X129675118Y-109497298D01*
X129659502Y-109445820D01*
X129600537Y-109335506D01*
X129521185Y-109238815D01*
X129424494Y-109159463D01*
X129314180Y-109100498D01*
X129194482Y-109064188D01*
X129070000Y-109051928D01*
X127470000Y-109051928D01*
X127345518Y-109064188D01*
X127225820Y-109100498D01*
X127115506Y-109159463D01*
X127018815Y-109238815D01*
X126939463Y-109335506D01*
X126880498Y-109445820D01*
X126844188Y-109565518D01*
X126831928Y-109690000D01*
X125934092Y-109690000D01*
X125620000Y-109375908D01*
X125620000Y-108938021D01*
X125603215Y-108767600D01*
X125536885Y-108548940D01*
X125429171Y-108347421D01*
X125284212Y-108170788D01*
X125107578Y-108025829D01*
X124906059Y-107918115D01*
X124687399Y-107851785D01*
X124460000Y-107829388D01*
X124232600Y-107851785D01*
X124013940Y-107918115D01*
X123825331Y-108018929D01*
X123766882Y-107977725D01*
X123557337Y-107884728D01*
X123495810Y-107876036D01*
X123317000Y-108001837D01*
X123317000Y-108766892D01*
X123316785Y-108767601D01*
X123300000Y-108938022D01*
X123083072Y-108938022D01*
X123083072Y-108470000D01*
X123070812Y-108345518D01*
X123063000Y-108319765D01*
X123063000Y-108001837D01*
X122884190Y-107876036D01*
X122822663Y-107884728D01*
X122754057Y-107915176D01*
X122689180Y-107880498D01*
X122569482Y-107844188D01*
X122445000Y-107831928D01*
X121395000Y-107831928D01*
X121270518Y-107844188D01*
X121150820Y-107880498D01*
X121040506Y-107939463D01*
X120943815Y-108018815D01*
X120864463Y-108115506D01*
X120805498Y-108225820D01*
X120769188Y-108345518D01*
X120756928Y-108470000D01*
X112445000Y-108470000D01*
X112445000Y-103993740D01*
X118530000Y-103993740D01*
X118530000Y-104286260D01*
X118587068Y-104573158D01*
X118699010Y-104843411D01*
X118861525Y-105086632D01*
X119068368Y-105293475D01*
X119311589Y-105455990D01*
X119581842Y-105567932D01*
X119868740Y-105625000D01*
X120161260Y-105625000D01*
X120448158Y-105567932D01*
X120718411Y-105455990D01*
X120961632Y-105293475D01*
X121168475Y-105086632D01*
X121285000Y-104912240D01*
X121401525Y-105086632D01*
X121608368Y-105293475D01*
X121851589Y-105455990D01*
X122121842Y-105567932D01*
X122408740Y-105625000D01*
X122701260Y-105625000D01*
X122988158Y-105567932D01*
X123258411Y-105455990D01*
X123501632Y-105293475D01*
X123708475Y-105086632D01*
X123825000Y-104912240D01*
X123941525Y-105086632D01*
X124148368Y-105293475D01*
X124391589Y-105455990D01*
X124661842Y-105567932D01*
X124948740Y-105625000D01*
X125241260Y-105625000D01*
X125528158Y-105567932D01*
X125798411Y-105455990D01*
X126041632Y-105293475D01*
X126173487Y-105161620D01*
X126195498Y-105234180D01*
X126254463Y-105344494D01*
X126333815Y-105441185D01*
X126430506Y-105520537D01*
X126540820Y-105579502D01*
X126660518Y-105615812D01*
X126785000Y-105628072D01*
X127349250Y-105625000D01*
X127508000Y-105466250D01*
X127508000Y-104267000D01*
X127762000Y-104267000D01*
X127762000Y-105466250D01*
X127920750Y-105625000D01*
X128485000Y-105628072D01*
X128609482Y-105615812D01*
X128729180Y-105579502D01*
X128839494Y-105520537D01*
X128936185Y-105441185D01*
X129015537Y-105344494D01*
X129074502Y-105234180D01*
X129110812Y-105114482D01*
X129123072Y-104990000D01*
X129120000Y-104425750D01*
X128961250Y-104267000D01*
X127762000Y-104267000D01*
X127508000Y-104267000D01*
X127488000Y-104267000D01*
X127488000Y-104013000D01*
X127508000Y-104013000D01*
X127508000Y-102813750D01*
X127762000Y-102813750D01*
X127762000Y-104013000D01*
X128961250Y-104013000D01*
X128980510Y-103993740D01*
X130595000Y-103993740D01*
X130595000Y-104286260D01*
X130652068Y-104573158D01*
X130764010Y-104843411D01*
X130926525Y-105086632D01*
X131133368Y-105293475D01*
X131376589Y-105455990D01*
X131646842Y-105567932D01*
X131933740Y-105625000D01*
X132226260Y-105625000D01*
X132513158Y-105567932D01*
X132783411Y-105455990D01*
X133026632Y-105293475D01*
X133233475Y-105086632D01*
X133350000Y-104912240D01*
X133466525Y-105086632D01*
X133673368Y-105293475D01*
X133916589Y-105455990D01*
X134186842Y-105567932D01*
X134473740Y-105625000D01*
X134766260Y-105625000D01*
X135053158Y-105567932D01*
X135323411Y-105455990D01*
X135566632Y-105293475D01*
X135698487Y-105161620D01*
X135720498Y-105234180D01*
X135779463Y-105344494D01*
X135858815Y-105441185D01*
X135955506Y-105520537D01*
X136065820Y-105579502D01*
X136185518Y-105615812D01*
X136310000Y-105628072D01*
X136874250Y-105625000D01*
X137033000Y-105466250D01*
X137033000Y-104267000D01*
X137287000Y-104267000D01*
X137287000Y-105466250D01*
X137445750Y-105625000D01*
X138010000Y-105628072D01*
X138134482Y-105615812D01*
X138254180Y-105579502D01*
X138364494Y-105520537D01*
X138461185Y-105441185D01*
X138540537Y-105344494D01*
X138599502Y-105234180D01*
X138635812Y-105114482D01*
X138648072Y-104990000D01*
X138645000Y-104425750D01*
X138486250Y-104267000D01*
X137287000Y-104267000D01*
X137033000Y-104267000D01*
X137013000Y-104267000D01*
X137013000Y-104013000D01*
X137033000Y-104013000D01*
X137033000Y-102813750D01*
X137287000Y-102813750D01*
X137287000Y-104013000D01*
X138486250Y-104013000D01*
X138505510Y-103993740D01*
X140120000Y-103993740D01*
X140120000Y-104286260D01*
X140177068Y-104573158D01*
X140289010Y-104843411D01*
X140451525Y-105086632D01*
X140658368Y-105293475D01*
X140901589Y-105455990D01*
X141171842Y-105567932D01*
X141458740Y-105625000D01*
X141751260Y-105625000D01*
X142038158Y-105567932D01*
X142308411Y-105455990D01*
X142551632Y-105293475D01*
X142758475Y-105086632D01*
X142880195Y-104904466D01*
X142949822Y-105021355D01*
X143144731Y-105237588D01*
X143378080Y-105411641D01*
X143640901Y-105536825D01*
X143788110Y-105581476D01*
X144018000Y-105460155D01*
X144018000Y-104267000D01*
X143998000Y-104267000D01*
X143998000Y-104013000D01*
X144018000Y-104013000D01*
X144018000Y-102819845D01*
X144272000Y-102819845D01*
X144272000Y-104013000D01*
X144292000Y-104013000D01*
X144292000Y-104267000D01*
X144272000Y-104267000D01*
X144272000Y-105460155D01*
X144501890Y-105581476D01*
X144649099Y-105536825D01*
X144911920Y-105411641D01*
X145145269Y-105237588D01*
X145221034Y-105153534D01*
X145245498Y-105234180D01*
X145304463Y-105344494D01*
X145383815Y-105441185D01*
X145480506Y-105520537D01*
X145590820Y-105579502D01*
X145710518Y-105615812D01*
X145835000Y-105628072D01*
X147535000Y-105628072D01*
X147659482Y-105615812D01*
X147779180Y-105579502D01*
X147889494Y-105520537D01*
X147986185Y-105441185D01*
X148065537Y-105344494D01*
X148124502Y-105234180D01*
X148160812Y-105114482D01*
X148173072Y-104990000D01*
X148173072Y-104496891D01*
X149688519Y-104496891D01*
X149785843Y-104771252D01*
X149934822Y-105021355D01*
X150129731Y-105237588D01*
X150363080Y-105411641D01*
X150625901Y-105536825D01*
X150773110Y-105581476D01*
X151003000Y-105460155D01*
X151003000Y-104267000D01*
X149809186Y-104267000D01*
X149688519Y-104496891D01*
X148173072Y-104496891D01*
X148173072Y-103783109D01*
X149688519Y-103783109D01*
X149809186Y-104013000D01*
X151003000Y-104013000D01*
X151003000Y-102819845D01*
X150773110Y-102698524D01*
X150625901Y-102743175D01*
X150363080Y-102868359D01*
X150129731Y-103042412D01*
X149934822Y-103258645D01*
X149785843Y-103508748D01*
X149688519Y-103783109D01*
X148173072Y-103783109D01*
X148173072Y-103290000D01*
X148160812Y-103165518D01*
X148124502Y-103045820D01*
X148065537Y-102935506D01*
X147986185Y-102838815D01*
X147889494Y-102759463D01*
X147779180Y-102700498D01*
X147659482Y-102664188D01*
X147535000Y-102651928D01*
X145835000Y-102651928D01*
X145710518Y-102664188D01*
X145590820Y-102700498D01*
X145480506Y-102759463D01*
X145383815Y-102838815D01*
X145304463Y-102935506D01*
X145245498Y-103045820D01*
X145221034Y-103126466D01*
X145145269Y-103042412D01*
X144911920Y-102868359D01*
X144649099Y-102743175D01*
X144501890Y-102698524D01*
X144272000Y-102819845D01*
X144018000Y-102819845D01*
X143788110Y-102698524D01*
X143640901Y-102743175D01*
X143378080Y-102868359D01*
X143144731Y-103042412D01*
X142949822Y-103258645D01*
X142880195Y-103375534D01*
X142758475Y-103193368D01*
X142551632Y-102986525D01*
X142308411Y-102824010D01*
X142038158Y-102712068D01*
X141751260Y-102655000D01*
X141458740Y-102655000D01*
X141171842Y-102712068D01*
X140901589Y-102824010D01*
X140658368Y-102986525D01*
X140451525Y-103193368D01*
X140289010Y-103436589D01*
X140177068Y-103706842D01*
X140120000Y-103993740D01*
X138505510Y-103993740D01*
X138645000Y-103854250D01*
X138648072Y-103290000D01*
X138635812Y-103165518D01*
X138599502Y-103045820D01*
X138540537Y-102935506D01*
X138461185Y-102838815D01*
X138364494Y-102759463D01*
X138254180Y-102700498D01*
X138134482Y-102664188D01*
X138010000Y-102651928D01*
X137445750Y-102655000D01*
X137287000Y-102813750D01*
X137033000Y-102813750D01*
X136874250Y-102655000D01*
X136310000Y-102651928D01*
X136185518Y-102664188D01*
X136065820Y-102700498D01*
X135955506Y-102759463D01*
X135858815Y-102838815D01*
X135779463Y-102935506D01*
X135720498Y-103045820D01*
X135698487Y-103118380D01*
X135566632Y-102986525D01*
X135323411Y-102824010D01*
X135053158Y-102712068D01*
X134766260Y-102655000D01*
X134473740Y-102655000D01*
X134186842Y-102712068D01*
X133916589Y-102824010D01*
X133673368Y-102986525D01*
X133466525Y-103193368D01*
X133350000Y-103367760D01*
X133233475Y-103193368D01*
X133026632Y-102986525D01*
X132783411Y-102824010D01*
X132513158Y-102712068D01*
X132226260Y-102655000D01*
X131933740Y-102655000D01*
X131646842Y-102712068D01*
X131376589Y-102824010D01*
X131133368Y-102986525D01*
X130926525Y-103193368D01*
X130764010Y-103436589D01*
X130652068Y-103706842D01*
X130595000Y-103993740D01*
X128980510Y-103993740D01*
X129120000Y-103854250D01*
X129123072Y-103290000D01*
X129110812Y-103165518D01*
X129074502Y-103045820D01*
X129015537Y-102935506D01*
X128936185Y-102838815D01*
X128839494Y-102759463D01*
X128729180Y-102700498D01*
X128609482Y-102664188D01*
X128485000Y-102651928D01*
X127920750Y-102655000D01*
X127762000Y-102813750D01*
X127508000Y-102813750D01*
X127349250Y-102655000D01*
X126785000Y-102651928D01*
X126660518Y-102664188D01*
X126540820Y-102700498D01*
X126430506Y-102759463D01*
X126333815Y-102838815D01*
X126254463Y-102935506D01*
X126195498Y-103045820D01*
X126173487Y-103118380D01*
X126041632Y-102986525D01*
X125798411Y-102824010D01*
X125528158Y-102712068D01*
X125241260Y-102655000D01*
X124948740Y-102655000D01*
X124661842Y-102712068D01*
X124391589Y-102824010D01*
X124148368Y-102986525D01*
X123941525Y-103193368D01*
X123825000Y-103367760D01*
X123708475Y-103193368D01*
X123501632Y-102986525D01*
X123258411Y-102824010D01*
X122988158Y-102712068D01*
X122701260Y-102655000D01*
X122408740Y-102655000D01*
X122121842Y-102712068D01*
X121851589Y-102824010D01*
X121608368Y-102986525D01*
X121401525Y-103193368D01*
X121285000Y-103367760D01*
X121168475Y-103193368D01*
X120961632Y-102986525D01*
X120718411Y-102824010D01*
X120448158Y-102712068D01*
X120161260Y-102655000D01*
X119868740Y-102655000D01*
X119581842Y-102712068D01*
X119311589Y-102824010D01*
X119068368Y-102986525D01*
X118861525Y-103193368D01*
X118699010Y-103436589D01*
X118587068Y-103706842D01*
X118530000Y-103993740D01*
X112445000Y-103993740D01*
X112445000Y-98296349D01*
X112703256Y-98296349D01*
X112907362Y-98652867D01*
X113350223Y-98883575D01*
X113829583Y-99023452D01*
X114327021Y-99067123D01*
X114823422Y-99012909D01*
X115299707Y-98862894D01*
X115692638Y-98652867D01*
X115896744Y-98296349D01*
X157153256Y-98296349D01*
X157357362Y-98652867D01*
X157800223Y-98883575D01*
X158279583Y-99023452D01*
X158777021Y-99067123D01*
X159273422Y-99012909D01*
X159749707Y-98862894D01*
X160142638Y-98652867D01*
X160346744Y-98296349D01*
X158750000Y-96699605D01*
X157153256Y-98296349D01*
X115896744Y-98296349D01*
X114300000Y-96699605D01*
X112703256Y-98296349D01*
X112445000Y-98296349D01*
X112445000Y-98071716D01*
X112523651Y-98116744D01*
X114120395Y-96520000D01*
X114479605Y-96520000D01*
X116076349Y-98116744D01*
X116432867Y-97912638D01*
X116663575Y-97469777D01*
X116803452Y-96990417D01*
X116842378Y-96547021D01*
X156202877Y-96547021D01*
X156257091Y-97043422D01*
X156407106Y-97519707D01*
X156617133Y-97912638D01*
X156973651Y-98116744D01*
X158570395Y-96520000D01*
X156973651Y-94923256D01*
X156617133Y-95127362D01*
X156386425Y-95570223D01*
X156246548Y-96049583D01*
X156202877Y-96547021D01*
X116842378Y-96547021D01*
X116847123Y-96492979D01*
X116792909Y-95996578D01*
X116642894Y-95520293D01*
X116432867Y-95127362D01*
X116076349Y-94923256D01*
X114479605Y-96520000D01*
X114120395Y-96520000D01*
X112523651Y-94923256D01*
X112445000Y-94968284D01*
X112445000Y-94665000D01*
X112748284Y-94665000D01*
X112703256Y-94743651D01*
G04 #@! TA.AperFunction,Conductor*
D22*
G36*
X112703256Y-94743651D02*
G01*
X114300000Y-96340395D01*
X115896744Y-94743651D01*
X115851716Y-94665000D01*
X157198284Y-94665000D01*
X157153256Y-94743651D01*
X158750000Y-96340395D01*
X160346744Y-94743651D01*
X160301716Y-94665000D01*
X160605000Y-94665000D01*
X160605000Y-94968284D01*
X160526349Y-94923256D01*
X158929605Y-96520000D01*
X160526349Y-98116744D01*
X160605000Y-98071716D01*
X160605001Y-122273284D01*
X160526349Y-122228256D01*
X158929605Y-123825000D01*
X160526349Y-125421744D01*
X160605001Y-125376716D01*
X160605001Y-125680000D01*
X160301716Y-125680000D01*
X160346744Y-125601349D01*
X158750000Y-124004605D01*
X157153256Y-125601349D01*
X157198284Y-125680000D01*
X115851716Y-125680000D01*
X115896744Y-125601349D01*
X114300000Y-124004605D01*
X112703256Y-125601349D01*
X112748284Y-125680000D01*
X112445000Y-125680000D01*
X112445000Y-125376716D01*
X112523651Y-125421744D01*
X114120395Y-123825000D01*
X114479605Y-123825000D01*
X116076349Y-125421744D01*
X116432867Y-125217638D01*
X116663575Y-124774777D01*
X116803452Y-124295417D01*
X116842378Y-123852021D01*
X156202877Y-123852021D01*
X156257091Y-124348422D01*
X156407106Y-124824707D01*
X156617133Y-125217638D01*
X156973651Y-125421744D01*
X158570395Y-123825000D01*
X156973651Y-122228256D01*
X156617133Y-122432362D01*
X156386425Y-122875223D01*
X156246548Y-123354583D01*
X156202877Y-123852021D01*
X116842378Y-123852021D01*
X116847123Y-123797979D01*
X116792909Y-123301578D01*
X116642894Y-122825293D01*
X116432867Y-122432362D01*
X116076349Y-122228256D01*
X114479605Y-123825000D01*
X114120395Y-123825000D01*
X112523651Y-122228256D01*
X112445000Y-122273284D01*
X112445000Y-122048651D01*
X112703256Y-122048651D01*
X114300000Y-123645395D01*
X115896744Y-122048651D01*
X115692638Y-121692133D01*
X115249777Y-121461425D01*
X114770417Y-121321548D01*
X114272979Y-121277877D01*
X113776578Y-121332091D01*
X113300293Y-121482106D01*
X112907362Y-121692133D01*
X112703256Y-122048651D01*
X112445000Y-122048651D01*
X112445000Y-120435413D01*
X116954192Y-120435413D01*
X117049956Y-120699814D01*
X117339571Y-120840704D01*
X117651108Y-120922384D01*
X117972595Y-120941718D01*
X118291675Y-120897961D01*
X118596088Y-120792795D01*
X118770044Y-120699814D01*
X118865808Y-120435413D01*
X117910000Y-119479605D01*
X116954192Y-120435413D01*
X112445000Y-120435413D01*
X112445000Y-119362595D01*
X116268282Y-119362595D01*
X116312039Y-119681675D01*
X116417205Y-119986088D01*
X116510186Y-120160044D01*
X116774587Y-120255808D01*
X117730395Y-119300000D01*
X118089605Y-119300000D01*
X119045413Y-120255808D01*
X119309814Y-120160044D01*
X119450704Y-119870429D01*
X119532384Y-119558892D01*
X119551718Y-119237405D01*
X119507961Y-118918325D01*
X119402795Y-118613912D01*
X119309814Y-118439956D01*
X119045413Y-118344192D01*
X118089605Y-119300000D01*
X117730395Y-119300000D01*
X116774587Y-118344192D01*
X116510186Y-118439956D01*
X116369296Y-118729571D01*
X116287616Y-119041108D01*
X116268282Y-119362595D01*
X112445000Y-119362595D01*
X112445000Y-118164587D01*
X116954192Y-118164587D01*
X117910000Y-119120395D01*
X118865808Y-118164587D01*
X118770044Y-117900186D01*
X118480429Y-117759296D01*
X118168892Y-117677616D01*
X117847405Y-117658282D01*
X117528325Y-117702039D01*
X117223912Y-117807205D01*
X117049956Y-117900186D01*
X116954192Y-118164587D01*
X112445000Y-118164587D01*
X112445000Y-117380448D01*
X126675000Y-117380448D01*
X126675000Y-117569552D01*
X126711892Y-117755022D01*
X126784259Y-117929731D01*
X126889319Y-118086964D01*
X127023036Y-118220681D01*
X127180269Y-118325741D01*
X127354978Y-118398108D01*
X127540448Y-118435000D01*
X127729552Y-118435000D01*
X127915022Y-118398108D01*
X128089731Y-118325741D01*
X128164554Y-118275745D01*
X130281300Y-120392492D01*
X130281300Y-120442952D01*
X130318192Y-120628422D01*
X130390559Y-120803131D01*
X130495619Y-120960364D01*
X130629336Y-121094081D01*
X130786569Y-121199141D01*
X130961278Y-121271508D01*
X131120204Y-121303120D01*
X131120000Y-121304148D01*
X131120000Y-121493252D01*
X131156892Y-121678722D01*
X131229259Y-121853431D01*
X131334319Y-122010664D01*
X131468036Y-122144381D01*
X131625269Y-122249441D01*
X131799978Y-122321808D01*
X131985448Y-122358700D01*
X132174552Y-122358700D01*
X132360022Y-122321808D01*
X132534731Y-122249441D01*
X132691964Y-122144381D01*
X132727645Y-122108700D01*
X133822525Y-122108700D01*
X133857400Y-122112135D01*
X133892275Y-122108700D01*
X133892277Y-122108700D01*
X133996584Y-122098427D01*
X134130420Y-122057828D01*
X134253763Y-121991900D01*
X134361875Y-121903175D01*
X134384112Y-121876079D01*
X139980191Y-116280000D01*
X140300125Y-116280000D01*
X140335000Y-116283435D01*
X140369875Y-116280000D01*
X140369877Y-116280000D01*
X140474184Y-116269727D01*
X140608020Y-116229128D01*
X140651300Y-116205994D01*
X140651301Y-119599808D01*
X140558918Y-119692191D01*
X140531826Y-119714425D01*
X140443101Y-119822537D01*
X140377173Y-119945880D01*
X140336574Y-120079716D01*
X140326301Y-120184022D01*
X140322866Y-120218899D01*
X140326301Y-120253774D01*
X140326301Y-121010116D01*
X140322866Y-121044991D01*
X140326301Y-121079866D01*
X140326301Y-121079868D01*
X140332208Y-121139841D01*
X140336575Y-121184175D01*
X140344409Y-121210000D01*
X137194875Y-121210000D01*
X137160000Y-121206565D01*
X137125125Y-121210000D01*
X137125123Y-121210000D01*
X137020816Y-121220273D01*
X136886980Y-121260872D01*
X136763637Y-121326800D01*
X136655525Y-121415525D01*
X136633288Y-121442621D01*
X136480909Y-121595000D01*
X136430448Y-121595000D01*
X136244978Y-121631892D01*
X136070269Y-121704259D01*
X135913036Y-121809319D01*
X135779319Y-121943036D01*
X135674259Y-122100269D01*
X135601892Y-122274978D01*
X135565000Y-122460448D01*
X135565000Y-122649552D01*
X135601892Y-122835022D01*
X135674259Y-123009731D01*
X135779319Y-123166964D01*
X135913036Y-123300681D01*
X136070269Y-123405741D01*
X136244978Y-123478108D01*
X136430448Y-123515000D01*
X136619552Y-123515000D01*
X136805022Y-123478108D01*
X136979731Y-123405741D01*
X137136964Y-123300681D01*
X137270681Y-123166964D01*
X137375741Y-123009731D01*
X137448108Y-122835022D01*
X137485000Y-122649552D01*
X137485000Y-122630000D01*
X141641927Y-122630000D01*
X141676802Y-122633435D01*
X141711677Y-122630000D01*
X141711679Y-122630000D01*
X141815986Y-122619727D01*
X141949822Y-122579128D01*
X142073165Y-122513200D01*
X142181277Y-122424475D01*
X142203514Y-122397379D01*
X142552242Y-122048651D01*
X157153256Y-122048651D01*
X158750000Y-123645395D01*
X160346744Y-122048651D01*
X160142638Y-121692133D01*
X159699777Y-121461425D01*
X159220417Y-121321548D01*
X158722979Y-121277877D01*
X158226578Y-121332091D01*
X157750293Y-121482106D01*
X157357362Y-121692133D01*
X157153256Y-122048651D01*
X142552242Y-122048651D01*
X146415894Y-118185000D01*
X149847355Y-118185000D01*
X149883036Y-118220681D01*
X150040269Y-118325741D01*
X150214978Y-118398108D01*
X150400448Y-118435000D01*
X150589552Y-118435000D01*
X150775022Y-118398108D01*
X150949731Y-118325741D01*
X151106964Y-118220681D01*
X151240681Y-118086964D01*
X151345741Y-117929731D01*
X151418108Y-117755022D01*
X151455000Y-117569552D01*
X151455000Y-117380448D01*
X151418108Y-117194978D01*
X151348239Y-117026300D01*
X156102855Y-117026300D01*
X156138536Y-117061981D01*
X156295769Y-117167041D01*
X156470478Y-117239408D01*
X156655948Y-117276300D01*
X156845052Y-117276300D01*
X157030522Y-117239408D01*
X157205231Y-117167041D01*
X157362464Y-117061981D01*
X157496181Y-116928264D01*
X157601241Y-116771031D01*
X157673608Y-116596322D01*
X157710500Y-116410852D01*
X157710500Y-116221748D01*
X157673608Y-116036278D01*
X157601241Y-115861569D01*
X157496181Y-115704336D01*
X157362464Y-115570619D01*
X157205231Y-115465559D01*
X157030522Y-115393192D01*
X156845052Y-115356300D01*
X156655948Y-115356300D01*
X156470478Y-115393192D01*
X156295769Y-115465559D01*
X156138536Y-115570619D01*
X156102855Y-115606300D01*
X149271100Y-115606300D01*
X149271100Y-114904945D01*
X149306781Y-114869264D01*
X149411841Y-114712031D01*
X149484208Y-114537322D01*
X149521100Y-114351852D01*
X149521100Y-114162748D01*
X149484208Y-113977278D01*
X149411841Y-113802569D01*
X149306781Y-113645336D01*
X149173064Y-113511619D01*
X149015831Y-113406559D01*
X148841122Y-113334192D01*
X148655652Y-113297300D01*
X148466548Y-113297300D01*
X148281078Y-113334192D01*
X148106369Y-113406559D01*
X147949136Y-113511619D01*
X147815419Y-113645336D01*
X147710359Y-113802569D01*
X147637992Y-113977278D01*
X147601100Y-114162748D01*
X147601100Y-114351852D01*
X147637992Y-114537322D01*
X147710359Y-114712031D01*
X147815419Y-114869264D01*
X147851101Y-114904946D01*
X147851100Y-115606300D01*
X145752075Y-115606300D01*
X145717200Y-115602865D01*
X145698704Y-115604687D01*
X154147384Y-107156008D01*
X154174475Y-107133775D01*
X154263200Y-107025663D01*
X154329128Y-106902320D01*
X154369727Y-106768484D01*
X154380000Y-106664177D01*
X154380000Y-106664176D01*
X154383435Y-106629301D01*
X154380000Y-106594426D01*
X154380000Y-105628072D01*
X154520000Y-105628072D01*
X154644482Y-105615812D01*
X154764180Y-105579502D01*
X154874494Y-105520537D01*
X154971185Y-105441185D01*
X155050537Y-105344494D01*
X155109502Y-105234180D01*
X155145812Y-105114482D01*
X155158072Y-104990000D01*
X155158072Y-103290000D01*
X155145812Y-103165518D01*
X155109502Y-103045820D01*
X155050537Y-102935506D01*
X154971185Y-102838815D01*
X154874494Y-102759463D01*
X154764180Y-102700498D01*
X154644482Y-102664188D01*
X154520000Y-102651928D01*
X152820000Y-102651928D01*
X152695518Y-102664188D01*
X152575820Y-102700498D01*
X152465506Y-102759463D01*
X152368815Y-102838815D01*
X152289463Y-102935506D01*
X152230498Y-103045820D01*
X152206034Y-103126466D01*
X152130269Y-103042412D01*
X151896920Y-102868359D01*
X151634099Y-102743175D01*
X151486890Y-102698524D01*
X151257000Y-102819845D01*
X151257000Y-104013000D01*
X151277000Y-104013000D01*
X151277000Y-104267000D01*
X151257000Y-104267000D01*
X151257000Y-105460155D01*
X151486890Y-105581476D01*
X151634099Y-105536825D01*
X151896920Y-105411641D01*
X152130269Y-105237588D01*
X152206034Y-105153534D01*
X152230498Y-105234180D01*
X152289463Y-105344494D01*
X152368815Y-105441185D01*
X152465506Y-105520537D01*
X152575820Y-105579502D01*
X152695518Y-105615812D01*
X152820000Y-105628072D01*
X152960001Y-105628072D01*
X152960001Y-106335207D01*
X144239309Y-115055900D01*
X144188848Y-115055900D01*
X144003378Y-115092792D01*
X143828669Y-115165159D01*
X143671436Y-115270219D01*
X143537719Y-115403936D01*
X143432659Y-115561169D01*
X143360292Y-115735878D01*
X143323400Y-115921348D01*
X143323400Y-116110452D01*
X143360292Y-116295922D01*
X143432659Y-116470631D01*
X143537719Y-116627864D01*
X143671436Y-116761581D01*
X143828669Y-116866641D01*
X144003378Y-116939008D01*
X144075963Y-116953446D01*
X142071300Y-118958109D01*
X142071300Y-115171491D01*
X145652192Y-111590600D01*
X145702652Y-111590600D01*
X145888122Y-111553708D01*
X146062831Y-111481341D01*
X146220064Y-111376281D01*
X146353781Y-111242564D01*
X146458841Y-111085331D01*
X146531208Y-110910622D01*
X146568100Y-110725152D01*
X146568100Y-110536048D01*
X146531208Y-110350578D01*
X146458841Y-110175869D01*
X146353781Y-110018636D01*
X146220064Y-109884919D01*
X146062831Y-109779859D01*
X145888122Y-109707492D01*
X145702652Y-109670600D01*
X145513548Y-109670600D01*
X145328078Y-109707492D01*
X145153369Y-109779859D01*
X144996136Y-109884919D01*
X144862419Y-110018636D01*
X144757359Y-110175869D01*
X144684992Y-110350578D01*
X144648100Y-110536048D01*
X144648100Y-110586508D01*
X141442300Y-113792309D01*
X141442300Y-109651945D01*
X141477981Y-109616264D01*
X141583041Y-109459031D01*
X141655408Y-109284322D01*
X141692300Y-109098852D01*
X141692300Y-108909748D01*
X141655408Y-108724278D01*
X141583041Y-108549569D01*
X141477981Y-108392336D01*
X141344264Y-108258619D01*
X141187031Y-108153559D01*
X141012322Y-108081192D01*
X140826852Y-108044300D01*
X140637748Y-108044300D01*
X140452278Y-108081192D01*
X140277569Y-108153559D01*
X140120336Y-108258619D01*
X139986619Y-108392336D01*
X139881559Y-108549569D01*
X139809192Y-108724278D01*
X139772300Y-108909748D01*
X139772300Y-109098852D01*
X139809192Y-109284322D01*
X139881559Y-109459031D01*
X139986619Y-109616264D01*
X140022300Y-109651945D01*
X140022300Y-110758860D01*
X139866652Y-110727900D01*
X139677548Y-110727900D01*
X139492078Y-110764792D01*
X139317369Y-110837159D01*
X139160136Y-110942219D01*
X139026419Y-111075936D01*
X138921359Y-111233169D01*
X138848992Y-111407878D01*
X138812100Y-111593348D01*
X138812100Y-111782452D01*
X138848992Y-111967922D01*
X138921359Y-112142631D01*
X139026419Y-112299864D01*
X139062100Y-112335545D01*
X139062101Y-113072254D01*
X138954319Y-113180036D01*
X138849259Y-113337269D01*
X138776892Y-113511978D01*
X138740000Y-113697448D01*
X138740000Y-113886552D01*
X138776892Y-114072022D01*
X138849259Y-114246731D01*
X138954319Y-114403964D01*
X139088036Y-114537681D01*
X139245269Y-114642741D01*
X139419978Y-114715108D01*
X139605448Y-114752000D01*
X139794552Y-114752000D01*
X139980022Y-114715108D01*
X140022301Y-114697595D01*
X140022301Y-114860000D01*
X139720975Y-114860000D01*
X139686100Y-114856565D01*
X139651225Y-114860000D01*
X139651223Y-114860000D01*
X139546916Y-114870273D01*
X139413080Y-114910872D01*
X139289737Y-114976800D01*
X139181625Y-115065525D01*
X139159388Y-115092621D01*
X133563309Y-120688700D01*
X132727645Y-120688700D01*
X132691964Y-120653019D01*
X132534731Y-120547959D01*
X132360022Y-120475592D01*
X132201096Y-120443980D01*
X132201300Y-120442952D01*
X132201300Y-120253848D01*
X132164408Y-120068378D01*
X132092041Y-119893669D01*
X131986981Y-119736436D01*
X131853264Y-119602719D01*
X131696031Y-119497659D01*
X131521322Y-119425292D01*
X131335852Y-119388400D01*
X131285392Y-119388400D01*
X128894612Y-116997621D01*
X128872375Y-116970525D01*
X128764263Y-116881800D01*
X128640920Y-116815872D01*
X128507084Y-116775273D01*
X128402777Y-116765000D01*
X128402775Y-116765000D01*
X128367900Y-116761565D01*
X128333025Y-116765000D01*
X128282645Y-116765000D01*
X128246964Y-116729319D01*
X128089731Y-116624259D01*
X127915022Y-116551892D01*
X127729552Y-116515000D01*
X127540448Y-116515000D01*
X127354978Y-116551892D01*
X127180269Y-116624259D01*
X127023036Y-116729319D01*
X126889319Y-116863036D01*
X126784259Y-117020269D01*
X126711892Y-117194978D01*
X126675000Y-117380448D01*
X112445000Y-117380448D01*
X112445000Y-113300000D01*
X116271928Y-113300000D01*
X116271928Y-115300000D01*
X116284188Y-115424482D01*
X116320498Y-115544180D01*
X116379463Y-115654494D01*
X116458815Y-115751185D01*
X116555506Y-115830537D01*
X116665820Y-115889502D01*
X116785518Y-115925812D01*
X116910000Y-115938072D01*
X118910000Y-115938072D01*
X119034482Y-115925812D01*
X119154180Y-115889502D01*
X119264494Y-115830537D01*
X119361185Y-115751185D01*
X119440537Y-115654494D01*
X119499502Y-115544180D01*
X119535812Y-115424482D01*
X119548072Y-115300000D01*
X119548072Y-113300000D01*
X119535812Y-113175518D01*
X119499502Y-113055820D01*
X119440537Y-112945506D01*
X119361185Y-112848815D01*
X119264494Y-112769463D01*
X119154180Y-112710498D01*
X119034482Y-112674188D01*
X118910000Y-112661928D01*
X116910000Y-112661928D01*
X116785518Y-112674188D01*
X116665820Y-112710498D01*
X116555506Y-112769463D01*
X116458815Y-112848815D01*
X116379463Y-112945506D01*
X116320498Y-113055820D01*
X116284188Y-113175518D01*
X116271928Y-113300000D01*
X112445000Y-113300000D01*
X112445000Y-108470000D01*
X120756928Y-108470000D01*
X120756928Y-109970000D01*
X120769188Y-110094482D01*
X120805498Y-110214180D01*
X120864463Y-110324494D01*
X120943815Y-110421185D01*
X121040506Y-110500537D01*
X121150820Y-110559502D01*
X121270518Y-110595812D01*
X121395000Y-110608072D01*
X122445000Y-110608072D01*
X122569482Y-110595812D01*
X122689180Y-110559502D01*
X122754057Y-110524824D01*
X122822663Y-110555272D01*
X122884190Y-110563964D01*
X123063000Y-110438163D01*
X123063000Y-110120235D01*
X123070812Y-110094482D01*
X123083072Y-109970000D01*
X123083072Y-108938022D01*
X123300000Y-108938022D01*
X123300000Y-109501979D01*
X123316785Y-109672400D01*
X123317000Y-109673109D01*
X123317000Y-110438163D01*
X123495810Y-110563964D01*
X123557337Y-110555272D01*
X123766882Y-110462275D01*
X123825331Y-110421071D01*
X124013941Y-110521885D01*
X124232601Y-110588215D01*
X124460000Y-110610612D01*
X124687400Y-110588215D01*
X124766001Y-110564372D01*
X124766000Y-111112355D01*
X124730319Y-111148036D01*
X124625259Y-111305269D01*
X124552892Y-111479978D01*
X124516000Y-111665448D01*
X124516000Y-111854552D01*
X124552892Y-112040022D01*
X124625259Y-112214731D01*
X124730319Y-112371964D01*
X124864036Y-112505681D01*
X125021269Y-112610741D01*
X125195978Y-112683108D01*
X125381448Y-112720000D01*
X125570552Y-112720000D01*
X125756022Y-112683108D01*
X125930731Y-112610741D01*
X126087964Y-112505681D01*
X126221681Y-112371964D01*
X126326741Y-112214731D01*
X126399108Y-112040022D01*
X126436000Y-111854552D01*
X126436000Y-111665448D01*
X126399108Y-111479978D01*
X126326741Y-111305269D01*
X126221681Y-111148036D01*
X126186000Y-111112355D01*
X126186000Y-110270875D01*
X126189435Y-110236000D01*
X126186000Y-110201123D01*
X126175727Y-110096816D01*
X126135128Y-109962980D01*
X126069200Y-109839637D01*
X125980475Y-109731525D01*
X125953384Y-109709292D01*
X125934092Y-109690000D01*
X126831928Y-109690000D01*
X126831928Y-111290000D01*
X126844188Y-111414482D01*
X126880498Y-111534180D01*
X126939463Y-111644494D01*
X127018815Y-111741185D01*
X127115506Y-111820537D01*
X127225820Y-111879502D01*
X127345518Y-111915812D01*
X127470000Y-111928072D01*
X129070000Y-111928072D01*
X129194482Y-111915812D01*
X129314180Y-111879502D01*
X129424494Y-111820537D01*
X129521185Y-111741185D01*
X129600537Y-111644494D01*
X129659502Y-111534180D01*
X129675117Y-111482702D01*
X129956903Y-111482702D01*
X130028486Y-111726671D01*
X130283996Y-111847571D01*
X130558184Y-111916300D01*
X130840512Y-111930217D01*
X131120130Y-111888787D01*
X131386292Y-111793603D01*
X131511514Y-111726671D01*
X131583097Y-111482702D01*
X130770000Y-110669605D01*
X129956903Y-111482702D01*
X129675117Y-111482702D01*
X129695812Y-111414482D01*
X129708072Y-111290000D01*
X129708072Y-111282785D01*
X129777298Y-111303097D01*
X130590395Y-110490000D01*
X130949605Y-110490000D01*
X131762702Y-111303097D01*
X132006671Y-111231514D01*
X132127571Y-110976004D01*
X132196300Y-110701816D01*
X132210217Y-110419488D01*
X132168787Y-110139870D01*
X132073603Y-109873708D01*
X132006671Y-109748486D01*
X131762702Y-109676903D01*
X130949605Y-110490000D01*
X130590395Y-110490000D01*
X129777298Y-109676903D01*
X129708072Y-109697215D01*
X129708072Y-109690000D01*
X129695812Y-109565518D01*
X129675118Y-109497298D01*
X129956903Y-109497298D01*
X130770000Y-110310395D01*
X131583097Y-109497298D01*
X131511514Y-109253329D01*
X131256004Y-109132429D01*
X130981816Y-109063700D01*
X130699488Y-109049783D01*
X130419870Y-109091213D01*
X130153708Y-109186397D01*
X130028486Y-109253329D01*
X129956903Y-109497298D01*
X129675118Y-109497298D01*
X129659502Y-109445820D01*
X129600537Y-109335506D01*
X129521185Y-109238815D01*
X129424494Y-109159463D01*
X129314180Y-109100498D01*
X129194482Y-109064188D01*
X129070000Y-109051928D01*
X127470000Y-109051928D01*
X127345518Y-109064188D01*
X127225820Y-109100498D01*
X127115506Y-109159463D01*
X127018815Y-109238815D01*
X126939463Y-109335506D01*
X126880498Y-109445820D01*
X126844188Y-109565518D01*
X126831928Y-109690000D01*
X125934092Y-109690000D01*
X125620000Y-109375908D01*
X125620000Y-108938021D01*
X125603215Y-108767600D01*
X125536885Y-108548940D01*
X125429171Y-108347421D01*
X125284212Y-108170788D01*
X125107578Y-108025829D01*
X124906059Y-107918115D01*
X124687399Y-107851785D01*
X124460000Y-107829388D01*
X124232600Y-107851785D01*
X124013940Y-107918115D01*
X123825331Y-108018929D01*
X123766882Y-107977725D01*
X123557337Y-107884728D01*
X123495810Y-107876036D01*
X123317000Y-108001837D01*
X123317000Y-108766892D01*
X123316785Y-108767601D01*
X123300000Y-108938022D01*
X123083072Y-108938022D01*
X123083072Y-108470000D01*
X123070812Y-108345518D01*
X123063000Y-108319765D01*
X123063000Y-108001837D01*
X122884190Y-107876036D01*
X122822663Y-107884728D01*
X122754057Y-107915176D01*
X122689180Y-107880498D01*
X122569482Y-107844188D01*
X122445000Y-107831928D01*
X121395000Y-107831928D01*
X121270518Y-107844188D01*
X121150820Y-107880498D01*
X121040506Y-107939463D01*
X120943815Y-108018815D01*
X120864463Y-108115506D01*
X120805498Y-108225820D01*
X120769188Y-108345518D01*
X120756928Y-108470000D01*
X112445000Y-108470000D01*
X112445000Y-103993740D01*
X118530000Y-103993740D01*
X118530000Y-104286260D01*
X118587068Y-104573158D01*
X118699010Y-104843411D01*
X118861525Y-105086632D01*
X119068368Y-105293475D01*
X119311589Y-105455990D01*
X119581842Y-105567932D01*
X119868740Y-105625000D01*
X120161260Y-105625000D01*
X120448158Y-105567932D01*
X120718411Y-105455990D01*
X120961632Y-105293475D01*
X121168475Y-105086632D01*
X121285000Y-104912240D01*
X121401525Y-105086632D01*
X121608368Y-105293475D01*
X121851589Y-105455990D01*
X122121842Y-105567932D01*
X122408740Y-105625000D01*
X122701260Y-105625000D01*
X122988158Y-105567932D01*
X123258411Y-105455990D01*
X123501632Y-105293475D01*
X123708475Y-105086632D01*
X123825000Y-104912240D01*
X123941525Y-105086632D01*
X124148368Y-105293475D01*
X124391589Y-105455990D01*
X124661842Y-105567932D01*
X124948740Y-105625000D01*
X125241260Y-105625000D01*
X125528158Y-105567932D01*
X125798411Y-105455990D01*
X126041632Y-105293475D01*
X126173487Y-105161620D01*
X126195498Y-105234180D01*
X126254463Y-105344494D01*
X126333815Y-105441185D01*
X126430506Y-105520537D01*
X126540820Y-105579502D01*
X126660518Y-105615812D01*
X126785000Y-105628072D01*
X127349250Y-105625000D01*
X127508000Y-105466250D01*
X127508000Y-104267000D01*
X127762000Y-104267000D01*
X127762000Y-105466250D01*
X127920750Y-105625000D01*
X128485000Y-105628072D01*
X128609482Y-105615812D01*
X128729180Y-105579502D01*
X128839494Y-105520537D01*
X128936185Y-105441185D01*
X129015537Y-105344494D01*
X129074502Y-105234180D01*
X129110812Y-105114482D01*
X129123072Y-104990000D01*
X129120000Y-104425750D01*
X128961250Y-104267000D01*
X127762000Y-104267000D01*
X127508000Y-104267000D01*
X127488000Y-104267000D01*
X127488000Y-104013000D01*
X127508000Y-104013000D01*
X127508000Y-102813750D01*
X127762000Y-102813750D01*
X127762000Y-104013000D01*
X128961250Y-104013000D01*
X128980510Y-103993740D01*
X130595000Y-103993740D01*
X130595000Y-104286260D01*
X130652068Y-104573158D01*
X130764010Y-104843411D01*
X130926525Y-105086632D01*
X131133368Y-105293475D01*
X131376589Y-105455990D01*
X131646842Y-105567932D01*
X131933740Y-105625000D01*
X132226260Y-105625000D01*
X132513158Y-105567932D01*
X132783411Y-105455990D01*
X133026632Y-105293475D01*
X133233475Y-105086632D01*
X133350000Y-104912240D01*
X133466525Y-105086632D01*
X133673368Y-105293475D01*
X133916589Y-105455990D01*
X134186842Y-105567932D01*
X134473740Y-105625000D01*
X134766260Y-105625000D01*
X135053158Y-105567932D01*
X135323411Y-105455990D01*
X135566632Y-105293475D01*
X135698487Y-105161620D01*
X135720498Y-105234180D01*
X135779463Y-105344494D01*
X135858815Y-105441185D01*
X135955506Y-105520537D01*
X136065820Y-105579502D01*
X136185518Y-105615812D01*
X136310000Y-105628072D01*
X136874250Y-105625000D01*
X137033000Y-105466250D01*
X137033000Y-104267000D01*
X137287000Y-104267000D01*
X137287000Y-105466250D01*
X137445750Y-105625000D01*
X138010000Y-105628072D01*
X138134482Y-105615812D01*
X138254180Y-105579502D01*
X138364494Y-105520537D01*
X138461185Y-105441185D01*
X138540537Y-105344494D01*
X138599502Y-105234180D01*
X138635812Y-105114482D01*
X138648072Y-104990000D01*
X138645000Y-104425750D01*
X138486250Y-104267000D01*
X137287000Y-104267000D01*
X137033000Y-104267000D01*
X137013000Y-104267000D01*
X137013000Y-104013000D01*
X137033000Y-104013000D01*
X137033000Y-102813750D01*
X137287000Y-102813750D01*
X137287000Y-104013000D01*
X138486250Y-104013000D01*
X138505510Y-103993740D01*
X140120000Y-103993740D01*
X140120000Y-104286260D01*
X140177068Y-104573158D01*
X140289010Y-104843411D01*
X140451525Y-105086632D01*
X140658368Y-105293475D01*
X140901589Y-105455990D01*
X141171842Y-105567932D01*
X141458740Y-105625000D01*
X141751260Y-105625000D01*
X142038158Y-105567932D01*
X142308411Y-105455990D01*
X142551632Y-105293475D01*
X142758475Y-105086632D01*
X142880195Y-104904466D01*
X142949822Y-105021355D01*
X143144731Y-105237588D01*
X143378080Y-105411641D01*
X143640901Y-105536825D01*
X143788110Y-105581476D01*
X144018000Y-105460155D01*
X144018000Y-104267000D01*
X143998000Y-104267000D01*
X143998000Y-104013000D01*
X144018000Y-104013000D01*
X144018000Y-102819845D01*
X144272000Y-102819845D01*
X144272000Y-104013000D01*
X144292000Y-104013000D01*
X144292000Y-104267000D01*
X144272000Y-104267000D01*
X144272000Y-105460155D01*
X144501890Y-105581476D01*
X144649099Y-105536825D01*
X144911920Y-105411641D01*
X145145269Y-105237588D01*
X145221034Y-105153534D01*
X145245498Y-105234180D01*
X145304463Y-105344494D01*
X145383815Y-105441185D01*
X145480506Y-105520537D01*
X145590820Y-105579502D01*
X145710518Y-105615812D01*
X145835000Y-105628072D01*
X147535000Y-105628072D01*
X147659482Y-105615812D01*
X147779180Y-105579502D01*
X147889494Y-105520537D01*
X147986185Y-105441185D01*
X148065537Y-105344494D01*
X148124502Y-105234180D01*
X148160812Y-105114482D01*
X148173072Y-104990000D01*
X148173072Y-104496891D01*
X149688519Y-104496891D01*
X149785843Y-104771252D01*
X149934822Y-105021355D01*
X150129731Y-105237588D01*
X150363080Y-105411641D01*
X150625901Y-105536825D01*
X150773110Y-105581476D01*
X151003000Y-105460155D01*
X151003000Y-104267000D01*
X149809186Y-104267000D01*
X149688519Y-104496891D01*
X148173072Y-104496891D01*
X148173072Y-103783109D01*
X149688519Y-103783109D01*
X149809186Y-104013000D01*
X151003000Y-104013000D01*
X151003000Y-102819845D01*
X150773110Y-102698524D01*
X150625901Y-102743175D01*
X150363080Y-102868359D01*
X150129731Y-103042412D01*
X149934822Y-103258645D01*
X149785843Y-103508748D01*
X149688519Y-103783109D01*
X148173072Y-103783109D01*
X148173072Y-103290000D01*
X148160812Y-103165518D01*
X148124502Y-103045820D01*
X148065537Y-102935506D01*
X147986185Y-102838815D01*
X147889494Y-102759463D01*
X147779180Y-102700498D01*
X147659482Y-102664188D01*
X147535000Y-102651928D01*
X145835000Y-102651928D01*
X145710518Y-102664188D01*
X145590820Y-102700498D01*
X145480506Y-102759463D01*
X145383815Y-102838815D01*
X145304463Y-102935506D01*
X145245498Y-103045820D01*
X145221034Y-103126466D01*
X145145269Y-103042412D01*
X144911920Y-102868359D01*
X144649099Y-102743175D01*
X144501890Y-102698524D01*
X144272000Y-102819845D01*
X144018000Y-102819845D01*
X143788110Y-102698524D01*
X143640901Y-102743175D01*
X143378080Y-102868359D01*
X143144731Y-103042412D01*
X142949822Y-103258645D01*
X142880195Y-103375534D01*
X142758475Y-103193368D01*
X142551632Y-102986525D01*
X142308411Y-102824010D01*
X142038158Y-102712068D01*
X141751260Y-102655000D01*
X141458740Y-102655000D01*
X141171842Y-102712068D01*
X140901589Y-102824010D01*
X140658368Y-102986525D01*
X140451525Y-103193368D01*
X140289010Y-103436589D01*
X140177068Y-103706842D01*
X140120000Y-103993740D01*
X138505510Y-103993740D01*
X138645000Y-103854250D01*
X138648072Y-103290000D01*
X138635812Y-103165518D01*
X138599502Y-103045820D01*
X138540537Y-102935506D01*
X138461185Y-102838815D01*
X138364494Y-102759463D01*
X138254180Y-102700498D01*
X138134482Y-102664188D01*
X138010000Y-102651928D01*
X137445750Y-102655000D01*
X137287000Y-102813750D01*
X137033000Y-102813750D01*
X136874250Y-102655000D01*
X136310000Y-102651928D01*
X136185518Y-102664188D01*
X136065820Y-102700498D01*
X135955506Y-102759463D01*
X135858815Y-102838815D01*
X135779463Y-102935506D01*
X135720498Y-103045820D01*
X135698487Y-103118380D01*
X135566632Y-102986525D01*
X135323411Y-102824010D01*
X135053158Y-102712068D01*
X134766260Y-102655000D01*
X134473740Y-102655000D01*
X134186842Y-102712068D01*
X133916589Y-102824010D01*
X133673368Y-102986525D01*
X133466525Y-103193368D01*
X133350000Y-103367760D01*
X133233475Y-103193368D01*
X133026632Y-102986525D01*
X132783411Y-102824010D01*
X132513158Y-102712068D01*
X132226260Y-102655000D01*
X131933740Y-102655000D01*
X131646842Y-102712068D01*
X131376589Y-102824010D01*
X131133368Y-102986525D01*
X130926525Y-103193368D01*
X130764010Y-103436589D01*
X130652068Y-103706842D01*
X130595000Y-103993740D01*
X128980510Y-103993740D01*
X129120000Y-103854250D01*
X129123072Y-103290000D01*
X129110812Y-103165518D01*
X129074502Y-103045820D01*
X129015537Y-102935506D01*
X128936185Y-102838815D01*
X128839494Y-102759463D01*
X128729180Y-102700498D01*
X128609482Y-102664188D01*
X128485000Y-102651928D01*
X127920750Y-102655000D01*
X127762000Y-102813750D01*
X127508000Y-102813750D01*
X127349250Y-102655000D01*
X126785000Y-102651928D01*
X126660518Y-102664188D01*
X126540820Y-102700498D01*
X126430506Y-102759463D01*
X126333815Y-102838815D01*
X126254463Y-102935506D01*
X126195498Y-103045820D01*
X126173487Y-103118380D01*
X126041632Y-102986525D01*
X125798411Y-102824010D01*
X125528158Y-102712068D01*
X125241260Y-102655000D01*
X124948740Y-102655000D01*
X124661842Y-102712068D01*
X124391589Y-102824010D01*
X124148368Y-102986525D01*
X123941525Y-103193368D01*
X123825000Y-103367760D01*
X123708475Y-103193368D01*
X123501632Y-102986525D01*
X123258411Y-102824010D01*
X122988158Y-102712068D01*
X122701260Y-102655000D01*
X122408740Y-102655000D01*
X122121842Y-102712068D01*
X121851589Y-102824010D01*
X121608368Y-102986525D01*
X121401525Y-103193368D01*
X121285000Y-103367760D01*
X121168475Y-103193368D01*
X120961632Y-102986525D01*
X120718411Y-102824010D01*
X120448158Y-102712068D01*
X120161260Y-102655000D01*
X119868740Y-102655000D01*
X119581842Y-102712068D01*
X119311589Y-102824010D01*
X119068368Y-102986525D01*
X118861525Y-103193368D01*
X118699010Y-103436589D01*
X118587068Y-103706842D01*
X118530000Y-103993740D01*
X112445000Y-103993740D01*
X112445000Y-98296349D01*
X112703256Y-98296349D01*
X112907362Y-98652867D01*
X113350223Y-98883575D01*
X113829583Y-99023452D01*
X114327021Y-99067123D01*
X114823422Y-99012909D01*
X115299707Y-98862894D01*
X115692638Y-98652867D01*
X115896744Y-98296349D01*
X157153256Y-98296349D01*
X157357362Y-98652867D01*
X157800223Y-98883575D01*
X158279583Y-99023452D01*
X158777021Y-99067123D01*
X159273422Y-99012909D01*
X159749707Y-98862894D01*
X160142638Y-98652867D01*
X160346744Y-98296349D01*
X158750000Y-96699605D01*
X157153256Y-98296349D01*
X115896744Y-98296349D01*
X114300000Y-96699605D01*
X112703256Y-98296349D01*
X112445000Y-98296349D01*
X112445000Y-98071716D01*
X112523651Y-98116744D01*
X114120395Y-96520000D01*
X114479605Y-96520000D01*
X116076349Y-98116744D01*
X116432867Y-97912638D01*
X116663575Y-97469777D01*
X116803452Y-96990417D01*
X116842378Y-96547021D01*
X156202877Y-96547021D01*
X156257091Y-97043422D01*
X156407106Y-97519707D01*
X156617133Y-97912638D01*
X156973651Y-98116744D01*
X158570395Y-96520000D01*
X156973651Y-94923256D01*
X156617133Y-95127362D01*
X156386425Y-95570223D01*
X156246548Y-96049583D01*
X156202877Y-96547021D01*
X116842378Y-96547021D01*
X116847123Y-96492979D01*
X116792909Y-95996578D01*
X116642894Y-95520293D01*
X116432867Y-95127362D01*
X116076349Y-94923256D01*
X114479605Y-96520000D01*
X114120395Y-96520000D01*
X112523651Y-94923256D01*
X112445000Y-94968284D01*
X112445000Y-94665000D01*
X112748284Y-94665000D01*
X112703256Y-94743651D01*
G37*
G04 #@! TD.AperFunction*
G04 #@! TD*
M02*
