M48
; DRILL file {KiCad (5.1.10-1-10_14)} date Monday, June 28, 2021 at 03:59:54 PM
; FORMAT={-:-/ absolute / metric / decimal}
; #@! TF.CreationDate,2021-06-28T15:59:54-07:00
; #@! TF.GenerationSoftware,Kicad,Pcbnew,(5.1.10-1-10_14)
; #@! TF.FileFunction,Plated,1,2,PTH
FMAT,2
METRIC
T1C0.400
T2C0.750
T3C0.800
T4C1.000
T5C2.200
%
G90
G05
T1
X119.38Y-50.8
X119.38Y-61.976
X119.38Y-80.645
X123.952Y-72.136
X124.46Y-79.756
X125.476Y-50.292
X126.365Y-56.515
X126.492Y-66.548
X127.0Y-73.66
X127.508Y-65.024
X128.905Y-56.515
X129.54Y-80.01
X129.54Y-83.185
X132.588Y-72.136
X133.604Y-77.216
X133.604Y-82.296
X134.112Y-75.692
X134.117Y-79.253
X135.128Y-70.612
X136.144Y-63.5
X136.144Y-69.596
X136.144Y-71.628
X137.16Y-56.515
X137.16Y-59.69
X137.795Y-74.295
X138.176Y-65.024
X138.176Y-66.897
X138.43Y-80.645
X139.065Y-81.915
X139.192Y-58.928
X139.192Y-69.596
X139.192Y-76.708
X139.7Y-46.736
X139.7Y-54.864
X139.7Y-63.5
X139.7Y-67.347
X139.7Y-71.12
X140.208Y-84.836
X140.716Y-82.296
X141.732Y-73.152
X141.732Y-77.216
X142.24Y-61.976
X142.24Y-79.756
X142.24Y-81.28
X142.24Y-83.185
X143.256Y-72.136
X143.764Y-61.976
X144.78Y-67.564
X144.78Y-76.835
X145.796Y-72.136
X146.304Y-57.404
X146.304Y-67.564
X146.812Y-62.992
X146.812Y-71.628
X147.32Y-66.548
X147.32Y-77.216
X148.336Y-48.26
X149.352Y-72.644
X149.86Y-52.07
X149.86Y-62.484
X150.876Y-66.548
X151.765Y-58.42
X151.765Y-68.072
X151.765Y-74.295
X151.765Y-77.47
X151.765Y-80.645
X151.765Y-83.185
X151.892Y-65.532
X151.892Y-72.136
X155.956Y-73.152
X155.956Y-85.344
X156.21Y-66.04
X156.21Y-69.215
X156.845Y-59.69
X160.655Y-58.42
X160.655Y-63.5
X160.655Y-75.565
T2
X114.3Y-60.325
X115.57Y-59.055
X116.84Y-60.325
T3
X121.92Y-60.325
X124.42Y-60.325
T4
X114.3Y-53.34
X114.935Y-70.485
X116.84Y-53.34
X119.38Y-53.34
X119.935Y-70.485
X121.92Y-53.34
X129.54Y-53.34
X130.81Y-59.69
X130.81Y-62.23
X132.08Y-53.34
X133.35Y-59.69
X133.35Y-62.23
X134.62Y-53.34
X142.24Y-53.34
X144.78Y-53.34
X147.32Y-53.34
X154.305Y-53.34
X156.845Y-53.34
T5
X113.792Y-45.212
X113.792Y-85.852
X162.052Y-45.212
X162.052Y-85.852
T0
M30
