G04 #@! TF.GenerationSoftware,KiCad,Pcbnew,(5.1.10-1-10_14)*
G04 #@! TF.CreationDate,2021-06-28T15:59:20-07:00*
G04 #@! TF.ProjectId,qiroll PAS digital logic,7169726f-6c6c-4205-9041-532064696769,rev?*
G04 #@! TF.SameCoordinates,Original*
G04 #@! TF.FileFunction,Copper,L1,Top*
G04 #@! TF.FilePolarity,Positive*
%FSLAX46Y46*%
G04 Gerber Fmt 4.6, Leading zero omitted, Abs format (unit mm)*
G04 Created by KiCad (PCBNEW (5.1.10-1-10_14)) date 2021-06-28 15:59:20*
%MOMM*%
%LPD*%
G01*
G04 APERTURE LIST*
G04 #@! TA.AperFunction,ComponentPad*
%ADD10C,3.800000*%
G04 #@! TD*
G04 #@! TA.AperFunction,ComponentPad*
%ADD11O,1.700000X1.700000*%
G04 #@! TD*
G04 #@! TA.AperFunction,ComponentPad*
%ADD12R,1.700000X1.700000*%
G04 #@! TD*
G04 #@! TA.AperFunction,SMDPad,CuDef*
%ADD13R,0.700000X0.510000*%
G04 #@! TD*
G04 #@! TA.AperFunction,ComponentPad*
%ADD14R,1.300000X1.300000*%
G04 #@! TD*
G04 #@! TA.AperFunction,ComponentPad*
%ADD15C,1.300000*%
G04 #@! TD*
G04 #@! TA.AperFunction,ComponentPad*
%ADD16C,1.600000*%
G04 #@! TD*
G04 #@! TA.AperFunction,ComponentPad*
%ADD17R,1.600000X1.600000*%
G04 #@! TD*
G04 #@! TA.AperFunction,ComponentPad*
%ADD18C,2.000000*%
G04 #@! TD*
G04 #@! TA.AperFunction,ComponentPad*
%ADD19R,2.000000X2.000000*%
G04 #@! TD*
G04 #@! TA.AperFunction,ViaPad*
%ADD20C,0.800000*%
G04 #@! TD*
G04 #@! TA.AperFunction,Conductor*
%ADD21C,0.250000*%
G04 #@! TD*
G04 APERTURE END LIST*
D10*
G04 #@! TO.P,H4,1*
G04 #@! TO.N,GND*
X113792000Y-85852000D03*
G04 #@! TD*
G04 #@! TO.P,H3,1*
G04 #@! TO.N,GND*
X162052000Y-85852000D03*
G04 #@! TD*
G04 #@! TO.P,H2,1*
G04 #@! TO.N,GND*
X113792000Y-45212000D03*
G04 #@! TD*
G04 #@! TO.P,H1,1*
G04 #@! TO.N,GND*
X162052000Y-45212000D03*
G04 #@! TD*
D11*
G04 #@! TO.P,J5,4*
G04 #@! TO.N,Net-(J5-Pad4)*
X130810000Y-62230000D03*
G04 #@! TO.P,J5,3*
G04 #@! TO.N,Net-(J2-Pad4)*
X130810000Y-59690000D03*
G04 #@! TO.P,J5,2*
G04 #@! TO.N,Net-(J5-Pad2)*
X133350000Y-62230000D03*
D12*
G04 #@! TO.P,J5,1*
G04 #@! TO.N,Net-(J2-Pad4)*
X133350000Y-59690000D03*
G04 #@! TD*
G04 #@! TO.P,U1,16*
G04 #@! TO.N,VCC*
G04 #@! TA.AperFunction,SMDPad,CuDef*
G36*
G01*
X157710000Y-58570000D02*
X157710000Y-58270000D01*
G75*
G02*
X157860000Y-58120000I150000J0D01*
G01*
X159510000Y-58120000D01*
G75*
G02*
X159660000Y-58270000I0J-150000D01*
G01*
X159660000Y-58570000D01*
G75*
G02*
X159510000Y-58720000I-150000J0D01*
G01*
X157860000Y-58720000D01*
G75*
G02*
X157710000Y-58570000I0J150000D01*
G01*
G37*
G04 #@! TD.AperFunction*
G04 #@! TO.P,U1,15*
G04 #@! TO.N,GND*
G04 #@! TA.AperFunction,SMDPad,CuDef*
G36*
G01*
X157710000Y-59840000D02*
X157710000Y-59540000D01*
G75*
G02*
X157860000Y-59390000I150000J0D01*
G01*
X159510000Y-59390000D01*
G75*
G02*
X159660000Y-59540000I0J-150000D01*
G01*
X159660000Y-59840000D01*
G75*
G02*
X159510000Y-59990000I-150000J0D01*
G01*
X157860000Y-59990000D01*
G75*
G02*
X157710000Y-59840000I0J150000D01*
G01*
G37*
G04 #@! TD.AperFunction*
G04 #@! TO.P,U1,14*
G04 #@! TO.N,Net-(C2-Pad1)*
G04 #@! TA.AperFunction,SMDPad,CuDef*
G36*
G01*
X157710000Y-61110000D02*
X157710000Y-60810000D01*
G75*
G02*
X157860000Y-60660000I150000J0D01*
G01*
X159510000Y-60660000D01*
G75*
G02*
X159660000Y-60810000I0J-150000D01*
G01*
X159660000Y-61110000D01*
G75*
G02*
X159510000Y-61260000I-150000J0D01*
G01*
X157860000Y-61260000D01*
G75*
G02*
X157710000Y-61110000I0J150000D01*
G01*
G37*
G04 #@! TD.AperFunction*
G04 #@! TO.P,U1,13*
G04 #@! TO.N,VCC*
G04 #@! TA.AperFunction,SMDPad,CuDef*
G36*
G01*
X157710000Y-62380000D02*
X157710000Y-62080000D01*
G75*
G02*
X157860000Y-61930000I150000J0D01*
G01*
X159510000Y-61930000D01*
G75*
G02*
X159660000Y-62080000I0J-150000D01*
G01*
X159660000Y-62380000D01*
G75*
G02*
X159510000Y-62530000I-150000J0D01*
G01*
X157860000Y-62530000D01*
G75*
G02*
X157710000Y-62380000I0J150000D01*
G01*
G37*
G04 #@! TD.AperFunction*
G04 #@! TO.P,U1,12*
G04 #@! TO.N,GND*
G04 #@! TA.AperFunction,SMDPad,CuDef*
G36*
G01*
X157710000Y-63650000D02*
X157710000Y-63350000D01*
G75*
G02*
X157860000Y-63200000I150000J0D01*
G01*
X159510000Y-63200000D01*
G75*
G02*
X159660000Y-63350000I0J-150000D01*
G01*
X159660000Y-63650000D01*
G75*
G02*
X159510000Y-63800000I-150000J0D01*
G01*
X157860000Y-63800000D01*
G75*
G02*
X157710000Y-63650000I0J150000D01*
G01*
G37*
G04 #@! TD.AperFunction*
G04 #@! TO.P,U1,11*
G04 #@! TO.N,Net-(J3-Pad3)*
G04 #@! TA.AperFunction,SMDPad,CuDef*
G36*
G01*
X157710000Y-64920000D02*
X157710000Y-64620000D01*
G75*
G02*
X157860000Y-64470000I150000J0D01*
G01*
X159510000Y-64470000D01*
G75*
G02*
X159660000Y-64620000I0J-150000D01*
G01*
X159660000Y-64920000D01*
G75*
G02*
X159510000Y-65070000I-150000J0D01*
G01*
X157860000Y-65070000D01*
G75*
G02*
X157710000Y-64920000I0J150000D01*
G01*
G37*
G04 #@! TD.AperFunction*
G04 #@! TO.P,U1,10*
G04 #@! TO.N,Net-(U1-Pad10)*
G04 #@! TA.AperFunction,SMDPad,CuDef*
G36*
G01*
X157710000Y-66190000D02*
X157710000Y-65890000D01*
G75*
G02*
X157860000Y-65740000I150000J0D01*
G01*
X159510000Y-65740000D01*
G75*
G02*
X159660000Y-65890000I0J-150000D01*
G01*
X159660000Y-66190000D01*
G75*
G02*
X159510000Y-66340000I-150000J0D01*
G01*
X157860000Y-66340000D01*
G75*
G02*
X157710000Y-66190000I0J150000D01*
G01*
G37*
G04 #@! TD.AperFunction*
G04 #@! TO.P,U1,9*
G04 #@! TO.N,Net-(U1-Pad9)*
G04 #@! TA.AperFunction,SMDPad,CuDef*
G36*
G01*
X157710000Y-67460000D02*
X157710000Y-67160000D01*
G75*
G02*
X157860000Y-67010000I150000J0D01*
G01*
X159510000Y-67010000D01*
G75*
G02*
X159660000Y-67160000I0J-150000D01*
G01*
X159660000Y-67460000D01*
G75*
G02*
X159510000Y-67610000I-150000J0D01*
G01*
X157860000Y-67610000D01*
G75*
G02*
X157710000Y-67460000I0J150000D01*
G01*
G37*
G04 #@! TD.AperFunction*
G04 #@! TO.P,U1,8*
G04 #@! TO.N,GND*
G04 #@! TA.AperFunction,SMDPad,CuDef*
G36*
G01*
X152760000Y-67460000D02*
X152760000Y-67160000D01*
G75*
G02*
X152910000Y-67010000I150000J0D01*
G01*
X154560000Y-67010000D01*
G75*
G02*
X154710000Y-67160000I0J-150000D01*
G01*
X154710000Y-67460000D01*
G75*
G02*
X154560000Y-67610000I-150000J0D01*
G01*
X152910000Y-67610000D01*
G75*
G02*
X152760000Y-67460000I0J150000D01*
G01*
G37*
G04 #@! TD.AperFunction*
G04 #@! TO.P,U1,7*
G04 #@! TO.N,Net-(U1-Pad7)*
G04 #@! TA.AperFunction,SMDPad,CuDef*
G36*
G01*
X152760000Y-66190000D02*
X152760000Y-65890000D01*
G75*
G02*
X152910000Y-65740000I150000J0D01*
G01*
X154560000Y-65740000D01*
G75*
G02*
X154710000Y-65890000I0J-150000D01*
G01*
X154710000Y-66190000D01*
G75*
G02*
X154560000Y-66340000I-150000J0D01*
G01*
X152910000Y-66340000D01*
G75*
G02*
X152760000Y-66190000I0J150000D01*
G01*
G37*
G04 #@! TD.AperFunction*
G04 #@! TO.P,U1,6*
G04 #@! TO.N,Net-(U1-Pad6)*
G04 #@! TA.AperFunction,SMDPad,CuDef*
G36*
G01*
X152760000Y-64920000D02*
X152760000Y-64620000D01*
G75*
G02*
X152910000Y-64470000I150000J0D01*
G01*
X154560000Y-64470000D01*
G75*
G02*
X154710000Y-64620000I0J-150000D01*
G01*
X154710000Y-64920000D01*
G75*
G02*
X154560000Y-65070000I-150000J0D01*
G01*
X152910000Y-65070000D01*
G75*
G02*
X152760000Y-64920000I0J150000D01*
G01*
G37*
G04 #@! TD.AperFunction*
G04 #@! TO.P,U1,5*
G04 #@! TO.N,VCC*
G04 #@! TA.AperFunction,SMDPad,CuDef*
G36*
G01*
X152760000Y-63650000D02*
X152760000Y-63350000D01*
G75*
G02*
X152910000Y-63200000I150000J0D01*
G01*
X154560000Y-63200000D01*
G75*
G02*
X154710000Y-63350000I0J-150000D01*
G01*
X154710000Y-63650000D01*
G75*
G02*
X154560000Y-63800000I-150000J0D01*
G01*
X152910000Y-63800000D01*
G75*
G02*
X152760000Y-63650000I0J150000D01*
G01*
G37*
G04 #@! TD.AperFunction*
G04 #@! TO.P,U1,4*
G04 #@! TO.N,Net-(J3-Pad3)*
G04 #@! TA.AperFunction,SMDPad,CuDef*
G36*
G01*
X152760000Y-62380000D02*
X152760000Y-62080000D01*
G75*
G02*
X152910000Y-61930000I150000J0D01*
G01*
X154560000Y-61930000D01*
G75*
G02*
X154710000Y-62080000I0J-150000D01*
G01*
X154710000Y-62380000D01*
G75*
G02*
X154560000Y-62530000I-150000J0D01*
G01*
X152910000Y-62530000D01*
G75*
G02*
X152760000Y-62380000I0J150000D01*
G01*
G37*
G04 #@! TD.AperFunction*
G04 #@! TO.P,U1,3*
G04 #@! TO.N,VCC*
G04 #@! TA.AperFunction,SMDPad,CuDef*
G36*
G01*
X152760000Y-61110000D02*
X152760000Y-60810000D01*
G75*
G02*
X152910000Y-60660000I150000J0D01*
G01*
X154560000Y-60660000D01*
G75*
G02*
X154710000Y-60810000I0J-150000D01*
G01*
X154710000Y-61110000D01*
G75*
G02*
X154560000Y-61260000I-150000J0D01*
G01*
X152910000Y-61260000D01*
G75*
G02*
X152760000Y-61110000I0J150000D01*
G01*
G37*
G04 #@! TD.AperFunction*
G04 #@! TO.P,U1,2*
G04 #@! TO.N,Net-(C1-Pad1)*
G04 #@! TA.AperFunction,SMDPad,CuDef*
G36*
G01*
X152760000Y-59840000D02*
X152760000Y-59540000D01*
G75*
G02*
X152910000Y-59390000I150000J0D01*
G01*
X154560000Y-59390000D01*
G75*
G02*
X154710000Y-59540000I0J-150000D01*
G01*
X154710000Y-59840000D01*
G75*
G02*
X154560000Y-59990000I-150000J0D01*
G01*
X152910000Y-59990000D01*
G75*
G02*
X152760000Y-59840000I0J150000D01*
G01*
G37*
G04 #@! TD.AperFunction*
G04 #@! TO.P,U1,1*
G04 #@! TO.N,GND*
G04 #@! TA.AperFunction,SMDPad,CuDef*
G36*
G01*
X152760000Y-58570000D02*
X152760000Y-58270000D01*
G75*
G02*
X152910000Y-58120000I150000J0D01*
G01*
X154560000Y-58120000D01*
G75*
G02*
X154710000Y-58270000I0J-150000D01*
G01*
X154710000Y-58570000D01*
G75*
G02*
X154560000Y-58720000I-150000J0D01*
G01*
X152910000Y-58720000D01*
G75*
G02*
X152760000Y-58570000I0J150000D01*
G01*
G37*
G04 #@! TD.AperFunction*
G04 #@! TD*
G04 #@! TO.P,R10,2*
G04 #@! TO.N,Net-(J2-Pad2)*
G04 #@! TA.AperFunction,SMDPad,CuDef*
G36*
G01*
X119170000Y-56790000D02*
X119170000Y-56240000D01*
G75*
G02*
X119370000Y-56040000I200000J0D01*
G01*
X119770000Y-56040000D01*
G75*
G02*
X119970000Y-56240000I0J-200000D01*
G01*
X119970000Y-56790000D01*
G75*
G02*
X119770000Y-56990000I-200000J0D01*
G01*
X119370000Y-56990000D01*
G75*
G02*
X119170000Y-56790000I0J200000D01*
G01*
G37*
G04 #@! TD.AperFunction*
G04 #@! TO.P,R10,1*
G04 #@! TO.N,Net-(C6-Pad1)*
G04 #@! TA.AperFunction,SMDPad,CuDef*
G36*
G01*
X117520000Y-56790000D02*
X117520000Y-56240000D01*
G75*
G02*
X117720000Y-56040000I200000J0D01*
G01*
X118120000Y-56040000D01*
G75*
G02*
X118320000Y-56240000I0J-200000D01*
G01*
X118320000Y-56790000D01*
G75*
G02*
X118120000Y-56990000I-200000J0D01*
G01*
X117720000Y-56990000D01*
G75*
G02*
X117520000Y-56790000I0J200000D01*
G01*
G37*
G04 #@! TD.AperFunction*
G04 #@! TD*
D13*
G04 #@! TO.P,U8,5*
G04 #@! TO.N,VCC*
X123808000Y-69530000D03*
G04 #@! TO.P,U8,4*
G04 #@! TO.N,Net-(J1-Pad3)*
X123808000Y-67630000D03*
G04 #@! TO.P,U8,3*
G04 #@! TO.N,GND*
X126128000Y-67630000D03*
G04 #@! TO.P,U8,2*
G04 #@! TO.N,Net-(U6-Pad3)*
X126128000Y-68580000D03*
G04 #@! TO.P,U8,1*
G04 #@! TO.N,RGN_FLSH_2*
X126128000Y-69530000D03*
G04 #@! TD*
G04 #@! TO.P,U7,14*
G04 #@! TO.N,VCC*
G04 #@! TA.AperFunction,SMDPad,CuDef*
G36*
G01*
X122960000Y-83035000D02*
X122960000Y-83335000D01*
G75*
G02*
X122810000Y-83485000I-150000J0D01*
G01*
X121160000Y-83485000D01*
G75*
G02*
X121010000Y-83335000I0J150000D01*
G01*
X121010000Y-83035000D01*
G75*
G02*
X121160000Y-82885000I150000J0D01*
G01*
X122810000Y-82885000D01*
G75*
G02*
X122960000Y-83035000I0J-150000D01*
G01*
G37*
G04 #@! TD.AperFunction*
G04 #@! TO.P,U7,13*
G04 #@! TO.N,Net-(U7-Pad13)*
G04 #@! TA.AperFunction,SMDPad,CuDef*
G36*
G01*
X122960000Y-81765000D02*
X122960000Y-82065000D01*
G75*
G02*
X122810000Y-82215000I-150000J0D01*
G01*
X121160000Y-82215000D01*
G75*
G02*
X121010000Y-82065000I0J150000D01*
G01*
X121010000Y-81765000D01*
G75*
G02*
X121160000Y-81615000I150000J0D01*
G01*
X122810000Y-81615000D01*
G75*
G02*
X122960000Y-81765000I0J-150000D01*
G01*
G37*
G04 #@! TD.AperFunction*
G04 #@! TO.P,U7,12*
G04 #@! TO.N,GND*
G04 #@! TA.AperFunction,SMDPad,CuDef*
G36*
G01*
X122960000Y-80495000D02*
X122960000Y-80795000D01*
G75*
G02*
X122810000Y-80945000I-150000J0D01*
G01*
X121160000Y-80945000D01*
G75*
G02*
X121010000Y-80795000I0J150000D01*
G01*
X121010000Y-80495000D01*
G75*
G02*
X121160000Y-80345000I150000J0D01*
G01*
X122810000Y-80345000D01*
G75*
G02*
X122960000Y-80495000I0J-150000D01*
G01*
G37*
G04 #@! TD.AperFunction*
G04 #@! TO.P,U7,11*
G04 #@! TO.N,RGN_FLSH*
G04 #@! TA.AperFunction,SMDPad,CuDef*
G36*
G01*
X122960000Y-79225000D02*
X122960000Y-79525000D01*
G75*
G02*
X122810000Y-79675000I-150000J0D01*
G01*
X121160000Y-79675000D01*
G75*
G02*
X121010000Y-79525000I0J150000D01*
G01*
X121010000Y-79225000D01*
G75*
G02*
X121160000Y-79075000I150000J0D01*
G01*
X122810000Y-79075000D01*
G75*
G02*
X122960000Y-79225000I0J-150000D01*
G01*
G37*
G04 #@! TD.AperFunction*
G04 #@! TO.P,U7,10*
G04 #@! TO.N,Net-(U6-Pad13)*
G04 #@! TA.AperFunction,SMDPad,CuDef*
G36*
G01*
X122960000Y-77955000D02*
X122960000Y-78255000D01*
G75*
G02*
X122810000Y-78405000I-150000J0D01*
G01*
X121160000Y-78405000D01*
G75*
G02*
X121010000Y-78255000I0J150000D01*
G01*
X121010000Y-77955000D01*
G75*
G02*
X121160000Y-77805000I150000J0D01*
G01*
X122810000Y-77805000D01*
G75*
G02*
X122960000Y-77955000I0J-150000D01*
G01*
G37*
G04 #@! TD.AperFunction*
G04 #@! TO.P,U7,9*
G04 #@! TO.N,GND*
G04 #@! TA.AperFunction,SMDPad,CuDef*
G36*
G01*
X122960000Y-76685000D02*
X122960000Y-76985000D01*
G75*
G02*
X122810000Y-77135000I-150000J0D01*
G01*
X121160000Y-77135000D01*
G75*
G02*
X121010000Y-76985000I0J150000D01*
G01*
X121010000Y-76685000D01*
G75*
G02*
X121160000Y-76535000I150000J0D01*
G01*
X122810000Y-76535000D01*
G75*
G02*
X122960000Y-76685000I0J-150000D01*
G01*
G37*
G04 #@! TD.AperFunction*
G04 #@! TO.P,U7,8*
G04 #@! TA.AperFunction,SMDPad,CuDef*
G36*
G01*
X122960000Y-75415000D02*
X122960000Y-75715000D01*
G75*
G02*
X122810000Y-75865000I-150000J0D01*
G01*
X121160000Y-75865000D01*
G75*
G02*
X121010000Y-75715000I0J150000D01*
G01*
X121010000Y-75415000D01*
G75*
G02*
X121160000Y-75265000I150000J0D01*
G01*
X122810000Y-75265000D01*
G75*
G02*
X122960000Y-75415000I0J-150000D01*
G01*
G37*
G04 #@! TD.AperFunction*
G04 #@! TO.P,U7,7*
G04 #@! TA.AperFunction,SMDPad,CuDef*
G36*
G01*
X127910000Y-75415000D02*
X127910000Y-75715000D01*
G75*
G02*
X127760000Y-75865000I-150000J0D01*
G01*
X126110000Y-75865000D01*
G75*
G02*
X125960000Y-75715000I0J150000D01*
G01*
X125960000Y-75415000D01*
G75*
G02*
X126110000Y-75265000I150000J0D01*
G01*
X127760000Y-75265000D01*
G75*
G02*
X127910000Y-75415000I0J-150000D01*
G01*
G37*
G04 #@! TD.AperFunction*
G04 #@! TO.P,U7,6*
G04 #@! TO.N,VCC*
G04 #@! TA.AperFunction,SMDPad,CuDef*
G36*
G01*
X127910000Y-76685000D02*
X127910000Y-76985000D01*
G75*
G02*
X127760000Y-77135000I-150000J0D01*
G01*
X126110000Y-77135000D01*
G75*
G02*
X125960000Y-76985000I0J150000D01*
G01*
X125960000Y-76685000D01*
G75*
G02*
X126110000Y-76535000I150000J0D01*
G01*
X127760000Y-76535000D01*
G75*
G02*
X127910000Y-76685000I0J-150000D01*
G01*
G37*
G04 #@! TD.AperFunction*
G04 #@! TO.P,U7,5*
G04 #@! TO.N,Net-(U3-Pad15)*
G04 #@! TA.AperFunction,SMDPad,CuDef*
G36*
G01*
X127910000Y-77955000D02*
X127910000Y-78255000D01*
G75*
G02*
X127760000Y-78405000I-150000J0D01*
G01*
X126110000Y-78405000D01*
G75*
G02*
X125960000Y-78255000I0J150000D01*
G01*
X125960000Y-77955000D01*
G75*
G02*
X126110000Y-77805000I150000J0D01*
G01*
X127760000Y-77805000D01*
G75*
G02*
X127910000Y-77955000I0J-150000D01*
G01*
G37*
G04 #@! TD.AperFunction*
G04 #@! TO.P,U7,4*
G04 #@! TO.N,VCC*
G04 #@! TA.AperFunction,SMDPad,CuDef*
G36*
G01*
X127910000Y-79225000D02*
X127910000Y-79525000D01*
G75*
G02*
X127760000Y-79675000I-150000J0D01*
G01*
X126110000Y-79675000D01*
G75*
G02*
X125960000Y-79525000I0J150000D01*
G01*
X125960000Y-79225000D01*
G75*
G02*
X126110000Y-79075000I150000J0D01*
G01*
X127760000Y-79075000D01*
G75*
G02*
X127910000Y-79225000I0J-150000D01*
G01*
G37*
G04 #@! TD.AperFunction*
G04 #@! TO.P,U7,3*
G04 #@! TO.N,Net-(C10-Pad2)*
G04 #@! TA.AperFunction,SMDPad,CuDef*
G36*
G01*
X127910000Y-80495000D02*
X127910000Y-80795000D01*
G75*
G02*
X127760000Y-80945000I-150000J0D01*
G01*
X126110000Y-80945000D01*
G75*
G02*
X125960000Y-80795000I0J150000D01*
G01*
X125960000Y-80495000D01*
G75*
G02*
X126110000Y-80345000I150000J0D01*
G01*
X127760000Y-80345000D01*
G75*
G02*
X127910000Y-80495000I0J-150000D01*
G01*
G37*
G04 #@! TD.AperFunction*
G04 #@! TO.P,U7,2*
G04 #@! TO.N,Net-(R8-Pad2)*
G04 #@! TA.AperFunction,SMDPad,CuDef*
G36*
G01*
X127910000Y-81765000D02*
X127910000Y-82065000D01*
G75*
G02*
X127760000Y-82215000I-150000J0D01*
G01*
X126110000Y-82215000D01*
G75*
G02*
X125960000Y-82065000I0J150000D01*
G01*
X125960000Y-81765000D01*
G75*
G02*
X126110000Y-81615000I150000J0D01*
G01*
X127760000Y-81615000D01*
G75*
G02*
X127910000Y-81765000I0J-150000D01*
G01*
G37*
G04 #@! TD.AperFunction*
G04 #@! TO.P,U7,1*
G04 #@! TO.N,Net-(C10-Pad1)*
G04 #@! TA.AperFunction,SMDPad,CuDef*
G36*
G01*
X127910000Y-83035000D02*
X127910000Y-83335000D01*
G75*
G02*
X127760000Y-83485000I-150000J0D01*
G01*
X126110000Y-83485000D01*
G75*
G02*
X125960000Y-83335000I0J150000D01*
G01*
X125960000Y-83035000D01*
G75*
G02*
X126110000Y-82885000I150000J0D01*
G01*
X127760000Y-82885000D01*
G75*
G02*
X127910000Y-83035000I0J-150000D01*
G01*
G37*
G04 #@! TD.AperFunction*
G04 #@! TD*
G04 #@! TO.P,U6,14*
G04 #@! TO.N,VCC*
G04 #@! TA.AperFunction,SMDPad,CuDef*
G36*
G01*
X148440000Y-63730000D02*
X148740000Y-63730000D01*
G75*
G02*
X148890000Y-63880000I0J-150000D01*
G01*
X148890000Y-65530000D01*
G75*
G02*
X148740000Y-65680000I-150000J0D01*
G01*
X148440000Y-65680000D01*
G75*
G02*
X148290000Y-65530000I0J150000D01*
G01*
X148290000Y-63880000D01*
G75*
G02*
X148440000Y-63730000I150000J0D01*
G01*
G37*
G04 #@! TD.AperFunction*
G04 #@! TO.P,U6,13*
G04 #@! TO.N,Net-(U6-Pad13)*
G04 #@! TA.AperFunction,SMDPad,CuDef*
G36*
G01*
X147170000Y-63730000D02*
X147470000Y-63730000D01*
G75*
G02*
X147620000Y-63880000I0J-150000D01*
G01*
X147620000Y-65530000D01*
G75*
G02*
X147470000Y-65680000I-150000J0D01*
G01*
X147170000Y-65680000D01*
G75*
G02*
X147020000Y-65530000I0J150000D01*
G01*
X147020000Y-63880000D01*
G75*
G02*
X147170000Y-63730000I150000J0D01*
G01*
G37*
G04 #@! TD.AperFunction*
G04 #@! TO.P,U6,12*
G04 #@! TO.N,PAS_OFF*
G04 #@! TA.AperFunction,SMDPad,CuDef*
G36*
G01*
X145900000Y-63730000D02*
X146200000Y-63730000D01*
G75*
G02*
X146350000Y-63880000I0J-150000D01*
G01*
X146350000Y-65530000D01*
G75*
G02*
X146200000Y-65680000I-150000J0D01*
G01*
X145900000Y-65680000D01*
G75*
G02*
X145750000Y-65530000I0J150000D01*
G01*
X145750000Y-63880000D01*
G75*
G02*
X145900000Y-63730000I150000J0D01*
G01*
G37*
G04 #@! TD.AperFunction*
G04 #@! TO.P,U6,11*
G04 #@! TO.N,RGN_FLSH_2*
G04 #@! TA.AperFunction,SMDPad,CuDef*
G36*
G01*
X144630000Y-63730000D02*
X144930000Y-63730000D01*
G75*
G02*
X145080000Y-63880000I0J-150000D01*
G01*
X145080000Y-65530000D01*
G75*
G02*
X144930000Y-65680000I-150000J0D01*
G01*
X144630000Y-65680000D01*
G75*
G02*
X144480000Y-65530000I0J150000D01*
G01*
X144480000Y-63880000D01*
G75*
G02*
X144630000Y-63730000I150000J0D01*
G01*
G37*
G04 #@! TD.AperFunction*
G04 #@! TO.P,U6,10*
G04 #@! TO.N,PEDAL*
G04 #@! TA.AperFunction,SMDPad,CuDef*
G36*
G01*
X143360000Y-63730000D02*
X143660000Y-63730000D01*
G75*
G02*
X143810000Y-63880000I0J-150000D01*
G01*
X143810000Y-65530000D01*
G75*
G02*
X143660000Y-65680000I-150000J0D01*
G01*
X143360000Y-65680000D01*
G75*
G02*
X143210000Y-65530000I0J150000D01*
G01*
X143210000Y-63880000D01*
G75*
G02*
X143360000Y-63730000I150000J0D01*
G01*
G37*
G04 #@! TD.AperFunction*
G04 #@! TO.P,U6,9*
G04 #@! TO.N,Net-(U1-Pad10)*
G04 #@! TA.AperFunction,SMDPad,CuDef*
G36*
G01*
X142090000Y-63730000D02*
X142390000Y-63730000D01*
G75*
G02*
X142540000Y-63880000I0J-150000D01*
G01*
X142540000Y-65530000D01*
G75*
G02*
X142390000Y-65680000I-150000J0D01*
G01*
X142090000Y-65680000D01*
G75*
G02*
X141940000Y-65530000I0J150000D01*
G01*
X141940000Y-63880000D01*
G75*
G02*
X142090000Y-63730000I150000J0D01*
G01*
G37*
G04 #@! TD.AperFunction*
G04 #@! TO.P,U6,8*
G04 #@! TO.N,Net-(U1-Pad6)*
G04 #@! TA.AperFunction,SMDPad,CuDef*
G36*
G01*
X140820000Y-63730000D02*
X141120000Y-63730000D01*
G75*
G02*
X141270000Y-63880000I0J-150000D01*
G01*
X141270000Y-65530000D01*
G75*
G02*
X141120000Y-65680000I-150000J0D01*
G01*
X140820000Y-65680000D01*
G75*
G02*
X140670000Y-65530000I0J150000D01*
G01*
X140670000Y-63880000D01*
G75*
G02*
X140820000Y-63730000I150000J0D01*
G01*
G37*
G04 #@! TD.AperFunction*
G04 #@! TO.P,U6,7*
G04 #@! TO.N,GND*
G04 #@! TA.AperFunction,SMDPad,CuDef*
G36*
G01*
X140820000Y-58780000D02*
X141120000Y-58780000D01*
G75*
G02*
X141270000Y-58930000I0J-150000D01*
G01*
X141270000Y-60580000D01*
G75*
G02*
X141120000Y-60730000I-150000J0D01*
G01*
X140820000Y-60730000D01*
G75*
G02*
X140670000Y-60580000I0J150000D01*
G01*
X140670000Y-58930000D01*
G75*
G02*
X140820000Y-58780000I150000J0D01*
G01*
G37*
G04 #@! TD.AperFunction*
G04 #@! TO.P,U6,6*
G04 #@! TO.N,Net-(U2-Pad1)*
G04 #@! TA.AperFunction,SMDPad,CuDef*
G36*
G01*
X142090000Y-58780000D02*
X142390000Y-58780000D01*
G75*
G02*
X142540000Y-58930000I0J-150000D01*
G01*
X142540000Y-60580000D01*
G75*
G02*
X142390000Y-60730000I-150000J0D01*
G01*
X142090000Y-60730000D01*
G75*
G02*
X141940000Y-60580000I0J150000D01*
G01*
X141940000Y-58930000D01*
G75*
G02*
X142090000Y-58780000I150000J0D01*
G01*
G37*
G04 #@! TD.AperFunction*
G04 #@! TO.P,U6,5*
G04 #@! TO.N,Net-(C11-Pad2)*
G04 #@! TA.AperFunction,SMDPad,CuDef*
G36*
G01*
X143360000Y-58780000D02*
X143660000Y-58780000D01*
G75*
G02*
X143810000Y-58930000I0J-150000D01*
G01*
X143810000Y-60580000D01*
G75*
G02*
X143660000Y-60730000I-150000J0D01*
G01*
X143360000Y-60730000D01*
G75*
G02*
X143210000Y-60580000I0J150000D01*
G01*
X143210000Y-58930000D01*
G75*
G02*
X143360000Y-58780000I150000J0D01*
G01*
G37*
G04 #@! TD.AperFunction*
G04 #@! TO.P,U6,4*
G04 #@! TO.N,Net-(J2-Pad3)*
G04 #@! TA.AperFunction,SMDPad,CuDef*
G36*
G01*
X144630000Y-58780000D02*
X144930000Y-58780000D01*
G75*
G02*
X145080000Y-58930000I0J-150000D01*
G01*
X145080000Y-60580000D01*
G75*
G02*
X144930000Y-60730000I-150000J0D01*
G01*
X144630000Y-60730000D01*
G75*
G02*
X144480000Y-60580000I0J150000D01*
G01*
X144480000Y-58930000D01*
G75*
G02*
X144630000Y-58780000I150000J0D01*
G01*
G37*
G04 #@! TD.AperFunction*
G04 #@! TO.P,U6,3*
G04 #@! TO.N,Net-(U6-Pad3)*
G04 #@! TA.AperFunction,SMDPad,CuDef*
G36*
G01*
X145900000Y-58780000D02*
X146200000Y-58780000D01*
G75*
G02*
X146350000Y-58930000I0J-150000D01*
G01*
X146350000Y-60580000D01*
G75*
G02*
X146200000Y-60730000I-150000J0D01*
G01*
X145900000Y-60730000D01*
G75*
G02*
X145750000Y-60580000I0J150000D01*
G01*
X145750000Y-58930000D01*
G75*
G02*
X145900000Y-58780000I150000J0D01*
G01*
G37*
G04 #@! TD.AperFunction*
G04 #@! TO.P,U6,2*
G04 #@! TO.N,RGN_FLSH*
G04 #@! TA.AperFunction,SMDPad,CuDef*
G36*
G01*
X147170000Y-58780000D02*
X147470000Y-58780000D01*
G75*
G02*
X147620000Y-58930000I0J-150000D01*
G01*
X147620000Y-60580000D01*
G75*
G02*
X147470000Y-60730000I-150000J0D01*
G01*
X147170000Y-60730000D01*
G75*
G02*
X147020000Y-60580000I0J150000D01*
G01*
X147020000Y-58930000D01*
G75*
G02*
X147170000Y-58780000I150000J0D01*
G01*
G37*
G04 #@! TD.AperFunction*
G04 #@! TO.P,U6,1*
G04 #@! TO.N,PAS_ON*
G04 #@! TA.AperFunction,SMDPad,CuDef*
G36*
G01*
X148440000Y-58780000D02*
X148740000Y-58780000D01*
G75*
G02*
X148890000Y-58930000I0J-150000D01*
G01*
X148890000Y-60580000D01*
G75*
G02*
X148740000Y-60730000I-150000J0D01*
G01*
X148440000Y-60730000D01*
G75*
G02*
X148290000Y-60580000I0J150000D01*
G01*
X148290000Y-58930000D01*
G75*
G02*
X148440000Y-58780000I150000J0D01*
G01*
G37*
G04 #@! TD.AperFunction*
G04 #@! TD*
D14*
G04 #@! TO.P,U5,1*
G04 #@! TO.N,Net-(C6-Pad1)*
X114300000Y-60325000D03*
D15*
G04 #@! TO.P,U5,3*
G04 #@! TO.N,VCC*
X116840000Y-60325000D03*
G04 #@! TO.P,U5,2*
G04 #@! TO.N,GND*
X115570000Y-59055000D03*
G04 #@! TD*
G04 #@! TO.P,U4,16*
G04 #@! TO.N,VCC*
G04 #@! TA.AperFunction,SMDPad,CuDef*
G36*
G01*
X157710000Y-74445000D02*
X157710000Y-74145000D01*
G75*
G02*
X157860000Y-73995000I150000J0D01*
G01*
X159510000Y-73995000D01*
G75*
G02*
X159660000Y-74145000I0J-150000D01*
G01*
X159660000Y-74445000D01*
G75*
G02*
X159510000Y-74595000I-150000J0D01*
G01*
X157860000Y-74595000D01*
G75*
G02*
X157710000Y-74445000I0J150000D01*
G01*
G37*
G04 #@! TD.AperFunction*
G04 #@! TO.P,U4,15*
G04 #@! TO.N,GND*
G04 #@! TA.AperFunction,SMDPad,CuDef*
G36*
G01*
X157710000Y-75715000D02*
X157710000Y-75415000D01*
G75*
G02*
X157860000Y-75265000I150000J0D01*
G01*
X159510000Y-75265000D01*
G75*
G02*
X159660000Y-75415000I0J-150000D01*
G01*
X159660000Y-75715000D01*
G75*
G02*
X159510000Y-75865000I-150000J0D01*
G01*
X157860000Y-75865000D01*
G75*
G02*
X157710000Y-75715000I0J150000D01*
G01*
G37*
G04 #@! TD.AperFunction*
G04 #@! TO.P,U4,14*
G04 #@! TO.N,Net-(C4-Pad1)*
G04 #@! TA.AperFunction,SMDPad,CuDef*
G36*
G01*
X157710000Y-76985000D02*
X157710000Y-76685000D01*
G75*
G02*
X157860000Y-76535000I150000J0D01*
G01*
X159510000Y-76535000D01*
G75*
G02*
X159660000Y-76685000I0J-150000D01*
G01*
X159660000Y-76985000D01*
G75*
G02*
X159510000Y-77135000I-150000J0D01*
G01*
X157860000Y-77135000D01*
G75*
G02*
X157710000Y-76985000I0J150000D01*
G01*
G37*
G04 #@! TD.AperFunction*
G04 #@! TO.P,U4,13*
G04 #@! TO.N,VCC*
G04 #@! TA.AperFunction,SMDPad,CuDef*
G36*
G01*
X157710000Y-78255000D02*
X157710000Y-77955000D01*
G75*
G02*
X157860000Y-77805000I150000J0D01*
G01*
X159510000Y-77805000D01*
G75*
G02*
X159660000Y-77955000I0J-150000D01*
G01*
X159660000Y-78255000D01*
G75*
G02*
X159510000Y-78405000I-150000J0D01*
G01*
X157860000Y-78405000D01*
G75*
G02*
X157710000Y-78255000I0J150000D01*
G01*
G37*
G04 #@! TD.AperFunction*
G04 #@! TO.P,U4,12*
G04 #@! TO.N,Net-(U4-Pad12)*
G04 #@! TA.AperFunction,SMDPad,CuDef*
G36*
G01*
X157710000Y-79525000D02*
X157710000Y-79225000D01*
G75*
G02*
X157860000Y-79075000I150000J0D01*
G01*
X159510000Y-79075000D01*
G75*
G02*
X159660000Y-79225000I0J-150000D01*
G01*
X159660000Y-79525000D01*
G75*
G02*
X159510000Y-79675000I-150000J0D01*
G01*
X157860000Y-79675000D01*
G75*
G02*
X157710000Y-79525000I0J150000D01*
G01*
G37*
G04 #@! TD.AperFunction*
G04 #@! TO.P,U4,11*
G04 #@! TO.N,VCC*
G04 #@! TA.AperFunction,SMDPad,CuDef*
G36*
G01*
X157710000Y-80795000D02*
X157710000Y-80495000D01*
G75*
G02*
X157860000Y-80345000I150000J0D01*
G01*
X159510000Y-80345000D01*
G75*
G02*
X159660000Y-80495000I0J-150000D01*
G01*
X159660000Y-80795000D01*
G75*
G02*
X159510000Y-80945000I-150000J0D01*
G01*
X157860000Y-80945000D01*
G75*
G02*
X157710000Y-80795000I0J150000D01*
G01*
G37*
G04 #@! TD.AperFunction*
G04 #@! TO.P,U4,10*
G04 #@! TO.N,Net-(U2-Pad5)*
G04 #@! TA.AperFunction,SMDPad,CuDef*
G36*
G01*
X157710000Y-82065000D02*
X157710000Y-81765000D01*
G75*
G02*
X157860000Y-81615000I150000J0D01*
G01*
X159510000Y-81615000D01*
G75*
G02*
X159660000Y-81765000I0J-150000D01*
G01*
X159660000Y-82065000D01*
G75*
G02*
X159510000Y-82215000I-150000J0D01*
G01*
X157860000Y-82215000D01*
G75*
G02*
X157710000Y-82065000I0J150000D01*
G01*
G37*
G04 #@! TD.AperFunction*
G04 #@! TO.P,U4,9*
G04 #@! TO.N,Net-(U4-Pad9)*
G04 #@! TA.AperFunction,SMDPad,CuDef*
G36*
G01*
X157710000Y-83335000D02*
X157710000Y-83035000D01*
G75*
G02*
X157860000Y-82885000I150000J0D01*
G01*
X159510000Y-82885000D01*
G75*
G02*
X159660000Y-83035000I0J-150000D01*
G01*
X159660000Y-83335000D01*
G75*
G02*
X159510000Y-83485000I-150000J0D01*
G01*
X157860000Y-83485000D01*
G75*
G02*
X157710000Y-83335000I0J150000D01*
G01*
G37*
G04 #@! TD.AperFunction*
G04 #@! TO.P,U4,8*
G04 #@! TO.N,GND*
G04 #@! TA.AperFunction,SMDPad,CuDef*
G36*
G01*
X152760000Y-83335000D02*
X152760000Y-83035000D01*
G75*
G02*
X152910000Y-82885000I150000J0D01*
G01*
X154560000Y-82885000D01*
G75*
G02*
X154710000Y-83035000I0J-150000D01*
G01*
X154710000Y-83335000D01*
G75*
G02*
X154560000Y-83485000I-150000J0D01*
G01*
X152910000Y-83485000D01*
G75*
G02*
X152760000Y-83335000I0J150000D01*
G01*
G37*
G04 #@! TD.AperFunction*
G04 #@! TO.P,U4,7*
G04 #@! TO.N,Net-(U4-Pad12)*
G04 #@! TA.AperFunction,SMDPad,CuDef*
G36*
G01*
X152760000Y-82065000D02*
X152760000Y-81765000D01*
G75*
G02*
X152910000Y-81615000I150000J0D01*
G01*
X154560000Y-81615000D01*
G75*
G02*
X154710000Y-81765000I0J-150000D01*
G01*
X154710000Y-82065000D01*
G75*
G02*
X154560000Y-82215000I-150000J0D01*
G01*
X152910000Y-82215000D01*
G75*
G02*
X152760000Y-82065000I0J150000D01*
G01*
G37*
G04 #@! TD.AperFunction*
G04 #@! TO.P,U4,6*
G04 #@! TO.N,Net-(U2-Pad3)*
G04 #@! TA.AperFunction,SMDPad,CuDef*
G36*
G01*
X152760000Y-80795000D02*
X152760000Y-80495000D01*
G75*
G02*
X152910000Y-80345000I150000J0D01*
G01*
X154560000Y-80345000D01*
G75*
G02*
X154710000Y-80495000I0J-150000D01*
G01*
X154710000Y-80795000D01*
G75*
G02*
X154560000Y-80945000I-150000J0D01*
G01*
X152910000Y-80945000D01*
G75*
G02*
X152760000Y-80795000I0J150000D01*
G01*
G37*
G04 #@! TD.AperFunction*
G04 #@! TO.P,U4,5*
G04 #@! TO.N,Net-(C5-Pad2)*
G04 #@! TA.AperFunction,SMDPad,CuDef*
G36*
G01*
X152760000Y-79525000D02*
X152760000Y-79225000D01*
G75*
G02*
X152910000Y-79075000I150000J0D01*
G01*
X154560000Y-79075000D01*
G75*
G02*
X154710000Y-79225000I0J-150000D01*
G01*
X154710000Y-79525000D01*
G75*
G02*
X154560000Y-79675000I-150000J0D01*
G01*
X152910000Y-79675000D01*
G75*
G02*
X152760000Y-79525000I0J150000D01*
G01*
G37*
G04 #@! TD.AperFunction*
G04 #@! TO.P,U4,4*
G04 #@! TO.N,GND*
G04 #@! TA.AperFunction,SMDPad,CuDef*
G36*
G01*
X152760000Y-78255000D02*
X152760000Y-77955000D01*
G75*
G02*
X152910000Y-77805000I150000J0D01*
G01*
X154560000Y-77805000D01*
G75*
G02*
X154710000Y-77955000I0J-150000D01*
G01*
X154710000Y-78255000D01*
G75*
G02*
X154560000Y-78405000I-150000J0D01*
G01*
X152910000Y-78405000D01*
G75*
G02*
X152760000Y-78255000I0J150000D01*
G01*
G37*
G04 #@! TD.AperFunction*
G04 #@! TO.P,U4,3*
G04 #@! TO.N,VCC*
G04 #@! TA.AperFunction,SMDPad,CuDef*
G36*
G01*
X152760000Y-76985000D02*
X152760000Y-76685000D01*
G75*
G02*
X152910000Y-76535000I150000J0D01*
G01*
X154560000Y-76535000D01*
G75*
G02*
X154710000Y-76685000I0J-150000D01*
G01*
X154710000Y-76985000D01*
G75*
G02*
X154560000Y-77135000I-150000J0D01*
G01*
X152910000Y-77135000D01*
G75*
G02*
X152760000Y-76985000I0J150000D01*
G01*
G37*
G04 #@! TD.AperFunction*
G04 #@! TO.P,U4,2*
G04 #@! TO.N,Net-(C3-Pad1)*
G04 #@! TA.AperFunction,SMDPad,CuDef*
G36*
G01*
X152760000Y-75715000D02*
X152760000Y-75415000D01*
G75*
G02*
X152910000Y-75265000I150000J0D01*
G01*
X154560000Y-75265000D01*
G75*
G02*
X154710000Y-75415000I0J-150000D01*
G01*
X154710000Y-75715000D01*
G75*
G02*
X154560000Y-75865000I-150000J0D01*
G01*
X152910000Y-75865000D01*
G75*
G02*
X152760000Y-75715000I0J150000D01*
G01*
G37*
G04 #@! TD.AperFunction*
G04 #@! TO.P,U4,1*
G04 #@! TO.N,GND*
G04 #@! TA.AperFunction,SMDPad,CuDef*
G36*
G01*
X152760000Y-74445000D02*
X152760000Y-74145000D01*
G75*
G02*
X152910000Y-73995000I150000J0D01*
G01*
X154560000Y-73995000D01*
G75*
G02*
X154710000Y-74145000I0J-150000D01*
G01*
X154710000Y-74445000D01*
G75*
G02*
X154560000Y-74595000I-150000J0D01*
G01*
X152910000Y-74595000D01*
G75*
G02*
X152760000Y-74445000I0J150000D01*
G01*
G37*
G04 #@! TD.AperFunction*
G04 #@! TD*
G04 #@! TO.P,U3,16*
G04 #@! TO.N,VCC*
G04 #@! TA.AperFunction,SMDPad,CuDef*
G36*
G01*
X141120000Y-70890000D02*
X140820000Y-70890000D01*
G75*
G02*
X140670000Y-70740000I0J150000D01*
G01*
X140670000Y-69090000D01*
G75*
G02*
X140820000Y-68940000I150000J0D01*
G01*
X141120000Y-68940000D01*
G75*
G02*
X141270000Y-69090000I0J-150000D01*
G01*
X141270000Y-70740000D01*
G75*
G02*
X141120000Y-70890000I-150000J0D01*
G01*
G37*
G04 #@! TD.AperFunction*
G04 #@! TO.P,U3,15*
G04 #@! TO.N,Net-(U3-Pad15)*
G04 #@! TA.AperFunction,SMDPad,CuDef*
G36*
G01*
X142390000Y-70890000D02*
X142090000Y-70890000D01*
G75*
G02*
X141940000Y-70740000I0J150000D01*
G01*
X141940000Y-69090000D01*
G75*
G02*
X142090000Y-68940000I150000J0D01*
G01*
X142390000Y-68940000D01*
G75*
G02*
X142540000Y-69090000I0J-150000D01*
G01*
X142540000Y-70740000D01*
G75*
G02*
X142390000Y-70890000I-150000J0D01*
G01*
G37*
G04 #@! TD.AperFunction*
G04 #@! TO.P,U3,14*
G04 #@! TO.N,Net-(J5-Pad4)*
G04 #@! TA.AperFunction,SMDPad,CuDef*
G36*
G01*
X143660000Y-70890000D02*
X143360000Y-70890000D01*
G75*
G02*
X143210000Y-70740000I0J150000D01*
G01*
X143210000Y-69090000D01*
G75*
G02*
X143360000Y-68940000I150000J0D01*
G01*
X143660000Y-68940000D01*
G75*
G02*
X143810000Y-69090000I0J-150000D01*
G01*
X143810000Y-70740000D01*
G75*
G02*
X143660000Y-70890000I-150000J0D01*
G01*
G37*
G04 #@! TD.AperFunction*
G04 #@! TO.P,U3,13*
G04 #@! TO.N,Net-(J5-Pad2)*
G04 #@! TA.AperFunction,SMDPad,CuDef*
G36*
G01*
X144930000Y-70890000D02*
X144630000Y-70890000D01*
G75*
G02*
X144480000Y-70740000I0J150000D01*
G01*
X144480000Y-69090000D01*
G75*
G02*
X144630000Y-68940000I150000J0D01*
G01*
X144930000Y-68940000D01*
G75*
G02*
X145080000Y-69090000I0J-150000D01*
G01*
X145080000Y-70740000D01*
G75*
G02*
X144930000Y-70890000I-150000J0D01*
G01*
G37*
G04 #@! TD.AperFunction*
G04 #@! TO.P,U3,12*
G04 #@! TO.N,PEDAL*
G04 #@! TA.AperFunction,SMDPad,CuDef*
G36*
G01*
X146200000Y-70890000D02*
X145900000Y-70890000D01*
G75*
G02*
X145750000Y-70740000I0J150000D01*
G01*
X145750000Y-69090000D01*
G75*
G02*
X145900000Y-68940000I150000J0D01*
G01*
X146200000Y-68940000D01*
G75*
G02*
X146350000Y-69090000I0J-150000D01*
G01*
X146350000Y-70740000D01*
G75*
G02*
X146200000Y-70890000I-150000J0D01*
G01*
G37*
G04 #@! TD.AperFunction*
G04 #@! TO.P,U3,11*
G04 #@! TO.N,VCC*
G04 #@! TA.AperFunction,SMDPad,CuDef*
G36*
G01*
X147470000Y-70890000D02*
X147170000Y-70890000D01*
G75*
G02*
X147020000Y-70740000I0J150000D01*
G01*
X147020000Y-69090000D01*
G75*
G02*
X147170000Y-68940000I150000J0D01*
G01*
X147470000Y-68940000D01*
G75*
G02*
X147620000Y-69090000I0J-150000D01*
G01*
X147620000Y-70740000D01*
G75*
G02*
X147470000Y-70890000I-150000J0D01*
G01*
G37*
G04 #@! TD.AperFunction*
G04 #@! TO.P,U3,10*
G04 #@! TA.AperFunction,SMDPad,CuDef*
G36*
G01*
X148740000Y-70890000D02*
X148440000Y-70890000D01*
G75*
G02*
X148290000Y-70740000I0J150000D01*
G01*
X148290000Y-69090000D01*
G75*
G02*
X148440000Y-68940000I150000J0D01*
G01*
X148740000Y-68940000D01*
G75*
G02*
X148890000Y-69090000I0J-150000D01*
G01*
X148890000Y-70740000D01*
G75*
G02*
X148740000Y-70890000I-150000J0D01*
G01*
G37*
G04 #@! TD.AperFunction*
G04 #@! TO.P,U3,9*
G04 #@! TO.N,BRK*
G04 #@! TA.AperFunction,SMDPad,CuDef*
G36*
G01*
X150010000Y-70890000D02*
X149710000Y-70890000D01*
G75*
G02*
X149560000Y-70740000I0J150000D01*
G01*
X149560000Y-69090000D01*
G75*
G02*
X149710000Y-68940000I150000J0D01*
G01*
X150010000Y-68940000D01*
G75*
G02*
X150160000Y-69090000I0J-150000D01*
G01*
X150160000Y-70740000D01*
G75*
G02*
X150010000Y-70890000I-150000J0D01*
G01*
G37*
G04 #@! TD.AperFunction*
G04 #@! TO.P,U3,8*
G04 #@! TO.N,GND*
G04 #@! TA.AperFunction,SMDPad,CuDef*
G36*
G01*
X150010000Y-75840000D02*
X149710000Y-75840000D01*
G75*
G02*
X149560000Y-75690000I0J150000D01*
G01*
X149560000Y-74040000D01*
G75*
G02*
X149710000Y-73890000I150000J0D01*
G01*
X150010000Y-73890000D01*
G75*
G02*
X150160000Y-74040000I0J-150000D01*
G01*
X150160000Y-75690000D01*
G75*
G02*
X150010000Y-75840000I-150000J0D01*
G01*
G37*
G04 #@! TD.AperFunction*
G04 #@! TO.P,U3,7*
G04 #@! TA.AperFunction,SMDPad,CuDef*
G36*
G01*
X148740000Y-75840000D02*
X148440000Y-75840000D01*
G75*
G02*
X148290000Y-75690000I0J150000D01*
G01*
X148290000Y-74040000D01*
G75*
G02*
X148440000Y-73890000I150000J0D01*
G01*
X148740000Y-73890000D01*
G75*
G02*
X148890000Y-74040000I0J-150000D01*
G01*
X148890000Y-75690000D01*
G75*
G02*
X148740000Y-75840000I-150000J0D01*
G01*
G37*
G04 #@! TD.AperFunction*
G04 #@! TO.P,U3,6*
G04 #@! TO.N,VCC*
G04 #@! TA.AperFunction,SMDPad,CuDef*
G36*
G01*
X147470000Y-75840000D02*
X147170000Y-75840000D01*
G75*
G02*
X147020000Y-75690000I0J150000D01*
G01*
X147020000Y-74040000D01*
G75*
G02*
X147170000Y-73890000I150000J0D01*
G01*
X147470000Y-73890000D01*
G75*
G02*
X147620000Y-74040000I0J-150000D01*
G01*
X147620000Y-75690000D01*
G75*
G02*
X147470000Y-75840000I-150000J0D01*
G01*
G37*
G04 #@! TD.AperFunction*
G04 #@! TO.P,U3,5*
G04 #@! TA.AperFunction,SMDPad,CuDef*
G36*
G01*
X146200000Y-75840000D02*
X145900000Y-75840000D01*
G75*
G02*
X145750000Y-75690000I0J150000D01*
G01*
X145750000Y-74040000D01*
G75*
G02*
X145900000Y-73890000I150000J0D01*
G01*
X146200000Y-73890000D01*
G75*
G02*
X146350000Y-74040000I0J-150000D01*
G01*
X146350000Y-75690000D01*
G75*
G02*
X146200000Y-75840000I-150000J0D01*
G01*
G37*
G04 #@! TD.AperFunction*
G04 #@! TO.P,U3,4*
G04 #@! TO.N,GND*
G04 #@! TA.AperFunction,SMDPad,CuDef*
G36*
G01*
X144930000Y-75840000D02*
X144630000Y-75840000D01*
G75*
G02*
X144480000Y-75690000I0J150000D01*
G01*
X144480000Y-74040000D01*
G75*
G02*
X144630000Y-73890000I150000J0D01*
G01*
X144930000Y-73890000D01*
G75*
G02*
X145080000Y-74040000I0J-150000D01*
G01*
X145080000Y-75690000D01*
G75*
G02*
X144930000Y-75840000I-150000J0D01*
G01*
G37*
G04 #@! TD.AperFunction*
G04 #@! TO.P,U3,3*
G04 #@! TO.N,Net-(U2-Pad3)*
G04 #@! TA.AperFunction,SMDPad,CuDef*
G36*
G01*
X143660000Y-75840000D02*
X143360000Y-75840000D01*
G75*
G02*
X143210000Y-75690000I0J150000D01*
G01*
X143210000Y-74040000D01*
G75*
G02*
X143360000Y-73890000I150000J0D01*
G01*
X143660000Y-73890000D01*
G75*
G02*
X143810000Y-74040000I0J-150000D01*
G01*
X143810000Y-75690000D01*
G75*
G02*
X143660000Y-75840000I-150000J0D01*
G01*
G37*
G04 #@! TD.AperFunction*
G04 #@! TO.P,U3,2*
G04 #@! TO.N,PAS_OFF*
G04 #@! TA.AperFunction,SMDPad,CuDef*
G36*
G01*
X142390000Y-75840000D02*
X142090000Y-75840000D01*
G75*
G02*
X141940000Y-75690000I0J150000D01*
G01*
X141940000Y-74040000D01*
G75*
G02*
X142090000Y-73890000I150000J0D01*
G01*
X142390000Y-73890000D01*
G75*
G02*
X142540000Y-74040000I0J-150000D01*
G01*
X142540000Y-75690000D01*
G75*
G02*
X142390000Y-75840000I-150000J0D01*
G01*
G37*
G04 #@! TD.AperFunction*
G04 #@! TO.P,U3,1*
G04 #@! TO.N,PAS_ON*
G04 #@! TA.AperFunction,SMDPad,CuDef*
G36*
G01*
X141120000Y-75840000D02*
X140820000Y-75840000D01*
G75*
G02*
X140670000Y-75690000I0J150000D01*
G01*
X140670000Y-74040000D01*
G75*
G02*
X140820000Y-73890000I150000J0D01*
G01*
X141120000Y-73890000D01*
G75*
G02*
X141270000Y-74040000I0J-150000D01*
G01*
X141270000Y-75690000D01*
G75*
G02*
X141120000Y-75840000I-150000J0D01*
G01*
G37*
G04 #@! TD.AperFunction*
G04 #@! TD*
G04 #@! TO.P,U2,14*
G04 #@! TO.N,VCC*
G04 #@! TA.AperFunction,SMDPad,CuDef*
G36*
G01*
X132485000Y-83035000D02*
X132485000Y-83335000D01*
G75*
G02*
X132335000Y-83485000I-150000J0D01*
G01*
X130685000Y-83485000D01*
G75*
G02*
X130535000Y-83335000I0J150000D01*
G01*
X130535000Y-83035000D01*
G75*
G02*
X130685000Y-82885000I150000J0D01*
G01*
X132335000Y-82885000D01*
G75*
G02*
X132485000Y-83035000I0J-150000D01*
G01*
G37*
G04 #@! TD.AperFunction*
G04 #@! TO.P,U2,13*
G04 #@! TO.N,BRK*
G04 #@! TA.AperFunction,SMDPad,CuDef*
G36*
G01*
X132485000Y-81765000D02*
X132485000Y-82065000D01*
G75*
G02*
X132335000Y-82215000I-150000J0D01*
G01*
X130685000Y-82215000D01*
G75*
G02*
X130535000Y-82065000I0J150000D01*
G01*
X130535000Y-81765000D01*
G75*
G02*
X130685000Y-81615000I150000J0D01*
G01*
X132335000Y-81615000D01*
G75*
G02*
X132485000Y-81765000I0J-150000D01*
G01*
G37*
G04 #@! TD.AperFunction*
G04 #@! TO.P,U2,12*
G04 #@! TA.AperFunction,SMDPad,CuDef*
G36*
G01*
X132485000Y-80495000D02*
X132485000Y-80795000D01*
G75*
G02*
X132335000Y-80945000I-150000J0D01*
G01*
X130685000Y-80945000D01*
G75*
G02*
X130535000Y-80795000I0J150000D01*
G01*
X130535000Y-80495000D01*
G75*
G02*
X130685000Y-80345000I150000J0D01*
G01*
X132335000Y-80345000D01*
G75*
G02*
X132485000Y-80495000I0J-150000D01*
G01*
G37*
G04 #@! TD.AperFunction*
G04 #@! TO.P,U2,11*
G04 #@! TA.AperFunction,SMDPad,CuDef*
G36*
G01*
X132485000Y-79225000D02*
X132485000Y-79525000D01*
G75*
G02*
X132335000Y-79675000I-150000J0D01*
G01*
X130685000Y-79675000D01*
G75*
G02*
X130535000Y-79525000I0J150000D01*
G01*
X130535000Y-79225000D01*
G75*
G02*
X130685000Y-79075000I150000J0D01*
G01*
X132335000Y-79075000D01*
G75*
G02*
X132485000Y-79225000I0J-150000D01*
G01*
G37*
G04 #@! TD.AperFunction*
G04 #@! TO.P,U2,10*
G04 #@! TO.N,Net-(U2-Pad1)*
G04 #@! TA.AperFunction,SMDPad,CuDef*
G36*
G01*
X132485000Y-77955000D02*
X132485000Y-78255000D01*
G75*
G02*
X132335000Y-78405000I-150000J0D01*
G01*
X130685000Y-78405000D01*
G75*
G02*
X130535000Y-78255000I0J150000D01*
G01*
X130535000Y-77955000D01*
G75*
G02*
X130685000Y-77805000I150000J0D01*
G01*
X132335000Y-77805000D01*
G75*
G02*
X132485000Y-77955000I0J-150000D01*
G01*
G37*
G04 #@! TD.AperFunction*
G04 #@! TO.P,U2,9*
G04 #@! TO.N,Net-(R9-Pad2)*
G04 #@! TA.AperFunction,SMDPad,CuDef*
G36*
G01*
X132485000Y-76685000D02*
X132485000Y-76985000D01*
G75*
G02*
X132335000Y-77135000I-150000J0D01*
G01*
X130685000Y-77135000D01*
G75*
G02*
X130535000Y-76985000I0J150000D01*
G01*
X130535000Y-76685000D01*
G75*
G02*
X130685000Y-76535000I150000J0D01*
G01*
X132335000Y-76535000D01*
G75*
G02*
X132485000Y-76685000I0J-150000D01*
G01*
G37*
G04 #@! TD.AperFunction*
G04 #@! TO.P,U2,8*
G04 #@! TO.N,PAS_ON*
G04 #@! TA.AperFunction,SMDPad,CuDef*
G36*
G01*
X132485000Y-75415000D02*
X132485000Y-75715000D01*
G75*
G02*
X132335000Y-75865000I-150000J0D01*
G01*
X130685000Y-75865000D01*
G75*
G02*
X130535000Y-75715000I0J150000D01*
G01*
X130535000Y-75415000D01*
G75*
G02*
X130685000Y-75265000I150000J0D01*
G01*
X132335000Y-75265000D01*
G75*
G02*
X132485000Y-75415000I0J-150000D01*
G01*
G37*
G04 #@! TD.AperFunction*
G04 #@! TO.P,U2,7*
G04 #@! TO.N,GND*
G04 #@! TA.AperFunction,SMDPad,CuDef*
G36*
G01*
X137435000Y-75415000D02*
X137435000Y-75715000D01*
G75*
G02*
X137285000Y-75865000I-150000J0D01*
G01*
X135635000Y-75865000D01*
G75*
G02*
X135485000Y-75715000I0J150000D01*
G01*
X135485000Y-75415000D01*
G75*
G02*
X135635000Y-75265000I150000J0D01*
G01*
X137285000Y-75265000D01*
G75*
G02*
X137435000Y-75415000I0J-150000D01*
G01*
G37*
G04 #@! TD.AperFunction*
G04 #@! TO.P,U2,6*
G04 #@! TO.N,Net-(J5-Pad2)*
G04 #@! TA.AperFunction,SMDPad,CuDef*
G36*
G01*
X137435000Y-76685000D02*
X137435000Y-76985000D01*
G75*
G02*
X137285000Y-77135000I-150000J0D01*
G01*
X135635000Y-77135000D01*
G75*
G02*
X135485000Y-76985000I0J150000D01*
G01*
X135485000Y-76685000D01*
G75*
G02*
X135635000Y-76535000I150000J0D01*
G01*
X137285000Y-76535000D01*
G75*
G02*
X137435000Y-76685000I0J-150000D01*
G01*
G37*
G04 #@! TD.AperFunction*
G04 #@! TO.P,U2,5*
G04 #@! TO.N,Net-(U2-Pad5)*
G04 #@! TA.AperFunction,SMDPad,CuDef*
G36*
G01*
X137435000Y-77955000D02*
X137435000Y-78255000D01*
G75*
G02*
X137285000Y-78405000I-150000J0D01*
G01*
X135635000Y-78405000D01*
G75*
G02*
X135485000Y-78255000I0J150000D01*
G01*
X135485000Y-77955000D01*
G75*
G02*
X135635000Y-77805000I150000J0D01*
G01*
X137285000Y-77805000D01*
G75*
G02*
X137435000Y-77955000I0J-150000D01*
G01*
G37*
G04 #@! TD.AperFunction*
G04 #@! TO.P,U2,4*
G04 #@! TO.N,Net-(U2-Pad3)*
G04 #@! TA.AperFunction,SMDPad,CuDef*
G36*
G01*
X137435000Y-79225000D02*
X137435000Y-79525000D01*
G75*
G02*
X137285000Y-79675000I-150000J0D01*
G01*
X135635000Y-79675000D01*
G75*
G02*
X135485000Y-79525000I0J150000D01*
G01*
X135485000Y-79225000D01*
G75*
G02*
X135635000Y-79075000I150000J0D01*
G01*
X137285000Y-79075000D01*
G75*
G02*
X137435000Y-79225000I0J-150000D01*
G01*
G37*
G04 #@! TD.AperFunction*
G04 #@! TO.P,U2,3*
G04 #@! TA.AperFunction,SMDPad,CuDef*
G36*
G01*
X137435000Y-80495000D02*
X137435000Y-80795000D01*
G75*
G02*
X137285000Y-80945000I-150000J0D01*
G01*
X135635000Y-80945000D01*
G75*
G02*
X135485000Y-80795000I0J150000D01*
G01*
X135485000Y-80495000D01*
G75*
G02*
X135635000Y-80345000I150000J0D01*
G01*
X137285000Y-80345000D01*
G75*
G02*
X137435000Y-80495000I0J-150000D01*
G01*
G37*
G04 #@! TD.AperFunction*
G04 #@! TO.P,U2,2*
G04 #@! TO.N,PEDAL*
G04 #@! TA.AperFunction,SMDPad,CuDef*
G36*
G01*
X137435000Y-81765000D02*
X137435000Y-82065000D01*
G75*
G02*
X137285000Y-82215000I-150000J0D01*
G01*
X135635000Y-82215000D01*
G75*
G02*
X135485000Y-82065000I0J150000D01*
G01*
X135485000Y-81765000D01*
G75*
G02*
X135635000Y-81615000I150000J0D01*
G01*
X137285000Y-81615000D01*
G75*
G02*
X137435000Y-81765000I0J-150000D01*
G01*
G37*
G04 #@! TD.AperFunction*
G04 #@! TO.P,U2,1*
G04 #@! TO.N,Net-(U2-Pad1)*
G04 #@! TA.AperFunction,SMDPad,CuDef*
G36*
G01*
X137435000Y-83035000D02*
X137435000Y-83335000D01*
G75*
G02*
X137285000Y-83485000I-150000J0D01*
G01*
X135635000Y-83485000D01*
G75*
G02*
X135485000Y-83335000I0J150000D01*
G01*
X135485000Y-83035000D01*
G75*
G02*
X135635000Y-82885000I150000J0D01*
G01*
X137285000Y-82885000D01*
G75*
G02*
X137435000Y-83035000I0J-150000D01*
G01*
G37*
G04 #@! TD.AperFunction*
G04 #@! TD*
G04 #@! TO.P,R9,2*
G04 #@! TO.N,Net-(R9-Pad2)*
G04 #@! TA.AperFunction,SMDPad,CuDef*
G36*
G01*
X131870000Y-73935000D02*
X131870000Y-73385000D01*
G75*
G02*
X132070000Y-73185000I200000J0D01*
G01*
X132470000Y-73185000D01*
G75*
G02*
X132670000Y-73385000I0J-200000D01*
G01*
X132670000Y-73935000D01*
G75*
G02*
X132470000Y-74135000I-200000J0D01*
G01*
X132070000Y-74135000D01*
G75*
G02*
X131870000Y-73935000I0J200000D01*
G01*
G37*
G04 #@! TD.AperFunction*
G04 #@! TO.P,R9,1*
G04 #@! TO.N,Net-(C11-Pad2)*
G04 #@! TA.AperFunction,SMDPad,CuDef*
G36*
G01*
X130220000Y-73935000D02*
X130220000Y-73385000D01*
G75*
G02*
X130420000Y-73185000I200000J0D01*
G01*
X130820000Y-73185000D01*
G75*
G02*
X131020000Y-73385000I0J-200000D01*
G01*
X131020000Y-73935000D01*
G75*
G02*
X130820000Y-74135000I-200000J0D01*
G01*
X130420000Y-74135000D01*
G75*
G02*
X130220000Y-73935000I0J200000D01*
G01*
G37*
G04 #@! TD.AperFunction*
G04 #@! TD*
G04 #@! TO.P,R8,2*
G04 #@! TO.N,Net-(R8-Pad2)*
G04 #@! TA.AperFunction,SMDPad,CuDef*
G36*
G01*
X117900000Y-82825000D02*
X117900000Y-82275000D01*
G75*
G02*
X118100000Y-82075000I200000J0D01*
G01*
X118500000Y-82075000D01*
G75*
G02*
X118700000Y-82275000I0J-200000D01*
G01*
X118700000Y-82825000D01*
G75*
G02*
X118500000Y-83025000I-200000J0D01*
G01*
X118100000Y-83025000D01*
G75*
G02*
X117900000Y-82825000I0J200000D01*
G01*
G37*
G04 #@! TD.AperFunction*
G04 #@! TO.P,R8,1*
G04 #@! TO.N,Net-(C10-Pad2)*
G04 #@! TA.AperFunction,SMDPad,CuDef*
G36*
G01*
X116250000Y-82825000D02*
X116250000Y-82275000D01*
G75*
G02*
X116450000Y-82075000I200000J0D01*
G01*
X116850000Y-82075000D01*
G75*
G02*
X117050000Y-82275000I0J-200000D01*
G01*
X117050000Y-82825000D01*
G75*
G02*
X116850000Y-83025000I-200000J0D01*
G01*
X116450000Y-83025000D01*
G75*
G02*
X116250000Y-82825000I0J200000D01*
G01*
G37*
G04 #@! TD.AperFunction*
G04 #@! TD*
G04 #@! TO.P,R7,2*
G04 #@! TO.N,Net-(C5-Pad2)*
G04 #@! TA.AperFunction,SMDPad,CuDef*
G36*
G01*
X145205000Y-80920000D02*
X145205000Y-80370000D01*
G75*
G02*
X145405000Y-80170000I200000J0D01*
G01*
X145805000Y-80170000D01*
G75*
G02*
X146005000Y-80370000I0J-200000D01*
G01*
X146005000Y-80920000D01*
G75*
G02*
X145805000Y-81120000I-200000J0D01*
G01*
X145405000Y-81120000D01*
G75*
G02*
X145205000Y-80920000I0J200000D01*
G01*
G37*
G04 #@! TD.AperFunction*
G04 #@! TO.P,R7,1*
G04 #@! TO.N,Net-(J1-Pad2)*
G04 #@! TA.AperFunction,SMDPad,CuDef*
G36*
G01*
X143555000Y-80920000D02*
X143555000Y-80370000D01*
G75*
G02*
X143755000Y-80170000I200000J0D01*
G01*
X144155000Y-80170000D01*
G75*
G02*
X144355000Y-80370000I0J-200000D01*
G01*
X144355000Y-80920000D01*
G75*
G02*
X144155000Y-81120000I-200000J0D01*
G01*
X143755000Y-81120000D01*
G75*
G02*
X143555000Y-80920000I0J200000D01*
G01*
G37*
G04 #@! TD.AperFunction*
G04 #@! TD*
G04 #@! TO.P,R6,2*
G04 #@! TO.N,Net-(C4-Pad1)*
G04 #@! TA.AperFunction,SMDPad,CuDef*
G36*
G01*
X159175000Y-71395000D02*
X159175000Y-70845000D01*
G75*
G02*
X159375000Y-70645000I200000J0D01*
G01*
X159775000Y-70645000D01*
G75*
G02*
X159975000Y-70845000I0J-200000D01*
G01*
X159975000Y-71395000D01*
G75*
G02*
X159775000Y-71595000I-200000J0D01*
G01*
X159375000Y-71595000D01*
G75*
G02*
X159175000Y-71395000I0J200000D01*
G01*
G37*
G04 #@! TD.AperFunction*
G04 #@! TO.P,R6,1*
G04 #@! TO.N,VCC*
G04 #@! TA.AperFunction,SMDPad,CuDef*
G36*
G01*
X157525000Y-71395000D02*
X157525000Y-70845000D01*
G75*
G02*
X157725000Y-70645000I200000J0D01*
G01*
X158125000Y-70645000D01*
G75*
G02*
X158325000Y-70845000I0J-200000D01*
G01*
X158325000Y-71395000D01*
G75*
G02*
X158125000Y-71595000I-200000J0D01*
G01*
X157725000Y-71595000D01*
G75*
G02*
X157525000Y-71395000I0J200000D01*
G01*
G37*
G04 #@! TD.AperFunction*
G04 #@! TD*
G04 #@! TO.P,R5,2*
G04 #@! TO.N,Net-(C3-Pad1)*
G04 #@! TA.AperFunction,SMDPad,CuDef*
G36*
G01*
X148165000Y-80370000D02*
X148165000Y-80920000D01*
G75*
G02*
X147965000Y-81120000I-200000J0D01*
G01*
X147565000Y-81120000D01*
G75*
G02*
X147365000Y-80920000I0J200000D01*
G01*
X147365000Y-80370000D01*
G75*
G02*
X147565000Y-80170000I200000J0D01*
G01*
X147965000Y-80170000D01*
G75*
G02*
X148165000Y-80370000I0J-200000D01*
G01*
G37*
G04 #@! TD.AperFunction*
G04 #@! TO.P,R5,1*
G04 #@! TO.N,VCC*
G04 #@! TA.AperFunction,SMDPad,CuDef*
G36*
G01*
X149815000Y-80370000D02*
X149815000Y-80920000D01*
G75*
G02*
X149615000Y-81120000I-200000J0D01*
G01*
X149215000Y-81120000D01*
G75*
G02*
X149015000Y-80920000I0J200000D01*
G01*
X149015000Y-80370000D01*
G75*
G02*
X149215000Y-80170000I200000J0D01*
G01*
X149615000Y-80170000D01*
G75*
G02*
X149815000Y-80370000I0J-200000D01*
G01*
G37*
G04 #@! TD.AperFunction*
G04 #@! TD*
G04 #@! TO.P,R4,2*
G04 #@! TO.N,Net-(C5-Pad2)*
G04 #@! TA.AperFunction,SMDPad,CuDef*
G36*
G01*
X148165000Y-82910000D02*
X148165000Y-83460000D01*
G75*
G02*
X147965000Y-83660000I-200000J0D01*
G01*
X147565000Y-83660000D01*
G75*
G02*
X147365000Y-83460000I0J200000D01*
G01*
X147365000Y-82910000D01*
G75*
G02*
X147565000Y-82710000I200000J0D01*
G01*
X147965000Y-82710000D01*
G75*
G02*
X148165000Y-82910000I0J-200000D01*
G01*
G37*
G04 #@! TD.AperFunction*
G04 #@! TO.P,R4,1*
G04 #@! TO.N,VCC*
G04 #@! TA.AperFunction,SMDPad,CuDef*
G36*
G01*
X149815000Y-82910000D02*
X149815000Y-83460000D01*
G75*
G02*
X149615000Y-83660000I-200000J0D01*
G01*
X149215000Y-83660000D01*
G75*
G02*
X149015000Y-83460000I0J200000D01*
G01*
X149015000Y-82910000D01*
G75*
G02*
X149215000Y-82710000I200000J0D01*
G01*
X149615000Y-82710000D01*
G75*
G02*
X149815000Y-82910000I0J-200000D01*
G01*
G37*
G04 #@! TD.AperFunction*
G04 #@! TD*
G04 #@! TO.P,R3,2*
G04 #@! TO.N,Net-(J3-Pad3)*
G04 #@! TA.AperFunction,SMDPad,CuDef*
G36*
G01*
X142030000Y-56790000D02*
X142030000Y-56240000D01*
G75*
G02*
X142230000Y-56040000I200000J0D01*
G01*
X142630000Y-56040000D01*
G75*
G02*
X142830000Y-56240000I0J-200000D01*
G01*
X142830000Y-56790000D01*
G75*
G02*
X142630000Y-56990000I-200000J0D01*
G01*
X142230000Y-56990000D01*
G75*
G02*
X142030000Y-56790000I0J200000D01*
G01*
G37*
G04 #@! TD.AperFunction*
G04 #@! TO.P,R3,1*
G04 #@! TO.N,VCC*
G04 #@! TA.AperFunction,SMDPad,CuDef*
G36*
G01*
X140380000Y-56790000D02*
X140380000Y-56240000D01*
G75*
G02*
X140580000Y-56040000I200000J0D01*
G01*
X140980000Y-56040000D01*
G75*
G02*
X141180000Y-56240000I0J-200000D01*
G01*
X141180000Y-56790000D01*
G75*
G02*
X140980000Y-56990000I-200000J0D01*
G01*
X140580000Y-56990000D01*
G75*
G02*
X140380000Y-56790000I0J200000D01*
G01*
G37*
G04 #@! TD.AperFunction*
G04 #@! TD*
G04 #@! TO.P,R2,2*
G04 #@! TO.N,Net-(C2-Pad1)*
G04 #@! TA.AperFunction,SMDPad,CuDef*
G36*
G01*
X154095000Y-71395000D02*
X154095000Y-70845000D01*
G75*
G02*
X154295000Y-70645000I200000J0D01*
G01*
X154695000Y-70645000D01*
G75*
G02*
X154895000Y-70845000I0J-200000D01*
G01*
X154895000Y-71395000D01*
G75*
G02*
X154695000Y-71595000I-200000J0D01*
G01*
X154295000Y-71595000D01*
G75*
G02*
X154095000Y-71395000I0J200000D01*
G01*
G37*
G04 #@! TD.AperFunction*
G04 #@! TO.P,R2,1*
G04 #@! TO.N,VCC*
G04 #@! TA.AperFunction,SMDPad,CuDef*
G36*
G01*
X152445000Y-71395000D02*
X152445000Y-70845000D01*
G75*
G02*
X152645000Y-70645000I200000J0D01*
G01*
X153045000Y-70645000D01*
G75*
G02*
X153245000Y-70845000I0J-200000D01*
G01*
X153245000Y-71395000D01*
G75*
G02*
X153045000Y-71595000I-200000J0D01*
G01*
X152645000Y-71595000D01*
G75*
G02*
X152445000Y-71395000I0J200000D01*
G01*
G37*
G04 #@! TD.AperFunction*
G04 #@! TD*
G04 #@! TO.P,R1,2*
G04 #@! TO.N,Net-(C1-Pad1)*
G04 #@! TA.AperFunction,SMDPad,CuDef*
G36*
G01*
X154095000Y-56790000D02*
X154095000Y-56240000D01*
G75*
G02*
X154295000Y-56040000I200000J0D01*
G01*
X154695000Y-56040000D01*
G75*
G02*
X154895000Y-56240000I0J-200000D01*
G01*
X154895000Y-56790000D01*
G75*
G02*
X154695000Y-56990000I-200000J0D01*
G01*
X154295000Y-56990000D01*
G75*
G02*
X154095000Y-56790000I0J200000D01*
G01*
G37*
G04 #@! TD.AperFunction*
G04 #@! TO.P,R1,1*
G04 #@! TO.N,VCC*
G04 #@! TA.AperFunction,SMDPad,CuDef*
G36*
G01*
X152445000Y-56790000D02*
X152445000Y-56240000D01*
G75*
G02*
X152645000Y-56040000I200000J0D01*
G01*
X153045000Y-56040000D01*
G75*
G02*
X153245000Y-56240000I0J-200000D01*
G01*
X153245000Y-56790000D01*
G75*
G02*
X153045000Y-56990000I-200000J0D01*
G01*
X152645000Y-56990000D01*
G75*
G02*
X152445000Y-56790000I0J200000D01*
G01*
G37*
G04 #@! TD.AperFunction*
G04 #@! TD*
D11*
G04 #@! TO.P,J4,2*
G04 #@! TO.N,VCC*
X154305000Y-53340000D03*
D12*
G04 #@! TO.P,J4,1*
G04 #@! TO.N,BRK*
X156845000Y-53340000D03*
G04 #@! TD*
D11*
G04 #@! TO.P,J3,3*
G04 #@! TO.N,Net-(J3-Pad3)*
X142240000Y-53340000D03*
G04 #@! TO.P,J3,2*
G04 #@! TO.N,GND*
X144780000Y-53340000D03*
D12*
G04 #@! TO.P,J3,1*
G04 #@! TO.N,VCC*
X147320000Y-53340000D03*
G04 #@! TD*
D11*
G04 #@! TO.P,J2,4*
G04 #@! TO.N,Net-(J2-Pad4)*
X114300000Y-53340000D03*
G04 #@! TO.P,J2,3*
G04 #@! TO.N,Net-(J2-Pad3)*
X116840000Y-53340000D03*
G04 #@! TO.P,J2,2*
G04 #@! TO.N,Net-(J2-Pad2)*
X119380000Y-53340000D03*
D12*
G04 #@! TO.P,J2,1*
G04 #@! TO.N,GND*
X121920000Y-53340000D03*
G04 #@! TD*
D11*
G04 #@! TO.P,J1,3*
G04 #@! TO.N,Net-(J1-Pad3)*
X129540000Y-53340000D03*
G04 #@! TO.P,J1,2*
G04 #@! TO.N,Net-(J1-Pad2)*
X132080000Y-53340000D03*
D12*
G04 #@! TO.P,J1,1*
G04 #@! TO.N,GND*
X134620000Y-53340000D03*
G04 #@! TD*
G04 #@! TO.P,C13,2*
G04 #@! TO.N,VCC*
G04 #@! TA.AperFunction,SMDPad,CuDef*
G36*
G01*
X145105000Y-78990000D02*
X145105000Y-78490000D01*
G75*
G02*
X145330000Y-78265000I225000J0D01*
G01*
X145780000Y-78265000D01*
G75*
G02*
X146005000Y-78490000I0J-225000D01*
G01*
X146005000Y-78990000D01*
G75*
G02*
X145780000Y-79215000I-225000J0D01*
G01*
X145330000Y-79215000D01*
G75*
G02*
X145105000Y-78990000I0J225000D01*
G01*
G37*
G04 #@! TD.AperFunction*
G04 #@! TO.P,C13,1*
G04 #@! TO.N,GND*
G04 #@! TA.AperFunction,SMDPad,CuDef*
G36*
G01*
X143555000Y-78990000D02*
X143555000Y-78490000D01*
G75*
G02*
X143780000Y-78265000I225000J0D01*
G01*
X144230000Y-78265000D01*
G75*
G02*
X144455000Y-78490000I0J-225000D01*
G01*
X144455000Y-78990000D01*
G75*
G02*
X144230000Y-79215000I-225000J0D01*
G01*
X143780000Y-79215000D01*
G75*
G02*
X143555000Y-78990000I0J225000D01*
G01*
G37*
G04 #@! TD.AperFunction*
G04 #@! TD*
G04 #@! TO.P,C12,2*
G04 #@! TO.N,VCC*
G04 #@! TA.AperFunction,SMDPad,CuDef*
G36*
G01*
X150745000Y-55555000D02*
X150245000Y-55555000D01*
G75*
G02*
X150020000Y-55330000I0J225000D01*
G01*
X150020000Y-54880000D01*
G75*
G02*
X150245000Y-54655000I225000J0D01*
G01*
X150745000Y-54655000D01*
G75*
G02*
X150970000Y-54880000I0J-225000D01*
G01*
X150970000Y-55330000D01*
G75*
G02*
X150745000Y-55555000I-225000J0D01*
G01*
G37*
G04 #@! TD.AperFunction*
G04 #@! TO.P,C12,1*
G04 #@! TO.N,GND*
G04 #@! TA.AperFunction,SMDPad,CuDef*
G36*
G01*
X150745000Y-57105000D02*
X150245000Y-57105000D01*
G75*
G02*
X150020000Y-56880000I0J225000D01*
G01*
X150020000Y-56430000D01*
G75*
G02*
X150245000Y-56205000I225000J0D01*
G01*
X150745000Y-56205000D01*
G75*
G02*
X150970000Y-56430000I0J-225000D01*
G01*
X150970000Y-56880000D01*
G75*
G02*
X150745000Y-57105000I-225000J0D01*
G01*
G37*
G04 #@! TD.AperFunction*
G04 #@! TD*
G04 #@! TO.P,C11,2*
G04 #@! TO.N,Net-(C11-Pad2)*
G04 #@! TA.AperFunction,SMDPad,CuDef*
G36*
G01*
X131120000Y-70235000D02*
X131120000Y-70735000D01*
G75*
G02*
X130895000Y-70960000I-225000J0D01*
G01*
X130445000Y-70960000D01*
G75*
G02*
X130220000Y-70735000I0J225000D01*
G01*
X130220000Y-70235000D01*
G75*
G02*
X130445000Y-70010000I225000J0D01*
G01*
X130895000Y-70010000D01*
G75*
G02*
X131120000Y-70235000I0J-225000D01*
G01*
G37*
G04 #@! TD.AperFunction*
G04 #@! TO.P,C11,1*
G04 #@! TO.N,GND*
G04 #@! TA.AperFunction,SMDPad,CuDef*
G36*
G01*
X132670000Y-70235000D02*
X132670000Y-70735000D01*
G75*
G02*
X132445000Y-70960000I-225000J0D01*
G01*
X131995000Y-70960000D01*
G75*
G02*
X131770000Y-70735000I0J225000D01*
G01*
X131770000Y-70235000D01*
G75*
G02*
X131995000Y-70010000I225000J0D01*
G01*
X132445000Y-70010000D01*
G75*
G02*
X132670000Y-70235000I0J-225000D01*
G01*
G37*
G04 #@! TD.AperFunction*
G04 #@! TD*
G04 #@! TO.P,C10,2*
G04 #@! TO.N,Net-(C10-Pad2)*
G04 #@! TA.AperFunction,SMDPad,CuDef*
G36*
G01*
X117150000Y-77855000D02*
X117150000Y-78355000D01*
G75*
G02*
X116925000Y-78580000I-225000J0D01*
G01*
X116475000Y-78580000D01*
G75*
G02*
X116250000Y-78355000I0J225000D01*
G01*
X116250000Y-77855000D01*
G75*
G02*
X116475000Y-77630000I225000J0D01*
G01*
X116925000Y-77630000D01*
G75*
G02*
X117150000Y-77855000I0J-225000D01*
G01*
G37*
G04 #@! TD.AperFunction*
G04 #@! TO.P,C10,1*
G04 #@! TO.N,Net-(C10-Pad1)*
G04 #@! TA.AperFunction,SMDPad,CuDef*
G36*
G01*
X118700000Y-77855000D02*
X118700000Y-78355000D01*
G75*
G02*
X118475000Y-78580000I-225000J0D01*
G01*
X118025000Y-78580000D01*
G75*
G02*
X117800000Y-78355000I0J225000D01*
G01*
X117800000Y-77855000D01*
G75*
G02*
X118025000Y-77630000I225000J0D01*
G01*
X118475000Y-77630000D01*
G75*
G02*
X118700000Y-77855000I0J-225000D01*
G01*
G37*
G04 #@! TD.AperFunction*
G04 #@! TD*
D16*
G04 #@! TO.P,C9,2*
G04 #@! TO.N,GND*
X124420000Y-60325000D03*
D17*
G04 #@! TO.P,C9,1*
G04 #@! TO.N,VCC*
X121920000Y-60325000D03*
G04 #@! TD*
D18*
G04 #@! TO.P,C8,2*
G04 #@! TO.N,GND*
X119935000Y-70485000D03*
D19*
G04 #@! TO.P,C8,1*
G04 #@! TO.N,Net-(C6-Pad1)*
X114935000Y-70485000D03*
G04 #@! TD*
G04 #@! TO.P,C7,2*
G04 #@! TO.N,GND*
G04 #@! TA.AperFunction,SMDPad,CuDef*
G36*
G01*
X123515000Y-65655000D02*
X123515000Y-65155000D01*
G75*
G02*
X123740000Y-64930000I225000J0D01*
G01*
X124190000Y-64930000D01*
G75*
G02*
X124415000Y-65155000I0J-225000D01*
G01*
X124415000Y-65655000D01*
G75*
G02*
X124190000Y-65880000I-225000J0D01*
G01*
X123740000Y-65880000D01*
G75*
G02*
X123515000Y-65655000I0J225000D01*
G01*
G37*
G04 #@! TD.AperFunction*
G04 #@! TO.P,C7,1*
G04 #@! TO.N,VCC*
G04 #@! TA.AperFunction,SMDPad,CuDef*
G36*
G01*
X121965000Y-65655000D02*
X121965000Y-65155000D01*
G75*
G02*
X122190000Y-64930000I225000J0D01*
G01*
X122640000Y-64930000D01*
G75*
G02*
X122865000Y-65155000I0J-225000D01*
G01*
X122865000Y-65655000D01*
G75*
G02*
X122640000Y-65880000I-225000J0D01*
G01*
X122190000Y-65880000D01*
G75*
G02*
X121965000Y-65655000I0J225000D01*
G01*
G37*
G04 #@! TD.AperFunction*
G04 #@! TD*
G04 #@! TO.P,C6,2*
G04 #@! TO.N,GND*
G04 #@! TA.AperFunction,SMDPad,CuDef*
G36*
G01*
X115260000Y-64385000D02*
X115260000Y-63885000D01*
G75*
G02*
X115485000Y-63660000I225000J0D01*
G01*
X115935000Y-63660000D01*
G75*
G02*
X116160000Y-63885000I0J-225000D01*
G01*
X116160000Y-64385000D01*
G75*
G02*
X115935000Y-64610000I-225000J0D01*
G01*
X115485000Y-64610000D01*
G75*
G02*
X115260000Y-64385000I0J225000D01*
G01*
G37*
G04 #@! TD.AperFunction*
G04 #@! TO.P,C6,1*
G04 #@! TO.N,Net-(C6-Pad1)*
G04 #@! TA.AperFunction,SMDPad,CuDef*
G36*
G01*
X113710000Y-64385000D02*
X113710000Y-63885000D01*
G75*
G02*
X113935000Y-63660000I225000J0D01*
G01*
X114385000Y-63660000D01*
G75*
G02*
X114610000Y-63885000I0J-225000D01*
G01*
X114610000Y-64385000D01*
G75*
G02*
X114385000Y-64610000I-225000J0D01*
G01*
X113935000Y-64610000D01*
G75*
G02*
X113710000Y-64385000I0J225000D01*
G01*
G37*
G04 #@! TD.AperFunction*
G04 #@! TD*
G04 #@! TO.P,C5,2*
G04 #@! TO.N,Net-(C5-Pad2)*
G04 #@! TA.AperFunction,SMDPad,CuDef*
G36*
G01*
X145105000Y-83435000D02*
X145105000Y-82935000D01*
G75*
G02*
X145330000Y-82710000I225000J0D01*
G01*
X145780000Y-82710000D01*
G75*
G02*
X146005000Y-82935000I0J-225000D01*
G01*
X146005000Y-83435000D01*
G75*
G02*
X145780000Y-83660000I-225000J0D01*
G01*
X145330000Y-83660000D01*
G75*
G02*
X145105000Y-83435000I0J225000D01*
G01*
G37*
G04 #@! TD.AperFunction*
G04 #@! TO.P,C5,1*
G04 #@! TO.N,GND*
G04 #@! TA.AperFunction,SMDPad,CuDef*
G36*
G01*
X143555000Y-83435000D02*
X143555000Y-82935000D01*
G75*
G02*
X143780000Y-82710000I225000J0D01*
G01*
X144230000Y-82710000D01*
G75*
G02*
X144455000Y-82935000I0J-225000D01*
G01*
X144455000Y-83435000D01*
G75*
G02*
X144230000Y-83660000I-225000J0D01*
G01*
X143780000Y-83660000D01*
G75*
G02*
X143555000Y-83435000I0J225000D01*
G01*
G37*
G04 #@! TD.AperFunction*
G04 #@! TD*
G04 #@! TO.P,C4,2*
G04 #@! TO.N,GND*
G04 #@! TA.AperFunction,SMDPad,CuDef*
G36*
G01*
X158425000Y-68965000D02*
X158425000Y-69465000D01*
G75*
G02*
X158200000Y-69690000I-225000J0D01*
G01*
X157750000Y-69690000D01*
G75*
G02*
X157525000Y-69465000I0J225000D01*
G01*
X157525000Y-68965000D01*
G75*
G02*
X157750000Y-68740000I225000J0D01*
G01*
X158200000Y-68740000D01*
G75*
G02*
X158425000Y-68965000I0J-225000D01*
G01*
G37*
G04 #@! TD.AperFunction*
G04 #@! TO.P,C4,1*
G04 #@! TO.N,Net-(C4-Pad1)*
G04 #@! TA.AperFunction,SMDPad,CuDef*
G36*
G01*
X159975000Y-68965000D02*
X159975000Y-69465000D01*
G75*
G02*
X159750000Y-69690000I-225000J0D01*
G01*
X159300000Y-69690000D01*
G75*
G02*
X159075000Y-69465000I0J225000D01*
G01*
X159075000Y-68965000D01*
G75*
G02*
X159300000Y-68740000I225000J0D01*
G01*
X159750000Y-68740000D01*
G75*
G02*
X159975000Y-68965000I0J-225000D01*
G01*
G37*
G04 #@! TD.AperFunction*
G04 #@! TD*
G04 #@! TO.P,C3,2*
G04 #@! TO.N,GND*
G04 #@! TA.AperFunction,SMDPad,CuDef*
G36*
G01*
X148915000Y-78990000D02*
X148915000Y-78490000D01*
G75*
G02*
X149140000Y-78265000I225000J0D01*
G01*
X149590000Y-78265000D01*
G75*
G02*
X149815000Y-78490000I0J-225000D01*
G01*
X149815000Y-78990000D01*
G75*
G02*
X149590000Y-79215000I-225000J0D01*
G01*
X149140000Y-79215000D01*
G75*
G02*
X148915000Y-78990000I0J225000D01*
G01*
G37*
G04 #@! TD.AperFunction*
G04 #@! TO.P,C3,1*
G04 #@! TO.N,Net-(C3-Pad1)*
G04 #@! TA.AperFunction,SMDPad,CuDef*
G36*
G01*
X147365000Y-78990000D02*
X147365000Y-78490000D01*
G75*
G02*
X147590000Y-78265000I225000J0D01*
G01*
X148040000Y-78265000D01*
G75*
G02*
X148265000Y-78490000I0J-225000D01*
G01*
X148265000Y-78990000D01*
G75*
G02*
X148040000Y-79215000I-225000J0D01*
G01*
X147590000Y-79215000D01*
G75*
G02*
X147365000Y-78990000I0J225000D01*
G01*
G37*
G04 #@! TD.AperFunction*
G04 #@! TD*
G04 #@! TO.P,C2,2*
G04 #@! TO.N,GND*
G04 #@! TA.AperFunction,SMDPad,CuDef*
G36*
G01*
X153345000Y-68965000D02*
X153345000Y-69465000D01*
G75*
G02*
X153120000Y-69690000I-225000J0D01*
G01*
X152670000Y-69690000D01*
G75*
G02*
X152445000Y-69465000I0J225000D01*
G01*
X152445000Y-68965000D01*
G75*
G02*
X152670000Y-68740000I225000J0D01*
G01*
X153120000Y-68740000D01*
G75*
G02*
X153345000Y-68965000I0J-225000D01*
G01*
G37*
G04 #@! TD.AperFunction*
G04 #@! TO.P,C2,1*
G04 #@! TO.N,Net-(C2-Pad1)*
G04 #@! TA.AperFunction,SMDPad,CuDef*
G36*
G01*
X154895000Y-68965000D02*
X154895000Y-69465000D01*
G75*
G02*
X154670000Y-69690000I-225000J0D01*
G01*
X154220000Y-69690000D01*
G75*
G02*
X153995000Y-69465000I0J225000D01*
G01*
X153995000Y-68965000D01*
G75*
G02*
X154220000Y-68740000I225000J0D01*
G01*
X154670000Y-68740000D01*
G75*
G02*
X154895000Y-68965000I0J-225000D01*
G01*
G37*
G04 #@! TD.AperFunction*
G04 #@! TD*
G04 #@! TO.P,C1,2*
G04 #@! TO.N,GND*
G04 #@! TA.AperFunction,SMDPad,CuDef*
G36*
G01*
X159075000Y-56765000D02*
X159075000Y-56265000D01*
G75*
G02*
X159300000Y-56040000I225000J0D01*
G01*
X159750000Y-56040000D01*
G75*
G02*
X159975000Y-56265000I0J-225000D01*
G01*
X159975000Y-56765000D01*
G75*
G02*
X159750000Y-56990000I-225000J0D01*
G01*
X159300000Y-56990000D01*
G75*
G02*
X159075000Y-56765000I0J225000D01*
G01*
G37*
G04 #@! TD.AperFunction*
G04 #@! TO.P,C1,1*
G04 #@! TO.N,Net-(C1-Pad1)*
G04 #@! TA.AperFunction,SMDPad,CuDef*
G36*
G01*
X157525000Y-56765000D02*
X157525000Y-56265000D01*
G75*
G02*
X157750000Y-56040000I225000J0D01*
G01*
X158200000Y-56040000D01*
G75*
G02*
X158425000Y-56265000I0J-225000D01*
G01*
X158425000Y-56765000D01*
G75*
G02*
X158200000Y-56990000I-225000J0D01*
G01*
X157750000Y-56990000D01*
G75*
G02*
X157525000Y-56765000I0J225000D01*
G01*
G37*
G04 #@! TD.AperFunction*
G04 #@! TD*
D20*
G04 #@! TO.N,VCC*
X124460000Y-79756000D03*
G04 #@! TO.N,PAS_OFF*
X146304000Y-67564000D03*
G04 #@! TO.N,Net-(C11-Pad2)*
X138176000Y-65024000D03*
G04 #@! TO.N,GND*
X126492000Y-66548000D03*
G04 #@! TO.N,Net-(U6-Pad3)*
X146304000Y-57404000D03*
G04 #@! TO.N,Net-(U2-Pad1)*
X133604000Y-77216000D03*
G04 #@! TO.N,PEDAL*
X145796000Y-72136000D03*
X139700000Y-71120000D03*
G04 #@! TO.N,Net-(J5-Pad2)*
X139192000Y-76708000D03*
G04 #@! TO.N,PAS_ON*
X136144000Y-71628000D03*
G04 #@! TO.N,Net-(U1-Pad6)*
X151892000Y-65532000D03*
G04 #@! TO.N,RGN_FLSH*
X144780000Y-67564000D03*
G04 #@! TO.N,BRK*
X149860000Y-52070000D03*
G04 #@! TO.N,Net-(J1-Pad2)*
X139065000Y-81915000D03*
G04 #@! TO.N,Net-(U2-Pad3)*
X151765000Y-80645000D03*
G04 #@! TO.N,Net-(U2-Pad1)*
X129540000Y-80010000D03*
G04 #@! TO.N,Net-(U1-Pad10)*
X137160000Y-56515000D03*
G04 #@! TO.N,Net-(C2-Pad1)*
X156845000Y-59690000D03*
X156210000Y-66040000D03*
G04 #@! TO.N,Net-(J2-Pad4)*
X126365000Y-56515000D03*
X128905000Y-56515000D03*
G04 #@! TO.N,GND*
X160655000Y-58420000D03*
X151765000Y-58420000D03*
X139192000Y-58928000D03*
X151765000Y-68072000D03*
X151765000Y-74295000D03*
X144780000Y-76835000D03*
X151765000Y-83185000D03*
X160655000Y-75565000D03*
X137795000Y-74295000D03*
X151765000Y-77470000D03*
X160655000Y-63500000D03*
X156210000Y-69215000D03*
X142240000Y-83185000D03*
X119380000Y-80645000D03*
X127000000Y-73660000D03*
X132588000Y-72136000D03*
X135128000Y-70612000D03*
G04 #@! TO.N,Net-(J1-Pad2)*
X142240000Y-81280000D03*
G04 #@! TO.N,Net-(U1-Pad10)*
X137160000Y-59690000D03*
G04 #@! TO.N,Net-(U1-Pad6)*
X139700000Y-63500000D03*
G04 #@! TO.N,Net-(U2-Pad3)*
X142240000Y-79756000D03*
X138430000Y-80645000D03*
G04 #@! TO.N,VCC*
X123952000Y-72136000D03*
X147320000Y-77216000D03*
X133604000Y-82296000D03*
X146812000Y-71628000D03*
X151892000Y-72136000D03*
X146812000Y-62992000D03*
X139192000Y-69596000D03*
X139700000Y-54864000D03*
X139700000Y-46736000D03*
X119380000Y-61976000D03*
X119380000Y-50800000D03*
G04 #@! TO.N,Net-(C11-Pad2)*
X136144000Y-63500000D03*
X143764000Y-61976000D03*
X136144000Y-69596000D03*
G04 #@! TO.N,BRK*
X149860000Y-62484000D03*
X149352000Y-72644000D03*
X141732000Y-77216000D03*
G04 #@! TO.N,Net-(U2-Pad1)*
X129540000Y-83185000D03*
X142240000Y-61976000D03*
G04 #@! TO.N,PAS_ON*
X141732000Y-73152000D03*
G04 #@! TO.N,PEDAL*
X134112000Y-75692000D03*
X134116660Y-79252660D03*
G04 #@! TO.N,PAS_OFF*
X150876000Y-66548000D03*
X140716000Y-82296000D03*
X140208000Y-84836000D03*
X155956000Y-85344000D03*
X155956000Y-73152000D03*
G04 #@! TO.N,Net-(U6-Pad13)*
X147320000Y-66548000D03*
X138176000Y-66896979D03*
G04 #@! TO.N,Net-(U6-Pad3)*
X148336000Y-48260000D03*
X127508000Y-65024000D03*
X125476000Y-50292000D03*
G04 #@! TO.N,RGN_FLSH*
X139700000Y-67346990D03*
G04 #@! TO.N,Net-(J5-Pad2)*
X143256000Y-72136000D03*
G04 #@! TD*
D21*
G04 #@! TO.N,GND*
X124420000Y-64950000D02*
X123965000Y-65405000D01*
X124420000Y-60325000D02*
X124420000Y-64950000D01*
X115710000Y-59195000D02*
X115570000Y-59055000D01*
X115710000Y-64135000D02*
X115710000Y-59195000D01*
X126935000Y-73725000D02*
X127000000Y-73660000D01*
X126935000Y-75565000D02*
X126935000Y-73725000D01*
X121985000Y-76835000D02*
X121985000Y-75565000D01*
X121985000Y-72535000D02*
X119935000Y-70485000D01*
X121985000Y-75565000D02*
X121985000Y-72535000D01*
X150495000Y-57150000D02*
X151765000Y-58420000D01*
X150495000Y-56655000D02*
X150495000Y-57150000D01*
X151765000Y-58420000D02*
X153735000Y-58420000D01*
X160655000Y-58695000D02*
X160655000Y-58420000D01*
X159660000Y-59690000D02*
X160655000Y-58695000D01*
X158685000Y-59690000D02*
X159660000Y-59690000D01*
X160655000Y-57645000D02*
X159525000Y-56515000D01*
X160655000Y-58420000D02*
X160655000Y-57645000D01*
X158685000Y-63500000D02*
X160655000Y-63500000D01*
X157975000Y-69215000D02*
X156210000Y-69215000D01*
X153735000Y-68375000D02*
X152895000Y-69215000D01*
X153735000Y-67310000D02*
X153735000Y-68375000D01*
X158685000Y-75565000D02*
X160655000Y-75565000D01*
X153735000Y-74295000D02*
X151765000Y-74295000D01*
X150430000Y-74295000D02*
X149860000Y-74865000D01*
X151765000Y-74295000D02*
X150430000Y-74295000D01*
X149860000Y-74865000D02*
X148590000Y-74865000D01*
X144005000Y-77610000D02*
X144780000Y-76835000D01*
X144005000Y-78740000D02*
X144005000Y-77610000D01*
X144780000Y-74865000D02*
X144780000Y-76835000D01*
X144005000Y-83185000D02*
X142240000Y-83185000D01*
X136525000Y-75565000D02*
X137795000Y-74295000D01*
X136460000Y-75565000D02*
X136525000Y-75565000D01*
X153735000Y-83185000D02*
X151765000Y-83185000D01*
X121985000Y-80645000D02*
X119380000Y-80645000D01*
X132220000Y-70485000D02*
X132220000Y-70625000D01*
X150495000Y-78740000D02*
X151765000Y-77470000D01*
X149365000Y-78740000D02*
X150495000Y-78740000D01*
X153100000Y-77470000D02*
X153735000Y-78105000D01*
X151765000Y-77470000D02*
X153100000Y-77470000D01*
X151765000Y-68085000D02*
X152895000Y-69215000D01*
X151765000Y-68072000D02*
X151765000Y-68085000D01*
X140970000Y-59755000D02*
X140208000Y-58993000D01*
X139257000Y-58993000D02*
X139192000Y-58928000D01*
X140208000Y-58993000D02*
X139257000Y-58993000D01*
X126492000Y-67266000D02*
X126128000Y-67630000D01*
X126492000Y-66548000D02*
X126492000Y-67266000D01*
X132220000Y-71768000D02*
X132588000Y-72136000D01*
X132220000Y-70485000D02*
X132220000Y-71768000D01*
X134112000Y-70612000D02*
X132588000Y-72136000D01*
X135128000Y-70612000D02*
X134112000Y-70612000D01*
G04 #@! TO.N,Net-(C1-Pad1)*
X155035010Y-59364990D02*
X154710000Y-59690000D01*
X155035010Y-57055010D02*
X155035010Y-59364990D01*
X154710000Y-59690000D02*
X153735000Y-59690000D01*
X154495000Y-56515000D02*
X155035010Y-57055010D01*
X157340000Y-55880000D02*
X155130000Y-55880000D01*
X155130000Y-55880000D02*
X154495000Y-56515000D01*
X157975000Y-56515000D02*
X157340000Y-55880000D01*
G04 #@! TO.N,Net-(C2-Pad1)*
X154495000Y-69265000D02*
X154445000Y-69215000D01*
X154495000Y-71120000D02*
X154495000Y-69265000D01*
X156210000Y-67450000D02*
X154445000Y-69215000D01*
X156210000Y-66040000D02*
X156210000Y-67450000D01*
X158050000Y-60325000D02*
X158685000Y-60960000D01*
X157480000Y-60325000D02*
X156845000Y-59690000D01*
X158050000Y-60325000D02*
X157480000Y-60325000D01*
G04 #@! TO.N,Net-(C3-Pad1)*
X147765000Y-78790000D02*
X147815000Y-78740000D01*
X147765000Y-80645000D02*
X147765000Y-78790000D01*
X150990000Y-75565000D02*
X153735000Y-75565000D01*
X147815000Y-78740000D02*
X150990000Y-75565000D01*
G04 #@! TO.N,Net-(C4-Pad1)*
X159575000Y-69265000D02*
X159525000Y-69215000D01*
X159575000Y-71120000D02*
X159575000Y-69265000D01*
X160458002Y-76835000D02*
X158685000Y-76835000D01*
X161380001Y-75913001D02*
X160458002Y-76835000D01*
X161380001Y-72925001D02*
X161380001Y-75913001D01*
X159575000Y-71120000D02*
X161380001Y-72925001D01*
G04 #@! TO.N,Net-(C5-Pad2)*
X147765000Y-83185000D02*
X145555000Y-83185000D01*
X145555000Y-80695000D02*
X145605000Y-80645000D01*
X145555000Y-83185000D02*
X145555000Y-80695000D01*
X150329990Y-79720010D02*
X150675000Y-79375000D01*
X148165000Y-83185000D02*
X148965010Y-83985010D01*
X150329990Y-83985010D02*
X150329990Y-79720010D01*
X148965010Y-83985010D02*
X150329990Y-83985010D01*
X150675000Y-79375000D02*
X153735000Y-79375000D01*
X147765000Y-83185000D02*
X148165000Y-83185000D01*
G04 #@! TO.N,Net-(C6-Pad1)*
X114160000Y-60465000D02*
X114300000Y-60325000D01*
X114160000Y-64135000D02*
X114160000Y-60465000D01*
X116666998Y-56515000D02*
X114300000Y-58881998D01*
X114300000Y-58881998D02*
X114300000Y-60325000D01*
X117920000Y-56515000D02*
X116666998Y-56515000D01*
X114160000Y-69710000D02*
X114935000Y-70485000D01*
X114160000Y-64135000D02*
X114160000Y-69710000D01*
G04 #@! TO.N,Net-(J1-Pad3)*
X127565001Y-63569999D02*
X127635000Y-63500000D01*
X127635000Y-55245000D02*
X129540000Y-53340000D01*
X127635000Y-63500000D02*
X127635000Y-55245000D01*
X123808000Y-67630000D02*
X123808000Y-67200000D01*
X127508000Y-63500000D02*
X127635000Y-63500000D01*
X123808000Y-67200000D02*
X127508000Y-63500000D01*
G04 #@! TO.N,Net-(J1-Pad2)*
X143320000Y-81280000D02*
X143955000Y-80645000D01*
X142240000Y-81280000D02*
X143320000Y-81280000D01*
X139065000Y-84455000D02*
X139065000Y-81915000D01*
X138359962Y-85160038D02*
X139065000Y-84455000D01*
X117164038Y-85160038D02*
X138359962Y-85160038D01*
X112395000Y-80391000D02*
X117164038Y-85160038D01*
X112395000Y-52070000D02*
X112395000Y-80391000D01*
X112750011Y-51714989D02*
X112395000Y-52070000D01*
X130454989Y-51714989D02*
X112750011Y-51714989D01*
X132080000Y-53340000D02*
X130454989Y-51714989D01*
G04 #@! TO.N,Net-(J2-Pad4)*
X128905000Y-57785000D02*
X130810000Y-59690000D01*
X128905000Y-56515000D02*
X128905000Y-57785000D01*
X115475001Y-54515001D02*
X114300000Y-53340000D01*
X118645010Y-56022532D02*
X117137479Y-54515001D01*
X118645010Y-56807488D02*
X118645010Y-56022532D01*
X119152532Y-57315010D02*
X118645010Y-56807488D01*
X117137479Y-54515001D02*
X115475001Y-54515001D01*
X125564990Y-57315010D02*
X119152532Y-57315010D01*
X126365000Y-56515000D02*
X125564990Y-57315010D01*
X130810000Y-59690000D02*
X133350000Y-59690000D01*
G04 #@! TO.N,Net-(J2-Pad3)*
X144780000Y-59378232D02*
X144780000Y-59755000D01*
X143313768Y-57912000D02*
X144780000Y-59378232D01*
X136906998Y-57912000D02*
X143313768Y-57912000D01*
X131450999Y-54450001D02*
X131515999Y-54515001D01*
X132709001Y-54450001D02*
X133444999Y-54450001D01*
X131515999Y-54515001D02*
X132644001Y-54515001D01*
X130104001Y-52164999D02*
X130715001Y-52775999D01*
X133444999Y-54450001D02*
X136906998Y-57912000D01*
X132644001Y-54515001D02*
X132709001Y-54450001D01*
X130715001Y-52775999D02*
X130715001Y-53880001D01*
X131285001Y-54450001D02*
X131450999Y-54450001D01*
X130715001Y-53880001D02*
X131285001Y-54450001D01*
X118015001Y-52164999D02*
X130104001Y-52164999D01*
X116840000Y-53340000D02*
X118015001Y-52164999D01*
G04 #@! TO.N,Net-(J3-Pad3)*
X142430000Y-53530000D02*
X142240000Y-53340000D01*
X142430000Y-56515000D02*
X142430000Y-53530000D01*
X154111768Y-62230000D02*
X153735000Y-62230000D01*
X156651768Y-64770000D02*
X154111768Y-62230000D01*
X158685000Y-64770000D02*
X156651768Y-64770000D01*
X160458002Y-64770000D02*
X158685000Y-64770000D01*
X145415000Y-50165000D02*
X155955002Y-50165000D01*
X161380001Y-63848001D02*
X160458002Y-64770000D01*
X161380001Y-55589999D02*
X161380001Y-63848001D01*
X155955002Y-50165000D02*
X161380001Y-55589999D01*
X142240000Y-53340000D02*
X145415000Y-50165000D01*
G04 #@! TO.N,Net-(U1-Pad10)*
X137922000Y-59690000D02*
X137160000Y-59690000D01*
X142240000Y-64008000D02*
X137922000Y-59690000D01*
X142240000Y-64705000D02*
X142240000Y-64008000D01*
X137160000Y-53848000D02*
X137160000Y-56515000D01*
X141478000Y-49530000D02*
X137160000Y-53848000D01*
X158685000Y-66040000D02*
X159824412Y-66040000D01*
X155956412Y-49530000D02*
X141478000Y-49530000D01*
X161830010Y-55403598D02*
X155956412Y-49530000D01*
X161830011Y-64034401D02*
X161830010Y-55403598D01*
X159824412Y-66040000D02*
X161830011Y-64034401D01*
G04 #@! TO.N,Net-(U1-Pad6)*
X152654000Y-64770000D02*
X151892000Y-65532000D01*
X153735000Y-64770000D02*
X152654000Y-64770000D01*
X140905000Y-64705000D02*
X139700000Y-63500000D01*
X140970000Y-64705000D02*
X140905000Y-64705000D01*
G04 #@! TO.N,Net-(U2-Pad5)*
X137435000Y-78105000D02*
X136460000Y-78105000D01*
X159985010Y-82240010D02*
X159660000Y-81915000D01*
X159985010Y-83531758D02*
X159985010Y-82240010D01*
X139790001Y-80354001D02*
X139790001Y-82894001D01*
X139790001Y-82894001D02*
X141331020Y-84435020D01*
X159660000Y-81915000D02*
X158685000Y-81915000D01*
X141331020Y-84435020D02*
X159081748Y-84435020D01*
X159081748Y-84435020D02*
X159985010Y-83531758D01*
X137541000Y-78105000D02*
X139790001Y-80354001D01*
X136460000Y-78105000D02*
X137541000Y-78105000D01*
G04 #@! TO.N,Net-(U2-Pad3)*
X143210000Y-75165000D02*
X143510000Y-74865000D01*
X151765000Y-80645000D02*
X153735000Y-80645000D01*
X143210000Y-77839315D02*
X143210000Y-75165000D01*
X142240000Y-78809315D02*
X143210000Y-77839315D01*
X142240000Y-79375000D02*
X142240000Y-78809315D01*
X138430000Y-80645000D02*
X136460000Y-80645000D01*
X136460000Y-80645000D02*
X136460000Y-79375000D01*
G04 #@! TO.N,Net-(U3-Pad15)*
X142240000Y-69538232D02*
X142240000Y-69915000D01*
X140773768Y-68072000D02*
X142240000Y-69538232D01*
X130556000Y-68072000D02*
X140773768Y-68072000D01*
X129759980Y-68868020D02*
X130556000Y-68072000D01*
X127910000Y-78105000D02*
X129759980Y-76255020D01*
X129759980Y-76255020D02*
X129759980Y-68868020D01*
X126935000Y-78105000D02*
X127910000Y-78105000D01*
G04 #@! TO.N,Net-(U4-Pad12)*
X154111768Y-81915000D02*
X153735000Y-81915000D01*
X156651768Y-79375000D02*
X154111768Y-81915000D01*
X158685000Y-79375000D02*
X156651768Y-79375000D01*
G04 #@! TO.N,VCC*
X147320000Y-69915000D02*
X148590000Y-69915000D01*
X148590000Y-69915000D02*
X148590000Y-64705000D01*
X121920000Y-64910000D02*
X122415000Y-65405000D01*
X121920000Y-60325000D02*
X121920000Y-64910000D01*
X116840000Y-60325000D02*
X121920000Y-60325000D01*
X150495000Y-55105000D02*
X150495000Y-53340000D01*
X150495000Y-53340000D02*
X147320000Y-53340000D01*
X154305000Y-53340000D02*
X150495000Y-53340000D01*
X152845000Y-54800000D02*
X154305000Y-53340000D01*
X152845000Y-56515000D02*
X152845000Y-54800000D01*
X154111768Y-60960000D02*
X153735000Y-60960000D01*
X156651768Y-58420000D02*
X154111768Y-60960000D01*
X158685000Y-58420000D02*
X156651768Y-58420000D01*
X156440000Y-60960000D02*
X153735000Y-60960000D01*
X158685000Y-62230000D02*
X157710000Y-62230000D01*
X157710000Y-62230000D02*
X156440000Y-60960000D01*
X153645010Y-71920010D02*
X152845000Y-71120000D01*
X157124990Y-71920010D02*
X153645010Y-71920010D01*
X157925000Y-71120000D02*
X157124990Y-71920010D01*
X157925000Y-73535000D02*
X158685000Y-74295000D01*
X157925000Y-71120000D02*
X157925000Y-73535000D01*
X157710000Y-74295000D02*
X158685000Y-74295000D01*
X157384990Y-74620010D02*
X157710000Y-74295000D01*
X157384990Y-77779990D02*
X157384990Y-74620010D01*
X157710000Y-78105000D02*
X157384990Y-77779990D01*
X158685000Y-78105000D02*
X157710000Y-78105000D01*
X155170000Y-76835000D02*
X157384990Y-74620010D01*
X153735000Y-76835000D02*
X155170000Y-76835000D01*
X159061768Y-78105000D02*
X158685000Y-78105000D01*
X159985010Y-79028242D02*
X159061768Y-78105000D01*
X159985010Y-80319990D02*
X159985010Y-79028242D01*
X159660000Y-80645000D02*
X159985010Y-80319990D01*
X158685000Y-80645000D02*
X159660000Y-80645000D01*
X126558232Y-79375000D02*
X126935000Y-79375000D01*
X122748232Y-83185000D02*
X126558232Y-79375000D01*
X121985000Y-83185000D02*
X122748232Y-83185000D01*
X131133232Y-83185000D02*
X131510000Y-83185000D01*
X127323232Y-79375000D02*
X131133232Y-83185000D01*
X126935000Y-79375000D02*
X127323232Y-79375000D01*
X145555000Y-75360000D02*
X146050000Y-74865000D01*
X145555000Y-78740000D02*
X145555000Y-75360000D01*
X146050000Y-74865000D02*
X147320000Y-74865000D01*
X143344990Y-57315010D02*
X147320000Y-53340000D01*
X141580010Y-57315010D02*
X143344990Y-57315010D01*
X140780000Y-56515000D02*
X141580010Y-57315010D01*
X152760000Y-60960000D02*
X153735000Y-60960000D01*
X152434990Y-61285010D02*
X152760000Y-60960000D01*
X152434990Y-63174990D02*
X152434990Y-61285010D01*
X153735000Y-63500000D02*
X152760000Y-63500000D01*
X148590000Y-70291768D02*
X148590000Y-69915000D01*
X152845000Y-71120000D02*
X152749990Y-71215010D01*
X147039990Y-80224990D02*
X145555000Y-78740000D01*
X147039990Y-81137468D02*
X147039990Y-80224990D01*
X147627522Y-81725000D02*
X147039990Y-81137468D01*
X149415000Y-81725000D02*
X147627522Y-81725000D01*
X149415000Y-80645000D02*
X149415000Y-81725000D01*
X149415000Y-81725000D02*
X149415000Y-83185000D01*
X125634990Y-77160010D02*
X125960000Y-76835000D01*
X125634990Y-79049990D02*
X125634990Y-77160010D01*
X125960000Y-76835000D02*
X126935000Y-76835000D01*
X125960000Y-79375000D02*
X125634990Y-79049990D01*
X126935000Y-79375000D02*
X125960000Y-79375000D01*
X147320000Y-74865000D02*
X147320000Y-74488232D01*
X147964990Y-53984990D02*
X147320000Y-53340000D01*
X148590000Y-64705000D02*
X147964990Y-64079990D01*
X152580000Y-63320000D02*
X152434990Y-63174990D01*
X152760000Y-63500000D02*
X152580000Y-63320000D01*
X147964990Y-56759010D02*
X148707010Y-56759010D01*
X147964990Y-64079990D02*
X147964990Y-56759010D01*
X147964990Y-56759010D02*
X147964990Y-53984990D01*
X152908000Y-60960000D02*
X153735000Y-60960000D01*
X148707010Y-56759010D02*
X152908000Y-60960000D01*
X123808000Y-69530000D02*
X123378000Y-69530000D01*
X122415000Y-68567000D02*
X122415000Y-65405000D01*
X123378000Y-69530000D02*
X122415000Y-68567000D01*
X125166010Y-79049990D02*
X125634990Y-79049990D01*
X124460000Y-79756000D02*
X125166010Y-79049990D01*
X132715000Y-83185000D02*
X133604000Y-82296000D01*
X131510000Y-83185000D02*
X132715000Y-83185000D01*
X147320000Y-77216000D02*
X147320000Y-74865000D01*
X123808000Y-71992000D02*
X123952000Y-72136000D01*
X123808000Y-69530000D02*
X123808000Y-71992000D01*
X151892000Y-72073000D02*
X152845000Y-71120000D01*
X151892000Y-72136000D02*
X151892000Y-72073000D01*
X146812000Y-70423000D02*
X147320000Y-69915000D01*
X146812000Y-71628000D02*
X146812000Y-70423000D01*
X140651000Y-69596000D02*
X140970000Y-69915000D01*
X139192000Y-69596000D02*
X140651000Y-69596000D01*
X147964990Y-63579305D02*
X147964990Y-64079990D01*
X147377685Y-62992000D02*
X147964990Y-63579305D01*
X146812000Y-62992000D02*
X147377685Y-62992000D01*
X123444000Y-46736000D02*
X119380000Y-50800000D01*
X139700000Y-46736000D02*
X123444000Y-46736000D01*
X120269000Y-61976000D02*
X121920000Y-60325000D01*
X119380000Y-61976000D02*
X120269000Y-61976000D01*
X140780000Y-55944000D02*
X139700000Y-54864000D01*
X140780000Y-56515000D02*
X140780000Y-55944000D01*
G04 #@! TO.N,Net-(C10-Pad2)*
X116650000Y-78155000D02*
X116700000Y-78105000D01*
X116650000Y-82550000D02*
X116650000Y-78155000D01*
X127311768Y-80645000D02*
X126935000Y-80645000D01*
X128685020Y-82018252D02*
X127311768Y-80645000D01*
X128685020Y-83718158D02*
X128685020Y-82018252D01*
X127693150Y-84710028D02*
X128685020Y-83718158D01*
X118810028Y-84710028D02*
X127693150Y-84710028D01*
X116650000Y-82550000D02*
X118810028Y-84710028D01*
G04 #@! TO.N,Net-(C10-Pad1)*
X118250000Y-81282522D02*
X118250000Y-78105000D01*
X120777488Y-83810010D02*
X118250000Y-81282522D01*
X126309990Y-83810010D02*
X120777488Y-83810010D01*
X126935000Y-83185000D02*
X126309990Y-83810010D01*
G04 #@! TO.N,Net-(C11-Pad2)*
X130670000Y-73610000D02*
X130620000Y-73660000D01*
X130670000Y-70485000D02*
X130670000Y-73610000D01*
X131559000Y-69596000D02*
X135636000Y-69596000D01*
X130670000Y-70485000D02*
X131559000Y-69596000D01*
X136652000Y-63500000D02*
X136144000Y-63500000D01*
X138176000Y-65024000D02*
X136652000Y-63500000D01*
X143764000Y-60009000D02*
X143510000Y-59755000D01*
X143764000Y-61976000D02*
X143764000Y-60009000D01*
X135636000Y-69596000D02*
X136144000Y-69596000D01*
G04 #@! TO.N,BRK*
X131510000Y-81915000D02*
X131510000Y-80645000D01*
X131510000Y-79375000D02*
X131510000Y-80645000D01*
X155575000Y-52070000D02*
X149860000Y-52070000D01*
X156845000Y-53340000D02*
X155575000Y-52070000D01*
X135159990Y-76488242D02*
X135159990Y-77150894D01*
X135128000Y-76456252D02*
X135159990Y-76488242D01*
X135438242Y-74939990D02*
X135159990Y-75218242D01*
X135159990Y-75218242D02*
X135159990Y-76178000D01*
X137691769Y-73569999D02*
X137216885Y-73569999D01*
X137216885Y-73569999D02*
X135846894Y-74939990D01*
X135846894Y-74939990D02*
X135438242Y-74939990D01*
X132935884Y-79375000D02*
X131510000Y-79375000D01*
X135159990Y-77150894D02*
X132935884Y-79375000D01*
X149860000Y-69915000D02*
X149860000Y-70658252D01*
X135128000Y-76209990D02*
X135128000Y-76456252D01*
X135159990Y-76178000D02*
X135128000Y-76209990D01*
X149860000Y-62484000D02*
X149860000Y-69915000D01*
X140344990Y-74812990D02*
X140344990Y-75886758D01*
X139101999Y-73569999D02*
X140344990Y-74812990D01*
X141674232Y-77216000D02*
X141732000Y-77216000D01*
X140344990Y-75886758D02*
X141674232Y-77216000D01*
X137691769Y-73569999D02*
X139101999Y-73569999D01*
X149860000Y-72136000D02*
X149860000Y-69915000D01*
X149352000Y-72644000D02*
X149860000Y-72136000D01*
G04 #@! TO.N,Net-(R8-Pad2)*
X127311768Y-81915000D02*
X126935000Y-81915000D01*
X128235010Y-82838242D02*
X127311768Y-81915000D01*
X127506749Y-84260019D02*
X128235010Y-83531758D01*
X118300000Y-83025000D02*
X119535019Y-84260019D01*
X128235010Y-83531758D02*
X128235010Y-82838242D01*
X119535019Y-84260019D02*
X127506749Y-84260019D01*
X118300000Y-82550000D02*
X118300000Y-83025000D01*
G04 #@! TO.N,Net-(R9-Pad2)*
X132270000Y-73660000D02*
X131000000Y-74930000D01*
X130535000Y-76835000D02*
X131510000Y-76835000D01*
X130209990Y-76509990D02*
X130535000Y-76835000D01*
X130498232Y-74930000D02*
X130209990Y-75218242D01*
X130209990Y-75218242D02*
X130209990Y-76509990D01*
X131000000Y-74930000D02*
X130498232Y-74930000D01*
G04 #@! TO.N,Net-(U2-Pad1)*
X130165010Y-83810010D02*
X129540000Y-83185000D01*
X135834990Y-83810010D02*
X130165010Y-83810010D01*
X136460000Y-83185000D02*
X135834990Y-83810010D01*
X130879315Y-78105000D02*
X131510000Y-78105000D01*
X129540000Y-79444315D02*
X130879315Y-78105000D01*
X129540000Y-80010000D02*
X129540000Y-79444315D01*
X132715000Y-78105000D02*
X131510000Y-78105000D01*
X133604000Y-77216000D02*
X132715000Y-78105000D01*
X142240000Y-61976000D02*
X142240000Y-59755000D01*
G04 #@! TO.N,PAS_ON*
X140970000Y-73914000D02*
X140970000Y-74865000D01*
X141732000Y-73152000D02*
X140970000Y-73914000D01*
X132207000Y-75565000D02*
X131510000Y-75565000D01*
X136144000Y-71628000D02*
X132207000Y-75565000D01*
X149215010Y-62912012D02*
X148590000Y-62287002D01*
X148590000Y-62287002D02*
X148590000Y-59755000D01*
X149215010Y-70936758D02*
X149215010Y-62912012D01*
X146999768Y-73152000D02*
X149215010Y-70936758D01*
X141732000Y-73152000D02*
X146999768Y-73152000D01*
G04 #@! TO.N,PEDAL*
X134112000Y-75051446D02*
X137948436Y-71215010D01*
X146050000Y-70890000D02*
X146050000Y-69915000D01*
X134112000Y-75692000D02*
X134112000Y-75051446D01*
X139604990Y-71215010D02*
X139700000Y-71120000D01*
X137948436Y-71215010D02*
X139604990Y-71215010D01*
X146050000Y-70866000D02*
X146050000Y-69915000D01*
X134116660Y-80546660D02*
X134116660Y-79252660D01*
X135485000Y-81915000D02*
X134116660Y-80546660D01*
X136460000Y-81915000D02*
X135485000Y-81915000D01*
X143510000Y-67367002D02*
X143510000Y-64705000D01*
X145399001Y-68289001D02*
X144431999Y-68289001D01*
X146050000Y-68940000D02*
X145399001Y-68289001D01*
X144431999Y-68289001D02*
X143510000Y-67367002D01*
X146050000Y-69915000D02*
X146050000Y-68940000D01*
X145796000Y-71120000D02*
X145796000Y-72136000D01*
X146050000Y-70866000D02*
X145796000Y-71120000D01*
G04 #@! TO.N,PAS_OFF*
X142457001Y-77564001D02*
X141281002Y-78740000D01*
X142457001Y-75082001D02*
X142457001Y-77564001D01*
X142240000Y-74865000D02*
X142457001Y-75082001D01*
X141281002Y-78740000D02*
X141281002Y-79190998D01*
X140716000Y-79756000D02*
X140716000Y-82296000D01*
X141281002Y-79190998D02*
X140716000Y-79756000D01*
X150876000Y-66548000D02*
X150876000Y-72644000D01*
X146304000Y-64959000D02*
X146050000Y-64705000D01*
X146304000Y-67564000D02*
X146304000Y-64959000D01*
X151384000Y-73152000D02*
X150876000Y-72644000D01*
X155956000Y-73152000D02*
X151384000Y-73152000D01*
X140716000Y-85344000D02*
X140208000Y-84836000D01*
X155956000Y-85344000D02*
X140716000Y-85344000D01*
G04 #@! TO.N,Net-(U6-Pad13)*
X147320000Y-65532000D02*
X147320000Y-64705000D01*
X147320000Y-64705000D02*
X147320000Y-66548000D01*
X121985000Y-78105000D02*
X122960000Y-78105000D01*
X124734970Y-72620208D02*
X130458199Y-66896979D01*
X122960000Y-78105000D02*
X124734970Y-76330030D01*
X130458199Y-66896979D02*
X138176000Y-66896979D01*
X124734970Y-76330030D02*
X124734970Y-72620208D01*
G04 #@! TO.N,RGN_FLSH_2*
X126728000Y-69530000D02*
X126128000Y-69530000D01*
X128461590Y-67796410D02*
X126728000Y-69530000D01*
X128461590Y-62839408D02*
X128461590Y-67796410D01*
X130245999Y-61054999D02*
X128461590Y-62839408D01*
X136811999Y-58964999D02*
X134721999Y-61054999D01*
X138166747Y-58964999D02*
X136811999Y-58964999D01*
X144780000Y-63730000D02*
X144454990Y-63404990D01*
X142606738Y-63404990D02*
X138166747Y-58964999D01*
X134721999Y-61054999D02*
X130245999Y-61054999D01*
X144454990Y-63404990D02*
X142606738Y-63404990D01*
X144780000Y-64705000D02*
X144780000Y-63730000D01*
G04 #@! TO.N,Net-(U6-Pad3)*
X127508000Y-48260000D02*
X125476000Y-50292000D01*
X148336000Y-48260000D02*
X127508000Y-48260000D01*
X146304000Y-59501000D02*
X146050000Y-59755000D01*
X146304000Y-57404000D02*
X146304000Y-59501000D01*
X126549685Y-68580000D02*
X126128000Y-68580000D01*
X127508000Y-67621685D02*
X126549685Y-68580000D01*
X127508000Y-65024000D02*
X127508000Y-67621685D01*
G04 #@! TO.N,RGN_FLSH*
X121985000Y-79375000D02*
X122361768Y-79375000D01*
X147320000Y-60131768D02*
X147320000Y-59755000D01*
X145424990Y-62026778D02*
X147320000Y-60131768D01*
X145424990Y-66919010D02*
X145424990Y-62026778D01*
X144780000Y-67564000D02*
X145424990Y-66919010D01*
X130369600Y-67621989D02*
X139425001Y-67621989D01*
X125184981Y-77150019D02*
X125184981Y-72806608D01*
X121985000Y-79375000D02*
X122960000Y-79375000D01*
X125184981Y-72806608D02*
X130369600Y-67621989D01*
X139425001Y-67621989D02*
X139700000Y-67346990D01*
X122960000Y-79375000D02*
X125184981Y-77150019D01*
G04 #@! TO.N,Net-(J2-Pad2)*
X119570000Y-53530000D02*
X119380000Y-53340000D01*
X119570000Y-56515000D02*
X119570000Y-53530000D01*
G04 #@! TO.N,Net-(J5-Pad4)*
X143510000Y-69538232D02*
X143510000Y-69915000D01*
X134585010Y-66005010D02*
X139976778Y-66005010D01*
X139976778Y-66005010D02*
X143510000Y-69538232D01*
X130810000Y-62230000D02*
X134585010Y-66005010D01*
G04 #@! TO.N,Net-(J5-Pad2)*
X136848232Y-62230000D02*
X143233222Y-68614990D01*
X133350000Y-62230000D02*
X136848232Y-62230000D01*
X144780000Y-71628000D02*
X144780000Y-69915000D01*
X136587000Y-76708000D02*
X136460000Y-76835000D01*
X139192000Y-76708000D02*
X136587000Y-76708000D01*
X143856758Y-68614990D02*
X144135010Y-68893242D01*
X143233222Y-68614990D02*
X143856758Y-68614990D01*
X144135010Y-69270010D02*
X144780000Y-69915000D01*
X144135010Y-68893242D02*
X144135010Y-69270010D01*
X144272000Y-72136000D02*
X144780000Y-71628000D01*
X143256000Y-72136000D02*
X144272000Y-72136000D01*
G04 #@! TD*
M02*
