%FSLAX45Y45*%
G04 Gerber Fmt 4.5, Leading zero omitted, Abs format (unit mm)*
G04 Created by KiCad (PCBNEW (5.1.10-1-10_14)) date 2021-06-28 16:00:18*
%MOMM*%
%LPD*%
G01*
G04 APERTURE LIST*
%TA.AperFunction,Profile*%
%ADD10C,0.050000*%
%TD*%
%ADD11C,0.200000*%
%ADD12C,0.300000*%
G04 APERTURE END LIST*
D10*
X16459200Y-4267200D02*
X11125200Y-4267200D01*
X16459200Y-8839200D02*
X16459200Y-4267200D01*
X11125200Y-8839200D02*
X16459200Y-8839200D01*
X11125200Y-4267200D02*
X11125200Y-8839200D01*
D11*
D12*
X11409128Y-9307414D02*
X11409128Y-9007414D01*
X11480557Y-9007414D01*
X11523414Y-9021700D01*
X11551986Y-9050272D01*
X11566271Y-9078843D01*
X11580557Y-9135986D01*
X11580557Y-9178843D01*
X11566271Y-9235986D01*
X11551986Y-9264557D01*
X11523414Y-9293129D01*
X11480557Y-9307414D01*
X11409128Y-9307414D01*
X11709128Y-9307414D02*
X11709128Y-9107414D01*
X11709128Y-9164557D02*
X11723414Y-9135986D01*
X11737700Y-9121700D01*
X11766271Y-9107414D01*
X11794843Y-9107414D01*
X11894843Y-9307414D02*
X11894843Y-9107414D01*
X11894843Y-9007414D02*
X11880557Y-9021700D01*
X11894843Y-9035986D01*
X11909128Y-9021700D01*
X11894843Y-9007414D01*
X11894843Y-9035986D01*
X12080557Y-9307414D02*
X12051986Y-9293129D01*
X12037700Y-9264557D01*
X12037700Y-9007414D01*
X12237700Y-9307414D02*
X12209128Y-9293129D01*
X12194843Y-9264557D01*
X12194843Y-9007414D01*
X12580557Y-9307414D02*
X12580557Y-9007414D01*
X12680557Y-9221700D01*
X12780557Y-9007414D01*
X12780557Y-9307414D01*
X13051986Y-9307414D02*
X13051986Y-9150272D01*
X13037700Y-9121700D01*
X13009128Y-9107414D01*
X12951986Y-9107414D01*
X12923414Y-9121700D01*
X13051986Y-9293129D02*
X13023414Y-9307414D01*
X12951986Y-9307414D01*
X12923414Y-9293129D01*
X12909128Y-9264557D01*
X12909128Y-9235986D01*
X12923414Y-9207414D01*
X12951986Y-9193129D01*
X13023414Y-9193129D01*
X13051986Y-9178843D01*
X13194843Y-9107414D02*
X13194843Y-9407414D01*
X13194843Y-9121700D02*
X13223414Y-9107414D01*
X13280557Y-9107414D01*
X13309128Y-9121700D01*
X13323414Y-9135986D01*
X13337700Y-9164557D01*
X13337700Y-9250272D01*
X13323414Y-9278843D01*
X13309128Y-9293129D01*
X13280557Y-9307414D01*
X13223414Y-9307414D01*
X13194843Y-9293129D01*
X13466271Y-9278843D02*
X13480557Y-9293129D01*
X13466271Y-9307414D01*
X13451986Y-9293129D01*
X13466271Y-9278843D01*
X13466271Y-9307414D01*
X13466271Y-9121700D02*
X13480557Y-9135986D01*
X13466271Y-9150272D01*
X13451986Y-9135986D01*
X13466271Y-9121700D01*
X13466271Y-9150272D01*
M02*
